<?xml version="1.0" encoding="UTF-8" standalone="no"?>
<!-- Created with Inkscape (http://www.inkscape.org/) -->

<svg
   version="1.1"
   id="svg1"
   width="1122.5197"
   height="793.70074"
   viewBox="0 0 1122.5197 793.70074"
   xmlns="http://www.w3.org/2000/svg"
   xmlns:svg="http://www.w3.org/2000/svg">
  <defs
     id="defs1" />
  <g
     id="g1">
    <path
       id="path1"
       d="m 512.52,345.25 c -0.715,-0.687 -1.481,-3.648 -1.481,-5.738 0,-0.883 -0.402,-1.797 -1.168,-2.664 l -1.164,-1.321 v -34.816 l -0.969,-1.106 c -1.09,-1.246 -1.261,-2.894 -0.386,-3.773 1.25,-1.258 0.492,-5.32 -2.106,-11.312 -0.258,-0.598 -1.988,-0.727 -11.223,-0.832 l -10.918,-0.125 -1.16,-1.95 c -0.64,-1.074 -1.164,-2.195 -1.164,-2.496 0,-0.297 0.539,-1.433 1.199,-2.519 l 1.196,-1.981 h 10.429 c 10.391,0 10.434,0 10.993,-1.058 0.308,-0.586 0.679,-1.84 0.82,-2.793 0.227,-1.489 0.121,-1.883 -0.746,-2.797 -0.992,-1.051 -1.008,-1.153 -1.008,-7.582 0,-6.364 -0.019,-6.543 -0.969,-7.543 -0.929,-0.985 -0.968,-1.242 -0.968,-6.539 0,-4.114 0.136,-5.653 0.535,-6.055 0.293,-0.297 0.644,-1.211 0.781,-2.035 0.137,-0.824 0.523,-2.008 0.859,-2.637 0.559,-1.031 0.825,-1.121 2.856,-0.941 1.234,0.109 2.699,0.562 3.262,1.008 l 1.015,0.808 v 17.75 l 1.301,1.625 c 0.715,0.899 1.68,2.867 2.144,4.379 0.747,2.414 1.122,4.297 2.321,11.582 l 0.273,1.652 4.293,0.133 c 3.477,0.106 4.387,-0.008 4.785,-0.59 0.938,-1.379 4.321,-0.933 7.395,0.969 l 2.73,1.692 -0.226,7.695 -3.024,-0.059 c -2.511,-0.047 -3.175,-0.226 -3.902,-1.058 -1.094,-1.246 -1.34,-1.25 -2.422,-0.012 -0.531,0.605 -2.051,1.293 -3.906,1.769 l -3.035,0.778 -0.102,17.969 c -0.086,15.562 -0.023,18.046 0.485,18.558 0.765,0.774 0.742,1.957 -0.071,3.68 -0.621,1.312 -0.621,1.465 0,2.613 0.551,1.02 0.656,2.465 0.656,8.77 v 7.55 l -1.042,0.832 c -1.348,1.071 -6.227,1.426 -7.168,0.52 z m 60.507,0 c -0.714,-0.687 -1.48,-3.648 -1.484,-5.738 0,-0.883 -0.402,-1.797 -1.164,-2.664 l -1.164,-1.321 v -34.816 l -0.973,-1.106 c -1.09,-1.246 -1.258,-2.894 -0.387,-3.773 1.25,-1.258 0.497,-5.32 -2.105,-11.312 -0.258,-0.598 -1.984,-0.727 -11.223,-0.832 l -10.918,-0.125 -1.16,-1.95 c -0.64,-1.074 -1.16,-2.195 -1.16,-2.496 0,-0.297 0.539,-1.433 1.195,-2.519 l 1.2,-1.981 h 10.429 c 10.391,0 10.43,0 10.989,-1.058 0.312,-0.586 0.679,-1.84 0.824,-2.793 0.222,-1.489 0.117,-1.883 -0.746,-2.797 -0.996,-1.051 -1.008,-1.153 -1.008,-7.582 0,-6.364 -0.024,-6.543 -0.969,-7.543 -0.933,-0.985 -0.973,-1.242 -0.973,-6.539 0,-4.114 0.137,-5.653 0.536,-6.055 0.297,-0.297 0.648,-1.211 0.781,-2.035 0.137,-0.824 0.523,-2.008 0.863,-2.637 0.555,-1.031 0.82,-1.121 2.856,-0.941 1.23,0.109 2.699,0.562 3.257,1.008 l 1.016,0.808 v 17.75 l 1.301,1.625 c 0.715,0.899 1.683,2.867 2.148,4.379 0.742,2.414 1.121,4.297 2.321,11.582 l 0.273,1.652 4.289,0.133 c 3.477,0.106 4.387,-0.008 4.785,-0.59 0.942,-1.379 4.324,-0.933 7.395,0.969 l 2.73,1.692 -0.113,3.847 -0.109,3.848 -3.028,-0.059 c -2.511,-0.047 -3.172,-0.226 -3.902,-1.058 -1.09,-1.246 -1.34,-1.25 -2.422,-0.012 -0.531,0.605 -2.047,1.293 -3.902,1.769 l -3.035,0.778 -0.102,17.969 c -0.09,15.562 -0.023,18.046 0.484,18.558 0.75,0.758 0.754,2.547 0.004,3.305 -0.738,0.746 -0.742,1.922 -0.011,3.094 0.445,0.714 0.574,2.586 0.582,8.562 l 0.011,7.652 -1.043,0.832 c -1.347,1.071 -6.226,1.426 -7.168,0.52 z m 42.34,-3.723 c -0.531,-0.504 -2.453,-1.289 -4.265,-1.746 l -3.297,-0.828 -0.098,-34.445 -0.102,-34.445 -0.964,-1.106 c -1.078,-1.227 -1.262,-2.887 -0.411,-3.742 1.016,-1.027 1.118,-3.188 0.25,-5.367 -0.777,-1.946 -0.808,-2.754 -0.808,-19.938 0,-14.293 0.105,-18.086 0.523,-18.781 1.039,-1.727 6.938,-1.555 8.418,0.246 0.727,0.883 0.754,1.777 0.754,25.215 v 24.301 l 0.973,1.093 0.969,1.094 v 11.305 c 0,10.707 -0.043,11.347 -0.778,12.156 -0.687,0.758 -0.773,1.453 -0.773,6.121 0,5.008 0.047,5.32 0.969,6.371 l 0.968,1.11 v 22.488 l 0.914,0.422 c 0.641,0.293 0.981,0.91 1.133,2.058 0.637,4.758 -2.015,8.645 -4.375,6.418 z m -174.176,-6.25 c -3.464,-1.507 -10.132,-5.797 -11.949,-7.687 -1.012,-1.051 -1.644,-2.227 -1.976,-3.676 -0.27,-1.176 -0.731,-2.379 -1.028,-2.672 -0.422,-0.426 -0.531,-2.625 -0.531,-10.5 0,-8.91 0.078,-10.156 0.754,-11.844 0.414,-1.039 1.781,-4.539 3.039,-7.781 5.574,-14.363 13.41,-22.203 22.211,-22.222 6.246,-0.016 12.965,4.882 18.125,13.203 4.734,7.632 7.187,16.679 5.336,19.656 -0.762,1.219 -0.746,3.242 0.031,4.023 0.863,0.871 0.488,4.356 -0.805,7.461 -1.316,3.153 -5.39,8.352 -9.46,12.063 -5.762,5.254 -14.364,10.078 -19.258,10.801 -1.489,0.218 -2.528,0.027 -4.489,-0.825 z m 15.653,-14.222 c 1.156,-1.426 2.422,-2.594 2.812,-2.594 1.242,0 2.43,-1.887 3.52,-5.594 0.582,-1.98 1.289,-3.933 1.574,-4.344 0.746,-1.074 0.738,-14.429 -0.012,-15.48 -0.289,-0.41 -0.898,-2.105 -1.351,-3.766 -1.297,-4.757 -1.297,-4.757 -7.051,-4.757 -3.914,0 -5.035,0.144 -5.418,0.707 -0.316,0.464 -1.184,0.707 -2.523,0.707 -1.336,0 -2.204,-0.243 -2.52,-0.707 -0.699,-1.028 -2.582,-0.872 -3.539,0.293 -2.035,2.476 -5.926,14.878 -6.426,20.503 -0.398,4.446 1.422,13.586 3.223,16.188 l 0.992,1.437 h 14.621 z m 266.441,12.91 c -4.719,-0.953 -10.851,-4.27 -15.105,-8.164 -4.789,-4.383 -8.313,-10.91 -8.407,-15.571 l -0.046,-2.375 4.953,-0.132 c 5.554,-0.149 6.058,0.144 4.547,2.632 -0.801,1.309 -0.813,1.461 -0.227,2.836 1.227,2.887 9.488,8.793 15.293,10.938 2.566,0.945 3.02,0.984 5.379,0.441 4.996,-1.144 12.027,-6.609 13.297,-10.336 0.715,-2.097 0.351,-7.359 -0.688,-9.953 -1.832,-4.578 -6.523,-9.101 -12.195,-11.761 -1.707,-0.801 -6.012,-2.418 -9.559,-3.59 -3.547,-1.176 -6.922,-2.539 -7.5,-3.039 -0.91,-0.778 -1.75,-0.899 -6.207,-0.899 l -5.152,0.004 -1.008,-1.484 c -0.976,-1.446 -1.129,-1.5 -5.222,-1.891 -5.133,-0.484 -6.692,-1.051 -7.176,-2.601 -0.629,-2.008 -0.43,-2.524 2.254,-5.918 6.23,-7.872 12.132,-11.879 25.89,-17.59 3.625,-1.504 6.867,-3.02 7.207,-3.367 0.426,-0.438 1.875,-0.629 4.821,-0.629 3.816,0 4.296,0.101 5.125,1.047 0.687,0.781 1.589,1.117 3.601,1.343 3.551,0.395 3.875,0.774 3.875,4.551 0,3.606 -0.847,6.137 -2.273,6.797 -1.477,0.68 -2.625,0.137 -4.707,-2.227 -2.438,-2.773 -3.477,-2.945 -8.637,-1.433 -8.258,2.418 -17.605,7.715 -18.93,10.726 -0.816,1.856 -0.152,3.11 2.063,3.895 1.121,0.394 2.34,1.152 2.711,1.683 0.621,0.883 1.117,0.961 6.125,0.961 4.043,0 5.668,0.172 6.304,0.672 0.473,0.367 4.438,2.196 8.809,4.063 4.375,1.863 8.641,3.816 9.48,4.336 0.84,0.515 3.25,2.984 5.352,5.48 l 3.824,4.543 0.563,4.242 c 0.308,2.332 0.562,4.899 0.562,5.703 0,0.879 0.324,1.813 0.813,2.352 0.656,0.723 0.765,1.234 0.57,2.707 -0.809,6.152 -7.484,13.563 -16.43,18.234 -5.66,2.957 -9.386,3.696 -13.949,2.774 z m -504.437,-0.262 c -0.141,-0.172 -0.258,-5.98 -0.258,-12.906 v -12.594 l -1.356,-1.262 -1.359,-1.257 V 289.34 l -0.988,-0.785 c -0.571,-0.453 -1.539,-2.25 -2.282,-4.231 -1.449,-3.867 -2.464,-4.992 -4.515,-4.992 -1.711,0 -3.5,1.504 -6.789,5.711 -3.418,4.363 -4.098,5.875 -6.766,15.031 -2.828,9.711 -4.59,14.551 -5.859,16.09 -0.863,1.043 -0.934,1.547 -1.113,7.953 l -0.196,6.836 h -12.41 l -0.195,-14.691 c -0.106,-8.082 -0.282,-14.778 -0.387,-14.875 -0.105,-0.102 -0.676,-0.547 -1.262,-0.992 l -1.066,-0.813 v -29.238 l -1.356,-0.973 -1.359,-0.973 v -14.73 c 0,-14.133 -0.031,-14.766 -0.773,-15.586 -0.723,-0.793 -0.778,-1.453 -0.778,-9.207 v -8.352 l 3.375,-1.968 c 2.207,-1.289 3.782,-1.918 4.555,-1.828 l 1.184,0.14 0.195,8.567 c 0.105,4.711 0.281,8.648 0.387,8.746 0.109,0.101 0.675,0.547 1.261,0.992 l 1.067,0.812 0.008,17.547 c 0,9.653 0.132,17.785 0.289,18.071 0.156,0.285 0.679,0.769 1.156,1.078 0.855,0.547 0.875,0.734 0.875,8.789 v 8.226 l 1.148,1.25 c 1.239,1.34 1.762,2.887 2.172,6.418 0.344,2.992 1.149,2.918 1.692,-0.16 0.234,-1.32 1.121,-4.008 1.972,-5.973 0.852,-1.96 1.547,-3.906 1.547,-4.32 0,-0.414 2.402,-3.644 5.336,-7.18 4.004,-4.828 5.715,-6.57 6.883,-7.011 0.851,-0.324 2.019,-0.989 2.594,-1.477 0.929,-0.793 1.679,-0.879 6.789,-0.762 l 5.742,0.133 2.105,5.184 c 2.7,6.641 7.41,20.293 7.672,22.234 0.133,0.957 -0.019,1.883 -0.422,2.582 -0.855,1.485 -0.793,2.125 0.344,3.321 l 0.969,1.027 v 19.605 l 0.926,0.739 c 0.753,0.601 1.003,1.394 1.359,4.293 0.238,1.957 0.336,3.754 0.215,3.988 -0.25,0.492 -11.93,0.602 -12.328,0.117 z m 29.625,-1.312 c -0.258,-0.379 -1.387,-1.008 -2.508,-1.407 -1.125,-0.394 -2.531,-1.187 -3.129,-1.761 -1.293,-1.235 -2.816,-5.168 -4.254,-10.996 -0.578,-2.336 -1.383,-4.946 -1.793,-5.805 -0.644,-1.344 -0.746,-2.512 -0.746,-8.543 0,-5.461 0.121,-7.109 0.551,-7.543 0.304,-0.305 0.761,-2.082 1.015,-3.945 0.61,-4.446 0.809,-4.828 2.864,-5.457 1.668,-0.508 1.765,-0.641 2.422,-3.164 0.886,-3.43 3.984,-7.004 8.191,-9.469 2.519,-1.473 3.5,-1.781 6.191,-1.953 2.25,-0.145 3.379,-0.024 3.801,0.402 0.348,0.352 1.848,0.648 3.59,0.711 9.066,0.324 18.695,9.367 18.695,17.559 0,1.269 -0.425,2.218 -1.965,4.378 -1.082,1.516 -2.824,3.629 -3.871,4.696 -1.851,1.883 -2.031,1.957 -6.191,2.535 -3.754,0.523 -4.418,0.75 -5.363,1.848 l -1.075,1.257 h -7.203 c -5.297,0 -7.308,0.153 -7.593,0.586 -0.61,0.922 -1.7,7.399 -1.364,8.114 0.164,0.355 1.117,1.515 2.114,2.582 1.093,1.168 2,2.636 2.281,3.695 0.258,0.969 0.64,2.023 0.851,2.348 0.614,0.937 26.243,0.839 27.27,-0.106 0.562,-0.515 1.93,-0.695 5.426,-0.707 l 4.675,-0.012 1.239,1.555 c 1.312,1.645 1.504,2.621 0.82,4.172 -0.57,1.301 -2.375,2.129 -5.519,2.535 -1.942,0.25 -2.938,0.637 -3.743,1.461 l -1.093,1.121 h -17.063 c -14.445,0 -17.129,-0.105 -17.523,-0.687 z m 9.715,-34.477 c 0.386,-0.422 3.125,-1.336 6.296,-2.098 6.067,-1.457 8.286,-2.355 8.649,-3.5 1.328,-4.207 -7.625,-10.625 -14.817,-10.625 -3.961,0 -6.675,2.321 -8.539,7.305 -0.957,2.555 -1.886,7.953 -1.55,9.012 0.316,1.012 9.031,0.933 9.961,-0.094 z m 116.585,33.274 c -4.953,-2.438 -14.125,-7.575 -16.355,-9.161 l -1.75,-1.25 v -8.293 c 0,-8.242 -0.004,-8.3 -0.969,-9.386 -0.851,-0.957 -0.969,-1.481 -0.969,-4.313 0,-2.012 0.29,-4.226 0.774,-5.902 0.766,-2.649 1.043,-7.625 0.48,-8.649 -0.156,-0.285 -0.679,-0.769 -1.16,-1.078 -0.867,-0.554 -0.871,-0.625 -0.871,-11.683 v -11.125 l -0.969,-1.094 c -0.773,-0.871 -0.972,-1.547 -0.972,-3.344 0,-2.23 0.047,-2.308 3.968,-7.094 2.184,-2.664 4.29,-4.839 4.68,-4.839 0.391,0 1.633,1.058 2.758,2.355 l 2.051,2.359 h 6.48 c 6.004,0 6.594,-0.078 8.028,-1.062 l 1.543,-1.059 1.054,1.528 1.051,1.531 9.309,0.121 9.308,0.117 0.106,7.121 0.105,7.117 -1.59,1.282 c -2.675,2.152 -3.425,5.746 -1.715,8.218 1.059,1.532 3.106,2.504 7.165,3.415 1.386,0.308 2.957,0.835 3.492,1.164 1.621,1.004 4.058,4.421 6.922,9.707 1.5,2.761 2.91,5.16 3.136,5.332 0.254,0.187 0.414,2.453 0.414,5.871 v 5.562 l -2.273,4.192 c -3.766,6.945 -6.727,9.804 -15.383,14.851 -4.269,2.489 -5.851,3.672 -6.879,5.125 l -1.332,1.895 h -5.445 c -5.379,0 -5.453,0.015 -6.082,1.179 -0.977,1.809 -3.414,1.598 -8.11,-0.71 z m 12.555,-8.278 c 0.832,-1.219 2.262,-1.918 8.11,-3.972 8.605,-3.02 11.632,-5.211 13.8,-9.989 1.024,-2.25 1.141,-2.945 1.145,-6.754 0.004,-3.621 -0.121,-4.449 -0.848,-5.656 -0.465,-0.777 -1.047,-2.355 -1.293,-3.508 -0.332,-1.551 -1.109,-2.926 -2.996,-5.301 l -2.551,-3.21 h -5.769 c -5.074,0 -5.899,0.109 -6.821,0.906 -1.078,0.933 -16.585,6.492 -21.796,7.816 -1.598,0.406 -3.071,0.942 -3.274,1.192 -0.238,0.285 0.008,0.929 0.672,1.773 l 1.047,1.328 0.004,7.988 c 0.004,4.395 0.133,8.223 0.289,8.508 0.16,0.285 0.68,0.77 1.16,1.074 1.098,0.704 1.109,1.809 0.039,3.196 -1.183,1.531 -0.519,2.242 2.77,2.957 1.496,0.324 3.113,0.988 3.589,1.472 0.766,0.774 1.579,0.887 6.547,0.903 4.688,0.012 5.762,-0.113 6.176,-0.723 z m -10.289,-43.59 c 0.133,-0.269 2.055,-1.965 4.27,-3.769 6.593,-5.375 9.996,-9.711 10.793,-13.75 0.312,-1.578 0.296,-1.59 -4.989,-3.785 -3.254,-1.348 -4.883,-1.77 -6.875,-1.778 -2.351,-0.004 -2.672,0.11 -3.238,1.16 -0.613,1.137 -0.758,1.168 -6.117,1.297 l -5.488,0.129 -0.11,5.942 c -0.086,4.871 0,6.05 0.485,6.543 0.8,0.804 0.746,2.039 -0.18,4.254 -0.789,1.878 -0.985,3.359 -0.52,3.925 0.434,0.528 11.696,0.367 11.969,-0.168 z m 260.453,53.071 c -0.258,-0.379 -1.387,-1.008 -2.508,-1.407 -1.121,-0.394 -2.531,-1.187 -3.129,-1.761 -1.292,-1.235 -2.812,-5.168 -4.253,-10.996 -0.579,-2.336 -1.383,-4.946 -1.793,-5.805 -0.641,-1.344 -0.743,-2.512 -0.743,-8.543 0,-5.461 0.118,-7.109 0.551,-7.543 0.301,-0.305 0.758,-2.082 1.012,-3.945 0.609,-4.446 0.812,-4.828 2.863,-5.457 1.668,-0.508 1.766,-0.641 2.422,-3.164 0.891,-3.43 3.984,-7.004 8.195,-9.469 2.516,-1.473 3.496,-1.781 6.192,-1.953 2.25,-0.145 3.375,-0.024 3.797,0.402 0.351,0.352 1.851,0.648 3.59,0.711 9.07,0.324 18.695,9.367 18.695,17.559 0,1.269 -0.426,2.218 -1.965,4.378 -1.082,1.516 -2.82,3.629 -3.871,4.696 -1.848,1.883 -2.031,1.957 -6.192,2.535 -3.753,0.523 -4.417,0.75 -5.359,1.848 l -1.078,1.257 h -7.203 c -5.297,0 -7.309,0.153 -7.594,0.586 -0.609,0.922 -1.695,7.399 -1.363,8.114 0.164,0.355 1.117,1.515 2.117,2.582 1.09,1.168 2,2.636 2.277,3.695 0.258,0.969 0.641,2.023 0.852,2.348 0.613,0.937 26.242,0.839 27.269,-0.106 0.563,-0.515 1.934,-0.695 5.43,-0.707 l 4.672,-0.012 1.242,1.555 c 1.309,1.645 1.504,2.621 0.821,4.172 -0.575,1.301 -2.379,2.129 -5.524,2.535 -1.941,0.25 -2.937,0.637 -3.742,1.461 l -1.094,1.121 H 655.02 c -14.45,0 -17.133,-0.105 -17.528,-0.687 z m 9.719,-34.477 c 0.383,-0.422 3.121,-1.336 6.297,-2.098 6.062,-1.457 8.285,-2.355 8.644,-3.5 1.328,-4.207 -7.621,-10.625 -14.816,-10.625 -3.961,0 -6.672,2.321 -8.539,7.305 -0.953,2.555 -1.887,7.953 -1.551,9.012 0.32,1.012 9.031,0.933 9.965,-0.094 z M 127.66,329.656 c -0.078,-0.324 -0.414,-2.812 -0.738,-5.535 -0.516,-4.289 -0.727,-5.078 -1.586,-5.91 l -0.996,-0.965 v -8.129 c 0,-7.597 -0.059,-8.277 -0.914,-10.355 -1.457,-3.551 -4.488,-17.102 -6.449,-28.86 -1.317,-7.894 -0.196,-7.07 -9.645,-7.07 -6.734,0 -8.187,0.121 -8.59,0.707 -0.39,0.578 -1.66,0.707 -6.836,0.707 -5.761,0 -6.422,-0.082 -7.101,-0.91 -0.856,-1.043 -1.571,-3.789 -1.575,-6.043 v -1.531 h 19.645 l 1.82,-2.36 h 26.067 c 22.64,0 26.129,0.094 26.547,0.707 0.261,0.387 1.199,0.938 2.082,1.223 2.3,0.742 2.961,1.629 2.961,3.973 0,3.695 -2.071,5.406 -6.547,5.41 -1.418,0.004 -2.492,-0.301 -3.352,-0.945 -1.211,-0.911 -1.816,-0.946 -14.004,-0.825 -14.793,0.145 -14.015,-0.203 -11.379,5.098 1.512,3.043 1.758,4.062 3.477,14.238 2.379,14.098 4.07,22.016 5.473,25.641 1.093,2.828 1.121,3.078 1.121,10.699 v 7.809 l 1.214,1.379 c 0.672,0.761 1.098,1.617 0.95,1.91 -0.403,0.785 -11.446,0.73 -11.645,-0.063 z M 68.398,252.668 c -0.585,-0.387 -1.156,-1.176 -1.273,-1.75 -0.113,-0.578 -0.16,-8.582 -0.102,-17.785 l 0.11,-16.735 2.328,0.165 c 2.602,0.187 5.469,1.207 6.496,2.312 0.606,0.656 0.68,1.809 0.68,10.887 v 10.156 l 1.066,1.355 c 0.988,1.262 1.059,1.618 0.992,4.942 -0.074,3.859 -0.679,5.465 -2.484,6.594 -1.316,0.82 -6.496,0.726 -7.813,-0.141 z m 707.45,0 c -0.582,-0.387 -1.157,-1.176 -1.27,-1.75 -0.117,-0.578 -0.16,-8.582 -0.101,-17.785 l 0.109,-16.735 2.324,0.165 c 2.602,0.187 5.473,1.207 6.496,2.312 0.61,0.656 0.68,1.809 0.68,10.887 v 10.156 l 1.066,1.355 c 0.989,1.262 1.063,1.618 0.996,4.942 -0.078,3.859 -0.683,5.465 -2.488,6.594 -1.312,0.82 -6.492,0.726 -7.812,-0.141 z M 54.336,249.531 c -0.094,-0.332 -0.445,-2.726 -0.777,-5.32 -0.383,-3.004 -0.879,-5.176 -1.368,-5.992 -0.992,-1.649 -0.968,-1.989 0.204,-2.922 l 0.968,-0.774 v -8.906 c 0,-6.496 0.125,-8.957 0.465,-9.094 0.254,-0.105 2.016,0.071 3.91,0.387 5.297,0.887 5.325,0.938 5.309,10.059 -0.008,5.707 -0.137,7.547 -0.582,8.258 -0.731,1.179 -0.723,2.347 0.023,3.105 0.485,0.484 0.575,1.617 0.489,6.066 l -0.11,5.469 -4.179,0.137 c -3.129,0.098 -4.219,-0.02 -4.352,-0.473 z m 707.453,0 c -0.098,-0.332 -0.445,-2.726 -0.777,-5.32 -0.383,-3.004 -0.883,-5.176 -1.371,-5.992 -0.989,-1.649 -0.965,-1.989 0.203,-2.922 l 0.972,-0.774 v -8.906 c 0,-6.496 0.125,-8.957 0.465,-9.094 0.254,-0.105 2.016,0.071 3.91,0.387 5.293,0.887 5.325,0.938 5.309,10.059 -0.008,5.707 -0.141,7.547 -0.582,8.258 -0.734,1.179 -0.727,2.347 0.023,3.105 0.481,0.484 0.571,1.617 0.485,6.066 l -0.11,5.469 -4.175,0.137 c -3.133,0.098 -4.223,-0.02 -4.352,-0.473 z"
       style="fill:#0a0a0a;fill-opacity:1;fill-rule:nonzero;stroke:none"
       transform="scale(1.3333333)" />
  </g>
</svg>
