<?xml version="1.0" encoding="UTF-8" standalone="no"?>
<!-- Created with Inkscape (http://www.inkscape.org/) -->

<svg
   version="1.1"
   id="svg1"
   width="1122.5197"
   height="793.70074"
   viewBox="0 0 1122.5197 793.70074"
   xmlns="http://www.w3.org/2000/svg"
   xmlns:svg="http://www.w3.org/2000/svg">
  <defs
     id="defs1" />
  <g
     id="g1">
    <path
       id="path1"
       d="m 289.59,139.211 c -1.195,-0.086 -2.703,0.391 -3.391,1.309 -1.226,1.648 -1.547,1.64 -4.488,-0.086 -4.566,-2.68 -11.027,-0.395 -14.672,5.187 -5.465,8.367 -8.254,21.215 -8.254,38.027 0,22.86 5.297,40.036 13.844,44.872 3.434,1.941 8.746,2.085 11.941,0.32 4.848,-2.676 8.059,-9.395 7.766,-16.25 l -0.164,-3.922 -2.762,-0.195 c -1.847,-0.129 -2.969,0.105 -3.383,0.711 -0.339,0.496 -0.871,3.101 -1.179,5.789 -0.317,2.734 -1.004,5.613 -1.559,6.535 -1.351,2.23 -3.516,2.488 -4.637,0.551 -0.765,-1.332 -0.863,-5.496 -0.859,-36.418 0.012,-38.18 0.012,-38.207 2.977,-38.207 2.14,0 3.613,3.226 5.152,11.308 1.195,6.266 1.871,7.457 4.23,7.457 0.571,0 1.434,-0.531 1.918,-1.179 0.801,-1.075 0.821,-2.247 0.184,-12.711 -0.383,-6.336 -0.879,-11.879 -1.102,-12.313 -0.246,-0.484 -0.847,-0.734 -1.562,-0.785 z m 15.176,1.422 c -3.028,0.023 -4.672,0.222 -5.055,0.609 -1.285,1.289 -0.934,5.426 0.605,7.18 l 1.356,1.547 v 70.23 l -1.356,1.43 c -1.043,1.098 -1.359,2.07 -1.359,4.168 0,1.504 0.164,2.93 0.363,3.172 0.68,0.828 18.368,0.504 19.071,-0.348 0.914,-1.109 0.828,-5.098 -0.121,-5.539 -0.422,-0.195 -0.973,-0.855 -1.219,-1.461 -0.25,-0.605 -0.574,-19.027 -0.723,-40.937 l -0.269,-39.832 -7.797,-0.184 c -1.324,-0.031 -2.489,-0.043 -3.496,-0.035 z m 82.699,0 c -1.047,-0.008 -2.254,0.004 -3.625,0.035 l -8.067,0.184 -0.164,2.699 c -0.14,2.285 0.051,2.871 1.219,3.801 l 1.387,1.101 v 72.824 l -1.383,1.578 c -1.07,1.215 -1.348,2.106 -1.223,3.899 l 0.164,2.324 h 8.415 c 8.203,0 8.425,-0.035 8.949,-1.48 0.683,-1.891 0.84,-1.871 4.234,0.488 5.133,3.574 10.578,2.098 14.152,-3.828 3.766,-6.25 4.938,-13.891 4.918,-32.051 -0.019,-19.902 -1.472,-28.062 -6.054,-34.008 -1.328,-1.722 -3.278,-3.476 -4.328,-3.898 -2.817,-1.125 -6.825,-0.442 -9.364,1.594 -1.195,0.96 -2.422,1.746 -2.726,1.746 -0.348,0 -0.555,-2.938 -0.555,-7.821 0,-5.863 -0.187,-8.011 -0.754,-8.578 -0.383,-0.387 -2.062,-0.586 -5.195,-0.609 z m 83.851,0.219 -0.168,2.746 c -0.144,2.445 0,2.84 1.36,3.625 1.422,0.824 1.531,1.183 1.683,5.422 0.09,2.492 -0.074,4.824 -0.359,5.171 -0.34,0.407 -1.172,0.055 -2.336,-0.984 -6.031,-5.383 -13.012,-3.605 -16.715,4.262 -2.191,4.656 -3.187,10.426 -3.859,22.394 -1.43,25.352 1.879,41.137 9.504,45.336 3.812,2.102 7.945,1.27 12.105,-2.433 1.313,-1.172 1.153,-1.332 2.028,2.047 0.222,0.855 1.535,0.976 8.824,0.824 l 8.558,-0.184 0.18,-2.289 c 0.149,-1.867 -0.101,-2.566 -1.355,-3.777 l -1.536,-1.485 -0.273,-40.339 -0.273,-40.336 z m 96.692,12.839 c -2.719,0 -4.778,2.778 -6.297,8.512 -0.68,2.559 -1.438,4.656 -1.688,4.656 -0.25,0 -0.523,-2.742 -0.609,-6.089 l -0.156,-6.094 -7.051,-0.184 c -6.16,-0.16 -7.141,-0.043 -7.738,0.949 -1.063,1.762 -0.813,3.797 0.676,5.493 l 1.355,1.546 v 29.083 c 0,28.246 -0.031,29.117 -1.086,30.273 -1.078,1.184 -1.57,6.109 -0.711,7.148 0.203,0.25 4.785,0.371 10.18,0.274 l 9.805,-0.18 0.164,-2.402 c 0.128,-1.91 -0.176,-2.879 -1.493,-4.699 l -1.66,-2.289 v -24.063 c 0,-20.715 0.117,-24.203 0.832,-25.07 1.067,-1.297 1.981,-0.84 3.164,1.59 1.696,3.48 5.137,3.39 6.657,-0.172 1.175,-2.758 1.554,-8.762 0.773,-12.27 -0.859,-3.84 -2.707,-6.012 -5.117,-6.012 z m -49.195,0.336 c -3.946,0.008 -5.012,0.266 -7.395,1.782 -4.977,3.168 -8.941,10.015 -10.789,18.621 -2.941,13.711 -1.711,34.265 2.578,43.129 2.559,5.281 7.559,10.32 11.809,11.894 2.343,0.867 7.304,0.656 9.914,-0.422 3.371,-1.394 7.09,-5.5 8.777,-9.687 1.797,-4.461 2.691,-10.235 1.953,-12.598 -0.523,-1.668 -0.722,-1.754 -3.68,-1.566 l -3.125,0.199 -0.41,4.527 c -0.539,5.903 -2.019,9.895 -4.3,11.582 -2.54,1.875 -4.563,1.711 -6.411,-0.531 -2,-2.426 -2.273,-4.906 -2.066,-18.875 l 0.16,-11.191 10.043,-0.328 10.043,-0.333 -0.16,-6.91 c -0.324,-14.148 -3.481,-22.992 -9.805,-27.504 -2.215,-1.578 -3.078,-1.796 -7.136,-1.789 z m -180.75,0.434 c -1.043,-0.008 -2.25,0.004 -3.622,0.031 l -8.07,0.184 -0.168,2.797 c -0.137,2.3 0.082,3.07 1.223,4.355 l 1.39,1.559 v 27.054 c 0,17.024 0.215,28.293 0.59,30.395 0.668,3.793 2.645,7.019 5.082,8.305 3.598,1.902 7.387,0.945 12.367,-3.118 1.715,-1.398 3.352,-2.539 3.637,-2.539 0.285,0 0.594,1.258 0.684,2.797 l 0.168,2.797 h 16.828 l 0.172,-2.551 c 0.136,-2.011 -0.121,-2.922 -1.215,-4.308 l -1.391,-1.758 -0.14,-32.891 -0.141,-32.894 h -16.828 l -0.172,2.875 c -0.129,2.23 0.082,3.16 0.953,4.144 1.094,1.235 1.117,1.844 1.117,27.528 0,28.855 0.063,28.336 -3.265,28.336 -3.258,0 -3.246,0.089 -3.246,-32.332 0,-24.25 -0.133,-29.532 -0.754,-30.157 -0.383,-0.386 -2.067,-0.586 -5.199,-0.609 z m 180.359,6.055 c 0.555,-0.016 1.164,0.218 1.789,0.714 l 1.344,1.071 -0.149,10.672 -0.148,10.675 -2.465,0.196 c -1.355,0.105 -2.637,-0.016 -2.848,-0.278 -0.656,-0.793 -0.445,-19.121 0.239,-20.945 0.511,-1.363 1.304,-2.082 2.238,-2.105 z m -122.797,3.714 c 0.328,0.004 0.703,0.063 1.133,0.114 3.144,0.367 3.191,0.793 3.039,27.961 -0.133,22.996 -0.199,24.539 -1.172,25.843 -1.137,1.52 -3.535,1.832 -4.559,0.594 -0.484,-0.59 -0.652,-7.472 -0.652,-26.914 0,-25.168 -0.082,-27.644 2.211,-27.598 z m 75.379,0.04 c 0.918,-0.067 1.84,0.257 2.441,0.988 0.746,0.906 0.856,4.215 0.856,26.34 0,24.425 -0.039,25.347 -1.086,26.617 -1.317,1.598 -3.938,1.719 -4.957,0.23 -0.602,-0.882 -0.742,-5.894 -0.742,-26.269 0,-23.836 0.054,-25.254 1.031,-26.567 0.613,-0.816 1.535,-1.273 2.457,-1.339 z M 135.609,279.504 c -5.211,0.047 -12.25,2.48 -15.304,5.809 -3.797,4.144 -3.465,9.621 0.726,11.929 4.246,2.336 11.696,1.278 17.375,-2.472 6.231,-4.114 7.063,-11.684 1.586,-14.469 -1.113,-0.567 -2.644,-0.817 -4.383,-0.797 z m 117.207,0.066 c -1.836,0.016 -3.675,0.27 -5.285,0.77 -7.593,2.363 -11.433,8.058 -12.035,17.867 -0.281,4.574 -0.465,5.293 -1.41,5.504 -1.973,0.441 -2.441,1.469 -2.441,5.359 0,3.215 0.242,4.153 1.64,6.282 0.903,1.378 1.762,3.121 1.914,3.878 0.156,0.754 0.211,21.168 0.125,45.368 l -0.152,44 -1.77,1.761 c -1.644,1.641 -1.769,2.043 -1.765,5.77 0.004,2.203 0.172,4.207 0.375,4.453 0.207,0.25 7.105,0.371 15.336,0.273 l 14.965,-0.171 0.167,-3.914 c 0.157,-3.747 0.086,-4 -1.765,-6.055 l -1.93,-2.145 v -44.105 c 0,-29.563 0.192,-44.719 0.578,-45.961 0.317,-1.02 1.293,-2.652 2.172,-3.625 1.414,-1.578 1.594,-2.207 1.594,-5.633 0,-2.121 -0.293,-4.211 -0.652,-4.644 -0.438,-0.532 -2.911,-0.789 -7.559,-0.789 -6.637,0 -6.973,-0.067 -8.578,-1.708 -1.293,-1.316 -1.668,-2.238 -1.668,-4.062 0,-5.211 2.969,-6.047 8.578,-2.41 2.938,1.902 4.043,2.293 5.758,2.023 6.551,-1.023 7.828,-12.593 1.805,-16.32 -1.907,-1.18 -4.942,-1.797 -7.997,-1.766 z m -176.148,3.106 c -12.082,-0.008 -24.121,0.273 -24.602,0.855 -0.359,0.438 -0.652,2.485 -0.652,4.551 0,3.992 0.152,4.258 4.582,8.023 l 1.391,1.184 v 54.145 c 0,60.257 0.281,55.859 -3.77,58.367 -1.14,0.703 -2.222,1.758 -2.406,2.347 -0.531,1.676 -0.398,6.184 0.223,7.59 0.543,1.231 1.406,1.274 25.992,1.274 21.75,0 25.523,-0.141 26.094,-0.973 0.363,-0.535 1.539,-7.539 2.605,-15.566 l 1.945,-14.594 -1.312,-1.293 c -1.031,-1.012 -1.887,-1.227 -3.942,-0.984 -1.445,0.168 -3,0.757 -3.453,1.308 -0.453,0.551 -2.015,5.09 -3.468,10.09 -1.454,4.996 -3.141,9.695 -3.758,10.441 -0.883,1.075 -1.813,1.352 -4.496,1.36 l -3.383,0.004 v -57.942 l 3.363,-0.195 c 4.035,-0.234 4.418,0.27 5.863,7.621 1.051,5.359 1.664,6.074 5.215,6.074 4.321,0 4.285,0.149 4.285,-19.175 0,-16.125 -0.05,-17.028 -1.05,-17.672 -1.512,-0.985 -6.297,-0.856 -7.012,0.187 -0.328,0.481 -0.977,3.059 -1.442,5.731 -1.132,6.55 -1.789,7.332 -5.937,7.089 l -3.285,-0.195 v -48.723 l 2.121,-0.21 c 1.164,-0.114 2.68,-0.04 3.371,0.171 1.59,0.485 3.461,4.36 5.633,11.661 0.933,3.128 2.172,6.214 2.758,6.859 1.422,1.562 6.375,2.043 7.789,0.758 1.023,-0.93 0.996,-1.242 -1.219,-14.703 -1.617,-9.817 -2.531,-13.989 -3.184,-14.575 -0.652,-0.586 -12.777,-0.882 -24.859,-0.89 z m 283.633,0.015 c -6.231,0 -12.457,0.282 -12.922,0.84 -0.356,0.438 -0.649,2.528 -0.649,4.657 0,3.679 0.102,3.984 2.168,6.234 l 2.172,2.363 v 110.043 l -2.172,2.406 c -2.062,2.289 -2.168,2.598 -2.168,6.301 0,2.153 0.29,4.25 0.649,4.688 0.473,0.57 4.449,0.789 14.48,0.789 15.914,0 15.813,0.035 15.813,-5.246 0,-2.684 -0.242,-3.328 -1.899,-5.11 l -1.902,-2.043 v -62.144 c 0,-47.457 -0.152,-62.332 -0.652,-62.938 -0.461,-0.558 -6.692,-0.84 -12.918,-0.84 z m 40.715,0 c -6.231,0 -12.461,0.282 -12.922,0.84 -0.36,0.438 -0.653,2.528 -0.653,4.657 0,3.679 0.11,3.984 2.172,6.234 l 2.172,2.363 v 110.043 l -2.172,2.406 c -2.062,2.289 -2.172,2.598 -2.172,6.301 0,2.153 0.293,4.25 0.653,4.688 0.472,0.57 4.449,0.789 14.48,0.789 15.914,0 15.813,0.035 15.813,-5.246 0,-2.684 -0.242,-3.328 -1.903,-5.11 l -1.898,-2.043 v -62.144 c 0,-47.457 -0.156,-62.332 -0.652,-62.938 -0.461,-0.558 -6.692,-0.84 -12.918,-0.84 z m 92.285,0 c -6.231,0 -12.461,0.282 -12.922,0.84 -0.359,0.438 -0.649,2.528 -0.649,4.657 0,3.679 0.106,3.984 2.168,6.234 l 2.172,2.363 v 110.043 l -2.172,2.406 c -2.062,2.289 -2.168,2.598 -2.168,6.301 0,2.153 0.29,4.25 0.649,4.688 0.473,0.57 4.449,0.789 14.48,0.789 15.918,0 15.813,0.035 15.813,-5.246 0,-2.684 -0.242,-3.328 -1.902,-5.11 l -1.899,-2.043 v -62.144 c 0,-47.457 -0.152,-62.332 -0.648,-62.938 -0.465,-0.558 -6.696,-0.84 -12.922,-0.84 z m -32.692,19.805 c -0.867,0.004 -1.722,0.137 -2.32,0.418 -0.496,0.231 -1.121,1.117 -1.387,1.973 -0.632,2.015 -1.816,1.968 -5.742,-0.223 -4.031,-2.246 -10.207,-2.531 -13.23,-0.601 -2.649,1.683 -6.399,6.175 -7.688,9.203 -3.316,7.785 -3.398,21.964 -0.191,33.672 1.523,5.558 6.879,18.539 12.484,30.253 6.895,14.414 9.512,21.235 9.899,25.766 0.484,5.703 -1.84,7.738 -5.629,4.934 -1.973,-1.457 -4.043,-4.953 -6.969,-11.762 -1.137,-2.641 -2.555,-5.121 -3.148,-5.508 -1.305,-0.848 -6.7,-0.406 -7.54,0.613 -0.82,0.996 3.129,28.301 4.34,29.973 0.653,0.902 1.496,1.137 3.594,0.988 2.578,-0.183 2.801,-0.343 3.699,-2.664 1.125,-2.902 1.934,-3.047 4.625,-0.828 4.528,3.731 10.192,4.52 14.239,1.981 2.769,-1.739 5.976,-6.125 7.632,-10.438 2.078,-5.41 2.899,-12.285 2.485,-20.84 -0.719,-14.879 -3.125,-22.297 -16.024,-49.379 -5.648,-11.867 -8.734,-19.793 -8.746,-22.453 -0.008,-2.34 1.742,-4.16 3.488,-3.629 2.04,0.621 5.254,5.051 8.508,11.719 1.594,3.266 3.489,6.5 4.207,7.188 1.567,1.496 5.368,1.668 6.891,0.316 1.031,-0.914 1.004,-1.207 -1.234,-14.887 -1.258,-7.676 -2.571,-14.367 -2.914,-14.871 -0.403,-0.59 -1.883,-0.926 -3.329,-0.914 z m 165.028,0 c -0.867,0.004 -1.719,0.137 -2.321,0.418 -0.496,0.231 -1.121,1.117 -1.386,1.973 -0.633,2.015 -1.813,1.968 -5.739,-0.223 -4.035,-2.246 -10.211,-2.531 -13.234,-0.601 -2.644,1.683 -6.398,6.175 -7.684,9.203 -3.32,7.785 -3.398,21.964 -0.191,33.672 1.52,5.558 6.875,18.539 12.481,30.253 6.894,14.414 9.515,21.235 9.898,25.766 0.488,5.703 -1.836,7.738 -5.629,4.934 -1.969,-1.457 -4.039,-4.953 -6.969,-11.762 -1.136,-2.641 -2.554,-5.121 -3.148,-5.508 -1.305,-0.848 -6.695,-0.406 -7.539,0.613 -0.821,0.996 3.133,28.301 4.34,29.973 0.652,0.902 1.5,1.137 3.597,0.988 2.578,-0.183 2.797,-0.343 3.696,-2.664 1.125,-2.902 1.933,-3.047 4.629,-0.828 4.523,3.731 10.187,4.52 14.234,1.981 2.769,-1.739 5.976,-6.125 7.633,-10.438 2.078,-5.41 2.898,-12.285 2.484,-20.84 -0.719,-14.879 -3.125,-22.297 -16.019,-49.379 -5.649,-11.867 -8.739,-19.793 -8.75,-22.453 -0.008,-2.34 1.742,-4.16 3.488,-3.629 2.039,0.621 5.254,5.051 8.508,11.719 1.597,3.266 3.488,6.5 4.211,7.188 1.566,1.496 5.363,1.668 6.886,0.316 1.032,-0.914 1.008,-1.207 -1.234,-14.887 -1.258,-7.676 -2.566,-14.367 -2.914,-14.871 -0.402,-0.59 -1.883,-0.926 -3.328,-0.914 z m -74.793,0.024 c -6.129,0.093 -12.024,2.914 -16.848,8.332 -8.433,9.468 -12.672,24.339 -13.379,46.953 -0.801,25.578 2.981,43.004 11.766,54.222 4.051,5.176 7.402,7.758 12.004,9.258 8.593,2.805 17.617,-0.238 24.273,-8.183 8.641,-10.317 12.746,-24.844 13.488,-47.727 0.793,-24.391 -3.171,-41.871 -11.933,-52.645 -2.168,-2.664 -5.164,-5.57 -6.742,-6.535 -4.137,-2.531 -8.438,-3.742 -12.629,-3.675 z m 125.531,0.043 c -2.117,-0.016 -4.324,0.296 -6.602,0.949 -11.996,3.429 -20.546,17.461 -23.656,38.82 -2.613,17.969 -1.164,42.242 3.293,55.086 4.16,11.992 12.031,20.969 20.922,23.871 9.133,2.977 19.348,-0.742 25.328,-9.226 4.215,-5.977 7.156,-15.418 7.176,-23.024 0.012,-4.98 -0.742,-5.809 -5.504,-6.086 -5.555,-0.32 -5.934,0.121 -6.453,7.5 -0.496,7.07 -0.852,8.922 -2.445,12.781 -1.481,3.575 -3.121,5.524 -5.801,6.883 -4.461,2.258 -8.113,0.594 -10.25,-4.679 -1.285,-3.161 -1.297,-3.403 -1.297,-23.934 v -20.738 l 15.742,-0.328 15.742,-0.333 0.168,-6.253 c 0.344,-12.614 -1.383,-23.977 -5.054,-33.266 -4.614,-11.684 -12.137,-17.945 -21.309,-18.023 z m -472.484,0.027 c -1.914,-0.078 -3.961,0.219 -6.114,0.898 -3.832,1.211 -7.047,3.434 -10.644,7.356 -3.051,3.332 -3.156,3.246 -3.383,-2.75 l -0.148,-3.953 -12.692,-0.176 c -8.902,-0.125 -12.91,0.047 -13.433,0.574 -0.477,0.477 -0.75,2.121 -0.75,4.5 0,3.457 0.148,3.906 1.902,5.789 l 1.898,2.039 v 90.313 l -1.898,2.55 c -1.68,2.258 -1.902,2.965 -1.902,6.129 0,1.965 0.296,3.926 0.652,4.364 0.848,1.023 27.676,1.125 29.242,0.105 0.856,-0.555 1.051,-1.398 1.051,-4.586 0,-3.586 -0.156,-4.094 -1.902,-6.211 l -1.899,-2.304 v -41.125 c 0,-45.68 -0.277,-42.297 3.625,-44.274 2.465,-1.25 4.715,-1.117 6.223,0.363 l 1.281,1.258 0.27,45.324 c 0.289,48.254 0.156,45.895 2.906,50.426 l 1.101,1.813 h 10.957 c 12.766,0 12.438,0.16 12.075,-5.934 -0.2,-3.344 -0.5,-4.289 -1.946,-6.098 l -1.715,-2.14 -0.304,-90.188 -1.512,-3.726 c -2.648,-6.551 -7.199,-10.113 -12.941,-10.336 z m 555.886,0 c -1.914,-0.078 -3.961,0.219 -6.113,0.898 -3.832,1.211 -7.047,3.434 -10.644,7.356 -3.055,3.332 -3.157,3.246 -3.383,-2.75 l -0.153,-3.953 -12.687,-0.176 c -8.906,-0.125 -12.91,0.047 -13.434,0.574 -0.476,0.477 -0.75,2.121 -0.75,4.5 0,3.457 0.149,3.906 1.903,5.789 l 1.898,2.039 v 90.313 l -1.898,2.55 c -1.68,2.258 -1.903,2.965 -1.903,6.129 0,1.965 0.293,3.926 0.653,4.364 0.847,1.023 27.675,1.125 29.242,0.105 0.855,-0.555 1.051,-1.398 1.051,-4.586 0,-3.586 -0.157,-4.094 -1.903,-6.211 l -1.898,-2.304 v -41.125 c 0,-45.68 -0.278,-42.297 3.625,-44.274 2.465,-1.25 4.715,-1.117 6.222,0.363 l 1.282,1.258 0.269,45.324 c 0.289,48.254 0.157,45.895 2.907,50.426 l 1.097,1.813 h 10.961 c 12.762,0 12.438,0.16 12.074,-5.934 -0.199,-3.344 -0.504,-4.289 -1.949,-6.098 l -1.711,-2.14 -0.305,-90.188 -1.511,-3.726 c -2.653,-6.551 -7.203,-10.113 -12.942,-10.336 z m -455.39,0.305 c -6.985,0.015 -8.348,0.207 -12.074,1.71 -9.969,4.024 -15.274,11.149 -15.989,21.493 -0.355,5.179 0.93,9.75 3.27,11.609 4.215,3.352 16.179,0.488 18.332,-4.383 0.32,-0.726 0.699,-3.59 0.844,-6.363 0.468,-9.039 2.347,-12.613 6.628,-12.613 4.27,0 4.961,1.906 4.95,13.629 -0.004,4.996 -0.207,9.468 -0.453,9.933 -0.243,0.465 -4.911,3.059 -10.372,5.762 -12.21,6.039 -15.121,8.012 -19.375,13.144 -2.812,3.391 -3.515,4.723 -4.464,8.438 -2.293,9.012 -2.852,22.156 -1.422,33.641 1.535,12.355 5.343,19.195 12.39,22.257 2.09,0.907 3.793,1.145 6.676,0.926 4.957,-0.379 8.668,-2.473 13.207,-7.449 3.836,-4.215 3.301,-4.313 6.164,1.101 3.098,5.848 10.91,8.137 19.125,5.602 4.051,-1.254 5.676,-3.262 5.676,-7.016 0,-2.211 -0.328,-3.039 -1.879,-4.761 l -1.883,-2.094 -0.156,-42.109 -0.152,-42.118 -1.457,-3.761 c -1.684,-4.364 -5.688,-9.825 -8.84,-12.055 -4.488,-3.184 -10.141,-4.547 -18.746,-4.523 z m -174.258,0.867 c -6.231,0 -12.457,0.277 -12.922,0.84 -0.359,0.433 -0.648,2.527 -0.648,4.652 0,3.562 0.148,4.035 1.898,6.039 l 1.898,2.172 v 90.941 l -1.714,1.629 c -1.477,1.403 -1.75,2.137 -1.965,5.313 -0.164,2.39 -0.016,4.035 0.422,4.675 0.57,0.832 2.914,0.989 14.89,0.989 10.328,0 14.387,-0.215 14.86,-0.789 0.359,-0.438 0.652,-2.395 0.652,-4.356 0,-3.234 -0.176,-3.762 -1.902,-5.676 l -1.899,-2.113 v -51.344 c 0,-39.054 -0.156,-51.531 -0.652,-52.132 -0.461,-0.563 -6.692,-0.84 -12.918,-0.84 z m 545.57,9.992 c 1.059,0 2.117,0.508 3.094,1.523 l 1.523,1.586 v 32.051 l -4.488,0.191 c -3.457,0.145 -4.555,-0.023 -4.781,-0.73 -0.16,-0.508 -0.219,-7.805 -0.125,-16.219 l 0.164,-15.293 1.523,-1.586 c 0.973,-1.015 2.032,-1.523 3.09,-1.523 z m -124.183,0.004 c 0.386,0.004 0.785,0.066 1.191,0.187 1.063,0.325 1.766,1.258 2.539,3.371 1.027,2.817 1.059,4.407 0.91,45.571 -0.144,39.261 -0.234,42.82 -1.113,44.773 -0.523,1.164 -1.426,2.422 -2,2.797 -2.891,1.879 -5.5,-0.219 -6.527,-5.246 -0.426,-2.07 -0.559,-15.492 -0.45,-44.445 0.157,-40.469 0.192,-41.539 1.278,-43.782 1.023,-2.113 2.492,-3.234 4.172,-3.226 z m -241.911,36.398 c 0.083,0.008 0.153,0.032 0.208,0.074 0.746,0.559 0.726,45.274 -0.02,48.532 -0.309,1.34 -1.195,3.043 -1.969,3.785 -3.16,3.012 -7.254,0.762 -8.176,-4.496 -0.23,-1.313 -0.414,-9.203 -0.41,-17.531 0.012,-16.981 0.508,-21.184 2.938,-24.754 1.597,-2.356 6.152,-5.731 7.429,-5.61 z"
       style="fill:#070707;fill-opacity:1;fill-rule:nonzero;stroke:none"
       transform="scale(1.3333333)" />
  </g>
</svg>
