<?xml version="1.0" encoding="UTF-8" standalone="no"?>
<!-- Created with Inkscape (http://www.inkscape.org/) -->

<svg
   version="1.1"
   id="svg1"
   width="1122.5197"
   height="793.70074"
   viewBox="0 0 1122.5197 793.70074"
   xmlns="http://www.w3.org/2000/svg"
   xmlns:svg="http://www.w3.org/2000/svg">
  <defs
     id="defs1" />
  <g
     id="g1">
    <path
       id="path1"
       d="m 406.914,563.441 c -1.148,-3.16 6.363,-12.691 14.133,-17.933 6.258,-4.223 6.551,-3.856 -7.344,-9.219 -9.371,-3.621 -10.09,-3.703 -12.875,-1.461 -2.996,2.41 -8.437,4.891 -12.969,5.91 -6.679,1.504 -24.351,0.481 -26.812,-1.55 -0.442,-0.364 -1.981,-0.852 -3.418,-1.086 -1.441,-0.231 -3.672,-0.907 -4.957,-1.497 -1.285,-0.589 -3.774,-1.671 -5.524,-2.406 -3.156,-1.324 -7.054,-3.16 -16.64,-7.836 -2.727,-1.328 -6.707,-3.23 -8.852,-4.222 -5.484,-2.539 -6.015,-2.899 -6.015,-4.071 0,-2.281 20.785,-3.738 37.879,-2.656 l 9.558,0.606 -3.383,-2.309 c -5.351,-3.652 -8.683,-4.836 -10.965,-3.895 -4.484,1.844 -11.714,3.239 -14.55,2.805 -1.629,-0.246 -3.602,-0.551 -4.379,-0.672 -7.942,-1.258 -13.606,-3.511 -22.656,-9.019 -5.872,-3.571 -20.157,-14.485 -28.532,-21.801 -1.441,-1.258 -3.832,-3.242 -5.312,-4.406 -1.613,-1.274 -2.43,-2.391 -2.043,-2.797 0.722,-0.762 17.418,0.64 19.207,1.609 0.605,0.328 2.375,0.824 3.933,1.102 3.157,0.562 11.973,3.172 14.161,4.191 1.972,0.918 6.949,2.235 7.25,1.922 0.136,-0.145 -1.735,-2.152 -4.153,-4.461 l -4.398,-4.203 h -8 c -8.285,0 -8.887,-0.148 -16.895,-4.258 -9.097,-4.664 -17.972,-13.035 -29.765,-28.082 -4.891,-6.242 -10.153,-12.926 -11.692,-14.851 -2.976,-3.723 -3.781,-6.426 -1.558,-5.211 0.683,0.371 2.515,0.914 4.074,1.211 1.555,0.296 3.148,0.8 3.539,1.121 0.391,0.32 1.894,0.988 3.348,1.48 3.89,1.324 14.328,7.082 23.55,12.992 1.817,1.168 3.457,1.961 3.641,1.766 0.273,-0.289 -1.348,-3.078 -5.902,-10.164 -0.11,-0.164 -1.555,-0.559 -3.211,-0.875 -7.875,-1.496 -11.86,-3.277 -17.532,-7.832 -4.507,-3.617 -9.796,-9.399 -13.96,-15.262 -4.887,-6.871 -21.758,-41.043 -20.778,-42.078 0.934,-0.984 10.621,5.184 16.684,10.621 1.554,1.399 6.117,5.891 10.133,9.984 4.015,4.094 7.445,7.29 7.621,7.102 0.175,-0.187 -0.496,-2.32 -1.492,-4.746 -2.743,-6.68 -3.422,-7.949 -4.583,-8.524 -9.019,-4.488 -11.097,-5.953 -15.562,-10.98 -4.539,-5.109 -9.758,-14.078 -11.859,-20.383 -0.481,-1.437 -1.176,-3.16 -1.543,-3.828 -0.371,-0.668 -0.891,-2.437 -1.157,-3.93 -0.265,-1.492 -0.765,-2.898 -1.109,-3.121 -0.348,-0.226 -0.629,-1.074 -0.629,-1.883 0,-0.812 -0.633,-3.562 -1.406,-6.117 -0.774,-2.554 -1.871,-6.328 -2.438,-8.379 -1.843,-6.699 -3.168,-11.261 -3.636,-12.55 -0.317,-0.875 -0.098,-1.27 0.703,-1.27 1.453,0 13.183,11.852 15.812,15.981 5.453,8.558 10.27,15.39 10.848,15.39 0.898,0 0.828,-0.879 -0.551,-6.906 -1.156,-5.047 -1.348,-5.348 -4.875,-7.731 -2.023,-1.363 -4.926,-4.023 -6.457,-5.91 -3.84,-4.738 -8.058,-13.633 -9.027,-19.039 -0.262,-1.437 -0.762,-3.285 -1.121,-4.105 -0.852,-1.969 -1.903,-9.481 -3.188,-22.781 -2.078,-21.5 -2.055,-20.993 -0.828,-20.497 1.145,0.465 7.781,10.075 9.75,14.114 0.609,1.25 2.234,4.461 3.609,7.129 1.375,2.671 2.907,6.199 3.411,7.843 1.539,5.039 2.906,7.453 3.578,6.309 0.32,-0.551 0.289,-1.586 -0.075,-2.297 -0.359,-0.715 -0.664,-3.758 -0.667,-6.766 -0.012,-5.859 -0.266,-6.671 -2.485,-7.902 -2.351,-1.301 -6.457,-8.398 -8.09,-13.992 -0.843,-2.875 -1.898,-6.402 -2.347,-7.84 -1.063,-3.394 -0.942,-31.226 0.14,-32.363 0.438,-0.465 0.754,-4.016 0.754,-8.449 0,-10.723 1.129,-10.961 5.715,-1.2 1.207,2.567 2.461,4.668 2.789,4.668 0.328,0 0.426,-4.285 0.215,-9.523 -0.406,-10.027 0.465,-16.801 3.281,-25.582 0.727,-2.258 1.711,-5.957 2.188,-8.215 0.476,-2.258 1.105,-4.445 1.394,-4.855 0.289,-0.411 0.738,-2.258 1,-4.106 0.539,-3.797 2.184,-6.66 3.192,-5.562 0.656,0.711 1.703,5.414 2.902,13.031 0.359,2.258 0.738,8.726 0.848,14.375 0.175,9.199 0.324,10.269 1.437,10.269 0.68,0 1.238,0.336 1.238,0.746 0,0.415 0.317,0.75 0.707,0.75 0.391,0 0.707,-0.433 0.707,-0.964 0,-1.434 8.903,-11.45 13.055,-14.684 1.988,-1.551 4.887,-3.5 6.434,-4.324 3.027,-1.617 7.418,-2.852 7.418,-2.086 0,0.258 -1.25,2.457 -2.782,4.887 -2.257,3.586 -7.839,15.031 -7.839,16.074 0,0.144 -1.289,3.156 -2.868,6.691 -5.933,13.297 -10.183,19.192 -19.929,27.641 -2.258,1.957 -2.621,2.738 -2.887,6.16 -0.168,2.16 -0.113,3.91 0.121,3.895 0.234,-0.012 1.703,-2.227 3.262,-4.918 4.914,-8.497 18.75,-21.457 20.703,-19.399 0.273,0.289 -0.082,2.106 -0.793,4.035 -0.707,1.926 -2.141,6.028 -3.184,9.106 -1.043,3.082 -2.086,5.937 -2.316,6.347 -0.23,0.414 -0.633,2.094 -0.898,3.735 -0.633,3.961 -3.168,12.742 -4.387,15.211 -0.535,1.082 -0.977,2.316 -0.981,2.746 -0.011,2.539 -5.859,11.687 -10.644,16.656 l -3.52,3.652 v 6.821 c 0,3.754 0.254,6.824 0.567,6.824 0.312,0 0.968,-1.262 1.465,-2.801 3.281,-10.238 7.902,-18.176 13.992,-24.047 4.828,-4.656 6.179,-4.894 5.511,-0.972 -0.261,1.539 -0.726,3.136 -1.035,3.546 -0.508,0.684 -1.59,9.633 -2.394,19.793 -0.535,6.766 -1.781,16.727 -2.242,17.922 -0.239,0.618 -0.864,3.235 -1.391,5.821 -1.082,5.308 -4.332,12.582 -7.523,16.832 -2.047,2.722 -2.125,3.082 -1.661,7.648 0.266,2.633 0.782,4.981 1.141,5.215 0.355,0.234 0.652,1.246 0.652,2.246 0,1.004 0.317,1.824 0.707,1.824 0.391,0 0.707,-1.484 0.707,-3.301 0,-6.152 3.2,-17.16 7.196,-24.742 2.043,-3.883 6.691,-10.047 7.574,-10.047 0.273,0 0.535,5.965 0.582,13.258 0.043,7.289 0.469,15.442 0.945,18.11 0.481,2.671 0.891,9.226 0.914,14.566 0.055,11.141 -1.234,18.742 -4.445,26.211 l -2.066,4.812 2.261,4.821 c 1.243,2.648 2.5,4.828 2.793,4.84 0.293,0.011 0.532,-3.825 0.532,-8.524 0,-4.703 0.273,-8.726 0.609,-8.945 0.332,-0.215 0.809,-2.168 1.055,-4.336 0.449,-3.984 2.191,-9.527 4.816,-15.332 2.406,-5.324 3.215,-4.387 4.176,4.832 0.375,3.605 0.957,7.23 1.289,8.051 0.336,0.82 0.988,3.008 1.449,4.855 0.461,1.848 1.172,4.703 1.582,6.348 0.41,1.644 1.188,4.047 1.734,5.34 0.543,1.297 0.989,3.039 0.989,3.879 0,0.836 0.273,1.699 0.605,1.918 0.332,0.214 0.996,3.007 1.477,6.203 0.48,3.199 1.144,6.484 1.476,7.308 1.711,4.239 1.411,17.059 -0.586,25.168 -0.636,2.586 -0.468,3.09 2.602,7.781 4.355,6.653 5.16,6.836 3.863,0.879 -2.152,-9.879 -2.472,-13.187 -2.105,-21.879 0.375,-8.882 2.101,-16.761 3.808,-17.359 0.414,-0.148 1.297,1.348 1.961,3.317 0.668,1.972 1.465,4.257 1.774,5.078 0.308,0.824 0.98,2.672 1.496,4.109 0.512,1.438 2.176,4.969 3.695,7.844 6.719,12.73 12.16,24.433 14.41,30.992 2.106,6.137 2.489,8.332 2.836,16.223 l 0.407,9.121 4.187,3.847 c 2.305,2.114 4.375,3.649 4.602,3.414 0.222,-0.238 -0.274,-1.957 -1.102,-3.82 -0.828,-1.863 -2.133,-4.816 -2.902,-6.562 -3.196,-7.266 -5.368,-21.387 -4.465,-29.008 0.301,-2.567 0.933,-4.801 1.398,-4.965 0.465,-0.164 1.481,0.984 2.254,2.555 3.559,7.207 8.051,13.375 20.5,28.148 7.742,9.191 17.11,25.551 17.11,29.883 0,0.617 0.281,1.301 0.625,1.527 0.343,0.223 0.847,2.266 1.117,4.535 0.472,4 0.609,4.215 4.316,6.715 4.356,2.938 7.981,4.25 7.02,2.543 -0.325,-0.574 -1.61,-2.387 -2.856,-4.031 -3.14,-4.133 -8.426,-12.981 -9.371,-15.684 -3.719,-10.632 -4.453,-13.328 -4.848,-17.738 -0.574,-6.375 0.055,-6.457 5.332,-0.711 5.473,5.961 10.333,10.051 22.739,19.125 6.258,4.582 15.543,13.406 20.187,19.192 2.11,2.628 5.203,7.687 6.871,11.242 3.352,7.144 3.008,6.875 13.653,10.718 3.117,1.122 7.258,2.797 9.207,3.715 8.347,3.95 8.57,3.953 16.285,0.36 4.211,-1.961 14.191,-5.946 14.894,-5.946 2.645,0 5.223,-2.527 7.426,-7.285 6.113,-13.195 12.071,-19.511 36.09,-38.25 1.363,-1.066 3.328,-2.5 4.363,-3.195 1.039,-0.691 4.743,-4.129 8.235,-7.633 3.492,-3.504 6.547,-6.375 6.789,-6.375 1.195,0 -0.379,13.789 -1.742,15.274 -0.36,0.39 -0.653,1.179 -0.653,1.753 0,2.141 -6.062,14.036 -10.039,19.696 -2.265,3.222 -4.121,6.047 -4.121,6.277 0,0.754 3.039,-0.574 6.594,-2.883 3.644,-2.363 5.441,-5.425 5.449,-9.285 0,-1.14 0.481,-3.039 1.063,-4.215 0.582,-1.175 1.054,-2.441 1.054,-2.808 0,-1.426 3.207,-7.969 6.176,-12.606 5.781,-9.027 9.031,-13.363 18.652,-24.886 5.028,-6.02 7.996,-10.188 10.871,-15.266 1.457,-2.57 2.903,-4.508 3.215,-4.305 1.082,0.707 1.492,9.754 0.766,16.824 -0.84,8.172 -2.582,14.508 -5.656,20.586 -3.68,7.274 -2.368,8.512 2.925,2.754 l 3.266,-3.547 0.336,-8.218 c 0.512,-12.512 2.832,-18.793 18.211,-49.293 2.277,-4.52 4.168,-8.719 4.203,-9.336 0.035,-0.617 0.508,-2.02 1.051,-3.121 0.547,-1.106 1.207,-3.036 1.469,-4.297 0.996,-4.781 3.046,-1.836 4.765,6.844 1.571,7.925 0.66,25.277 -1.578,30.078 -0.383,0.82 -0.777,2.164 -0.875,2.984 -0.371,3.098 1.348,1.918 4.563,-3.129 l 3.324,-5.223 -1.055,-5.906 c -1.719,-9.676 -1.933,-12.258 -1.144,-13.98 0.414,-0.899 0.918,-3.84 1.121,-6.539 0.355,-4.723 2.699,-15.907 3.976,-18.996 0.34,-0.821 1.305,-4.016 2.137,-7.094 0.836,-3.082 1.816,-6.442 2.176,-7.469 0.359,-1.027 1.133,-4.894 1.722,-8.59 1.606,-10.043 1.801,-10.832 2.731,-10.832 1.109,0 5.168,8.688 5.805,12.426 0.273,1.586 0.82,3.32 1.218,3.852 0.403,0.527 0.879,5.992 1.067,12.136 0.406,13.332 0.941,13.989 4.281,5.266 1.535,-4.012 1.539,-4.067 0.211,-7.098 -2.895,-6.609 -3.715,-9.871 -4.402,-17.511 -0.735,-8.137 0.031,-27.184 1.562,-38.848 0.516,-3.938 0.488,-6.957 -0.098,-10.613 -1.3,-8.145 -0.023,-8.747 4.575,-2.157 5.832,8.36 9.375,18.016 10.066,27.45 0.527,7.191 1.645,7.796 2.715,1.464 0.391,-2.296 0.949,-4.429 1.242,-4.734 1.16,-1.207 0.414,-4.383 -1.801,-7.672 -1.285,-1.902 -3.238,-5.476 -4.347,-7.941 -1.106,-2.465 -2.289,-5.067 -2.625,-5.782 -0.336,-0.714 -0.969,-3.738 -1.403,-6.722 -0.437,-2.981 -1.066,-6.094 -1.402,-6.914 -0.332,-0.824 -0.906,-5.864 -1.273,-11.203 -0.715,-10.418 -2.258,-21.094 -3.54,-24.524 -0.839,-2.254 -0.535,-3.484 0.872,-3.484 0.472,0 3.117,2.433 5.871,5.414 4.879,5.273 8.742,11.094 9.82,14.793 0.293,1.004 0.805,2.183 1.137,2.625 0.332,0.441 1.039,2.609 1.578,4.816 1.633,6.735 2.597,5.571 2.597,-3.129 v -7.714 l -3.539,-3.219 c -4.304,-3.91 -10.105,-12.985 -11.683,-18.281 -0.641,-2.141 -1.434,-4.567 -1.77,-5.391 -0.82,-2.016 -3.332,-11.324 -3.929,-14.563 -0.266,-1.437 -0.727,-2.949 -1.028,-3.359 -0.297,-0.414 -0.781,-1.914 -1.07,-3.336 -0.289,-1.426 -0.781,-3.105 -1.098,-3.734 -4.687,-9.356 -4.332,-11.09 1.551,-7.582 5.773,3.441 12.219,10.734 17.734,20.066 1.899,3.215 2.649,3.07 1.914,-0.375 -0.328,-1.539 -0.757,-3.641 -0.957,-4.668 -0.222,-1.168 -1.789,-2.941 -4.179,-4.738 -8.309,-6.238 -12.508,-12.875 -21.348,-33.727 -3.254,-7.676 -6.062,-13.347 -7.836,-15.82 -3.344,-4.664 -1.418,-5.023 6.086,-1.133 4.145,2.149 16.399,13.949 18.113,17.445 0.711,1.454 1.364,1.887 2.407,1.598 0.785,-0.219 1.429,-0.848 1.429,-1.406 0,-0.594 -0.441,-0.832 -1.07,-0.574 -1.336,0.539 -3.176,-0.996 -3.176,-2.649 0,-0.679 -1.613,-3.578 -3.582,-6.441 -7.347,-10.692 -19.785,-34.567 -19.785,-37.981 0,-0.5 -0.293,-1.23 -0.652,-1.621 -0.36,-0.39 -1.34,-2.894 -2.184,-5.566 -0.84,-2.668 -1.949,-5.86 -2.465,-7.094 -3.476,-8.344 -6.82,-16.109 -8.363,-19.418 -0.684,-1.465 -0.668,-1.465 0.781,-0.109 4.871,4.57 18.992,20.277 21.918,24.383 3.262,4.574 8.664,13.75 8.664,14.707 0,0.242 0.684,1.988 1.516,3.882 2.281,5.196 2.547,5.977 4.094,12.032 0.789,3.082 1.629,8.961 1.867,13.07 0.504,8.715 0.754,9.918 1.824,8.789 0.418,-0.441 1.031,-4.613 1.363,-9.273 0.672,-9.387 1.805,-17.395 2.785,-19.68 0.352,-0.824 0.743,-2.168 0.864,-2.988 0.324,-2.168 1.519,-1.743 2.246,0.796 0.344,1.204 0.883,2.864 1.199,3.684 0.313,0.82 0.895,3.008 1.293,4.856 0.398,1.847 1.402,5.882 2.231,8.96 0.828,3.083 1.878,7.45 2.328,9.711 0.449,2.258 1.109,4.579 1.461,5.157 1.035,1.699 0.941,22.976 -0.11,24.082 -1.113,1.175 -1.164,3.847 -0.07,3.461 0.453,-0.161 1.199,-1.649 1.668,-3.313 1.176,-4.211 5.449,-12.211 6.515,-12.211 1.266,0 1.418,1.403 2.254,20.539 1.024,23.434 0.153,31.864 -4.238,41.078 -2.703,5.672 -3.406,6.735 -6.195,9.336 l -2.801,2.618 -0.281,7.281 c -0.156,4.004 -0.012,7.281 0.32,7.281 0.328,0 1.074,-1.262 1.656,-2.801 2.235,-5.914 6.973,-16.367 8.946,-19.726 4.953,-8.43 9.648,-14.59 9.816,-12.879 0.27,2.793 -0.609,14.219 -2.238,29.058 -0.817,7.407 -2.637,16.758 -3.489,17.926 -0.304,0.41 -0.781,1.922 -1.062,3.36 -0.48,2.429 -2.68,7.73 -4.914,11.835 -1.57,2.883 -6.188,7.606 -9.984,10.211 -3.567,2.442 -3.567,2.446 -4.485,8.188 -0.5,3.16 -0.758,5.91 -0.57,6.109 0.191,0.199 1.57,-1.511 3.066,-3.804 8.489,-12.997 22.418,-28.813 23.953,-27.196 0.164,0.172 -0.343,2.824 -1.129,5.887 -0.785,3.066 -1.687,6.582 -2,7.816 -0.625,2.45 -3.484,12.145 -5.835,19.789 -0.821,2.672 -1.731,5.192 -2.02,5.602 -0.289,0.414 -0.742,1.816 -1.008,3.125 -0.262,1.305 -0.937,2.777 -1.496,3.266 -0.558,0.488 -1.016,1.371 -1.016,1.957 0,1.679 -5.863,10.691 -9.656,14.836 -3.394,3.711 -9.941,8.222 -14.043,9.679 -1.625,0.578 -2.41,1.594 -3.449,4.481 -0.742,2.054 -1.785,4.629 -2.324,5.719 -2.149,4.375 -0.621,3.429 7.055,-4.356 7.968,-8.078 17.152,-15.578 22.968,-18.754 3.547,-1.933 3.696,-1.961 3.696,-0.672 0,1.047 -5.926,13.508 -11.934,25.086 -2.004,3.86 -3.641,7.129 -3.641,7.266 0,0.226 -2.968,5.031 -6.82,11.051 -5.121,7.996 -15.492,16.871 -22.219,19.007 -1.75,0.555 -3.816,1.297 -4.593,1.649 -0.782,0.351 -2.516,0.734 -3.856,0.848 -2.144,0.183 -2.859,0.847 -5.855,5.433 -1.879,2.875 -3.079,5.344 -2.668,5.488 0.414,0.145 2.41,-0.906 4.441,-2.336 7.152,-5.039 19.813,-11.988 23.516,-12.906 1.168,-0.293 2.441,-0.726 2.832,-0.969 1.605,-1 7.789,-2.945 8.297,-2.613 1.093,0.711 0.476,1.805 -4.247,7.528 -2.636,3.199 -5.632,6.992 -6.656,8.429 -4.98,7.008 -17.351,20.758 -22.594,25.117 -3.234,2.684 -7.964,5.899 -10.519,7.141 -2.551,1.242 -5.277,2.621 -6.059,3.066 -0.777,0.442 -5.238,0.946 -9.91,1.118 -9.351,0.347 -10.758,0.875 -15.176,5.695 -3.609,3.937 -2.496,4.223 4.555,1.164 10.211,-4.434 36.793,-8.836 37.656,-6.238 0.157,0.461 -1.402,2.023 -3.464,3.465 -2.059,1.445 -4.352,3.335 -5.094,4.203 -0.742,0.867 -1.739,1.574 -2.215,1.574 -0.477,0 -1.305,0.558 -1.84,1.238 -1.121,1.43 -11.48,9.653 -18.586,14.75 -6.476,4.653 -17.062,9.949 -21.773,10.895 -2.09,0.418 -5.344,1.136 -7.231,1.59 -3.617,0.875 -7.91,0.32 -16.105,-2.082 l -3.957,-1.161 -5.93,3.254 -5.934,3.258 3.442,0.231 c 1.89,0.128 7.246,-0.11 11.902,-0.528 6.559,-0.594 11.02,-0.515 19.805,0.332 6.234,0.606 11.621,1.285 11.969,1.512 1.414,0.922 0.457,2.414 -2.379,3.703 -1.657,0.75 -5.957,2.816 -9.559,4.594 -3.598,1.773 -6.785,3.226 -7.078,3.226 -0.293,0 -2.605,1.063 -5.137,2.36 -2.531,1.297 -5.718,2.855 -7.082,3.469 -1.363,0.613 -2.953,1.347 -3.539,1.636 -0.582,0.289 -2.812,0.973 -4.957,1.524 -2.14,0.55 -4.226,1.257 -4.633,1.57 -0.406,0.316 -2.882,0.805 -5.507,1.086 -2.622,0.285 -4.938,0.805 -5.145,1.156 -0.488,0.84 -12.836,0.84 -13.328,0.004 -0.203,-0.351 -1.961,-0.84 -3.902,-1.082 -3.641,-0.453 -12.071,-4.297 -13.551,-6.176 -0.93,-1.183 -4.254,-1.433 -5.301,-0.402 -0.371,0.363 -3.223,1.555 -6.336,2.648 -8.203,2.875 -11.117,4.235 -11.473,5.364 -0.129,0.398 2.649,2.863 6.164,5.476 3.895,2.895 7.375,6.192 8.899,8.43 4.816,7.066 4.531,8.945 -1.246,8.254 -3.156,-0.379 -3.461,-0.625 -6.133,-4.981 -3.109,-5.074 -6.219,-7.992 -12.32,-11.566 l -4.075,-2.383 -3.355,1.977 c -1.848,1.086 -4.262,2.777 -5.363,3.757 -1.106,0.977 -2.25,1.778 -2.551,1.778 -0.301,0 -2.051,2.164 -3.891,4.808 -1.84,2.645 -3.777,5.184 -4.304,5.645 -1.422,1.246 -6.735,1.602 -7.145,0.48 z M 639.957,232.406 c 0.066,-2.429 1.004,-7.222 2.219,-11.324 1.179,-3.977 0.722,-6.203 -0.746,-3.641 -0.442,0.77 -1.52,2.551 -2.395,3.954 -1.629,2.617 -1.918,5.183 -1.133,10.171 0.45,2.868 1.985,3.497 2.055,0.84 z m -410.621,-0.867 c 1.672,-2.32 1.184,-6.707 -1.137,-10.269 -1.172,-1.79 -2.125,-3.575 -2.125,-3.965 0,-0.387 -0.48,-1.125 -1.062,-1.637 -0.903,-0.789 -1.063,-0.602 -1.063,1.254 0,1.199 0.27,2.5 0.602,2.891 0.781,0.921 2.937,9.289 2.937,11.402 0,1.973 0.59,2.074 1.848,0.324 z m -5.387,-19.605 c 0,-0.411 -0.32,-0.746 -0.707,-0.746 -0.39,0 -0.711,0.335 -0.711,0.746 0,0.41 0.321,0.746 0.711,0.746 0.387,0 0.707,-0.336 0.707,-0.746 z m 206.746,292.265 c -24.523,-9.105 -36.179,-14.605 -53.101,-25.07 -28.215,-17.445 -54.309,-43.965 -73.055,-74.262 -21.562,-34.84 -35.516,-77.523 -41.094,-125.715 -1.34,-11.57 -1.129,-42.711 0.375,-55.64 2.059,-17.684 5.641,-35.282 9.942,-48.848 l 2.226,-7.023 3.524,-1.434 c 3.636,-1.48 5.937,-2.172 19.136,-5.762 13.024,-3.543 29.356,-7.218 36.817,-8.289 2.726,-0.386 6.551,-1.047 8.496,-1.465 5.219,-1.113 24.258,-3.492 40.004,-4.996 17.441,-1.664 71.683,-1.886 90.273,-0.371 20.473,1.672 45.258,4.989 62.664,8.383 21.723,4.238 52.868,12.047 54.184,13.582 2.238,2.613 8.269,27.484 11.277,46.512 3.516,22.23 3.371,54.863 -0.347,79.918 -3.301,22.226 -10.567,50.719 -16.571,64.976 -0.519,1.235 -2.453,5.938 -4.297,10.457 -15.878,38.899 -42.57,73.985 -75.046,98.649 -6.907,5.242 -16.481,11.754 -19.473,13.242 -0.582,0.289 -2.176,1.246 -3.539,2.125 -4.387,2.828 -16.942,9.148 -27.258,13.723 -5.359,2.375 -21.152,7.812 -22.535,7.761 -0.848,-0.035 -2.016,-0.238 -2.602,-0.453 z m 14.985,-10.953 c 32.32,-12.019 60.14,-30.301 83.086,-54.594 21.711,-22.988 38.406,-49.867 49.668,-79.957 1.382,-3.695 2.914,-7.73 3.406,-8.961 0.488,-1.234 1.613,-4.761 2.496,-7.843 0.883,-3.082 2.004,-6.778 2.488,-8.215 1.281,-3.785 4.254,-16.371 5.914,-25.02 3.535,-18.465 5.063,-34.648 5.028,-53.402 -0.036,-23.102 -2.176,-41.024 -7.442,-62.363 -3.453,-13.993 -4.652,-17.938 -5.816,-19.168 -1.535,-1.621 -30.844,-8.938 -51.828,-12.942 -11.75,-2.242 -17.551,-3.14 -36.137,-5.597 -15.047,-1.993 -44.551,-3.965 -54.164,-3.625 l -7.082,0.254 -0.199,18.671 c -0.11,10.27 -0.035,19.375 0.164,20.235 0.398,1.73 12.426,8.496 18.09,10.183 l 3.187,0.95 V 251 l -4.957,2.098 c -6.059,2.566 -8.141,3.777 -12.922,7.515 l -3.715,2.903 v 28.527 l 2.039,3.824 c 1.121,2.106 2.993,5.672 4.161,7.934 8.714,16.867 13.933,26.582 14.496,26.969 0.726,0.5 3.918,1.218 16.121,3.632 19.957,3.946 24.34,4.977 24.597,5.789 0.153,0.477 -6.039,7.969 -13.754,16.653 l -14.031,15.785 0.219,3.492 c 0.117,1.918 0.816,8.359 1.551,14.317 2.445,19.847 3.066,26.144 2.621,26.613 -0.242,0.258 -1.965,-0.297 -3.832,-1.231 -1.863,-0.933 -4.985,-2.453 -6.93,-3.375 -1.945,-0.922 -7.992,-3.922 -13.433,-6.664 -5.442,-2.746 -10.778,-5.176 -11.86,-5.406 l -1.965,-0.414 v 47.769 c 0,26.274 0.211,47.993 0.469,48.266 0.731,0.77 0.977,0.703 10.266,-2.75 z m 40.258,-169.637 c -0.911,-1.156 -0.407,-2.437 1.765,-4.5 3.235,-3.062 9.996,-11.742 11.055,-14.187 2.355,-5.438 1.379,-12.871 -1.899,-14.449 -1.011,-0.485 -3.101,-0.637 -5.004,-0.364 -3.191,0.465 -3.253,0.434 -2.757,-1.32 1.336,-4.707 7.215,-7.172 12.484,-5.234 3.34,1.226 3.93,0.242 2.914,-4.867 -1.543,-7.758 -6.402,-12.012 -12.891,-11.282 -1.761,0.199 -3.761,0.61 -4.445,0.907 -2.898,1.273 0.09,-5.262 3.477,-7.606 1.824,-1.258 7.078,-1.625 11.898,-0.828 1.172,0.195 1.473,-0.367 1.93,-3.621 0.949,-6.735 3.262,-11.957 7.359,-16.629 2.11,-2.402 3.836,-4.57 3.836,-4.816 0,-0.247 -1.64,0.23 -3.64,1.062 -3.043,1.266 -5.067,1.492 -12.336,1.379 -8.153,-0.129 -8.887,-0.016 -11.762,1.758 -1.684,1.043 -3.668,2.601 -4.41,3.468 -3.133,3.649 -3.117,0.024 0.031,-7.371 2.246,-5.281 3.391,-6.578 7.691,-8.711 4.235,-2.097 7.43,-2.195 17.118,-0.535 6.777,1.164 7.511,1.16 12.273,-0.062 2.785,-0.715 5.254,-1.094 5.492,-0.844 0.238,0.25 -0.308,2.043 -1.211,3.984 -0.902,1.942 -2.445,5.883 -3.433,8.762 -1.723,5.016 -1.813,6.133 -2.239,27.633 -0.386,19.566 -0.609,22.832 -1.773,25.766 -1.891,4.765 -5.453,9.281 -12.707,16.105 -4.059,3.816 -5.914,6.012 -5.203,6.156 1.773,0.367 17.652,-9.316 20.168,-12.297 1.258,-1.492 2.984,-4.597 3.836,-6.898 1.429,-3.855 1.59,-6 2.035,-27.34 l 0.488,-23.152 2.18,-6.574 c 2.265,-6.836 5.406,-13.219 6.508,-13.219 1.437,0 1.257,1.527 -0.805,6.789 -3.223,8.215 -6.402,24.687 -4.953,25.633 0.922,0.601 11.582,-8.086 18.976,-15.465 1.618,-1.617 3.246,-2.813 3.621,-2.664 1.208,0.488 13.618,15.73 13.618,16.73 0,0.532 -1.672,2.242 -3.719,3.805 -6.707,5.117 -17.524,14.527 -17.524,15.242 0,0.383 1.196,1.512 2.657,2.504 4.238,2.879 10.316,10.023 14.359,16.887 2.055,3.492 4.883,8.277 6.281,10.636 2.696,4.536 3.746,5.079 5.875,3.043 1.223,-1.164 1.407,-1.164 2.477,-0.035 1.074,1.133 0.644,1.809 -5.758,9.102 -3.801,4.332 -7.301,7.875 -7.777,7.875 -0.91,0 -6.16,-7.332 -8.996,-12.563 -0.926,-1.711 -2.16,-3.093 -2.743,-3.078 -0.585,0.016 -2.433,1.778 -4.109,3.914 -1.676,2.137 -4.707,5.836 -6.734,8.223 l -3.688,4.336 -7.074,-2.469 c -6.602,-2.305 -7.707,-2.469 -16.629,-2.469 -8.43,0.004 -10.355,0.254 -16.285,2.114 -3.699,1.164 -7.238,2.261 -7.867,2.441 -0.625,0.184 -1.543,-0.18 -2.031,-0.805 z m 59.605,-16.601 c 2.871,-2.953 3.328,-4.703 1.625,-6.195 -0.586,-0.512 -1.063,-1.223 -1.063,-1.583 0,-1.613 -5.332,-8.246 -8.281,-10.308 -3.254,-2.277 -7.32,-3.582 -8.586,-2.754 -0.371,0.238 -0.894,1.703 -1.164,3.246 -0.691,3.965 -2.918,9.059 -5.367,12.289 -1.148,1.516 -2.09,3.07 -2.09,3.449 0,0.383 2.785,0.934 6.196,1.219 3.406,0.289 7.789,1.129 9.734,1.863 5.156,1.954 6.027,1.832 8.996,-1.226 z m -11.246,-29.91 c 2.121,-1.95 6.262,-5.563 9.199,-8.028 2.942,-2.465 5.527,-4.925 5.746,-5.472 0.434,-1.071 -7.133,-10.594 -8.394,-10.571 -0.418,0.008 -3.391,2.047 -6.602,4.532 l -5.84,4.515 v 8.789 c 0,11.481 0.09,11.578 5.891,6.235 z M 403.246,413.715 c 13.707,-6.703 17.539,-8.613 23.91,-11.93 l 6.727,-3.504 0.18,-51.347 c 0.109,-30.871 -0.079,-51.348 -0.469,-51.348 -0.555,0 -7.145,11.262 -7.145,12.211 0,0.703 -11.504,21.844 -12.558,23.078 -0.614,0.719 -1.75,1.305 -2.528,1.305 -0.777,0 -4.633,0.687 -8.566,1.523 -3.93,0.84 -11.883,2.492 -17.672,3.672 -5.789,1.18 -10.855,2.496 -11.266,2.93 -0.519,0.547 0.727,2.429 4.149,6.258 23.027,25.753 22.949,25.664 22.949,28.222 0,2.238 -1.238,12.86 -3.875,33.184 -0.875,6.75 -0.875,8.609 0.012,8.609 0.164,0 2.933,-1.289 6.152,-2.863 z m -37.828,-93.758 c 8.332,-2.973 15.332,-9.09 20.848,-18.215 1.843,-3.051 2.394,-4.664 1.586,-4.664 -0.2,0 -2.766,1.875 -5.704,4.168 -2.937,2.293 -6.679,4.785 -8.312,5.539 -4.645,2.149 -10.977,3.188 -15.008,2.469 l -3.539,-0.633 -0.184,-34.668 c -0.109,-20.367 0.086,-34.949 0.465,-35.355 0.563,-0.59 7.364,1.621 16.567,5.379 1.886,0.769 2.218,0.543 7.238,-4.973 2.891,-3.18 5.266,-6.164 5.277,-6.633 0.012,-0.465 -1.492,-1.074 -3.343,-1.351 -5.532,-0.825 -13.715,-3.434 -18.114,-5.77 -2.269,-1.207 -4.422,-2.094 -4.781,-1.965 -0.656,0.231 -10.965,9.309 -21.223,18.692 l -5.492,5.023 -0.246,21.492 c -0.242,21.028 -0.652,24.852 -2.672,24.852 -0.945,0 -4.773,-7.559 -6.386,-12.61 -2.192,-6.855 -2.04,-19.027 0.324,-26.675 1.719,-5.543 5.707,-12.711 9.418,-16.911 0.996,-1.125 1.593,-2.269 1.332,-2.546 -1.328,-1.403 -9.844,5.472 -13.832,11.168 -4.364,6.23 -7.242,12.964 -8.676,20.285 -4.941,25.261 5.543,46.976 25.918,53.679 5,1.641 6.078,1.774 15.332,1.891 6.98,0.086 9.019,-0.172 13.207,-1.668 z m -22.27,-15.043 c -2.781,-1.43 -6.601,-4.07 -8.488,-5.871 l -3.426,-3.273 4.86,-5.434 c 2.726,-3.051 5.672,-7.266 6.715,-9.613 1.824,-4.102 1.863,-4.539 2.082,-22.293 l 0.222,-18.11 2.325,-1.871 c 1.277,-1.027 2.691,-1.867 3.14,-1.867 0.606,0 0.817,9.137 0.817,35.477 v 35.476 l -1.594,-0.012 c -0.875,-0.007 -3.867,-1.179 -6.653,-2.609 z m 90.231,-51.789 0.207,-6.113 -3.227,-1.461 -3.226,-1.457 0.187,-20.375 c 0.207,-22.203 -0.132,-20.656 4.262,-19.563 l 1.945,0.485 v -5.317 c 0,-5.883 -0.355,-6.226 -3.75,-3.633 -1.211,0.922 -5.086,3.192 -8.609,5.039 l -6.402,3.364 -0.356,20.164 c -0.297,16.941 -0.547,20.621 -1.574,23.012 l -1.223,2.847 2.637,1.168 c 1.453,0.641 4.074,1.629 5.824,2.199 1.754,0.571 5.098,2.168 7.434,3.551 2.34,1.383 4.57,2.445 4.957,2.36 0.39,-0.082 0.801,-2.907 0.914,-6.27 z m 9.894,-23.453 -0.187,-19.606 -3.449,-1.738 c -2.028,-1.019 -3.711,-1.461 -4.086,-1.07 -0.348,0.371 -0.547,9.344 -0.442,20.031 l 0.188,19.363 2.48,1.278 c 1.364,0.703 3.2,1.293 4.082,1.312 l 1.606,0.035 z M 239.988,181.5 c 0.235,-4.004 0.703,-7.602 1.043,-7.992 0.34,-0.391 0.617,-1.762 0.617,-3.051 0,-3.156 1.469,-11.004 2.227,-11.887 0.332,-0.39 0.605,-1.179 0.605,-1.754 0,-0.574 0.45,-2.105 0.997,-3.398 0.546,-1.293 1.832,-4.355 2.859,-6.805 1.027,-2.445 2.594,-5.472 3.484,-6.722 0.891,-1.246 1.797,-2.774 2.02,-3.391 0.996,-2.785 25.117,-30.355 25.867,-29.562 0.176,0.183 -1,3.234 -2.613,6.777 -1.61,3.543 -3.563,8.187 -4.336,10.32 -0.774,2.133 -1.699,4.547 -2.055,5.371 -0.351,0.821 -1.801,4.684 -3.219,8.586 -3.121,8.61 -9.742,23.125 -12.496,27.399 -1.105,1.714 -2.008,3.347 -2.008,3.625 0,0.277 -0.957,1.777 -2.125,3.336 -1.167,1.554 -2.125,3.027 -2.125,3.273 0,0.246 -1.085,1.949 -2.414,3.781 -1.328,1.836 -2.98,4.696 -3.675,6.356 -0.696,1.66 -1.672,3.019 -2.172,3.019 -0.703,0 -0.809,-1.629 -0.481,-7.281 z m 118.477,-61.992 c -0.008,-0.309 1.949,-7.024 4.344,-14.926 3.632,-11.98 4.203,-14.555 3.445,-15.519 -0.969,-1.235 -14.379,-11.934 -20.008,-15.961 -1.855,-1.332 -3.191,-2.735 -2.965,-3.122 0.235,-0.398 6.598,-0.699 14.774,-0.699 13.015,0 14.472,-0.129 15.535,-1.367 0.644,-0.75 1.172,-1.715 1.172,-2.141 0,-1.121 5.547,-19.57 6.75,-22.445 0.558,-1.336 1.281,-2.43 1.605,-2.43 0.324,0 1.328,2.438 2.231,5.418 3.937,12.997 6.644,21.164 7.293,22.032 0.519,0.691 4.445,0.933 15.191,0.933 15.91,0 16.137,0.082 11.004,4.082 -10.414,8.114 -19.43,15.59 -19.703,16.336 -0.176,0.481 1.597,7.078 3.941,14.656 2.34,7.579 4.258,14.086 4.258,14.458 0,1.292 -3.769,-0.344 -6.652,-2.891 -3.387,-2.996 -15.117,-12.125 -16.813,-13.082 -0.816,-0.465 -1.863,-0.121 -3.539,1.168 -1.308,1.004 -3.652,2.762 -5.203,3.902 -1.551,1.141 -5.648,4.344 -9.109,7.117 -6.008,4.821 -7.528,5.719 -7.551,4.481 z m 106.199,0 c -0.012,-0.309 1.953,-7.012 4.367,-14.895 3.637,-11.894 4.231,-14.531 3.485,-15.484 -1.133,-1.438 -16.481,-13.691 -20.047,-16.008 -1.461,-0.945 -2.656,-2.199 -2.656,-2.781 0,-0.879 2.449,-1.059 14.464,-1.059 12.203,0 14.637,-0.183 15.575,-1.172 0.613,-0.648 1.113,-1.609 1.113,-2.144 0,-1.266 5.437,-19.492 6.75,-22.637 0.558,-1.336 1.281,-2.43 1.605,-2.43 0.328,0 1.328,2.438 2.227,5.418 3.844,12.747 6.629,21.161 7.289,22.032 0.527,0.691 4.461,0.933 15.199,0.933 15.914,0 16.137,0.082 11.004,4.082 -10.402,8.11 -19.43,15.59 -19.699,16.332 -0.172,0.481 1.601,7.082 3.941,14.672 2.34,7.59 4.254,14.059 4.254,14.379 0,1.457 -2.336,0.133 -9.558,-5.418 -15.434,-11.863 -14.532,-11.328 -16.68,-9.859 -2.434,1.664 -6.113,4.496 -14.551,11.183 -6.535,5.188 -8.043,6.09 -8.082,4.856 z"
       style="fill:#090909;fill-opacity:1;fill-rule:nonzero;stroke:none"
       transform="scale(1.3333333)" />
  </g>
</svg>
