<?xml version="1.0" encoding="UTF-8" standalone="no"?>
<!-- Created with Inkscape (http://www.inkscape.org/) -->

<svg
   version="1.1"
   id="svg1"
   width="1122.5197"
   height="793.70074"
   viewBox="0 0 1122.5197 793.70074"
   xmlns="http://www.w3.org/2000/svg"
   xmlns:svg="http://www.w3.org/2000/svg">
  <defs
     id="defs1" />
  <g
     id="g1">
    <path
       id="path1"
       d="m 428.297,28.465 c -2.715,-0.02 -5.524,0.258 -8.313,0.844 -12.73,2.671 -24.265,12.171 -30.769,25.339 -3.988,8.067 -5.184,13.903 -5.625,27.383 -0.238,7.145 0.211,12.602 1.328,16.364 1.973,6.605 6.437,14.957 10.051,18.789 5.707,6.066 16.676,11.203 25.933,12.156 9.559,0.984 19.301,-1.082 27.059,-5.742 7.988,-4.797 16.605,-16.231 18.984,-25.188 0.778,-2.93 1.207,-7.988 0.68,-7.988 -0.203,0 -0.375,0.465 -0.379,1.031 -0.016,1.508 -1.117,6.059 -2.129,8.785 -2.336,6.278 -5.773,11.481 -10.898,16.496 -4.246,4.149 -8.059,6.766 -12.809,8.778 -4.601,1.953 -7.066,2.336 -15.234,2.386 -6.391,0.04 -7.192,-0.015 -9.125,-0.644 -1.164,-0.379 -3.145,-0.918 -4.399,-1.195 -4.175,-0.934 -11.027,-4.821 -15.144,-8.594 -5.805,-5.317 -9.574,-11.992 -11.395,-20.168 -1.105,-4.988 -1.41,-9.359 -1.261,-18.445 0.136,-8.368 0.16,-8.606 1.168,-12.25 5.476,-19.805 17.988,-33.11 33.699,-35.825 10.515,-1.82 19.789,-0.113 24.726,4.555 2.032,1.918 2.868,3.316 4.274,7.121 1.308,3.543 2.297,4.77 5.004,6.227 5.215,2.808 9.531,9.363 11.734,17.812 0.797,3.059 1.793,9.766 1.793,12.086 0,0.844 0.148,1.399 0.375,1.399 0.277,0 0.328,-1.278 0.176,-4.832 -0.305,-7.52 -1.231,-11.278 -4.301,-17.493 -2.906,-5.879 -4.453,-7.543 -9.715,-10.429 -1.844,-1.012 -2.539,-2.008 -3.668,-5.301 -0.461,-1.34 -1.39,-3.266 -2.062,-4.277 -1.629,-2.446 -5.004,-5.399 -7.617,-6.661 -3.383,-1.632 -7.622,-2.488 -12.141,-2.519 z m -1.953,5.172 c -2.75,0.004 -3.797,0.168 -6.672,1.031 -6.43,1.937 -8.465,3.27 -16.004,10.512 -6.305,6.058 -7.648,8.054 -11.84,17.601 l -1.832,4.176 v 11.746 c 0,15.813 0.516,19.867 3.27,25.59 1.375,2.855 4.765,8.055 6.504,9.98 4.589,5.079 13.293,8.665 23.574,9.711 6.011,0.614 11.965,-0.289 16.691,-2.531 9.11,-4.324 18.563,-15.441 20.36,-23.949 1.039,-4.93 1.738,-23.777 1.027,-27.746 -1.281,-7.133 -5.453,-15.11 -9.078,-17.34 -2.899,-1.785 -5.27,-0.902 -7.184,2.676 -1.035,1.933 -1.129,4.226 -0.457,11.109 1.012,10.336 -1.492,18.758 -7.207,24.258 -2.57,2.473 -4.539,3.242 -8.707,3.383 -6.305,0.219 -9.738,-1.051 -13.855,-5.133 -4.555,-4.512 -6.079,-7.773 -6.289,-13.5 -0.266,-7.215 2.191,-15.344 6.453,-21.332 2.504,-3.52 4.074,-4.531 8.707,-5.602 3.957,-0.914 8.508,-0.73 11.414,0.465 3.726,1.539 6.332,0.871 7.828,-2.004 2.086,-4.011 -0.449,-9.308 -5.297,-11.078 -3.375,-1.23 -7.875,-2.027 -11.406,-2.023 z m -97.465,4.551 c -4.473,0.007 -8.453,1.273 -11.102,3.531 -2.504,2.136 -6.152,8.441 -6.672,11.527 -0.164,0.981 -0.472,1.981 -0.679,2.223 -0.926,1.086 -3.543,0.176 -7.992,-2.77 -4.684,-3.101 -8.375,-4.242 -12.946,-4.011 -2.383,0.121 -3.136,0.312 -5.187,1.296 -5.442,2.614 -9.332,8.196 -11.492,16.508 -1.129,4.348 -1.469,8.528 -1.469,18.051 0,22.336 1.625,32.687 7.566,48.305 2.348,6.172 3.824,9.074 5.778,11.351 2.617,3.043 4.289,3.887 9.152,4.594 3.383,0.492 6.805,-0.133 9.285,-1.699 2.805,-1.774 5.039,-4.078 5.395,-5.574 0.875,-3.657 0.113,-9.125 -2.305,-16.485 -1.859,-5.648 -3.43,-11.48 -3.762,-13.949 -0.191,-1.422 -0.144,-1.688 0.364,-1.875 0.761,-0.285 2.917,1.965 5.55,5.793 2.606,3.793 7.278,8.383 9.602,9.434 4.121,1.863 10.586,0.417 13.937,-3.11 0.758,-0.797 1.375,-1.512 1.375,-1.59 0,-0.082 0.223,-1.187 0.496,-2.461 0.278,-1.273 0.801,-4.738 1.153,-7.699 0.699,-5.785 1.047,-7.285 1.777,-7.558 1.098,-0.407 1.735,0.832 4.922,9.57 2.73,7.476 4.477,11.746 5.742,14.058 1.324,2.415 3.703,4.719 6.024,5.829 1.707,0.812 2.207,0.898 5.308,0.898 3.153,0 3.59,-0.078 5.543,-0.98 4.223,-1.957 7.449,-5.235 9.633,-9.786 2.004,-4.175 2.258,-5.621 2.246,-12.824 -0.016,-5.894 -0.101,-6.847 -0.914,-10.406 -3.887,-16.934 -15.359,-37.926 -27.25,-49.863 -7.41,-7.442 -12.769,-10.34 -19.078,-10.328 z m 177.957,1.101 c -1.375,-0.012 -2.695,0.356 -4.266,1.106 -2.777,1.32 -6.164,4.515 -7.386,6.968 -1.594,3.196 -2.289,6.676 -2.086,10.446 0.265,4.8 1.359,8.324 3.992,12.843 1.879,3.215 1.867,1.684 -0.016,-2.429 -1.972,-4.313 -2.765,-7.559 -2.761,-11.36 0.003,-5.273 1.398,-9.144 4.437,-12.336 2.238,-2.343 4.801,-3.593 7.699,-3.757 2.004,-0.114 2.422,-0.02 4.727,1.05 3.648,1.7 3.949,1.766 9.769,2.035 5.075,0.235 5.371,0.29 7.457,1.286 3.86,1.843 7.547,6.304 8.082,9.777 0.411,2.645 0.664,2.934 9.836,11.184 9.098,8.183 12.61,12.339 15.129,17.882 2.406,5.286 3.598,11.684 3.594,19.356 -0.004,7.426 -1.242,12.82 -4.43,19.359 -4.476,9.176 -12.832,17.442 -21.492,21.258 -10.527,4.637 -22.445,5.289 -34.219,1.875 -6.082,-1.762 -13.437,-5.016 -18.422,-8.152 -4.867,-3.063 -10.589,-9.434 -13.437,-14.961 -1.285,-2.496 -1.383,-2.879 -1.387,-5.231 -0.004,-2.238 0.121,-2.793 1.067,-4.66 1.871,-3.691 3.273,-4.183 10.992,-3.859 l 5.308,0.222 0.481,-0.914 c 0.258,-0.504 1,-2.769 1.641,-5.031 0.644,-2.266 2.078,-7.25 3.179,-11.082 1.106,-3.832 2.578,-8.949 3.278,-11.371 1.257,-4.379 1.511,-5.883 0.996,-5.883 -0.407,0 -6.332,19.36 -8.868,28.969 -0.41,1.566 -0.906,3.047 -1.101,3.289 -0.281,0.355 -1.141,0.402 -4.422,0.242 -6.066,-0.297 -9.426,0.41 -11.316,2.375 -1.18,1.235 -2.387,4.18 -2.586,6.332 -0.25,2.653 0.496,5.676 2.164,8.789 6.363,11.871 24.789,22.524 41.679,24.094 5.782,0.535 14.75,-0.254 20.157,-1.773 15.234,-4.289 27.636,-18.407 31.441,-35.789 0.629,-2.868 0.75,-4.395 0.75,-9.141 0,-8.27 -1.062,-12.758 -4.723,-19.949 -3.39,-6.649 -8.097,-12.039 -16.453,-18.825 -6.375,-5.175 -7.238,-6.203 -7.945,-9.453 -1.195,-5.453 -5.652,-9.687 -11.531,-10.953 -1.125,-0.242 -3.653,-0.523 -5.625,-0.629 -4.172,-0.226 -5.27,-0.476 -8.797,-2.015 -1.785,-0.778 -3.215,-1.172 -4.586,-1.184 z m -178.43,0.012 c 2.141,0.039 4.344,0.488 6.489,1.367 6.171,2.516 13.14,9.086 21.636,20.402 3.34,4.45 5.473,8.071 9.516,16.18 4.66,9.332 6.101,13.246 7.898,21.402 0.778,3.551 0.864,4.614 0.856,10.293 -0.004,5.457 -0.098,6.664 -0.692,8.743 -2.394,8.394 -8.379,13.578 -15.675,13.578 -3.028,0 -4.469,-0.528 -6.551,-2.411 -3.102,-2.8 -4.906,-6.312 -8.653,-16.882 -3.484,-9.825 -4.82,-12.18 -6.82,-11.989 -1.48,0.137 -1.754,1.008 -2.316,7.192 -0.989,10.933 -2.395,14.332 -6.555,15.84 -2.566,0.933 -7.816,0.925 -9.809,-0.008 -1.98,-0.934 -5.558,-4.817 -8.722,-9.473 -2.688,-3.949 -4.957,-6.367 -6.383,-6.808 -2.664,-0.825 -2.008,4.949 1.965,17.148 2.738,8.434 3.984,14.906 3.273,17.004 -0.23,0.676 -1.343,2 -2.906,3.445 -1.977,1.836 -2.863,2.434 -4.039,2.719 -1.66,0.406 -7.938,0.445 -9.609,0.062 -1.188,-0.277 -2.891,-1.457 -4.692,-3.257 -4.191,-4.196 -8.207,-13.328 -10.582,-24.09 -0.609,-2.762 -1.32,-5.824 -1.582,-6.809 -0.465,-1.761 -1.062,-6.371 -1.875,-14.453 -0.644,-6.441 -0.547,-21.652 0.168,-26.121 2.234,-13.918 7.094,-21.043 15.348,-22.52 4.105,-0.734 7.758,0.426 13.804,4.387 2.278,1.492 4.618,2.906 5.2,3.141 2.5,1.015 3.558,0.226 4.695,-3.492 1.465,-4.789 4.133,-9.192 6.922,-11.407 2.719,-2.168 6.125,-3.246 9.691,-3.183 z m 0.774,3.551 c -3.028,-0.043 -7.883,3.738 -10.36,8.062 -1.519,2.649 -2.062,4.879 -2.836,11.574 -0.898,7.797 -1.183,9.024 -2.16,9.391 -0.707,0.262 -0.781,0.195 -4.125,-3.887 -5.691,-6.937 -9.304,-10.012 -14.984,-12.758 l -3.485,-1.683 -3.093,1.492 c -1.703,0.82 -3.66,1.988 -4.356,2.598 -3.199,2.812 -4.828,8.304 -5.918,19.961 -0.418,4.437 -0.418,17.527 0,22.476 1.321,15.668 4.719,29.289 9.129,36.563 1.903,3.144 4.938,6.414 7.004,7.547 H 294 c 0.945,0.519 1.176,0.472 2.848,-0.555 1.777,-1.094 4.004,-3.25 4.687,-4.531 0.719,-1.356 0.914,-3.778 0.469,-5.973 -0.219,-1.074 -1.328,-4.977 -2.473,-8.668 -3.453,-11.203 -4.718,-18.461 -4.078,-23.383 0.457,-3.473 0.86,-4.726 1.781,-5.57 2.387,-2.176 6.477,1.648 14.368,13.437 2.418,3.61 3.937,5.473 6.32,7.77 3.25,3.137 4.902,4.144 5.855,3.578 0.93,-0.555 2.649,-3.363 3.293,-5.383 0.735,-2.297 1.172,-6.015 1.645,-14.039 0.621,-10.57 1.293,-14.394 2.68,-15.34 0.402,-0.269 0.894,-0.492 1.097,-0.492 1.485,0 8.524,7.527 9.235,9.883 0.226,0.746 1.285,3.324 2.359,5.73 1.891,4.239 2.988,7.371 5.141,14.625 1.941,6.555 4.367,10.305 7.371,11.418 2.507,0.93 5.636,-0.14 8.476,-2.898 3.231,-3.137 4.422,-6.934 4.453,-14.219 0.051,-11.41 -2.769,-21.41 -9.867,-34.984 -5.504,-10.528 -16.949,-24.477 -23.863,-29.086 -2.25,-1.496 -5.078,-2.633 -6.617,-2.656 z m 177.164,2.605 c -1.106,-0.019 -1.989,0.328 -2.934,1.035 -2.785,2.078 -4.082,6.004 -3.805,11.547 0.196,3.914 0.872,6.125 2.809,9.117 2.055,3.192 2.438,4.496 2.242,7.676 -0.144,2.375 -0.566,3.934 -2.968,11 -3.168,9.32 -3.883,12.02 -4.618,17.414 -0.593,4.32 -1.019,14.957 -0.679,16.734 0.336,1.723 1.449,2.063 3.293,1.012 1.683,-0.957 5.554,-4.926 7.699,-7.894 1.93,-2.664 6.543,-11.227 9.918,-18.426 5.082,-10.84 4.769,-10.535 7.871,-7.668 5.254,4.863 9.226,11.957 9.226,16.48 0,3.055 -2.921,9.551 -7.015,15.594 -5.34,7.871 -11.129,10.379 -20.524,8.883 -7.304,-1.16 -8.39,-1.742 -16.937,-9.094 -2.973,-2.554 -6.063,-4.957 -6.871,-5.336 -1.965,-0.926 -3.348,-0.676 -4.727,0.856 l -1.035,1.144 0.117,3.516 c 0.102,3.066 0.227,3.738 1.02,5.308 2.097,4.157 11.746,11.29 21.586,15.958 4.066,1.925 6.058,2.402 13.691,3.277 v -0.004 c 7.207,0.824 9.176,0.805 12.973,-0.133 4.39,-1.09 7.812,-2.422 11.027,-4.297 6.246,-3.644 11.676,-8.398 14.727,-12.894 7.156,-10.551 9.386,-24.024 6.082,-36.735 -1.524,-5.863 -3.078,-8.527 -8.254,-14.172 -5.211,-5.683 -7.75,-7.957 -12.16,-10.925 -3.774,-2.535 -4.528,-3.473 -5.938,-7.352 -1.863,-5.129 -3.469,-7.43 -6.164,-8.855 -2.402,-1.266 -4.066,-1.391 -7.07,-0.524 -2.973,0.856 -3.922,0.731 -8.321,-1.082 -1.832,-0.758 -3.16,-1.14 -4.261,-1.16 z m -78.043,6.809 c -5.469,-0.075 -8.395,2.089 -11.528,8.027 -2.679,5.07 -2.785,5.66 -2.554,14.437 l 0.199,7.575 2.051,2.027 c 2.84,2.809 4.242,3.844 6.39,4.723 1.508,0.617 2.274,0.738 4.137,0.64 3.809,-0.203 6.512,-1.996 9.113,-6.043 3.274,-5.105 3.754,-7.839 3.141,-17.765 -0.441,-7.051 -0.645,-8.707 -1.078,-8.707 -0.203,0 -0.234,1.121 -0.078,3.086 0.445,5.593 0.293,14.254 -0.285,16.828 -1.102,4.859 -4.106,9.109 -7.555,10.679 -3.496,1.594 -7.613,0.747 -10.641,-2.195 -3.773,-3.668 -5.39,-9.055 -4.547,-15.203 1.164,-8.504 4.11,-13.883 8.754,-15.984 2.754,-1.243 6.364,-1.164 10.184,0.23 3.988,1.453 3.91,1.438 3.91,0.84 0,-0.813 -1.414,-2 -2.812,-2.367 -0.696,-0.18 -2.629,-0.477 -4.297,-0.66 -0.891,-0.098 -1.723,-0.157 -2.504,-0.168 z M 207.844,88.727 c -6.063,0.027 -11.149,2.703 -13.59,7.382 -1.281,2.457 -1.848,5.407 -2.113,10.996 -0.348,7.481 -0.661,7.758 -6.59,5.918 -4.649,-1.441 -8.957,-1.757 -12.75,-0.937 -4.805,1.039 -9.215,5.059 -10.746,9.801 -0.625,1.922 -0.719,2.886 -0.676,6.531 0.094,7.508 1.945,17.113 4.699,24.422 3.766,10.012 11.633,25.504 15.848,31.25 2.449,3.328 6.976,8.308 11.281,12.398 6.055,5.75 8.844,7.66 12.695,8.711 v 0.004 c 1.059,0.285 2.641,0.418 4.153,0.348 7.535,-0.348 13.054,-5.801 12.664,-12.512 -0.203,-3.504 -1.516,-5.574 -11.594,-18.348 -2.191,-2.773 -4.305,-5.57 -4.691,-6.211 -0.653,-1.074 -0.668,-1.207 -0.18,-1.675 0.484,-0.477 0.66,-0.473 2.246,0.015 1.621,0.5 3.039,1.266 9.703,5.246 3.629,2.168 5.512,2.684 9.16,2.516 2.356,-0.109 3.188,-0.297 4.739,-1.07 3.472,-1.723 5.011,-4.684 5.003,-9.614 -0.003,-3.14 -0.472,-5.332 -2.304,-10.699 -0.727,-2.129 -1.278,-4.187 -1.219,-4.582 0.113,-0.769 1.398,-1.566 2.102,-1.304 0.234,0.085 3.535,3.367 7.336,7.289 11.937,12.316 14.398,13.839 20.64,12.785 5.485,-0.93 8.367,-3.02 10.598,-7.703 1.746,-3.664 2.105,-5.434 1.859,-9.118 -0.582,-8.586 -3.554,-15.457 -10.383,-23.972 -3.168,-3.953 -13.023,-13.852 -17.714,-17.785 -12.305,-10.332 -25.844,-17.762 -35.84,-19.672 -1.481,-0.285 -2.934,-0.418 -4.336,-0.41 z m 0.347,1.414 c 7.075,-0.028 15.606,3.648 28.11,11.722 7.496,4.844 11.039,7.684 18.117,14.524 6.215,5.992 10.727,11.031 13.18,14.703 4.972,7.433 8.07,16.406 7.488,21.691 -0.879,7.989 -6.293,13.629 -13.07,13.629 -4.868,0 -6.532,-1.109 -16.016,-10.656 -7.359,-7.406 -11.152,-10.649 -12.27,-10.496 -0.382,0.055 -0.89,0.512 -1.148,1.039 -0.574,1.172 -0.207,3.582 1.25,8.172 1.777,5.605 2.406,10.89 1.625,13.625 -0.633,2.222 -4.383,4.996 -7.387,5.465 -2.953,0.457 -7.351,-1.329 -14.918,-6.059 -7.679,-4.797 -8.964,-5.297 -9.683,-3.762 -0.328,0.7 -0.231,1.094 0.695,2.926 1.625,3.211 4.723,7.633 8.926,12.727 3.836,4.656 6.66,8.879 8.023,12.019 2.117,4.856 -1.402,10.399 -7.797,12.293 -3.211,0.953 -7.062,0.488 -10.804,-1.289 -2.508,-1.199 -6.485,-4.402 -10.461,-8.434 -8.926,-9.046 -13.914,-16.523 -19.219,-28.835 -0.711,-1.657 -2.156,-4.719 -3.203,-6.809 -1.34,-2.664 -2.305,-5.215 -3.242,-8.539 -1.633,-5.848 -3.469,-14.899 -3.977,-19.633 -0.34,-3.156 -0.316,-3.82 0.199,-5.898 2.567,-10.282 10.094,-13.266 23.473,-9.301 3.699,1.094 5.473,1.297 6,0.68 0.281,-0.329 0.52,-2.473 0.719,-6.618 0.527,-10.746 2.347,-14.867 7.601,-17.203 2.473,-1.101 5.02,-1.676 7.789,-1.683 z m -1.16,4.129 c -3.48,0.078 -5.933,1.543 -7.578,4.441 -0.894,1.57 -0.973,1.961 -1.078,5.68 -0.18,6.152 1.387,16.984 2.895,20.015 0.765,1.539 0.796,2.071 0.148,2.313 -0.535,0.199 -1.789,-0.477 -3.121,-1.676 -0.465,-0.418 -1.785,-1.094 -2.934,-1.5 -1.152,-0.406 -3.867,-1.602 -6.035,-2.656 -5.508,-2.688 -6.945,-3.055 -11.871,-3.067 -3.859,-0.011 -4.152,0.035 -5.59,0.856 -1.992,1.137 -4.109,3.504 -4.426,4.949 -0.398,1.844 -0.265,12.949 0.192,15.398 0.39,2.079 5.531,15.563 8.754,22.954 3.586,8.23 7.859,15.675 12.402,21.628 4.488,5.879 13.781,14.305 17.684,16.024 0.882,0.391 2.164,0.648 3.234,0.652 1.668,0.004 1.844,-0.074 3.152,-1.394 0.758,-0.774 1.852,-2.36 2.426,-3.528 1.879,-3.824 1.27,-5.367 -4.875,-12.437 -6.883,-7.914 -10.687,-13.172 -13.547,-18.727 -4.058,-7.886 -4.105,-10.746 -0.187,-10.379 2.804,0.262 7.512,2.664 17.453,8.911 6.476,4.07 10.441,6.203 11.547,6.211 1.168,0.007 3.461,-1.422 4.234,-2.641 1.27,-1.992 0.621,-6.289 -1.793,-11.867 -2.984,-6.891 -3.344,-8.27 -4.832,-18.668 -0.219,-1.496 0.68,-2.282 2.602,-2.282 0.812,0 1.949,0.235 2.523,0.52 3.164,1.563 8.18,6.07 19.649,17.641 9.273,9.355 10.226,10.109 12.992,10.273 1.687,0.102 2.242,-0.016 3.765,-0.793 1.11,-0.566 2.153,-1.418 2.747,-2.238 0.878,-1.219 0.988,-1.66 1.269,-5.301 0.457,-5.867 -0.047,-10.914 -1.352,-13.519 -1.761,-3.52 -4.96,-8.579 -6.851,-10.833 -3.828,-4.558 -18.715,-18.5 -23.32,-21.832 -6.114,-4.433 -16.059,-9.558 -22.86,-11.785 -2.875,-0.941 -5.332,-1.39 -7.418,-1.343 z m 318.184,0.933 c -1.313,0.067 -2.992,2.551 -8.266,12 -2.187,3.918 -4.875,8.543 -5.976,10.274 -2.129,3.351 -2.52,4.89 -1.426,5.554 0.922,0.559 5.383,0.172 7.051,-0.613 1.91,-0.898 5.429,-4.063 7.183,-6.469 5.071,-6.945 6.504,-15.238 3.328,-19.277 -0.578,-0.738 -1.312,-1.387 -1.632,-1.449 -0.086,-0.016 -0.172,-0.024 -0.262,-0.02 z m -0.227,2.258 c 0.305,-0.02 0.602,0.07 0.926,0.238 1.766,0.918 2.391,4.387 1.473,8.18 -1.625,6.687 -5.996,12.5 -11.367,15.113 -2.383,1.16 -4.102,1.387 -4.754,0.629 -0.539,-0.629 -0.094,-1.836 1.976,-5.394 0.91,-1.567 3.184,-5.668 5.043,-9.114 3.969,-7.343 5.391,-9.558 6.703,-9.652 z m 98.707,1.195 c -18.59,-0.004 -27.07,3.188 -39.539,14.879 -7.047,6.606 -11.496,12.297 -15.343,19.629 -3.883,7.41 -5.211,12.266 -5.2,19 0.012,7.004 1.434,12.797 4.629,18.832 3.36,6.348 8.578,11.379 17.133,16.527 5.316,3.204 8.266,4.231 14.223,4.969 2.687,0.332 10.996,-0.113 14.179,-0.762 16.493,-3.347 30.371,-14.386 38.989,-31.019 3.386,-6.535 5.179,-13.012 5.179,-18.707 0,-3.621 -0.437,-5.551 -1.988,-8.805 -1.492,-3.121 -1.562,-4.14 -0.461,-7.156 2.395,-6.594 -0.719,-14.305 -8.062,-19.953 -7.641,-5.875 -12.606,-7.43 -23.739,-7.434 z m -0.882,1.305 c 3.21,-0.016 6.074,0.066 7.453,0.262 4.64,0.66 10.785,3.097 14.804,5.875 3.946,2.726 8.145,7.918 9.422,11.644 0.696,2.02 0.641,4.836 -0.14,8.285 -0.911,4 -0.844,5.094 0.515,8.09 2.738,6.051 2.738,11.012 0.008,18.781 -7.109,20.204 -23.891,35.04 -43.043,38.059 -3.559,0.559 -10.25,0.559 -13.379,0 -11.433,-2.039 -24.687,-11.59 -29.898,-21.539 -3.813,-7.273 -4.805,-17.762 -2.496,-26.344 2.8,-10.418 10.597,-21.984 20.363,-30.203 8.488,-7.148 14.918,-10.613 22.633,-12.183 2.074,-0.422 8.402,-0.704 13.758,-0.727 z m -0.321,2.945 c -7.558,0.016 -15.492,2.149 -22.57,6.27 -10.758,6.258 -19.715,16.113 -26.266,28.898 -2.949,5.758 -3.273,7.16 -3.574,15.672 -0.269,7.559 -0.004,8.902 2.789,14.231 2.34,4.453 4.234,6.961 7.688,10.148 4.957,4.578 10.691,7.547 17.437,9.027 1.383,0.301 3.356,0.418 5.836,0.348 6.309,-0.187 15.035,-2.738 21.41,-6.266 9.809,-5.429 16.649,-13.171 22.891,-25.906 2.512,-5.125 3.105,-7.555 3.097,-12.664 -0.011,-6.934 -1.078,-9.187 -4.332,-9.176 -3.472,0.016 -5.078,1.516 -9.621,8.977 -6.863,11.258 -11.879,15.535 -19.535,16.656 -4.16,0.609 -10,-0.402 -13.371,-2.324 -1.844,-1.047 -5.324,-4.699 -6.574,-6.891 -0.918,-1.613 -0.969,-1.883 -0.938,-5.183 0.11,-11.469 6.731,-20.883 18.489,-26.293 3.855,-1.774 6.879,-2.481 9.683,-2.258 4.024,0.312 6.946,1.922 11.907,6.547 4.031,3.761 5.824,5.062 6.984,5.062 1.203,0 3.734,-1.695 4.637,-3.105 0.66,-1.031 0.75,-1.571 0.75,-4.672 0,-3.332 -0.051,-3.578 -0.946,-4.91 -1.453,-2.16 -6.027,-6.321 -8.531,-7.758 -1.242,-0.715 -3.234,-1.672 -4.418,-2.133 -3.992,-1.551 -8.391,-2.305 -12.922,-2.297 z m 3.328,17.637 c -0.336,-0.008 -0.691,0.004 -1.07,0.031 -4.203,0.293 -10.754,3.688 -14.605,7.567 -5.344,5.382 -9.012,13.183 -8.446,17.98 0.512,4.399 3.946,8.082 8.715,9.356 2.949,0.789 6.309,0.058 10.195,-2.211 3.848,-2.25 6.403,-5.063 9.754,-10.731 1.2,-2.031 3.188,-5.18 4.418,-6.992 1.235,-1.816 2.34,-3.723 2.457,-4.238 0.328,-1.457 -0.863,-3.317 -4.191,-6.539 -3.285,-3.184 -4.863,-4.172 -7.227,-4.223 z m -1.613,1.328 c 1.238,-0.004 2.363,0.32 3.777,1.016 2,0.988 6.012,4.625 6.844,6.211 1.172,2.23 0.832,3.461 -1.902,6.976 -0.86,1.102 -2.203,3.211 -2.988,4.692 -3.411,6.402 -8.165,11.476 -11.977,12.785 -2.914,0.996 -6.992,0.836 -9.953,-0.399 -3.84,-1.597 -5.02,-3.922 -4.742,-9.359 0.285,-5.746 2.574,-9.746 9.035,-15.797 3.73,-3.5 6.094,-4.941 9.469,-5.781 0.91,-0.227 1.691,-0.344 2.437,-0.344 z m -234.84,26.262 c -0.918,0.008 -1.777,0.074 -2.558,0.215 -15.227,2.703 -30.305,16.632 -36.047,33.304 -1.496,4.34 -2.793,12.715 -1.883,12.172 0.152,-0.094 0.367,-0.922 0.48,-1.84 0.274,-2.222 2.235,-9.625 3.329,-12.593 1.617,-4.371 4.003,-8.461 7.113,-12.188 2.926,-3.512 7.304,-7.914 9.793,-9.851 2.945,-2.293 9.406,-5.641 13.418,-6.954 2.426,-0.789 2.847,-0.832 6.984,-0.683 3.473,0.125 5.016,0.336 7.336,1 4.227,1.211 9.066,3.609 11.516,5.707 2.816,2.406 3.687,2.805 5.797,2.637 1.371,-0.11 2.195,-0.438 3.98,-1.59 6.422,-4.149 12.52,-5.813 20.371,-5.555 3.863,0.125 4.559,0.238 6.902,1.137 5.051,1.933 11.211,6.332 16.848,12.035 6.152,6.227 11.07,13.371 13.317,19.348 1.835,4.886 3.507,15.214 5.046,31.211 0.45,4.699 1.11,11.253 1.457,14.562 1.125,10.602 1.407,19.902 1.204,39.578 -0.227,21.539 -0.676,31.496 -2.204,49.164 -0.722,8.367 -0.64,9.383 0.848,10.332 1.172,0.742 1.566,0.649 4.531,-1.082 4.879,-2.855 12.5,-5.761 19.75,-7.539 2.907,-0.711 4.133,-0.84 8.149,-0.844 4.09,-0.007 5.015,0.09 6.875,0.715 4.504,1.512 9.933,5.422 13.898,10.012 4.77,5.52 8.656,12.027 10.324,17.285 0.469,1.481 1.368,3.762 1.989,5.067 0.621,1.304 1.492,3.941 1.933,5.855 0.438,1.918 1.633,5.836 2.641,8.707 l 1.84,5.227 0.289,9.812 c 0.375,12.68 -0.133,40.445 -0.805,43.852 -0.508,2.574 -1.027,4.117 -3.094,9.117 -3.027,7.336 -5.296,10.855 -10.125,15.695 -8.199,8.215 -15.339,11.969 -26.039,13.684 -4.691,0.75 -9.777,1.996 -11.652,2.851 -2.949,1.348 -7.559,6.356 -8.145,8.836 -0.121,0.524 -0.554,1.305 -0.96,1.742 -1.434,1.547 -1.559,2.161 -1.813,8.86 -0.137,3.57 -0.406,7.183 -0.602,8.023 -0.902,3.809 -3.195,6.34 -8.726,9.637 -4.039,2.41 -5.68,3.195 -9.633,4.629 -5.926,2.148 -12.457,3.371 -21.273,3.976 -15.075,1.036 -16.434,1.067 -21.184,0.532 -2.512,-0.285 -8.234,-0.66 -12.707,-0.84 -16.52,-0.652 -33.059,-2.867 -40.531,-5.422 -3.586,-1.23 -4.36,-1.621 -5.965,-3.031 -2.574,-2.254 -3.656,-5.098 -4.852,-12.75 -1.558,-9.961 -2.293,-11.43 -8.836,-17.731 -2.781,-2.679 -5.07,-5.168 -5.496,-5.98 -0.398,-0.766 -1.3,-4.043 -2.004,-7.281 -2.433,-11.231 -4.265,-17.258 -6.812,-22.387 -1.387,-2.785 -1.922,-3.5 -4.133,-5.504 -1.398,-1.266 -6.055,-4.879 -10.351,-8.024 -4.301,-3.148 -9.512,-7.109 -11.579,-8.808 -3.628,-2.973 -13.461,-12.633 -17.515,-17.211 -3.156,-3.551 -11.344,-14.93 -13.113,-18.215 -1.762,-3.273 -6.504,-14.723 -8.532,-20.601 -2.695,-7.805 -2.461,-18.047 0.551,-23.993 2.066,-4.074 5.996,-7.379 13.82,-11.625 5.868,-3.183 6.442,-4.113 7.317,-11.843 0.867,-7.661 2.804,-11.621 8.476,-17.36 4.43,-4.488 8.543,-6.902 13.403,-7.863 4.261,-0.844 8.972,0.16 13.906,2.969 2.441,1.39 5.039,3.488 9.754,7.879 2.695,2.507 4.234,3.695 5.312,4.097 1.481,0.547 1.543,0.547 2.399,-0.07 1.722,-1.238 1.832,-1.809 1.961,-10.707 0.179,-12.117 -0.907,-29.047 -2.707,-42.266 -1.672,-12.242 -3.422,-38.195 -3.422,-50.758 0,-2.832 -0.121,-4.3 -0.332,-4.175 -0.434,0.261 -0.426,18.273 0.008,25.691 0.519,8.805 1.535,19.969 2.761,30.348 1.977,16.758 2.293,20.422 2.758,31.437 0.313,7.496 0.043,14.957 -0.609,16.617 -0.192,0.5 -0.586,0.864 -0.93,0.864 -0.324,0 -2.344,-1.516 -4.488,-3.364 -4.864,-4.195 -7.719,-6.191 -11.106,-7.753 -10.211,-4.711 -20.254,-2.668 -29.004,5.898 -4.39,4.301 -7,8.375 -8.101,12.66 -0.266,1.043 -0.715,3.68 -0.988,5.856 -0.274,2.175 -0.657,4.504 -0.848,5.168 -0.524,1.812 -2.348,3.543 -5.824,5.519 -9.434,5.363 -13.262,8.981 -16.172,15.274 -0.848,1.855 -0.957,2.46 -1.071,6.105 -0.132,4.336 0.333,10.082 1.102,13.695 0.391,1.86 5.137,13.438 8.406,20.512 2.453,5.316 9.551,15.438 15.575,22.223 5.789,6.527 17.832,17.386 24.699,22.281 8.277,5.891 10.121,7.312 12.625,9.711 3.644,3.484 5.703,6.641 7.121,10.914 1.515,4.555 3.133,10.586 4.734,17.707 0.723,3.211 1.617,6.457 1.996,7.207 0.422,0.844 1.707,2.254 3.336,3.652 8.145,6.993 9.235,9.051 11.137,20.977 0.445,2.785 0.816,5.508 0.816,6.051 0,2.558 5.34,7.558 9.59,8.98 3.797,1.266 13.199,3.028 23.656,4.422 7.18,0.961 11.45,1.281 16.465,1.234 2.508,-0.023 6.543,0.102 8.965,0.274 12.758,0.91 31.317,0.012 41.098,-1.985 4.949,-1.011 7.836,-1.992 12.199,-4.132 7.609,-3.735 11.852,-7.258 13.969,-11.598 1.469,-3.023 2.078,-5.477 2.672,-10.848 1.187,-10.683 1.894,-12.894 4.816,-15.015 3.754,-2.723 7.453,-4.078 12.637,-4.637 6.359,-0.687 14.094,-2.914 17.621,-5.07 5.676,-3.481 15.824,-13.453 18.172,-17.86 1.781,-3.343 3.968,-8.871 5.707,-14.414 3.433,-10.957 4.234,-16.765 4.234,-30.703 0,-15.758 -1.375,-26.637 -4.66,-36.914 -0.691,-2.16 -1.504,-5.141 -1.809,-6.621 -0.64,-3.105 -3.445,-10.195 -5.754,-14.563 -2.89,-5.48 -9.027,-12.417 -15.089,-17.062 -5.227,-4.008 -8.172,-4.871 -16.664,-4.891 -7.68,-0.015 -10.84,0.727 -20.7,4.86 -2.418,1.011 -5.25,2.082 -6.289,2.371 -2.886,0.805 -2.98,0.656 -2.726,-4.492 0.117,-2.301 0.359,-5.508 0.535,-7.129 0.824,-7.489 1.043,-14.481 1.211,-37.614 0.195,-27.101 -0.129,-40.312 -1.211,-49.277 -0.352,-2.937 -1.231,-10.387 -1.953,-16.555 -1.508,-12.894 -2.086,-15.98 -4.082,-21.804 -5.278,-15.418 -16.895,-28.887 -30.633,-35.512 -4.781,-2.309 -6.945,-2.867 -11.125,-2.855 -6.18,0.007 -12.848,2.105 -19.031,5.988 -3.641,2.289 -5.282,2.074 -8.957,-1.164 -4.473,-3.946 -13.618,-7 -20.024,-6.961 z m 309.914,0.558 c -0.433,0 -0.945,0.016 -1.582,0.047 -2.652,0.125 -3.136,0.258 -5.918,1.606 -3.398,1.652 -7.551,4.902 -9.914,7.769 -2.797,3.387 -4.359,7.465 -4.359,11.395 -0.004,3.133 -1.731,4.918 -16.445,16.969 -14.747,12.082 -21.645,17.921 -26.215,22.199 -9.145,8.554 -11.285,12.758 -8.578,16.859 0.593,0.899 1.648,2.129 2.343,2.738 4.008,3.52 7.782,3.25 18.903,-1.343 2.953,-1.223 5.804,-2.325 6.324,-2.45 0.93,-0.218 0.945,-0.203 0.765,0.872 -0.101,0.601 -1.507,3.793 -3.117,7.093 -1.613,3.297 -3.226,6.848 -3.582,7.895 -2.535,7.418 0.074,15.801 7.215,23.144 5.055,5.207 8.223,7.129 14.297,8.676 1.996,0.508 3.758,1.11 3.918,1.332 0.344,0.492 0.164,2.363 -0.586,5.949 -0.816,3.872 -0.828,13.133 -0.027,16.707 1.433,6.407 4.433,12.676 8.722,18.223 4.028,5.211 6.508,7.371 12.36,10.793 3.636,2.125 6.519,3.5 9.453,4.508 1.75,0.601 2.793,0.73 5.992,0.734 6.973,0.016 13.27,-1.367 17.637,-3.863 2.949,-1.688 7.883,-6.5 10.48,-10.219 2.641,-3.785 5.199,-8.34 7.289,-12.98 3.778,-8.395 4.66,-9.973 5.559,-9.973 0.601,0 1.258,1.504 1.797,4.117 0.683,3.332 1.687,5.317 3.797,7.481 2.359,2.422 3.929,3.074 7.394,3.054 3.43,-0.015 4.598,-0.449 7.578,-2.82 6.129,-4.867 7.375,-8.246 7.032,-19.07 -0.223,-7.203 -1.012,-10.164 -4.52,-16.945 -1.891,-3.649 -3.66,-6.063 -6.449,-8.77 -3.813,-3.707 -7.711,-5.996 -13.387,-7.879 -6.582,-2.18 -14.227,-2.109 -20.039,0.184 -8.938,3.527 -16.07,11.742 -20.719,23.867 -3.133,8.176 -5.918,11.715 -9.222,11.715 -2.782,0 -4.43,-2.969 -5.438,-9.813 -0.617,-4.199 -1.582,-7.113 -2.816,-8.512 -1.711,-1.945 -4.66,-3.218 -7.946,-3.437 -3.507,-0.234 -4.054,-0.676 -4.793,-3.883 -0.746,-3.23 -0.742,-9.445 0.016,-12.93 1.129,-5.191 3.652,-11.496 4.848,-12.117 0.461,-0.238 1.996,-0.093 5.742,0.543 7.273,1.235 12.211,1.231 16.035,-0.004 8.969,-2.898 15.879,-8.824 20.516,-17.589 2.367,-4.481 2.629,-5.739 2.625,-12.665 -0.008,-6.363 -0.309,-8.3 -1.801,-11.566 -1.176,-2.578 -4.367,-8.172 -6.938,-12.168 -3.472,-5.394 -3.98,-6.578 -4.511,-10.519 -1.036,-7.692 -4.282,-12.911 -9.563,-15.36 -2.164,-1.004 -2.394,-1.277 -3.293,-3.906 -1.078,-3.16 -1.789,-4.09 -3.801,-4.984 -1.179,-0.524 -1.773,-0.7 -3.078,-0.704 z m -0.008,1.297 c 1.196,-0.015 2.192,0.09 2.68,0.336 0.543,0.274 1.363,1.496 2.445,3.629 1.95,3.86 2.286,4.242 5.168,5.871 4.176,2.371 6.176,5.137 7.184,9.91 1.301,6.164 1.645,7.313 3.117,10.219 0.856,1.692 2.973,5.356 4.703,8.137 3.184,5.125 4.602,8.176 5.821,12.504 0.535,1.894 0.679,3.359 0.695,7.133 0.016,5.269 -0.371,7.367 -2.113,11.437 -2.895,6.75 -9.719,13.57 -16.262,16.258 -4.66,1.91 -8.348,2.215 -17.625,1.445 -8.5,-0.703 -8.559,-0.691 -10.148,2.219 -2.637,4.816 -4.172,11.18 -4.176,17.262 0,4.382 0.816,10.468 1.468,10.937 0.274,0.195 1.625,0.453 3.012,0.57 3.399,0.293 6.848,1.012 7.809,1.622 1.762,1.121 3,4.336 4.023,10.433 0.86,5.153 1.496,6.977 2.934,8.442 1.094,1.125 1.332,1.218 2.972,1.218 1.407,0 2.09,-0.191 3.297,-0.937 2.793,-1.719 5.621,-6.153 7.887,-12.36 2.359,-6.468 6.063,-12.343 10.602,-16.82 2.375,-2.34 3.218,-2.937 5.871,-4.164 4.683,-2.164 6.968,-2.605 13.363,-2.578 5.957,0.023 8.633,0.519 12.68,2.363 4.215,1.914 10.359,6.985 13.285,10.961 2.805,3.82 5.523,10.715 6.504,16.496 0.625,3.696 0.457,9.719 -0.344,12.559 -1.293,4.594 -4.508,8.91 -8.02,10.765 -3.539,1.872 -8.011,1.36 -11.011,-1.257 -2.067,-1.805 -3.047,-3.789 -3.977,-8.059 -1.207,-5.559 -1.64,-6.125 -3.515,-4.594 -1.45,1.184 -2.86,3.516 -4.278,7.043 -1.801,4.496 -5.597,11.75 -8.027,15.36 -2.383,3.535 -6.559,7.906 -9.484,9.941 -2.708,1.875 -6.352,3.469 -9.629,4.203 -3.266,0.735 -7.907,1.024 -10.407,0.649 -6.597,-0.993 -16.015,-6.039 -21.8,-11.688 -6.266,-6.117 -10.071,-13.535 -12.207,-23.805 -1.094,-5.285 -1.055,-6.914 0.359,-14.128 0.961,-4.891 1.125,-6.25 0.836,-6.872 -0.379,-0.8 -0.504,-0.847 -5.285,-1.914 -4.989,-1.109 -9.59,-3.75 -13.43,-7.699 -5.199,-5.355 -8.41,-11.996 -8.41,-17.387 0,-2.851 0.953,-5.367 5.199,-13.699 2.887,-5.664 3.609,-7.351 3.535,-8.234 -0.094,-1.07 -0.136,-1.106 -1.398,-1.078 -0.922,0.019 -2.778,0.73 -6.356,2.437 -10.203,4.86 -14.461,5.438 -18.82,2.551 -0.937,-0.617 -2.145,-1.777 -2.687,-2.57 -2.133,-3.125 -1.016,-6.114 4.347,-11.664 4.305,-4.453 19.363,-17.313 36.742,-31.375 9.606,-7.77 10.063,-8.368 10.075,-13.231 0.007,-2.496 0.128,-3.097 0.976,-4.836 2.719,-5.59 8.582,-11.164 13.649,-12.984 1.64,-0.59 4.183,-0.949 6.171,-0.977 z m -2.312,5.7 c -0.195,-0.008 -0.402,0.003 -0.617,0.027 -1.875,0.207 -5.77,2.476 -8.106,4.723 -2.433,2.332 -3.133,4.14 -3.582,9.23 -0.406,4.633 -0.75,6.02 -1.703,6.902 -1.859,1.719 -14.254,12.246 -21.582,18.332 -4.488,3.723 -10.277,8.625 -12.879,10.899 -5.531,4.836 -15.566,14.332 -16.031,15.176 -0.25,0.453 -0.152,0.765 0.434,1.386 0.89,0.938 3.699,2.293 4.757,2.301 2.43,0.008 35.176,-18.461 49.227,-27.766 8.355,-5.535 9.258,-5.695 11.168,-1.992 0.402,0.782 1.144,2 1.641,2.707 1.531,2.176 2.031,4.481 1.878,8.668 -0.117,3.16 -0.246,3.871 -0.933,5.082 -1.488,2.621 -3.852,3.586 -8.785,3.582 -3.672,0 -4.832,-0.461 -8.965,-3.578 -3.149,-2.367 -5.309,-3.48 -6.77,-3.48 -1.625,0 -4.199,1.394 -6.019,3.265 -1.293,1.328 -1.668,1.961 -1.848,3.129 -0.148,0.942 -2.07,5.078 -5.391,11.567 -8.269,16.168 -9.277,18.703 -9.292,23.355 -0.012,3.531 0.488,4.606 3.906,8.387 4.011,4.433 8.574,7.933 11.797,9.051 1.597,0.55 1.332,0.597 3.339,-0.578 3.086,-1.813 3.004,-1.555 3.083,-10.571 l 0.062,-7.871 1.543,-4.59 c 0.844,-2.527 2.125,-6.871 2.848,-9.656 0.722,-2.789 1.531,-5.387 1.793,-5.781 0.742,-1.11 2.066,-0.891 5.593,0.929 7.614,3.93 6.387,3.571 12.547,3.688 9.547,0.187 12.473,-0.801 18.129,-6.117 7.559,-7.102 9.449,-11.227 8.793,-19.184 -0.738,-8.976 -4.738,-19.168 -9.742,-24.828 -2.488,-2.809 -2.645,-3.328 -2.836,-9.414 l -0.172,-5.301 -3.098,-1.797 c -1.703,-0.988 -4.507,-2.269 -6.226,-2.847 -3.461,-1.164 -4.125,-1.719 -5.047,-4.2 -0.727,-1.96 -1.555,-2.789 -2.914,-2.835 z m -310.375,3.175 c -3.344,0.012 -6.684,1.86 -11.543,6.106 -7.496,6.547 -11.559,12.859 -13.754,21.375 -1.723,6.695 -1.996,9.761 -2.172,24.074 -0.199,16.309 0.711,46.121 1.551,50.977 1.195,6.89 3.102,42.32 2.871,53.347 -0.117,5.61 -0.215,6.5 -0.824,7.809 -0.789,1.683 -1.508,2.164 -3.211,2.164 -2.41,0 -4.66,-1.902 -5.203,-4.395 -0.133,-0.59 -0.727,-1.699 -1.332,-2.468 -0.602,-0.77 -1.645,-2.352 -2.301,-3.52 -3.906,-6.863 -10.789,-13.922 -16.074,-16.465 -2.293,-1.109 -2.594,-1.172 -5.543,-1.16 -5.11,0.016 -8.707,1.668 -13.399,6.164 -2.98,2.856 -5.031,5.559 -6.441,8.492 -0.848,1.766 -0.867,1.926 -0.984,9.778 -0.149,10.007 0.156,12.55 1.91,15.937 0.707,1.356 1.5,3.512 1.769,4.789 0.578,2.742 2.434,6.453 5.996,11.977 9.114,14.14 18.414,23.488 28.524,28.672 l 2.883,1.48 3.308,-0.101 c 5.488,-0.165 7.508,-0.137 8.438,0.113 1.242,0.332 2.996,1.906 4.359,3.89 1.551,2.274 3.395,3.825 5.891,4.957 1.851,0.844 2.195,0.907 3.047,0.563 1.703,-0.684 3.867,-3.316 6.871,-8.348 1.32,-2.199 2.437,-3.086 4.863,-3.847 4.73,-1.485 6.207,-6.254 3.559,-11.481 -1.274,-2.512 -6.102,-7.375 -9.594,-9.652 -1.25,-0.82 -5.09,-2.758 -8.531,-4.309 -6.926,-3.125 -8.278,-4 -9.27,-5.984 -1.762,-3.508 1.031,-4.672 9.352,-3.895 5.894,0.551 9.699,1.403 12.691,2.844 10.348,4.973 18.066,16.602 16.496,24.852 -0.476,2.48 -1.59,4.765 -4.125,8.468 -3.945,5.754 -8.691,9.965 -12.641,11.219 -2.421,0.77 -4.203,1.852 -5.765,3.5 -1.535,1.613 -1.524,1.403 -0.32,5.809 0.648,2.39 0.714,3.187 0.554,7.281 -0.195,5.027 -0.668,7.234 -2.379,11.188 -2.308,5.328 -4.422,7.863 -13.511,16.21 -4.657,4.274 -5.641,7.415 -4.957,15.727 0.488,5.918 1.191,7.977 3.476,10.191 1.817,1.77 5.184,3.645 7.969,4.438 0.961,0.273 3.379,0.648 5.379,0.832 10.898,1 11.371,1.121 10.676,2.75 -0.223,0.516 -1.7,2.566 -3.293,4.555 -3.594,4.484 -4.883,6.523 -5.438,8.613 -1.656,6.195 1.695,12.578 9.063,17.269 l 2.925,1.86 14.895,0.191 c 15.629,0.199 20.047,0.442 27.703,1.52 2.559,0.359 6.52,0.769 8.801,0.914 4.613,0.289 13.027,0.125 17.508,-0.348 12.5,-1.312 19.754,-6.289 22.371,-15.336 1,-3.457 1.093,-10.75 0.168,-12.566 -1.504,-2.938 -4.887,-5.653 -10.528,-8.445 -5.238,-2.598 -9.242,-6.708 -9.242,-9.493 0,-2.168 3.059,-5.683 5.59,-6.418 1.578,-0.461 2.762,-0.14 7.262,1.953 7.113,3.309 13.238,4.407 17.98,3.219 3.567,-0.89 5.61,-1.215 12.199,-1.953 3.137,-0.351 6.485,-0.875 7.442,-1.164 1.066,-0.32 3.222,-1.551 5.543,-3.148 4.754,-3.274 6.051,-3.907 9.082,-4.418 2.914,-0.493 4.074,-1.266 6.332,-4.215 1.949,-2.551 6.336,-10.973 7.527,-14.446 1.403,-4.105 3.442,-11.839 3.813,-14.472 0.191,-1.348 0.504,-6.504 0.703,-11.461 0.39,-9.992 0.012,-21.539 -0.832,-25.199 -0.262,-1.133 -0.625,-3.649 -0.809,-5.594 -0.652,-6.867 -4.547,-19.066 -7.828,-24.484 -0.684,-1.133 -1.352,-2.415 -1.48,-2.848 -0.602,-2.02 -7.594,-9.024 -10.989,-11.008 -2.269,-1.328 -4.797,-2.184 -7.797,-2.641 -2.875,-0.433 -12.671,-0.21 -15.226,0.352 -3.656,0.801 -13.188,6.043 -17.703,9.742 -4.43,3.625 -13.27,6.52 -18.117,5.93 -2.672,-0.32 -4.082,-0.906 -7.028,-2.91 -6.394,-4.344 -10.73,-7.071 -12.816,-8.055 -4.559,-2.148 -8.664,-1.234 -12.836,2.867 -3.516,3.453 -5.555,7.61 -6.203,12.637 -0.996,7.699 3.011,15.586 9.461,18.617 4.472,2.102 12.668,3.219 20.715,2.824 7.757,-0.379 10.199,-1.238 17.097,-6.011 9.344,-6.465 13.457,-7.418 14.695,-3.399 0.485,1.571 0.024,3.196 -1.597,5.617 -2.641,3.957 -7.582,7.618 -14.914,11.059 -9.114,4.273 -13.688,9.523 -19.051,21.859 -1.043,2.403 -1.77,3.547 -3.047,4.832 -2.074,2.09 -6.183,4.809 -7.258,4.809 -2.867,0 -5.609,-4.543 -4.683,-7.758 0.425,-1.48 1.355,-2.695 5.457,-7.14 4.804,-5.2 5.621,-7.481 3.504,-9.762 -1.321,-1.422 -3.168,-2.215 -7.817,-3.371 -3.539,-0.879 -6.508,-2.098 -8.75,-3.594 -0.785,-0.527 -2.222,-1.301 -3.187,-1.719 -3.231,-1.41 -8.438,-6.289 -10.114,-9.484 -2.628,-4.996 -2.585,-14.723 0.102,-22.504 3.953,-11.481 11.039,-17.426 20.156,-16.91 2.028,0.113 3.328,0.39 4.887,1.031 3.086,1.277 4.895,1.68 9.391,2.09 7.746,0.707 12.496,-0.121 17.117,-2.992 3.847,-2.391 5.594,-4.856 6.543,-9.235 1.824,-8.418 2.789,-31.91 2.168,-52.711 -0.492,-16.687 -0.996,-21.648 -4.442,-43.691 -1.156,-7.402 -2.472,-15.879 -2.933,-18.84 -1.032,-6.652 -2.199,-11.867 -3.278,-14.656 -1.355,-3.504 -4.32,-9.152 -6.339,-12.082 -2.282,-3.317 -9.415,-10.176 -11.977,-11.52 -3.41,-1.785 -12.141,-2.867 -17.273,-2.136 -5.184,0.734 -11.915,3.656 -14.731,6.39 -2.035,1.977 -3.094,3.852 -5.492,9.703 l -1.984,4.825 0.269,34.156 c 0.148,18.785 0.348,34.277 0.445,34.433 0.289,0.45 0.825,5.457 2.047,19.118 1.696,19.004 2.934,28.554 4.254,32.929 0.703,2.332 2.84,4.321 7.442,6.918 3.656,2.071 5.085,3.172 5.085,3.938 0,0.238 -1.136,1.301 -2.527,2.351 -1.39,1.055 -5.242,4.293 -8.558,7.2 -6.489,5.683 -11.098,9.25 -12.36,9.566 -1.203,0.301 -2.312,-1.106 -2.312,-2.945 0,-1.594 0.32,-2.332 1.679,-3.848 0.508,-0.574 0.934,-1.313 0.934,-1.645 0,-0.332 0.656,-1.539 1.465,-2.679 1.976,-2.809 2.215,-4.051 1.969,-10.153 -0.657,-16.031 -2.938,-45.41 -5.551,-71.394 -1.938,-19.246 -2.239,-24 -2.25,-35.621 -0.012,-15.426 0.449,-19.383 3.293,-28.149 1.371,-4.218 1.547,-5.109 1.554,-7.629 0,-3.207 -0.511,-4.515 -2.683,-6.847 -2.18,-2.344 -7.281,-5.551 -10.52,-6.61 -1.172,-0.382 -2.285,-0.582 -3.402,-0.578 z M 133.668,175.32 c -3.781,-0.05 -5.754,0.395 -9.008,1.852 -2.965,1.324 -4.398,1.531 -6.566,0.949 -2.446,-0.664 -5.985,-0.91 -8.539,-0.598 -5.27,0.641 -9.106,2.579 -13.422,6.778 -3.281,3.187 -5.199,6.097 -7.207,10.922 -1.207,2.898 -1.258,3.164 -1.375,7.422 -0.141,5.066 0.324,10.125 1.254,13.691 0.785,2.973 4.449,10.277 7.066,14.086 3.578,5.199 8.024,9.723 14.66,14.91 8.899,6.953 21.684,13.246 28.684,14.121 3.168,0.395 12.035,0.414 16.16,0.035 3.836,-0.355 6.563,-1.168 10.84,-3.234 10.543,-5.098 18.988,-14.477 21.73,-24.149 0.989,-3.492 1.067,-12.011 0.149,-15.828 -3.012,-12.496 -10.422,-22.168 -23.387,-30.531 -9.402,-6.066 -20.547,-10.012 -29.297,-10.375 -0.625,-0.027 -1.203,-0.043 -1.742,-0.051 z m 0.883,1.258 c 3.07,0.043 6.449,0.633 10.476,1.758 17.442,4.859 33.231,16.68 38.684,28.965 1.988,4.488 4.508,13.98 4.508,17.012 0,4.859 -3.602,14.019 -7.504,19.078 -4.746,6.156 -14.481,12.648 -21.106,14.078 -2.152,0.465 -18.66,0.922 -20.613,0.57 -5.738,-1.035 -9.387,-2.316 -14.508,-5.105 -11.875,-6.461 -23.437,-16.461 -28.57,-24.707 -6.395,-10.274 -9.129,-22.211 -6.855,-29.965 1.613,-5.512 4.507,-10.231 8.492,-13.86 4.324,-3.937 9.023,-6.043 13.57,-6.07 2.078,-0.012 3.25,0.191 5.801,1 3.488,1.109 3.937,1.098 6.586,-0.191 3.648,-1.774 7.086,-2.621 11.039,-2.563 z m 2.297,4.121 c -0.785,-0.019 -1.61,-0.011 -2.493,0.008 -5.679,0.133 -6.695,0.512 -8.32,3.129 -1.222,1.965 -1.34,3.281 -0.437,4.988 0.949,1.797 2.011,2.571 4.843,3.524 1.426,0.476 3.997,1.597 5.715,2.488 9.395,4.879 13.317,8.168 16.012,13.441 2.414,4.735 2.418,7.703 0.02,12.809 -2.735,5.82 -7.821,8.477 -16.125,8.43 -8.372,-0.047 -14.016,-2.727 -22.219,-10.567 -3.625,-3.461 -4.77,-5.406 -5.633,-9.547 -1.238,-5.937 -0.176,-8.718 5.691,-14.914 3.106,-3.285 4.559,-5.437 4.559,-6.769 0,-1.887 -4.047,-5.797 -5.996,-5.797 -5.914,0 -14.93,7.312 -17.836,14.469 -0.68,1.679 -0.746,2.308 -0.715,7.242 0.109,16.508 2.828,22.023 17.375,35.222 2.774,2.524 6.203,5.418 7.606,6.438 7.367,5.344 15.914,8.262 26.753,9.133 3.977,0.32 9.114,0.121 12.004,-0.465 6.332,-1.289 16.114,-8.703 20.825,-15.777 2.742,-4.114 3.382,-7.551 3.125,-16.629 -0.207,-7.25 -0.645,-9.582 -2.485,-13.196 -1.726,-3.375 -4.523,-6.683 -10.183,-12.039 -5.313,-5.027 -7.758,-6.734 -14.18,-9.898 -8.852,-4.356 -12.426,-5.59 -17.906,-5.723 z m -12.895,13.281 c -0.652,0.04 -1.316,0.25 -2.094,0.618 -1.523,0.718 -6.91,5.941 -7.851,7.621 -0.856,1.523 -0.856,6.808 -0.004,8.832 1.25,2.969 5.277,7.734 8.691,10.285 2.516,1.883 4.157,2.644 8.637,4.016 5.078,1.554 6.766,1.531 10.441,-0.161 3.008,-1.382 4.457,-2.613 5.567,-4.714 1.336,-2.539 2.254,-7.508 1.473,-7.977 -0.157,-0.094 -0.348,0.605 -0.43,1.555 -0.18,2.09 -1.945,5.691 -3.828,7.8 -3.227,3.625 -9.45,4.321 -14.828,1.657 -10.86,-5.375 -17.582,-14.414 -14.93,-20.082 1.164,-2.492 6.676,-8.207 7.922,-8.207 0.558,0 8.683,3.554 11.976,5.242 1.848,0.945 4.246,2.308 5.336,3.027 2.727,1.797 6.571,5.41 7.657,7.192 1.121,1.836 1.441,1.086 0.457,-1.075 -1.903,-4.179 -4.954,-6.652 -12.899,-10.453 -3.051,-1.457 -6.488,-3.222 -7.641,-3.926 -1.507,-0.917 -2.562,-1.316 -3.652,-1.25 z m 569.106,6.321 c -0.868,-0.004 -1.875,0.664 -3.633,2.105 -3.383,2.766 -3.188,5.235 0.547,7.032 1.636,0.785 2.547,0.832 3.808,0.199 3.242,-1.629 3.903,-5.653 1.336,-8.149 -0.797,-0.769 -1.387,-1.183 -2.058,-1.187 z m -0.016,1.961 c 0.301,0.023 0.559,0.136 0.906,0.359 0.895,0.57 1.621,1.547 1.953,2.621 0.141,0.469 -0.027,0.942 -0.539,1.508 -1.656,1.836 -6.773,0.992 -6.773,-1.117 0,-0.926 1.906,-2.774 3.273,-3.172 0.528,-0.156 0.875,-0.227 1.18,-0.199 z M 70.414,251.641 c -1.047,-0.016 -2.094,0.066 -3.137,0.25 -7.304,1.285 -14.839,8.605 -17.906,17.402 -1.777,5.086 -1.508,17.52 0.481,22.27 1.957,4.679 7.132,10.453 11.742,13.105 3.015,1.734 4.652,3.32 6.371,6.164 0.844,1.406 2.57,3.473 4.351,5.215 7.555,7.398 20.028,12.566 34.68,14.379 3.352,0.414 9.942,0.101 12.93,-0.61 8.496,-2.027 14.465,-5.351 20.465,-11.398 4.777,-4.809 7.343,-9.375 8.558,-15.211 0.446,-2.133 0.52,-3.695 0.383,-7.91 -0.199,-5.805 -0.793,-8.938 -2.508,-13.25 -3.332,-8.395 -13.125,-17.074 -21.359,-18.93 -3.016,-0.679 -8.317,-0.515 -9.91,0.305 -1.856,0.957 -4.227,3.328 -4.586,4.582 -0.18,0.629 -0.414,4.351 -0.52,8.269 -0.23,8.442 -0.746,12.059 -2.121,14.793 -1.262,2.516 -3.672,5.079 -6.441,6.84 -2.688,1.711 -4.293,2.328 -7.211,2.766 -6.488,0.976 -16.942,-3.125 -19.071,-7.481 -1.539,-3.148 0.442,-6.468 6.485,-10.875 3.656,-2.668 6.336,-5.378 7.558,-7.64 0.801,-1.488 0.934,-2.074 0.918,-4.258 -0.043,-9.797 -10.027,-18.656 -20.152,-18.777 z m -0.855,1.488 c 2.32,-0.047 4.707,0.254 6.703,0.93 4.457,1.507 7.773,4.074 10.082,7.808 1.543,2.496 2.379,5.305 2.738,9.172 l 0.285,3.16 -2.156,1.93 c -4.172,3.73 -5.797,5.101 -8.902,7.523 -1.825,1.43 -3.297,2.844 -3.532,3.395 -0.484,1.137 -0.484,5.195 -0.007,6.937 0.644,2.301 4.609,4.93 10.449,6.918 4.304,1.469 7.23,1.832 9.738,1.207 3.723,-0.925 7.715,-3.179 10.664,-6.027 4.609,-4.449 5.195,-6.348 5.512,-17.91 0.121,-4.266 0.359,-8.305 0.535,-8.981 0.379,-1.457 2.758,-3.89 4.676,-4.781 2.847,-1.328 6.64,-0.926 11.91,1.266 7.34,3.051 13.23,8.558 17.09,15.984 2.211,4.254 2.476,5.426 2.687,12.028 0.254,8 -0.176,11.371 -1.859,14.722 -5.25,10.465 -13.043,16.504 -25.395,19.668 -2.5,0.641 -4.121,0.828 -8.019,0.93 -18.172,0.465 -37.926,-8.469 -44.031,-19.918 -1.657,-3.102 -2.446,-3.832 -5.922,-5.453 -2.356,-1.102 -3.516,-1.895 -5.395,-3.696 -2.508,-2.41 -4.441,-4.957 -5.918,-7.789 -3.379,-6.488 -3.156,-19.039 0.457,-25.992 1.961,-3.773 6.727,-9.125 9.949,-11.187 1.797,-1.149 4.672,-1.782 7.657,-1.844 z m 0.668,3.703 c -0.528,-0.019 -1.024,0.031 -1.512,0.137 -2.891,0.629 -6.094,2.332 -8.555,4.551 -2.105,1.89 -4.844,6.644 -5.785,10.031 -0.719,2.586 -0.828,13.023 -0.168,15.965 0.797,3.558 4.645,10.062 6.66,11.257 2.172,1.286 6.149,0.383 7.285,-1.656 0.489,-0.89 0.586,-1.851 0.59,-6.121 0.008,-4.953 0.024,-5.098 0.903,-6.551 1.011,-1.675 2.496,-2.933 6.273,-5.328 3.121,-1.976 5.82,-4.433 6.789,-6.168 0.996,-1.804 0.973,-5.554 -0.055,-8.465 -0.914,-2.582 -2.082,-3.668 -5.988,-5.539 -2.969,-1.425 -4.855,-2.062 -6.437,-2.113 z m 674.046,0.484 c -0.507,0.004 -1.031,0.016 -1.574,0.032 -5.316,0.16 -5.894,0.32 -9.554,2.687 -2.895,1.867 -8.645,7.211 -10.547,9.805 -0.793,1.074 -1.782,2.945 -2.203,4.152 -2.067,5.895 -6.821,15.344 -8.743,17.371 -2.031,2.141 -3.464,2.735 -6.933,2.887 -2.399,0.105 -3.254,0.012 -4.723,-0.527 -4.754,-1.743 -7.238,-5.727 -7.808,-12.543 -0.219,-2.578 -0.5,-3.961 -0.985,-4.895 -0.773,-1.465 -2.328,-2.539 -3.687,-2.543 -1.297,0 -3.786,1.324 -5.157,2.742 -2.796,2.903 -3.554,5.368 -3.539,11.493 0.016,7.941 0.84,11.777 3.762,17.461 2.871,5.585 6.898,10.234 12.313,14.207 2.589,1.898 8.656,4.132 12.859,4.73 2.996,0.426 7.879,0.367 10.266,-0.125 2.589,-0.535 6.695,-2.566 9.312,-4.613 3.551,-2.774 6.805,-8.094 13.07,-21.371 4.371,-9.274 7.789,-13.758 10.485,-13.758 1.91,0 4.691,1.965 5.812,4.113 0.317,0.609 0.68,2.203 0.801,3.543 0.488,5.441 2.855,10.07 5.156,10.07 2.239,0 6.41,-2.847 7.551,-5.16 1.828,-3.695 2.027,-13.386 0.387,-18.722 -1.746,-5.676 -4.91,-10.493 -9.957,-15.157 -4.848,-4.484 -8.739,-5.929 -16.364,-5.879 z m -623.91,10.43 c -0.644,0.012 -0.957,0.258 -1.722,1.043 -1.446,1.492 -1.703,2.813 -2.125,10.84 -0.559,10.676 -0.977,12.34 -4.09,16.281 -2.016,2.539 -7.266,7.301 -9.137,8.278 -4.613,2.414 -17.859,1.871 -24.609,-1.004 -1.215,-0.52 -2.375,-0.95 -2.559,-0.95 -0.562,0 -2.687,1.961 -3,2.774 -0.601,1.515 0.711,4.933 2.774,7.262 2.523,2.832 10.738,8.718 13.812,9.89 1.762,0.672 7.824,1.957 12.781,2.707 5.149,0.781 16.703,0.371 19.961,-0.711 2.438,-0.808 10.297,-5.789 12.504,-7.926 3.324,-3.214 6.25,-8.246 7.145,-12.281 0.668,-3.023 0.976,-11.66 0.535,-15.101 -0.195,-1.528 -0.656,-3.438 -1.024,-4.246 -2.004,-4.399 -7.574,-10.727 -11.742,-13.34 -2.457,-1.543 -6.722,-3.235 -8.722,-3.461 -0.317,-0.039 -0.567,-0.059 -0.782,-0.055 z m 173.91,66.145 c -1.082,-0.004 -2.175,0.339 -3.378,1.007 -2.637,1.465 -5.879,4.774 -7.149,7.286 -0.969,1.925 -1.094,2.527 -1.418,6.734 -0.262,3.375 -0.265,5.676 0,8.527 0.434,4.672 1.41,7.332 5.918,16.211 3.027,5.961 4.746,8.871 6.734,11.403 0.657,0.839 1.622,2.386 2.137,3.441 0.516,1.051 1.977,3.195 3.246,4.762 1.27,1.566 3.328,4.164 4.582,5.773 3.149,4.039 9.348,9.129 21.008,17.231 8.254,5.738 12.453,7.722 19.387,9.148 l -0.008,0.004 c 3.797,0.781 8.371,0.777 11.531,-0.008 5.555,-1.379 10.578,-4.469 11.282,-6.933 0.71,-2.485 0.171,-10.102 -1.176,-16.664 -0.617,-3.012 -1.34,-4.489 -2.906,-5.969 -2.211,-2.086 -7.602,-4.324 -10.415,-4.324 -2.082,0 -7.89,-3.309 -14.996,-8.543 -8.238,-6.071 -14.402,-11.641 -17.859,-16.153 -1.27,-1.652 -3.297,-4.179 -4.504,-5.609 -2.613,-3.098 -4.684,-6.297 -8.762,-13.543 -3.472,-6.18 -5.101,-8.516 -7.558,-10.817 -2.133,-2.003 -3.895,-2.96 -5.696,-2.964 z"
       style="fill:#060606;fill-opacity:1;fill-rule:nonzero;stroke:none"
       transform="scale(1.3333333)" />
  </g>
</svg>
