<?xml version="1.0" encoding="UTF-8" standalone="no"?>
<!-- Created with Inkscape (http://www.inkscape.org/) -->

<svg
   version="1.1"
   id="svg1"
   width="1122.5197"
   height="793.70074"
   viewBox="0 0 1122.5197 793.70074"
   xmlns="http://www.w3.org/2000/svg"
   xmlns:svg="http://www.w3.org/2000/svg">
  <defs
     id="defs1" />
  <g
     id="g1">
    <path
       id="path1"
       d="m 479.719,532.586 c -3.731,-0.594 -6.262,-1.777 -9.11,-4.266 -4.195,-3.664 -3.531,-10.886 1.321,-14.351 2.812,-2.012 9.383,-3.121 13.172,-2.231 4.496,1.059 6.586,5.496 3.726,7.918 -0.754,0.637 -3.109,1.543 -5.238,2.016 -6.711,1.48 -8.914,2.629 -8.914,4.652 0,2.949 3.629,4.223 11.183,3.918 8.422,-0.336 14.754,-3.199 22.696,-10.269 6.933,-6.168 12.05,-12.446 22.66,-27.789 8.812,-12.75 15.789,-20.711 22.723,-25.938 7.238,-5.457 10.292,-5.484 8.617,-0.078 -2.207,7.121 -2.817,16.781 -1.821,28.797 0.981,11.797 1.95,17.215 3.082,17.215 0.332,0 2.301,-2.864 4.375,-6.364 14.079,-23.75 22.961,-33.496 28.672,-31.464 5.047,1.8 2.403,5.257 -5.758,7.527 -5.886,1.637 -6.738,2.641 -17.07,20.121 -10.539,17.828 -10.336,17.391 -9.863,21.133 0.531,4.187 0.445,4.265 -7.586,7.164 -4.176,1.508 -6.418,1.98 -7.047,1.492 -0.508,-0.394 -1.164,-2.434 -1.457,-4.531 -2.004,-14.266 -2.75,-21.133 -2.742,-25.258 0.015,-5.562 1.617,-15.441 3.422,-21.086 1.988,-6.23 2.199,-7.273 1.465,-7.273 -1.032,0 -6.911,7.3 -14.043,17.441 -16.895,24.02 -22.145,29.984 -31.274,35.543 -7.793,4.746 -17.863,7.129 -25.191,5.961 z m -266.36,-1.621 c -6.375,-1.336 -8.117,-6.43 -4.371,-12.762 1.133,-1.914 6.914,-10.187 12.852,-18.387 14.16,-19.558 15.754,-21.675 18.785,-24.902 2.434,-2.594 2.789,-2.726 7.328,-2.726 3.297,0 4.766,0.281 4.766,0.91 0,0.5 -2.274,4.445 -5.047,8.773 -2.774,4.324 -5.043,8.024 -5.043,8.219 0,0.191 -0.871,1.555 -1.938,3.027 -1.07,1.473 -1.941,2.938 -1.941,3.258 0,0.32 2.418,0.488 5.371,0.379 4.777,-0.184 5.59,-0.012 7.371,1.555 2.649,2.332 2.633,5.949 -0.051,12.293 -4.691,11.078 -14.316,18.671 -25.91,20.433 -5.816,0.883 -7.683,0.875 -12.172,-0.07 z m 15.567,-9.41 c 10.633,-6.598 17.281,-22.465 9.41,-22.465 -0.984,0 -2.594,1.105 -3.969,2.726 -2.945,3.473 -10.535,15.094 -11.844,18.133 -1.902,4.418 0.782,5.094 6.403,1.606 z m -154.805,8.82 c -4.269,-0.715 -6.535,-1.734 -9.387,-4.227 -5.871,-5.128 -4.296,-15.398 4.286,-27.964 4.48,-6.563 17.832,-19.008 25.652,-23.907 11.332,-7.101 16.504,-9.222 27.125,-11.129 5.269,-0.941 6.43,-0.933 10.734,0.09 4.625,1.098 9.141,0.907 19.364,-0.824 1.718,-0.289 11.285,1.59 15.308,3.008 3.043,1.074 3.567,1.078 5.891,0.039 1.402,-0.625 4.523,-1.367 6.937,-1.652 3.504,-0.411 4.805,-0.262 6.422,0.734 2.07,1.27 2.18,2.5 0.668,7.324 -1.387,4.414 15.695,4.285 27.828,-0.211 1.778,-0.656 6.094,-2.769 9.586,-4.695 3.492,-1.926 6.551,-3.496 6.789,-3.496 0.242,0 0.442,0.629 0.442,1.398 0,1.758 -10.754,9.469 -16.926,12.137 -11.692,5.051 -21.723,6.461 -30.414,4.277 -2.348,-0.589 -4.27,-1.078 -4.27,-1.082 0,0 -2.41,2.149 -5.359,4.778 -7.707,6.879 -14.844,12.164 -25.988,19.238 -8.266,5.246 -10.106,6.766 -11.864,9.793 -2.765,4.758 -3.437,8.223 -1.886,9.676 1.531,1.437 3.273,0.718 9.156,-3.774 3.051,-2.332 4.594,-3.101 4.988,-2.5 0.672,1.016 -6.484,7.356 -12.601,11.16 -4.922,3.059 -9.993,3.477 -12.368,1.016 -2.804,-2.906 -1.57,-9.289 3.719,-19.223 5.863,-11.011 12.762,-19.574 24.586,-30.523 5.875,-5.438 8.25,-8.375 6.777,-8.375 -0.152,0 -2.64,-0.805 -5.535,-1.789 -6.695,-2.274 -11.715,-3.004 -13.121,-1.91 -0.644,0.5 -1.07,2.261 -1.07,4.422 0,9.398 -13.223,19.898 -23.047,18.3 -7.125,-1.156 -6.477,-7.546 1.52,-15.023 2.566,-2.402 6.324,-5.18 8.351,-6.18 8.977,-4.426 -0.156,-4.777 -9.5,-0.367 -15.207,7.172 -33.617,26.637 -38.781,41 -1.871,5.203 -1.965,7.27 -0.481,10.602 2.825,6.328 12.805,6.304 22.715,-0.055 7.125,-4.57 12.918,-13.535 11.485,-17.77 -0.727,-2.136 -4.024,-2.593 -7.188,-1 -1.875,0.946 -3.316,2.571 -4.734,5.321 -1.805,3.511 -2.61,4.238 -7.082,6.379 -6.817,3.261 -7.309,3.199 -6.715,-0.864 0.574,-3.922 2.015,-6.695 5.297,-10.199 3.777,-4.027 7.84,-5.637 14.375,-5.699 4.867,-0.043 5.836,0.176 7.566,1.695 2.496,2.199 2.649,6.328 0.438,11.828 -2.883,7.157 -12.524,15.395 -21.739,18.575 -5.09,1.757 -12.972,2.48 -17.949,1.648 z m 72.488,-26.723 c 8.282,-5.004 30.055,-22.609 30.055,-24.3 0,-0.727 -7.5,-4.235 -9.082,-4.25 -1.891,-0.012 -20.746,21.132 -23.789,26.679 -1.281,2.336 -1.625,3.852 -0.871,3.852 0.223,0 1.883,-0.891 3.687,-1.981 z m -21.062,-17.336 c 4.289,-2.078 9.984,-10.132 9.984,-14.113 0,-3.969 -3.394,-3.547 -10.554,1.313 -2.825,1.918 -9.622,10.246 -9.622,11.789 0,0.328 0.579,1.136 1.282,1.797 1.433,1.343 5.203,1.011 8.91,-0.786 z m 58.488,-17.41 c 0,-1.793 -0.347,-2.211 -2,-2.39 -1.137,-0.121 -2.808,0.402 -3.879,1.222 l -1.879,1.442 2.715,1.121 c 3.781,1.562 5.043,1.211 5.043,-1.395 z m 88.324,61.489 c -7.687,-3.106 -3.89,-14.707 8.09,-24.731 8.426,-7.047 19.887,-10.656 24.617,-7.754 3.235,1.985 3.805,3.738 2.434,7.5 -0.66,1.824 -1.016,3.602 -0.785,3.949 0.23,0.352 1.973,0.637 3.867,0.637 3.426,0 4.566,0.895 2.219,1.742 -0.676,0.242 -2.606,0.442 -4.289,0.442 -2.848,0 -3.59,0.5 -10.61,7.164 -9.043,8.586 -13.187,11.035 -19.379,11.441 -2.453,0.164 -5.226,-0.015 -6.164,-0.39 z m 17.485,-7.977 c 3.531,-1.688 9.445,-7.531 9.426,-9.316 -0.008,-0.836 -1.528,-1.977 -4.34,-3.254 l -4.321,-1.969 -1.789,1.809 c -0.98,0.992 -3.074,4.101 -4.648,6.91 -2.301,4.105 -2.68,5.312 -1.93,6.16 1.281,1.445 4.129,1.32 7.602,-0.34 z m 13.375,-13.574 c 0.558,-0.633 1.039,-2.676 1.062,-4.543 0.047,-3.293 -0.027,-3.399 -2.426,-3.617 -4.464,-0.407 -9.246,3.207 -7.582,5.73 0.786,1.191 5.223,3.578 6.661,3.578 0.695,0.004 1.722,-0.515 2.285,-1.148 z m 29.629,21.16 c -3.067,-2.082 -2.336,-5.207 2.965,-12.695 7.218,-10.196 9.144,-15.125 6.777,-17.348 -3.059,-2.863 -8.461,2.027 -18.332,16.598 -8.586,12.671 -7.676,11.879 -14.028,12.214 -3.867,0.204 -5.515,0.04 -5.515,-0.558 0,-0.465 4.64,-7.457 10.316,-15.531 5.672,-8.079 13.442,-19.239 17.266,-24.809 3.824,-5.566 8.211,-11.375 9.742,-12.906 2.649,-2.641 3.035,-2.781 7.57,-2.781 2.629,0 4.774,0.324 4.774,0.718 0,0.395 -2.094,4.024 -4.656,8.067 -2.559,4.039 -4.657,7.504 -4.657,7.691 0,0.191 -1.047,1.774 -2.328,3.52 -3.004,4.089 -3.074,5.656 -0.23,4.988 7.621,-1.793 12.301,0.285 12.156,5.398 -0.09,3.215 -2.031,7 -7.836,15.274 -3.437,4.898 -4.051,6.222 -3.293,7.082 1.34,1.512 6.414,0.656 11.391,-1.91 4.832,-2.496 5.968,-1.7 2.113,1.472 -6.156,5.063 -8.77,6.121 -15.852,6.422 -5.211,0.223 -6.964,0.031 -8.343,-0.906 z m 23.863,-0.024 c 0,-1.304 2.879,-6.046 9.699,-15.984 6.461,-9.414 6.68,-12.262 0.61,-7.926 -2.688,1.922 -3.864,1.934 -3.086,0.032 0.746,-1.821 11.074,-9.168 13.539,-9.629 2.675,-0.5 5.625,1.59 5.625,3.984 0,1.859 2.043,3.387 3.3,2.465 0.532,-0.391 1.844,-0.91 2.911,-1.149 1.546,-0.351 1.05,0.329 -2.438,3.348 -5.375,4.652 -6.621,6.371 -11.922,16.445 -2.304,4.387 -4.886,8.321 -5.73,8.747 -0.848,0.421 -4.008,0.769 -7.024,0.769 -4.379,0 -5.484,-0.219 -5.484,-1.102 z m 61.027,-0.406 c -1.328,-0.98 -2.215,-2.504 -2.531,-4.359 -0.269,-1.57 -0.668,-2.856 -0.891,-2.856 -0.222,0 -1.906,1.153 -3.742,2.563 -5.211,4 -9.219,5.398 -15.504,5.418 -4.75,0.015 -5.718,-0.211 -7.179,-1.668 -2.473,-2.465 -2.114,-4.356 2.082,-10.938 5.226,-8.207 6.32,-10.504 6.32,-13.261 0,-1.606 -0.535,-2.743 -1.629,-3.461 l -1.629,-1.067 1.578,-0.789 c 1.985,-0.996 9.063,-1.031 11.008,-0.054 1.914,0.957 2.699,5.05 1.578,8.234 -0.488,1.387 -2.836,5.527 -5.211,9.207 -3.894,6.02 -4.203,6.797 -3.129,7.805 1.016,0.953 1.754,0.988 4.942,0.25 6.265,-1.453 11.633,-4.961 14.265,-9.328 4.383,-7.278 13.149,-14.457 20.938,-17.145 3.969,-1.371 10.937,-1.605 13.254,-0.445 3.875,1.945 3.332,7.691 -1.153,12.234 -2.636,2.672 -10.988,6.594 -17.175,8.066 -4.278,1.02 -6.594,2.938 -6.594,5.461 0,2.844 1.805,3.602 6.019,2.528 4.075,-1.039 6.196,-2.262 12.84,-7.399 2.477,-1.918 4.832,-3.484 5.239,-3.484 1.746,0 0.437,2.031 -3.649,5.648 -8.918,7.899 -14.305,10.348 -22.769,10.348 -4.118,0 -5.668,-0.32 -7.278,-1.508 z m 20.535,-15.312 c 5.489,-2.739 11.567,-8.547 11.567,-11.051 0,-2.723 -1.82,-3.766 -4.66,-2.664 -3.629,1.41 -14.563,13.773 -13.543,15.316 0.711,1.082 1.789,0.821 6.636,-1.601 z m 171.079,16.136 c -0.25,-0.378 0.777,-2.488 2.281,-4.691 1.504,-2.203 2.734,-4.195 2.734,-4.426 0,-0.23 2.289,-3.726 5.09,-7.765 2.797,-4.039 4.902,-7.793 4.68,-8.34 -0.586,-1.43 -2.321,-1.227 -3.949,0.461 -1.403,1.453 -3.493,1.972 -3.493,0.867 0,-1.66 10.711,-9.457 13.778,-10.031 1.871,-0.352 2.597,-0.063 3.957,1.554 0.918,1.094 1.668,2.578 1.668,3.301 0,2.078 1.336,2.324 4.465,0.817 6.187,-2.981 8.929,-3.782 12.949,-3.782 3.867,0 4.332,0.192 6.453,2.672 l 2.289,2.672 2.25,-1.426 c 4.609,-2.922 6.777,-3.554 12.164,-3.554 4.945,0 5.555,0.168 6.953,1.914 2.258,2.812 1.266,6.613 -3.738,14.351 -5.863,9.067 -5.66,10.981 0.992,9.469 6.883,-1.566 10.82,-4.176 14.02,-9.293 3.562,-5.699 11.66,-12.859 17.753,-15.699 3.274,-1.524 6.032,-2.203 9.836,-2.422 4.692,-0.274 5.5,-0.117 7.18,1.359 2.984,2.629 2.637,6.879 -0.887,10.735 -2.984,3.265 -10.894,7.211 -17.789,8.871 -4.812,1.16 -5.59,1.715 -6.226,4.426 -0.578,2.46 0.617,4.281 2.808,4.281 2.868,0 9.746,-3.489 14.809,-7.512 4.894,-3.894 6.848,-4.894 6.848,-3.516 0,0.332 -2.579,2.946 -5.727,5.805 -7.637,6.938 -13.484,9.586 -21.184,9.586 -4.855,0 -5.871,-0.238 -7.953,-1.883 -1.597,-1.258 -2.386,-2.539 -2.386,-3.875 0,-1.097 -0.215,-2.199 -0.477,-2.441 -0.262,-0.246 -2.285,0.832 -4.5,2.398 -2.211,1.563 -5.301,3.344 -6.871,3.957 -3.348,1.313 -11.582,1.477 -14.008,0.282 -4.129,-2.036 -3.812,-4.454 1.731,-13.293 4.625,-7.372 6.539,-12.004 5.757,-13.918 -0.902,-2.196 -4.543,-1.09 -9.804,2.976 -4.7,3.629 -5.594,4.785 -9.43,12.176 -2.328,4.492 -4.34,9.312 -4.465,10.715 l -0.23,2.543 -5.637,0.215 c -4.688,0.175 -5.723,0.007 -6.137,-1 -0.672,-1.641 0.867,-5.395 4.731,-11.543 6.211,-9.887 7.914,-15.235 5.465,-17.141 -1.684,-1.305 -4.032,0.012 -10.375,5.828 -5.028,4.61 -6.426,6.762 -12.907,19.883 -0.761,1.539 -2.218,3.086 -3.25,3.457 -2.457,0.875 -11.64,0.859 -12.218,-0.023 z M 714.246,514.77 c 7.895,-3.446 14.375,-11.04 11.852,-13.891 -1.805,-2.035 -4.11,-1.129 -8.965,3.535 -4.645,4.461 -8.86,9.879 -8.86,11.387 0,1.152 1.594,0.875 5.973,-1.031 z m 11.875,15.312 c 0,-0.855 10.395,-17.496 13.645,-21.844 1.328,-1.777 1.445,-4.058 0.207,-4.058 -0.496,0 -2.043,0.82 -3.442,1.82 -2.91,2.078 -3.426,2.203 -3.426,0.84 0,-1.207 8.797,-8.262 12.204,-9.789 3.363,-1.504 6.113,-0.363 7.035,2.922 0.715,2.535 2.058,2.875 6.375,1.609 1.41,-0.414 0.449,0.801 -3.543,4.469 -4.762,4.379 -6.11,6.254 -10.289,14.328 -5.422,10.484 -5.707,10.703 -13.77,10.703 -3.722,0 -4.996,-0.254 -4.996,-1 z M 155.648,528.23 c -1.324,-1.242 -2.265,-2.898 -2.265,-3.984 0,-1.836 11.347,-21.414 14.355,-24.769 1.27,-1.414 2.578,-1.821 7.18,-2.223 3.961,-0.348 5.625,-0.25 5.625,0.324 0,0.453 -1.832,3.082 -4.074,5.848 -5.227,6.449 -8.297,11.871 -8.848,15.637 -0.5,3.421 0.93,5.183 3.57,4.398 2.122,-0.633 10.532,-9.465 16.274,-17.102 2.558,-3.398 5.105,-6.718 5.656,-7.379 1.184,-1.41 12.258,-2.609 12.258,-1.324 0,0.664 -2.621,4.008 -14.981,19.121 -6.164,7.536 -1.257,8.219 6.411,0.891 3.589,-3.434 4.691,-3.984 4.691,-2.348 0,1.567 -4.012,6.059 -7.762,8.696 -9.644,6.789 -15.41,8.105 -19.48,4.449 l -2.106,-1.887 -3.437,1.887 c -4.953,2.723 -10.008,2.629 -13.067,-0.235 z m 413.766,0.243 c -4.609,-3.637 -2.762,-9.176 5.957,-17.832 11.328,-11.25 20.867,-15.524 28.852,-12.914 1.851,0.605 2.73,0.605 3.375,0 0.929,-0.872 9.265,-1.145 10.132,-0.336 0.946,0.886 -4.375,8.48 -11.882,16.968 -4.868,5.5 -5.825,7.996 -3.063,7.996 0.891,0 3.606,-1.781 6.086,-3.996 4.563,-4.078 6.274,-4.867 6.274,-2.894 0,1.863 -6.286,7.664 -12.325,11.375 -4.836,2.969 -6.304,3.515 -9.449,3.515 -3.047,0 -4,-0.332 -5.25,-1.816 -0.84,-1 -1.898,-1.82 -2.351,-1.82 -0.454,0 -2.11,0.82 -3.684,1.82 -4.012,2.547 -9.387,2.52 -12.672,-0.066 z m 18.672,-7.379 c 3.941,-3.336 16.191,-18.137 16.191,-19.563 0,-1.73 -2.382,-2.015 -5.152,-0.621 -9.043,4.567 -20.195,18.602 -17.34,21.824 1.469,1.661 2.813,1.309 6.301,-1.64 z m 169.57,7.754 c -3.093,-2.282 -2.613,-4.578 2.68,-12.848 5.348,-8.352 6.477,-12.375 4.144,-14.789 -1.964,-2.031 -0.503,-2.82 5.239,-2.836 3.89,-0.008 4.605,0.223 6.09,1.988 2.504,2.977 1.656,6.328 -3.848,15.239 -3.703,5.996 -4.543,7.882 -3.852,8.664 0.489,0.55 1.457,0.996 2.149,0.988 1.937,-0.016 7.949,-2.109 10.812,-3.762 3.953,-2.285 4.047,-0.781 0.153,2.492 -5.246,4.414 -10.246,6.356 -16.387,6.364 -4.027,0.007 -5.574,-0.317 -7.18,-1.5 z M 222.184,442.281 c -2.911,-1.586 -4.602,-8.445 -2.84,-11.527 1.054,-1.848 10.371,-7.039 20.183,-11.242 20.036,-8.586 30.082,-14.063 43.071,-23.492 8.222,-5.969 18.238,-14.696 18.238,-15.887 0,-2.348 -2.895,-1.66 -14.945,3.555 -27.039,11.699 -44.965,17.234 -66.157,20.441 -35.804,5.414 -67.175,1.332 -94.961,-12.363 -28.035,-13.821 -50.257,-37.45 -63.515,-67.539 -4.817,-10.934 -6.961,-17.645 -9.633,-30.176 -3.652,-17.121 -3.898,-41.281 -0.586,-57.805 7.828,-39.031 29.789,-68.176 70.91,-94.109 26.461,-16.688 65.727,-33.805 98.563,-42.969 16.886,-4.715 20.386,-5.668 22.117,-6.023 1.066,-0.219 3.34,-0.754 5.047,-1.192 4.519,-1.156 27.992,-5.82 32.98,-6.555 42.016,-6.179 65.395,-6.679 99.727,-2.14 3.84,0.508 7.594,1.406 8.344,1.996 1.753,1.391 1.742,4.66 -0.028,6.16 -1.133,0.961 -11.336,4.309 -23.84,7.82 -1.281,0.36 -4.421,1.289 -6.984,2.067 -2.559,0.777 -8.848,2.621 -13.969,4.097 -28.926,8.344 -56.996,17.641 -74.422,24.657 -32.578,13.117 -69.957,34.476 -90.492,51.711 -21.726,18.226 -33.457,31.769 -37.586,43.371 -3.523,9.91 -3.679,28.761 -0.359,43.465 3.191,14.144 17.121,29.175 34.672,37.418 10.715,5.035 21.375,8.195 35.867,10.636 10.836,1.824 35.324,2.571 48.117,1.469 11.785,-1.02 23.293,-2.82 24.625,-3.855 0.543,-0.422 0.985,-2.118 0.988,-3.766 0,-3.356 1.903,-14.16 3.469,-19.723 4.778,-16.961 15.992,-36.035 28.883,-49.117 11.168,-11.336 31.094,-24.148 44.625,-28.695 6.93,-2.328 14.34,-4.512 18.09,-5.332 12.242,-2.676 29.726,-3.664 41.906,-2.364 2.988,0.321 5.84,0.442 6.336,0.274 0.5,-0.172 3.695,-5.274 7.105,-11.344 6.125,-10.902 9.723,-18.043 18.379,-36.48 26.614,-56.692 42.571,-83.965 55.985,-95.672 7.179,-6.27 15.656,-7.465 22.176,-3.133 4.675,3.105 12.734,17.148 17.691,30.82 0.797,2.2 2.379,6.289 3.516,9.09 1.136,2.801 2.343,6.07 2.683,7.27 0.34,1.199 1.699,5.289 3.02,9.09 1.32,3.796 2.722,7.886 3.117,9.089 0.394,1.2 2.34,7.086 4.324,13.086 3.785,11.43 5.348,16.367 6.625,20.903 0.422,1.5 1.117,3.957 1.551,5.453 0.43,1.5 1.789,6.711 3.023,11.582 2.391,9.449 2.774,10.414 4.149,10.414 1.097,0 18.523,-10.91 28.906,-18.098 19.188,-13.281 29.168,-23.207 48.691,-48.429 11.973,-15.465 12.133,-15.633 14.973,-15.633 0.922,0 2.305,0.652 3.078,1.453 0.774,0.801 1.664,1.453 1.981,1.453 0.316,0 3.086,-3.844 6.156,-8.543 24.371,-37.305 48.402,-57.254 78.008,-64.766 8.062,-2.047 25.32,-4.488 31.722,-4.488 4.512,0 6.692,1.375 6.692,4.223 0,1.996 -6.559,7.101 -20.723,16.121 -23.226,14.793 -28.867,19.43 -36,29.594 -3.918,5.578 -16.383,28.73 -20.484,38.039 -7.016,15.941 -10.86,24.929 -12.434,29.086 -2.453,6.48 -15.18,43.472 -18.637,54.168 -1.55,4.796 -3.617,11.175 -4.589,14.175 -0.977,3 -2.375,7.418 -3.11,9.817 -5.898,19.23 -13.113,40.297 -18.301,53.441 -7.839,19.86 -9.609,23.965 -18.261,42.289 -15.852,33.582 -31.895,59.043 -43.27,68.672 -14.426,12.211 -26.179,8.012 -37.769,-13.492 -7.325,-13.598 -10.985,-25.516 -18.207,-59.297 -1.024,-4.797 -3.504,-15.434 -5.508,-23.629 -2.004,-8.199 -3.934,-16.215 -4.285,-17.816 -0.352,-1.598 -1.797,-7.157 -3.211,-12.348 -1.907,-7 -2.907,-9.504 -3.864,-9.68 -1.394,-0.25 -15.265,8.157 -15.863,9.614 -0.195,0.484 1.203,3.64 3.117,7.011 4.778,8.43 8.836,19.907 11.426,32.305 1.43,6.844 1.449,33.875 0.027,40.356 -3.3,15.05 -6.316,23.519 -11.91,33.445 -14.504,25.742 -34.781,43.336 -62.722,54.437 -21.844,8.676 -49.727,11.149 -74.114,6.575 -19.484,-3.657 -40.746,-13.454 -55.699,-25.672 -3.762,-3.078 -6.351,-4.696 -6.965,-4.356 -0.535,0.293 -4.293,2.735 -8.347,5.418 -19.391,12.844 -36.946,20.379 -61.875,26.547 -23.731,5.871 -25.504,6.16 -28.414,4.574 z M 422.43,422.723 c 24.289,-3 45.761,-12.868 63.136,-29.024 29.852,-27.75 40.11,-67.398 27.008,-104.375 -2.527,-7.133 -8.562,-18.539 -9.808,-18.539 -0.625,0 -4.426,1.879 -8.45,4.18 -8.312,4.75 -8.011,3.953 -5.257,13.996 2.035,7.414 2.453,28.668 0.742,37.652 -1.949,10.223 -6.18,20.926 -11.914,30.145 -13.336,21.441 -36.684,37.351 -62.582,42.644 -9.395,1.922 -12.68,2.258 -21.961,2.258 -16.563,-0.004 -31.731,-3.426 -46.742,-10.551 -2.094,-0.996 -3.993,-1.808 -4.219,-1.808 -0.934,0 -6.625,5.332 -6.625,6.207 0,1.176 6.383,6.289 13.543,10.851 6.004,3.825 20.656,10.575 26.039,11.996 1.918,0.508 4.363,1.18 5.43,1.489 11.007,3.203 28.968,4.445 41.66,2.879 z M 204.602,391.125 c 12.937,-1.402 21.746,-2.871 28.328,-4.727 1.281,-0.359 4.422,-1.203 6.984,-1.871 2.563,-0.672 8.324,-2.515 12.805,-4.093 9.203,-3.25 38.043,-14.977 39.121,-15.914 0.418,-0.36 -0.141,-3.071 -1.371,-6.637 -2.649,-7.68 -4.461,-15.555 -5.067,-22.024 l -0.476,-5.089 -3.492,0.046 c -1.922,0.028 -6.286,0.446 -9.7,0.934 -16.156,2.297 -48.968,1.805 -65.968,-0.992 -29.426,-4.844 -54.215,-17.375 -68.286,-34.52 -3.339,-4.066 -8.562,-13.117 -9.867,-17.093 -3.355,-10.247 -4.89,-24.411 -4.289,-39.665 0.481,-12.214 1.684,-17.226 6.367,-26.5 6.145,-12.167 14.172,-21.445 32.559,-37.621 13.734,-12.086 15.285,-13.23 31.875,-23.597 35.445,-22.141 68.082,-36.836 113.609,-51.153 6.141,-1.929 11.5,-3.82 11.907,-4.203 1.523,-1.426 -29.176,1.992 -44.028,4.903 -18.425,3.613 -20.125,3.996 -37.25,8.449 -46.402,12.058 -91.914,32.543 -121.07,54.492 -14.223,10.707 -26.551,23.039 -34.008,34.016 -12.324,18.144 -19.14,41.371 -19.14,65.246 0,39.133 18.574,78.742 47.632,101.593 19.895,15.641 38.145,22.95 64.887,25.985 11.125,1.262 16.59,1.269 27.938,0.035 z m 201.39,-5.047 c 32.696,-5.476 59.024,-27.984 67.246,-57.488 1.559,-5.594 1.825,-8.289 1.825,-18.543 0,-12.434 -1.157,-20.121 -3.133,-20.832 -0.586,-0.211 -10.946,5.148 -23.024,11.91 -12.078,6.762 -25.679,14.336 -30.226,16.836 -8.051,4.426 -8.614,4.91 -21.434,18.492 -7.242,7.672 -19.488,20 -27.215,27.399 -7.722,7.398 -14.058,13.691 -14.07,13.98 -0.051,1.121 9.812,5.16 15.887,6.504 13.382,2.961 23.711,3.488 34.144,1.742 z m 191.953,-11.676 c 12.766,-12.781 30.278,-43.746 47.707,-84.351 5.891,-13.723 14.77,-37.207 18.414,-48.715 4.598,-14.496 6.032,-19.063 6.399,-20.356 0.226,-0.8 1.633,-5.218 3.121,-9.816 1.492,-4.601 4.508,-13.926 6.711,-20.723 2.199,-6.796 5.863,-17.597 8.141,-23.996 2.277,-6.398 5.183,-14.738 6.46,-18.539 6.731,-20.019 24.207,-57.187 34.754,-73.898 5.414,-8.578 5.375,-8.504 3.707,-7.641 -4.074,2.106 -17.816,17.106 -26.074,28.461 -18.555,25.524 -30.738,48.672 -44.969,85.434 -1.703,4.398 -3.796,9.797 -4.656,11.996 -3.031,7.765 -15.5,41.91 -18.055,49.441 -9.593,28.285 -17.812,49.52 -22.3,57.637 -4.129,7.461 -5.481,8.965 -9.973,11.098 -4.535,2.156 -6.832,2.246 -10.652,0.418 -8.078,-3.864 -10.938,-12.391 -16.485,-49.157 -0.843,-5.597 -1.73,-11.488 -1.972,-13.086 -1.969,-13.004 -3.739,-21.296 -4.746,-22.242 -0.36,-0.336 -5.973,2.852 -12.477,7.09 -9.613,6.27 -11.82,8.027 -11.82,9.434 0,0.949 0.832,4.75 1.847,8.449 3.625,13.176 11.196,44.062 14.036,57.254 2.445,11.367 3.589,16.551 4.265,19.265 0.395,1.602 1.289,5.364 1.988,8.364 0.696,3 1.551,6.269 1.891,7.269 0.344,1 1.063,3.293 1.598,5.09 4.011,13.527 13.48,30.539 16.996,30.539 0.789,0 3.554,-2.125 6.144,-4.719 z M 349.742,361.156 c 9.731,-8.781 30.047,-28.91 38.403,-38.051 15.543,-16.996 20.851,-22.957 30.73,-34.507 9.477,-11.078 16.098,-19.192 26.82,-32.852 1,-1.273 1.817,-2.625 1.817,-3.004 0,-1.785 -17.895,-13.004 -19.375,-12.148 -0.356,0.207 -2.653,3.566 -5.098,7.469 -21.375,34.054 -28.121,44.109 -50.805,75.703 -4.546,6.332 -19.578,25.156 -26.949,33.75 -4.387,5.113 -7.972,9.882 -7.972,10.601 0,1.375 0.636,2.278 1.613,2.278 0.32,0 5.187,-4.157 10.816,-9.239 z M 331.52,345.867 c 3.816,-1.758 5.265,-3.152 12.277,-11.816 10.156,-12.551 18.348,-23.598 18.348,-24.738 0,-1.055 -0.133,-1.024 -11.641,2.902 -9.477,3.23 -24.586,7.875 -32.063,9.855 -2.484,0.657 -4.726,1.711 -4.984,2.344 -0.711,1.727 0.93,8.063 3.699,14.297 2.239,5.031 2.817,5.73 6.074,7.32 1.981,0.965 3.684,1.774 3.782,1.789 0.097,0.02 2.125,-0.859 4.508,-1.953 z M 321.012,305.75 c 12.09,-3.441 30.832,-9.734 47.683,-16.016 l 10.875,-4.05 3.016,-4.27 c 3.793,-5.371 10.191,-15.07 14.926,-22.625 2.004,-3.199 4.461,-7.027 5.461,-8.5 2.82,-4.168 8.84,-14.512 8.84,-15.191 0,-2.633 -26.5,-3.461 -35.7,-1.114 -2.773,0.707 -5.918,1.454 -6.984,1.657 -4.445,0.843 -20.859,9.039 -26.387,13.172 -17.801,13.308 -29.019,31.675 -31.406,51.417 -0.289,2.399 -0.715,5.102 -0.941,6 -0.567,2.243 1.371,2.153 10.617,-0.48 z m 283.734,-16.199 c 2.274,-4.121 8.426,-20.485 18.402,-48.942 9.735,-27.769 18.985,-52.629 26.922,-72.343 3.559,-8.844 5.43,-13.93 5.43,-14.77 0,-0.398 -2.559,2.516 -5.684,6.477 -12.437,15.75 -29.961,31.855 -52.91,48.613 -4.269,3.117 -8.058,6.148 -8.422,6.738 -0.382,0.614 -0.3,2.352 0.192,4.09 1.965,6.934 4.683,22.41 7.433,42.281 1.239,8.953 1.879,12.633 3.883,22.266 1.84,8.836 2.52,9.633 4.75,5.59 z M 455.984,279.469 c 6.227,-3.621 17.954,-10.539 26.063,-15.367 8.109,-4.832 17.891,-10.649 21.73,-12.926 12.911,-7.653 22.489,-13.731 25.223,-15.996 l 2.715,-2.254 -5.024,2.301 c -2.765,1.265 -12.894,6.402 -22.507,11.418 -9.614,5.019 -24.508,12.324 -33.094,16.238 -13.91,6.336 -15.949,7.496 -18.652,10.597 -4.016,4.61 -9.583,11.684 -9.583,12.18 0,1.133 2.836,-0.203 13.129,-6.191 z m 16.239,-34.188 c 2.629,-1.234 4.781,-2.484 4.781,-2.785 0,-1.496 -10.891,-8.41 -20.059,-12.734 -6.34,-2.992 -19.269,-7.157 -25.73,-8.289 -8.027,-1.407 -11.004,-1.657 -10.488,-0.875 0.269,0.41 1,0.746 1.621,0.746 0.621,0 1.734,0.316 2.476,0.707 0.739,0.39 3.602,1.566 6.356,2.617 10.433,3.973 21.769,10.852 30.316,18.398 2.766,2.442 5.238,4.442 5.488,4.446 0.254,0.004 2.61,-1 5.239,-2.231 z m 25.183,-12.39 c 1.797,-0.844 5.188,-2.59 7.535,-3.879 2.348,-1.289 7.668,-4.078 11.821,-6.203 4.152,-2.121 7.726,-4.383 7.941,-5.028 0.219,-0.64 -0.676,-5.09 -1.984,-9.89 -1.309,-4.797 -2.707,-10.196 -3.102,-11.996 -0.398,-1.801 -1.031,-4.254 -1.402,-5.454 -3.074,-9.839 -4.457,-13.414 -5.125,-13.234 -0.426,0.113 -3.164,4.609 -6.082,9.992 -2.922,5.383 -9.145,16.656 -13.832,25.051 l -8.524,15.262 4.129,3.437 c 2.274,1.887 4.407,3.446 4.746,3.457 0.336,0.012 2.082,-0.668 3.879,-1.515 z m -22.547,-21.008 c 2.047,-3.395 8.821,-15.578 15.055,-27.074 11.316,-20.864 15.078,-26.309 19.734,-28.567 4.743,-2.297 11.247,-0.379 14.571,4.293 1.652,2.328 6.246,13.606 7.301,17.938 0.242,0.984 1.371,5.062 2.511,9.058 2.024,7.09 2.356,8.348 4.242,16.098 1.637,6.742 1.672,6.746 10.918,1.66 4.473,-2.465 10.055,-5.684 12.403,-7.156 4.578,-2.875 4.758,-3.371 3.164,-8.781 -0.414,-1.403 -2.563,-9.418 -4.778,-17.817 -2.214,-8.394 -4.968,-18.047 -6.117,-21.449 -1.152,-3.398 -3.058,-9.125 -4.242,-12.723 -12.918,-39.406 -23.328,-64.347 -26.848,-64.347 -5.546,0 -30.695,40.718 -45.804,74.164 -8.93,19.765 -18.856,39.988 -25.254,51.453 -2.738,4.906 -4.977,9.336 -4.977,9.847 0,0.508 3.055,2.004 6.789,3.317 3.735,1.316 8.711,3.336 11.059,4.492 2.348,1.152 4.785,2.02 5.414,1.93 0.629,-0.09 2.816,-2.942 4.859,-6.336 z"
       style="fill:#0c0c0c;fill-opacity:1;fill-rule:nonzero;stroke:none"
       transform="scale(1.3333333)" />
  </g>
</svg>
