<?xml version="1.0" encoding="UTF-8" standalone="no"?>
<!-- Created with Inkscape (http://www.inkscape.org/) -->

<svg
   version="1.1"
   id="svg1"
   width="1122.5197"
   height="793.70074"
   viewBox="0 0 1122.5197 793.70074"
   xmlns="http://www.w3.org/2000/svg"
   xmlns:svg="http://www.w3.org/2000/svg">
  <defs
     id="defs1" />
  <g
     id="g1">
    <path
       id="path1"
       d="m 123.879,326.172 c -1.082,-1.809 -1.156,-2.824 -0.547,-7.313 0.828,-6.101 2.156,-12.468 6.387,-30.668 7.906,-33.984 11.363,-47.5 12.98,-50.722 0.86,-1.715 2.043,-1.883 3.149,-0.453 1.539,1.988 0.906,7.613 -2.977,26.464 -3.793,18.411 -4.965,25.059 -4.543,25.75 0.649,1.067 11.289,-1.39 22.613,-5.222 7.774,-2.629 9.723,-3.633 10.555,-5.43 1.149,-2.48 2.723,-8.547 5.613,-21.648 1.594,-7.211 3.184,-13.785 3.539,-14.61 1.274,-2.968 3.079,-3.211 5.239,-0.707 2.078,2.407 1.961,4.453 -0.985,16.981 -2.3,9.808 -3.433,15.793 -3.867,20.441 -0.402,4.285 -0.398,4.278 -2.015,7.711 -1.723,3.656 -2.782,8.109 -4.598,19.289 -2.395,14.735 -3.352,17.973 -5.652,19.094 -1.426,0.695 -2.684,-0.043 -3.325,-1.961 -0.679,-2.027 -0.324,-9.559 0.848,-17.844 0.516,-3.668 0.965,-8.133 0.996,-9.918 l 0.055,-3.246 -1.242,0.094 c -4.332,0.34 -27.489,8.355 -30.469,10.551 -1.871,1.375 -2.528,2.941 -4.828,11.519 -2.032,7.578 -3.219,10.774 -4.532,12.192 -1.019,1.105 -1.578,1.023 -2.394,-0.344 z m 441.656,0.402 c -1.879,-1.5 -3.109,-5.265 -3.566,-10.894 -0.606,-7.41 -3.805,-14.125 -9.403,-19.735 -4.574,-4.582 -9.5,-6.968 -12.699,-6.148 -3.621,0.926 -6.488,2.937 -7.726,5.422 -1.317,2.64 -1.61,4.492 -2.129,13.351 -0.649,11.055 -1.684,15.164 -4.176,16.582 -0.871,0.496 -1.07,0.496 -1.938,0.004 -3.183,-1.812 -2.492,-11.023 3.137,-41.656 4.465,-24.305 7.172,-36.695 8.59,-39.316 0.652,-1.207 0.988,-1.461 2.031,-1.551 0.973,-0.086 1.442,0.101 2.125,0.844 0.84,0.91 0.875,1.14 0.848,5.515 -0.027,5.219 -0.711,9.641 -3.133,20.285 -0.883,3.883 -1.879,8.633 -2.215,10.559 -0.957,5.484 -0.07,5.562 5.125,0.465 5.496,-5.391 13.227,-15.129 19.102,-24.055 1.34,-2.039 3.797,-6.48 5.457,-9.871 2.898,-5.918 3.058,-6.164 4.152,-6.273 1.028,-0.102 1.258,0.078 2.461,1.921 2.844,4.352 1.781,6.747 -10.984,24.809 -5.278,7.465 -8.16,12.098 -8.621,13.856 -0.164,0.636 0.281,1.285 2.234,3.246 5.645,5.675 10.223,12.425 13.059,19.257 2.668,6.418 3.484,10.094 3.519,15.84 0.039,5.449 -0.34,6.742 -2.262,7.75 -1.378,0.727 -1.863,0.692 -2.988,-0.207 z m 141.547,-0.254 c -3.402,-1.195 -7.496,-4.035 -8.875,-6.152 -1.215,-1.867 -1.762,-5.105 -0.961,-5.734 1.012,-0.797 2.777,-0.489 5.887,1.031 3.472,1.691 6.926,2.285 11.051,1.898 3.539,-0.332 5.175,-0.918 7.707,-2.758 2.652,-1.921 4.757,-4.156 7.605,-8.058 4.664,-6.395 7.199,-11.922 7.215,-15.727 0.004,-1.785 -0.137,-2.23 -1.063,-3.3 -1.5,-1.739 -3.39,-2.383 -8.128,-2.786 -11.438,-0.964 -14.129,-1.574 -16.957,-3.855 -4.317,-3.473 -5.051,-11.227 -1.739,-18.301 4.809,-10.265 16.192,-22.18 24.371,-25.508 6.387,-2.601 13.235,-2.699 15.817,-0.23 0.472,0.449 1.105,1.687 1.41,2.75 1.18,4.125 -0.102,4.965 -6.977,4.578 -4.097,-0.23 -4.73,-0.18 -6.859,0.539 -3.52,1.191 -7.391,3.953 -11.59,8.262 -4.398,4.519 -6.98,7.91 -8.734,11.48 -1.172,2.379 -1.262,2.793 -1.133,5.114 0.246,4.437 0.121,4.386 14.137,5.824 7.336,0.754 9.336,1.457 11.507,4.039 4.063,4.82 5.379,10.527 3.707,16.031 -2.457,8.098 -11.171,20.285 -18.394,25.731 -6.539,4.925 -13.922,6.917 -19.004,5.132 z m -363.375,-1.941 c -0.973,-0.777 -0.98,-0.824 -0.777,-3.879 0.265,-4.051 1.761,-12.785 5.25,-30.687 3.781,-19.422 5.894,-32.278 6.347,-38.618 0.434,-6.097 0.926,-9.222 1.633,-10.343 0.281,-0.446 1.164,-1.149 1.965,-1.563 1.148,-0.594 1.648,-0.676 2.391,-0.394 0.515,0.199 3.652,0.445 6.968,0.55 8.223,0.258 17.614,1.551 21.61,2.985 5.625,2.011 8.871,12.574 6.226,20.277 -1.922,5.606 -8.867,13.5 -16.39,18.625 -2.5,1.703 -4.172,3.078 -4.172,3.434 0,0.328 1.023,1.437 2.273,2.468 1.254,1.032 3.231,2.914 4.403,4.184 5.425,5.898 13.011,20.02 13.449,25.043 0.164,1.855 0.074,2.187 -1.012,3.836 -1.383,2.09 -3.508,3.461 -4.441,2.863 -0.328,-0.211 -2.371,-3.945 -4.535,-8.297 -5.086,-10.218 -7.297,-13.816 -10.817,-17.597 -3.414,-3.661 -5.797,-4.797 -11.203,-5.328 -3.758,-0.372 -5.148,-0.95 -5.148,-2.149 0,-2.168 2.742,-4.848 10.289,-10.07 8.929,-6.176 14.293,-11.199 17.703,-16.571 4.051,-6.386 3.086,-11.492 -2.489,-13.175 -4.21,-1.27 -12.816,-0.993 -16.187,0.523 -1.285,0.578 -1.676,1.012 -2.383,2.633 -1.914,4.402 -3.633,11.523 -9.074,37.586 -6.793,32.555 -8.215,36.59 -11.879,33.664 z m 63.035,-0.066 c -2.199,-2.379 -2.945,-7.512 -2.019,-13.903 1.535,-10.621 5.785,-23.203 12.621,-37.371 10.426,-21.613 19.508,-31.898 28.742,-32.551 2.027,-0.144 2.543,-0.039 4.258,0.875 4.758,2.528 7.836,11.559 7.289,21.395 -1.172,21.109 -8.649,57.035 -12.856,61.758 -0.769,0.867 -1.976,0.82 -2.804,-0.11 -0.512,-0.574 -0.707,-1.437 -0.801,-3.554 -0.109,-2.489 0.152,-3.954 2.391,-13.219 2.863,-11.879 4.71,-20.676 4.441,-21.121 -0.289,-0.477 -4,-0.36 -7.313,0.226 -1.652,0.293 -5.148,1.192 -7.765,1.992 -5.93,1.821 -9.903,2.551 -12.449,2.282 -1.883,-0.196 -1.989,-0.164 -2.747,0.918 -1.804,2.578 -4.011,11.41 -5.199,20.816 -1.324,10.457 -3.25,14.313 -5.789,11.567 z m 28.672,-46.411 c 9.336,-1.265 12.473,-2.203 13.691,-4.097 1.739,-2.696 2.415,-14.77 1.083,-19.313 -0.848,-2.887 -3.04,-5.441 -4.661,-5.437 -4.554,0.015 -15.082,12.918 -20.16,24.707 -1.304,3.027 -1.574,3.972 -1.254,4.367 0.598,0.73 4.875,0.644 11.301,-0.227 z m 202.473,46.477 c -0.973,-0.777 -0.981,-0.824 -0.778,-3.879 0.266,-4.035 1.754,-12.746 5.215,-30.535 4.305,-22.129 6.117,-33.41 6.571,-40.914 0.265,-4.371 0.738,-7.055 1.453,-8.199 0.812,-1.305 3.222,-2.387 4.347,-1.957 0.516,0.199 3.649,0.445 6.969,0.55 8.223,0.254 17.613,1.551 21.609,2.985 5.625,2.011 8.872,12.574 6.227,20.277 -1.922,5.606 -8.871,13.5 -16.391,18.625 -2.5,1.703 -4.171,3.078 -4.171,3.434 0,0.328 1.023,1.437 2.273,2.468 1.254,1.032 3.23,2.914 4.402,4.184 5.426,5.898 13.012,20.02 13.45,25.043 0.164,1.855 0.074,2.187 -1.012,3.832 -1.383,2.094 -3.508,3.465 -4.442,2.867 -0.328,-0.211 -2.367,-3.945 -4.531,-8.305 -6.957,-14.019 -11.613,-20.058 -16.969,-22.015 -0.828,-0.305 -3.105,-0.711 -5.054,-0.902 -3.758,-0.372 -5.149,-0.95 -5.149,-2.149 0,-2.168 2.703,-4.809 10.391,-10.156 9.031,-6.278 14.191,-11.113 17.601,-16.485 4.032,-6.355 3.082,-11.492 -2.425,-13.156 -4.227,-1.277 -12.891,-1.008 -16.25,0.504 -1.282,0.578 -1.676,1.012 -2.375,2.617 -1.95,4.485 -3.539,11.067 -9.078,37.602 -4.887,23.402 -7.04,31.707 -8.688,33.515 -1.043,1.141 -1.902,1.18 -3.195,0.149 z m -442.778,0.016 c -1.796,-0.52 -3.296,-2.024 -3.836,-3.856 -0.625,-2.117 0.075,-6.211 3.79,-22.25 1.652,-7.141 4.296,-18.582 5.871,-25.426 4.238,-18.418 6.621,-26.218 8.949,-29.324 0.629,-0.836 1.422,-1.574 1.769,-1.641 0.375,-0.074 1.403,0.625 2.582,1.758 l 1.954,1.879 2.546,-0.183 c 1.5,-0.11 5.106,-0.926 8.758,-1.989 8.504,-2.472 9.883,-2.738 14.387,-2.765 3.168,-0.02 4.098,0.097 4.871,0.613 1.316,0.875 1.602,2.238 0.715,3.453 -1.363,1.867 -2.707,2.406 -18.199,7.277 -6.766,2.129 -11,4.262 -13.481,6.797 -1.609,1.649 -2.312,2.782 -3.664,5.93 -3.101,7.227 -5.668,16.195 -5.082,17.754 0.434,1.144 1.875,0.699 17.969,-5.543 4.664,-1.809 9.355,-3.059 10.312,-2.75 0.403,0.129 0.899,0.605 1.098,1.055 1.113,2.484 -3.438,6 -16.734,12.925 -13.145,6.852 -15.184,8.235 -16.532,11.239 -0.789,1.757 -1.984,7.746 -2.457,12.297 -0.195,1.906 -0.125,2.3 0.575,3.207 0.785,1.011 0.843,1.027 3.484,0.816 4.344,-0.348 9.711,-2.48 15.637,-6.211 7.527,-4.738 12.422,-5.824 12.422,-2.746 0,2.32 -3.528,6.035 -8.692,9.152 -9.879,5.961 -23.754,10.043 -29.012,8.532 z m 390.641,-0.129 c -0.766,-0.278 -1.875,-0.996 -2.473,-1.602 -0.949,-0.965 -1.093,-1.391 -1.214,-3.551 -0.184,-3.281 0.167,-5.035 6.328,-31.742 5.769,-25.016 6.961,-29.883 8.586,-35.074 1.886,-6.031 4.226,-10.461 5.523,-10.461 0.297,0 1.41,0.836 2.469,1.852 l 1.929,1.855 2.719,-0.211 c 1.68,-0.129 5.028,-0.891 8.754,-1.996 12.965,-3.844 19.969,-3.879 20.34,-0.098 0.238,2.457 -2.035,3.59 -15.281,7.625 -7.801,2.379 -13.977,5.125 -16.442,7.313 -0.793,0.703 -1.945,2.242 -2.562,3.422 -2.52,4.8 -5.996,14.91 -6.649,19.32 -0.207,1.402 -0.144,1.711 0.375,1.914 0.871,0.34 4.977,-0.949 12.235,-3.844 6.605,-2.633 10.375,-3.945 13.402,-4.672 1.621,-0.39 1.984,-0.375 2.75,0.137 3.199,2.133 -1.578,6.094 -17.266,14.317 -15.433,8.089 -15.378,8.031 -17,17.582 -0.921,5.437 -0.921,8.031 0.012,8.886 0.594,0.547 1.121,0.621 3.281,0.453 4.309,-0.332 9.715,-2.527 16.543,-6.726 5.571,-3.422 9.782,-4.789 10.981,-3.57 1.226,1.246 -0.051,4.156 -2.961,6.75 -5.336,4.757 -18.25,10.628 -26.656,12.117 -3.743,0.664 -5.899,0.664 -7.723,0.004 z m -498.5,-2.004 c -1.066,-1.082 -1.078,-1.137 -0.832,-3.696 0.426,-4.425 2.242,-15.043 4.797,-28.031 4.082,-20.762 5.074,-26.972 5.117,-32.105 0.035,-4.317 0.008,-4.512 -0.707,-4.617 -0.426,-0.059 -3.227,1.289 -6.562,3.16 -9.731,5.465 -13.403,6.636 -14.903,4.754 -3.019,-3.789 4.68,-9.883 19.547,-15.477 10.551,-3.965 21,-6.211 28.957,-6.215 5.555,0 8.102,0.918 9.805,3.543 1.351,2.086 0.398,3.895 -2.516,4.766 -0.711,0.215 -5.121,0.531 -9.808,0.711 -8.586,0.324 -10.215,0.48 -11.95,1.144 -1.894,0.723 -2.359,2.629 -9.695,39.614 -4.164,20.98 -5.703,27.769 -6.941,30.617 -1.391,3.195 -2.504,3.668 -4.309,1.832 z m 211.98,-0.012 c -3.507,-1.781 -5.671,-5.082 -8.074,-12.332 -2.636,-7.953 -2.418,-15.262 0.774,-25.551 4.152,-13.398 13.039,-28.867 20.863,-36.304 3.926,-3.735 11.109,-8.391 12.945,-8.391 0.938,0 3.61,1.855 5.098,3.539 2.074,2.348 3.922,6.383 3.926,8.57 0,2.465 -0.711,3.91 -2,4.059 -1.375,0.164 -2.231,-0.731 -2.883,-3.024 -1.52,-5.3 -5.656,-4.433 -12.262,2.582 -7.586,8.051 -14.23,19.032 -17.344,28.661 -3.8,11.769 -3.683,24.765 0.258,28.597 1.852,1.801 6.051,1.965 10.391,0.41 2.086,-0.75 6.23,-3.082 9.898,-5.574 3.711,-2.519 7.293,-4.527 8.653,-4.851 1.48,-0.348 2.703,0.898 2.703,2.761 0,4.024 -5.348,9.121 -13.899,13.25 -4.562,2.203 -7.316,3.145 -11.754,4.024 -4.519,0.89 -4.722,0.879 -7.293,-0.426 z m 178.258,0.168 c -3.898,-2.074 -5.961,-5.125 -8.383,-12.41 -1.441,-4.34 -1.5,-4.699 -1.648,-9.914 -0.137,-4.906 -0.062,-5.817 0.809,-9.739 2.3,-10.375 7.054,-21.21 13.847,-31.566 5.18,-7.894 9.36,-12.187 15.961,-16.402 4.051,-2.586 5.344,-2.996 6.977,-2.207 1.832,0.883 4.679,4.043 6.207,6.886 1.148,2.137 1.359,2.864 1.359,4.707 0.004,2.739 -0.769,4.133 -2.301,4.133 -1.222,0 -1.761,-0.718 -2.652,-3.519 -1.387,-4.375 -4.863,-4.008 -10.301,1.086 -5.156,4.828 -11.871,14.207 -15.605,21.797 -2.059,4.187 -4.371,10.8 -5.336,15.265 -0.902,4.172 -1.125,14.348 -0.379,17.317 0.711,2.832 1.934,4.812 3.488,5.648 1.364,0.73 5.258,0.797 7.719,0.125 2.254,-0.613 6.516,-2.852 10.75,-5.652 5.203,-3.446 6.746,-4.34 8.59,-4.977 1.961,-0.676 2.765,-0.363 3.332,1.289 2.027,5.91 -12.293,16.086 -26.043,18.508 -4.172,0.738 -4.316,0.73 -6.391,-0.375 z M 25.574,271.773 c -3.32,-3.613 -2.719,-12.578 1.516,-22.539 0.59,-1.39 1.699,-3.535 2.465,-4.769 2.41,-3.883 4.39,-4.961 5.972,-3.258 1.215,1.305 0.797,3.359 -1.734,8.516 -1.199,2.453 -2.184,4.734 -2.184,5.066 0,0.332 0.344,1.246 0.762,2.031 3.215,6.02 3.344,6.688 1.914,9.809 -0.472,1.039 -1.797,2.863 -2.941,4.059 -1.821,1.906 -2.242,2.171 -3.426,2.171 -1.039,0 -1.574,-0.246 -2.344,-1.086 z m 21.258,0.329 c -1.242,-1.262 -2.199,-3.946 -2.367,-6.637 -0.555,-8.754 6.301,-25.07 10.531,-25.07 1.371,0 2.164,1.14 2.164,3.113 0,1.137 -0.527,2.551 -2.133,5.726 -2.625,5.2 -2.672,5.891 -0.621,9.356 1.375,2.316 1.512,2.762 1.512,4.941 0,2.278 -0.09,2.528 -1.742,4.985 -2.727,4.054 -5.535,5.425 -7.344,3.586 z m 718.324,-0.5 c -2.875,-3.329 -2.824,-9.918 0.149,-18.594 1.508,-4.399 2.57,-6.633 4.5,-9.442 2.269,-3.3 4.261,-4.109 5.476,-2.226 1.028,1.598 0.696,3.203 -1.629,7.871 -1.414,2.84 -2.164,4.781 -2.164,5.59 0.004,0.816 0.52,2.109 1.512,3.781 1.375,2.309 1.508,2.75 1.508,4.941 0,2.29 -0.082,2.532 -1.738,4.993 -2.989,4.445 -5.543,5.48 -7.614,3.086 z m 20.961,-0.024 c -1.976,-2.437 -2.562,-6.254 -1.722,-11.183 1.199,-7.024 4.457,-14.856 7.523,-18.102 1.992,-2.109 3.137,-2.414 4.273,-1.141 1.254,1.411 0.899,3.297 -1.546,8.157 -1.305,2.597 -2.215,4.859 -2.215,5.519 0,0.664 0.578,2.09 1.425,3.524 2.583,4.347 2.59,6.054 0.047,10.05 -2.875,4.524 -5.742,5.692 -7.785,3.176 z"
       style="fill:#0a0a0a;fill-opacity:1;fill-rule:nonzero;stroke:none"
       transform="scale(1.3333333)" />
  </g>
</svg>
