<?xml version="1.0" encoding="UTF-8" standalone="no"?>
<!-- Created with Inkscape (http://www.inkscape.org/) -->

<svg
   version="1.1"
   id="svg1"
   width="1122.5197"
   height="793.70074"
   viewBox="0 0 1122.5197 793.70074"
   xmlns="http://www.w3.org/2000/svg"
   xmlns:svg="http://www.w3.org/2000/svg">
  <defs
     id="defs1" />
  <g
     id="g1">
    <path
       id="path1"
       d="m 434.137,36.699 v 0.004 c -5.215,-0.078 -11.192,0.485 -18.469,1.731 -9.148,1.566 -13.672,3.285 -17.82,6.773 -1.743,1.461 -4.957,1.551 -5.887,0.168 -0.391,-0.582 -0.398,-0.937 -0.055,-2.375 0.223,-0.934 0.668,-2.129 0.992,-2.664 0.567,-0.938 0.567,-0.996 0.024,-1.586 -0.828,-0.895 -3.02,-1.199 -10.266,-1.426 -5.586,-0.176 -6.722,-0.133 -8.308,0.317 -3.899,1.109 -6.059,3.5 -6.352,7.039 -0.137,1.722 -0.055,2.125 0.738,3.55 1.059,1.895 2.434,3.051 6.254,5.231 4.024,2.293 5.117,3.199 5.477,4.531 0.617,2.262 1.058,8.27 1.75,23.817 0.863,19.414 1.398,25.668 2.265,26.601 0.653,0.703 0.872,0.684 3.172,-0.226 2.375,-0.946 2.422,-0.942 3.371,-0.016 0.891,0.871 1.032,2.469 0.329,3.793 -0.25,0.473 -1.289,1.301 -2.379,1.906 -2.895,1.59 -3.719,2.34 -4.137,3.766 -0.438,1.492 -0.535,12.394 -0.141,15.699 0.215,1.793 0.121,2.789 -0.586,6.121 -1.636,7.723 -1.64,17.727 -0.011,24.328 0.968,3.914 0.968,4.149 0.023,5.719 -1,1.668 -1.355,3.793 -1.746,10.441 -0.625,10.61 -1.004,15.649 -1.27,16.864 -0.359,1.586 -1.335,2.347 -6.382,4.965 -2.219,1.152 -4.657,2.656 -5.418,3.343 -1.321,1.188 -1.391,1.328 -1.391,2.953 0,2.465 1.098,5.664 2.363,6.899 l 1.036,1.012 3.25,-0.004 c 3.921,0 9.558,-0.469 13.015,-1.082 3.906,-0.688 4.098,-0.657 5.086,0.902 0.473,0.742 1.113,1.801 1.418,2.352 l 0.57,1 24.094,-0.211 c 30.469,-0.262 36.305,-0.559 41.078,-2.09 4.078,-1.301 5.481,-3.457 5.481,-8.399 0,-2.027 -0.117,-2.652 -0.614,-3.273 -0.339,-0.418 -2.91,-1.922 -5.714,-3.336 -2.805,-1.418 -5.618,-3.059 -6.25,-3.648 -1.477,-1.383 -1.743,-2.692 -2.321,-11.52 -0.246,-3.699 -0.59,-7.102 -0.769,-7.559 -0.18,-0.457 -0.895,-1.183 -1.59,-1.609 -0.809,-0.5 -1.332,-1.082 -1.453,-1.621 -0.371,-1.668 -0.914,-2.672 -2.215,-4.102 -1.824,-2.004 -1.938,-2.515 -0.852,-3.843 2.278,-2.805 2.606,-3.395 3.043,-5.504 0.258,-1.2 1.11,-3.559 1.903,-5.246 1.496,-3.188 1.843,-5.204 1.011,-5.879 -0.25,-0.2 -1.39,-0.325 -2.75,-0.285 -2.511,0.066 -3.433,-0.247 -4.234,-1.438 -0.648,-0.965 -0.324,-2.465 0.668,-3.102 0.633,-0.406 1.012,-0.421 2.547,-0.109 1.598,0.324 1.844,0.305 2.191,-0.156 0.438,-0.586 0.192,-1.453 -1.258,-4.453 -0.449,-0.926 -0.812,-1.914 -0.816,-2.188 -0.004,-0.273 0.488,-0.863 1.094,-1.316 1.722,-1.285 1.754,-2.582 0.101,-4.356 -1.254,-1.347 -1.031,-5.918 0.422,-8.566 1.328,-2.418 1.539,-4.945 1.832,-21.91 0.336,-19.383 1.348,-41.153 2.09,-44.922 0.098,-0.504 0.484,-1.246 0.852,-1.641 0.652,-0.695 4.105,-2.773 8.433,-5.074 3.262,-1.734 3.922,-2.402 4.336,-4.351 0.656,-3.063 -0.316,-5.899 -2.554,-7.485 -3.567,-2.519 -10.997,-3.785 -16.719,-2.848 -1.727,0.282 -3.039,0.258 -6.602,-0.117 -1.586,-0.168 -3.242,-0.265 -4.98,-0.293 z m -223.125,8.828 c -0.551,0.004 -1.082,0.016 -1.586,0.039 -4.922,0.192 -7.227,0.672 -10.196,2.129 -3.25,1.59 -4.894,4.157 -5.269,8.2 -0.383,4.168 1.07,5.843 8.141,9.355 9.523,4.738 10.246,5.555 13.933,15.84 2.399,6.699 3.141,8.008 5.012,8.816 1.59,0.684 4.391,3.117 5.07,4.399 0.289,0.554 0.625,3.074 0.93,7.031 0.262,3.394 0.66,6.613 0.894,7.148 0.25,0.59 0.774,1.102 1.317,1.301 0.5,0.176 1.558,0.551 2.355,0.828 1.785,0.621 2.606,1.434 2.325,2.301 -0.114,0.348 -0.973,1.547 -1.911,2.668 -2.246,2.672 -2.422,3.363 -2.101,8.242 0.148,2.223 0.144,4.528 -0.008,5.211 -0.875,3.953 -0.758,8.633 0.387,15.024 1.984,11.109 2.617,14.859 3.617,21.472 1.039,6.864 1.906,11.094 3.113,15.18 1.125,3.809 1.395,14.152 0.488,18.809 -0.375,1.933 -1.578,4.523 -2.718,5.855 -0.481,0.559 -2.285,2.152 -4.016,3.535 -4.094,3.278 -4.719,4.289 -4.684,7.528 0.047,4.101 1.672,7.421 4.825,9.875 1.703,1.324 1.789,1.351 3.472,1.171 2.86,-0.304 7.715,-1.351 9.254,-1.992 0.797,-0.332 2.114,-1.109 2.93,-1.719 1.312,-0.98 1.641,-1.085 2.871,-0.953 0.773,0.082 2.094,-0.054 2.984,-0.308 5.188,-1.473 16.957,-9.739 25.024,-17.574 4.422,-4.293 6.172,-6.415 8.164,-9.895 0.75,-1.313 1.91,-3.02 2.574,-3.805 0.664,-0.789 2.078,-3.14 3.149,-5.234 1.679,-3.293 1.953,-4.07 2.054,-5.856 0.141,-2.429 -0.32,-3.203 -2.297,-3.863 -1.992,-0.664 -2.336,-1.367 -2.554,-5.234 -0.106,-1.852 -0.055,-3.856 0.109,-4.449 0.285,-1.039 0.34,-1.071 1.68,-0.981 1.824,0.117 4.117,-0.43 6.367,-1.531 2.797,-1.36 3.215,-2.625 4.156,-12.516 0.637,-6.691 0.539,-8.144 -0.672,-9.816 -2.117,-2.922 -2.332,-3.57 -2.332,-6.914 0,-7.524 -1.633,-21.016 -3.336,-27.582 -0.261,-1.012 -0.89,-2.676 -1.394,-3.692 -0.508,-1.027 -1.051,-2.543 -1.215,-3.375 -0.805,-4.132 -7.535,-16.722 -12.133,-22.679 -2.394,-3.11 -4.562,-4.891 -7.074,-5.832 -2,-0.746 -2.102,-0.84 -2.984,-2.645 -0.504,-1.027 -1.512,-2.492 -2.235,-3.25 l -1.32,-1.383 -4.539,0.223 c -5.227,0.254 -5.106,0.289 -7.996,-2.336 -1.489,-1.352 -2.282,-1.836 -3.223,-1.988 -0.691,-0.106 -1.996,-0.653 -2.898,-1.219 -1.676,-1.043 -5.286,-2.844 -8.399,-4.184 -1.859,-0.8 -2.113,-1.132 -3.035,-4.043 -0.371,-1.16 -0.863,-2.011 -1.367,-2.359 -2.031,-1.41 -15.41,-3.035 -23.699,-2.973 z m 358.812,2.016 c -1.914,0.027 -3.152,0.137 -3.738,0.332 -2.871,0.969 -5.07,5.434 -4.5,9.145 0.262,1.707 1.394,2.984 5.555,6.273 4.859,3.844 5.07,4.457 3.902,11.414 -1.016,6.07 -1.047,7.871 -0.145,8.664 1.133,1.004 0.7,3.512 -1.523,8.734 -1.035,2.434 -1.988,4.77 -2.117,5.192 -0.133,0.422 -0.785,2.035 -1.457,3.586 -0.672,1.555 -1.223,3.086 -1.223,3.41 0,0.32 0.5,1.215 1.106,1.996 1.972,2.524 1.836,3.324 -1.493,8.711 -3.003,4.867 -4.64,10.234 -8.054,26.457 -2.067,9.789 -2.867,14.063 -2.867,15.25 0,0.453 0.394,1.121 0.984,1.656 0.883,0.805 0.965,1.028 0.824,2.258 -0.176,1.504 -1.961,5.418 -3.203,7.004 -1.023,1.309 -1.602,2.965 -1.844,5.27 -0.109,1.011 -0.57,2.875 -1.027,4.14 -0.649,1.785 -0.856,3.004 -0.938,5.481 -0.097,2.925 -0.195,3.367 -1.218,5.382 -0.61,1.207 -1.246,2.907 -1.418,3.774 -0.418,2.16 -2.325,7.078 -3.875,10.012 -1.008,1.906 -1.575,2.605 -2.668,3.277 -1.528,0.949 -5.532,2.434 -8.942,3.328 -1.656,0.434 -2.496,0.859 -3.449,1.754 -1.305,1.219 -2.75,3.789 -2.746,4.859 0.008,1.223 1.266,3.289 3.07,5.055 3.887,3.793 8.766,6.004 15.348,6.953 l 3.355,0.477 2.696,-0.785 c 3.273,-0.957 6.242,-1.516 7.273,-1.379 0.699,0.097 0.778,0.277 0.918,2.097 0.203,2.543 0.578,2.75 4.891,2.762 4.191,0 6.449,0.434 9.027,1.723 1.176,0.59 3.723,1.472 5.66,1.968 1.938,0.497 4.719,1.329 6.184,1.848 2.894,1.031 6.672,1.977 10.367,2.594 2.938,0.488 6.086,0.547 7.59,0.14 2.312,-0.625 4.234,-3.777 6.062,-9.937 1.036,-3.496 1.329,-5.84 0.805,-6.457 -0.672,-0.785 -2.016,-0.523 -4.121,0.809 -3.363,2.125 -5.707,2.734 -6.156,1.597 -0.297,-0.758 0.906,-1.554 3.476,-2.297 3.711,-1.07 3.68,-1.039 3.45,-4.207 -0.223,-3.066 0.304,-5.976 1.785,-9.859 1.894,-4.973 3.496,-7.809 5.918,-10.508 1.914,-2.129 2.343,-3.355 4.14,-11.82 1.801,-8.469 2.692,-12.063 3.746,-15.078 1.125,-3.223 1.911,-6.289 2.993,-11.66 0.461,-2.278 1.519,-6.762 2.359,-9.969 0.836,-3.203 1.891,-8.028 2.348,-10.715 0.457,-2.691 1.101,-5.649 1.433,-6.57 0.649,-1.809 2.289,-11.579 2.324,-13.84 l 0.02,-1.379 -1.965,-1.012 c -1.418,-0.734 -1.961,-1.191 -1.961,-1.637 0,-0.777 2.098,-3.941 4.86,-7.316 3.707,-4.539 4.238,-6.133 8,-23.965 1.23,-5.844 2.582,-11.976 3.003,-13.629 0.758,-3 0.758,-3.011 0.165,-4.324 -0.665,-1.469 -2.555,-2.828 -5,-3.602 -3.172,-1.007 -16.344,-3.039 -22.196,-3.421 -2.496,-0.164 -3.535,-0.098 -4.953,0.304 -1.953,0.555 -2.246,0.489 -4.219,-0.976 -0.832,-0.61 -1.238,-0.715 -2.199,-0.551 -3.648,0.613 -3.301,0.695 -4.93,-1.168 -0.82,-0.934 -1.753,-1.781 -2.074,-1.883 -0.32,-0.097 -1.148,0.102 -1.844,0.453 -1.796,0.891 -2.238,0.805 -3.812,-0.781 l -1.402,-1.418 -2.512,0.152 c -1.383,0.082 -2.695,0.082 -2.914,0 -0.223,-0.078 -0.602,-0.605 -0.84,-1.171 -0.887,-2.059 -4.191,-2.887 -11.953,-2.977 -0.789,-0.008 -1.504,-0.008 -2.141,0 z m -390.523,4.703 c -1.274,0.016 -2.649,0.117 -3.446,0.258 -2.714,0.504 -7.933,2.086 -9.707,2.949 -2.082,1.012 -3.23,1.274 -8.062,1.824 -4.953,0.563 -6.211,1.039 -8.34,3.184 -0.855,0.863 -1.711,1.574 -1.891,1.574 -0.183,0 -1.085,-0.558 -2.003,-1.23 -1.993,-1.461 -2.094,-1.469 -7.989,-0.477 -2.453,0.414 -6.375,0.895 -8.703,1.078 -9.39,0.739 -11.519,1.203 -16.808,3.688 -3.86,1.812 -5.852,3.273 -6.942,5.086 -0.758,1.261 -0.82,1.609 -0.687,3.808 0.297,4.989 1.882,6.461 9.64,8.907 6.836,2.152 6.657,2.023 7.653,5.703 0.449,1.664 1.121,4.543 1.492,6.398 1.879,9.442 2.355,10.672 4.664,12.063 3.441,2.062 4.195,4.078 4.273,11.398 0.055,5.106 0.102,5.477 0.961,7.664 1.332,3.383 1.301,6.227 -0.086,8.742 -0.84,1.524 -1.015,2.18 -1.015,3.797 -0.004,2.391 1.218,7.84 2.687,12.016 0.602,1.699 1.242,4.152 1.426,5.449 0.219,1.527 0.973,3.961 2.168,6.953 2.41,6.055 2.781,7.985 3.152,16.504 0.461,10.699 1.45,17.484 3.489,23.973 1.199,3.824 2.281,5.976 4.336,8.625 2.062,2.656 2.175,3.136 1.14,4.855 -1.992,3.324 -5.742,7.289 -10.062,10.645 -3.414,2.656 -4.411,4.086 -4.411,6.347 0,1.348 0.231,2.207 1.024,3.774 1.211,2.402 1.859,2.871 5.23,3.785 1.399,0.379 3.172,0.703 3.954,0.719 5.527,0.125 22.57,-2.985 28.296,-5.164 1.192,-0.453 2.993,-0.746 5.95,-0.961 4.734,-0.344 8.011,-0.844 20.062,-3.059 12.938,-2.379 16.352,-3.289 17.852,-4.75 0.652,-0.641 0.726,-0.996 0.726,-3.469 0,-4.828 -1.531,-14.492 -3.648,-23.031 -0.61,-2.449 -1.656,-6.766 -2.332,-9.601 -1.36,-5.7 -2.106,-7.653 -3.121,-8.184 -1.41,-0.734 -2.516,1.215 -3.457,6.094 -0.793,4.093 -1.09,4.941 -1.731,4.941 -0.351,0 -0.476,-0.332 -0.476,-1.273 0,-2.555 1.289,-13.332 1.781,-14.903 0.34,-1.082 0.441,-2.132 0.312,-3.187 -0.187,-1.539 -0.16,-1.598 1.055,-2.684 0.688,-0.613 1.25,-1.398 1.25,-1.742 0,-0.727 -1.277,-1.984 -2.75,-2.707 -1.527,-0.754 -1.629,-1.734 -0.414,-4.066 0.941,-1.809 1,-2.094 0.812,-4.016 -0.66,-6.789 -2.085,-14.555 -3.304,-18.02 -0.344,-0.972 -1.129,-4.75 -1.742,-8.394 -1.473,-8.734 -2.207,-11.981 -3.313,-14.695 -0.84,-2.067 -0.91,-2.543 -0.875,-5.832 0.067,-5.282 -1.351,-11.059 -3.387,-13.809 -1.668,-2.254 -1.8,-2.742 -1.148,-4.164 0.824,-1.781 0.68,-3.949 -0.625,-9.371 -0.633,-2.617 -1.648,-7.586 -2.266,-11.043 -2.902,-16.336 -3.789,-19.746 -5.668,-21.742 -1.011,-1.082 -1.089,-1.106 -3.765,-1.211 -0.375,-0.016 -0.785,-0.02 -1.211,-0.012 z m 477.726,12.867 v 0.008 c -1.148,0.024 -2.074,0.172 -2.613,0.442 -1.312,0.664 -3.277,3.218 -4.07,5.285 -0.371,0.968 -0.828,2.89 -1.02,4.277 -0.511,3.723 -0.285,4.211 3.918,8.402 2.68,2.668 3.992,4.266 5.375,6.559 l 1.832,3.039 -1.394,9.527 -1.395,9.516 2.297,2.309 c 1.266,1.273 2.52,2.82 2.785,3.441 0.594,1.387 0.637,4.023 0.074,4.48 -0.226,0.18 -1.746,0.368 -3.378,0.415 l -2.965,0.093 -2.828,5.563 c -1.555,3.058 -3.352,6.179 -3.993,6.937 -1.629,1.91 -3.769,3.164 -7.804,4.551 -4.121,1.418 -5.192,1.918 -6.375,2.996 -1.785,1.61 -3.02,5.231 -3.032,8.863 l -0.003,1.934 1.808,1.746 c 0.996,0.965 2.899,2.742 4.227,3.957 3.414,3.11 4.105,4.531 4.269,8.766 0.156,3.914 0.012,4.984 -2.625,19.547 -2.328,12.859 -2.332,12.867 -5.027,20.894 -1.113,3.309 -2.027,6.535 -2.027,7.164 0,0.832 0.257,1.43 0.945,2.192 1.203,1.339 1.207,2.379 0.015,3.464 -1.109,1.012 -2.648,1.458 -6.496,1.864 -3.367,0.351 -7.914,1.57 -9.726,2.605 -2.77,1.578 -4.492,4.184 -5.16,7.813 -0.61,3.301 0.101,5.566 2.41,7.711 2.429,2.254 6.09,3.574 12.269,4.418 3.938,0.539 5.461,0.906 7.035,1.691 1.063,0.527 5.938,1.629 8.446,1.91 h 0.004 c 2.742,0.301 3.476,0.207 5.258,-0.703 2.914,-1.488 15.339,-3.809 22.5,-4.207 l 3.097,-0.176 1.512,1.602 c 1.367,1.453 1.574,1.574 2.207,1.242 0.641,-0.34 0.68,-0.52 0.508,-2.34 -0.157,-1.601 -0.102,-2.004 0.285,-2.148 0.262,-0.098 2.101,0.144 4.09,0.539 l 3.609,0.726 1.637,-0.832 c 0.898,-0.465 3.683,-2.41 6.191,-4.332 4.168,-3.195 4.719,-3.738 6.52,-6.402 3.347,-4.965 7.441,-13.934 8.906,-19.523 0.906,-3.465 1.27,-9.747 0.898,-15.516 -0.535,-8.238 -1.851,-12.664 -4.511,-15.152 -1.074,-1.012 -1.223,-1.051 -3.563,-1.075 l -2.441,-0.027 -1.649,-3.066 c -0.906,-1.684 -1.941,-3.454 -2.3,-3.926 -0.879,-1.168 -2.168,-3.91 -2.172,-4.633 -0.008,-1.844 -5.367,-7.328 -8.024,-8.215 -2.027,-0.68 -4.222,-2.769 -3.722,-3.547 0.277,-0.429 1.066,-0.578 4.234,-0.777 6.813,-0.43 12.551,-1.774 17.523,-4.098 2.805,-1.312 5.063,-3.234 5.063,-4.304 0,-0.477 0.414,-1.122 1.105,-1.731 3.231,-2.84 3.543,-3.23 4.25,-5.32 1.145,-3.399 2.137,-5.008 4.297,-6.973 2.364,-2.16 3.375,-3.582 4.203,-5.941 1.145,-3.246 0.559,-10.262 -0.961,-11.461 -0.363,-0.289 -1.472,-0.75 -2.46,-1.024 -2.77,-0.777 -3.207,-1.152 -3.207,-2.75 0,-3.832 1.14,-5.636 3.98,-6.281 0.895,-0.203 1.883,-0.551 2.199,-0.777 0.555,-0.403 0.555,-0.457 -0.054,-1.582 -0.344,-0.641 -2.856,-3.399 -5.583,-6.137 -4.863,-4.875 -5.878,-6.254 -5.886,-7.984 -0.004,-0.852 -0.996,-3.051 -2.211,-4.895 -0.352,-0.535 -0.781,-1.844 -0.957,-2.91 -0.36,-2.16 -0.863,-2.895 -2.188,-3.176 -0.492,-0.109 -2.07,-0.89 -3.5,-1.742 -1.433,-0.844 -3.293,-1.949 -4.129,-2.441 -2.336,-1.372 -5.015,-2.344 -9.25,-3.36 -2.121,-0.508 -4.879,-1.336 -6.125,-1.844 -3.711,-1.515 -3.847,-1.535 -9.218,-1.312 l -5.071,0.203 -1.375,-1.223 c -1.8,-1.613 -2.91,-2.14 -5.332,-2.523 -1.437,-0.23 -2.812,-0.328 -3.961,-0.301 z M 180.391,82.605 c 0.234,-0.023 0.464,0.079 0.855,0.293 1.133,0.622 1.219,1.356 0.34,2.868 -1.082,1.855 -1.031,4.464 0.125,6.39 l 0.871,1.442 -0.797,1.84 c -0.976,2.273 -0.976,2.425 0.012,4.835 0.789,1.93 3,11.336 3.082,13.122 0.039,0.785 -0.082,0.933 -0.797,1.015 -0.965,0.11 -1.508,-0.597 -1.523,-1.984 -0.012,-0.84 -0.481,-2.266 -1.805,-5.469 -0.348,-0.844 -0.785,-2.742 -0.973,-4.219 -0.23,-1.843 -0.656,-3.375 -1.363,-4.906 -1.012,-2.176 -1.035,-2.305 -1.004,-6.359 0.039,-4.868 0.66,-7.344 2.109,-8.399 0.403,-0.297 0.637,-0.445 0.868,-0.469 z m 255.968,10.102 c 0.407,0.023 0.86,0.281 1.278,0.797 0.711,0.883 0.836,1.965 0.328,2.891 -0.754,1.378 -2.817,-0.079 -2.817,-1.989 0,-1.117 0.536,-1.734 1.211,-1.699 z m -46.218,4.957 c 0.718,0.133 0.82,0.711 0.23,1.285 -0.578,0.563 -0.969,0.629 -1.242,0.196 -0.305,-0.477 0.457,-1.59 1.012,-1.481 z m 184.808,27.246 c 0.481,-0.008 0.977,0.102 1.125,0.34 0.125,0.195 -0.035,0.543 -0.355,0.77 -1.09,0.773 -2.18,0.332 -1.801,-0.735 0.09,-0.242 0.551,-0.371 1.031,-0.375 z m -2.066,8.637 c 0.82,0.117 0.988,0.945 0.328,1.59 -0.645,0.629 -1.684,0.636 -1.926,0.019 -0.254,-0.644 0.813,-1.718 1.598,-1.609 z m -8.047,10.676 c 1.109,0.004 4.109,1.504 4.668,2.328 0.402,0.597 0.324,0.785 -0.906,2.25 -2.649,3.144 -3.09,3.816 -3.282,5.004 -0.238,1.445 -1.429,2.914 -2.832,3.488 -1.398,0.57 -3.441,0.543 -3.671,-0.043 -0.114,-0.281 0.371,-1.07 1.242,-2.027 1.734,-1.903 2.074,-2.703 1.812,-4.289 -0.242,-1.473 0.617,-4.84 1.516,-5.954 0.383,-0.48 0.93,-0.761 1.453,-0.757 z m -121.207,10.113 c 0.785,0 1.09,0.535 0.617,1.086 -0.207,0.246 -0.484,0.449 -0.617,0.449 -0.422,0 -1,-0.887 -0.793,-1.211 0.109,-0.18 0.469,-0.324 0.793,-0.324 z m 215.832,46 c 0.707,0 2.508,1.98 2.508,2.754 0,0.324 -0.317,0.801 -0.699,1.062 -0.993,0.676 -3.461,0.629 -4.122,-0.082 -0.285,-0.308 -0.519,-0.722 -0.519,-0.918 0,-0.597 2.23,-2.816 2.832,-2.816 z m -16.902,12.598 c 1.004,-0.055 1.351,0.336 0.906,1.148 -0.426,0.77 -3.524,3.027 -5.152,3.75 -1.567,0.691 -3,0.766 -3.239,0.164 -0.511,-1.305 1.797,-3.379 4.992,-4.476 1.047,-0.356 1.891,-0.555 2.493,-0.586 z m -227.676,17.023 c -16.363,-0.016 -23.074,0.555 -32.278,2.762 -26.515,6.355 -51.121,20.777 -69.007,40.449 -14.672,16.141 -24.887,34.945 -30.18,55.566 -2.98,11.618 -3.625,18.188 -3.367,34.36 0.242,15.043 0.785,20.121 3.105,29.062 9.77,37.594 35.489,69.004 70.535,86.133 13.508,6.602 31.032,11.77 43.278,12.77 1.734,0.14 9.582,0.207 17.445,0.152 18.047,-0.133 23,-0.566 31.887,-2.773 20.609,-5.125 40.808,-15.434 56.269,-28.715 7.821,-6.719 16.164,-15.801 21.879,-23.821 7.141,-10.015 13.739,-22.734 17.496,-33.73 3.641,-10.649 5.34,-20.887 5.977,-36.008 1.058,-25.246 -2.84,-43.465 -13.832,-64.629 -20.445,-39.363 -58.18,-65.621 -102.086,-71.047 -3.367,-0.418 -6.891,-0.527 -17.121,-0.531 z M 412,233.809 c 7.043,-0.051 14.23,0.289 20.629,1.046 14.734,1.743 32.945,7.911 46.695,15.809 19.684,11.305 38.121,29.953 48.774,49.316 7.254,13.192 12.011,27.86 13.996,43.172 3.695,28.524 -2.395,58.825 -16.383,81.512 -12.305,19.957 -31.891,37.996 -52.914,48.723 -8.012,4.09 -22.848,9.054 -33.094,11.078 -4.254,0.84 -10.633,1.519 -18.601,1.988 -8.266,0.477 -17.09,0.348 -22.395,-0.328 -25.019,-3.203 -44.164,-10.465 -62.387,-23.668 -25.98,-18.828 -42.922,-44.387 -49.617,-74.871 -2.012,-9.164 -2.785,-16.723 -2.793,-27.324 -0.008,-14.985 1.903,-26.981 6.457,-40.571 7.727,-23.05 22.27,-43.371 42.106,-58.828 15.492,-12.074 35.078,-20.953 55.047,-24.945 6.605,-1.324 15.421,-2.043 24.48,-2.109 z m -3.387,7.664 c -0.218,-0.012 -0.468,-0.012 -0.75,0 -1.871,0.066 -5.16,0.488 -10.57,1.328 -11.625,1.804 -12.297,2.054 -11.941,4.449 0.777,5.203 5.566,24.078 6.324,24.891 0.656,0.711 2.23,0.742 3,0.062 0.719,-0.633 0.75,-2.426 0.105,-5.73 -0.879,-4.469 -0.551,-6.172 1.321,-6.891 0.484,-0.187 2.734,-0.465 5.007,-0.621 4.516,-0.301 6.028,-0.781 7.133,-2.262 0.524,-0.699 0.567,-0.965 0.262,-1.617 -0.656,-1.41 -1.5,-1.539 -6.266,-0.965 -2.375,0.278 -5.199,0.508 -6.273,0.508 -1.684,-0.004 -2.02,-0.102 -2.402,-0.695 -0.653,-1 -0.997,-5.305 -0.458,-5.637 0.231,-0.137 3.528,-0.699 7.329,-1.242 8.312,-1.188 9.195,-1.41 9.597,-2.434 0.442,-1.14 0.364,-2.445 -0.179,-2.887 -0.196,-0.152 -0.582,-0.238 -1.239,-0.257 z m 25.653,1.726 c -0.18,0.004 -0.305,0.028 -0.371,0.067 -0.192,0.117 -0.551,0.964 -0.793,1.875 -1.164,4.386 -3.918,21.437 -3.922,24.281 0,1.289 0.093,1.5 0.804,1.762 1.262,0.468 2.594,0.351 3.246,-0.286 0.375,-0.363 0.922,-1.937 1.458,-4.214 1.574,-6.661 2.324,-7.25 6.484,-5.114 3.316,1.696 3.965,2.766 6.418,10.524 0.789,2.488 1.644,4.625 1.945,4.851 0.32,0.231 1.164,0.356 2.106,0.305 1.429,-0.082 1.578,-0.164 1.668,-0.902 0.05,-0.446 -0.336,-2.848 -0.868,-5.344 -1.464,-6.938 -1.418,-7.129 2.184,-8.809 0.945,-0.445 2.266,-1.246 2.918,-1.773 1.43,-1.16 3.047,-3.789 3.051,-4.969 0.008,-2.094 -3.098,-5.863 -6,-7.289 -3.235,-1.598 -17.668,-5.062 -20.328,-4.965 z m -58.985,3.887 c -0.754,0.012 -1.492,0.207 -1.945,0.559 -0.793,0.609 -0.383,2.988 1.5,8.726 2.84,8.656 3.879,12.469 3.648,13.375 -0.289,1.117 -2.187,2.82 -4.254,3.805 -1.285,0.617 -2.359,0.875 -3.996,0.953 -4.265,0.215 -5.082,-0.617 -9.82,-9.918 -1.719,-3.375 -3.641,-6.719 -4.273,-7.434 -0.989,-1.121 -1.325,-1.308 -2.383,-1.308 -1.649,0 -2.488,0.828 -2.488,2.449 0,1.25 0.418,2.113 5.902,12.27 2.301,4.265 3.512,5.71 6.766,8.089 1.367,1.004 1.71,1.11 3.484,1.11 3.918,0 9.219,-1.817 12.324,-4.227 3.207,-2.488 4.211,-6.422 3.109,-12.156 -0.675,-3.516 -3.394,-12.316 -4.402,-14.262 -0.594,-1.144 -1.035,-1.578 -1.855,-1.847 -0.407,-0.133 -0.864,-0.192 -1.317,-0.184 z m 294.746,0.055 c -1.773,0.039 -3.14,0.582 -4.105,1.617 -0.574,0.621 -0.578,0.664 -0.027,1.258 1.187,1.281 6.078,0.367 6.597,-1.227 0.356,-1.098 -0.531,-1.691 -2.465,-1.648 z m -230.433,2.144 c 0.379,0 0.875,0.004 1.535,0.02 4.141,0.082 9.621,1.824 11.691,3.715 1.399,1.281 1.203,2.578 -0.664,4.402 -1.851,1.805 -2.379,1.848 -7.367,0.578 -6.793,-1.719 -7.629,-2.312 -7.363,-5.18 0.094,-1 0.367,-2.211 0.605,-2.695 0.324,-0.648 0.422,-0.816 1.563,-0.832 z m 30.398,4.852 c -1.058,0.07 -1.691,0.859 -2.48,2.793 -0.481,1.187 -2.532,5.597 -4.547,9.793 -5.012,10.425 -5.668,12.449 -4.492,13.882 0.558,0.684 1.754,0.415 2.816,-0.625 0.57,-0.558 2.117,-2.937 3.445,-5.289 3.008,-5.336 8.329,-15.851 8.801,-17.394 0.324,-1.047 0.285,-1.223 -0.383,-1.922 -0.406,-0.418 -1.277,-0.906 -1.941,-1.082 -0.469,-0.125 -0.867,-0.176 -1.219,-0.156 z m 12.668,5.836 c -1.457,-0.016 -2.875,1.597 -5.117,5.48 -1.09,1.883 -3.461,5.77 -5.266,8.637 -4.828,7.656 -5.832,10.035 -4.707,11.133 0.852,0.828 2.2,0.418 3.735,-1.137 1.578,-1.594 4.515,-5.727 6.23,-8.766 1.281,-2.265 1.848,-2.918 2.551,-2.918 0.301,0 0.656,0.243 0.785,0.536 0.133,0.296 0.348,4.679 0.477,9.738 0.238,9.238 0.523,11.933 1.406,13.246 0.68,1.008 2.203,0.933 3.941,-0.199 2.727,-1.774 13.489,-13.032 16.379,-17.129 1.063,-1.508 1.008,-2.406 -0.222,-3.614 -1.539,-1.5 -1.926,-1.253 -8.622,5.395 -3.394,3.375 -6.394,6.133 -6.671,6.133 -1.301,0 -1.36,-0.516 -1.383,-11.926 -0.024,-12.227 -0.106,-12.816 -2.012,-14.066 -0.527,-0.348 -1.016,-0.532 -1.504,-0.543 z m -148.293,7.777 c -0.82,0.043 -1.461,0.461 -2.14,1.188 -1.395,1.484 -1.379,2.242 0.16,8.132 2.394,9.172 6.562,20.758 7.804,21.711 0.946,0.723 2.36,0.797 2.914,0.145 0.512,-0.602 0.286,-3.094 -0.632,-6.965 -0.86,-3.633 -0.727,-3.984 2.355,-6.281 3.777,-2.821 5.652,-3.043 10.055,-1.2 2.195,0.918 4.39,1.043 5.234,0.293 0.317,-0.277 0.574,-0.671 0.574,-0.878 0,-1.161 -9.765,-8.114 -14.062,-10.02 -1.16,-0.512 -3.641,-1.891 -5.512,-3.066 -3.492,-2.192 -5.379,-3.137 -6.75,-3.059 z m 4.012,7.336 c 0.351,0.027 0.785,0.117 1.32,0.269 1.574,0.458 5.196,2.7 5.719,3.54 0.41,0.668 -0.109,1.285 -2.234,2.613 -2.254,1.41 -3.274,1.578 -4.133,0.672 -0.754,-0.785 -1.543,-3.051 -1.817,-5.219 -0.175,-1.383 0.098,-1.945 1.145,-1.875 z m 71.5,7.168 c -3.75,-0.012 -7.211,0.07 -9.231,0.25 -13.8,1.25 -28.179,6.883 -40.558,15.883 -6.902,5.019 -14.996,13.695 -19.824,21.242 -4.719,7.375 -9.821,20.172 -10.664,26.75 -0.516,4.019 -0.414,26.168 0.136,29.68 0.473,2.996 2.348,8.839 4.367,13.582 10.278,24.14 31.02,41.57 56.821,47.75 3.32,0.793 6.918,1.32 11.394,1.652 3.649,0.277 19.614,-0.109 22.86,-0.551 4.011,-0.547 10.742,-2.226 14.957,-3.738 4.551,-1.629 13.261,-5.926 17.191,-8.481 18.207,-11.828 31.027,-30.089 35.016,-49.886 1.594,-7.907 1.511,-24.059 -0.168,-32.067 -3.84,-18.328 -15.184,-35.273 -31.422,-46.945 -9.852,-7.078 -23.133,-12.559 -34.973,-14.434 -2.578,-0.406 -9.644,-0.668 -15.898,-0.687 z m -90.785,3.488 c -0.656,0.016 -1.356,0.11 -2.074,0.289 -4.512,1.129 -8.11,3.942 -10.293,8.067 -1.383,2.613 -2.582,6.078 -2.582,7.484 0,2.027 1.945,5.129 3.933,6.262 3.113,1.781 7.152,0.344 12.539,-4.481 3.539,-3.164 5.485,-4.277 7.481,-4.277 1.679,0 2.593,0.598 3.074,2.012 0.652,1.929 -0.078,4.09 -2.121,6.3 -1.738,1.883 -3.5,2.743 -6.289,3.079 -2.809,0.339 -3.707,0.707 -4.586,1.859 -0.528,0.703 -0.571,0.961 -0.27,1.613 0.199,0.426 0.824,1.059 1.391,1.406 0.859,0.532 1.406,0.614 3.391,0.516 5.046,-0.25 9.054,-3.285 12.023,-9.098 1.227,-2.398 1.32,-2.757 1.316,-5.058 -0.004,-2.735 -0.433,-3.867 -2.152,-5.649 -1.539,-1.601 -3.207,-2.32 -5.383,-2.324 -2.465,-0.004 -4.328,0.852 -8.797,4.063 -5.695,4.097 -8.886,5.265 -10.035,3.664 -0.269,-0.375 -0.488,-1.039 -0.488,-1.481 0,-2.156 3.988,-7.578 6.062,-8.238 0.551,-0.172 2.141,-0.441 3.532,-0.594 2.964,-0.316 4.453,-0.968 4.734,-2.07 0.516,-2 -1.559,-3.402 -4.406,-3.344 z m 190.097,1.121 c -2.402,-0.105 -4.8,0.66 -7.285,2.266 -2.769,1.801 -6.613,5.488 -7.195,6.91 -0.695,1.684 -1.195,7.969 -0.82,10.227 0.32,1.914 1.234,3.656 3.316,6.312 1.656,2.117 5.258,5.453 7.434,6.883 1,0.656 2.035,1.09 2.617,1.09 1.144,0 5.652,-2.149 7.937,-3.789 2.18,-1.559 2.289,-2.153 0.856,-4.653 -2.508,-4.379 -5.723,-8.425 -6.692,-8.425 -0.238,0 -0.859,0.418 -1.382,0.925 -1.137,1.11 -1.075,1.579 0.558,4.297 1.528,2.547 1.813,3.606 1.211,4.5 -0.719,1.071 -3.019,0.985 -4.902,-0.179 -3,-1.856 -5.848,-6.262 -6.149,-9.508 -0.668,-7.184 7.864,-13.344 14.27,-10.297 2.433,1.16 5.07,3.785 6.344,6.32 1.406,2.789 1.488,3.887 0.531,6.965 -0.875,2.801 -0.824,3.129 0.699,4.719 1.098,1.152 1.703,1.062 3.008,-0.426 1.625,-1.852 2.195,-3.797 2,-6.828 -0.289,-4.426 -2.602,-8.66 -6.891,-12.598 -3.285,-3.015 -6.375,-4.578 -9.465,-4.711 z m -98.074,0.539 c 12.211,0 23.262,2.703 35.379,8.637 7.961,3.899 14.047,8.172 20.242,14.219 9.477,9.246 15.375,19.64 18.992,33.445 1.766,6.774 2.309,11.559 2.114,18.848 -0.297,11 -2.547,19.765 -7.715,30.062 -1.902,3.785 -7.02,11.754 -8.613,13.422 -0.368,0.383 -0.828,0.688 -1.032,0.688 -1.043,0 -3.32,-3.789 -14.281,-23.766 -4.742,-8.644 -7.937,-13.91 -9.476,-15.617 l -1.274,-1.414 3.192,-9.813 c 4.898,-15.058 5.351,-17.179 5.355,-25.129 0.008,-6.105 0.504,-11.129 1.453,-14.668 1.512,-5.617 1.504,-5.562 0.84,-6.461 -0.328,-0.441 -1.367,-1.183 -2.309,-1.64 -1.746,-0.844 -5.593,-1.637 -6.007,-1.231 -0.125,0.125 -0.95,2.227 -1.832,4.676 -2.137,5.934 -4.516,10.688 -7.672,15.328 -4.461,6.559 -5.137,8.145 -10.442,24.532 -1.992,6.156 -4,11.886 -4.457,12.73 -0.871,1.602 -1.988,2.18 -2.363,1.227 -0.402,-1.024 -0.809,-7.743 -1.141,-18.86 -0.488,-16.25 -0.722,-18.281 -2.703,-23.328 -1.433,-3.644 -2.246,-7.871 -2.746,-14.219 -0.234,-2.98 -0.555,-5.539 -0.711,-5.695 -0.375,-0.367 -7.586,0.168 -8.117,0.598 -0.258,0.207 -0.484,1.547 -0.625,3.625 -0.488,7.386 -1.621,13.644 -3.539,19.547 -1.918,5.914 -1.988,6.621 -2.25,22.847 -0.227,14.207 -0.375,16.254 -1.176,16.254 -0.457,0 -2.449,-5.246 -6.39,-16.82 -4.821,-14.149 -6.305,-17.785 -8.129,-19.922 -3.239,-3.789 -6.172,-9.086 -9.157,-16.535 -2.019,-5.043 -2.722,-5.774 -5.261,-5.481 -3.203,0.367 -5.43,1.754 -5.43,3.387 0,0.363 0.352,1.965 0.785,3.559 1.074,3.961 1.727,9.671 1.727,15.097 0,8.321 0.558,11.293 4.422,23.614 2.285,7.281 3.425,11.527 3.429,12.734 0,0.394 -0.621,1.715 -1.379,2.937 -0.761,1.227 -3.394,6.012 -5.851,10.637 -6.567,12.363 -11.844,21.676 -14.196,25.047 -0.535,0.773 -1.152,1.305 -1.511,1.305 -0.754,0 -2.485,-2.262 -5.746,-7.516 -5.762,-9.273 -8.61,-16.527 -10.297,-26.246 -0.946,-5.461 -1.035,-15.75 -0.176,-21.121 1.242,-7.793 3.516,-14.789 7.133,-21.949 9.117,-18.043 24.082,-30.571 44.898,-37.594 8.496,-2.859 15.227,-3.977 24.043,-3.977 z m 121.863,73.696 c -0.191,0.004 -0.39,0.027 -0.601,0.07 -1.426,0.254 -1.926,1.043 -2.356,3.691 -0.347,2.137 -0.238,3.344 0.379,4.067 0.481,0.566 2.586,0.469 3.364,-0.153 0.707,-0.566 1.277,-3.023 1.281,-5.507 0.004,-1.442 -0.738,-2.211 -2.067,-2.168 z m -238.007,0.203 c -0.84,0.015 -1.606,0.254 -1.852,0.703 -0.57,1.039 -0.195,5.941 0.508,6.703 0.738,0.793 2.656,0.801 3.648,0.016 0.684,-0.535 0.743,-0.813 0.743,-3.403 0,-2.586 -0.059,-2.859 -0.743,-3.398 -0.55,-0.43 -1.464,-0.637 -2.304,-0.621 z m 17.738,28.941 c -0.191,0.012 -0.398,0.035 -0.621,0.067 -3.317,0.488 -14.383,4.039 -17.652,5.664 -1.051,0.523 -1.29,0.8 -1.29,1.515 0,0.481 0.293,1.235 0.653,1.68 0.765,0.949 1.777,1.027 4.375,0.348 4.945,-1.297 5.601,0.054 2.402,4.933 -2.844,4.336 -3.262,6.043 -1.855,7.563 0.265,0.301 0.777,0.539 1.129,0.539 0.718,0 3.785,-2.965 6.644,-6.434 1.039,-1.254 2.317,-2.515 2.832,-2.808 0.906,-0.508 1.09,-0.5 4.688,0.23 4.14,0.84 4.992,0.844 5.156,0.02 0.308,-1.579 -2.957,-4.395 -6.152,-5.305 -1.582,-0.449 -2.59,-1.09 -2.59,-1.652 0,-0.391 0.883,-1.18 1.886,-1.688 1.282,-0.644 2.196,-1.926 2.196,-3.066 0,-1.055 -0.352,-1.535 -1.282,-1.602 -0.156,-0.012 -0.328,-0.016 -0.519,-0.004 z m 205.359,2.281 c -3.953,0.02 -4.8,0.743 -6.925,5.915 -1.415,3.441 -1.887,6.093 -1.188,6.656 1.195,0.961 12.52,6.09 15.512,7.023 0.691,0.219 1.847,0.399 2.57,0.41 1.578,0.028 2.297,-0.742 2.297,-2.453 0,-1.394 -0.637,-1.98 -2.852,-2.621 -2.379,-0.687 -3.429,-1.476 -3.429,-2.582 0,-1.203 0.769,-1.637 4.511,-2.59 1.696,-0.429 3.465,-0.976 3.934,-1.215 1.398,-0.699 3.547,-3.171 3.434,-3.941 -0.09,-0.609 -0.305,-0.68 -2.27,-0.762 -1.535,-0.07 -2.812,0.094 -4.363,0.555 -1.207,0.355 -2.504,0.578 -2.883,0.48 -0.379,-0.089 -1.43,-1 -2.336,-2.019 -2.184,-2.453 -3.062,-2.871 -6.012,-2.856 z m -0.16,5.614 c 1.297,0 1.746,0.613 1.746,2.39 0,0.762 -0.242,1.508 -0.652,2.012 -0.774,0.965 -2.141,1.078 -2.91,0.25 -0.703,-0.758 -0.656,-2.437 0.101,-3.656 0.512,-0.813 0.821,-0.996 1.715,-0.996 z m -109.172,14.582 c 24.575,-0.012 51.914,0.285 53.27,0.676 2.164,0.625 0.875,2.171 -5.028,6.046 -11.414,7.497 -24.64,12.45 -37.636,14.102 -9.656,1.23 -20.867,0.16 -30.692,-2.934 -7.898,-2.484 -18.359,-7.683 -25.289,-12.554 -4.277,-3.012 -5.09,-4.25 -3.09,-4.707 0.493,-0.11 12.133,-0.34 25.875,-0.508 6.512,-0.078 14.399,-0.117 22.59,-0.121 z m 96.348,0.449 c -0.887,0 -4.77,4.902 -6.977,8.801 l -0.906,1.597 1.094,1.122 c 1.73,1.777 9.137,7.82 12.121,9.89 1.492,1.039 2.902,1.891 3.121,1.891 0.598,0 4.203,-3.918 5.957,-6.473 1.629,-2.367 2.969,-5.203 2.981,-6.312 0.003,-0.368 -0.297,-0.879 -0.668,-1.133 -0.981,-0.672 -1.836,-0.133 -4.727,2.961 -1.324,1.426 -2.926,2.828 -3.551,3.117 -1.047,0.484 -1.203,0.488 -1.906,0.035 -1.234,-0.789 -1.02,-2.098 0.801,-4.914 2.179,-3.371 2.39,-5.289 0.644,-5.828 -0.937,-0.293 -1.824,0.312 -4.566,3.109 -2.559,2.61 -3.441,3.043 -4.25,2.086 -0.563,-0.66 -0.039,-2.195 1.719,-5.047 0.781,-1.265 1.422,-2.531 1.425,-2.808 0.004,-0.559 -1.699,-2.094 -2.312,-2.094 z m -181.32,3.422 c -1.953,0.094 -4.868,0.582 -9.379,1.5 -9.93,2.019 -10.496,2.269 -9.907,4.363 0.372,1.309 1.129,1.77 3.836,2.34 4.211,0.879 6.903,4.582 5.391,7.41 -0.773,1.445 -0.777,3.715 -0.012,4.543 0.332,0.356 0.887,0.645 1.246,0.645 1.551,0 7.086,-7.016 11.481,-14.555 1.754,-3.012 2.008,-4.371 0.988,-5.363 -0.687,-0.672 -1.687,-0.973 -3.644,-0.883 z m -5.493,6.41 c 0.415,0.039 0.793,0.328 0.793,0.75 0,0.398 -0.242,0.641 -0.707,0.703 -0.789,0.11 -1.308,-0.703 -0.781,-1.219 0.195,-0.187 0.449,-0.254 0.695,-0.234 z m 173.129,8.141 c -0.265,-0.036 -0.589,0.039 -1,0.179 -1.504,0.512 -2.207,2.25 -2.402,5.973 -0.215,4.023 -0.387,4.195 -2.852,2.73 -2.832,-1.675 -4.757,-1.418 -4.761,0.645 -0.004,1.281 6.289,9.234 10.968,13.867 2.301,2.278 3.106,2.602 4.165,1.664 0.886,-0.781 0.707,-2.344 -0.528,-4.613 -2.515,-4.633 -0.719,-5.957 5.496,-4.059 1.422,0.438 2.414,0.563 3.282,0.422 1.621,-0.265 3.007,-1.59 3.007,-2.871 0,-1.289 -1.218,-1.973 -5.015,-2.801 -6.442,-1.402 -8.032,-2.007 -8.52,-3.265 -0.172,-0.434 -0.426,-2.246 -0.57,-4.02 -0.219,-2.754 -0.469,-3.758 -1.27,-3.851 z m -153.273,0.117 c -0.719,0 -5.336,3.941 -10.973,9.355 -3.879,3.723 -4.476,4.43 -4.476,5.262 0,0.707 0.265,1.184 0.968,1.758 0.532,0.437 1.086,0.797 1.239,0.797 0.148,0 1.351,-0.899 2.676,-1.992 3.738,-3.102 4.398,-2.614 2.207,1.644 -0.79,1.535 -1.434,3.125 -1.434,3.535 0,1.043 1.648,2.332 2.98,2.332 0.743,0 1.762,-0.461 3.457,-1.57 3.258,-2.129 3.641,-1.734 1.465,1.496 -0.89,1.324 -1.621,2.637 -1.621,2.918 0,0.281 0.438,0.996 0.977,1.594 0.535,0.593 1.215,1.082 1.508,1.082 0.773,0 2.289,-1.633 7.246,-7.821 6.281,-7.832 6.957,-9.464 4.675,-11.339 -1.675,-1.375 -3.246,-1.02 -7.539,1.687 -1.949,1.231 -3.097,1.547 -3.097,0.844 0,-0.207 0.801,-2.016 1.781,-4.02 l 1.777,-3.648 -0.582,-1.059 c -0.711,-1.293 -2.484,-2.855 -3.234,-2.855 z m 132.492,15.996 c -0.215,0.008 -0.406,0.062 -0.57,0.164 -0.844,0.516 -0.742,1.738 0.387,4.578 1.582,3.996 1.609,4.102 0.937,4.098 -0.312,-0.004 -1.703,-0.629 -3.082,-1.383 -3.922,-2.16 -5.172,-2.637 -6.57,-2.539 -1,0.074 -1.364,0.266 -1.746,0.93 -0.446,0.777 -0.426,1.007 0.242,2.914 1.312,3.746 6.238,13.086 7.797,14.777 2.156,2.344 3.574,2.012 3.574,-0.832 0,-0.793 -0.426,-2.023 -1.254,-3.625 -1.375,-2.648 -1.496,-3.223 -0.785,-3.797 0.39,-0.32 1.23,-0.031 4.847,1.676 6.047,2.848 8.508,2.906 8.497,0.199 -0.012,-1.457 -0.743,-2.969 -3.372,-6.996 -1.195,-1.824 -2.648,-4.145 -3.234,-5.156 -1.703,-2.946 -4.176,-5.071 -5.668,-5.008 z m -111.476,1.363 c -0.098,0 -0.176,0.012 -0.243,0.035 -0.906,0.301 -7.132,9.578 -9.488,14.133 -1.016,1.965 -1.269,3.938 -0.594,4.594 0.207,0.207 0.86,0.371 1.457,0.371 0.926,0 1.379,-0.301 3.192,-2.145 2.449,-2.492 2.652,-2.539 6.371,-1.378 3.719,1.16 4.664,0.984 6.867,-1.278 1.582,-1.629 2.211,-2.988 2.387,-5.148 0.219,-2.656 -0.301,-4.211 -1.836,-5.492 -1.918,-1.598 -6.656,-3.723 -8.113,-3.692 z m 2.3,6.469 c 2.258,-0.063 3.203,2.144 1.559,3.633 -1.707,1.543 -3.883,0.664 -3.883,-1.571 0,-1.226 0.899,-2.023 2.324,-2.062 z m 87.567,2.273 c -0.34,0.039 -0.715,0.289 -1.196,0.754 -0.714,0.7 -0.785,0.957 -0.613,2.2 0.11,0.777 0.969,3.835 1.906,6.8 0.938,2.969 1.993,6.407 2.344,7.645 0.352,1.242 0.801,2.453 1,2.687 0.91,1.067 4.688,0.121 4.688,-1.179 0,-2.18 -5.68,-16.828 -7.129,-18.391 -0.348,-0.375 -0.657,-0.551 -1,-0.516 z m -68.457,1.016 c -0.61,0.012 -1.035,0.086 -1.168,0.219 -0.414,0.437 -4.059,10.984 -5.172,14.976 -0.805,2.875 -0.832,4.469 -0.09,4.895 0.301,0.176 1.113,0.289 1.805,0.246 1.09,-0.066 1.332,-0.219 1.804,-1.148 0.305,-0.59 0.696,-1.649 0.875,-2.364 0.399,-1.601 1.598,-3.031 2.715,-3.238 0.469,-0.086 1.606,0.031 2.535,0.266 2.235,0.57 3.832,0.543 4.536,-0.079 1.472,-1.304 0.011,-3.328 -3.356,-4.628 -1.926,-0.743 -2.211,-0.961 -2.301,-1.711 -0.191,-1.653 0.305,-1.836 4.356,-1.598 3.937,0.23 4.136,0.168 4.539,-1.398 0.332,-1.293 -1.043,-2.594 -3.531,-3.344 -2.239,-0.676 -5.723,-1.137 -7.547,-1.094 z m 53,3.285 c -0.367,0.008 -0.817,0.031 -1.391,0.07 -9.031,0.637 -8.824,0.59 -9.125,2.141 -0.414,2.16 0.941,18.711 1.621,19.75 0.356,0.547 0.742,0.688 1.844,0.688 1.746,0 2.047,-0.469 2.047,-3.184 0,-2.574 0.554,-5.082 1.172,-5.32 0.734,-0.274 2.195,0.633 5.117,3.183 3.824,3.336 5.664,4.117 6.961,2.973 1.23,-1.086 0.648,-2.535 -2.367,-5.902 -2.172,-2.422 -2.313,-2.825 -1.418,-4.004 0.476,-0.633 0.746,-1.5 0.836,-2.7 0.226,-3.066 -0.875,-5.601 -3.082,-7.074 -0.747,-0.5 -1.114,-0.648 -2.215,-0.621 z m -26.828,0.914 c -0.582,-0.008 -1.192,-0.008 -1.817,0.02 -3.789,0.168 -5.058,0.625 -5.207,1.879 -0.129,1.09 0.32,1.613 2.199,2.535 1.075,0.535 1.571,0.992 1.723,1.59 0.117,0.461 0.039,3.902 -0.176,7.64 -0.289,5.012 -0.301,6.969 -0.043,7.434 0.496,0.91 2.528,0.879 3.602,-0.051 0.84,-0.734 1.195,-2.625 2.055,-10.918 0.179,-1.742 0.46,-3.402 0.617,-3.68 0.16,-0.273 1.027,-0.781 1.929,-1.125 1.871,-0.695 2.981,-1.89 2.664,-2.855 -0.472,-1.461 -3.449,-2.402 -7.543,-2.469 z m 24.351,3.504 c 0.77,0.024 1.551,0.457 2.047,1.195 0.699,1.04 0.371,2.184 -0.793,2.77 -1.934,0.977 -4.41,0.332 -4.41,-1.145 0,-0.671 1.512,-2.371 2.406,-2.703 0.242,-0.086 0.496,-0.121 0.75,-0.117 z m 172.32,36.938 c -0.363,0 -2.699,0.687 -5.203,1.531 -3.113,1.051 -5.054,1.539 -6.132,1.539 -0.958,0 -1.872,0.195 -2.317,0.5 -0.644,0.437 -0.711,0.672 -0.547,1.859 0.106,0.746 0.621,2.801 1.149,4.563 1.597,5.359 3.761,15.41 3.761,17.488 0,0.41 -0.3,0.914 -0.707,1.172 -0.961,0.609 -4.906,1.254 -5.304,0.867 -0.414,-0.406 0.472,-5.68 1.507,-8.937 0.676,-2.137 0.786,-2.918 0.622,-4.621 -0.11,-1.129 -0.387,-2.594 -0.622,-3.258 -0.367,-1.024 -0.562,-1.203 -1.332,-1.203 -1.257,0 -2.039,1.492 -3.414,6.535 -0.605,2.226 -1.382,4.578 -1.722,5.226 -0.34,0.653 -1.114,3.172 -1.723,5.598 -1.324,5.281 -2.851,8.477 -5.402,11.313 -3.254,3.617 -3.657,4.808 -1.957,5.812 1.027,0.617 1.851,0.797 5.504,1.242 1.179,0.149 3.386,0.223 4.91,0.176 2.402,-0.082 2.871,-0.191 3.558,-0.828 1.313,-1.195 0.883,-2.481 -1.601,-4.754 -2.289,-2.094 -2.438,-2.582 -1.555,-5.121 0.973,-2.777 2.461,-3.16 7.984,-2.047 3.27,0.656 3.864,1.059 4.215,2.898 0.309,1.602 -0.281,3.266 -1.863,5.25 -0.777,0.977 -1.41,2.024 -1.41,2.325 0,1.562 5.574,2.261 16.18,2.027 7.328,-0.164 8.851,-0.438 9.554,-1.719 0.563,-1.023 0.403,-1.527 -0.918,-2.926 -1.515,-1.605 -3.09,-4.855 -4.211,-8.699 -0.453,-1.562 -1.461,-4.437 -2.234,-6.39 -0.77,-1.954 -1.547,-4.422 -1.723,-5.489 -0.172,-1.066 -0.738,-2.902 -1.254,-4.09 -0.91,-2.089 -1.171,-3.351 -1.894,-9.101 -0.402,-3.215 -1.637,-7.063 -2.582,-8.047 -0.363,-0.379 -0.957,-0.691 -1.317,-0.691 z m 141.352,0.617 -8.703,0.305 c -9.008,0.32 -10.992,0.609 -11.192,1.632 -0.226,1.145 0.274,1.996 1.637,2.774 1.703,0.976 2.781,2.199 3.981,4.527 1.14,2.207 1.148,2.715 0.058,3.981 l -0.863,1.003 v 11.668 c 0,11.645 -0.004,11.676 -0.742,13.141 -0.613,1.219 -1.055,1.625 -2.582,2.379 -2.223,1.094 -3.035,2.125 -2.61,3.305 0.2,0.558 0.594,0.882 1.231,1.015 0.512,0.11 3.66,0.211 6.992,0.231 7.027,0.039 8.234,-0.215 8.234,-1.746 0,-1.141 -0.761,-2.071 -3.3,-4.047 l -2.039,-1.586 V 531.82 c 0,-5.722 0.125,-10.406 0.269,-10.406 0.152,0 1.176,1.066 2.281,2.375 1.102,1.301 2.891,3.336 3.973,4.524 2.781,3.042 5.074,6.503 7.762,11.73 4.867,9.469 5.093,9.645 12.031,9.516 l 4.629,-0.082 0.094,-3.067 c 0.156,-5.133 -0.43,-12.066 -1.192,-14.137 -1.101,-2.984 -1.113,-3.144 -0.238,-3.468 0.43,-0.16 0.891,-0.543 1.023,-0.852 0.133,-0.305 0.336,-3.879 0.454,-7.933 0.246,-8.446 0.503,-9.442 2.875,-11.043 1.445,-0.981 2.796,-2.442 2.796,-3.036 0,-0.222 -0.261,-0.718 -0.582,-1.105 -0.515,-0.621 -0.968,-0.719 -4.164,-0.93 -4.824,-0.32 -10.472,0.09 -11.293,0.809 -0.336,0.301 -0.613,0.683 -0.613,0.855 0,0.172 1.055,1.325 2.344,2.559 1.613,1.551 2.441,2.605 2.668,3.402 0.394,1.383 0.445,11.93 0.054,12.164 -0.632,0.383 -5.308,-5.57 -7.543,-9.593 -1.734,-3.133 -4.312,-6.758 -6.402,-9.024 z m -312.527,0.008 c -0.426,-0.008 -0.825,-0.008 -1.2,0.004 -2.496,0.093 -3.855,0.757 -3.976,1.98 -0.067,0.688 0.406,1.684 1.887,3.977 l 1.976,3.058 -0.027,2.926 c -0.028,3.277 -0.488,4.715 -2.653,8.215 -0.949,1.539 -1.25,2.344 -1.25,3.367 0,1.582 0.266,2.125 2.118,4.355 1.836,2.2 3.136,4.77 3.742,7.395 0.66,2.84 0.394,4.316 -1.176,6.566 -1.434,2.071 -1.516,3.145 -0.285,3.75 1.465,0.719 19.297,0.309 21.441,-0.492 1.649,-0.617 1.032,-2.457 -1.961,-5.847 -2.933,-3.321 -4.765,-6.79 -5.304,-10.047 -0.325,-1.977 -0.676,-2.762 -2.219,-4.993 -0.527,-0.757 -0.961,-1.734 -0.961,-2.167 0,-0.926 0.98,-1.911 2.523,-2.543 1.907,-0.774 2.332,-1.5 2.457,-4.168 0.211,-4.571 -1.191,-9.848 -3.246,-12.188 -1.207,-1.379 -2.832,-1.969 -7.39,-2.687 -1.719,-0.27 -3.219,-0.422 -4.496,-0.457 z m -151.903,0.035 c -0.582,0.012 -1.179,0.015 -1.777,0.043 -4.992,0.195 -7.402,0.613 -8.156,1.429 -1.008,1.09 -1.168,4.247 -0.805,15.961 0.543,17.457 -0.016,22.121 -2.957,24.821 -0.5,0.457 -0.809,1.074 -0.809,1.613 0,1.156 0.883,1.488 4.715,1.785 4.949,0.387 18.574,0.211 19.399,-0.246 1.195,-0.664 0.961,-2.262 -0.567,-3.879 -0.695,-0.738 -1.406,-1.805 -1.578,-2.367 -0.172,-0.566 -0.449,-4.336 -0.625,-8.387 -0.172,-4.047 -0.465,-8.531 -0.648,-9.965 -0.696,-5.269 -0.68,-6.445 0.168,-10.14 0.5,-2.199 1.215,-4.285 1.906,-5.594 1.301,-2.449 1.391,-3.395 0.379,-4.039 -1.035,-0.664 -4.563,-1.063 -8.645,-1.035 z M 81.813,503.75 c -0.426,0.027 -0.77,0.152 -1.282,0.398 -0.941,0.45 -1.183,0.75 -1.261,1.571 -0.086,0.859 0.152,1.273 1.636,2.84 2.496,2.629 3.032,4.449 3.246,11.023 0.161,4.969 -0.289,14.633 -0.879,18.856 -0.492,3.519 -1.203,5.308 -2.707,6.82 -1.632,1.637 -1.793,2.765 -0.527,3.738 2.426,1.863 9.992,-0.32 14.16,-4.086 1.574,-1.422 2.192,-2.332 4.11,-6.062 1.238,-2.422 2.382,-5.016 2.543,-5.774 0.527,-2.543 0.691,-6.875 0.367,-9.867 -0.633,-5.824 -1.887,-7.984 -7.578,-13.035 -4.496,-3.992 -7.223,-5.672 -10.086,-6.219 -0.817,-0.16 -1.317,-0.23 -1.742,-0.203 z m 255.902,0.023 c -2.535,0.04 -4.797,0.207 -5.996,0.508 -2.156,0.539 -2.09,-0.297 -1.836,22.961 0.148,14.008 -0.192,16.164 -2.942,18.688 -0.5,0.457 -0.804,1.07 -0.804,1.613 0,1.156 0.883,1.488 4.711,1.785 4.949,0.383 18.578,0.215 19.402,-0.246 1.199,-0.668 0.965,-2.312 -0.535,-3.762 -0.684,-0.66 -1.395,-1.722 -1.578,-2.359 -0.188,-0.633 -0.481,-4.461 -0.653,-8.512 -0.171,-4.047 -0.468,-8.535 -0.656,-9.969 -0.664,-5.031 -0.664,-6.515 -0.008,-9.23 0.821,-3.355 1.809,-5.902 2.7,-6.949 1.796,-2.11 1.679,-3.192 -0.411,-3.742 -2.16,-0.567 -7.164,-0.848 -11.39,-0.786 z m 170.91,0.036 c -0.812,-0.012 -1.641,0.035 -2.48,0.129 -2.879,0.32 -3.77,0.828 -3.77,2.148 0,0.473 0.426,1.348 0.988,2.027 1.696,2.051 2.524,4.196 2.703,6.985 0.231,3.586 -0.418,5.617 -2.269,7.132 -0.781,0.641 -1.477,1.5 -1.582,1.973 -0.293,1.305 0.344,3.055 1.691,4.649 1.535,1.808 2.055,3.73 2.047,7.593 -0.008,4.032 -0.512,5.996 -2.18,8.473 -1.503,2.238 -1.707,3.246 -0.847,4.187 0.508,0.555 0.844,0.59 4.32,0.43 4.231,-0.199 8.977,-1.234 11.758,-2.562 3.906,-1.868 5.363,-4.211 5.609,-9.012 0.246,-4.887 -1.304,-8.426 -4.047,-9.227 -1.027,-0.304 -1.406,-0.613 -1.761,-1.441 -0.567,-1.324 -0.313,-2.387 0.855,-3.574 2.809,-2.856 3.496,-9.364 1.422,-13.5 -1.988,-3.969 -6.785,-6.375 -12.457,-6.41 z m 29.652,0.035 c -3.437,-0.008 -6.25,0.148 -6.82,0.515 -1.18,0.754 -1.066,1.977 0.34,3.61 2.238,2.605 2.152,1.898 2.152,17.898 0,7.926 -0.113,15.063 -0.254,15.863 -0.168,0.965 -0.656,1.942 -1.441,2.918 -1.859,2.293 -2.047,2.754 -1.484,3.59 0.691,1.032 2.855,1.434 9.933,1.86 3.371,0.203 6.453,0.386 6.848,0.41 0.398,0.023 1.137,-0.168 1.64,-0.422 1.696,-0.856 1.731,-1.297 1.641,-20.953 l -0.086,-17.891 1.613,-1.726 c 2.594,-2.766 2.754,-3.711 0.789,-4.512 -1.679,-0.684 -9.14,-1.145 -14.871,-1.16 z m 127.149,0.011 c -5.832,-0.031 -9.164,0.75 -9.375,2.184 -0.149,1.027 0.617,1.684 3.262,2.809 l 2.339,0.996 -0.031,12.152 c -0.019,6.68 -0.125,13.328 -0.234,14.766 l -0.203,2.613 -3.118,2.746 c -3.054,2.692 -4.894,4.953 -4.894,6.02 0,0.297 0.312,0.746 0.691,1.011 h 0.008 c 0.914,0.621 3.981,0.625 5.508,0 0.695,-0.281 2.461,-1.793 4.387,-3.754 l 3.222,-3.277 0.008,-30.797 2.199,-1.715 c 2.567,-1.996 3.223,-2.859 3.086,-4.027 -0.148,-1.246 -1.965,-1.707 -6.855,-1.727 z m -28.121,0.02 c -11.121,0 -12.184,0.156 -12.344,1.773 -0.074,0.735 0.211,1.305 1.301,2.606 0.769,0.914 1.566,2.215 1.773,2.891 0.246,0.796 0.512,6.484 0.758,16.253 0.426,17.028 0.297,16.262 3.082,18.707 0.941,0.821 2.086,1.5 2.871,1.696 0.715,0.179 2.012,0.66 2.875,1.066 0.945,0.446 2.824,0.922 4.711,1.184 1.731,0.238 3.293,0.449 3.477,0.469 0.179,0.015 1.211,-0.262 2.289,-0.618 3.332,-1.097 3.504,-2.183 0.855,-5.484 -1.613,-2.016 -2.691,-4.008 -2.695,-4.969 0,-0.386 -0.348,-1.258 -0.774,-1.933 -0.953,-1.508 -0.972,-2.309 -0.144,-5.993 0.543,-2.418 0.664,-4.171 0.738,-10.566 0.09,-7.937 0.363,-9.957 1.555,-11.555 0.293,-0.39 0.89,-1.191 1.324,-1.777 0.523,-0.703 0.758,-1.375 0.695,-1.988 -0.16,-1.61 -1.242,-1.766 -12.347,-1.762 z m -509.899,0.078 c -1.988,-0.015 -4.566,0.192 -7.426,0.621 -4.011,0.598 -4.839,0.641 -6.132,0.313 -2.727,-0.696 -3.5,-0.739 -4.325,-0.211 -0.929,0.594 -1,1.472 -0.207,2.59 2.047,2.89 2.411,6.015 2.411,20.742 0,6.75 -0.114,12.914 -0.254,13.711 -0.176,1 -0.684,1.98 -1.649,3.199 -1.437,1.805 -1.687,2.574 -1.004,3.105 0.778,0.602 2.891,1.071 5.852,1.313 1.664,0.129 5.992,0.211 9.621,0.176 6.609,-0.059 8.012,-0.266 8.012,-1.207 0,-0.403 -1.367,-2.516 -2.52,-3.903 -0.398,-0.476 -0.769,-1.562 -0.945,-2.761 -0.602,-4.055 -0.082,-28.93 0.652,-31.395 0.199,-0.664 0.84,-1.828 1.43,-2.578 1.238,-1.582 1.316,-2.184 0.402,-2.992 -0.515,-0.465 -1.926,-0.703 -3.918,-0.723 z m 39.926,0.02 c -5.316,-0.035 -5.973,0.179 -5.973,1.945 0,1.086 0.168,1.332 1.731,2.559 0.949,0.746 3.476,2.929 5.613,4.859 2.137,1.926 4.399,3.766 5.027,4.09 1.34,0.691 1.973,0.754 2.493,0.25 0.472,-0.461 0.484,-2.488 0.023,-4.574 -0.191,-0.879 -0.437,-3.2 -0.547,-5.153 l -0.199,-3.554 -1.887,-0.196 c -1.035,-0.109 -3.863,-0.207 -6.281,-0.226 z m 219.91,0.007 v 0.008 c -1.781,0.008 -3.496,0.078 -4.48,0.223 -2.391,0.367 -2.907,0.809 -2.907,2.496 0,1.332 0.672,2.016 3.141,3.211 1.223,0.59 2.856,1.953 5.563,4.637 4.086,4.047 4.984,4.531 5.816,3.109 0.832,-1.422 0.254,-12.305 -0.703,-13.242 -0.289,-0.289 -3.457,-0.453 -6.43,-0.438 z m 321.641,0.008 c -1.738,0.004 -3.445,0.075 -4.52,0.223 -2.621,0.352 -3.125,0.75 -3.125,2.492 0,1.258 0.575,1.871 3.567,3.82 1.011,0.661 3.226,2.485 4.918,4.059 1.691,1.57 3.48,3.063 3.972,3.313 1.141,0.582 1.157,0.578 1.868,-0.188 0.531,-0.578 0.593,-1.117 0.554,-4.832 -0.047,-4.363 -0.484,-7.887 -1.062,-8.453 -0.289,-0.285 -3.274,-0.445 -6.172,-0.434 z m -345.977,0 c -4.718,0.047 -5.484,0.465 -5.613,1.754 -0.07,0.723 0.215,1.516 1.027,2.852 0.621,1.019 1.27,2.465 1.442,3.219 0.457,1.98 0.914,12.355 1.008,22.832 0.078,8.57 0.046,9.125 -0.52,9.738 -0.328,0.359 -0.863,0.652 -1.191,0.652 -0.903,0 -2.137,1.375 -2.137,2.379 0,1.211 0.598,1.852 1.887,2.02 1.433,0.191 17.898,-0.071 18.257,-0.286 0.418,-0.253 0.36,-44.511 -0.058,-44.761 -0.184,-0.114 -4.035,-0.27 -8.559,-0.352 -1.219,-0.023 -2.301,-0.039 -3.269,-0.047 -0.844,-0.004 -1.598,-0.008 -2.274,0 z m 321.403,0 c -4.711,0.047 -5.504,0.461 -5.633,1.723 -0.067,0.668 0.246,1.574 0.992,2.894 0.598,1.063 1.25,2.688 1.445,3.618 0.446,2.086 0.864,9.941 1.149,21.679 0.238,9.848 0.156,10.481 -1.477,11.141 -2.258,0.914 -3.168,3.391 -1.539,4.191 v 0.008 c 1.004,0.492 16.223,0.547 18,0.063 0.766,-0.207 1.32,-0.586 1.543,-1.067 0.445,-0.949 0.895,-0.945 1.813,0.008 1.304,1.352 2.402,1.5 9.726,1.277 3.715,-0.113 6.856,-0.312 6.981,-0.433 0.125,-0.125 0.273,-3.375 0.324,-7.219 0.094,-6.641 0.066,-7.023 -0.516,-7.441 -1.086,-0.778 -2.801,0.113 -4.496,2.355 -3.941,5.192 -5.043,6.149 -7.68,6.703 -0.832,0.172 -2.375,0.739 -3.433,1.258 -1.055,0.52 -2.031,0.836 -2.168,0.692 -0.137,-0.141 -0.348,-9.395 -0.477,-20.579 -0.133,-11.918 -0.347,-20.394 -0.519,-20.496 -0.16,-0.097 -3.992,-0.246 -8.516,-0.328 -1.211,-0.023 -2.289,-0.035 -3.25,-0.047 -0.844,0 -1.598,-0.008 -2.269,0 z m -458.52,0.024 c -1.43,0.023 -3.437,0.156 -6.328,0.398 -6.328,0.528 -6.856,0.531 -9.141,0.047 -2.175,-0.461 -2.5,-0.461 -3.152,-0.047 -1.035,0.664 -0.922,1.856 0.359,3.797 0.594,0.902 1.239,2.344 1.434,3.211 0.762,3.406 1.238,27.613 0.598,30.527 -0.258,1.176 -0.7,1.914 -1.883,3.141 -0.852,0.887 -1.547,1.855 -1.547,2.156 0,1.172 1.801,1.727 6.754,2.094 5.055,0.375 15.898,0.211 16.73,-0.254 1.094,-0.605 0.946,-2.133 -0.343,-3.613 -1.977,-2.266 -2.602,-4.172 -2.907,-8.871 -0.246,-3.84 0.41,-23.012 0.856,-25.055 0.238,-1.082 0.726,-1.953 1.719,-3.039 1.558,-1.719 1.683,-2.344 0.671,-3.496 -0.636,-0.719 -1.429,-1.024 -3.82,-0.996 z m 18.395,0.082 c -4.618,-0.02 -7.582,0.152 -8.289,0.511 -1.321,0.668 -0.196,2.622 2.523,4.372 3.32,2.136 4.285,3.738 5.871,9.773 1.609,6.125 5.277,14.684 7.871,18.367 1.231,1.742 2.164,4.039 2.621,6.446 0.34,1.796 1.067,3.738 1.657,4.437 0.191,0.223 0.687,0.402 1.097,0.402 0.91,0 1.336,-0.906 1.149,-2.449 -0.098,-0.777 0.121,-1.539 0.785,-2.758 0.508,-0.933 1.582,-2.886 2.383,-4.347 1.738,-3.168 3.988,-9.586 4.921,-14.059 0.821,-3.934 0.77,-8.566 -0.101,-9.414 -0.649,-0.637 -0.934,-0.414 -2.086,1.641 -0.969,1.718 -1.684,2.238 -2.438,1.773 -0.656,-0.402 -0.804,-0.699 -1.613,-3.199 -0.351,-1.09 -1.394,-4.063 -2.312,-6.59 l -1.672,-4.602 -7.227,-0.21 c -1.883,-0.051 -3.601,-0.083 -5.14,-0.094 z m -95.575,0.011 c -10.117,-0.011 -10.207,0.008 -9.937,1.981 0.082,0.609 0.594,1.719 1.133,2.469 1.39,1.933 1.859,4.582 2.226,12.601 0.352,7.672 0.379,21.168 0.043,22.344 -0.117,0.418 -0.816,1.156 -1.551,1.633 -1.816,1.195 -2.441,2.168 -2.062,3.222 0.23,0.641 0.566,0.864 1.543,1.028 1.406,0.234 17.98,0.023 18.41,-0.235 0.156,-0.093 0.277,-9.968 0.277,-22.39 0,-20.883 -0.035,-22.238 -0.55,-22.43 -0.301,-0.113 -4.59,-0.211 -9.532,-0.223 z m 265.778,0 c -9.922,-0.015 -10.028,0.004 -10.028,1.852 0,0.82 0.246,1.211 1.25,2.004 0.684,0.535 1.426,1.469 1.649,2.082 0.305,0.836 0.402,4.641 0.402,15.824 0,16.363 0.004,16.293 -2.074,19.125 -1.859,2.539 -1.621,3.485 1.019,4.016 2.012,0.406 19.7,0.219 20.758,-0.219 1.766,-0.742 1.379,-2.609 -0.715,-3.457 -0.64,-0.258 -1.019,-0.707 -1.257,-1.48 -0.391,-1.289 -0.879,-17.645 -0.907,-30.489 -0.015,-8.113 -0.062,-8.847 -0.566,-9.035 -0.305,-0.113 -4.598,-0.215 -9.531,-0.223 z m 75.414,0 c -8.067,-0.011 -9.051,0.047 -9.821,0.536 -0.468,0.297 -0.851,0.722 -0.851,0.941 0,0.211 0.594,1.348 1.32,2.516 0.727,1.172 1.508,2.82 1.742,3.66 0.528,1.902 1.164,20.988 0.887,26.48 -0.207,4.067 -0.433,4.813 -2.215,7.211 -0.605,0.821 -1.105,1.801 -1.105,2.176 0,0.754 0.75,1.543 1.726,1.816 v -0.007 c 0.766,0.211 17.731,-0.059 18.11,-0.286 0.148,-0.089 0.269,-10.168 0.269,-22.39 0,-20.883 -0.035,-22.235 -0.55,-22.43 -0.301,-0.117 -4.583,-0.219 -9.512,-0.223 z m -183.613,0.012 c -6.2,0.02 -8.469,0.133 -9.422,0.465 -2.203,0.762 -1.821,1.805 1.449,3.984 2.359,1.563 3.512,2.731 4.281,4.325 0.707,1.464 3.598,11.332 3.383,11.543 -0.422,0.402 -1.078,-0.438 -1.848,-2.344 -1.097,-2.738 -1.621,-3.219 -2.433,-2.235 -0.735,0.883 -0.711,0.536 -0.743,10.918 -0.035,11.43 -0.324,12.461 -4.125,14.559 -3.984,2.191 -1.988,3.801 5.844,4.723 1.989,0.234 3.742,0.445 3.899,0.465 0.89,0.113 3.785,-1.118 4.453,-1.895 1.289,-1.492 0.918,-2.328 -1.524,-3.437 -2.336,-1.059 -2.922,-2.723 -3.226,-9.149 -0.219,-4.598 0.109,-7.672 0.836,-7.809 0.586,-0.109 1.242,0.895 2.75,4.223 0.574,1.258 1.672,3.246 2.445,4.414 1.367,2.067 2.34,4.617 3.375,8.906 0.777,3.219 1.324,3.582 3.09,2.043 0.961,-0.839 1.019,-1.003 0.957,-2.722 -0.063,-1.68 0.035,-1.996 1.226,-3.785 3.708,-5.563 6.442,-14.559 6.75,-22.184 0.133,-3.289 0.079,-4.098 -0.32,-4.605 -0.453,-0.575 -0.515,-0.582 -1.023,-0.094 -0.297,0.285 -0.907,1.183 -1.356,1.992 -1.273,2.312 -3.156,2.07 -3.633,-0.457 -0.117,-0.625 -0.777,-2.496 -1.457,-4.156 -0.683,-1.664 -1.328,-3.645 -1.437,-4.418 -0.418,-2.989 -1.582,-3.301 -12.191,-3.27 z m -243.653,0.031 c -3.605,-0.003 -3.941,0.125 -4.586,0.59 -1.261,0.918 -1.254,1.692 0.035,3.34 2.141,2.735 2.223,3.387 2.196,17.332 -0.024,12.153 -0.321,17 -1.141,18.528 -0.187,0.347 -0.812,1.089 -1.394,1.648 -1.614,1.543 -1.301,3.305 0.675,3.848 0.778,0.214 17.711,-0.051 18.098,-0.286 0.156,-0.093 0.281,-9.695 0.281,-22.191 0,-17.73 -0.082,-22.082 -0.41,-22.352 -0.266,-0.218 -3.414,-0.363 -8.93,-0.421 -2.058,-0.024 -3.625,-0.036 -4.824,-0.036 z m 105.43,13.54 c -0.758,0.046 -1.621,0.792 -2.383,2.187 -0.551,1.004 -1.758,2.645 -2.687,3.648 -1.973,2.129 -2.114,2.93 -0.915,5.235 0.95,1.828 3.676,5.441 4.825,6.39 1.25,1.032 1.992,0.786 2.515,-0.847 0.571,-1.778 0.657,-14.129 0.11,-15.422 -0.36,-0.836 -0.879,-1.227 -1.465,-1.191 z m 218.754,0.023 c -0.574,0.047 -1.184,0.434 -1.742,1.148 -0.485,0.614 -1.61,1.914 -2.508,2.891 -2.27,2.461 -2.711,3.402 -2.543,5.395 0.113,1.328 0.422,2.046 1.617,3.757 0.812,1.157 2.172,2.739 3.023,3.516 0.852,0.777 1.743,1.418 1.981,1.418 1.523,0 2.148,-3.035 2.215,-10.75 0.043,-4.973 -0.02,-5.785 -0.508,-6.512 -0.422,-0.629 -0.961,-0.914 -1.535,-0.863 z m 321.363,0.07 c -0.621,0.035 -1.203,0.508 -2.867,2.18 -2.699,2.711 -3.977,4.988 -3.977,7.078 0,1.723 0.285,2.328 1.977,4.191 0.687,0.758 1.519,1.961 1.848,2.676 0.328,0.711 0.835,1.43 1.132,1.598 0.868,0.496 2.219,0.375 2.868,-0.254 0.792,-0.777 1.066,-3.328 1.093,-10.148 0.028,-6.079 -0.23,-7.133 -1.801,-7.309 -0.093,-0.008 -0.183,-0.016 -0.273,-0.012 z M 242.07,520.5 c -0.949,0 -1.156,1.727 -1.433,11.953 l -0.278,10.274 -1.015,0.765 c -1.891,1.422 -4.293,3.758 -4.492,4.367 -0.247,0.762 0.144,1.149 1.484,1.489 1.371,0.347 11.703,0.082 13.223,-0.34 2.418,-0.668 2.257,-2.512 -0.332,-3.793 -2.75,-1.363 -3.09,-2.418 -3.508,-10.949 -0.364,-7.395 -1.028,-10.703 -2.598,-12.926 -0.324,-0.465 -0.797,-0.84 -1.051,-0.84 z m -66.414,13.695 c -0.859,-0.011 -2.078,1.301 -3.965,4.098 -2.25,3.332 -3.261,4.137 -6.519,5.195 -2.801,0.907 -4.094,2.012 -4.094,3.485 0,1.211 0.754,2.238 1.809,2.461 0.371,0.078 1.308,0.089 2.09,0.023 0.777,-0.062 3.816,-0.207 6.753,-0.32 2.938,-0.11 5.516,-0.336 5.731,-0.504 0.723,-0.555 0.277,-10.703 -0.566,-13.039 -0.332,-0.918 -0.723,-1.395 -1.239,-1.399 z m 391.157,0.153 c -1.067,-0.071 -2.481,1.382 -5.415,5.07 -2.8,3.52 -3.644,4.211 -5.941,4.879 -1.344,0.387 -1.68,0.644 -2.059,1.527 -0.71,1.656 -0.023,3.196 1.602,3.594 0.344,0.082 3.379,0.129 6.746,0.105 l 6.117,-0.046 0.438,-1.684 c 0.265,-1.043 0.449,-3.582 0.476,-6.648 0.039,-4.594 -0.004,-5.02 -0.617,-5.825 -0.449,-0.593 -0.863,-0.941 -1.347,-0.972 z m -172.446,0.257 c -1.308,0 -2.168,0.758 -4.004,3.54 -1.82,2.753 -2.941,3.753 -5.34,4.761 -3.437,1.442 -4.261,1.914 -4.675,2.696 -0.481,0.91 -0.957,3.543 -0.711,3.933 0.168,0.266 6.355,0.188 12.629,-0.156 l 3.769,-0.207 -0.019,-6.594 c -0.024,-7.246 -0.172,-7.973 -1.653,-7.973 z"
       style="fill:#040404;fill-opacity:1;fill-rule:nonzero;stroke:none"
       transform="scale(1.3333333)" />
  </g>
</svg>
