<?xml version="1.0" encoding="UTF-8" standalone="no"?>
<!-- Created with Inkscape (http://www.inkscape.org/) -->

<svg
   version="1.1"
   id="svg1"
   width="1122.5197"
   height="793.70074"
   viewBox="0 0 1122.5197 793.70074"
   xmlns="http://www.w3.org/2000/svg"
   xmlns:svg="http://www.w3.org/2000/svg">
  <defs
     id="defs1" />
  <g
     id="g1">
    <path
       id="path1"
       d="m 190.813,386.336 c -10.383,-1.535 -16.528,-6.113 -18.208,-13.566 -0.328,-1.45 -0.402,-2.809 -0.296,-5.383 0.125,-3.02 1.015,-7.969 7.164,-39.914 3.859,-20.059 7.261,-37.18 7.554,-38.047 2.094,-6.149 5.469,-10.735 10.293,-13.996 3.696,-2.492 8.258,-4.203 14.094,-5.274 3.063,-0.562 4.559,-0.656 10.449,-0.672 4.274,-0.011 7.789,0.125 9.293,0.356 8.137,1.25 13.992,4.277 16.66,8.617 1.489,2.426 2,4.41 2.125,8.242 l 0.114,3.446 -4.469,23.113 -4.473,23.117 -18,0.074 c -9.902,0.039 -18.101,0.176 -18.222,0.301 -0.336,0.352 -5.442,27.285 -5.442,28.703 0,2.449 1.367,3.797 3.852,3.797 1.226,0 2.851,-0.609 3.664,-1.375 1.269,-1.199 1.785,-3.098 4.051,-15 1.25,-6.547 2.39,-12.07 2.535,-12.266 0.207,-0.277 3.226,-0.359 13.433,-0.359 h 13.164 v 0.656 c 0,1.199 -4.613,24.735 -5.214,26.598 -2.321,7.195 -7.036,12.406 -14.11,15.594 -2.855,1.289 -5.301,2.027 -9.41,2.851 -3.961,0.789 -16.309,1.024 -20.601,0.387 z m 29.375,-81.379 c 2.609,-13.57 2.71,-14.238 2.339,-15.336 -0.703,-2.07 -2.812,-2.945 -5.336,-2.207 -1.441,0.422 -3.203,2.231 -3.664,3.758 -0.582,1.933 -5.312,27.316 -5.164,27.719 0.121,0.339 0.946,0.398 4.625,0.332 l 4.473,-0.078 z m 224.027,81.215 c -4.785,-1.078 -8.555,-3.125 -11.235,-6.109 -2.191,-2.434 -2.878,-4.254 -3.007,-7.942 -0.102,-2.992 -0.043,-3.328 8.129,-45.891 8.152,-42.48 8.238,-42.898 9.382,-45.308 3.18,-6.699 10.793,-11.063 20.094,-11.508 5.957,-0.285 11.211,0.664 14.926,2.703 1.07,0.586 1.969,0.918 2.094,0.77 0.121,-0.145 1.437,-6.657 2.918,-14.473 1.484,-7.816 2.797,-14.504 2.922,-14.859 l 0.222,-0.645 h 13.215 c 10.32,0 13.246,0.078 13.348,0.356 0.07,0.199 -5.973,32.211 -13.43,71.14 l -13.559,70.782 h -20.507 l -0.637,-1.571 c -0.348,-0.863 -0.762,-1.613 -0.922,-1.668 -0.156,-0.054 -1.688,0.617 -3.395,1.496 -5.046,2.59 -7.125,3.102 -13.011,3.215 -4.184,0.082 -5.352,0.008 -7.547,-0.488 z m 19.867,-17.594 c 1.109,-0.488 2.52,-2.133 2.898,-3.394 0.161,-0.528 3.454,-17.508 7.321,-37.735 4.742,-24.816 6.972,-37.066 6.859,-37.664 -0.262,-1.363 -1.437,-2.355 -3.019,-2.551 -2.657,-0.328 -5.106,1.016 -5.973,3.282 -0.23,0.597 -3.602,17.718 -7.496,38.05 -6.578,34.329 -7.059,37.043 -6.75,38.122 0.453,1.57 1.586,2.273 3.68,2.277 0.875,0 1.992,-0.176 2.48,-0.387 z m 54.527,17.758 c -10.382,-1.535 -16.523,-6.113 -18.203,-13.566 -0.328,-1.45 -0.402,-2.809 -0.297,-5.383 0.125,-3.02 1.012,-7.969 7.164,-39.914 3.86,-20.059 7.258,-37.18 7.555,-38.047 2.094,-6.149 5.469,-10.735 10.293,-13.996 3.695,-2.492 8.258,-4.203 14.09,-5.274 3.062,-0.562 4.562,-0.656 10.453,-0.672 4.27,-0.011 7.789,0.125 9.289,0.356 8.141,1.25 13.996,4.277 16.66,8.617 1.492,2.426 2.004,4.41 2.129,8.242 l 0.113,3.446 -4.472,23.113 -4.469,23.117 -18.004,0.074 c -9.898,0.039 -18.097,0.176 -18.219,0.301 -0.336,0.352 -5.441,27.285 -5.441,28.703 0,2.449 1.367,3.797 3.852,3.797 1.226,0 2.851,-0.609 3.66,-1.375 1.273,-1.199 1.789,-3.098 4.054,-15 1.247,-6.547 2.387,-12.07 2.536,-12.266 0.207,-0.277 3.222,-0.359 13.433,-0.359 h 13.164 v 0.656 c 0,1.199 -4.613,24.735 -5.215,26.598 -2.324,7.195 -7.039,12.406 -14.109,15.594 -2.859,1.289 -5.301,2.027 -9.414,2.851 -3.957,0.789 -16.305,1.024 -20.602,0.387 z m 29.379,-81.379 c 2.61,-13.57 2.711,-14.238 2.34,-15.336 -0.703,-2.07 -2.816,-2.945 -5.336,-2.207 -1.441,0.422 -3.203,2.231 -3.664,3.758 -0.586,1.933 -5.312,27.316 -5.168,27.719 0.125,0.339 0.945,0.398 4.629,0.332 l 4.473,-0.078 z m 108.95,81.379 c -10.383,-1.535 -16.528,-6.113 -18.208,-13.566 -0.328,-1.45 -0.402,-2.809 -0.296,-5.383 0.125,-3.02 1.015,-7.969 7.164,-39.914 3.859,-20.059 7.261,-37.18 7.554,-38.047 2.094,-6.149 5.469,-10.735 10.293,-13.996 3.696,-2.492 8.258,-4.203 14.094,-5.274 3.063,-0.562 4.559,-0.656 10.449,-0.672 4.274,-0.011 7.789,0.125 9.293,0.356 8.137,1.25 13.992,4.277 16.66,8.617 1.489,2.426 2,4.41 2.125,8.242 l 0.114,3.446 -4.469,23.113 -4.473,23.117 -18,0.074 c -9.902,0.039 -18.101,0.176 -18.222,0.301 -0.336,0.352 -5.442,27.285 -5.442,28.703 0,2.449 1.367,3.797 3.852,3.797 1.226,0 2.851,-0.609 3.664,-1.375 1.269,-1.199 1.785,-3.098 4.051,-15 1.25,-6.547 2.39,-12.07 2.535,-12.266 0.207,-0.277 3.226,-0.359 13.433,-0.359 h 13.164 v 0.656 c 0,1.199 -4.613,24.735 -5.214,26.598 -2.321,7.195 -7.036,12.406 -14.11,15.594 -2.859,1.289 -5.301,2.027 -9.41,2.851 -3.961,0.789 -16.309,1.024 -20.601,0.387 z m 29.375,-81.379 c 2.609,-13.57 2.71,-14.238 2.339,-15.336 -0.703,-2.07 -2.812,-2.945 -5.336,-2.207 -1.441,0.422 -3.203,2.231 -3.664,3.758 -0.582,1.933 -5.312,27.316 -5.164,27.719 0.121,0.339 0.946,0.398 4.625,0.332 l 4.473,-0.078 z M 62.109,385.082 C 61.91,384.746 88.91,243.727 89.266,243.25 c 0.226,-0.309 4.136,-0.355 21.062,-0.258 17.731,0.098 21.11,0.184 22.992,0.582 8.309,1.746 14.981,6.211 17.582,11.766 1.457,3.117 1.895,5.258 1.883,9.246 -0.012,3.359 -0.238,4.629 -8.738,48.961 -4.797,25.031 -9.039,46.543 -9.418,47.808 -1.469,4.86 -4.649,10.18 -7.981,13.364 -5.968,5.695 -13.957,9.375 -22.406,10.316 -3.258,0.363 -41.918,0.406 -42.133,0.047 z m 38.11,-18.918 c 1.707,-0.785 3.172,-2.215 3.976,-3.875 0.539,-1.105 2.621,-11.508 9.61,-47.973 4.906,-25.605 8.922,-47.046 8.922,-47.648 0,-3.004 -2.133,-4.969 -5.602,-5.164 -0.957,-0.055 -1.402,0.047 -1.574,0.355 -0.403,0.727 -20.102,104.258 -19.926,104.731 0.219,0.598 2.918,0.348 4.594,-0.426 z m 35.719,18.52 c 0.007,-0.356 4.925,-26.231 10.933,-57.5 l 10.918,-56.852 13.32,-0.074 c 7.325,-0.043 13.411,0.019 13.52,0.14 0.207,0.227 -21.488,113.961 -21.856,114.582 -0.156,0.27 -3.367,0.352 -13.527,0.352 h -13.32 z m 135.082,0.004 c 0.074,-0.356 11.218,-32.372 24.761,-71.141 l 24.625,-70.496 18.778,-0.074 c 10.324,-0.039 18.859,0.023 18.968,0.144 0.246,0.274 -4.539,141.414 -4.808,141.871 -0.153,0.254 -3.84,0.34 -14.633,0.34 -13.066,0 -14.445,-0.043 -14.602,-0.469 -0.093,-0.254 0.329,-8.75 0.934,-18.879 0.609,-10.125 1.02,-18.511 0.918,-18.632 -0.102,-0.122 -3.133,-0.188 -6.734,-0.145 l -6.551,0.078 -6.117,18.953 -6.118,18.95 -29.554,0.148 z m 56.437,-57.719 c 0.184,-0.574 3.672,-39.684 3.551,-39.817 -0.059,-0.066 -0.18,-0.047 -0.266,0.043 -0.336,0.352 -11.41,39.383 -11.277,39.746 0.199,0.539 7.82,0.567 7.992,0.028 z m 30.555,58.117 c -0.196,-0.332 21.566,-114.07 21.918,-114.543 0.211,-0.285 3.117,-0.344 13.5,-0.285 l 13.234,0.074 -0.195,3.391 1.199,-0.723 c 3.57,-2.156 8.141,-3.324 13.98,-3.574 6.145,-0.266 9.997,0.703 14.082,3.531 3.336,2.309 4.665,4.75 4.825,8.859 0.093,2.454 -0.391,5.149 -9.528,52.77 -5.293,27.598 -9.703,50.309 -9.793,50.465 -0.105,0.176 -5.074,0.281 -13.488,0.281 h -13.32 v -0.648 c 0,-0.36 3.961,-21.321 8.801,-46.586 4.839,-25.266 8.796,-46.43 8.796,-47.032 0,-2.375 -1.335,-3.507 -4.05,-3.441 -1.856,0.043 -3.285,0.801 -4.27,2.258 -0.691,1.027 -1.531,5.164 -9.773,48.215 l -9.02,47.09 -13.375,0.074 c -7.457,0.043 -13.441,-0.035 -13.523,-0.176 z m 208.414,-0.113 c -0.071,-0.2 4.797,-26.075 10.816,-57.5 l 10.949,-57.141 13.305,-0.074 c 7.32,-0.043 13.402,0.019 13.516,0.14 0.117,0.122 0.09,0.778 -0.055,1.457 -0.148,0.684 -0.195,1.364 -0.109,1.512 0.09,0.149 0.695,-0.058 1.351,-0.457 1.735,-1.062 5.231,-2.332 8.024,-2.91 3.472,-0.723 11.351,-0.723 13.851,-0.004 6.555,1.891 10.606,6.301 10.891,11.852 0.101,2.023 -0.235,4.066 -3.129,19.062 l -3.246,16.801 -13.309,0.074 c -7.32,0.039 -13.402,-0.023 -13.511,-0.144 -0.11,-0.121 0.91,-5.969 2.265,-12.996 2.742,-14.188 2.793,-14.809 1.363,-16.145 -0.519,-0.48 -1.207,-0.816 -1.746,-0.844 -3.16,-0.16 -4.879,0.672 -5.961,2.887 -0.312,0.637 -3.988,19.23 -9.347,47.273 -4.86,25.422 -8.953,46.512 -9.098,46.868 l -0.258,0.648 h -13.215 c -10.32,0 -13.246,-0.078 -13.347,-0.359 z m 137.535,0.113 c -0.195,-0.332 21.57,-114.07 21.918,-114.543 0.211,-0.285 3.117,-0.344 13.5,-0.285 l 13.234,0.074 -0.097,1.695 -0.094,1.696 1.195,-0.723 c 3.571,-2.156 8.141,-3.324 13.985,-3.574 6.14,-0.266 9.996,0.703 14.078,3.531 3.336,2.309 4.664,4.75 4.824,8.859 0.094,2.454 -0.391,5.149 -9.527,52.77 -5.293,27.598 -9.7,50.309 -9.793,50.465 -0.106,0.176 -5.075,0.281 -13.489,0.281 h -13.32 v -0.648 c 0,-0.36 3.961,-21.321 8.801,-46.586 4.84,-25.266 8.801,-46.43 8.801,-47.032 0,-2.375 -1.34,-3.507 -4.055,-3.441 -1.856,0.043 -3.285,0.801 -4.266,2.258 -0.695,1.027 -1.531,5.164 -9.777,48.215 l -9.02,47.09 -13.375,0.074 c -7.457,0.043 -13.441,-0.035 -13.523,-0.176 z M 159.313,262.793 c 0.007,-0.434 0.839,-5.055 1.855,-10.266 l 1.844,-9.476 13.32,-0.074 c 7.328,-0.039 13.414,0.023 13.523,0.144 0.192,0.211 -3.414,19.617 -3.75,20.188 -0.101,0.168 -5.253,0.273 -13.484,0.273 h -13.32 z"
       style="fill:#020202;fill-opacity:1;fill-rule:nonzero;stroke:none"
       transform="scale(1.3333333)" />
  </g>
</svg>
