<?xml version="1.0" encoding="UTF-8" standalone="no"?>
<!-- Created with Inkscape (http://www.inkscape.org/) -->

<svg
   version="1.1"
   id="svg1"
   width="1122.5197"
   height="793.70074"
   viewBox="0 0 1122.5197 793.70074"
   xmlns="http://www.w3.org/2000/svg"
   xmlns:svg="http://www.w3.org/2000/svg">
  <defs
     id="defs1" />
  <g
     id="g1">
    <path
       id="path1"
       d="m 433.02,32.086 c -8.676,-0.082 -17.356,0.191 -24.782,0.84 -40.07,3.476 -77.449,15.515 -111.597,35.937 -27.715,16.575 -52.641,38.629 -73.84,65.328 -20.586,25.938 -38.035,59.848 -46.856,91.082 -5.207,18.418 -8.297,36.575 -9.797,57.481 -0.414,5.816 -0.414,29.973 0.004,35.519 2,26.563 6.317,48.071 14.133,70.438 16.465,47.098 47.258,90.789 85.516,121.32 18.758,14.973 41.285,28.707 60.961,37.168 16.394,7.051 32.734,12.168 50.215,15.739 8.73,1.781 16.968,3.042 31.265,4.792 4.211,0.516 37.688,0.043 49.559,-0.699 10.734,-0.672 30.281,-4.504 45.73,-8.965 38.871,-11.226 74.52,-31.566 105.469,-60.175 17.738,-16.403 35.453,-38.121 47.445,-58.18 19.387,-32.426 31.102,-65.445 36.18,-102 1.953,-14.066 2.375,-22.285 2.238,-43.559 l -0.097,-15 -0.879,-6.898 c -3.028,-23.793 -6.293,-39.297 -11.852,-56.223 -7.781,-23.699 -20.367,-48.754 -34.953,-69.578 -16.969,-24.223 -36.5,-44.484 -59.68,-61.902 C 549.039,55.719 505.211,38.418 457.801,33.398 450.379,32.609 441.699,32.172 433.02,32.086 Z m -4.141,16.43 c 27.023,0 38.113,1.183 58.32,6.211 20.805,5.175 36.754,11.089 55.442,20.55 12.972,6.567 21.394,11.653 31.527,19.032 33.746,24.574 57.309,52.156 77.023,90.164 13.93,26.851 23.106,58.988 26.079,91.32 0.847,9.227 0.964,12.23 0.96,24.719 -0.003,9.871 -0.097,13.929 -0.421,18.121 -2.746,35.277 -10.832,65.172 -25.645,94.801 -18.266,36.531 -42.031,65.324 -73.285,88.793 -29.774,22.359 -64.055,37.699 -100.801,45.109 -11.867,2.394 -19.769,3.375 -35.879,4.461 -5.437,0.367 -15.312,0.617 -17.758,0.457 -0.726,-0.051 -3.589,-0.203 -6.363,-0.344 -42.754,-2.144 -87.031,-16.41 -122.914,-39.601 -9.121,-5.895 -19.441,-13.602 -26.426,-19.735 -8.629,-7.574 -23.687,-22.894 -30.511,-31.039 -2.372,-2.828 -8.661,-11.199 -11.715,-15.582 -20.532,-29.496 -34.907,-63.918 -40.981,-98.125 -6.019,-33.871 -5.593,-69.156 1.219,-101.676 6.566,-31.355 17.352,-57.273 35.574,-85.511 6.684,-10.356 12.465,-18.032 19.836,-26.325 7.34,-8.257 22.176,-22.98 28.563,-28.343 4.64,-3.899 18.543,-14.094 24.371,-17.871 30.039,-19.477 69.621,-34.016 104.144,-38.254 9.692,-1.188 12.895,-1.332 29.641,-1.332 z m 10.844,91.64 c -0.125,0 -0.235,0.02 -0.336,0.059 -0.34,0.121 -0.817,0.488 -1.063,0.816 -0.972,1.317 -1.14,5.324 -0.297,7.106 0.52,1.097 2.75,3.644 4.332,4.949 3.582,2.953 6.536,3.953 21.321,7.242 7.246,1.61 10.199,2.106 15.242,2.563 1.648,0.148 3.082,0.347 3.187,0.445 0.344,0.324 3.243,7.781 3.137,8.062 -0.078,0.2 -2.574,0.325 -8.648,0.442 -4.7,0.086 -9,0.277 -9.563,0.422 -0.578,0.144 -1.328,0.57 -1.711,0.968 -0.566,0.594 -0.679,0.915 -0.668,1.879 0.035,2.422 2.578,6.141 5.184,7.571 1.219,0.668 1.414,0.699 4.039,0.675 4.32,-0.039 9.422,-0.914 14.57,-2.5 4.043,-1.242 5.242,-2.035 5.789,-3.824 0.145,-0.461 0.336,-3.144 0.426,-5.961 0.125,-3.777 0.246,-5.148 0.469,-5.234 0.168,-0.066 1.472,0.051 2.906,0.254 10.738,1.531 17,1.918 31.039,1.918 16.125,-0.004 24.656,-0.524 35.352,-2.145 6.246,-0.949 6.547,-0.968 6.746,-0.449 0.547,1.426 -0.336,5.078 -2.047,8.453 l -1.371,2.715 0.719,0.645 c 2.941,2.636 4.418,2.621 6.871,-0.063 0.968,-1.062 4.422,-5.742 5.164,-7 0.086,-0.148 -0.27,-1.5 -0.793,-3 -1.114,-3.184 -1.168,-3.742 -0.418,-4.027 1.254,-0.473 18.75,-4.098 21.051,-4.36 3.238,-0.371 8.859,-0.175 10.308,0.356 1.977,0.722 4.235,3.101 5.789,6.097 0.473,0.915 0.504,1.145 0.258,1.969 -0.152,0.512 -0.566,1.274 -0.918,1.692 l -0.637,0.757 -3.379,-0.171 c -3.054,-0.153 -3.515,-0.122 -4.781,0.324 -1.918,0.676 -4.699,2.449 -6.554,4.187 -2.45,2.289 -2.821,3.469 -1.458,4.617 1.504,1.27 4.461,2.379 11.219,4.211 2.309,0.625 4.371,1.145 4.578,1.157 0.438,0.023 6.352,-6.516 8.629,-9.539 1.864,-2.477 2.61,-3.977 2.942,-5.922 0.976,-5.715 -4.942,-14.293 -11.223,-16.27 -1.609,-0.508 -2.074,-0.531 -10.566,-0.531 -10.813,0 -10.786,0 -27.957,3.609 -17.707,3.719 -34.461,5.399 -50.641,5.071 -9.492,-0.196 -12.481,-0.629 -12.481,-1.817 0,-0.859 0.708,-0.996 3.762,-0.746 3.852,0.32 11.856,0.309 13.156,-0.019 1.063,-0.27 2.797,-1.547 3.254,-2.399 0.207,-0.387 0.078,-0.613 -0.781,-1.406 -1.957,-1.809 -6.777,-3.789 -10.941,-4.492 -3.727,-0.633 -7.137,0.023 -14.207,2.722 -10.047,3.836 -11.77,4.27 -16.172,4.106 -2.36,-0.09 -3.66,-0.297 -6.871,-1.098 -4.914,-1.222 -7.461,-1.578 -15.957,-2.211 -11.551,-0.859 -12.289,-1.133 -21.434,-7.976 -5.141,-3.848 -6.707,-4.895 -7.566,-4.899 z m -12.141,0.207 c -1.238,0 -3.246,1.032 -7.965,3.742 -2.562,1.473 -5.617,3.067 -6.789,3.54 -9.23,3.714 -29.191,6.894 -40.941,6.519 -5.086,-0.16 -5.407,-0.246 -11.285,-3.039 -7.883,-3.742 -10.801,-4.379 -15.989,-3.488 -5,0.859 -10.156,3.371 -11.441,5.574 -0.387,0.664 -0.41,0.894 -0.172,1.621 0.602,1.82 2.09,2.09 12,2.141 6.168,0.035 8.176,0.121 8.625,0.363 0.523,0.289 0.543,0.348 0.184,0.609 -0.582,0.43 -7.356,0.606 -23.106,0.606 l -13.695,0.004 -12.945,-2.297 c -13.18,-2.336 -23.141,-4.207 -30.461,-5.719 -11.887,-2.457 -18.778,-2.133 -23.7,1.117 -1.867,1.235 -6.265,5.606 -7.433,7.391 -1.34,2.051 -1.946,4.058 -1.942,6.465 0,2.472 0.528,4.004 2.262,6.597 1.328,1.985 5.539,6.114 7.719,7.571 1.699,1.136 2.676,1.429 4.746,1.433 4.137,0.004 11.754,-3.367 13.039,-5.769 0.441,-0.824 0.445,-0.879 0.023,-1.762 -0.57,-1.203 -2.859,-2.914 -6.082,-4.551 -3.316,-1.683 -5.558,-2.558 -6.554,-2.558 -0.969,0 -2.258,0.742 -2.473,1.422 -0.328,1.031 -1.402,0.246 -2.269,-1.661 -0.649,-1.433 -0.622,-2.027 0.14,-3.339 0.981,-1.688 3.488,-5.399 3.781,-5.598 0.625,-0.426 11.961,0.035 16.684,0.672 3.062,0.418 5.219,0.847 11.176,2.238 7.855,1.832 19.265,3.918 25.679,4.691 7.852,0.95 16.344,1.329 29.641,1.329 11.977,-0.004 14.598,-0.125 25.441,-1.204 4.028,-0.402 7.59,-0.753 7.918,-0.781 l 0.602,-0.051 0.152,4.204 c 0.086,2.308 0.278,4.507 0.426,4.89 0.535,1.352 1.289,2.09 3.938,3.852 4.433,2.949 8.429,4.773 12.164,5.551 0.886,0.183 2.699,0.304 4.199,0.273 2.394,-0.043 2.746,-0.109 3.754,-0.703 1.59,-0.93 3.183,-2.82 4.293,-5.074 1.578,-3.215 1.719,-5.188 0.445,-6.258 -1.098,-0.922 -2.422,-0.985 -8.125,-0.367 -5.871,0.632 -9.676,0.722 -10.535,0.254 -0.512,-0.278 -0.555,-0.422 -0.418,-1.403 0.199,-1.469 2.066,-6.949 2.59,-7.617 0.351,-0.445 0.754,-0.559 2.472,-0.699 2.813,-0.227 7.442,-0.934 13.446,-2.047 2.769,-0.516 7.199,-1.274 9.84,-1.688 8.808,-1.379 9.089,-1.492 12.726,-5.144 5.672,-5.699 7.613,-9.602 5.613,-11.281 -0.429,-0.36 -0.832,-0.571 -1.398,-0.571 z m -144.914,67.106 -0.766,1.246 c -0.98,1.594 -1.226,2.945 -0.949,5.242 0.305,2.516 0.809,4.16 1.461,4.773 0.305,0.286 2.309,1.438 4.457,2.563 2.145,1.125 4.281,2.336 4.746,2.687 0.594,0.458 1.227,1.422 2.16,3.309 l 1.317,2.664 0.144,62.039 c 0.16,70.949 0.047,78.531 -1.277,82.68 -0.711,2.242 -1.793,3.207 -6.563,5.875 -5.593,3.129 -6.238,3.961 -6.425,8.277 -0.102,2.36 -0.086,2.442 0.711,3.969 l 0.812,1.562 36.711,-0.019 c 49.582,-0.023 54.422,-0.281 67.559,-3.578 11.961,-3.004 19.836,-6.457 30.207,-13.25 2.32,-1.52 3.535,-2.184 3.695,-2.024 0.562,0.563 -1.137,2.164 -5.891,5.539 -4.937,3.508 -6.043,5.11 -6.047,8.77 0,1.293 0.122,2.375 0.301,2.695 0.797,1.422 3,1.782 12.047,1.981 19.102,0.414 55.731,0.129 58.801,-0.461 2.348,-0.449 3.121,-1.852 3.113,-5.656 -0.004,-2.657 -0.41,-3.664 -2.078,-5.168 -0.687,-0.618 -2.684,-1.848 -4.656,-2.871 -4.324,-2.239 -5.414,-3.235 -6.164,-5.641 -0.739,-2.352 -0.989,-4.789 -1.242,-12.238 -0.332,-9.59 -0.59,-54.032 -0.317,-54.2 0.121,-0.078 1.227,0.067 2.453,0.317 3.774,0.773 7.528,2.883 10.063,5.652 2.398,2.629 17.051,25.129 30.074,46.188 6.191,10.015 7.813,13.195 8.051,15.82 0.16,1.769 -0.149,2.355 -2.621,5.019 -3.168,3.407 -5.129,6.739 -5.379,9.129 -0.141,1.329 0.609,2.848 1.652,3.348 1.36,0.652 6.938,0.758 39.543,0.762 l 33.492,0.004 0.891,-1.168 c 1.09,-1.434 1.351,-2.68 1.082,-5.196 -0.356,-3.332 -1.395,-4.691 -5.328,-6.957 -4.067,-2.343 -5.098,-3.109 -7.719,-5.738 -4.406,-4.414 -8.719,-10.57 -25.672,-36.621 -23.828,-36.613 -34.097,-52.754 -33.906,-53.289 0.117,-0.328 8.941,-10.563 20.691,-23.992 28.743,-32.844 30.598,-34.696 39.297,-39.141 2.141,-1.094 4.672,-2.508 5.621,-3.141 2.075,-1.39 2.512,-2.234 2.684,-5.171 0.137,-2.36 -0.188,-3.848 -1.188,-5.407 l -0.726,-1.14 h -69.047 l -0.637,0.84 c -1.383,1.808 -1.644,4.011 -0.808,6.722 0.652,2.117 1.636,3.059 5.726,5.485 3.719,2.207 4.742,3.046 5.317,4.355 1.285,2.918 0.55,8.899 -1.715,13.949 -2.199,4.907 -7.496,12.547 -16.52,23.848 -7.191,9.004 -15.773,18.59 -19.828,22.137 -2.558,2.242 -4.156,3.058 -7.965,4.07 -2.215,0.586 -3.355,0.754 -5.234,0.773 l -2.399,0.02 -0.07,-18.117 c -0.105,-27.387 0.32,-38.813 1.602,-42.934 1.004,-3.222 2.133,-4.418 6.468,-6.875 4.129,-2.336 5.575,-3.531 6.09,-5.039 0.477,-1.391 0.563,-4.777 0.16,-6.23 -0.144,-0.524 -0.585,-1.422 -0.984,-1.996 l -0.715,-1.047 -33.875,0.117 c -21.496,0.074 -34.39,0.207 -35.281,0.363 -2.371,0.414 -3.145,1.621 -3.117,4.84 0.015,1.578 0.219,2.496 0.914,4.141 0.312,0.734 -0.672,0.5 -4.629,-1.114 -7,-2.855 -13.773,-4.757 -21.762,-6.117 -11.898,-2.019 -11.211,-1.996 -58.707,-2.121 z m 67.398,18.797 c 5.797,0.015 10.551,0.347 13.536,0.949 5.859,1.183 13.281,4.558 18.312,8.328 9.906,7.422 16.512,19.633 19.949,36.891 1.91,9.578 2.297,15.394 2.098,31.558 -0.176,14.36 -0.535,19.621 -1.754,25.68 -3.648,18.16 -9.914,30.734 -18.687,37.531 -2.5,1.938 -3.403,2.504 -6.266,3.942 -6.348,3.183 -12.242,4.441 -22.774,4.847 -7.027,0.27 -12.933,0.309 -13.16,0.082 -0.191,-0.195 -0.152,-96.715 0.055,-127.761 l 0.145,-21.961 6,-0.075 c 0.867,-0.007 1.718,-0.015 2.546,-0.011 z m -95.609,57.82 c -2.039,0.055 -4.016,0.519 -5.414,1.34 -2.766,1.621 -6.32,5.488 -7.578,8.246 -1.457,3.191 -2.024,8.012 -1.61,13.683 0.368,5.028 1.083,7.157 3.61,10.735 1.848,2.621 4.375,4.43 7.277,5.211 1.875,0.508 5.047,0.457 7.281,-0.11 4.157,-1.058 8.301,-5.214 9.938,-9.961 1.086,-3.152 1.629,-9.382 1.207,-13.796 -0.527,-5.442 -1.664,-8.168 -4.676,-11.172 -2.156,-2.153 -4.008,-3.258 -6.394,-3.821 -1.164,-0.273 -2.414,-0.386 -3.641,-0.355 z m 358.633,0.031 c -1.297,0.059 -3.117,0.715 -5.688,1.996 -3.488,1.735 -5.761,3.188 -8.265,5.278 -3.184,2.656 -3.977,4.285 -2.817,5.761 l 0.524,0.664 2.418,-0.195 c 1.328,-0.109 2.902,-0.203 3.5,-0.211 l 1.078,-0.019 0.062,9.214 c 0.043,6.262 -0.019,9.309 -0.191,9.52 -0.141,0.168 -1.035,0.773 -1.984,1.344 -2.563,1.539 -4.004,2.957 -4.004,3.941 0,1.512 1.047,1.93 5.757,2.278 3.165,0.238 12.891,0.074 15.598,-0.258 2.367,-0.293 3.207,-0.766 3.317,-1.864 0.097,-1.003 -1.082,-2.285 -3.961,-4.293 l -2.235,-1.558 -0.008,-11.801 c -0.011,-13.566 -0.218,-17.945 -0.906,-18.871 -0.488,-0.66 -1.183,-0.973 -2.195,-0.926 z m -388.414,0.043 c -4.766,-0.086 -12.27,1.309 -14.578,2.86 -1.325,0.89 -1.539,1.585 -1.539,4.972 0,2.414 0.082,3.153 0.421,3.774 0.997,1.82 2.653,1.718 6.122,-0.379 1.355,-0.817 3.296,-1.848 4.32,-2.293 3.492,-1.52 3.543,-1.496 3.523,1.59 -0.023,3.961 -0.718,5.41 -5.824,12.16 -5.676,7.5 -9.398,13.062 -9.398,14.047 0,0.234 0.351,0.785 0.785,1.218 0.937,0.938 2.297,1.278 6.273,1.571 3.293,0.246 14.758,0.086 17.137,-0.239 2.172,-0.296 2.891,-0.632 3.465,-1.621 0.586,-1 1.137,-4.433 1.137,-7.086 0,-1.781 -0.071,-2.175 -0.481,-2.582 -0.742,-0.746 -2.664,-0.617 -7.199,0.481 -3.883,0.937 -5.762,1.18 -5.762,0.738 0,-0.336 1.473,-2.211 4.442,-5.66 7.164,-8.32 7.863,-9.566 7.843,-13.969 -0.015,-2.902 -0.465,-3.91 -2.742,-6.16 -2.199,-2.168 -3.641,-2.945 -6.09,-3.289 -0.547,-0.078 -1.172,-0.121 -1.855,-0.133 z m 416.5,0.063 c -2.059,-0.012 -4.446,0.234 -7.297,0.715 -2.961,0.5 -4.516,1.132 -5.527,2.253 -1.141,1.262 -1.418,2.457 -1.317,5.68 0.074,2.274 0.164,2.793 0.59,3.367 0.82,1.102 1.969,1.024 4.297,-0.281 3.695,-2.074 6.777,-3.523 7.801,-3.66 l 1.027,-0.137 -0.121,1.656 c -0.16,2.27 -0.766,3.352 -2.602,4.668 -4.523,3.239 -5.265,3.996 -5.265,5.356 0,1.324 1.379,2.082 5.277,2.898 l 2.52,0.528 0.152,1.543 c 0.086,0.851 0.168,2.582 0.184,3.847 0.023,1.992 -0.036,2.36 -0.438,2.719 -0.605,0.547 -0.668,0.527 -6.156,-2.191 -3.66,-1.813 -4.813,-2.274 -5.727,-2.309 -0.984,-0.035 -1.215,0.047 -1.629,0.594 -0.613,0.808 -0.855,4.246 -0.441,6.246 0.684,3.301 3.559,5.25 8.414,5.715 2.656,0.258 2.531,0.258 5.633,-0.016 4.785,-0.418 7.347,-1.633 10.437,-4.937 2.309,-2.473 2.891,-3.727 2.891,-6.227 0,-2.84 -0.621,-4.621 -2.699,-7.699 -2.121,-3.141 -2.149,-3.426 -0.551,-6 1.984,-3.199 2.527,-4.293 2.684,-5.446 0.218,-1.582 -0.422,-3.085 -2.028,-4.769 -2.672,-2.805 -5.586,-4.086 -10.109,-4.113 z m -385.946,7.566 c 0.137,-0.012 0.27,-0.008 0.387,0.004 0.582,0.066 0.735,0.242 1.004,1.16 0.777,2.61 0.82,19.453 0.055,21.543 -0.156,0.434 -0.485,0.891 -0.727,1.02 -0.636,0.343 -2.527,0.289 -2.832,-0.078 -0.726,-0.875 -0.875,-2.985 -0.875,-12.407 -0.004,-7.097 0.074,-9.609 0.297,-9.996 0.316,-0.555 1.715,-1.172 2.691,-1.246 z m -7.007,123.016 -2.555,2.613 c -3.211,3.285 -6.727,7.652 -7.82,9.719 -1.715,3.242 -1.641,5.113 0.351,9.215 1.977,4.058 4.731,6.894 8.524,8.777 2.988,1.484 4.648,1.754 10.797,1.758 7.742,0.008 13.128,-0.68 27,-3.453 17.027,-3.403 27.265,-4.707 41.578,-5.309 9.203,-0.383 22.636,0.203 23.64,1.039 0.469,0.387 0.364,0.625 -0.461,1.051 -0.636,0.328 -1.254,0.371 -3.781,0.25 -9.601,-0.461 -10.203,-0.465 -11.562,-0.07 -4.965,1.445 -4.2,4.441 1.769,6.906 3.242,1.34 5.297,1.765 8.336,1.738 3.379,-0.031 5.641,-0.59 11.606,-2.875 9.57,-3.664 12.164,-4.316 16.234,-4.09 1.387,0.078 4.031,0.469 5.883,0.867 6.414,1.387 10.183,1.938 14.898,2.172 12.856,0.641 15.117,1.453 23.918,8.575 1.703,1.378 3.809,3.039 4.676,3.687 0.867,0.648 1.773,1.18 2.019,1.18 0.707,0 2.329,-1.629 2.602,-2.606 0.387,-1.39 0.289,-4.113 -0.18,-5.129 -0.66,-1.425 -2.894,-3.949 -4.965,-5.613 -3.382,-2.715 -6.398,-3.906 -14.171,-5.602 -2.508,-0.546 -6.664,-1.468 -9.239,-2.046 -6.371,-1.438 -7.078,-1.555 -10.843,-1.801 -3.422,-0.223 -4.2,-0.449 -5.184,-1.504 -0.664,-0.715 -2.691,-5.133 -2.691,-5.875 -0.004,-0.992 0.871,-1.27 4.832,-1.512 15.148,-0.941 15.238,-0.961 15.023,-3.722 -0.141,-1.797 -1.555,-4.809 -2.937,-6.262 -1.485,-1.555 -2.899,-1.871 -7.559,-1.695 -9.574,0.367 -17.426,3.07 -19.09,6.578 -0.348,0.734 -0.453,1.73 -0.543,5.226 -0.062,2.375 -0.203,4.563 -0.312,4.86 -0.258,0.687 -0.899,0.695 -5.649,0.07 -10.48,-1.379 -16.816,-1.77 -28.765,-1.766 -14.559,0.008 -27.145,0.973 -37.293,2.864 -4.817,0.898 -4.481,0.945 -4.414,-0.629 0.089,-2.223 0.793,-4.52 2.269,-7.407 0.777,-1.519 1.383,-2.886 1.344,-3.043 -0.11,-0.449 -2.383,-2.308 -3.278,-2.679 -0.449,-0.192 -1.078,-0.278 -1.398,-0.199 -0.898,0.226 -2.621,1.941 -4.566,4.542 -3.235,4.336 -3.371,4.903 -2.094,8.68 1.039,3.082 0.973,3.469 -0.598,3.469 -1.258,0 -5.258,0.75 -11.535,2.164 -9.703,2.184 -13.566,2.578 -17.469,1.773 -2.328,-0.476 -3.281,-0.925 -4.386,-2.062 -1.2,-1.238 -3.336,-4.367 -3.594,-5.27 -0.262,-0.918 0.121,-1.933 1.203,-3.164 0.789,-0.898 1.367,-1.07 2.164,-0.644 1.148,0.613 3.16,0.941 4.398,0.715 1.84,-0.336 5.793,-2.383 7.723,-4 1.82,-1.528 3.242,-3.399 3.242,-4.278 0,-0.609 -1,-1.562 -2.371,-2.258 -2.269,-1.148 -10.258,-3.421 -13.199,-3.753 z m 223.019,0.679 c -3.043,-0.007 -3.851,0.063 -4.441,0.391 -1.836,1.02 -4.164,4.41 -5.278,7.684 -0.796,2.347 -0.722,3 0.465,4.191 0.95,0.949 1.754,1.016 5.41,0.43 1.254,-0.2 4.68,-0.43 7.61,-0.512 4.805,-0.133 5.39,-0.105 5.965,0.27 0.55,0.363 0.613,0.527 0.476,1.25 -0.187,1.003 -2.691,7.046 -3.09,7.453 -0.152,0.156 -1.629,0.453 -3.281,0.656 -1.648,0.199 -5.16,0.754 -7.797,1.23 -2.64,0.477 -6.797,1.227 -9.242,1.668 -2.441,0.442 -6.004,0.977 -7.918,1.192 -4.387,0.496 -5.098,0.679 -6.719,1.746 -1.597,1.047 -5.554,4.945 -6.918,6.824 -1.285,1.758 -2.593,4.184 -2.8,5.176 -0.211,1.023 0.269,2.437 0.921,2.699 0.282,0.117 0.653,0.219 0.825,0.227 0.73,0.035 3.449,-1.09 5.91,-2.446 5.101,-2.808 7.973,-4.246 10.445,-5.226 6.57,-2.606 14.711,-4.246 29.176,-5.887 4.5,-0.512 6.25,-0.605 9.48,-0.516 4.774,0.133 5.883,0.411 11.266,2.84 5.402,2.438 7.578,3.242 9.652,3.574 2.477,0.395 8.942,0.18 10.883,-0.359 2.567,-0.719 4.887,-1.992 6.504,-3.574 1.52,-1.492 2.043,-2.547 1.609,-3.25 -0.675,-1.102 -5.542,-1.656 -14.957,-1.711 -3.984,-0.02 -5.546,-0.191 -5.687,-0.621 -0.313,-0.938 4.773,-1.113 23.57,-0.813 l 16.559,0.266 10.082,1.793 c 13.191,2.351 21.793,3.992 27.117,5.176 6.387,1.414 8.352,1.668 14.059,1.816 5.715,0.149 7.66,-0.055 9.789,-1.019 3.402,-1.551 7.183,-4.903 9.629,-8.547 1.761,-2.625 2.453,-4.399 2.589,-6.625 0.098,-1.606 0.043,-1.875 -0.73,-3.481 -1.602,-3.332 -4.98,-7.449 -8.199,-10 -2.215,-1.758 -3.332,-2.238 -5.453,-2.367 -2.371,-0.141 -5.379,0.688 -8.598,2.371 -2.246,1.176 -6.004,4.078 -6.004,4.637 0,0.461 1.914,2.176 3.719,3.328 2.035,1.301 6.16,3.391 8.25,4.176 1.887,0.711 2.785,0.504 3.914,-0.903 0.418,-0.515 0.836,-0.937 0.93,-0.937 0.097,0 0.531,0.555 0.968,1.23 1.383,2.161 0.981,3.907 -1.906,8.25 l -1.117,1.676 -6.957,-0.027 c -8.18,-0.031 -9.527,-0.192 -18.961,-2.25 -13.27,-2.895 -22.664,-4.442 -34.199,-5.625 -6.828,-0.703 -10.821,-0.867 -21.121,-0.871 -14.141,-0.008 -21.352,0.371 -30.661,1.617 -3.574,0.48 -4.933,0.582 -5.132,0.383 -0.16,-0.16 -0.309,-1.739 -0.375,-4.067 -0.129,-4.34 -0.293,-5.07 -1.434,-6.332 -1.684,-1.863 -9.289,-6.242 -13.16,-7.578 -1.766,-0.609 -2.219,-0.664 -5.637,-0.676 z"
       style="fill:#030303;fill-opacity:1;fill-rule:nonzero;stroke:none"
       transform="scale(1.3333333)" />
  </g>
</svg>
