<?xml version="1.0" encoding="UTF-8" standalone="no"?>
<!-- Created with Inkscape (http://www.inkscape.org/) -->

<svg
   version="1.1"
   id="svg1"
   width="1122.5197"
   height="793.70074"
   viewBox="0 0 1122.5197 793.70074"
   xmlns="http://www.w3.org/2000/svg"
   xmlns:svg="http://www.w3.org/2000/svg">
  <defs
     id="defs1" />
  <g
     id="g1">
    <path
       id="path1"
       d="m 402.82,516.832 c -17.175,-1.769 -32.465,-5.793 -47.199,-12.418 -27.215,-12.23 -47.512,-32.949 -60.945,-62.207 -1.324,-2.887 -2.75,-5.363 -3.164,-5.508 -0.418,-0.14 -4.524,0.649 -9.125,1.754 -4.602,1.11 -19.461,4.641 -33.02,7.848 -13.558,3.207 -25.804,6.144 -27.215,6.523 -3.23,0.871 -4.047,0.867 -4.429,-0.019 -0.168,-0.391 -0.305,-6.035 -0.305,-12.543 0,-6.957 -0.195,-11.942 -0.477,-12.098 -0.261,-0.144 -5.41,0.941 -11.445,2.41 -12.926,3.149 -56.683,13.563 -70.277,16.727 -5.223,1.215 -9.621,2.097 -9.774,1.961 -0.367,-0.324 0.844,-1.774 8.446,-10.114 6.675,-7.328 14.648,-16.125 25.422,-28.058 3.566,-3.949 8.8,-9.735 11.628,-12.852 15.887,-17.515 15.872,-17.492 15.192,-18.222 -0.602,-0.645 -20.906,-16.145 -36.844,-28.125 -3.898,-2.93 -8.016,-6.063 -9.152,-6.961 -1.133,-0.895 -3.227,-2.5 -4.653,-3.563 -1.425,-1.062 -2.589,-2.183 -2.589,-2.488 0,-0.344 3.8,-1.465 9.933,-2.934 5.465,-1.308 16.051,-3.851 23.524,-5.648 7.468,-1.801 19.695,-4.731 27.168,-6.512 7.472,-1.785 17.773,-4.246 22.89,-5.476 12.723,-3.051 37.957,-9.079 46.641,-11.141 3.933,-0.93 7.269,-1.582 7.422,-1.449 0.152,0.136 0.277,5.898 0.277,12.804 v 12.555 l 2.137,-0.273 c 3.793,-0.489 10.312,-2.504 10.761,-3.332 0.235,-0.43 0.54,-29.266 0.68,-64.082 l 0.258,-63.297 h 72.422 l 2.43,5.129 c 1.335,2.824 2.359,5.625 2.277,6.222 l -0.152,1.086 -30.004,-0.066 c -27.051,-0.063 -30.082,0.004 -30.817,0.66 -0.746,0.664 -0.804,5.922 -0.687,60.738 l 0.129,60.012 1.757,-0.027 c 0.969,-0.016 4.028,-0.59 6.793,-1.274 5.825,-1.437 13.809,-3.332 16.352,-3.875 0.969,-0.207 2.668,-0.605 3.773,-0.886 1.11,-0.278 2.805,-0.676 3.774,-0.887 0.969,-0.207 2.555,-0.606 3.523,-0.883 0.969,-0.281 2.664,-0.691 3.774,-0.91 1.105,-0.223 3.711,-0.836 5.785,-1.367 2.074,-0.532 6.379,-1.571 9.558,-2.313 10.086,-2.344 19.965,-4.691 22.641,-5.375 0.969,-0.25 2.668,-0.625 3.774,-0.836 1.109,-0.207 2.804,-0.586 3.773,-0.836 0.969,-0.254 4.254,-1.058 7.297,-1.793 3.043,-0.734 7.23,-1.777 9.308,-2.312 2.075,-0.539 4.563,-1.141 5.532,-1.34 1.734,-0.356 7.75,-1.781 19.121,-4.527 3.179,-0.77 6.633,-1.579 7.672,-1.805 3.672,-0.789 5.722,-1.27 11.445,-2.668 3.184,-0.781 6.578,-1.586 7.547,-1.793 0.969,-0.203 3.461,-0.813 5.535,-1.348 2.074,-0.539 5.359,-1.347 7.297,-1.804 1.933,-0.453 6.238,-1.457 9.558,-2.235 3.321,-0.777 6.829,-1.609 7.797,-1.851 0.969,-0.239 2.555,-0.606 3.524,-0.817 0.969,-0.207 2.551,-0.605 3.519,-0.883 0.969,-0.281 2.668,-0.695 3.774,-0.917 1.89,-0.383 8.191,-1.848 11.574,-2.692 7.121,-1.773 9.805,-2.418 11.32,-2.715 0.969,-0.191 3.074,-0.672 4.676,-1.066 1.606,-0.395 3.324,-0.715 3.824,-0.715 0.496,0 1.278,-0.371 1.735,-0.82 0.757,-0.75 0.832,-3.746 0.832,-33.805 0,-25.055 -0.145,-33.113 -0.602,-33.523 -0.457,-0.407 -7.668,-0.539 -29.371,-0.539 -23.84,0 -28.867,-0.106 -29.344,-0.618 -0.316,-0.343 -1.25,-0.742 -2.074,-0.886 -0.918,-0.164 -1.5,-0.547 -1.5,-0.993 0,-1.121 3.188,-9.359 3.766,-9.73 0.281,-0.184 16.699,-0.285 36.484,-0.227 l 35.977,0.11 0.25,33.086 c 0.179,23.886 0.41,33.226 0.824,33.597 0.43,0.383 3.027,-0.078 10.316,-1.824 5.356,-1.281 13.813,-3.289 18.797,-4.465 4.981,-1.172 15.16,-3.578 22.617,-5.347 7.461,-1.774 13.86,-3.121 14.215,-3 0.508,0.175 0.649,2.863 0.649,12.359 0,10.469 0.105,12.137 0.753,12.137 0.86,0 9.352,-1.949 26.415,-6.055 6.503,-1.566 17.937,-4.301 25.41,-6.074 7.468,-1.774 19.695,-4.699 27.168,-6.5 7.472,-1.801 13.754,-3.184 13.965,-3.07 0.316,0.171 -9.051,10.773 -23.528,26.636 -1.691,1.852 -6.894,7.606 -11.57,12.789 -12.774,14.168 -20.813,23.051 -23.527,25.985 -1.34,1.445 -2.368,2.976 -2.286,3.398 0.086,0.426 3.664,3.461 7.953,6.75 4.29,3.289 16.239,12.449 26.555,20.352 10.317,7.902 18.676,14.586 18.578,14.847 -0.097,0.266 -3.898,1.348 -8.441,2.407 -4.547,1.058 -12.34,2.918 -17.32,4.132 -4.981,1.215 -15.508,3.75 -23.395,5.633 -7.887,1.883 -20.113,4.817 -27.172,6.512 -7.055,1.695 -19.281,4.625 -27.168,6.512 -7.887,1.882 -18.449,4.422 -23.476,5.636 -5.024,1.219 -9.496,2.219 -9.934,2.219 -0.699,0 -0.801,-0.93 -0.801,-7.34 0,-4.035 -0.148,-9.793 -0.328,-12.793 -0.289,-4.797 -0.437,-5.457 -1.215,-5.457 -1.843,0 -11.191,2.192 -11.793,2.766 -0.402,0.387 -0.836,3.504 -1.211,8.68 -2.07,28.757 -5.16,43.214 -12.773,59.773 -9.523,20.707 -24.027,38.195 -41.356,49.863 -16.242,10.934 -36.417,18.578 -57.332,21.719 -6.738,1.012 -22.648,1.496 -28.703,0.875 z m 25.66,-13.852 c 24.95,-3.046 46.739,-13.046 64.942,-29.812 8.625,-7.941 17.883,-20.98 23.894,-33.645 3.004,-6.332 2.989,-6.293 5.473,-14.293 3.828,-12.32 5.371,-24.988 5.191,-42.617 -0.062,-6.277 -0.324,-11.601 -0.578,-11.828 -0.445,-0.398 -2.297,-0.125 -6.601,0.965 -2.633,0.668 -8.711,2.121 -14.086,3.371 -2.629,0.609 -6.137,1.445 -7.797,1.859 -1.66,0.415 -3.813,0.922 -4.781,1.133 -0.969,0.207 -4.364,1.016 -7.547,1.797 -3.184,0.778 -6.578,1.586 -7.547,1.801 -0.969,0.211 -4.137,0.973 -7.043,1.691 -11.031,2.731 -13.488,3.328 -18.867,4.571 -3.043,0.703 -6.836,1.593 -8.43,1.984 -1.59,0.387 -4.082,0.992 -5.531,1.34 -1.453,0.344 -2.984,0.75 -3.399,0.898 -0.414,0.149 -2.226,0.563 -4.023,0.918 -1.801,0.36 -4.969,1.078 -7.043,1.598 -4.094,1.027 -9.16,2.254 -15.094,3.652 -2.078,0.492 -4.566,1.094 -5.535,1.34 -0.969,0.246 -2.555,0.621 -3.523,0.832 -2.25,0.488 -9.352,2.192 -11.321,2.711 -0.828,0.219 -3.207,0.797 -5.281,1.285 -2.078,0.485 -5.926,1.387 -8.555,2.004 -2.628,0.617 -6.136,1.457 -7.796,1.871 -1.661,0.414 -3.813,0.914 -4.782,1.11 -0.968,0.199 -3.457,0.8 -5.535,1.336 -2.074,0.535 -4.562,1.148 -5.531,1.359 -0.969,0.215 -2.555,0.594 -3.524,0.84 -2.003,0.508 -8.019,1.957 -13.585,3.273 -2.075,0.492 -4.563,1.094 -5.532,1.336 -0.968,0.246 -2.554,0.625 -3.523,0.836 -0.969,0.215 -2.555,0.59 -3.524,0.832 -4.953,1.238 -13.511,3.262 -14.839,3.508 -3.395,0.625 -3.446,1.25 -0.707,8.23 1.113,2.84 2.246,5.813 2.515,6.606 0.922,2.703 9.02,16.656 12.106,20.855 12.113,16.481 28.3,29.11 46.894,36.594 15.75,6.336 29.121,8.719 47.363,8.438 5.258,-0.082 11.145,-0.34 13.082,-0.579 z m -23.648,-10.664 c -3.32,-0.32 -7.168,-0.808 -8.555,-1.086 -1.382,-0.281 -3.418,-0.683 -4.527,-0.894 -1.105,-0.215 -2.805,-0.594 -3.773,-0.844 -0.969,-0.25 -2.329,-0.597 -3.02,-0.773 -1.816,-0.461 -9.309,-3.231 -12.609,-4.656 -18.582,-8.032 -34.684,-22.731 -45.114,-41.18 -3.586,-6.344 -6.324,-12.371 -6.089,-13.403 0.191,-0.847 1.527,-1.277 10.609,-3.402 1.176,-0.277 2.703,-0.676 3.394,-0.89 0.692,-0.215 2.618,-0.68 4.278,-1.036 2.855,-0.609 4.949,-1.109 11.699,-2.781 1.59,-0.394 3.684,-0.887 4.652,-1.09 0.969,-0.207 2.555,-0.578 3.524,-0.824 2.367,-0.602 9.387,-2.281 11.57,-2.769 0.969,-0.219 2.668,-0.598 3.774,-0.844 1.105,-0.25 3.597,-0.852 5.535,-1.34 1.937,-0.488 6.804,-1.633 10.816,-2.551 4.012,-0.914 7.746,-1.816 8.301,-2.008 1.156,-0.394 6.703,-1.742 9.308,-2.261 0.969,-0.192 2.555,-0.551 3.524,-0.797 0.969,-0.246 3.457,-0.852 5.531,-1.34 4.606,-1.09 10.559,-2.516 15.598,-3.734 2.074,-0.5 4.566,-1.083 5.535,-1.29 0.969,-0.203 2.668,-0.601 3.773,-0.882 1.106,-0.278 2.805,-0.684 3.774,-0.895 0.969,-0.215 2.555,-0.594 3.523,-0.84 1.723,-0.437 5.91,-1.441 13.207,-3.168 5.957,-1.406 9.489,-2.269 12.953,-3.152 1.801,-0.457 3.836,-0.941 4.528,-1.07 0.691,-0.133 2.051,-0.442 3.019,-0.688 0.969,-0.246 3.461,-0.848 5.535,-1.34 5.122,-1.203 12.172,-2.886 19.079,-4.554 3.164,-0.762 6.078,-1.274 6.48,-1.137 0.547,0.187 0.649,0.672 0.402,1.926 -0.179,0.922 -0.543,4.402 -0.808,7.738 -1.465,18.488 -4.024,29.414 -10.047,42.871 -1.898,4.234 -6.559,12.477 -8.43,14.902 -0.726,0.942 -2.226,2.922 -3.332,4.403 -10.371,13.863 -27.867,26.57 -44.347,32.207 -9.848,3.367 -14.301,4.304 -26.164,5.492 -7.618,0.762 -9.02,0.762 -17.106,-0.02 z m 22.516,-2.062 c 0.828,-0.383 0.879,-2.883 0.879,-42.789 0,-23.313 -0.18,-42.481 -0.403,-42.606 -0.426,-0.234 -8.027,1.567 -9.097,2.161 -0.504,0.277 -0.582,8.878 -0.379,42.164 0.14,23 0.269,41.882 0.289,41.964 0.066,0.305 7.855,-0.496 8.711,-0.894 z m -23.02,-39.656 v -39.957 l -1.82,0.125 c -1.004,0.07 -3.039,0.472 -4.528,0.898 l -2.707,0.774 -0.128,38.507 c -0.11,32.743 -0.024,38.547 0.578,38.75 1.277,0.438 5.558,0.996 7.097,0.926 l 1.508,-0.07 z m 42.375,35.215 c 2.152,-0.758 4.192,-1.696 4.527,-2.09 0.481,-0.559 0.547,-9.891 0.313,-42.285 -0.164,-22.864 -0.445,-41.715 -0.621,-41.891 -0.406,-0.406 -7.399,1.183 -8.375,1.906 -0.637,0.469 -0.734,6.301 -0.734,42.836 0,23.266 0.148,42.43 0.335,42.594 0.45,0.402 0.153,0.472 4.555,-1.07 z m -65.89,-35.11 0.128,-34.449 h -1.105 c -1.453,0 -7.031,1.367 -7.836,1.922 -0.5,0.344 -0.605,7.109 -0.504,32.14 l 0.129,31.704 3.773,1.683 c 2.075,0.926 4.114,1.629 4.528,1.567 0.664,-0.106 0.773,-4.36 0.887,-34.567 z m 86.808,25.184 c 0.602,-0.285 2.512,-1.742 4.246,-3.239 l 3.153,-2.718 v -38.063 c 0,-34.019 -0.086,-38.062 -0.778,-38.062 -1.312,0 -7.488,1.453 -8.156,1.918 -0.492,0.343 -0.629,8.937 -0.629,40.261 0,21.907 0.152,39.961 0.336,40.125 0.449,0.399 0.559,0.387 1.828,-0.222 z m -109.832,-28.25 c 0,-21.297 -0.113,-25.617 -0.691,-25.813 -0.895,-0.308 -6.766,1.035 -8.239,1.879 l -1.132,0.652 v 20.766 c 0,18.25 0.097,20.887 0.8,21.781 1.215,1.547 8.325,6.828 8.825,6.555 0.242,-0.133 0.437,-11.754 0.437,-25.82 z M 492.18,452.5 c 1,-1.293 2.867,-4.012 4.152,-6.043 l 2.332,-3.687 v -27.149 c 0,-16.937 -0.184,-27.25 -0.484,-27.418 -0.496,-0.269 -5.891,0.793 -7.942,1.567 l -1.133,0.425 v 32.332 c 0,25.571 0.133,32.332 0.629,32.328 0.348,-0.003 1.446,-1.062 2.446,-2.355 z m -158.035,-14 c 0,-6.035 -0.18,-11.07 -0.395,-11.187 -0.535,-0.297 -7.086,1.351 -7.961,2 -0.476,0.347 -0.703,1.507 -0.703,3.57 0,2.84 0.215,3.433 3,8.363 3.562,6.309 4.859,8.227 5.547,8.227 0.332,0 0.512,-3.852 0.512,-10.973 z m -96.098,-3.145 c 3.414,-0.761 30.414,-7.183 34.211,-8.132 5.793,-1.453 8.031,-1.993 15.847,-3.813 4.43,-1.031 10.77,-2.543 14.09,-3.363 3.321,-0.817 9.094,-2.199 12.828,-3.067 3.739,-0.867 9.399,-2.207 12.579,-2.972 3.183,-0.77 10.878,-2.602 17.105,-4.07 6.227,-1.473 12.453,-2.969 13.836,-3.325 2.379,-0.613 20.941,-5.023 36.98,-8.789 10.094,-2.367 11.911,-2.801 19.372,-4.64 6.679,-1.645 41.933,-10.032 48.3,-11.493 1.938,-0.441 7.711,-1.828 12.828,-3.074 5.122,-1.25 10.215,-2.472 11.321,-2.719 1.109,-0.246 2.804,-0.636 3.773,-0.871 0.969,-0.234 6.516,-1.558 12.328,-2.945 12.528,-2.984 13.27,-3.164 16.856,-4.078 1.519,-0.387 6.84,-1.688 11.82,-2.891 16.981,-4.105 37.227,-9.047 40.504,-9.886 1.797,-0.461 7.316,-1.809 12.262,-2.993 4.945,-1.183 9.304,-2.425 9.683,-2.765 1.051,-0.938 1.035,-79.481 -0.015,-79.84 -0.61,-0.207 -7.762,1.398 -41.301,9.269 -3.32,0.782 -7.734,1.829 -9.813,2.325 -2.074,0.496 -8.3,1.867 -13.836,3.047 -5.531,1.175 -13.683,2.988 -18.109,4.023 -15.871,3.719 -22.726,5.348 -28.176,6.703 -6.222,1.547 -20.218,4.887 -40,9.543 -7.332,1.727 -14.011,3.309 -14.84,3.52 -0.832,0.211 -5.925,1.421 -11.32,2.691 -5.398,1.27 -11.851,2.801 -14.34,3.402 -2.492,0.606 -10.527,2.512 -17.863,4.235 -7.332,1.726 -14.012,3.332 -14.84,3.57 -0.832,0.242 -6.265,1.555 -12.074,2.922 -5.813,1.371 -13.398,3.191 -16.855,4.047 -3.461,0.855 -10.25,2.484 -15.094,3.621 -8.516,1.992 -19.457,4.59 -30.942,7.348 -3.047,0.73 -10.289,2.453 -16.101,3.828 -5.813,1.375 -11.754,2.797 -13.211,3.164 -1.453,0.363 -3.832,0.957 -5.281,1.32 -1.454,0.363 -7.508,1.793 -13.457,3.18 -5.95,1.386 -11.325,2.707 -11.95,2.933 l -1.132,0.41 v 40.34 c 0,22.184 0.152,40.473 0.335,40.637 0.43,0.379 0.407,0.383 3.692,-0.352 z m 145.906,-45.437 c -2.008,-0.684 -2.754,-3.914 -1.223,-5.281 1.227,-1.098 3.254,-1.375 4.708,-0.649 1.964,0.985 1.683,2.293 -0.594,2.774 -1.035,0.218 -1.887,0.672 -1.887,1 0,0.996 1.012,1.242 1.961,0.476 1.09,-0.883 2.066,-0.925 2.066,-0.097 0,1.269 -3.199,2.402 -5.031,1.777 z m 2.012,-4.453 c 0,-0.793 -1.082,-0.656 -1.395,0.176 -0.109,0.293 0.16,0.535 0.598,0.535 0.437,0 0.797,-0.321 0.797,-0.711 z m 6.539,2.238 c 0,-0.394 0.465,-0.824 1.027,-0.953 1.309,-0.309 1.016,-1.148 -0.511,-1.473 -0.645,-0.132 -1.422,-0.605 -1.723,-1.05 -0.445,-0.649 -0.324,-0.969 0.637,-1.672 1.238,-0.907 3.086,-1.176 3.086,-0.45 0,0.235 -0.227,0.551 -0.5,0.704 -0.817,0.449 -0.579,1.121 0.402,1.121 1.246,0 2.113,0.875 2.113,2.133 0,0.781 -0.457,1.226 -1.746,1.707 -2.234,0.832 -2.785,0.816 -2.785,-0.067 z m 7.758,-2.316 c -0.141,-0.43 -0.664,-1.492 -1.157,-2.356 -1.082,-1.89 -1.05,-4.207 0.055,-4.398 0.43,-0.078 1.391,0.363 2.133,0.976 1.074,0.891 1.246,1.286 0.844,1.957 -0.278,0.465 -0.379,1.688 -0.223,2.727 0.234,1.555 0.141,1.883 -0.555,1.883 -0.461,0 -0.953,-0.356 -1.097,-0.789 z m 5.027,-0.731 c -0.434,-1.004 0.188,-1.625 1.621,-1.625 1.02,0 1.231,0.192 1.102,1.012 -0.192,1.203 -2.27,1.672 -2.723,0.613 z m -60.809,-0.804 c -0.121,-0.329 -1.164,-3.782 -2.316,-7.672 -2.258,-7.629 -2.234,-8.098 0.422,-8.543 0.754,-0.129 2.602,-0.547 4.105,-0.93 3.137,-0.801 4.055,-0.461 4.055,1.5 0,1.078 -0.258,1.277 -2.086,1.629 -2.277,0.437 -3.297,1.41 -2.769,2.637 0.289,0.668 0.742,0.738 3.054,0.48 l 2.715,-0.301 0.352,1.43 c 0.379,1.547 -0.207,2.191 -2.02,2.215 -2.254,0.031 -2.519,0.594 -1.797,3.82 0.375,1.692 0.473,3.141 0.223,3.352 -0.879,0.734 -3.699,1.011 -3.938,0.383 z m 73.059,-1.977 c -0.156,-0.141 0.371,-1.375 1.176,-2.738 1.672,-2.836 1.765,-3.403 0.691,-4.196 -0.636,-0.472 -0.965,-0.406 -1.918,0.395 -1.668,1.394 -2.437,1.23 -2.25,-0.481 0.133,-1.195 0.473,-1.55 2,-2.066 1.559,-0.527 2.055,-0.527 3.27,-0.008 1.293,0.559 1.43,0.828 1.406,2.852 -0.016,1.23 -0.207,2.59 -0.434,3.019 -0.339,0.661 -0.148,0.789 1.196,0.789 1.23,0 1.562,0.172 1.437,0.754 -0.211,0.973 -5.773,2.395 -6.574,1.68 z m -58.492,-1.648 c -0.121,-0.309 -0.789,-2.481 -1.481,-4.829 -0.695,-2.343 -1.691,-5.632 -2.214,-7.304 -0.524,-1.668 -0.809,-3.117 -0.629,-3.219 0.179,-0.098 2.234,-0.613 4.566,-1.145 4.852,-1.105 6.863,-0.945 8.582,0.688 1.524,1.449 1.734,5.457 0.359,6.816 -0.484,0.477 -0.875,1.055 -0.871,1.282 0.008,0.23 1.344,1.304 2.973,2.394 1.719,1.145 2.856,2.223 2.711,2.559 -0.137,0.32 -1.242,0.715 -2.453,0.875 -2.07,0.277 -2.352,0.183 -4.555,-1.547 -2.418,-1.899 -4.078,-2.434 -3.519,-1.133 0.168,0.391 0.445,1.484 0.613,2.426 0.258,1.43 0.137,1.797 -0.723,2.207 -1.379,0.656 -3.086,0.621 -3.359,-0.07 z m 4.308,-9.782 c 1.473,-0.703 1.313,-3.007 -0.25,-3.644 -2.414,-0.981 -3.429,0.324 -2.308,2.957 0.535,1.258 1.07,1.398 2.558,0.687 z m -99.214,8.211 c -0.895,-2.023 -3.957,-12.761 -3.957,-13.879 0,-0.769 0.351,-1.093 1.382,-1.273 0.762,-0.133 2.434,-0.539 3.715,-0.906 1.285,-0.368 2.907,-0.664 3.606,-0.664 1.793,0 5.429,1.484 6.742,2.757 1.43,1.379 2.668,4.036 2.668,5.719 0,2.063 -1.758,5.219 -3.606,6.477 -1.3,0.886 -8.164,3.004 -9.73,3.004 -0.152,0 -0.52,-0.559 -0.82,-1.235 z m 6.617,-3.933 c 1.847,-0.852 2.508,-1.938 2.508,-4.133 0,-2.016 -0.993,-3.457 -3.024,-4.395 -1.773,-0.82 -3.054,-0.851 -4.16,-0.109 -0.773,0.519 -0.758,0.84 0.231,4.375 1.453,5.211 1.757,5.504 4.445,4.262 z m 155.965,3.597 c -1.582,-1.5 -2.055,-5.683 -0.785,-6.933 2.039,-2.012 5.683,-1.446 7.035,1.093 1.007,1.899 1.011,4.68 0.007,5.961 -1.156,1.473 -4.652,1.403 -6.257,-0.121 z m 4.437,-2.187 c 0.379,-2.969 -1.496,-5.094 -3.176,-3.594 -0.839,0.746 -0.695,2.59 0.336,4.348 0.762,1.297 2.641,0.797 2.84,-0.754 z m 6.301,0.055 c -1.441,-1.45 -2.309,-4.321 -1.793,-5.942 0.25,-0.793 1.09,-1.687 2.043,-2.183 1.402,-0.731 1.816,-0.766 3.168,-0.266 3.191,1.176 4.394,5.09 2.449,7.941 -0.848,1.239 -1.289,1.457 -2.93,1.457 -1.371,0 -2.226,-0.293 -2.937,-1.007 z m 4.352,-3.313 c 0,-1.574 -1.594,-3.512 -2.637,-3.199 -1.778,0.527 -1.688,3.215 0.168,4.867 1.347,1.203 2.469,0.445 2.469,-1.668 z m -64.555,3.555 c -0.406,-0.614 1.519,-16.793 2.058,-17.274 0.219,-0.199 1.43,-0.484 2.688,-0.636 l 2.289,-0.282 2.508,3.082 c 1.379,1.696 3.379,4.192 4.441,5.551 1.067,1.356 2.387,3.016 2.938,3.684 0.828,1.008 0.886,1.336 0.355,1.91 -0.941,1.008 -3.703,0.871 -4.832,-0.242 -0.801,-0.789 -1.305,-0.887 -3.223,-0.641 -2.98,0.387 -4.332,1.207 -4.703,2.856 -0.195,0.878 -0.695,1.441 -1.453,1.636 -0.633,0.16 -1.527,0.387 -1.988,0.504 -0.461,0.113 -0.945,0.047 -1.078,-0.148 z m 7.418,-7.754 c 0.707,-0.238 1.289,-0.664 1.289,-0.938 0,-0.683 -1.973,-3.113 -2.527,-3.113 -0.571,0 -1.196,2.926 -0.813,3.813 0.344,0.8 0.383,0.804 2.051,0.238 z m -100.363,5.687 c -0.973,-2.011 -4.383,-14.574 -4.075,-14.996 0.446,-0.609 8.953,-2.523 9.606,-2.164 0.289,0.16 0.527,0.879 0.527,1.594 0,1.137 -0.254,1.367 -1.953,1.773 -4.367,1.051 -4.02,3.383 0.504,3.383 2.652,0 2.707,0.024 2.707,1.305 0,1.07 -0.293,1.398 -1.613,1.797 -2.457,0.746 -2.953,1.359 -2.235,2.765 0.438,0.86 0.836,1.094 1.469,0.868 0.477,-0.172 1.707,-0.422 2.73,-0.551 1.696,-0.215 1.891,-0.129 2.204,0.976 0.191,0.684 0.105,1.418 -0.196,1.688 -0.297,0.265 -2.488,0.945 -4.871,1.512 l -4.328,1.031 z m 163.914,0.102 c -0.485,-0.25 -0.879,-0.852 -0.879,-1.332 0,-0.934 1.226,-1.164 2.468,-0.461 0.391,0.219 1.012,0.297 1.383,0.168 1.035,-0.352 0.801,-1.836 -0.383,-2.402 -0.765,-0.368 -0.988,-0.809 -0.816,-1.622 0.27,-1.253 -0.844,-1.945 -1.781,-1.109 -0.887,0.793 -1.879,0.602 -1.879,-0.363 0,-1.114 1.836,-2.27 3.605,-2.27 1.504,0 2.926,1.403 2.95,2.906 0.011,0.5 0.351,1.301 0.757,1.782 0.782,0.926 0.969,2.84 0.352,3.664 -1.024,1.367 -4.086,1.922 -5.777,1.039 z m -49.047,-3.637 c -0.313,-0.332 -1.465,-3.793 -2.563,-7.683 -1.785,-6.336 -1.914,-7.149 -1.23,-7.762 0.422,-0.375 1.359,-0.621 2.086,-0.547 1.125,0.117 1.465,0.527 2.269,2.738 0.52,1.43 1.16,2.535 1.43,2.453 0.266,-0.078 1.152,-1.55 1.973,-3.273 1.781,-3.742 2.14,-4.094 4.582,-4.492 2.406,-0.391 2.418,-0.016 0.125,4.414 -0.969,1.871 -1.762,3.691 -1.762,4.047 0,0.351 1.914,1.832 4.25,3.281 4.594,2.855 5.262,3.93 2.73,4.383 -2.683,0.476 -3.781,0.316 -5.023,-0.742 -1.93,-1.641 -5.465,-3.629 -5.848,-3.29 -0.195,0.172 0.02,1.567 0.469,3.098 0.453,1.531 0.664,2.934 0.473,3.113 -0.746,0.696 -3.395,0.872 -3.961,0.262 z m -96.672,-0.367 c -2.938,-0.617 -4.035,-2.094 -5.887,-7.91 -0.933,-2.934 -1.703,-5.66 -1.711,-6.063 -0.004,-0.402 0.668,-0.984 1.5,-1.289 1.945,-0.722 2.82,-0.121 3.528,2.406 1.273,4.547 2.609,7.86 3.445,8.536 1.234,0.996 3.379,0.918 4.597,-0.168 1.278,-1.141 1.266,-1.387 -0.277,-6.825 -1.543,-5.437 -1.48,-6.238 0.524,-6.714 2.058,-0.489 2.461,0.019 3.793,4.785 2.269,8.117 1.835,10.594 -2.141,12.254 -2.676,1.117 -5.164,1.449 -7.371,0.988 z m 19.805,-5.051 c -0.125,-0.308 -0.661,-2.176 -1.196,-4.152 -0.531,-1.973 -1.273,-4.399 -1.648,-5.387 -0.645,-1.683 -0.809,-1.797 -2.649,-1.797 -1.707,0 -2.023,-0.164 -2.437,-1.273 -0.266,-0.711 -0.285,-1.422 -0.043,-1.613 0.547,-0.43 9.73,-2.723 10.906,-2.723 0.707,0 1.852,1.558 1.852,2.519 0,0.121 -0.813,0.524 -1.813,0.895 -1.281,0.476 -1.746,0.898 -1.586,1.437 0.121,0.418 0.875,3.153 1.676,6.079 1.422,5.21 1.434,5.328 0.484,5.949 -1.195,0.781 -3.242,0.82 -3.546,0.066 z m 99.921,-0.062 c -0.347,-0.375 -1.351,-3.168 -2.226,-6.203 l -1.59,-5.52 h -1.953 c -2.063,0 -3.223,-0.902 -2.703,-2.113 0.156,-0.364 1.383,-0.922 2.722,-1.239 1.34,-0.316 3.407,-0.851 4.59,-1.191 3.289,-0.941 4.582,-0.809 5.153,0.535 0.66,1.547 0.718,1.446 -1.27,2.184 -0.969,0.363 -1.762,0.89 -1.762,1.179 0,0.286 0.723,3.024 1.606,6.086 0.992,3.457 1.426,5.727 1.133,5.981 -0.954,0.832 -3.047,1.004 -3.7,0.301 z m 11.844,-2.426 c -0.137,-0.195 -0.937,-2.672 -1.773,-5.5 -0.84,-2.828 -1.852,-6.195 -2.25,-7.481 -0.789,-2.566 -0.602,-2.929 1.761,-3.429 1.473,-0.317 2.157,0.199 2.594,1.953 0.153,0.617 1.11,3.824 2.121,7.129 1.532,4.98 1.731,6.101 1.172,6.566 -0.863,0.719 -3.301,1.231 -3.625,0.762 z M 333.82,362.156 c -0.16,-0.371 -0.148,-1.168 0.02,-1.773 0.277,-0.981 0.613,-1.113 3.148,-1.235 2.039,-0.097 2.992,-0.355 3.391,-0.921 1.004,-1.43 -0.219,-2.329 -3.52,-2.59 -3.75,-0.297 -5.007,-1.035 -5.738,-3.367 -1.098,-3.504 1.16,-6.219 5.809,-6.997 3.246,-0.539 4.66,0.043 4.371,1.805 -0.211,1.27 -0.387,1.387 -2.149,1.387 -2.086,0 -3.648,1.004 -3.394,2.187 0.117,0.539 1.012,0.821 3.422,1.078 4.164,0.446 5.648,1.391 6.218,3.958 0.965,4.363 -2.265,7.113 -8.378,7.132 -2.129,0.008 -2.985,-0.172 -3.2,-0.664 z m 111.727,-3.32 c -2.578,-1.043 -3.988,-2.629 -5.07,-5.691 -0.727,-2.051 -0.758,-2.68 -0.211,-4.325 1.769,-5.343 7.738,-8.16 13.609,-6.422 3.391,1.008 5.73,3.118 6.508,5.868 1.219,4.32 -0.453,7.933 -4.664,10.089 -3.125,1.598 -6.965,1.782 -10.172,0.481 z m 8.641,-4.715 c 1.371,-1.223 1.71,-1.883 1.71,-3.308 0,-3.407 -3.39,-5.622 -7.093,-4.633 -5.961,1.593 -4.617,9.468 1.617,9.468 1.668,0 2.379,-0.289 3.766,-1.527 z m -99.293,3.781 c -4.957,-1.05 -8.286,-5.875 -7.09,-10.273 1.047,-3.863 4.3,-6.551 8.554,-7.07 2.602,-0.317 3.34,0.211 3.555,2.543 0.133,1.48 0.078,1.531 -1.457,1.398 -2.211,-0.191 -4.574,1.023 -5.551,2.848 -2.281,4.265 3.532,8.863 7.598,6.011 1.687,-1.183 2.586,-0.89 3.008,0.993 0.406,1.82 -0.371,2.613 -3.332,3.406 -2.371,0.633 -2.91,0.648 -5.285,0.144 z m 13.937,-3.714 c -0.277,-0.555 -1.387,-4.04 -2.465,-7.743 -2.168,-7.457 -2.105,-7.996 0.918,-7.769 1.731,0.133 1.809,0.219 2.5,2.765 l 0.719,2.633 2.535,-0.301 c 1.395,-0.164 2.973,-0.507 3.512,-0.765 1.008,-0.481 1.023,-1.332 0.097,-5.133 -0.3,-1.246 -0.179,-1.445 1.211,-1.961 0.852,-0.312 1.836,-0.473 2.188,-0.351 0.355,0.121 1.398,2.921 2.32,6.222 0.926,3.305 1.926,6.649 2.227,7.434 0.715,1.879 -0.188,2.937 -2.344,2.746 -1.398,-0.121 -1.613,-0.367 -2.445,-2.817 -0.504,-1.476 -1.078,-2.835 -1.282,-3.015 -0.484,-0.434 -6.296,1.176 -6.535,1.805 -0.097,0.269 0.176,1.726 0.61,3.238 0.433,1.512 0.789,2.812 0.789,2.89 0,0.184 -3.024,1.133 -3.61,1.133 -0.238,0 -0.664,-0.457 -0.945,-1.011 z m 98.262,0.449 c -0.867,-0.973 -4.699,-14.844 -4.219,-15.27 0.246,-0.222 1.324,-0.504 2.398,-0.629 1.782,-0.211 2.297,0.008 6.133,2.617 5.157,3.504 6.481,4.247 6.895,3.879 0.179,-0.156 -0.149,-1.82 -0.727,-3.695 -1.511,-4.922 -1.433,-5.539 0.739,-5.902 0.98,-0.164 1.91,-0.184 2.07,-0.047 0.305,0.273 1.398,3.683 3.465,10.808 0.797,2.75 1.109,4.602 0.816,4.86 -0.258,0.23 -1.344,0.519 -2.414,0.644 -1.809,0.207 -2.312,-0.023 -6.934,-3.179 -4.55,-3.102 -6.347,-3.973 -6.328,-3.063 0.004,0.184 0.547,2.086 1.211,4.231 1.145,3.691 1.164,3.929 0.332,4.601 -1.051,0.848 -2.746,0.918 -3.437,0.145 z m -65.281,-7.391 c -1.668,-0.375 -2.102,-0.937 -1.86,-2.414 0.223,-1.355 0.293,-1.394 2.195,-1.121 1.149,0.164 2.426,0.062 3.079,-0.246 3.316,-1.559 1.929,-3.531 -2.481,-3.531 -2.391,0 -2.973,-0.18 -4.242,-1.313 -1.137,-1.016 -1.469,-1.719 -1.469,-3.121 0,-3.797 1.918,-5.43 6.801,-5.781 3.422,-0.246 3.988,0.062 3.473,1.89 -0.254,0.903 -0.637,1.141 -1.809,1.141 -2.004,0 -3.434,0.746 -3.434,1.785 0,1.121 0.247,1.231 4.036,1.774 4.093,0.589 5.113,1.461 5.406,4.629 0.195,2.105 0.058,2.582 -1.106,3.812 -1.687,1.789 -6.062,3.063 -8.589,2.496 z m 18.378,-5.117 c -8.214,-2.926 -8.847,-12.582 -1.062,-16.211 3.453,-1.613 6.488,-1.652 9.879,-0.133 4.91,2.199 6.555,6.82 4.121,11.567 -1.301,2.539 -2.953,3.878 -5.856,4.757 -2.05,0.621 -5.367,0.629 -7.082,0.02 z m 7.332,-5.066 c 1.399,-1.25 1.711,-1.872 1.711,-3.399 0,-2.336 -0.629,-3.41 -2.507,-4.273 -3.047,-1.407 -6.145,-0.411 -7.848,2.531 -1.566,2.707 1.496,6.664 5.16,6.664 1.344,0 2.188,-0.367 3.484,-1.523 z m 13.129,0.765 c -0.382,-0.555 -3.984,-12.738 -4.246,-14.363 -0.218,-1.36 -0.129,-1.453 1.957,-1.938 1.207,-0.277 2.985,-0.695 3.953,-0.922 3.172,-0.753 4.997,-0.523 6.5,0.821 1.973,1.758 2.399,4.219 1.075,6.219 -0.571,0.863 -1.028,1.808 -1.016,2.101 0.012,0.297 1.254,1.344 2.754,2.332 3.051,2.004 3.367,2.735 1.469,3.379 -2.254,0.766 -3.278,0.488 -5.86,-1.582 -3.554,-2.855 -3.898,-2.746 -2.808,0.887 0.386,1.285 0.433,2.172 0.125,2.429 -0.696,0.586 -3.61,1.063 -3.903,0.637 z m 4.067,-10.265 c 1.531,-0.958 1.472,-2.766 -0.11,-3.411 -1.671,-0.679 -2.796,-0.195 -2.796,1.207 0,1.254 0.804,2.903 1.414,2.903 0.207,0 0.875,-0.313 1.492,-0.699 z m 14.344,5.558 c -0.821,-0.894 -4.762,-14.836 -4.313,-15.234 0.785,-0.696 7.941,-2.059 9.609,-1.832 1.606,0.215 3.11,2.593 3.11,4.922 0.004,1.613 0.195,1.984 1.211,2.332 2.785,0.941 3.75,4.671 1.781,6.902 -1.606,1.824 -10.348,4.059 -11.398,2.91 z m 6.898,-4.41 c 1.215,-1.082 1.254,-1.512 0.215,-2.438 -0.824,-0.734 -2.09,-0.894 -3.442,-0.433 -0.808,0.277 -1.046,1.765 -0.492,3.058 0.426,0.993 2.516,0.887 3.719,-0.187 z m -3.305,-6.543 c 0.434,-0.387 0.789,-0.879 0.789,-1.09 0,-0.484 -1.449,-1.793 -1.984,-1.793 -0.227,0 -0.695,0.309 -1.047,0.684 -0.488,0.527 -0.504,0.949 -0.07,1.797 0.656,1.289 1.211,1.386 2.312,0.402 z m 14.504,6.875 c -0.269,-0.305 -0.746,-1.465 -1.058,-2.578 -0.317,-1.11 -1.25,-4.324 -2.079,-7.145 -1.671,-5.687 -1.546,-6.32 1.243,-6.32 1.824,0 1.613,-0.449 4.511,9.586 1.34,4.637 1.528,5.949 0.903,6.262 -1.172,0.586 -3.086,0.691 -3.52,0.195 z m 9.203,-2.727 c -0.75,-0.492 -0.828,-0.839 -0.433,-1.902 0.457,-1.219 0.664,-1.305 3.148,-1.309 2.098,-0.003 2.805,-0.195 3.336,-0.906 1.113,-1.48 0.133,-2.156 -3.629,-2.504 -2.875,-0.265 -3.601,-0.511 -4.621,-1.566 -1.039,-1.078 -1.176,-1.594 -0.976,-3.715 0.191,-2.066 0.484,-2.668 1.824,-3.734 1.406,-1.121 1.98,-1.274 4.886,-1.274 h 3.297 l -0.16,1.461 c -0.144,1.352 -0.316,1.477 -2.336,1.719 -1.914,0.227 -3.07,0.906 -3.094,1.816 -0.019,0.703 1.481,1.196 4.227,1.391 2.559,0.18 3.176,0.41 4.402,1.633 1.153,1.152 1.426,1.84 1.426,3.625 0,1.855 -0.242,2.418 -1.531,3.57 -2.367,2.109 -7.707,3.035 -9.766,1.695 z m 19.848,-4.628 c -1.246,-0.383 -2.793,-1.133 -3.445,-1.665 -4.848,-3.964 -3.778,-11.773 1.984,-14.449 1.641,-0.761 6.277,-1.336 6.621,-0.82 0.145,0.215 0.41,1.195 0.59,2.184 l 0.336,1.796 h -2.488 c -2.954,0 -4.34,0.911 -5.18,3.407 -0.781,2.324 0.648,4.851 3.238,5.734 1.653,0.559 2.016,0.527 4.141,-0.391 2.531,-1.093 2.984,-0.945 3.476,1.153 0.395,1.676 -0.562,2.582 -3.488,3.293 -2.555,0.625 -3.031,0.605 -5.785,-0.242 z m 14.648,-3.657 c -0.714,-1.191 -4.586,-14.543 -4.328,-14.918 0.41,-0.593 3.399,-0.898 4.051,-0.414 0.356,0.262 0.793,1.254 0.973,2.203 0.179,0.95 0.613,2.078 0.965,2.508 0.589,0.723 0.871,0.731 3.613,0.129 2.918,-0.641 2.969,-0.68 2.949,-2.195 -0.016,-0.852 -0.199,-2.383 -0.414,-3.403 l -0.387,-1.851 1.86,-0.309 c 1.023,-0.172 2.039,-0.148 2.254,0.055 0.484,0.457 4.507,13.809 4.507,14.965 0,0.613 -0.484,0.929 -1.726,1.14 -0.953,0.161 -1.957,0.164 -2.231,0.012 -0.277,-0.152 -0.781,-1.387 -1.121,-2.742 -0.34,-1.359 -0.886,-2.664 -1.215,-2.906 -0.609,-0.453 -5.578,0.59 -6.484,1.363 -0.266,0.227 -0.086,1.543 0.43,3.187 0.843,2.684 0.843,2.825 -0.024,3.391 -1.281,0.836 -3.105,0.731 -3.672,-0.215 z m 20.875,-6.265 c -1.472,-4.016 -3.82,-13.317 -3.445,-13.649 0.207,-0.183 2.371,-0.785 4.816,-1.34 3.793,-0.855 4.508,-0.906 4.899,-0.359 1.035,1.461 0.519,2.449 -1.621,3.125 -2.617,0.828 -3.504,1.922 -2.371,2.93 0.679,0.609 1.133,0.636 2.949,0.203 2.414,-0.582 2.887,-0.348 3.113,1.539 0.149,1.219 0,1.351 -2.101,1.812 -1.922,0.422 -2.289,0.684 -2.426,1.719 -0.203,1.555 0.789,1.914 3.566,1.285 2.403,-0.547 2.879,-0.308 3.028,1.512 0.101,1.227 -0.059,1.324 -3.668,2.285 -5.582,1.485 -5.817,1.445 -6.739,-1.062 z M 175.66,424.34 c 2.074,-0.547 4.563,-1.164 5.531,-1.371 0.969,-0.211 4.368,-1.016 7.547,-1.789 6.078,-1.481 9.571,-2.309 17.864,-4.246 2.765,-0.649 6.613,-1.579 8.55,-2.067 1.938,-0.492 4.43,-1.101 5.536,-1.359 5.363,-1.238 7.503,-2.035 8.402,-3.113 0.883,-1.059 0.953,-2.086 0.957,-13.645 0.004,-6.875 -0.195,-12.68 -0.438,-12.898 -0.257,-0.227 -6.461,1.035 -14.746,3.003 -7.863,1.872 -15.144,3.602 -16.175,3.844 -1.93,0.457 -5.391,3.848 -14.77,14.477 -1.914,2.168 -4.16,4.711 -4.988,5.648 -0.832,0.942 -3.789,4.211 -6.571,7.274 -2.785,3.058 -5.234,5.816 -5.441,6.125 -1.188,1.769 2.312,1.816 8.742,0.117 z m 411.305,-46.043 c 4.703,-1.121 10.137,-2.422 12.074,-2.887 1.938,-0.469 9.066,-2.168 15.848,-3.777 6.781,-1.61 13.004,-3.125 13.836,-3.363 0.828,-0.243 6.039,-1.489 11.57,-2.774 18.352,-4.25 23.145,-5.562 23.145,-6.328 0,-0.688 -23.176,-18.867 -25.165,-19.738 -0.781,-0.34 -5.058,0.508 -18.367,3.629 -9.539,2.242 -17.801,4.246 -18.351,4.457 -0.719,0.269 -1.27,1.289 -1.914,3.535 -1.075,3.726 -2.668,5.898 -14.063,19.125 -7.332,8.515 -8.555,10.164 -7.547,10.16 0.207,0 4.227,-0.918 8.934,-2.039 z m -11.043,-4.141 c 4.707,-5.125 14.312,-16.785 14.312,-17.375 0,-1.011 -1.496,-0.863 -8.804,0.871 -4.344,1.036 -6.813,1.852 -7.348,2.438 -1.559,1.699 -1.785,15.773 -0.258,15.75 0.309,-0.004 1.254,-0.762 2.098,-1.684 z M 195.281,363.504 c 1.645,-0.617 3.528,-1.121 4.184,-1.121 0.66,0 4.344,-0.809 8.191,-1.797 3.848,-0.988 9.824,-2.512 13.285,-3.383 7.586,-1.918 8.551,-2.258 8.551,-3.035 0,-3.152 4.254,-9.602 12.379,-18.773 7.731,-8.727 8.754,-9.93 8.754,-10.332 0,-0.903 -3.984,-0.192 -15.598,2.785 -2.968,0.761 -22.789,5.515 -34.714,8.328 -2.629,0.621 -6.481,1.531 -8.555,2.027 -2.074,0.492 -6.602,1.57 -10.063,2.391 -12.445,2.949 -15.777,3.812 -16.207,4.195 -0.425,0.379 1.067,1.731 6.66,6.012 14.809,11.344 18.239,13.824 19.125,13.824 0.559,0 2.364,-0.504 4.008,-1.121 z m 51.223,-16.598 c 3.68,-0.867 7.101,-1.777 7.601,-2.015 1.708,-0.813 2.09,-2.68 1.942,-9.457 -0.133,-6.121 -0.199,-6.496 -1.129,-6.496 -1.16,0 -17.613,18.82 -17.102,19.562 0.172,0.246 0.692,0.348 1.153,0.219 0.461,-0.125 3.851,-0.942 7.535,-1.813 z m 362.094,-28.945 c 8.484,-2.012 15.285,-3.609 18.617,-4.371 5.555,-1.274 3.406,0.726 25.305,-23.606 5.339,-5.937 9.515,-10.964 9.281,-11.171 -0.235,-0.211 -4.492,0.613 -9.457,1.832 -16.336,4.003 -35.086,8.484 -41.434,9.906 -3.433,0.769 -6.879,1.691 -7.664,2.054 -2.773,1.278 -2.949,2.172 -2.949,14.911 0,6.39 0.164,11.765 0.363,11.945 0.199,0.176 0.824,0.207 1.383,0.066 0.562,-0.14 3.512,-0.843 6.555,-1.566 z m -295.356,3.008 c -0.129,-0.309 -0.179,-22.281 -0.109,-48.824 l 0.129,-48.258 26.726,-0.117 c 21.012,-0.09 26.828,0.003 27.207,0.449 0.606,0.711 6.071,14.566 7.004,17.758 0.559,1.914 0.696,8.347 0.696,32.882 0,27.211 0.085,30.508 0.777,30.508 1.551,0 7.543,-1.48 8.203,-2.027 0.551,-0.457 0.664,-4.84 0.617,-23.672 -0.031,-12.715 0.09,-23.461 0.274,-23.883 0.179,-0.422 0.855,-0.945 1.496,-1.164 1.64,-0.555 2.711,-2.672 3.066,-6.07 0.168,-1.606 0.473,-3.012 0.676,-3.125 0.203,-0.11 2.094,1.406 4.203,3.379 l 3.832,3.578 0.063,13.359 c 0.035,7.352 0.031,17.832 -0.004,23.293 -0.051,7.801 0.082,10.039 0.609,10.43 0.5,0.371 1.625,0.265 4.395,-0.422 2.046,-0.504 4.007,-1.129 4.355,-1.391 0.492,-0.363 0.664,-5.082 0.766,-20.73 l 0.132,-20.266 5.532,-0.039 c 3.047,-0.019 6.101,-0.121 6.793,-0.222 l 1.258,-0.188 0.132,18.762 c 0.106,15.129 0.262,18.801 0.801,18.988 0.637,0.219 7.293,-1.238 8.367,-1.828 0.332,-0.184 0.512,-7.57 0.52,-21.242 0.004,-11.532 0.172,-21.168 0.375,-21.414 0.203,-0.25 1.222,-1.02 2.262,-1.711 1.328,-0.883 1.945,-1.082 2.074,-0.668 0.101,0.32 0.472,1.695 0.824,3.054 0.352,1.36 0.867,2.918 1.145,3.469 0.468,0.926 3.23,2.133 5.636,2.465 0.985,0.137 1.012,0.531 1.141,16.055 0.074,8.75 0.308,16.07 0.523,16.261 0.446,0.399 7.532,-1.246 8.516,-1.972 0.504,-0.371 0.641,-5.887 0.641,-25.992 0,-28.602 -0.293,-26.09 3.878,-33.52 l 1.829,-3.262 26.703,0.118 26.707,0.117 0.258,49.57 -1.106,0.527 c -0.605,0.289 -3.609,1.094 -6.668,1.786 -5.488,1.242 -8.183,1.882 -14.121,3.347 -1.66,0.41 -3.809,0.918 -4.777,1.121 -0.969,0.207 -3.461,0.813 -5.535,1.34 -2.079,0.531 -5.36,1.34 -7.297,1.793 -1.938,0.453 -5.278,1.242 -7.422,1.758 -2.145,0.512 -5.653,1.351 -7.797,1.863 -2.145,0.512 -5.031,1.219 -6.414,1.574 -1.383,0.36 -3.875,0.938 -5.535,1.286 -1.66,0.351 -3.813,0.859 -4.782,1.136 -0.968,0.274 -2.664,0.68 -3.773,0.899 -1.855,0.371 -2.926,0.629 -7.418,1.777 -2.676,0.684 -9.535,2.313 -11.699,2.781 -4.731,1.02 -5.797,1.278 -10.817,2.614 -2.906,0.773 -6.98,1.789 -9.058,2.257 -2.074,0.469 -6.488,1.489 -9.809,2.266 -3.32,0.777 -6.832,1.582 -7.801,1.793 -3.992,0.863 -5.441,1.234 -5.968,1.527 -0.305,0.168 -1.973,0.586 -3.707,0.934 -1.735,0.348 -3.946,0.828 -4.914,1.07 -0.969,0.242 -3.457,0.848 -5.536,1.344 -4.769,1.145 -14.789,3.563 -17.105,4.129 -0.969,0.234 -2.777,0.637 -4.023,0.894 -2.825,0.579 -5.27,1.129 -7.547,1.696 -9.422,2.355 -18.887,4.558 -19.571,4.558 -0.324,0 -0.695,-0.25 -0.828,-0.558 z m 21.403,-5.688 2.769,-0.75 v -89.297 h -9.059 l -0.128,45.118 c -0.071,24.812 -0.016,45.382 0.125,45.714 0.281,0.657 1.539,0.5 6.293,-0.785 z m 21.503,-5.027 c 2.149,-0.52 4.18,-1.149 4.52,-1.391 0.855,-0.617 0.941,-82.32 0.086,-83.242 -0.738,-0.793 -8.027,-0.855 -8.902,-0.074 -0.461,0.41 -0.602,10.527 -0.602,42.797 0,23.242 0.148,42.394 0.336,42.558 0.434,0.391 0.086,0.438 4.562,-0.648 z m 119.625,-28.637 2.516,-0.719 v -55.664 h -9.059 l -0.128,28.282 c -0.071,15.554 -0.02,28.543 0.121,28.863 0.281,0.664 2.422,0.414 6.55,-0.762 z m 22.387,-5.336 c 1.524,-0.394 3.051,-0.902 3.399,-1.133 0.894,-0.593 0.918,-48.804 0.023,-49.601 -0.363,-0.324 -2.125,-0.539 -4.426,-0.539 -2.304,0 -4.066,0.215 -4.429,0.539 -0.454,0.406 -0.602,6.785 -0.602,25.965 0,13.98 0.145,25.554 0.324,25.715 0.364,0.32 1.586,0.117 5.711,-0.946 z m -92.32,-25.336 c -2.129,-0.679 -3.371,-1.621 -7.379,-5.605 -5.727,-5.692 -6.813,-7.34 -10.52,-15.985 -3.046,-7.113 -2.16,-6.91 2.2,0.504 4.043,6.871 6.488,10.45 7.566,11.075 1.656,0.957 8.395,2.808 11.477,3.152 5.379,0.602 5.105,-2.367 -0.371,-4.039 -3.586,-1.094 -5.239,-2.938 -5.239,-5.84 0,-2.598 1.137,-3.707 5.938,-5.793 l 4.047,-1.754 4.273,1.828 c 5.176,2.215 5.586,2.762 5.418,7.227 -0.07,1.949 -2.273,3.82 -5.285,4.5 -2.149,0.48 -3.824,1.488 -3.824,2.301 0,0.707 1.57,1.797 2.586,1.797 0.554,0 2.632,-0.485 4.621,-1.079 1.984,-0.597 4.742,-1.23 6.125,-1.41 3.781,-0.492 6.394,-3.273 9.05,-9.633 1.844,-4.41 4.602,-8.636 6.903,-10.574 3.91,-3.297 4.058,-3.109 3.847,4.738 -0.101,3.704 -0.035,6.735 0.153,6.735 0.371,0 0.683,-0.738 4.371,-10.328 1.379,-3.578 3.285,-8.426 4.242,-10.774 2.059,-5.062 2.707,-8.078 1.731,-8.078 -0.868,0 -4.524,2.078 -11.782,6.695 -3.265,2.083 -6.73,4.266 -7.699,4.86 -2.484,1.519 -4.375,4.23 -4.781,6.855 -0.344,2.246 -1.438,3.059 -2.09,1.547 -0.391,-0.91 -3.809,-2.449 -5.434,-2.449 -2.234,0 -3.293,1.441 -3.293,4.488 0,1.996 -0.179,2.692 -0.695,2.692 -0.582,0 -4.016,-1.922 -7.824,-4.383 -0.734,-0.477 -1.09,-0.422 -2.133,0.308 -1.461,1.028 -6.273,2.739 -6.68,2.379 -0.152,-0.136 -0.277,-1.125 -0.277,-2.195 0,-1.344 -0.309,-2.219 -1.004,-2.84 -1.183,-1.058 -1.976,-1.113 -4.176,-0.293 -1.613,0.602 -4.882,3.512 -4.882,4.348 0,0.238 -0.192,0.433 -0.43,0.433 -0.238,0 -0.574,-1.164 -0.75,-2.582 -0.176,-1.418 -0.676,-3.48 -1.113,-4.582 -0.938,-2.367 -3.891,-6.187 -6.008,-7.757 -3.496,-2.602 -14.356,-7.524 -16.59,-7.524 -1.316,0 -1.238,0.75 0.469,4.629 0.933,2.129 2.078,5.027 2.543,6.445 0.461,1.418 1.382,3.539 2.05,4.715 0.668,1.176 1.215,2.422 1.215,2.77 0,0.344 0.438,1.515 0.973,2.594 1.98,3.996 5.969,19.335 4.715,18.128 -0.258,-0.25 -1.563,-3.078 -2.899,-6.285 -2.621,-6.301 -7.343,-16.414 -10.125,-21.683 -1.05,-1.996 -1.625,-3.664 -1.461,-4.266 0.172,-0.633 -1.453,-4.769 -4.523,-11.516 -2.637,-5.789 -4.793,-10.882 -4.793,-11.316 0,-0.461 0.941,-1.281 2.266,-1.973 1.242,-0.652 2.261,-1.332 2.261,-1.511 0,-0.18 -0.59,-0.821 -1.312,-1.418 -2.664,-2.207 -5.442,-6.563 -10.098,-15.832 -9.91,-19.739 -11.992,-24.93 -11.422,-28.477 1.664,-10.34 18.867,-6.832 43.387,8.848 10.211,6.531 11.516,7.281 13.289,7.636 0.899,0.184 9.332,0.211 18.738,0.063 l 17.106,-0.27 4.023,-2.152 c 2.211,-1.18 6.625,-3.621 9.809,-5.422 8.297,-4.695 19.57,-10.207 25.406,-12.426 3.848,-1.461 5.863,-1.961 8.555,-2.109 3.312,-0.187 3.597,-0.125 4.781,1.008 1.164,1.121 1.254,1.523 1.227,5.547 -0.024,3.867 -0.254,4.926 -2.086,9.726 -2.344,6.121 -11.668,26.02 -13.469,28.731 -0.656,0.988 -2.34,2.801 -3.746,4.023 -1.406,1.227 -2.555,2.422 -2.555,2.66 0,0.239 0.715,0.969 1.59,1.621 l 1.59,1.184 -2.391,6.031 c -5.621,14.203 -7.418,19.481 -6.859,20.172 1.094,1.36 1.07,1.715 -0.238,3.422 -3.247,4.227 -9.719,17.356 -12.809,25.984 -0.621,1.727 -1.469,3.446 -1.883,3.813 -0.867,0.777 -0.879,0.941 0.668,-9.785 0.961,-6.68 0.824,-7.774 -1.004,-8.094 -1.324,-0.234 -2.105,0.617 -3.344,3.641 -1.933,4.714 -3.293,6.761 -5.941,8.972 -1.398,1.168 -2.797,2.125 -3.105,2.125 -0.309,0 -2.094,1.399 -3.965,3.106 -2.754,2.508 -3.918,3.238 -6.094,3.812 -3.102,0.824 -12.434,0.926 -14.828,0.164 z m 15.074,-3.539 c 2.066,-1.617 2.41,-2.918 0.649,-2.453 -2.946,0.777 -11.266,0.805 -15.391,0.051 -2.305,-0.422 -4.332,-0.641 -4.5,-0.488 -0.578,0.511 3.266,3.472 4.98,3.836 0.934,0.195 4.129,0.378 7.094,0.402 5.344,0.047 5.406,0.035 7.168,-1.348 z m 6.32,-33.562 c -0.703,-2.824 -0.879,-4.391 -0.554,-4.934 0.34,-0.566 2.027,-1.086 5.886,-1.808 2.973,-0.559 6.024,-1.297 6.774,-1.641 1.398,-0.645 12.262,-10.027 11.941,-10.313 -0.097,-0.085 -3.57,-0.503 -7.718,-0.929 -4.145,-0.422 -7.821,-0.965 -8.165,-1.207 -0.347,-0.239 -0.628,-1.008 -0.628,-1.703 0,-0.696 0.281,-1.426 0.628,-1.625 1.438,-0.829 8.161,-3.286 8.985,-3.286 1.609,0 1.535,-0.867 -0.156,-1.785 -3.118,-1.695 -11.907,-0.941 -15.481,1.328 -1.793,1.137 -2.527,2.289 -4.012,6.293 -2.308,6.239 -0.64,22.719 2.68,26.446 0.984,1.109 0.93,-0.391 -0.18,-4.836 z m -1.347,-9.723 c 0.172,-1.117 0.824,-3.187 1.453,-4.598 1.312,-2.949 2.637,-3.746 6.312,-3.789 3.625,-0.043 11.18,0.629 11.18,0.993 0,0.484 -4.047,4.488 -4.539,4.488 -0.238,0 -0.5,-0.656 -0.586,-1.461 -0.133,-1.219 -0.391,-1.481 -1.555,-1.602 -1.586,-0.16 -7.929,2.286 -9.222,3.563 -1.051,1.035 -0.285,2.058 1.722,2.305 1.243,0.148 1.157,0.238 -1.082,1.148 -3.664,1.484 -4.054,1.375 -3.683,-1.047 z m -24.172,13.801 c 1.851,-1.824 2.512,-4.281 2.754,-10.234 0.386,-9.532 -1.641,-15.93 -6.559,-20.688 -2.699,-2.613 -4.258,-3.297 -7.519,-3.285 -4.442,0.012 -9.571,1.789 -7.153,2.484 3.27,0.934 7.395,2.684 8.52,3.614 1.043,0.863 1.277,1.425 1.156,2.753 l -0.156,1.672 -4.117,-0.14 c -3.688,-0.125 -11.731,0.66 -11.731,1.148 0,0.106 0.551,0.734 1.227,1.395 2.64,2.593 5.179,5.312 6.269,6.714 1.621,2.09 4.481,3.227 9.364,3.723 7.691,0.777 8.019,0.891 8.199,2.793 0.136,1.434 -0.317,3.512 -1.711,7.844 -0.387,1.211 0.336,1.312 1.457,0.207 z m -3.422,-12.535 c -2.621,-0.321 -5.285,-1.051 -5.285,-1.446 0,-0.211 0.769,-0.511 1.711,-0.668 2.176,-0.363 3.187,-1.343 2.336,-2.257 -0.793,-0.856 -4.731,-1.965 -7.567,-2.137 -2.14,-0.125 -2.273,-0.066 -2.425,1.101 -0.211,1.657 -0.637,1.563 -2.567,-0.585 -2.387,-2.645 -1.918,-3.118 3.09,-3.118 7.242,0 12.441,2.45 13.492,6.36 0.586,2.183 0.375,3.117 -0.68,3 -0.328,-0.035 -1.277,-0.149 -2.105,-0.25 z m -30.441,-24.824 c 0,-0.649 -1.719,-2.086 -3.454,-2.883 -3.949,-1.825 -10.644,-13.723 -14.8,-26.297 -0.692,-2.098 -1.735,-4.922 -2.321,-6.278 -1.238,-2.882 -1.336,-4.437 -0.343,-5.644 0.593,-0.727 1.281,-0.863 4.148,-0.809 4.023,0.071 8.66,1.489 13.094,4.004 7.461,4.227 19.554,14.004 24.273,19.621 1.196,1.422 2.656,2.688 3.242,2.813 1.727,0.367 6.098,-1.25 6.098,-2.258 0,-1.019 -7.937,-7.375 -14.715,-11.789 -6.586,-4.281 -14.523,-8.672 -21.258,-11.746 -9.687,-4.426 -13.742,-4.969 -16.355,-2.195 -1.598,1.695 -1.93,2.921 -1.652,6.105 0.312,3.59 5.078,14.926 9.953,23.664 4.086,7.332 7.461,11.488 10.797,13.305 1.671,0.91 3.293,1.101 3.293,0.387 z m 96.961,-1.391 c 4.378,-2.164 6.218,-4.77 11.765,-16.637 8.117,-17.379 8.633,-18.687 8.25,-20.976 -0.758,-4.496 -3.019,-6.172 -7.765,-5.743 -3.254,0.293 -13.61,4.704 -21.918,9.336 -9.536,5.321 -23.899,15.848 -23.899,17.52 0,0.918 2.723,2.629 4.188,2.629 0.91,0 1.921,-0.836 4.132,-3.41 10.004,-11.653 32.664,-24.832 39.786,-23.137 2.886,0.687 3.375,4.273 1.257,9.223 -0.535,1.257 -2.156,5.515 -3.597,9.468 -4.09,11.184 -8.227,17.59 -13.442,20.821 -2.898,1.797 -1.949,2.488 1.243,0.906 z m -47.258,-10.84 c 1.136,-2.039 2.984,-4.687 4.105,-5.887 1.121,-1.199 2.039,-2.445 2.039,-2.765 0,-0.469 -1.781,-0.539 -8.929,-0.348 -4.915,0.133 -9.133,0.406 -9.379,0.609 -0.438,0.36 2.453,3.922 6.336,7.813 1.023,1.023 2.093,2.41 2.375,3.074 0.285,0.664 0.711,1.207 0.949,1.207 0.238,0 1.363,-1.668 2.504,-3.703 z m -100,16.617 c -1.196,-0.804 -2.653,-1.769 -3.235,-2.136 -0.582,-0.368 -2.379,-1.524 -3.996,-2.575 -3.426,-2.222 -3.004,-2.308 -9.121,1.895 -4.711,3.238 -6.121,3.972 -6.863,3.562 -0.66,-0.363 -0.5,-0.984 1.777,-6.847 0.992,-2.551 1.801,-5.114 1.801,-5.7 0,-0.781 -0.73,-1.507 -2.793,-2.769 -6.687,-4.098 -8.832,-5.613 -8.645,-6.113 0.141,-0.379 2.344,-0.559 7.426,-0.61 8.258,-0.082 8.051,0.012 9.344,-4.191 0.758,-2.469 1.832,-5.414 2.82,-7.746 0.289,-0.676 0.809,-1.235 1.157,-1.235 0.757,0 1.339,1.383 4.3,10.223 0.356,1.051 0.907,2.106 1.223,2.344 0.32,0.234 3.848,0.484 7.844,0.554 5.101,0.086 7.261,0.278 7.261,0.645 0,0.289 -1.585,1.535 -3.523,2.773 -7.32,4.684 -8.512,5.676 -8.062,6.715 2.035,4.7 4.351,11.887 3.949,12.246 -0.313,0.282 -1.262,-0.089 -2.664,-1.035 z m 188.496,0.684 c -0.258,-0.371 1.676,-6.235 2.953,-8.953 0.367,-0.778 0.809,-2.102 0.988,-2.942 0.309,-1.472 0.207,-1.597 -2.609,-3.258 -5,-2.945 -8.778,-5.695 -8.578,-6.234 0.129,-0.344 2.617,-0.594 7.441,-0.742 l 7.25,-0.223 0.68,-1.273 c 0.746,-1.387 2.57,-6.578 2.949,-8.395 0.129,-0.625 0.672,-1.636 1.199,-2.246 1.176,-1.355 1.535,-0.996 2.93,2.934 0.527,1.48 1.527,4.109 2.223,5.836 l 1.269,3.144 7.711,0.223 c 4.668,0.137 7.707,0.402 7.688,0.676 -0.024,0.425 -3.145,2.59 -8.743,6.058 -3.672,2.278 -3.66,2.098 -0.726,9.43 1.433,3.59 1.777,5.871 0.918,6.137 -0.289,0.086 -1.762,-0.645 -3.27,-1.625 -1.508,-0.985 -4.168,-2.723 -5.914,-3.86 -3.539,-2.316 -2.816,-2.379 -7.394,0.649 -6.207,4.109 -8.52,5.308 -8.965,4.664 z M 394.734,132.48 c -0.351,-0.507 0.207,-2.492 1.821,-6.46 0.5,-1.235 1.183,-3.055 1.519,-4.043 0.336,-0.985 0.785,-2.2 1.004,-2.692 1.492,-3.39 2.317,-6.609 1.793,-7.004 -1.531,-1.152 -8.004,-5.359 -11.133,-7.238 -1.937,-1.16 -4.289,-2.738 -5.222,-3.504 -2.786,-2.277 -2.016,-2.457 10.632,-2.457 h 11.145 l 1.609,-4.266 c 0.887,-2.343 1.883,-5.171 2.219,-6.285 0.332,-1.109 1.035,-3.004 1.559,-4.211 0.523,-1.207 0.949,-2.543 0.949,-2.976 0,-1.024 1.398,-2.067 2.027,-1.508 0.258,0.23 0.793,1.324 1.188,2.426 0.394,1.105 0.961,2.613 1.254,3.351 0.297,0.742 1.242,3.469 2.101,6.063 0.864,2.594 1.899,5.402 2.309,6.242 l 0.738,1.527 10.914,-0.242 c 6.004,-0.129 11.199,-0.144 11.543,-0.031 1.902,0.633 -0.094,2.226 -11.57,9.23 -2.332,1.426 -4.715,3.043 -5.301,3.598 l -1.062,1.008 1.976,4.933 c 1.086,2.715 1.981,5.2 1.984,5.524 0.008,0.328 0.438,1.539 0.961,2.695 3.168,7.043 2.676,7.903 -2.527,4.406 -2.039,-1.367 -4.609,-3.07 -5.715,-3.777 -1.109,-0.711 -3.433,-2.234 -5.164,-3.387 -1.734,-1.152 -3.543,-2.086 -4.023,-2.074 -0.485,0.012 -2.051,0.77 -3.485,1.684 -10.343,6.597 -14.257,9.168 -14.511,9.539 -0.399,0.57 -1.106,0.539 -1.532,-0.071 z"
       style="fill:#0c0c0c;fill-opacity:1;fill-rule:nonzero;stroke:none"
       transform="scale(1.3333333)" />
  </g>
</svg>
