<?xml version="1.0" encoding="UTF-8" standalone="no"?>
<!-- Created with Inkscape (http://www.inkscape.org/) -->

<svg
   version="1.1"
   id="svg1"
   width="2666.6667"
   height="2666.6667"
   viewBox="0 0 2666.6667 2666.6667"
   xmlns="http://www.w3.org/2000/svg"
   xmlns:svg="http://www.w3.org/2000/svg">
  <defs
     id="defs1">
    <linearGradient
       x1="0"
       y1="0"
       x2="1"
       y2="0"
       gradientUnits="userSpaceOnUse"
       gradientTransform="matrix(9.8529081,302.10043,302.10043,-9.8529081,575.51837,662.42017)"
       spreadMethod="pad"
       id="linearGradient5">
      <stop
         style="stop-opacity:1;stop-color:#980f0d"
         offset="0"
         id="stop1" />
      <stop
         style="stop-opacity:1;stop-color:#e43032"
         offset="0.34619536"
         id="stop2" />
      <stop
         style="stop-opacity:1;stop-color:#e43032"
         offset="0.449642"
         id="stop3" />
      <stop
         style="stop-opacity:1;stop-color:#f3a400"
         offset="0.81307533"
         id="stop4" />
      <stop
         style="stop-opacity:1;stop-color:#f3a400"
         offset="1"
         id="stop5" />
    </linearGradient>
    <linearGradient
       x1="0"
       y1="0"
       x2="1"
       y2="0"
       gradientUnits="userSpaceOnUse"
       gradientTransform="matrix(-150.22896,318.01715,-318.01715,-150.22896,1309.3964,1132.8702)"
       spreadMethod="pad"
       id="linearGradient8">
      <stop
         style="stop-opacity:1;stop-color:#ca3329"
         offset="0"
         id="stop6" />
      <stop
         style="stop-opacity:1;stop-color:#ef9624"
         offset="0.97489642"
         id="stop7" />
      <stop
         style="stop-opacity:1;stop-color:#ef9624"
         offset="1"
         id="stop8" />
    </linearGradient>
    <linearGradient
       x1="0"
       y1="0"
       x2="1"
       y2="0"
       gradientUnits="userSpaceOnUse"
       gradientTransform="matrix(27.018982,828.43018,828.43018,-27.018982,1165.1042,628.18024)"
       spreadMethod="pad"
       id="linearGradient13">
      <stop
         style="stop-opacity:1;stop-color:#980f0d"
         offset="0"
         id="stop9" />
      <stop
         style="stop-opacity:1;stop-color:#e43032"
         offset="0.34619536"
         id="stop10" />
      <stop
         style="stop-opacity:1;stop-color:#e43032"
         offset="0.449642"
         id="stop11" />
      <stop
         style="stop-opacity:1;stop-color:#f3a400"
         offset="0.81307533"
         id="stop12" />
      <stop
         style="stop-opacity:1;stop-color:#f3a400"
         offset="1"
         id="stop13" />
    </linearGradient>
    <clipPath
       clipPathUnits="userSpaceOnUse"
       id="clipPath15">
      <path
         d="M 0,2000 H 2000 V 0 H 0 Z"
         transform="translate(-860.9542,-1412.9167)"
         id="path15" />
    </clipPath>
    <clipPath
       clipPathUnits="userSpaceOnUse"
       id="clipPath17">
      <path
         d="M 0,2000 H 2000 V 0 H 0 Z"
         transform="translate(-295.96191,-1097.8022)"
         id="path17" />
    </clipPath>
    <clipPath
       clipPathUnits="userSpaceOnUse"
       id="clipPath19">
      <path
         d="M 0,2000 H 2000 V 0 H 0 Z"
         transform="translate(-438.92941,-1149.9078)"
         id="path19" />
    </clipPath>
    <clipPath
       clipPathUnits="userSpaceOnUse"
       id="clipPath21">
      <path
         d="M 0,2000 H 2000 V 0 H 0 Z"
         transform="translate(-427.82831,-1410.9877)"
         id="path21" />
    </clipPath>
    <clipPath
       clipPathUnits="userSpaceOnUse"
       id="clipPath23">
      <path
         d="M 0,2000 H 2000 V 0 H 0 Z"
         transform="translate(-585.76501,-1598.6182)"
         id="path23" />
    </clipPath>
    <clipPath
       clipPathUnits="userSpaceOnUse"
       id="clipPath25">
      <path
         d="M 0,2000 H 2000 V 0 H 0 Z"
         transform="translate(-734.76492,-1511.9244)"
         id="path25" />
    </clipPath>
    <clipPath
       clipPathUnits="userSpaceOnUse"
       id="clipPath27">
      <path
         d="M 0,2000 H 2000 V 0 H 0 Z"
         transform="translate(-876.0568,-1681.1089)"
         id="path27" />
    </clipPath>
    <clipPath
       clipPathUnits="userSpaceOnUse"
       id="clipPath29">
      <path
         d="M 0,2000 H 2000 V 0 H 0 Z"
         transform="translate(-1178.5041,-1779.6719)"
         id="path29" />
    </clipPath>
    <clipPath
       clipPathUnits="userSpaceOnUse"
       id="clipPath31">
      <path
         d="M 0,2000 H 2000 V 0 H 0 Z"
         transform="translate(-1362.6786,-1610.9412)"
         id="path31" />
    </clipPath>
    <clipPath
       clipPathUnits="userSpaceOnUse"
       id="clipPath33">
      <path
         d="M 0,2000 H 2000 V 0 H 0 Z"
         transform="translate(-1603.9089,-1534.2035)"
         id="path33" />
    </clipPath>
    <clipPath
       clipPathUnits="userSpaceOnUse"
       id="clipPath35">
      <path
         d="M 0,2000 H 2000 V 0 H 0 Z"
         transform="translate(-1621.8733,-1316.6417)"
         id="path35" />
    </clipPath>
    <clipPath
       clipPathUnits="userSpaceOnUse"
       id="clipPath37">
      <path
         d="M 0,2000 H 2000 V 0 H 0 Z"
         transform="translate(-1547.8656,-1203.389)"
         id="path37" />
    </clipPath>
    <clipPath
       clipPathUnits="userSpaceOnUse"
       id="clipPath39">
      <path
         d="M 0,2000 H 2000 V 0 H 0 Z"
         transform="translate(-1695.7065,-1068.3179)"
         id="path39" />
    </clipPath>
    <clipPath
       clipPathUnits="userSpaceOnUse"
       id="clipPath41">
      <path
         d="M 0,2000 H 2000 V 0 H 0 Z"
         transform="translate(-1087.6777,-292.43458)"
         id="path41" />
    </clipPath>
    <clipPath
       clipPathUnits="userSpaceOnUse"
       id="clipPath43">
      <path
         d="M 0,2000 H 2000 V 0 H 0 Z"
         transform="translate(-1070.0905,-364.50051)"
         id="path43" />
    </clipPath>
    <clipPath
       clipPathUnits="userSpaceOnUse"
       id="clipPath45">
      <path
         d="M 0,2000 H 2000 V 0 H 0 Z"
         transform="translate(-1002.1708,-359.49628)"
         id="path45" />
    </clipPath>
    <clipPath
       clipPathUnits="userSpaceOnUse"
       id="clipPath47">
      <path
         d="M 0,2000 H 2000 V 0 H 0 Z"
         transform="translate(-1024.1202,-346.48431)"
         id="path47" />
    </clipPath>
    <clipPath
       clipPathUnits="userSpaceOnUse"
       id="clipPath49">
      <path
         d="M 0,2000 H 2000 V 0 H 0 Z"
         transform="translate(-843.0961,-325.82233)"
         id="path49" />
    </clipPath>
    <clipPath
       clipPathUnits="userSpaceOnUse"
       id="clipPath51">
      <path
         d="M 0,2000 H 2000 V 0 H 0 Z"
         transform="translate(-1031.9851,-361.78371)"
         id="path51" />
    </clipPath>
    <clipPath
       clipPathUnits="userSpaceOnUse"
       id="clipPath53">
      <path
         d="M 0,2000 H 2000 V 0 H 0 Z"
         transform="translate(-887.99485,-291.86248)"
         id="path53" />
    </clipPath>
    <clipPath
       clipPathUnits="userSpaceOnUse"
       id="clipPath55">
      <path
         d="M 0,2000 H 2000 V 0 H 0 Z"
         transform="translate(-803.989,-335.76013)"
         id="path55" />
    </clipPath>
    <clipPath
       clipPathUnits="userSpaceOnUse"
       id="clipPath57">
      <path
         d="M 0,2000 H 2000 V 0 H 0 Z"
         transform="translate(-1141.0837,-352.63273)"
         id="path57" />
    </clipPath>
    <clipPath
       clipPathUnits="userSpaceOnUse"
       id="clipPath59">
      <path
         d="M 0,2000 H 2000 V 0 H 0 Z"
         transform="translate(-791.83532,-311.59513)"
         id="path59" />
    </clipPath>
    <clipPath
       clipPathUnits="userSpaceOnUse"
       id="clipPath61">
      <path
         d="M 0,2000 H 2000 V 0 H 0 Z"
         transform="translate(-1210.0906,-294.92713)"
         id="path61" />
    </clipPath>
    <clipPath
       clipPathUnits="userSpaceOnUse"
       id="clipPath63">
      <path
         d="M 0,2000 H 2000 V 0 H 0 Z"
         transform="translate(-787.75959,-320.96083)"
         id="path63" />
    </clipPath>
    <clipPath
       clipPathUnits="userSpaceOnUse"
       id="clipPath65">
      <path
         d="M 0,2000 H 2000 V 0 H 0 Z"
         transform="translate(-1115.49,-364.64368)"
         id="path65" />
    </clipPath>
    <clipPath
       clipPathUnits="userSpaceOnUse"
       id="clipPath67">
      <path
         d="M 0,2000 H 2000 V 0 H 0 Z"
         transform="translate(-1144.374,-372.29361)"
         id="path67" />
    </clipPath>
  </defs>
  <g
     id="layer-MC0">
    <path
       id="path5"
       d="m 514.316,752.713 0.41,-0.821 c 0.82,-1.573 1.607,-3.179 2.462,-4.787 v 0 c 28.278,-54.368 65.071,-103.299 109.42,-145.563 v 0 203.145 c -0.103,4.035 -0.65,41.102 10.498,86.477 v 0 c 3.008,12.583 6.804,24.893 11.215,36.621 v 0 c -15.729,7.66 -28.279,20.244 -34.775,34.98 v 0 c -1.812,4.172 -3.078,8.377 -3.795,12.584 v 0 C 552.1,914.21 518.316,835.462 514.316,752.713"
       transform="matrix(1.3333333,0,0,-1.3333333,0,2666.6667)"
       style="fill:url(#linearGradient5);stroke:none" />
    <path
       id="path8"
       d="m 1173.572,1484.873 c 0.613,1.335 1.227,2.669 1.841,4.002 v 0 c -0.663,-1.33 -1.276,-2.664 -1.841,-4.002 m -29.309,-87.325 c -3.764,-31.672 3.702,-65.728 28.202,-89.553 v 0 c 22.569,-21.95 54.784,-34.124 81.555,-52.227 v 0 c 30.465,-20.599 54.639,-43.958 71.088,-67.666 v 0 c 6.619,38.13 -13.067,74.468 -40.388,104.991 v 0 c -27.322,30.524 -61,56.799 -85.186,89.228 v 0 c -23.279,31.212 -40.451,68.237 -25.962,102.552 v 0 c -13.004,-28.301 -25.716,-57.078 -29.309,-87.325"
       transform="matrix(1.3333333,0,0,-1.3333333,0,2666.6667)"
       style="fill:url(#linearGradient8);stroke:none" />
    <path
       id="path13"
       d="m 877.966,1363.449 c -6.086,-6.874 -12.001,-14.191 -17.609,-21.714 v 0 c 1.059,-4.958 1.914,-9.232 2.666,-13.301 v 0 c 35.118,-176.201 32.28,-306.308 31.562,-326.449 v 0 c 36.074,-40.108 52.179,-92.152 59.36,-130.859 v 0 c 2.735,2.257 5.403,4.514 7.967,6.771 v 0 c 129.492,110.445 102.684,196.374 76.765,279.465 v 0 c -1.504,4.719 -2.975,9.403 -4.376,14.088 v 0 l -6.942,22.671 -4.616,15.147 10.463,-11.899 15.593,-17.712 c 0.273,-0.274 0.785,-0.787 1.47,-1.573 v 0 c 36.074,-38.298 122.447,-140.605 144.092,-261.719 v 0 c 15.627,-87.228 16.448,-179.62 2.463,-274.679 v 0 c -10.977,-74.782 -28.895,-135.818 -42.777,-175.517 v 0 c 16.276,4.343 32.655,9.506 48.828,15.455 v 0 l 2.907,1.06 c 72.867,27.288 138.143,68.902 194.05,123.611 v 0 l 1.709,1.744 c 0.718,0.718 1.471,1.539 2.257,2.326 v 0 l 1.129,1.162 c 35.014,35.048 65.104,74.645 89.484,117.764 v 0 1.333 l 0.992,1.026 0.684,0.649 c 8.241,108.942 -21.473,230.637 -76.252,314.857 v 0 c 3.454,-29.578 4.753,-62.301 -5.847,-93.828 v 0 c -16.242,-47.461 -54.881,-83.194 -100.906,-93.281 v 0 l -12.275,-2.701 -8.207,-1.812 4.616,7.043 6.907,10.498 c 51.12,77.927 40.383,176.167 -26.739,244.417 v 0 c -24.483,24.893 -55.838,45.478 -86.168,65.413 v 0 l -0.24,0.137 c -37.989,24.893 -77.277,50.641 -104.77,85.826 v 0 c -27.559,35.151 -40.656,79.364 -36.894,124.535 v 0 c 3.009,36.21 16.344,70.028 38.707,98.477 v 0 c -80.971,-20.106 -155.24,-65.413 -210.053,-128.431"
       transform="matrix(1.3333333,0,0,-1.3333333,0,2666.6667)"
       style="fill:url(#linearGradient13);stroke:none" />
    <path
       id="path14"
       d="m 0,0 v -3.913 c 0,-2.419 -1.992,-4.411 -4.412,-4.411 -1.708,0 -3.344,1.066 -4.055,2.703 l -6.262,14.8 c -0.712,1.636 -2.988,1.636 -3.7,0 l -6.047,-14.302 c -0.855,-1.921 -2.776,-3.201 -4.84,-3.201 -2.134,0 -4.055,1.28 -4.838,3.201 l -6.119,14.302 c -0.711,1.636 -2.989,1.636 -3.629,0 l -6.119,-14.302 c -0.854,-1.921 -2.704,-3.201 -4.838,-3.201 -2.135,0 -3.985,1.28 -4.839,3.201 l -6.119,14.302 c -0.641,1.636 -2.917,1.636 -3.629,0 l -6.12,-14.302 c -0.782,-1.921 -2.703,-3.201 -4.838,-3.201 -2.063,0 -3.985,1.28 -4.838,3.201 L -91.29,9.179 c -0.712,1.636 -2.988,1.636 -3.701,0 l -6.047,-14.302 c -0.854,-1.921 -2.776,-3.201 -4.838,-3.201 -2.135,0 -4.056,1.28 -4.839,3.201 l -6.119,14.302 c -0.712,1.636 -2.989,1.636 -3.629,0 l -6.333,-14.8 c -0.711,-1.637 -2.277,-2.703 -4.055,-2.703 -2.419,0 -4.412,1.992 -4.412,4.411 V 0 c 0,15.725 12.737,28.39 28.39,28.39 H -28.39 C -12.737,28.39 0,15.725 0,0"
       style="fill:#363939;fill-opacity:1;fill-rule:nonzero;stroke:none"
       transform="matrix(1.3333333,0,0,-1.3333333,1147.9389,782.77773)"
       clip-path="url(#clipPath15)" />
    <path
       id="path16"
       d="M 0,0 C 0.496,-1.843 1.215,-4.783 3.414,-4.329 5.565,-4.224 4.182,-0.852 4.036,0.95 3.498,2.444 3.191,2.835 0.894,4.538 -0.021,2.863 0.168,1.41 0,0 m -107.73,-35.775 c 1.229,7.352 0.942,10.954 1.026,17.72 0.154,10.333 2.109,20.806 1.557,31.223 -0.733,11.862 2.088,23.661 2.06,35.44 -0.189,1.452 0.328,2.82 1.117,3.435 1.578,1.243 2.737,-1.033 3.267,-2.528 2.277,-4.908 5.279,-6.688 9.998,-9.034 2.647,-1.739 3.638,-5.425 3.924,-9.028 0.489,-7.91 -0.817,-15.96 -1.773,-24.052 -1.047,-8.804 -1.089,-15.221 -1.739,-23.711 -0.398,-6.374 -0.035,-15.339 0.503,-16.826 6.856,0.615 11.695,-0.677 18.467,-0.761 16.708,-0.551 34.881,-3.777 51.324,-3.582 3.91,-0.104 5.131,1.18 5.013,6.186 -0.014,8.923 1.438,15.179 2.129,24.018 0.817,9.893 0.175,13.538 3.68,15.981 2.478,-3.148 4.238,-9.425 4.957,-12.364 1.263,-4.434 1.857,-8.428 3.204,-6.089 1.823,3.352 3.98,3.449 4.846,-1.291 1.047,-6.186 0.635,-9.712 0.258,-12.875 -0.335,-2.814 0.573,-7.205 0.817,-11.164 0.189,-1.445 -0.105,-3.91 0.6,-3.993 13.022,-1.544 33.911,-2.947 47.184,-2.374 7.163,0.223 14.033,-2.018 21.504,-2.193 9.628,-0.069 19.403,-1.941 28.842,-0.558 3.296,0.677 6.814,0.265 9.893,-0.817 3.442,-1.117 6.605,-1.494 9.775,-1.871 5.669,-0.314 11.136,-2.388 16.729,-3.407 4.531,-0.894 2.352,-4.203 3.47,-6.836 3.623,-2.569 2.003,-4.161 -2.43,-5.417 -1.941,1.654 -21.42,2.89 -21.756,0.076 -0.251,-2.115 10.599,-0.9 14.921,-3.554 4.328,-2.653 0.363,-15.031 -1.892,-19.046 -2.695,-4.678 -3.882,-5.606 -13.734,-4.44 -10.556,1.249 -21.511,2.192 -32.375,3.833 -11.925,1.773 -23.661,2.087 -35.67,3.155 -13.81,0.922 -31.467,5.509 -45.277,6.431 -6.026,0.356 -5.321,-5.795 -6.898,-7.031 -1.655,-1.948 -6.459,-0.307 -8.511,-2.562 -2.053,-2.256 -3.561,0.062 -4.636,3.044 -0.496,1.843 -0.657,6.5 -1.543,8.036 -16.191,1.92 -29.212,3.456 -45.445,5.027 -16.931,1.647 -32.319,1.326 -48.901,2.932 -3.163,0.377 -5.195,1.327 -5.914,4.266 -0.81,2.241 -1.222,4.79 2.423,5.425 2.199,0.454 1.578,1.243 2.925,3.582 -7.519,-0.182 -5.962,3.916 -7.575,8.392 3.107,2.129 5.704,8.958 9.656,9.202"
       style="fill:#363939;fill-opacity:1;fill-rule:nonzero;stroke:none"
       transform="matrix(1.3333333,0,0,-1.3333333,394.61587,1202.9304)"
       clip-path="url(#clipPath17)" />
    <path
       id="path18"
       d="M 0,0 C 0.545,-0.573 0.998,-0.356 1.236,0.307 2.053,1.522 1.508,2.095 0.293,2.911 -0.496,2.814 -1.375,3.512 -1.857,2.178 -2.332,0.845 -0.88,0.698 0,0 m -220.208,99.757 c 0.81,1.208 2.695,0.154 3.693,-0.203 4.336,-1.564 8.665,-3.127 12.763,-5.355 12.854,-6.144 26.545,-9.956 40.006,-14.431 5.663,-2.039 10.969,-5.083 16.785,-5.676 2.457,-0.51 4.671,-1.683 7.177,0.049 -11.108,8.901 -25.7,8.14 -37.981,14.829 -11.492,6.779 -25.456,8.804 -38.4,15.73 5.348,3.344 9.32,0.782 12.867,-0.873 8.672,-3.128 17.455,-5.92 26.126,-9.041 15.214,-5.865 30.455,-10.613 45.794,-16.142 15.123,-5.076 29.764,-11.485 45.515,-13.775 12.295,-1.418 23.899,-3.722 36.047,-6.591 10.578,-3.065 19.857,-8.672 29.499,-13.273 2.213,-1.18 4.091,-2.234 6.423,-3.072 3.547,-1.655 7.101,-3.316 9.712,-6.514 2.611,-3.205 6.277,-4.524 10.549,-4.182 0.692,0.88 0.601,1.669 -0.279,2.36 -2.402,2.751 -2.737,2.869 0.894,4.573 1.361,0.642 1.717,1.641 2.08,2.639 1.564,4.336 3.582,8.881 4.266,13.915 1.278,6.696 3.233,13.147 4.971,20.052 1.201,3.337 2.193,7.121 5.272,9.404 1.599,1.306 1.99,3.428 2.709,5.425 0.6,1.669 0.872,3.456 2.471,4.762 1.599,1.305 3.54,2.492 4.364,-0.44 1.061,-2.269 1.822,-3.295 4.308,-2.688 1.354,0.642 2.45,-0.51 2.422,-1.627 C 40.167,84.222 41.842,79.475 39.133,74.05 35.58,66.286 35.363,57.321 31.691,49.229 28.109,40.348 25.742,30.65 23.166,21.413 21.036,12.379 16.617,1.166 15.158,-8.099 13.999,-14.466 9.432,-17.713 1.683,-18.313 c -1.467,4.3 3.7,9.216 -1.369,12.93 -1.787,0.265 -3.051,-1.159 -4.748,-1.683 -4.175,-1.131 -8.015,-2.38 -12.469,-1.152 -20.366,6.214 -40.006,14.425 -60.156,20.185 -17.036,5.013 -33.583,11.359 -50.493,16.701 -17.789,6.039 -35.481,11.289 -53.271,17.329 -14.125,4.712 -28.102,10.884 -42.583,14.599 -3.456,0.865 -3.735,3.232 -2.89,5.564 2.59,5.09 -0.426,10.326 1.047,15.444 0.363,0.998 -0.398,2.025 -1.159,3.058 -3.735,3.226 -3.198,6.8 -2.087,10.92 2.723,1.277 6.297,0.747 8.287,4.175"
       style="fill:#363939;fill-opacity:1;fill-rule:nonzero;stroke:none"
       transform="matrix(1.3333333,0,0,-1.3333333,585.2392,1133.4563)"
       clip-path="url(#clipPath19)" />
    <path
       id="path20"
       d="M 0,0 C -1.662,1.976 -14.013,6.5 -15.884,5.627 -15.13,1.69 -2.164,0.607 0,0 m -77.869,-14.438 c 6.361,-3.882 11.723,-9.231 16.401,-14.97 5.941,-7.023 14.452,-11.513 20.003,-19.123 5.739,-7.317 12.078,-13.761 19.402,-20.01 9.181,-7.931 17.958,-16.456 26.741,-24.974 5.976,10.075 12.839,20.834 18.62,30.622 1.194,1.76 1.795,3.917 2.402,6.075 2.109,4.999 1.718,5.69 -3.386,7.002 -8.532,1.934 -16.463,6.026 -24.897,8.749 -7.059,2.213 -13.713,6.297 -21.267,8.42 -9.118,2.332 -18.034,6.235 -26.259,10.528 -9.104,4.888 -18.802,8.895 -29.791,11.632 0.174,-2.262 0.949,-3.644 2.031,-3.951 m -39.335,48.084 c 0.6,2.157 10.312,-0.573 13.349,-1.781 -7.331,4.978 -11.814,9.726 2.115,6.277 6.675,-1.522 13.741,-2.465 20.311,-4.776 7.449,-2.911 15.395,-4.447 22.446,-7.938 5.39,-2.8 4.315,-1.215 10.312,-1.85 10.117,-0.866 18.426,-6.926 27.732,-10.243 C -5.348,7.903 10.445,4.049 26.44,0.482 38.414,-2.067 49.676,-7.561 61.336,-12.47 c 3.037,-1.201 5.571,-3.777 8.902,-5.18 12.846,-4.427 26.084,-8.26 39.629,-11.025 7.952,-1.536 16.582,-3.958 23.808,-9.718 3.323,-2.681 6.94,-5.558 4.147,-10.941 0.293,-0.202 3.33,-1.403 1.438,-4.831 -2.464,-0.468 -4.147,-2.325 -8.078,-1.802 -1.571,0.21 -2.374,-2.241 -4.042,-1.543 -4.022,1.013 -7.687,-2.492 -5.446,-4.873 4.489,-4.755 -2.521,-8.141 -4.022,-12.253 -0.712,-2.947 -2.59,-3.812 -5.334,-2.814 -11.869,3.337 -23.445,6.479 -34.42,10.494 -9.314,3.316 -19.431,4.182 -28.64,8.28 -3.33,1.404 -5.599,-0.055 -7.394,-2.695 -7.17,-11.834 -14.012,-20.038 -20.499,-32.765 -1.501,-2.842 -6.053,-7.031 -5.194,-10.187 0.565,-2.953 3.994,-4.845 6.039,-7.52 4.776,-4.95 8.567,-10.088 13.748,-14.452 l 18.648,-16.072 c 2.15,-1.885 4.587,-3.966 6.535,-6.144 3.128,-2.974 3.009,-5.034 -1.145,-8.644 -1.089,-0.97 -8.937,1.348 -5.041,-3.009 2.248,-2.374 -6.681,0.251 -9.411,2.534 -12.212,10.417 -23.431,21.023 -33.66,33.094 l -3.798,3.861 c -3.714,3.373 -3.421,3.17 -7.177,0.154 -1.976,-1.655 -3.861,-3.805 -7.003,-3.386 -1.85,2.967 0.53,5.208 1.627,7.456 2.813,7.946 3.686,6.068 -2.465,11.521 -8.979,8.231 -19.012,20.596 -28.186,28.527 -13.475,11.709 -23.326,21.812 -35.314,35.077 -9.063,9.998 -12.574,13.664 -22.433,22.489 -7.806,7.429 -15.611,14.864 -23.319,21.804 -1.857,1.683 -4.008,3.568 -6.654,4.078 -2.451,0.81 -5.585,2.506 -4.769,6.234 0.817,3.729 -0.719,9.049 3.722,11.178 3.651,2.228 5.257,5.858 6.661,9.189"
       style="fill:#363939;fill-opacity:1;fill-rule:nonzero;stroke:none"
       transform="matrix(1.3333333,0,0,-1.3333333,570.43773,785.34973)"
       clip-path="url(#clipPath21)" />
    <path
       id="path22"
       d="M 0,0 C -1.934,7.526 -9.516,16.435 -14.941,17.545 -12.616,8.965 -5.369,6.144 0,0 m -137.368,9.481 c 5.257,-2.597 10.291,-4.922 15.939,-6.311 5.146,-1.327 9.356,-4.315 13.28,-7.527 21.42,-16.002 45.047,-34.762 66.188,-50.981 6.479,-5.265 12.951,-10.522 21.141,-16.226 -2.876,8.141 -6.751,14.117 -10.347,20.317 -5.474,9.684 -11.785,18.712 -16.763,28.34 -5.865,10.738 -11.73,21.476 -16.82,32.381 -4.538,9.077 -10.738,19.096 -12.895,29.171 -0.936,5.145 -0.328,10.626 4.21,12.895 l 7.75,3.924 c 1.878,1.054 3.428,1.382 5.697,1.382 5.976,-0.663 6.311,0.056 4.489,6.312 -0.223,0.279 0.056,0.496 0.161,1.494 1.829,0.552 4.482,-0.496 5.097,2.709 0.167,1.494 2.269,2.269 4.091,2.828 1.054,0.384 2.269,0 3.323,0.384 12.121,4.705 18.872,-2.605 25.568,-10.41 0.887,-1.103 1.494,-2.437 2.157,-3.268 C -2.206,43.616 6.814,27.229 17.825,12.896 26.901,1.543 36.473,-9.858 46.653,-20.317 c 8.636,-8.525 16.603,-18.488 25.239,-27.013 11.346,-11.352 20.199,-24.688 30.713,-36.704 4.483,-5.034 9.573,-9.132 13.496,-14.613 4.099,-6.255 3.38,-10.459 -3.819,-13.942 -0.719,-1.941 0.943,-2.884 1.55,-4.211 0.664,-3.1 -0.551,-4.978 -3.484,-6.416 -6.758,-4.042 -13.782,-3.763 -20.924,-4.482 -8.413,-0.831 -13.28,2.988 -17.49,8.245 -6.695,7.806 -13.447,15.116 -19.032,23.808 -3.436,5.425 -7.75,9.684 -12.065,13.95 -15.605,16.107 -29.052,33.485 -44.384,49.816 -14.438,15.22 -27.222,31.774 -42.498,46.332 l -2.598,1.549 c 0.44,-5.089 2.263,-9.076 3.868,-12.783 3.596,-8.469 6.361,-17.602 10.515,-25.631 8.518,-16.33 16.268,-32.822 27.774,-47.211 2.437,-3.044 4.042,-6.759 6.423,-10.298 3.205,-5.146 4.755,-11.625 10.459,-14.781 5.418,-3.372 3.54,-8.965 4.036,-13.559 0.335,-1.55 -1.495,-2.101 -2.765,-2.213 -2.109,-0.775 -4.65,-0.998 -6.368,-2.821 0.999,-2.38 2.325,-4.042 5.09,-1.829 2.988,1.934 6.919,-1.271 9.628,-1.829 0.223,-2.542 -1.103,-3.156 -2.541,-4.755 -4.266,-4.322 -10.019,-8.469 -13.454,-7.582 -4.427,0.998 -4.755,0.279 -9.133,-0.496 -6.919,-0.998 -13.726,1.271 -19.647,4.706 -20.142,11.569 -40.229,23.641 -59.157,37.088 -10.019,7.421 -20.254,15.115 -30.553,22.314 -3.26,2.381 -6.528,4.761 -10.57,6.975 5.536,-4.65 6.975,-12.121 12.511,-16.771 6.417,-5.76 10.62,-13.286 16.436,-19.989 9.404,-10.626 18.425,-22.468 28.109,-32.878 8.58,-9.02 16.875,-18.264 25.791,-26.565 5.25,-4.874 10.507,-9.747 14.382,-15.724 6.479,-9.795 13.999,-19.207 21.581,-28.123 1.383,-1.159 2.493,-2.541 2.772,-4.594 0.216,-4.81 -1.278,-6.912 -7.198,-8.022 -0.664,-1.438 0.942,-2.876 -0.503,-4.482 -0.719,0.335 -1.766,-0.056 -2.43,0.775 l -13.23,14.836 -25.121,32.55 c -7.471,9.907 -15.772,19.151 -24.625,27.948 -17.874,18.376 -34.309,38.365 -49.69,58.732 -11.017,14.333 -25.072,30.776 -36.306,45.389 -1.27,2.157 -3.316,4.154 -5.145,5.871 -2.046,1.99 -1.55,4.203 -0.273,6.584 2.437,3.763 5.698,5.921 9.356,7.024 1.271,2.381 -0.279,4.322 -0.056,6.312 0.775,6.974 0.887,7.973 7.918,9.963 3.923,1.326 8.357,2.597 12.839,-0.168 0.719,-0.335 1.711,-0.447 2.598,0.719 -1.439,2.933 -4.755,4.818 -5.146,8.134 1.166,1.383 2.157,1.278 3.1,0.663"
       style="fill:#363939;fill-opacity:1;fill-rule:nonzero;stroke:none"
       transform="matrix(1.3333333,0,0,-1.3333333,781.02,535.17573)"
       clip-path="url(#clipPath23)" />
    <path
       id="path24"
       d="M 0,0 C 4.999,2.765 4.999,2.765 2.897,6.123 1.648,8.294 0.07,14.145 -2.828,15.66 -5.132,10.927 -0.922,4.21 0,0 m -52.881,233.404 c 0.461,-0.196 1.781,0.328 2.304,0.921 12.903,7.827 27.181,13.154 40.076,20.988 3.491,1.773 6.717,4.21 10.333,5.655 6.452,2.96 15.661,0.922 21.714,-4.678 -6.779,-4.999 -13.684,-9.67 -21.253,-12.693 -7.701,-2.695 -15.074,-5.264 -22.509,-8.616 -6.773,-3.092 -12.896,-7.833 -19.675,-10.926 -1.976,-0.789 -2.437,-2.5 -2.304,-4.734 1.515,-10.466 7.17,-18.886 12.302,-27.899 1.648,-3.163 2.632,-6.584 4.077,-10.201 4.999,-14.41 9.998,-28.821 17.106,-42.771 10.2,5.984 21.916,7.233 31.781,13.091 4.874,3.086 9.677,-0.335 15.137,-1.585 -1.711,-3.351 -3.163,-5.459 -5.662,-6.842 -3.156,-1.648 -5.858,-3.484 -8.616,-6.116 -6.521,-5.662 -14.285,-9.146 -22.377,-12.763 -4.147,-2.038 -4.147,-2.038 -2.108,-6.186 3.491,-7.764 6.646,-15.66 9.607,-24.017 3.093,-8.686 5.327,-18.097 9.537,-26.72 1.515,-2.828 2.171,-6.381 2.695,-9.607 1.187,-8.685 3.819,-17.175 8.092,-25.002 1.976,-3.03 3.686,-3.491 6.514,-1.976 2.304,0.922 4.21,2.828 7.107,3.226 0.789,-0.07 1.907,-0.007 2.57,-1.648 -2.304,-4.741 -10.333,-3.749 -12.309,-10.263 3.156,-0.266 4.74,1.515 6.451,2.96 10.326,7.561 21.19,13.817 31.39,21.707 5.265,4.014 11.905,5.529 17.302,9.216 1.515,0.984 3.421,0.984 5.131,0.523 2.765,-1.187 5.397,-2.038 8.029,-2.897 -0.921,-3.421 -5.069,-3.554 -6.709,-6.116 0.132,-2.241 2.499,-2.437 3.812,-3.819 2.569,-1.648 2.702,-3.882 -0.258,-5.069 C 91.009,36.773 87.322,32.626 82.91,29.338 79.558,27.236 76.333,24.8 72.709,23.354 62.516,19.27 52.643,15.325 43.56,9.405 41.193,7.694 38.889,6.772 39.811,2.562 40.537,-0.203 38.693,-1.32 35.601,-0.265 32.179,0.656 30.266,-1.25 27.767,-2.632 15.723,-9.74 3.617,-15.723 -9.677,-20.659 c -1.976,-0.789 -4.273,0.195 -6.514,0.062 -1.906,0.007 -2.765,1.187 -3.288,2.507 -0.789,1.969 -0.063,3.023 1.445,4.015 4.608,3.749 9.614,6.507 14.348,11.841 -3.024,7.568 -6.382,15.004 -9.21,23.026 -7.763,25.142 -18.285,47.644 -26.049,72.779 -7.826,24.353 -16.77,48.636 -25.588,72.583 -4.406,11.981 -10.131,23.431 -14.732,34.945 -1.187,2.96 -3.03,3.749 -5.662,2.695 -4.273,-1.711 -4.539,0.858 -9.077,-0.196 -2.108,-0.461 -4.014,-0.461 -5.927,1.452 5.99,5.062 8.294,5.984 14.347,9.935 -0.46,2.102 -0.789,3.882 -1.445,5.523 -1.32,3.296 -2.039,6.053 2.5,7.108 0.328,0.132 0.984,0.398 0.858,0.726 3.687,7.959 10.592,6.905 17.301,7.303 4.937,0.063 9.279,0.656 13.489,-2.241"
       style="fill:#363939;fill-opacity:1;fill-rule:nonzero;stroke:none"
       transform="matrix(1.3333333,0,0,-1.3333333,979.68653,650.76747)"
       clip-path="url(#clipPath25)" />
    <path
       id="path26"
       d="m 0,0 c 0.998,0.503 -3.959,7.289 -6.835,9.726 -4.238,4.384 -8.302,5.208 -9.37,7.554 -5.383,2.423 -9.921,6.402 -15.737,6.961 C -24.06,14.676 -9.817,5.697 0,0 m -36.005,-94.625 c -4.944,-2.891 -7.646,3.156 -9.517,6.102 5.313,0.433 6.64,-3.665 9.517,-6.102 m 54.723,225.723 c 8.023,-0.949 14.264,-4.314 17.979,-12.364 l 9.3,-19.033 c 2.939,-5.292 1.626,-10.864 1.71,-16.226 0.014,-2.506 -3.491,-3.03 -4.524,-5.697 -0.873,-3.714 -2.856,-7.233 -4.085,-11.003 -2.206,0.384 -2.227,2.89 -3.784,3.735 -2.346,-1.068 -0.475,-4.015 -2.422,-5.383 -0.294,-0.398 -0.65,-0.454 -1.104,0.195 -6.709,6.521 -11.073,14.111 -10.738,23.836 0.321,5.062 -1.061,9.517 -3.197,14.215 -2.751,6.396 -13.07,13.091 -19.012,9.698 -3.351,-1.578 -6.591,-3.854 -9.886,-5.781 -3.596,-2.332 -5.118,-6.5 -6.347,-10.27 -1.229,-3.77 -1.689,-10.284 -3.316,-13.754 -2.933,-4.385 -1.411,-14.544 3.267,-17.071 C -5.613,59.004 3.135,48.489 12.714,39.531 20.282,32.061 28.989,26.559 37.702,21.05 44.9,16.037 51.854,10.27 57.866,3.645 c 2.171,-2.542 5.096,-5.328 7.917,-7.415 9.621,-6.801 10.948,-18.069 15.681,-28.116 3.205,-7.045 3.659,-14.865 5.16,-22.524 0.524,-3.505 0.754,-7.407 -2.786,-10.088 -1.948,-1.369 -1.333,-3.065 -1.424,-4.874 -0.384,-9.376 -2.981,-18.362 -6.738,-26.81 -1.626,-3.47 -4.014,-6.696 -7.819,-7.624 -1.697,-0.608 -2.591,-1.816 -3.484,-3.03 -2.828,-5.076 -7.659,-8.672 -12.205,-11.856 -1.298,-0.914 -2.541,-2.178 -4.049,-1.682 -4.468,1.124 -7.708,-1.159 -10.955,-3.435 -9.621,-7.534 -27.829,-5.6 -44.265,1.256 -1.557,0.845 -25.176,17.378 -26.035,18.321 -8.881,9.062 12.477,-6.731 3.84,3.086 -1.773,2.241 -4.154,6.186 -4.273,9.397 -0.628,4.203 -4.454,5.781 -6.674,8.672 -0.915,1.298 -2.772,1.738 -3.436,3.791 1.243,1.257 4.49,3.533 6.906,1.745 3.274,-2.73 3.714,-0.872 5.976,-1.612 2.311,-1.09 2.765,-1.732 5.886,-3.421 4.328,-2.577 5.501,-5.628 8.378,-8.065 4.238,-4.377 8.252,-4.852 13.873,-6.521 13.007,-3.072 26.845,-11.75 36.033,1.097 5.607,8.008 5.907,15.576 4.601,24.338 -1.717,9.063 -4.726,17.211 -8.092,25.31 -0.663,2.052 -1.982,3.644 -3.239,4.887 -16.1,16.589 -29.331,30.734 -48.357,42.931 -9.816,5.705 -22.167,16.394 -26.943,26.79 -2.248,5.397 -6.486,9.781 -8.022,15.283 -0.824,3.1 -1.647,6.207 -1.019,9.167 1.34,10.236 1.166,20.96 3.603,31 3.211,14.459 11.205,25.686 21.916,35.53 3.141,2.982 6.891,4.259 11.555,4.238 6.465,-0.104 12.057,3.24 18.257,4.888 6.905,1.752 13.866,3.149 21.085,2.799"
       style="fill:#363939;fill-opacity:1;fill-rule:nonzero;stroke:none"
       transform="matrix(1.3333333,0,0,-1.3333333,1168.0757,425.18813)"
       clip-path="url(#clipPath27)" />
    <path
       id="path28"
       d="m 0,0 c -5.599,-3.33 -11.122,-7.771 -14.327,-13.175 -4.671,-6.856 -8.49,-14.662 -9.9,-23.075 -0.363,-4.294 -0.3,-8.336 -1.69,-12.372 -3.574,-11.157 -6.123,-22.579 -9.69,-33.736 -4.357,-12.784 -6.654,-26.098 -9.635,-39.238 -2.64,-13.224 -4.93,-26.538 -7.136,-39.503 -1.068,-7.045 -2.814,-13.915 0.161,-20.89 1.529,-4.043 3.386,-11.101 5.774,-16.1 -6.438,2.01 -6.577,10.088 -10.599,12.944 0.761,-2.758 1.089,-5.767 1.508,-8.434 0.594,-1.976 0.845,-3.868 1.864,-5.593 0.685,-1.633 1.097,-4.3 3.247,-4.482 4.21,-0.712 5.23,-3.896 6.242,-7.08 0.593,-1.975 1.445,-4.391 3.938,-4.657 5.494,-1.403 14.368,3.289 16.107,8.693 2.96,8.755 7.645,17.071 11.206,25.309 5.208,11.834 10.584,22.901 14.424,35.091 4.182,13.559 8.371,27.125 13.245,40.509 6.011,17.852 14.166,35.523 16.149,54.765 1.257,12.114 2.597,24.57 0.593,36.788 -0.495,5.243 -3.484,9.293 -8.029,11.548 C 20.192,-1.124 16.589,0.524 13.07,1.054 8.602,2.192 3.875,2.304 0,0 m 18.823,19.34 c 1.02,-3.184 -3.107,-2.137 -4.489,-4.706 8.937,-0.817 16.917,-2.486 23.773,-7.156 10.71,-8.211 18.921,-17.623 20.401,-31.894 0.503,-3.784 2.032,-7.833 3.302,-11.45 4.148,-13.852 4.944,-27.955 2.137,-41.863 -2.723,-12.107 -5.097,-24.304 -8.504,-36.236 -3.582,-12.623 -6.905,-25.672 -11.262,-38.456 -2.527,-8.497 -7.121,-16.47 -11.624,-24.101 -5.886,-10.201 -13.322,-19.284 -18.614,-30.002 -4.078,-8.832 -10.131,-16.798 -18.579,-22.691 -2.674,-1.885 -5.683,-2.213 -8.525,-3.316 -5.515,-2.981 -11.799,-4.678 -18.32,-3.016 -2.318,0.956 -5.327,0.628 -7.052,-0.398 -3.449,-2.046 -5.592,-0.405 -7.645,1.585 -1.711,1.899 -3.421,3.798 -1.515,6.968 0.782,1.633 -0.244,3.351 -1.089,5.767 -2.416,-2.311 -5.251,-1.955 -8.001,-1.257 -2.402,0.614 -5.153,1.313 -7.646,1.585 -7.212,0.37 -11.233,4.692 -14.222,10.2 -1.277,2.158 -2.471,4.657 -3.232,7.408 -1.697,4.825 -2.102,10.41 -8.881,12.505 3.016,1.794 4.398,2.904 2.52,5.578 -7.952,10.431 -7.121,22.293 -5.089,34.574 2.827,16.834 6.081,33.925 9.25,50.668 0.971,5.243 2.193,10.047 3.764,14.766 l 10.724,34.938 c 5.837,17.168 13.649,33.464 24.625,47.853 6.144,8.309 13.991,14.718 23.208,19.319 4.14,1.871 9.467,2.709 14.201,4.063 4.049,1.529 7.924,3.834 12.043,1.32 0.943,-0.607 2.577,0.077 4.127,0.412 1.117,0.084 2.325,0.503 3.784,0.503 2.925,-0.014 5.669,-0.719 6.43,-3.47"
       style="fill:#363939;fill-opacity:1;fill-rule:nonzero;stroke:none"
       transform="matrix(1.3333333,0,0,-1.3333333,1571.3387,293.7708)"
       clip-path="url(#clipPath29)" />
    <path
       id="path30"
       d="m 0,0 c -1.892,0.237 -4.887,0.677 -5.292,-1.529 -0.719,-2.032 2.925,-2.018 4.65,-2.569 1.585,-0.063 2.066,0.076 4.503,1.564 C 2.653,-1.061 1.243,-0.684 0,0 m 7.526,113.253 c 6.34,-3.91 9.782,-5.006 16.017,-7.638 9.509,-4.043 18.474,-9.803 28.325,-13.224 11.262,-3.791 21.12,-10.864 32.04,-15.276 1.41,-0.377 2.486,-1.369 2.758,-2.332 0.558,-1.927 -1.99,-2.144 -3.575,-2.074 -5.404,-0.258 -8.183,-2.36 -12.134,-5.844 -2.612,-1.794 -6.396,-1.326 -9.845,-0.23 C 53.607,69.162 46.646,73.414 39.51,77.359 31.754,81.646 25.833,84.11 18.216,87.909 12.463,90.687 4.022,93.731 2.437,93.794 0.426,87.217 -2.597,83.217 -5.229,76.982 -12.044,61.72 -21.888,46.108 -27.913,30.811 c -1.571,-3.582 -0.845,-5.202 3.84,-6.982 8.266,-3.351 13.502,-7.059 21.434,-11.031 C 6.214,8.308 9.83,7.526 10.766,3.365 6.912,2.255 0.44,2.995 -2.555,3.435 c -4.573,0.51 -8.504,1.459 -6.843,-0.67 2.416,-2.953 1.697,-4.985 -3.023,-3.994 -6.13,1.362 -9.23,3.072 -12.022,4.615 -2.479,1.369 -6.885,2.186 -10.641,3.456 -1.41,0.37 -3.582,1.571 -3.924,0.95 -6.346,-11.471 -15.527,-30.288 -20.003,-42.792 -2.499,-6.717 -7.17,-12.232 -10.144,-19.089 -3.701,-8.887 -9.119,-17.231 -11.402,-26.496 -0.614,-3.302 -2.325,-6.402 -4.489,-8.853 -2.332,-2.757 -3.875,-5.55 -5.418,-8.343 -2.437,-5.132 -6.416,-9.412 -9.467,-14.201 -2.542,-3.861 -4.783,-0.594 -7.639,-0.635 -3.749,-2.381 -4.615,-0.287 -4.105,4.293 2.269,1.173 10.759,18.747 8.281,20.115 -1.858,1.033 -4.832,-9.474 -8.923,-12.476 -4.085,-3.003 -14.055,5.341 -16.917,8.943 -3.317,4.259 -3.729,5.705 1.068,14.39 5.146,9.307 10.145,19.088 15.765,28.535 6.137,10.375 10.864,21.12 16.38,31.837 6.067,12.442 16.979,27.055 23.04,39.496 2.604,5.446 -3.352,7.115 -3.91,9.042 -1.173,2.269 2.157,6.095 0.845,8.846 -1.32,2.751 1.403,3.275 4.566,3.142 1.892,-0.231 6.269,-1.843 8.022,-1.599 7.889,14.271 14.229,25.742 21.797,40.181 7.918,15.06 13.426,29.428 21.176,44.174 1.536,2.793 3.191,4.308 6.186,3.868 2.374,-0.098 4.888,-0.677 4.106,-4.294 -0.412,-2.199 0.551,-1.927 2.206,-4.056 2.674,7.03 5.878,4.042 10.626,3.847 0.803,-3.68 6.151,-8.658 4.887,-12.414"
       style="fill:#363939;fill-opacity:1;fill-rule:nonzero;stroke:none"
       transform="matrix(1.3333333,0,0,-1.3333333,1816.9048,518.74507)"
       clip-path="url(#clipPath31)" />
    <path
       id="path32"
       d="m 0,0 c -3.107,-3.477 -5.53,-7.778 -9.586,-10.654 -3.784,-2.66 -7.387,-6.088 -11.213,-9.244 -11.716,-9.195 -23.696,-18.607 -34.058,-29.443 -6.981,-7.135 -15.59,-12.846 -21.895,-20.799 -3.651,-3.931 -7.303,-7.854 -11.408,-11.234 -1.368,-1.131 -3.282,-2.709 -4.022,-5.152 1.725,-0.419 2.723,-0.517 3.722,-0.615 7.352,0.552 13.454,-4.063 21.211,-4.559 3.986,-0.384 8.336,-2.318 12.197,-1.431 11.087,2.709 21.721,5.963 31.823,11.534 2.144,1.306 3.638,1.159 5.265,-0.258 -3.826,-3.149 -9.377,-5.893 -17.972,-8.839 -1.319,-0.629 -1.096,-0.901 -1.64,-1.348 2.255,-2.737 25.937,5.299 32.116,14.522 0.273,0.224 0.321,0.727 -0.133,1.271 -1.221,0.37 -2.59,-0.754 -4.587,-0.565 0.294,2.995 2.381,3.798 4.252,4.88 3.959,1.885 5.048,2.786 8.281,4.992 2.416,1.529 5.746,4.734 7.484,7.08 1.418,1.626 3.38,3.707 4.12,6.151 2.618,6.29 5.962,12.26 6.912,19.472 0.558,3.219 0.621,6.486 -1.034,10.173 C 15.709,-14.606 7.261,-8.253 1.494,-0.147 1.271,0.126 0.775,0.175 0,0 M -2.646,22.161 C -2.967,21.434 -3.065,20.436 -2.388,19.612 2.311,16.142 4.28,10.41 8.155,6.263 c 7.038,-7.981 14.62,-15.507 20.059,-24.339 6.842,-9.977 13.963,-19.731 14.752,-32.389 0.37,-6.584 -0.028,-13.342 -1.424,-20.003 -1.347,-6.165 -5.229,-9.823 -7.478,-14.892 -0.593,-0.95 -1.913,-1.578 -2.513,-2.528 -4.015,-5.152 -11.08,-10.507 -16.645,-16.016 -5.844,-5.732 -12.183,-11.415 -20.275,-14.411 l -5.132,-1.012 c -11.261,-1.934 -18.313,-4.531 -24.604,-1.906 -6.521,2.89 -13.454,4.063 -20.066,5.962 -1.229,0.37 -2.723,0.51 -3.896,1.383 -10.542,5.544 -22.097,8.427 -33.282,12.525 l -4.846,1.976 c -7.247,3.219 -10.207,1.236 -11.296,0.335 l -5.697,-4.238 c -8.77,-9.977 -20.918,-15.855 -29.862,-25.064 -3.651,-3.924 -10.473,-6.794 -14.299,-9.95 -6.563,-5.411 -12.63,-10.863 -17.789,-17.419 -1.145,-1.397 -2.011,-2.57 -3.561,-2.926 -2.137,-1.305 -4.133,-1.11 -4.887,1.48 -2.193,5.998 -12.959,11.821 -7.143,22.587 1.787,2.848 9.349,8.161 9.272,9.935 -0.307,2.046 -14.159,-8.455 -15.06,-7.359 -3.833,4.65 -3.903,9.188 0.524,13.293 3.33,3.198 6.388,6.179 10.389,8.56 8.336,5.495 16.686,13.747 24.345,20.059 l 14.495,11.946 c 2.185,1.808 2.604,3.526 -0.196,5.809 -3.072,2.06 -2.38,4.008 0.754,5.215 2.318,0.531 5.404,1.243 6.535,-0.125 3.477,-3.107 4.985,-0.482 7.178,1.319 12.951,11.59 25.176,23.508 38.351,34.826 12.903,11.087 25.756,21.686 39.106,32.228 7.386,6.081 15.401,10.85 23.235,16.386 3.505,2.437 6.835,5.635 9.894,8.616 1.417,1.627 2.736,2.255 3.602,3.428 0.866,1.173 -2.416,6.277 -1.55,7.45 2.367,1.033 5.474,-3.296 8.385,-1.815 1.592,0.851 5.216,-0.754 5.795,-2.57 0.664,-3.588 4.957,-6.018 4.029,-10.458"
       style="fill:#363939;fill-opacity:1;fill-rule:nonzero;stroke:none"
       transform="matrix(1.3333333,0,0,-1.3333333,2138.5452,621.062)"
       clip-path="url(#clipPath33)" />
    <path
       id="path34"
       d="m 0,0 -7.212,-3.784 c -1.257,-0.663 -4.35,-4.685 -5.753,-5.823 l -6.57,-4.252 c 1.417,0.342 0.474,-0.147 4.426,0.719 3.945,0.873 7.066,3.31 8.944,4.301 1.885,0.991 5.781,4.238 7.813,5.704 L 14.006,5.348 C 11.792,4.992 4.084,2.143 0,0 M 99.708,55.555 C 96.552,47.093 90.967,40.956 83.454,36.208 69.979,28.332 53.034,19.437 38.945,10.445 28.772,3.903 18.104,-1.704 8.099,-8.56 4.35,-11.325 0.586,-13.3 -2.521,-16.533 c -7.945,-6.975 -17.224,-10.647 -26.67,-14.006 -13.538,-4.705 -25.924,-11.603 -38.491,-17.405 -5.809,-2.647 -11.129,-6.242 -17.944,-6.221 -2.688,-0.21 -4.559,-1.99 -6.109,-3.603 -1.717,-1.305 -2.946,-3.547 -5.83,-1.864 -1.124,0.614 -2.045,-0.67 -2.346,-1.627 -1.061,-2.562 -3.12,-2.444 -5.494,-2.492 -5.397,0.37 -5.397,0.37 -4.867,5.452 0.252,3.338 -0.914,6.326 -3.456,6.591 -14.291,1.299 -5.885,8.916 -10.947,16.268 -1.299,1.718 -0.559,4.112 0.998,5.725 3.268,2.919 5.586,6.137 9.831,7.96 8.469,4.447 17.105,8.587 25.26,12.867 9.097,4.776 16.582,11.108 25.037,16.345 20.345,13.084 42.024,22.865 62.39,35.16 10.654,6.396 22.44,11.381 32.94,17.294 12.54,7.38 29.345,15.004 42.373,21.449 4.874,2.157 4.874,2.157 7.506,-2.863 0.81,-0.775 1.138,-1.403 1.466,-2.032 2.695,0.21 3.749,2.765 6.277,3.296 2.066,-0.119 2.276,-2.807 4.503,-3.24 0.957,-0.3 2.241,-1.222 2.262,-2.018 2.018,-6.144 5.942,-12.085 3.54,-18.948"
       style="fill:#363939;fill-opacity:1;fill-rule:nonzero;stroke:none"
       transform="matrix(1.3333333,0,0,-1.3333333,2162.4977,911.1444)"
       clip-path="url(#clipPath35)" />
    <path
       id="path36"
       d="m 0,0 c -0.782,0.14 -1.019,-0.3 -0.817,-0.977 0.056,-1.46 0.838,-1.599 2.297,-1.543 0.58,0.544 1.697,0.502 1.299,1.864 C 2.381,0.705 1.117,-0.035 0,0 m 236.559,49.746 c 0.063,-1.459 -2.08,-1.725 -3.1,-2.025 -4.419,-1.299 -8.839,-2.597 -13.454,-3.226 -13.998,-2.646 -27.299,-7.666 -40.795,-12.015 -5.781,-1.704 -11.855,-2.381 -16.896,-5.348 -2.276,-1.041 -4.761,-1.404 -5.76,-4.28 14.222,-0.615 25.54,8.629 39.399,10.493 13.272,1.327 25.728,7.953 40.271,10.019 -2.339,-5.857 -7.058,-6.144 -10.898,-6.905 -8.839,-2.604 -17.574,-5.543 -26.413,-8.147 -15.737,-4.266 -30.832,-9.454 -46.471,-14.062 -15.2,-4.845 -30.797,-8.336 -44.851,-15.8 -10.752,-6.123 -21.47,-11.129 -32.969,-15.995 -10.34,-3.785 -21.134,-4.748 -31.635,-6.731 -2.478,-0.363 -4.622,-0.621 -6.995,-1.326 -3.841,-0.762 -7.68,-1.523 -11.681,-0.482 -4.001,1.04 -7.743,-0.063 -10.983,-2.863 -0.035,-1.124 0.503,-1.703 1.627,-1.738 3.554,-0.803 3.896,-0.698 1.976,-4.224 -0.719,-1.32 -0.419,-2.339 -0.119,-3.359 1.306,-4.419 2.367,-9.278 4.79,-13.733 2.925,-6.165 5.166,-12.518 7.847,-19.116 0.999,-3.4 2.444,-7.038 1.306,-10.703 -0.516,-1.997 0.419,-3.938 1.02,-5.977 0.502,-1.696 1.34,-3.302 0.823,-5.299 -0.516,-1.997 -1.375,-4.098 -3.777,-2.22 -2.199,1.201 -3.421,1.578 -5.062,-0.384 -0.719,-1.32 -2.276,-1.041 -2.918,-0.119 -3.442,4.154 -7.603,6.996 -8.623,12.972 -1.724,8.357 -6.849,15.716 -8.671,24.416 -2.367,9.279 -6.186,18.495 -9.572,27.473 -3.624,8.539 -6.689,20.192 -10.99,28.535 -2.827,5.816 -1.068,11.136 4.832,16.198 3.721,-2.597 2.464,-9.621 8.741,-9.614 1.599,0.838 1.78,2.737 2.835,4.161 2.702,3.38 5.061,6.661 9.376,8.302 20.101,7.031 40.795,12.016 60.449,19.284 16.694,6.032 33.792,10.696 50.591,16.386 17.915,5.649 35.293,11.876 53.209,17.518 14.173,4.552 29.093,7.833 42.966,13.405 3.302,1.34 4.922,-0.398 5.62,-2.779 0.922,-5.641 6.445,-8.078 8.288,-13.077 0.3,-1.019 1.522,-1.396 2.744,-1.78 4.915,-0.398 6.598,-3.596 8.14,-7.576 -1.438,-2.639 -4.635,-4.321 -4.217,-8.259"
       style="fill:#363939;fill-opacity:1;fill-rule:nonzero;stroke:none"
       transform="matrix(1.3333333,0,0,-1.3333333,2063.8207,1062.1481)"
       clip-path="url(#clipPath37)" />
    <path
       id="path38"
       d="m 0,0 c 0.433,-1.033 7.575,3.386 10.221,6.067 4.699,3.896 5.83,7.883 8.253,8.769 2.821,5.181 7.135,9.398 8.141,15.158 C 16.47,22.866 6.437,9.349 0,0 m -91.581,43.127 c -2.507,5.153 3.728,7.373 6.807,9.02 0.035,-5.327 -4.161,-6.339 -6.807,-9.02 m 220.85,-71.809 c -1.557,-7.931 -5.39,-13.886 -13.691,-16.979 l -19.689,-7.813 c -5.502,-2.534 -10.955,-0.796 -16.31,-0.468 -2.499,0.175 -2.758,3.708 -5.334,4.943 -3.637,1.159 -6.996,3.4 -10.654,4.916 0.551,2.171 3.051,1.996 4.007,3.484 -0.886,2.429 -3.965,0.781 -5.173,2.827 -0.384,0.328 -0.405,0.677 0.272,1.082 7.017,6.193 14.913,9.963 24.59,8.881 5.02,-0.698 9.565,0.342 14.411,2.109 6.591,2.255 14.054,12.029 11.122,18.215 -1.32,3.456 -3.337,6.864 -5.006,10.299 -2.053,3.756 -6.088,5.599 -9.754,7.107 -3.665,1.515 -10.123,2.472 -13.461,4.364 -4.14,3.253 -14.396,2.513 -17.266,-1.962 C 59.262,1.082 48.105,-6.828 38.442,-15.702 30.42,-22.677 24.269,-30.937 18.111,-39.196 12.56,-45.99 6.284,-52.49 -0.782,-57.97 c -2.702,-1.969 -5.704,-4.678 -8.001,-7.331 -7.513,-9.07 -18.851,-9.531 -29.226,-13.475 -7.268,-2.66 -15.095,-2.514 -22.845,-3.428 -3.54,-0.259 -7.45,-0.182 -9.851,3.553 -1.215,2.039 -2.954,1.557 -4.748,1.788 -9.321,1.103 -18.083,4.377 -26.217,8.762 -3.33,1.892 -6.367,4.517 -6.996,8.378 -0.481,1.746 -1.62,2.723 -2.758,3.707 -4.852,3.205 -8.064,8.302 -10.891,13.071 -0.81,1.368 -1.976,2.702 -1.369,4.168 1.46,4.37 -0.558,7.777 -2.583,11.185 -6.772,10.165 -3.456,28.171 4.636,44.034 0.957,1.487 19.249,23.773 20.254,24.555 9.712,8.162 -7.666,-11.924 2.779,-4.063 2.374,1.592 6.486,3.665 9.698,3.547 4.238,0.307 6.102,3.993 9.16,5.99 1.362,0.81 1.941,2.625 4.036,3.135 1.159,-1.34 3.183,-4.748 1.214,-7.024 -2.974,-3.051 -1.158,-3.63 -2.066,-5.829 -1.257,-2.228 -1.941,-2.626 -3.854,-5.607 -2.905,-4.119 -6.032,-5.055 -8.679,-7.736 -4.698,-3.889 -5.473,-7.854 -7.568,-13.335 -4.056,-12.728 -13.761,-25.868 -1.662,-36.006 7.555,-6.207 15.081,-7.086 23.913,-6.444 9.167,1.012 17.525,3.393 25.854,6.13 2.095,0.503 3.784,1.697 5.125,2.856 17.762,14.787 32.87,26.887 46.492,44.928 6.43,9.349 18.041,20.848 28.765,24.814 5.551,1.822 10.25,5.718 15.849,6.835 3.156,0.579 6.312,1.166 9.216,0.307 10.103,-2.115 20.806,-2.758 30.63,-5.956 14.173,-4.307 24.757,-13.139 33.75,-24.569 2.73,-3.358 3.721,-7.191 3.344,-11.841 -0.6,-6.437 2.311,-12.267 3.477,-18.579 1.215,-7.016 2.081,-14.061 1.173,-21.232"
       style="fill:#363939;fill-opacity:1;fill-rule:nonzero;stroke:none"
       transform="matrix(1.3333333,0,0,-1.3333333,2260.9419,1242.2428)"
       clip-path="url(#clipPath39)" />
    <path
       id="path40"
       d="m 0,0 c 0.072,2.645 -0.285,5.29 -0.642,7.864 -0.788,7.507 0.143,15.3 -0.716,22.878 -0.714,6.006 -1.644,12.155 -1.93,18.303 -0.358,6.005 -1.072,11.796 -3.146,17.373 -0.715,1.644 -1.644,3.146 -2.861,4.433 -1.57,1.715 -4.646,1.644 -6.648,0.071 -1.215,-1.072 -1.931,-2.431 -3.145,-3.36 -0.788,-0.715 -1.001,-1.359 -0.788,-2.145 0.716,-2.073 0.573,-4.218 0.716,-6.292 0.644,-4.432 -0.716,-9.079 0.072,-13.655 0.5,-2.931 -0.43,-5.934 -0.43,-8.937 -0.071,-4.504 0.93,-8.936 1.43,-13.226 0.358,-3.503 -0.5,-7.078 0.787,-10.51 0,-0.143 0,-0.429 -0.143,-0.714 -0.072,-2.431 0.501,-4.648 0.715,-7.007 0.072,-2.931 0.857,-5.72 1.215,-8.508 0.287,-2.359 1,-4.433 2.002,-6.506 1.001,-2.002 2.002,-3.789 4.434,-4.719 2.93,-1.143 6.147,-0.786 7.434,2.145 0.501,1.287 1.359,2.646 1.145,4.147 -1.002,-0.071 -1.36,-1.215 -2.575,-1.43 -0.143,1.359 0.501,2.288 1.002,3.003 C -0.929,-4.576 0,-2.431 0,0"
       style="fill:#363939;fill-opacity:1;fill-rule:nonzero;stroke:none"
       transform="matrix(1.3333333,0,0,-1.3333333,1450.2369,2276.7539)"
       clip-path="url(#clipPath41)" />
    <path
       id="path42"
       d="M 0,0 C -1.072,-0.214 -1.43,-1.072 -2.288,-1.43 -3.646,-2.145 -3.503,-2.073 -2.215,-3.861 -1.787,-2.431 -0.571,-1.573 0,0"
       style="fill:#363939;fill-opacity:1;fill-rule:nonzero;stroke:none"
       transform="matrix(1.3333333,0,0,-1.3333333,1426.7873,2180.666)"
       clip-path="url(#clipPath43)" />
    <path
       id="path44"
       d="M 0,0 C 0.93,0.357 1.787,0.929 2.789,1.858 1.002,1.358 1.002,1.358 0,0"
       style="fill:#363939;fill-opacity:1;fill-rule:nonzero;stroke:none"
       transform="matrix(1.3333333,0,0,-1.3333333,1336.2277,2187.3383)"
       clip-path="url(#clipPath45)" />
    <path
       id="path46"
       d="M 0,0 C 0,-1.144 0.286,-2.145 1.072,-3.432 2.145,0.929 1.93,4.862 1.286,8.794 1,10.224 0.501,10.366 -1.787,10.295 -1.931,9.294 -1.787,8.436 -1.43,7.435 -0.358,5.004 0.215,2.502 0,0"
       style="fill:#363939;fill-opacity:1;fill-rule:nonzero;stroke:none"
       transform="matrix(1.3333333,0,0,-1.3333333,1365.4935,2204.6876)"
       clip-path="url(#clipPath47)" />
    <path
       id="path48"
       d="m 0,0 -1.93,2.788 c -0.929,0.429 1.216,-3.861 1.502,-5.004 l 1.571,-4.576 c 0.501,-0.858 1.074,-2.145 1.718,-2.359 0.143,0.572 0.642,1.215 0.499,1.787 0,0 -0.429,0.715 -1.072,2.145 z"
       style="fill:#363939;fill-opacity:1;fill-rule:nonzero;stroke:none"
       transform="matrix(1.3333333,0,0,-1.3333333,1124.1281,2232.2369)"
       clip-path="url(#clipPath49)" />
    <path
       id="path50"
       d="M 0,0 C 0.499,-2.216 1.43,-4.218 1.857,-6.363 1.573,-4.075 2.358,-1.573 0,0"
       style="fill:#363939;fill-opacity:1;fill-rule:nonzero;stroke:none"
       transform="matrix(1.3333333,0,0,-1.3333333,1375.9801,2184.2884)"
       clip-path="url(#clipPath51)" />
    <path
       id="path52"
       d="M 0,0 C -0.286,0.072 0.143,-4.004 0.072,-4.289 -0.072,-4.862 0.644,-4.862 0.716,-5.29 1.002,-6.292 4.004,-7.864 2.503,-5.719 1.286,-3.932 0.573,-0.072 0,0"
       style="fill:#363939;fill-opacity:1;fill-rule:nonzero;stroke:none"
       transform="matrix(1.3333333,0,0,-1.3333333,1183.9931,2277.5167)"
       clip-path="url(#clipPath53)" />
    <path
       id="path54"
       d="m 0,0 c 2.716,0.715 3.145,2.788 4.79,5.648 0.286,0.357 0.644,1.43 0.858,1.787 1,1.716 1.501,4.504 1.501,5.863 0,2.216 -0.071,3.431 0.144,5.005 0.071,1.143 0,2.645 -0.716,3.288 -2.501,2.288 -3.289,1.716 -6.004,-0.214 -2.074,-1.43 -3.79,-4.862 -4.649,-7.078 -1.928,-4.576 -2.859,-9.724 -4.861,-14.085 -0.286,-0.929 -0.859,-2.216 -0.928,-3.36 0.928,-0.143 2.787,0.858 3.36,0.93 C -4.076,-1.502 -2.074,-0.5 0,0"
       style="fill:#363939;fill-opacity:1;fill-rule:nonzero;stroke:none"
       transform="matrix(1.3333333,0,0,-1.3333333,1071.9853,2218.9865)"
       clip-path="url(#clipPath55)" />
    <path
       id="path56"
       d="m 0,0 c 0.286,4.433 -0.642,8.293 -2,12.083 -0.501,1.358 -1.074,1.358 -3.289,0.857 0.07,-1.001 0.356,-1.787 0.929,-2.716 C -2.859,8.079 -1.931,5.648 -1.644,3.146 -1.501,2.073 -1,1.144 0,0"
       style="fill:#363939;fill-opacity:1;fill-rule:nonzero;stroke:none"
       transform="matrix(1.3333333,0,0,-1.3333333,1521.4449,2196.4897)"
       clip-path="url(#clipPath57)" />
    <path
       id="path58"
       d="M 0,0 C 0.072,-1.001 0.286,-1.859 1.501,-2.503 1.358,-1.144 0.857,-0.429 0,0"
       style="fill:#363939;fill-opacity:1;fill-rule:nonzero;stroke:none"
       transform="matrix(1.3333333,0,0,-1.3333333,1055.7804,2251.2065)"
       clip-path="url(#clipPath59)" />
    <path
       id="path60"
       d="m 0,0 -2.291,-1.437 c -0.171,-1.06 0.342,-1.914 0.41,-3.043 0.24,-1.231 -0.273,-1.812 -1.641,-1.504 -1.983,0.478 -3.625,0.342 -5.642,-0.582 -1.778,-0.855 -4.001,0.514 -5.3,2.77 -2.291,4.651 -3.488,9.882 -4.514,14.943 -0.342,2.359 -0.855,4.89 -1.572,7.18 -2.052,6.429 -3.933,12.857 -5.13,19.491 -0.444,1.949 -1.128,3.659 -1.641,5.574 -1.06,5.095 -2.428,10.224 -3.795,15.25 -0.855,2.838 -1.505,5.574 -2.36,8.446 -0.137,0.478 -0.137,1.197 -0.855,1.641 -1.367,-0.786 -2.496,-1.949 -3.727,-3.077 -1.504,-1.641 -3.351,-2.154 -5.368,-2.291 -1.71,-0.137 -2.257,0.581 -2.257,2.154 0.068,0.479 0.205,0.923 0.137,1.334 -0.069,1.572 0.137,2.496 2.051,2.803 1.881,0.137 3.146,1.915 4.104,3.42 1.983,3.146 3.419,6.223 3.829,9.814 0.308,4.069 2.736,6.565 6.736,6.77 0.582,0 0.855,0.068 1.129,0.581 0.376,0.342 0.444,1.299 1.368,0.923 0.649,-0.274 1.231,-0.718 1.504,-1.368 0.274,-0.615 0.65,-1.402 0.65,-2.12 0.513,-3.658 2.154,-6.873 3.077,-10.223 2.36,-7.454 5.779,-14.396 7.489,-21.953 0.855,-3.659 2.222,-7.386 3.522,-10.942 0.478,-1.641 0.855,-3.419 1.367,-5.095 0.924,-3.932 1.915,-8.001 3.044,-11.933 0.855,-3.078 1.436,-6.155 2.086,-9.13 0.581,-3.659 0.991,-7.317 2.427,-10.737 C -0.308,5.881 0,3.59 0.41,1.573 0.547,1.026 0.41,0.444 0,0 m -41.853,-11.147 c -1.778,-2.155 -4.206,-1.847 -6.565,-2.36 -4.343,-0.855 -9.062,-0.923 -13.507,-2.633 -2.565,-0.855 -5.163,-1.436 -8.07,-1.231 -2.291,0.069 -4.513,-0.342 -6.599,-1.196 -3.146,-1.163 -6.155,-2.668 -9.574,-2.531 -0.411,-0.068 -0.718,-0.068 -0.992,0 -0.718,0 -0.923,0.582 -1.094,1.163 -0.069,0.342 0.102,0.718 0.581,0.923 0.513,0.376 1.094,0.581 1.573,0.923 0.65,0.581 0.855,1.436 0.137,1.813 -2.189,1.333 -2.428,3.556 -2.36,5.71 0.376,4.65 1.163,9.129 3.01,13.438 2.29,5.231 3.795,10.566 5.368,16.003 0.786,2.872 1.846,5.744 2.872,8.446 2.291,6.941 3.932,14.019 4.548,21.234 0.718,7.283 -1.128,13.951 -3.351,20.585 -0.855,2.496 -1.436,2.735 -4.206,2.154 -0.923,-0.205 -2.086,-0.205 -3.077,-0.376 -4.856,-1.573 -8.515,-4.274 -11.284,-8.412 -0.582,-0.855 -1.163,-1.368 -2.154,-1.368 -0.855,0 -1.778,0.274 -2.223,1.06 -0.581,0.855 -0.069,1.505 0.342,2.154 l 3.248,4.719 c -2.017,-0.65 -2.154,-2.496 -3.59,-3.419 -0.137,3.795 2.223,5.71 4.924,7.351 1.094,0.582 2.086,1.3 2.94,2.018 5.061,4.719 11.011,6.496 17.815,5.915 0.924,-0.137 1.778,-0.137 2.291,-0.718 0.924,-1.265 2.36,-1.504 3.762,-2.12 0.171,0.923 -0.616,1.06 -0.923,1.266 -0.343,0.376 -0.855,0.718 -0.924,1.299 0.137,0 0.137,0.136 0.205,0.205 0.582,0.376 1.3,0.855 1.949,0.444 1.437,-1.504 4.001,0.069 5.061,-2.291 1.094,-2.153 2.018,-4.24 2.496,-6.428 0.718,-2.598 1.3,-5.231 2.018,-7.796 0.991,-4.103 0.855,-8.446 0.068,-12.379 -0.718,-3.59 -1.128,-7.009 -1.573,-10.497 -0.581,-3.521 -1.231,-7.078 -2.086,-10.6 -1.641,-6.291 -3.214,-12.514 -6.702,-18.088 -0.444,-0.787 -0.718,-1.436 -0.718,-2.291 0.069,-3.215 -0.854,-6.224 -2.086,-9.13 -1.572,-4.24 -2.838,-8.583 -4.137,-13.096 0.069,-0.274 0.069,-0.445 0.069,-0.992 2.085,0.205 4.308,-0.171 6.496,0.342 2.291,0.581 4.787,0.855 7.318,0.65 2.701,-0.069 4.992,1.299 7.625,1.846 1.812,0.445 3.453,0.718 5.232,0.137 1.231,-0.342 2.154,0.103 3.282,0.308 0.513,0.068 0.992,0.581 1.642,0.342 0.718,-0.137 1.709,0 2.017,-0.923 0.274,-0.787 -0.718,-1.061 -1.094,-1.573 m -67.533,5.71 c -1.026,-2.907 -1.676,-5.916 -2.872,-8.856 -0.787,-2.291 -2.497,-4.138 -4.377,-5.779 -0.342,-0.513 -0.923,-0.787 -1.128,-1.368 -1.06,-2.496 -2.941,-3.795 -5.779,-3.932 l -0.65,-0.068 c -2.941,-2.086 -5.573,-0.719 -8.377,0.786 0.991,1.299 2.496,0.581 3.419,0.923 -1.539,2.291 -1.539,2.291 -4.274,0.923 -3.42,-1.641 -8.583,-0.478 -11.797,2.667 -1.778,1.847 -3.351,4.138 -5.368,5.916 -1.505,1.436 -1.915,3.522 -2.634,5.437 -1.299,3.864 -1.709,7.933 -2.017,11.934 -0.205,2.872 -0.855,5.573 -1.504,8.24 -2.496,10.498 -0.924,21.508 -1.847,32.245 -0.342,4.343 1.436,8.856 1.949,13.13 0.137,0.445 0.205,0.889 0.479,0.889 1.881,-0.307 1.368,1.197 1.436,2.052 0.205,4.001 1.504,7.591 4.206,10.737 0.65,0.786 1.231,0.855 1.949,0.581 0.923,-0.376 1.573,-0.171 2.291,0.342 3.556,2.36 7.42,3.488 11.728,3.146 0.206,0.855 -0.957,0.786 -0.581,1.505 0.855,0.512 1.573,-0.206 2.428,-0.445 2.291,-0.787 4.65,-1.573 6.702,-2.838 1.026,-0.65 1.949,-1.094 3.385,-1.3 2.223,-0.068 3.864,-1.641 4.992,-3.727 2.018,-3.624 3.659,-7.283 4.788,-11.283 1.709,-5.506 0.923,-11.353 2.291,-16.858 1.059,-4.445 1.299,-9.096 1.709,-13.609 0.445,-3.864 -0.205,-7.728 0.376,-11.66 0.137,-0.343 0.137,-0.616 0.069,-1.06 -0.924,-4.582 0,-9.061 0.41,-13.507 0.308,-1.778 -0.684,-3.59 -1.402,-5.163 m -61.07,-19.012 c -2.154,-1.846 -4.514,-1.06 -6.941,-1.196 -4.514,-0.069 -9.062,0.718 -13.78,-0.171 -2.667,-0.411 -5.3,-0.479 -8.104,0.239 -2.291,0.478 -4.48,0.478 -6.771,0 -3.214,-0.513 -6.531,-1.437 -9.882,-0.718 -0.41,0.068 -0.649,0.068 -0.923,0.205 -0.718,0.137 -0.855,0.718 -0.855,1.3 0,0.341 0.137,0.649 0.718,0.786 0.581,0.273 1.129,0.41 1.71,0.718 0.718,0.342 1.128,1.197 0.444,1.641 -1.949,1.71 -1.743,4 -1.299,6.052 1.197,4.514 2.77,8.822 5.437,12.755 3.146,4.718 5.573,9.711 8.07,14.703 1.299,2.667 2.94,5.3 4.376,7.796 3.42,6.428 6.36,13.096 8.275,20.106 2.018,7.01 1.368,13.951 0.377,20.79 -0.377,2.735 -0.958,3.009 -3.728,2.872 -0.991,0.069 -2.154,0.205 -3.145,0.205 -4.993,-0.649 -9.164,-2.633 -12.584,-6.223 -0.718,-0.718 -1.436,-1.128 -2.359,-0.991 -0.855,0.205 -1.71,0.649 -2.018,1.436 -0.342,0.991 0.24,1.572 0.787,2.154 l 4.001,4.001 c -2.12,-0.308 -2.565,-2.087 -4.138,-2.804 0.513,3.795 3.146,5.3 6.155,6.428 1.128,0.376 2.291,0.923 3.283,1.436 5.813,3.727 12.002,4.514 18.601,2.633 0.786,-0.274 1.641,-0.41 2.051,-1.128 0.65,-1.436 2.086,-1.847 3.317,-2.702 0.274,0.855 -0.376,1.129 -0.649,1.402 -0.308,0.445 -0.718,0.855 -0.718,1.436 0.136,0 0.136,0.137 0.273,0.137 0.581,0.24 1.436,0.65 2.018,0.069 1.06,-1.71 3.932,-0.616 4.582,-3.146 0.615,-2.257 1.196,-4.48 1.265,-6.771 0.239,-2.667 0.376,-5.368 0.581,-8.001 0.205,-4.24 -0.718,-8.446 -2.154,-12.173 -1.334,-3.351 -2.359,-6.702 -3.419,-10.087 -1.163,-3.351 -2.497,-6.702 -3.933,-10.053 -2.804,-5.882 -5.437,-11.729 -9.882,-16.618 -0.547,-0.616 -0.991,-1.197 -1.128,-2.052 -0.445,-3.214 -1.949,-6.018 -3.659,-8.651 -2.291,-3.864 -4.343,-7.933 -6.36,-12.173 0,-0.205 0,-0.342 -0.137,-0.923 2.086,-0.205 4.138,-0.923 6.429,-0.855 2.359,0.137 4.924,-0.068 7.283,-0.65 2.667,-0.547 5.232,0.376 7.864,0.445 1.881,0.137 3.523,0.068 5.232,-0.786 1.06,-0.582 2.086,-0.309 3.214,-0.377 0.582,0 1.163,0.445 1.71,0.171 0.65,-0.307 1.641,-0.307 1.812,-1.299 0.137,-0.855 -0.854,-0.992 -1.299,-1.368 m -98.239,10.942 c -0.581,-1.505 -0.786,-3.146 -1.265,-4.787 -0.513,-2.222 -2.941,-3.419 -5.026,-3.077 -2.223,0.581 -3.796,-0.582 -5.369,0.205 -0.41,0.239 -1.128,0 -1.504,0.513 -0.924,1.914 -2.497,3.795 -2.189,6.018 0.205,2.291 1.505,4.206 3.488,5.573 1.504,0.923 3.283,1.436 4.514,2.565 0.923,0.718 3.727,-0.787 3.863,-2.223 0.206,-1.983 0.924,-3.077 2.839,-3.282 0.718,-0.069 0.957,-0.65 0.649,-1.505 m -31.732,61.617 c -0.991,0 -2.667,0.65 -4.513,0.65 -0.718,0 -3.556,-0.068 -4.651,0.308 -1.983,0.615 -2.222,0.273 -2.427,-1.812 -0.855,-5.129 -0.855,-10.156 -1.505,-15.148 -0.478,-4.343 -0.923,-8.72 -1.915,-12.789 -1.094,-5.163 -1.026,-10.155 -1.504,-15.147 -0.376,-2.942 -0.513,-5.95 -0.787,-8.891 -0.068,-2.12 1.06,-3.625 2.428,-4.992 0.274,-0.513 0.718,-0.581 1.368,-0.445 l 2.975,0.958 c 4.24,1.196 8.035,3.351 9.882,2.974 1.06,-0.205 -0.069,-3.145 -2.496,-3.932 -2.291,-0.855 -3.283,-2.427 -5.164,-3.214 -2.291,-0.992 -2.564,-1.71 -4.924,-2.051 -0.581,-0.069 -1.504,-0.377 -2.154,-0.65 -3.282,-1.778 -5.266,-1.574 -9.198,-0.582 -0.889,0.137 -1.436,0.924 -2.53,0.274 -0.479,-0.342 -0.787,0.444 -0.992,0.958 -0.342,1.128 -0.581,2.359 -0.923,3.555 -0.137,0.719 -0.137,1.437 -1.231,1.231 -0.547,-0.137 -0.616,0.137 -0.855,0.548 -1.334,2.872 -2.052,5.744 -2.052,8.958 0.206,4.138 0.924,8.138 1.642,12.139 1.333,6.736 2.222,13.746 3.864,20.448 1.504,5.573 2.769,11.079 4.069,16.652 0.136,0.889 0.649,1.812 0.273,3.01 -2.051,-0.069 -7.146,0.717 -7.01,1.572 1.368,-0.137 4.001,0.24 5.745,0.069 -1.949,1.094 -5.026,0.786 -6.736,0.957 -2.872,0.479 -3.659,0.787 -3.078,4.001 2.941,-0.308 7.865,0 10.942,-0.308 0.924,-0.205 0.855,0 0.992,0.923 0.445,1.505 0.718,3.009 0.855,4.582 0.068,2.154 1.026,4.069 1.881,6.224 1.06,0.512 -0.137,-3.01 0.547,-4.651 1.368,2.018 1.573,4.069 1.744,6.223 0.205,1.881 0.854,3.01 2.633,3.659 3.008,-2.359 3.658,-5.95 4,-9.301 0.376,-2.94 0.137,-6.291 0.137,-9.437 2.941,-0.274 4.001,-0.718 5.574,-0.582 1.025,-0.068 6.462,-0.341 3.214,-0.649 0,-0.342 4.821,-0.274 5.949,-0.479 1.642,-0.307 6.155,-2.222 3.42,-2.94 -1.06,-0.206 1.641,-1.129 2.222,-1.915 -2.29,-1.744 -6.565,-0.958 -9.711,-0.958 m -45.888,1.676 c 0.924,-0.239 -1.025,-1.094 -3.18,-1.436 -0.136,-0.069 -0.923,-0.308 -1.47,-0.308 -1.573,-0.068 -3.317,0.068 -4.445,-0.923 -1.505,-1.368 -4.377,-1.06 -4.309,-3.864 -0.068,-0.718 -0.273,-1.641 -0.478,-2.496 -0.069,-1.573 2.872,-6.36 4,-7.66 2.428,-3.077 4.719,-7.693 5.505,-10.36 1.061,-3.727 0.719,-12.276 -0.923,-15.866 -1.299,-2.223 -3.864,-4.514 -6.086,-6.873 -3.009,-3.419 -8.378,-3.214 -11.353,-3.796 -0.649,-0.137 -1.367,-0.068 -1.812,-0.137 -1.504,-0.205 -4.992,0.855 -7.009,2.086 -1.402,0.787 -4.856,2.496 -3.693,2.496 0.718,0 1.196,-0.854 -2.155,2.291 -3.145,3.146 -2.017,2.702 -2.633,4.582 -0.718,2.36 0.855,0.65 0.855,1.129 0,0.65 -1.641,2.735 -0.649,2.154 0.513,-0.274 0.513,0 0.854,-0.069 1.06,-0.444 2.497,-2.803 2.565,-1.778 0.239,1.197 -1.846,3.351 -2.633,4.856 -0.068,1.983 1.641,-0.991 2.872,-1.88 1.06,-0.855 2.052,-2.565 4.548,-3.625 1.436,-1.368 4.172,-2.086 5.574,-2.018 1.88,1.026 3.59,2.018 4.308,3.728 1.197,3.145 1.778,8.377 0.342,12.514 -1.265,3.933 -4.001,8.139 -6.121,11.729 -2.154,4.138 -1.573,9.369 0.855,13.062 1.71,2.941 3.762,5.3 7.625,5.163 0.582,0 1.231,0.137 1.71,0.581 2.599,1.129 4.958,0.548 7.523,0.342 2.017,-0.068 4.137,-0.205 6.086,0.137 1.847,0.445 3.488,-1.129 5.437,-1.641 -0.65,-0.41 -3.932,-1.573 -1.71,-2.12 m -50.914,-37.852 c -3.454,-0.548 -1.949,-0.137 -5.3,-1.266 -0.787,-0.137 -3.146,-0.581 -3.933,-0.923 -2.632,-0.718 -4.923,0 -6.223,-0.444 -3.146,-1.061 -7.146,0.205 -10.292,1.162 -1.847,0.547 -4.069,1.983 -5.232,4.342 -2.188,4.07 -3.693,7.66 -3.624,12.242 -0.137,0.615 0,0.992 0,1.504 0.137,2.257 -0.069,3.42 0.478,5.574 0.377,1.06 1.437,4.856 2.018,7.147 1.128,4.205 3.727,10.497 6.018,14.156 2.633,4.479 5.197,8.924 9.643,11.934 2.427,1.572 4.855,2.359 7.727,2.085 0.411,-0.171 1.847,-0.239 1.984,-0.786 -0.548,-0.889 -2.77,0.136 -3.351,-0.718 0.342,-0.718 1.128,-0.65 1.778,-0.445 3.453,0.65 5.949,0.581 9.095,-1.915 0.65,-0.513 1.368,-1.026 1.778,-1.436 1.06,-1.162 1.368,-1.231 2.223,-2.223 l 1.128,-1.435 c 1.505,-1.779 2.291,-8.071 1.3,-12.515 -0.787,-3.283 -1.778,-5.369 -3.864,-8.207 -0.992,-1.163 -1.778,-2.667 -3.727,-2.667 -0.547,0.102 -0.616,-0.342 -0.924,-0.684 -2.564,-0.513 -4.069,-1.504 -7.488,-1.675 -1.641,-0.069 -3.077,-0.479 -4.65,-0.547 -2.086,-0.069 -3.932,-0.787 -6.429,-1.3 0.069,-3.419 -0.376,-6.565 0.547,-9.643 0.582,-1.778 1.437,-2.359 2.018,-4.239 0.786,-2.497 1.983,-3.283 4.582,-3.215 7.488,0.377 9.642,-0.786 16.926,1.368 2.496,0.718 2.667,1.231 5.3,1.162 1.504,0.069 2.496,0.48 3.932,0.855 0.479,0.137 1.06,0.547 1.778,0.069 -0.581,-3.077 -2.359,-2.804 -4.274,-3.659 -0.787,-0.342 -1.573,-0.342 -2.428,-1.128 -1.744,-0.958 -7.865,-2.428 -8.514,-2.53 M 356.641,610.7 C 346.52,552.093 327.303,496.596 300.256,445.715 c -1.915,-3.624 -3.864,-7.248 -5.882,-10.839 -0.479,-0.889 -0.957,-1.744 -1.436,-2.599 0,-0.068 -0.068,-0.068 -0.068,-0.136 -25.03,-44.624 -55.976,-85.519 -91.879,-121.491 -1.71,-1.778 -3.488,-3.556 -5.266,-5.368 -55.702,-54.54 -122.619,-97.658 -197.059,-125.526 -0.991,-0.376 -1.914,-0.718 -2.94,-1.094 -21.2,-7.796 -42.948,-14.361 -65.242,-19.593 -1.983,-0.479 -3.967,-0.923 -5.984,-1.368 -39.836,-8.958 -81.279,-13.711 -123.884,-13.711 -12.857,0 -25.509,0.444 -38.092,1.299 -7.078,0.513 -14.088,1.06 -21.097,1.778 0,0 0.376,372.063 -0.855,387.279 -0.479,5.916 -1.094,12.72 -2.018,20.208 -0.239,1.915 -0.478,3.899 -0.752,5.916 -6.018,41.443 -21.61,100.222 -61.993,143.408 0,0 7.42,133.835 -31.253,328.021 -1.06,5.574 -2.223,11.148 -3.42,16.858 -0.444,2.222 -0.923,4.479 -1.402,6.736 -0.41,1.949 -0.82,3.898 -1.265,5.847 1.573,0.206 13.678,3.009 5.882,24.825 -2.292,6.497 -3.42,11.284 -3.933,15.079 h -114.48 c -0.479,-3.795 -1.71,-8.582 -4.07,-15.079 -8.069,-22.978 5.642,-24.825 6.224,-24.825 -45.615,-209.915 -37.374,-357.462 -37.374,-357.462 -17.336,-18.532 -30.125,-39.904 -39.494,-61.617 -0.684,-1.573 -1.333,-3.145 -1.983,-4.718 -6.018,-14.67 -10.6,-29.407 -13.951,-43.358 -11.353,-46.367 -10.224,-84.425 -10.224,-84.425 V 287.125 c -51.051,45.409 -93.725,99.88 -125.526,161.086 -1.367,2.565 -2.667,5.13 -3.932,7.728 -1.573,3.112 -3.112,6.258 -4.616,9.404 -21.713,45.341 -37.545,94.169 -46.503,145.357 h -257.309 c 48.248,-406.29 393.981,-721.42 813.436,-721.42 419.387,0 765.223,315.13 813.47,721.42 z"
       style="fill:#363939;fill-opacity:1;fill-rule:nonzero;stroke:none"
       transform="matrix(1.3333333,0,0,-1.3333333,1613.4541,2273.4305)"
       clip-path="url(#clipPath61)" />
    <path
       id="path62"
       d="m 0,0 c -1.286,-0.929 -1.501,-2.074 -1.215,-3.36 0.716,-2.86 1.215,-5.72 3.503,-7.793 0.215,0.286 0.43,0.357 0.571,0.429 C 2.217,-9.008 1.787,-7.293 1.002,-5.648 0.072,-3.861 0.573,-2.002 0,0"
       style="fill:#363939;fill-opacity:1;fill-rule:nonzero;stroke:none"
       transform="matrix(1.3333333,0,0,-1.3333333,1050.3461,2238.7189)"
       clip-path="url(#clipPath63)" />
    <path
       id="path64"
       d="M 0,0 C 0.857,0.572 1.644,1.287 2.431,2.359 0.714,1.573 0.714,1.573 0,0"
       style="fill:#363939;fill-opacity:1;fill-rule:nonzero;stroke:none"
       transform="matrix(1.3333333,0,0,-1.3333333,1487.32,2180.4751)"
       clip-path="url(#clipPath65)" />
    <path
       id="path66"
       d="M 0,0 C 0.929,-2.145 2.215,-3.932 3.002,-5.934 2.358,-3.789 2.644,-1.144 0,0"
       style="fill:#363939;fill-opacity:1;fill-rule:nonzero;stroke:none"
       transform="matrix(1.3333333,0,0,-1.3333333,1525.8319,2170.2752)"
       clip-path="url(#clipPath67)" />
  </g>
</svg>
