<?xml version="1.0" encoding="UTF-8" standalone="no"?>
<!-- Created with Inkscape (http://www.inkscape.org/) -->

<svg
   version="1.1"
   id="svg1"
   width="1122.5197"
   height="793.70074"
   viewBox="0 0 1122.5197 793.70074"
   xmlns="http://www.w3.org/2000/svg"
   xmlns:svg="http://www.w3.org/2000/svg">
  <defs
     id="defs1" />
  <g
     id="g1">
    <path
       id="path1"
       d="m 443.555,37.895 c -17.34,0 -18.934,0.085 -31.801,1.707 -48.371,6.097 -94.043,25.918 -131.418,57.039 -49.551,41.261 -81.438,99.027 -89.984,163.011 -1.762,13.176 -2.352,25.883 -1.942,41.762 0.297,11.457 0.918,18.652 2.567,29.758 6.398,43.043 24.058,84.234 50.972,118.891 39.41,50.746 96.707,84.851 160.086,95.285 9.117,1.504 19.246,2.648 27.598,3.117 8.324,0.473 28.094,0.16 35.883,-0.563 26.332,-2.445 50.187,-8.117 73.375,-17.441 45.363,-18.246 84.757,-49.184 112.843,-88.637 28.028,-39.367 44.543,-86.105 47.164,-133.453 1.739,-31.461 -1.843,-61.207 -10.906,-90.598 C 667.324,150.77 620.055,95.273 557.074,64.066 530.109,50.707 502.418,42.609 471.754,39.117 461.414,37.941 460.313,37.891 443.555,37.895 Z m -17.641,36.371 1.078,0.75 c 0.598,0.414 1.356,0.953 1.692,1.203 0.566,0.418 0.675,0.422 1.484,0.086 0.871,-0.364 0.875,-0.36 2.027,0.566 0.637,0.516 2.907,2.699 5.039,4.859 l 3.879,3.922 0.762,2.399 c 1.473,4.644 4.977,20.14 5.633,24.91 0.183,1.348 0.453,5.906 0.601,10.133 0.145,4.222 0.368,9.082 0.493,10.801 0.3,4.078 0.293,22.074 -0.012,24.238 -0.797,5.648 -5.301,14.445 -10.996,21.472 -2.871,3.543 -6.723,7.278 -8.301,8.051 -2.355,1.153 -4.164,0.434 -5.113,-2.023 -0.559,-1.445 -0.563,-5.051 -0.012,-11.418 1.012,-11.656 1.246,-16.555 1.238,-26.043 0,-7.047 -0.109,-10.617 -0.418,-13.918 -1.297,-13.984 -3.55,-21.543 -7.656,-25.688 -3.508,-3.539 -7.926,-3.976 -13.312,-1.312 -4.762,2.355 -7.852,5.652 -14.145,15.117 -7.203,10.828 -10.07,15.856 -17.992,31.563 -5.219,10.347 -6.539,13.179 -8.11,17.398 -1.031,2.773 -2.527,6.5 -3.32,8.281 -0.789,1.782 -1.848,4.157 -2.344,5.282 -0.496,1.121 -1.679,4.468 -2.632,7.437 -0.954,2.973 -3.133,9.723 -4.844,15 -4.528,13.945 -5.574,17.707 -8.832,31.68 -0.649,2.773 -1.985,8.496 -2.969,12.722 -5.727,24.512 -7.215,32.883 -8.453,47.52 -0.82,9.684 -0.688,27.406 0.269,35.59 0.45,3.836 0.696,4.816 1.793,7.129 2.614,5.5 7.493,7.847 13.25,6.375 5.375,-1.375 10.668,-5.672 15.825,-12.856 0.851,-1.187 4.437,-6.304 7.968,-11.367 3.532,-5.062 7.637,-10.84 9.129,-12.84 4.961,-6.664 7.223,-10.336 11.899,-19.351 3.437,-6.618 6.051,-11.356 7.57,-13.715 1.996,-3.094 5.047,-6.047 7.434,-7.196 1.293,-0.621 1.679,-0.691 3.839,-0.687 2.786,0.008 3.801,0.359 5.454,1.883 2.152,1.98 2.929,4.605 2.902,9.754 -0.027,5.269 -0.34,6.757 -3.863,18.359 -1.371,4.527 -5.243,20.32 -7.879,32.16 -2.985,13.41 -4.516,18.707 -8.008,27.723 -2.981,7.687 -3.621,9.789 -7.691,25.219 -3.082,11.695 -4.864,17.703 -6.532,22.058 -2.437,6.367 -3.55,9.801 -5.797,17.91 -3.796,13.692 -4.957,16.551 -7.812,19.243 -1.156,1.093 -2.371,1.914 -4.254,2.878 -2.543,1.297 -2.648,1.383 -2.945,2.379 -1.293,4.325 -2.95,7.469 -4.391,8.352 -1.758,1.07 -3.293,0.344 -3.934,-1.871 -0.312,-1.07 -0.367,-1.965 -0.257,-4.242 0.23,-4.86 1.41,-10.266 4.855,-22.203 2.246,-7.793 3.238,-11.868 5.277,-21.723 2.571,-12.445 4.27,-19.078 9.157,-35.762 1.394,-4.754 2.621,-8.965 2.726,-9.359 0.106,-0.399 0.375,-3.582 0.598,-7.082 0.441,-6.942 0.633,-8.313 1.762,-12.555 0.414,-1.559 0.75,-3.133 0.75,-3.496 0,-0.945 -0.52,-1.566 -1.145,-1.367 -0.695,0.222 -3.719,3.59 -10.242,11.418 -14.809,17.769 -20.512,23.617 -27.535,28.246 -2.887,1.898 -6.133,3.453 -8.957,4.277 -2.977,0.871 -3.824,0.762 -6.473,-0.84 l -2.109,-1.273 -2.324,0.308 c -2.793,0.372 -3.352,0.184 -5.571,-1.871 -4.383,-4.054 -8.277,-13.203 -10.019,-23.523 -1.465,-8.695 -1.684,-17.695 -0.899,-37.121 l 0.418,-10.32 1.055,-3.602 c 1.832,-6.238 2.617,-9.891 3.707,-17.168 1.035,-6.895 1.914,-10.879 7.695,-34.91 7.227,-30.024 11.973,-46.332 18.793,-64.563 7.336,-19.617 15.821,-37.597 24.961,-52.914 5.356,-8.968 12.203,-18.777 21.024,-30.125 2.566,-3.3 5.336,-6.863 6.152,-7.922 1.691,-2.179 6.863,-7.296 10.809,-10.695 5.148,-4.437 9.042,-7.234 13.421,-9.644 l 2.403,-1.321 5.636,-0.383 z m 198.363,326.461 c 1.215,0.027 2.192,0.218 2.309,0.527 0.141,0.355 -0.582,3.199 -0.926,3.641 -0.133,0.175 -0.894,0.277 -1.996,0.265 -1.437,-0.015 -1.996,0.094 -2.914,0.567 -1.223,0.628 -2.664,2.371 -2.773,3.347 -0.063,0.563 -0.008,0.582 2.019,0.699 1.145,0.067 2.164,0.204 2.266,0.309 0.207,0.207 -0.149,1.719 -0.735,3.109 l -0.379,0.903 h -2.367 c -1.672,0 -2.445,0.094 -2.633,0.316 -0.144,0.172 -1.664,4.391 -3.378,9.367 -1.715,4.981 -3.184,9.157 -3.262,9.286 -0.078,0.125 -1.215,0.23 -2.528,0.23 -2.078,0 -2.386,-0.051 -2.386,-0.406 0,-0.223 1.308,-4.192 2.906,-8.821 1.598,-4.628 2.922,-8.738 2.938,-9.132 0.035,-0.707 0.011,-0.723 -1.223,-0.793 -0.813,-0.047 -1.262,-0.18 -1.262,-0.375 0,-0.442 0.992,-3.344 1.254,-3.684 0.125,-0.156 0.895,-0.32 1.707,-0.359 l 1.481,-0.071 1.195,-2.281 c 2.094,-3.996 4.601,-5.941 8.383,-6.504 0.761,-0.117 1.578,-0.16 2.304,-0.14 z m -318.539,0.668 c 0.465,0.019 0.602,0.109 0.676,0.296 0.078,0.211 -0.226,1.497 -0.676,2.856 l -0.824,2.465 -2.539,0.07 c -1.398,0.035 -2.602,-0.031 -2.676,-0.148 -0.164,-0.266 1.246,-4.61 1.625,-5.008 0.149,-0.156 1.321,-0.36 2.606,-0.449 0.504,-0.039 0.902,-0.063 1.222,-0.075 0.239,-0.007 0.43,-0.011 0.586,-0.007 z m -31.582,0.472 c 1.645,-0.015 4.082,0.055 7.407,0.207 4.902,0.227 5.378,0.387 7.386,2.512 2.043,2.16 2.305,2.965 2.403,7.348 0.093,4.304 -0.157,5.742 -1.575,9.035 -1.773,4.101 -4.644,7.742 -7.714,9.785 -2.059,1.367 -3.59,1.961 -5.891,2.281 -1.02,0.141 -4.867,0.258 -8.555,0.258 -5.398,0 -6.703,-0.063 -6.703,-0.316 0,-0.176 1.359,-4.254 3.02,-9.063 1.66,-4.809 3.984,-11.594 5.16,-15.078 1.179,-3.484 2.265,-6.481 2.41,-6.66 0.156,-0.188 1.012,-0.289 2.652,-0.309 z m 222.383,0.153 c 1.121,-0.024 2.242,0.023 2.371,0.156 0.113,0.109 -1.117,4.105 -2.73,8.875 -1.614,4.769 -2.844,8.762 -2.735,8.871 0.11,0.109 3.16,-2.141 6.774,-5 l 6.574,-5.199 2.137,0.132 c 1.172,0.071 2.226,0.227 2.343,0.34 0.122,0.121 -0.687,0.922 -1.89,1.875 -5.535,4.375 -6.309,5.102 -6.301,5.93 0.004,0.426 0.527,3.906 1.16,7.734 0.637,3.829 1.11,7.094 1.051,7.258 -0.078,0.215 -0.828,0.301 -2.609,0.301 -2.364,0 -2.512,-0.031 -2.723,-0.539 -0.125,-0.297 -0.566,-2.863 -0.981,-5.703 -0.437,-2.969 -0.89,-5.301 -1.074,-5.492 -0.269,-0.286 -0.832,0.074 -3.664,2.336 l -3.344,2.671 -1.171,3.301 -1.176,3.305 -2.457,0.07 c -2.031,0.055 -2.461,0.004 -2.461,-0.285 0,-0.496 10.265,-30.422 10.523,-30.684 0.137,-0.136 1.262,-0.23 2.383,-0.253 z m 69.594,0 c 1.121,-0.024 2.242,0.015 2.371,0.144 0.105,0.106 -0.531,2.379 -1.418,5.047 -0.887,2.672 -1.613,4.984 -1.613,5.148 0,0.481 0.308,0.344 1.566,-0.699 2.922,-2.43 6.121,-3.055 8.762,-1.707 1.801,0.918 2.492,2.207 2.304,4.309 -0.121,1.371 -4.5,15.222 -5.695,18.004 l -0.437,1.027 h -2.41 c -1.661,0 -2.407,-0.086 -2.407,-0.277 0,-0.153 1.18,-3.797 2.625,-8.102 2.996,-8.914 3.168,-9.684 2.414,-10.644 -0.465,-0.59 -0.668,-0.657 -2.011,-0.657 -1.125,0 -1.801,0.153 -2.739,0.617 -2.468,1.231 -3.828,3.454 -6.16,10.063 -0.742,2.113 -1.754,4.973 -2.246,6.359 l -0.894,2.52 -2.457,0.07 c -2.047,0.055 -2.454,0.008 -2.454,-0.289 0,-0.5 10.262,-30.418 10.524,-30.68 0.133,-0.132 1.254,-0.226 2.375,-0.253 z m 68.465,1.289 c 0.398,0.023 0.539,0.109 0.605,0.277 0.078,0.203 -0.246,1.469 -0.715,2.82 -1.226,3.516 -1.281,3.367 1.293,3.367 1.203,0 2.211,0.106 2.297,0.247 0.164,0.261 -0.75,3.277 -1.144,3.773 -0.164,0.203 -0.996,0.301 -2.602,0.301 -2.004,0 -2.394,0.062 -2.586,0.418 -0.594,1.117 -4.113,12.082 -4.113,12.82 0,1.227 0.652,1.707 2.469,1.832 0.82,0.055 1.578,0.18 1.683,0.277 0.223,0.207 -0.859,3.305 -1.312,3.75 -0.387,0.379 -4.082,0.641 -5.157,0.364 -2.011,-0.516 -3.211,-1.778 -3.382,-3.563 -0.098,-1.012 0.211,-2.148 2.214,-8.191 1.282,-3.856 2.27,-7.168 2.196,-7.36 -0.094,-0.246 -0.528,-0.347 -1.461,-0.347 -0.934,0 -1.328,-0.094 -1.328,-0.313 0,-0.453 0.984,-3.355 1.254,-3.699 0.129,-0.164 0.961,-0.32 1.906,-0.359 l 1.676,-0.071 1.16,-2.847 c 0.64,-1.567 1.258,-2.946 1.379,-3.063 0.121,-0.121 1.097,-0.285 2.175,-0.367 0.407,-0.031 0.735,-0.055 0.997,-0.062 0.199,-0.008 0.359,-0.008 0.496,0 z m -358.805,3.289 -0.359,0.855 c -0.657,1.57 -7.079,20.399 -7.079,20.75 0,0.293 0.61,0.332 3.899,0.25 3.574,-0.09 4.012,-0.152 5.219,-0.719 2.644,-1.234 4.429,-3.187 6.054,-6.632 1.45,-3.063 2.161,-6.153 2.059,-8.934 -0.098,-2.656 -0.566,-3.684 -2.176,-4.746 -0.91,-0.602 -1.172,-0.645 -4.293,-0.731 z m 247.473,2.715 c 1.609,0.023 3.242,0.265 4.179,0.679 1.442,0.637 3.266,2.371 3.852,3.664 0.516,1.149 0.523,1.141 -2.098,1.86 l -1.91,0.519 -1.066,-1.187 c -0.86,-0.953 -1.313,-1.246 -2.285,-1.481 -3.387,-0.812 -6.879,1.641 -5.383,3.778 0.332,0.472 1.383,0.937 5.578,2.46 1.64,0.594 3.449,2.028 4.07,3.215 0.231,0.442 0.399,1.352 0.406,2.192 0.036,3.812 -3.41,7.445 -7.984,8.414 -1.746,0.371 -5.066,0.414 -6.738,0.086 -2.559,-0.504 -4.449,-1.949 -5.578,-4.278 -0.512,-1.054 -0.512,-1.058 -0.036,-1.445 0.266,-0.215 1.332,-0.59 2.372,-0.836 l 1.89,-0.445 0.367,0.551 c 1.731,2.558 3.848,3.363 6.852,2.609 1.359,-0.344 2.891,-1.648 3.086,-2.629 0.289,-1.441 -0.465,-2.023 -4.164,-3.223 -2.488,-0.804 -3.781,-1.519 -4.758,-2.632 -3.254,-3.707 0.598,-10.489 6.625,-11.664 0.797,-0.153 1.754,-0.219 2.723,-0.207 z m 70.972,0.015 c 0.516,-0.012 1.047,0 1.594,0.031 4.031,0.246 6.426,1.754 7.074,4.461 0.426,1.785 0.211,2.825 -1.84,8.793 -1,2.903 -2.156,6.469 -2.574,7.918 l -0.758,2.641 -2.25,0.07 c -1.234,0.039 -2.347,-0.031 -2.472,-0.156 -0.137,-0.137 -0.11,-0.734 0.078,-1.57 0.164,-0.743 0.234,-1.414 0.152,-1.493 -0.078,-0.082 -0.824,0.422 -1.656,1.118 -0.832,0.695 -2.106,1.543 -2.832,1.879 -1.051,0.488 -1.785,0.632 -3.598,0.699 -2.23,0.086 -2.312,0.07 -3.593,-0.707 -2.145,-1.301 -3.004,-3.453 -2.403,-6.012 1.281,-5.434 6.68,-8.34 15.504,-8.344 2.899,-0.004 3.07,-0.125 3.082,-2.176 0.008,-1.214 -0.082,-1.488 -0.68,-2.113 -1.793,-1.875 -5.461,-1.461 -8.136,0.918 -1.262,1.121 -1.266,1.121 -3.664,0.223 -0.723,-0.27 -1.313,-0.633 -1.313,-0.809 0,-0.176 0.668,-0.98 1.481,-1.785 2.375,-2.355 5.199,-3.512 8.804,-3.586 z m -107.539,0.012 c 0.266,-0.008 0.457,0.019 0.531,0.094 0.227,0.226 -0.707,4.222 -1.21,5.164 -0.145,0.269 -0.668,0.425 -1.743,0.511 -1.156,0.09 -1.964,0.348 -3.265,1.032 -2.953,1.55 -3.86,3.089 -6.926,11.757 l -1.863,5.274 -2.457,0.07 c -1.981,0.055 -2.453,0.004 -2.453,-0.269 0,-0.364 7.515,-22.496 7.785,-22.938 0.175,-0.277 3.414,-0.371 4.078,-0.117 0.523,0.203 0.48,0.629 -0.278,2.77 -0.71,2 -0.625,2.617 0.211,1.503 0.954,-1.277 3.489,-3.609 4.379,-4.031 0.942,-0.445 2.41,-0.797 3.211,-0.82 z m -168.176,0.019 c 0.469,-0.004 0.946,0.016 1.426,0.067 2.778,0.281 4.582,1.402 5.719,3.558 0.617,1.172 0.645,1.387 0.645,4.707 -0.004,2.372 -0.102,3.653 -0.309,4.024 l -0.309,0.539 h -15.804 l -0.297,0.539 c -0.477,0.855 -0.399,4.227 0.113,5.172 0.648,1.191 1.707,1.726 3.406,1.723 1.973,-0.008 3.235,-0.637 5.059,-2.524 l 1.512,-1.566 1.566,0.394 c 0.863,0.219 1.754,0.531 1.98,0.699 0.395,0.286 0.395,0.34 -0.027,0.993 -1.035,1.605 -3.894,4.105 -5.746,5.019 -1.742,0.863 -1.988,0.918 -4.414,0.981 -3.598,0.097 -5.324,-0.43 -6.938,-2.11 -1.437,-1.504 -1.871,-2.863 -1.855,-5.84 0.012,-2.332 0.102,-2.91 0.789,-4.921 1.051,-3.075 2.406,-5.278 4.586,-7.461 2.617,-2.614 5.613,-3.961 8.898,-3.993 z m 83.52,0 c 0.473,-0.004 0.945,0.016 1.426,0.067 2.777,0.281 4.582,1.402 5.719,3.558 0.617,1.172 0.648,1.387 0.644,4.707 -0.004,2.372 -0.102,3.653 -0.309,4.024 l -0.308,0.539 H 393.41 l -0.297,0.539 c -0.472,0.855 -0.398,4.227 0.114,5.172 0.648,1.191 1.707,1.726 3.406,1.723 1.972,-0.008 3.238,-0.637 5.058,-2.524 l 1.512,-1.566 1.567,0.394 c 0.863,0.219 1.753,0.531 1.98,0.699 0.395,0.286 0.395,0.34 -0.027,0.993 -1.035,1.605 -3.895,4.105 -5.746,5.019 -1.743,0.863 -1.989,0.918 -4.414,0.981 -3.598,0.097 -5.325,-0.43 -6.938,-2.11 -1.437,-1.504 -1.871,-2.863 -1.855,-5.84 0.011,-2.332 0.105,-2.91 0.793,-4.921 1.046,-3.075 2.402,-5.278 4.582,-7.461 2.617,-2.614 5.617,-3.961 8.898,-3.993 z m 56.859,0 c 0.477,-0.004 0.957,0.02 1.453,0.071 2.77,0.273 4.575,1.398 5.711,3.554 0.618,1.172 0.649,1.387 0.645,4.707 0,2.372 -0.102,3.657 -0.309,4.024 l -0.304,0.539 h -15.809 l -0.297,0.539 c -0.472,0.859 -0.398,4.227 0.117,5.172 0.649,1.191 1.707,1.726 3.407,1.723 1.968,-0.008 3.234,-0.637 5.058,-2.524 l 1.508,-1.562 1.566,0.39 c 0.864,0.219 1.754,0.531 1.985,0.699 0.39,0.289 0.39,0.34 -0.031,0.993 -1.032,1.605 -3.895,4.105 -5.743,5.019 -1.746,0.863 -1.992,0.918 -4.418,0.985 -3.597,0.093 -5.324,-0.434 -6.933,-2.114 -1.442,-1.504 -1.871,-2.863 -1.86,-5.84 0.012,-2.328 0.106,-2.91 0.793,-4.921 1.043,-3.063 2.344,-5.18 4.555,-7.415 2.652,-2.683 5.574,-4.011 8.906,-4.039 z m 87.493,0.055 c 2.476,0 2.718,0.043 3.925,0.711 2.243,1.242 3.356,2.992 3.766,5.918 0.09,0.656 0.055,1.176 -0.086,1.262 -0.398,0.246 -3.934,0.867 -4.156,0.73 -0.114,-0.07 -0.278,-0.562 -0.36,-1.09 -0.343,-2.14 -1.976,-3.453 -4.015,-3.234 -2.875,0.312 -5.43,3.187 -6.957,7.824 -1.153,3.5 -1.043,5.684 0.347,6.985 1.93,1.8 5.063,0.918 7.391,-2.082 0.957,-1.231 1.121,-1.344 1.797,-1.231 1.199,0.199 3.027,1.078 3.027,1.453 0,0.485 -1.898,2.766 -3.414,4.098 -0.695,0.613 -2.062,1.512 -3.035,1.996 -1.586,0.789 -1.988,0.887 -3.957,0.945 -3.902,0.121 -6.285,-1.168 -7.637,-4.125 -0.457,-1 -0.547,-1.605 -0.543,-3.601 0.008,-2.903 0.453,-4.727 1.875,-7.68 1.957,-4.055 4.141,-6.359 7.59,-8.016 1.731,-0.832 1.902,-0.863 4.442,-0.863 z m -103.469,0.359 h 2.113 c 1.32,0 2.117,0.094 2.117,0.254 0,0.243 -3.207,5.375 -10.863,17.387 l -3.672,5.758 -2.336,0.07 c -1.785,0.051 -2.371,-0.008 -2.465,-0.254 -0.066,-0.175 0.098,-3.39 0.368,-7.144 0.554,-7.762 0.566,-8.153 0.269,-8.153 -0.117,0 -2.078,3.215 -4.352,7.141 -2.277,3.93 -4.347,7.438 -4.601,7.801 -0.449,0.64 -0.527,0.66 -2.711,0.66 -1.238,0 -2.289,-0.082 -2.34,-0.18 -0.113,-0.222 0.246,-14.672 0.488,-19.621 l 0.172,-3.597 2.379,-0.071 c 1.309,-0.039 2.481,0.031 2.598,0.149 0.195,0.195 -0.09,10.078 -0.399,13.898 -0.07,0.867 -0.015,1.262 0.18,1.258 0.156,-0.004 2.266,-3.34 4.688,-7.414 2.421,-4.078 4.523,-7.531 4.668,-7.676 0.296,-0.297 4.398,-0.371 4.562,-0.086 0.059,0.102 -0.137,3.527 -0.437,7.621 -0.297,4.09 -0.489,7.492 -0.43,7.559 0.203,0.215 0.926,-0.86 5.496,-8.16 z m -142.246,0.004 c 1.093,-0.023 2.25,0.016 2.574,0.141 0.211,0.082 0.379,0.262 0.379,0.402 0,0.278 -7.031,20.879 -7.574,22.192 l -0.321,0.781 h -2.531 c -2,0 -2.531,-0.07 -2.531,-0.332 0,-0.352 7.527,-22.508 7.793,-22.938 0.082,-0.132 1.117,-0.218 2.211,-0.246 z m 17.234,3.286 c -1.781,0.035 -2.957,0.523 -4.336,1.792 -1.008,0.926 -2.504,3.18 -2.504,3.77 0,0.191 1.446,0.27 4.996,0.27 5.996,0 5.938,0.019 5.746,-2.086 -0.25,-2.758 -1.332,-3.797 -3.902,-3.746 z m 83.52,0 c -1.782,0.035 -2.957,0.523 -4.336,1.792 -1.008,0.926 -2.504,3.18 -2.504,3.77 0,0.191 1.445,0.27 4.996,0.27 5.996,0 5.937,0.019 5.746,-2.086 -0.25,-2.758 -1.332,-3.797 -3.902,-3.746 z m 56.879,0 c -1.782,0.035 -2.958,0.523 -4.336,1.792 -1.004,0.926 -2.504,3.18 -2.504,3.77 0,0.191 1.449,0.27 4.996,0.27 5.996,0 5.941,0.019 5.75,-2.086 -0.25,-2.758 -1.336,-3.797 -3.906,-3.746 z m 136.832,8.433 c -1.508,0.07 -4.442,0.524 -5.903,0.977 -0.816,0.254 -1.906,0.754 -2.418,1.109 -0.988,0.684 -2.148,2.656 -2.148,3.648 0,0.821 0.66,1.977 1.269,2.223 0.293,0.117 1.121,0.215 1.848,0.223 1.777,0.015 3.535,-0.824 5.121,-2.453 1.406,-1.446 3.551,-5.278 3.16,-5.653 -0.082,-0.078 -0.426,-0.097 -0.929,-0.074 z"
       style="fill:#000000;fill-opacity:1;fill-rule:nonzero;stroke:none"
       transform="scale(1.3333333)" />
  </g>
</svg>
