<?xml version="1.0" encoding="UTF-8" standalone="no"?>
<!-- Created with Inkscape (http://www.inkscape.org/) -->

<svg
   version="1.1"
   id="svg1"
   width="1122.5197"
   height="793.70074"
   viewBox="0 0 1122.5197 793.70074"
   xmlns="http://www.w3.org/2000/svg"
   xmlns:svg="http://www.w3.org/2000/svg">
  <defs
     id="defs1" />
  <g
     id="g1">
    <path
       id="path1"
       d="m 424.859,48.781 c -3.66,0.012 -7.414,0.086 -11.191,0.219 -17.922,0.629 -27.766,1.762 -42.922,4.945 -40.234,8.45 -76.66,25.961 -107.32,51.594 -15.477,12.941 -29.418,27.785 -40.781,43.422 -25.895,35.641 -42.235,78.836 -46.204,122.16 -0.992,10.852 -1.281,26.594 -0.652,35.641 2.508,35.945 9.844,65.261 23.906,95.519 2.985,6.418 7.539,15.02 12.067,22.801 4.758,8.168 8.453,14.051 8.988,14.309 0.41,0.199 55.996,0.281 213.266,0.3 l 212.714,0.032 0.786,-0.782 c 0.886,-0.875 7.519,-12.738 11.148,-19.937 11.887,-23.566 19.832,-49.43 24.043,-78.258 1.281,-8.793 1.813,-20.262 1.594,-34.344 -0.387,-24.738 -1.942,-38.57 -6.391,-56.879 -6.976,-28.722 -19.508,-57.585 -35.629,-82.082 C 620.43,134.238 591.742,106.727 557.652,86.281 525.027,66.715 491.148,54.957 453.746,50.219 446.027,49.242 435.848,48.746 424.859,48.781 Z m 6.125,5.895 c 11.231,0.023 21.547,0.34 27.321,0.941 19.269,2.004 41.738,8.77 66.961,20.164 11.414,5.157 36.984,18.543 39.668,20.766 l 0.754,0.629 -0.469,1.051 c -1.02,2.269 -4.727,6.8 -11.149,13.617 -6.027,6.406 -7.086,7.172 -9.468,6.875 -2.622,-0.328 -2.887,-0.297 -2.973,0.308 -0.063,0.434 0.844,1.493 4.32,5.047 6.012,6.149 10.449,11.633 17.985,22.246 17.785,25.047 39.57,59.95 39.57,63.391 0,1.055 -0.203,1.434 -2.039,3.809 -2.086,2.699 -5.84,8.097 -10.602,15.242 -13.293,19.937 -24.66,39.183 -25.16,42.597 -0.265,1.817 1.481,3.465 2.512,2.371 0.234,-0.246 1.812,-2.824 3.504,-5.726 13.531,-23.227 28.801,-46.77 34.277,-52.844 1.457,-1.613 3.133,-2.719 4.129,-2.719 3.059,0 18.016,6.567 47.215,20.727 9.172,4.449 11.855,6.445 13.621,10.148 2.637,5.52 4.484,12.993 5.875,23.727 0.906,7.012 1.121,15.871 1.031,42.754 l -0.082,23.723 -6.566,11.402 c -9.281,16.105 -14.473,24.691 -22.063,36.48 -10.176,15.801 -15.828,23.032 -18.578,23.774 -1.848,0.496 -6.117,-0.078 -11.933,-1.606 -11.618,-3.05 -30.247,-10.441 -37.7,-14.957 -3.461,-2.097 -3.84,-2.633 -5.168,-7.242 -3.199,-11.117 -6.918,-33.07 -9.582,-56.609 -0.84,-7.422 -1.523,-11.571 -1.976,-12.024 -0.254,-0.254 -5.91,2.629 -7.59,3.864 -0.539,0.394 -1.098,0.718 -1.246,0.718 -0.528,0 -1.278,1.118 -2.891,4.309 -1.933,3.828 -4.023,7.027 -5.656,8.66 -3.277,3.277 -8.84,5.785 -14.289,6.449 -2.848,0.348 -8.602,0.114 -11.793,-0.48 -1.359,-0.25 -2.676,-0.457 -2.926,-0.457 -0.527,0 -1.758,2.086 -5.308,9 -2.864,5.57 -5.911,12.289 -11.426,25.203 -6.446,15.078 -12.004,27.516 -16.512,36.957 -6.625,13.879 -9.141,20.234 -9.402,23.762 -0.121,1.609 -0.098,1.718 0.629,2.625 0.414,0.519 0.722,1.109 0.683,1.312 -0.086,0.449 -1.574,0.735 -2.894,0.559 -2.254,-0.301 -1.821,-2.516 2.711,-13.86 2.273,-5.691 3.66,-8.828 7.32,-16.558 5.332,-11.274 7.258,-15.567 14.309,-31.871 7.937,-18.356 11.96,-26.926 15.785,-33.621 1.199,-2.098 2.304,-3.965 2.453,-4.145 0.226,-0.273 1.496,-0.305 7.262,-0.176 10.328,0.223 13.859,-0.347 18.23,-2.953 2.367,-1.414 5.617,-4.562 7.234,-7.015 0.649,-0.981 1.571,-2.817 2.051,-4.082 1.582,-4.165 1.785,-4.387 5.848,-6.422 3.414,-1.715 5.75,-3.301 7.992,-5.43 3.965,-3.77 7.961,-9.59 9.34,-13.606 0.637,-1.855 0.656,-8.414 0.035,-10.199 -1.348,-3.843 -8.688,-11.07 -19.621,-19.308 -11.817,-8.907 -17.742,-14.481 -20.836,-19.614 l -1.035,-1.714 3.512,-14.243 c 9.406,-38.183 11.082,-46.488 12.843,-63.562 0.856,-8.305 1.157,-16.598 0.742,-20.399 -0.914,-8.32 -2.375,-14.242 -4.496,-18.238 -4.039,-7.598 -8.328,-11.39 -14.851,-13.148 -2.305,-0.621 -6.024,-0.496 -8.438,0.281 -5.258,1.695 -8.343,5.695 -10.64,13.789 -1.118,3.934 -2,8.078 -3.848,18.086 -2.883,15.566 -5.109,25.125 -8.992,38.59 -1.238,4.289 -3.02,10.609 -3.961,14.039 -2.113,7.703 -2.629,9.269 -3.953,12.004 -1.766,3.656 -3.785,6.011 -6.254,7.289 -1.422,0.734 -2.094,0.445 -6.32,-2.738 -4.243,-3.188 -6.586,-4.625 -9.211,-5.641 -4.922,-1.902 -10.344,-2.688 -18.543,-2.691 -6.036,-0.004 -9.559,0.257 -15.239,1.136 -2.047,0.313 -4.371,0.606 -5.16,0.649 -1.383,0.07 -1.445,0.05 -1.512,-0.528 -0.082,-0.711 1.77,-7.242 4.598,-16.199 10.219,-32.402 13.074,-45.281 13.879,-62.609 0.664,-14.301 -1.074,-25.508 -5.121,-33.032 -2.195,-4.085 -4.598,-7.035 -9.266,-11.398 l -3.281,-3.066 -4.687,0.164 c -9.743,0.336 -12.332,0.715 -14.329,2.09 -3.511,2.414 -7.371,7.593 -9.839,13.207 -3.114,7.066 -5.196,13.882 -10.079,32.964 -4.144,16.211 -6.429,24.102 -8.386,28.981 -1.219,3.035 -8.223,16.93 -14.551,28.859 -10.863,20.485 -16.895,32.473 -21.281,42.313 l -3.074,6.886 -0.133,4.801 c -0.309,11.129 0.609,35.883 1.625,43.801 1.695,13.191 1.98,35.805 0.617,48.961 -0.254,2.441 -0.535,5.41 -0.625,6.598 -0.086,1.187 -0.359,3.562 -0.606,5.281 -0.824,5.801 -1.023,9.078 -0.875,14.484 0.102,3.668 0.286,5.973 0.629,7.836 0.598,3.242 0.805,4.613 1.496,9.961 0.493,3.785 0.543,5.129 0.52,13.68 -0.02,6.98 -0.168,11.597 -0.563,17.519 -0.293,4.422 -0.601,11.602 -0.683,15.957 l -0.152,7.922 -14.043,0.016 c -16.461,0.019 -34.239,-0.219 -36.536,-0.488 -0.89,-0.106 -1.738,-0.336 -1.882,-0.512 -0.332,-0.399 0.363,-3.231 2.679,-10.906 5.641,-18.7 12.477,-38.219 15.164,-43.309 l 1.016,-1.922 10.082,-0.152 c 13.613,-0.207 20.34,-0.68 21.617,-1.52 1.324,-0.863 0.324,-2.554 -1.715,-2.898 -0.652,-0.11 -7.785,-0.172 -15.847,-0.141 l -14.668,0.059 -0.961,-1.512 c -0.528,-0.832 -4.231,-6.535 -8.227,-12.676 -14.219,-21.824 -19.246,-29.746 -31.371,-49.437 -10.98,-17.844 -10.98,-17.84 -10.976,-21.961 0.003,-4.074 0.539,-5.609 8.027,-23.039 13.351,-31.078 28.023,-60.403 33.137,-66.223 1.023,-1.168 1.984,-1.597 5.621,-2.504 9.343,-2.328 24.984,-4.656 46.922,-6.988 4.949,-0.523 10.16,-1.078 11.574,-1.23 l 2.574,-0.278 5.012,-9.867 c 10.367,-20.418 10.355,-20.383 17.801,-49.352 5.015,-19.515 6.75,-24.742 11.339,-34.156 1.996,-4.094 2.371,-5.035 2.086,-5.215 -0.191,-0.121 -4.914,-2.168 -10.496,-4.55 -5.582,-2.383 -12.699,-5.489 -15.816,-6.899 l -5.664,-2.57 0.164,-4.805 c 0.25,-7.348 0.683,-10.469 1.562,-11.266 0.942,-0.851 16.153,-2.906 25.825,-3.488 9.421,-0.57 21.566,-0.84 32.796,-0.816 z m -66.933,6.804 c 1.027,0 1.176,0.071 1.41,0.661 0.148,0.375 0.316,3.027 0.387,6.105 l 0.125,5.445 -11.016,5.497 c -18.129,9.046 -26.199,13.621 -38.852,22.015 -5.855,3.883 -9.003,6.113 -19.32,13.668 -4.664,3.414 -9.023,6.387 -11.058,7.535 -1.719,0.969 -3.039,0.93 -5.825,-0.179 -1.187,-0.473 -7.293,-1.422 -14.058,-2.184 -6.684,-0.754 -8.801,-1.09 -9.016,-1.434 -0.164,-0.269 1.078,-1.351 5.399,-4.699 13.027,-10.086 29.347,-21.094 42.238,-28.488 15.988,-9.168 52.73,-23.93 59.586,-23.942 z m 54.097,29.786 c 0.356,0.004 0.735,0.015 1.141,0.035 4.137,0.199 6.988,1.515 10.246,4.734 1.973,1.945 3.84,4.617 5.117,7.317 2.547,5.378 3.422,11.933 3.172,23.769 -0.187,9.016 -0.59,12.824 -2.215,21 -1.531,7.688 -4.488,18.254 -8.871,31.68 -4.136,12.668 -13.402,39.508 -13.761,39.875 -0.215,0.215 -2.493,1.012 -5.059,1.765 -10.844,3.184 -16.438,5.657 -20.758,9.164 -1.66,1.344 -6.469,6.809 -6.199,7.04 0.102,0.085 1.07,0.355 2.152,0.593 3.317,0.735 7.414,0.2 11.641,-1.523 0.965,-0.395 4.559,-2.074 7.992,-3.731 3.797,-1.836 6.531,-3.015 6.984,-3.019 0.454,-0.004 0.918,0.191 1.2,0.5 0.41,0.453 0.457,0.926 0.468,4.742 0.012,3.594 0.094,4.535 0.547,6.227 0.922,3.425 2.297,6.015 4.637,8.722 2.301,2.664 7.742,5.883 21.086,12.473 4.551,2.246 9.25,4.637 10.437,5.312 6.083,3.457 9.45,6.391 11.055,9.641 l 0.922,1.871 -0.469,0.871 c -0.984,1.832 -3.941,2.957 -8.972,3.414 -5.25,0.477 -6.106,0.223 -19.336,-5.718 -6.828,-3.067 -9.153,-3.899 -10.86,-3.899 -2.582,0 -5.832,1.184 -7.441,2.711 -2.055,1.957 -0.258,3.422 7.41,6.055 5.652,1.933 8.613,3.746 8.613,5.265 0,0.828 -1.578,2.25 -3.988,3.606 -1.172,0.656 -2.543,1.566 -3.047,2.019 -2.547,2.297 -2.012,4.348 1.125,4.344 4.496,-0.008 11.395,-1.293 25.828,-4.808 11.766,-2.868 16.176,-3.586 25,-4.094 5.645,-0.321 11.153,-0.18 14.243,0.371 1.187,0.211 6.316,1.402 11.398,2.648 14.695,3.602 16.363,3.864 22.918,3.617 4.613,-0.175 7.082,0.051 8.457,0.778 1.301,0.687 3.894,2.957 5.437,4.762 3.938,4.589 5.911,10.152 5.243,14.773 -0.547,3.777 -2.93,7.355 -5.465,8.195 -2.266,0.754 -4.781,0.895 -13.071,0.731 -8.726,-0.172 -11.55,-0.012 -17.277,0.996 -10.941,1.918 -19.539,5.633 -36.844,15.918 -11.132,6.613 -24.296,13.504 -28.078,14.699 -0.926,0.289 -1.828,0.699 -2.004,0.91 -0.257,0.305 -0.293,1.145 -0.172,4.039 0.125,2.996 0.09,3.778 -0.207,4.348 -0.457,0.891 -2.031,2.297 -5.703,5.109 -3.961,3.032 -5.222,4.223 -5.757,5.418 -0.403,0.907 -0.415,1.094 -0.114,1.821 0.387,0.929 1.391,1.492 3.321,1.859 2.496,0.48 5.539,-0.258 9.562,-2.309 2.621,-1.336 3.348,-1.797 10.891,-6.918 2.496,-1.695 5.445,-3.515 6.554,-4.046 1.817,-0.872 2.055,-0.934 2.387,-0.602 1.027,1.031 0.836,8.223 -0.422,15.547 -1.695,9.898 -5.078,16.687 -11.472,23.051 -1.137,1.129 -4.223,3.765 -6.864,5.859 -5.41,4.297 -8.957,7.707 -10.269,9.879 -1.403,2.32 -2.153,4.519 -2.184,6.41 -0.023,1.449 0.039,1.691 0.539,2.102 1.656,1.339 5.86,-0.176 10.594,-3.832 4.109,-3.172 12.707,-12.313 17.352,-18.45 10.425,-13.773 13.988,-26.097 12.57,-43.5 -0.211,-2.574 -0.442,-5.793 -0.516,-7.152 l -0.129,-2.469 0.903,-0.828 c 0.937,-0.859 7.668,-4.781 14.406,-8.394 7.601,-4.079 15,-7.196 16.683,-7.032 0.696,0.067 0.766,0.145 0.715,0.801 -0.058,0.813 -1.179,3.906 -6.621,18.27 -9.043,23.855 -10.84,27.734 -19.969,43.043 -9.179,15.398 -11.027,20.078 -12.125,30.703 -0.25,2.429 -0.558,4.523 -0.687,4.652 -0.262,0.262 -97.637,0.438 -104.543,0.192 l -4.078,-0.145 0.035,-3.723 c 0.051,-5.367 1.203,-20.371 1.785,-23.234 0.141,-0.699 0.399,-1.328 0.567,-1.391 0.168,-0.066 1.214,0.114 2.32,0.395 2.656,0.68 5.101,0.848 6.332,0.433 0.789,-0.261 0.973,-0.449 1.039,-1.015 0.105,-0.934 -0.793,-3.383 -3.109,-8.488 -7.946,-17.477 -10.039,-25.907 -10.047,-40.446 -0.004,-5.687 0.238,-10.254 1.078,-20.332 1.324,-15.883 1.891,-27.082 1.883,-37.32 -0.004,-8.356 -0.395,-13.738 -2.125,-29.281 -1.137,-10.176 -1.395,-14.539 -1.254,-21.325 0.133,-6.429 0.406,-8.082 2.215,-13.476 3.168,-9.43 5.816,-14.383 20.523,-38.399 13.899,-22.691 16.082,-28.336 26.996,-69.718 6.914,-26.227 8.742,-31.77 11.445,-34.703 1.18,-1.282 2.446,-1.758 4.918,-1.754 z m 29.844,15.507 -0.387,0.922 c -0.625,1.496 -0.054,3.551 1.145,4.129 0.938,0.449 4.066,0.832 21.918,2.699 17.102,1.79 21.301,2.239 31.199,3.36 3.43,0.39 6.672,0.746 7.199,0.793 2.059,0.183 3.266,0.156 4.489,-0.102 1.113,-0.234 1.488,-0.488 3.023,-2.023 2.024,-2.028 2.039,-1.988 -0.918,-2.598 -3.203,-0.66 -56.055,-6.328 -65.453,-7.019 z m -198.187,17.278 3.871,0.16 c 13.875,0.578 25.16,2.195 28.172,4.035 1.761,1.078 3.109,3.981 5.222,11.274 1.586,5.468 4.516,17.183 5.84,23.363 2.426,11.308 4.473,24.488 4.285,27.597 -0.156,2.633 -1.238,5.211 -4.215,10.059 -10.605,17.25 -23.804,45.188 -37.39,79.137 -2.039,5.097 -3.84,9.449 -4,9.668 -0.18,0.242 -2.527,1.051 -6.047,2.078 -23.836,6.953 -32.488,9.719 -41.289,13.199 -3.309,1.309 -6.246,2.383 -6.527,2.383 -0.954,0 -4.793,-3.336 -12.532,-10.879 l -4.672,-4.555 0.055,-1.703 c 1.012,-31.289 5.527,-55.277 14.762,-78.387 6.383,-15.984 16.605,-35.898 26.144,-50.941 7.649,-12.055 17.907,-25.406 26.766,-34.832 z m 277.687,1.273 c 3.278,-0.008 5.18,1.68 7.805,6.926 1.101,2.207 1.898,4.203 2.402,6.043 2.383,8.652 2.864,20.883 1.242,31.531 -0.742,4.871 -1.75,9.688 -4.464,21.371 -3.735,16.039 -5.274,23.289 -6.809,32.047 -1.148,6.535 -1.785,9.25 -2.422,10.293 -0.613,1.012 -1.215,0.965 -3.644,-0.285 -2.543,-1.309 -5.094,-3.105 -9.754,-6.863 -3.996,-3.227 -8.075,-6.078 -10.278,-7.196 -0.761,-0.386 -1.648,-0.988 -1.976,-1.336 l -0.59,-0.632 0.445,-1.727 c 0.422,-1.641 1.578,-5.465 6.606,-21.894 7.086,-23.157 10.925,-38.239 13.59,-53.399 2.25,-12.793 3.339,-14.863 7.847,-14.879 z m -72.785,91.184 c 4.254,-0.004 5.461,0.215 7.797,1.394 4.375,2.211 7.609,5.457 15.723,15.793 3.648,4.645 7.976,9.039 11.039,11.2 1.254,0.882 3.847,2.496 5.761,3.578 5.055,2.867 8.184,4.824 11.039,6.894 6.879,4.996 12.856,10.86 16.879,16.551 1.84,2.605 4.164,7.168 4.383,8.605 0.133,0.864 0.07,1.086 -0.445,1.602 -1.125,1.129 -5.918,2.117 -12.293,2.543 -4.246,0.281 -7.852,0.277 -12.332,-0.008 -8.164,-0.519 -13.227,-2.035 -22.832,-6.844 -11.672,-5.843 -17.852,-10.515 -34.094,-25.765 -5.086,-4.778 -10.394,-9.371 -10.824,-9.371 -0.649,0 -1.387,0.746 -2.145,2.168 -0.8,1.5 -2.578,3.355 -3.222,3.355 -0.578,0 -2.262,-0.914 -3.692,-2.004 -1.543,-1.179 -3.558,-3.625 -4.449,-5.402 -2.539,-5.047 -2.25,-14.082 0.57,-17.977 0.91,-1.254 2.168,-1.832 6.184,-2.843 8.473,-2.133 18.824,-3.469 26.953,-3.469 z m 33.18,10.031 1.949,0.125 c 2.492,0.164 5.859,1.231 9.633,3.051 6.472,3.121 9.601,5.793 28.98,24.726 8.735,8.536 14.274,13.789 20.219,19.176 11.723,10.629 14.742,13.625 15.668,15.551 0.328,0.691 0.328,0.922 -0.023,2.348 -1.2,4.859 -5.282,10.828 -8.461,12.371 -1.262,0.613 -1.942,0.597 -3.247,-0.067 -1.746,-0.886 -5.675,-3.976 -8.41,-6.605 -6.355,-6.125 -8.007,-10.965 -7.172,-21.035 l 0.313,-3.731 -3.102,-3.191 c -1.703,-1.754 -3.527,-3.703 -4.05,-4.336 -2.524,-3.024 -14.164,-12.633 -23.157,-19.117 -11.304,-8.149 -19.039,-14.481 -20.429,-16.731 l -0.535,-0.863 0.914,-0.836 z m -305.633,75.902 c 0.578,0 3.226,2.188 8.023,6.625 3.219,2.981 4.036,3.864 4.141,4.485 0.074,0.422 0.621,4.441 1.215,8.929 1.297,9.786 2.097,14.891 3.859,24.602 2.488,13.727 5.016,25.77 9.223,43.961 3.008,13.008 3.527,16.57 2.789,19.02 -0.563,1.871 -0.926,1.484 -3.578,-3.821 -8.75,-17.492 -16.453,-36.488 -18.992,-46.844 -2.567,-10.46 -7.11,-45.554 -7.11,-54.937 0,-1.777 0.055,-2.02 0.43,-2.02 z m 394.867,91.918 c 0.266,-0.011 0.531,-0.011 0.797,0 1.762,0.075 3.609,0.664 6.988,1.993 15.485,6.089 29.543,10.816 39.36,13.242 2.504,0.617 4.629,1.242 4.714,1.383 0.086,0.14 -0.367,1.804 -1.011,3.691 -2.043,5.996 -6.992,19.402 -7.274,19.703 -0.195,0.207 -2.558,0.324 -8.55,0.418 -13.543,0.215 -83.114,0.305 -96.719,0.125 -17.113,-0.223 -15.84,-0.176 -15.84,-0.566 0,-1.438 32.094,-18.883 63.84,-34.696 7.754,-3.863 9.289,-4.547 11.09,-4.922 0.984,-0.207 1.808,-0.339 2.605,-0.371 z m -361.308,17.594 c 0.335,-0.113 1.453,0.817 5.949,4.934 6.281,5.758 10.699,9.308 18.609,14.957 1.906,1.363 3.504,2.597 3.551,2.742 0.047,0.16 -0.426,0.328 -1.188,0.418 -0.695,0.082 -5.281,0.223 -10.187,0.312 l -8.922,0.164 -1.297,-2.019 c -2.965,-4.609 -6.066,-9.793 -6.879,-11.488 -0.836,-1.75 -0.863,-1.895 -0.824,-4.332 0.043,-2.571 0.656,-5.512 1.188,-5.688 z m 336.093,34.387 c -5.304,0.008 -7.793,0.367 -11.738,1.687 -8.461,2.832 -15.535,9.477 -19.793,18.594 -3.629,7.766 -5.773,18.934 -5.324,27.699 0.461,8.922 1.41,14.602 3.387,20.285 3.449,9.903 9.91,16.868 19.019,20.5 2.961,1.18 6.34,2.016 9.152,2.266 1.262,0.113 2.836,0.219 3.496,0.234 1.743,0.047 6.395,-0.386 8.762,-0.816 2.446,-0.441 8.008,-1.984 8.528,-2.363 0.332,-0.242 0.304,-0.824 -0.25,-5.547 -0.34,-2.902 -0.805,-6.25 -1.036,-7.438 l -0.414,-2.16 -1.797,0.032 c -1.015,0.019 -2.625,0.265 -3.71,0.566 -1.512,0.422 -2.801,0.562 -6.016,0.656 -3.637,0.11 -4.317,0.067 -6.117,-0.387 -8.481,-2.144 -14.551,-9.355 -16.188,-19.234 -0.875,-5.285 -0.707,-13.738 0.387,-19.394 1.828,-9.493 7.484,-16.188 15.453,-18.297 3.82,-1.016 10.055,-0.551 14.949,1.109 1.317,0.445 1.864,0.535 2.211,0.348 1.082,-0.578 4.031,-13.375 3.403,-14.758 -0.344,-0.754 -2.411,-1.684 -5.293,-2.383 -4.243,-1.027 -5.93,-1.211 -11.071,-1.199 z m -302.965,0.34 c -7.718,0.105 -15.136,2.289 -21.378,6.402 -3.098,2.039 -7.614,6.527 -9.59,9.531 -3.653,5.543 -5.918,12.082 -7.157,20.668 -0.5,3.465 -0.421,16.559 0.122,20.039 1.25,8.039 3.507,14.301 7.089,19.68 1.789,2.684 5.844,6.746 8.465,8.477 3.633,2.398 8.727,4.476 12.121,4.949 0.91,0.125 4.082,0.187 7.055,0.137 8.488,-0.149 14.102,-0.965 20.422,-2.977 l 3.695,-1.18 0.063,-23.164 c 0.054,-20.82 0.023,-23.203 -0.317,-23.543 -0.336,-0.332 -1.781,-0.379 -12.465,-0.379 -10.714,0 -12.128,0.043 -12.468,0.383 -0.332,0.332 -0.371,1.285 -0.317,7.738 l 0.067,7.36 2.757,0.183 c 1.52,0.102 3.895,0.262 5.282,0.36 l 2.519,0.179 v 8.278 c 0,7.801 -0.027,8.336 -0.48,9.242 -0.414,0.824 -0.649,1 -1.68,1.27 -1.816,0.476 -7.859,0.238 -10.32,-0.407 -7.863,-2.054 -13.547,-9.039 -15.371,-18.863 -0.532,-2.887 -0.742,-11.457 -0.364,-14.793 0.903,-7.859 2.793,-12.352 6.965,-16.551 4.598,-4.625 8.133,-6.168 14.649,-6.39 5.929,-0.2 9.867,0.535 14,2.613 1.047,0.523 1.984,0.867 2.086,0.758 0.203,-0.219 3.113,-14.344 3.113,-15.11 0,-1.297 -3.141,-2.707 -8.688,-3.898 -2.781,-0.598 -5.57,-0.922 -8.328,-0.984 -0.515,-0.012 -1.031,-0.016 -1.547,-0.008 z m 336.747,0.48 c -5.938,0 -6.797,0.047 -7.184,0.399 -0.422,0.382 -0.438,2.07 -0.438,44.238 0,24.113 0.075,43.918 0.164,44.008 0.09,0.09 3.465,0.133 7.5,0.101 l 7.336,-0.066 0.157,-12.961 c 0.175,-14.488 0.211,-14.832 1.863,-18.281 1.332,-2.778 3.34,-5.836 3.832,-5.836 0.578,0 2.855,4.953 12.039,26.16 l 4.731,10.918 8.789,0.066 c 7.941,0.055 8.789,0.024 8.789,-0.324 0,-0.5 -1.282,-3.344 -10.172,-22.605 -6.676,-14.454 -10.723,-23.45 -11.934,-26.524 l -0.453,-1.144 0.938,-1.864 c 1.535,-3.05 6.253,-11.211 13.668,-23.64 3.847,-6.442 6.992,-11.801 6.992,-11.907 0,-0.109 -0.403,-0.261 -0.899,-0.343 -1.144,-0.188 -12.64,-0.149 -15.66,0.054 l -2.277,0.153 -6.246,12.117 c -10.477,20.34 -12.926,24.961 -13.215,24.961 -0.203,0 -0.317,-3.035 -0.43,-11.461 -0.289,-21.16 -0.422,-25.492 -0.801,-25.875 -0.285,-0.281 -1.558,-0.344 -7.089,-0.344 z m 61.214,0 c -6.355,0 -7.672,0.059 -7.781,0.34 -0.07,0.184 0.039,3.18 0.242,6.66 0.364,6.149 0.703,14.641 0.985,24.68 0.414,14.769 0.929,25.703 1.277,27 0.18,0.664 0.316,0.742 1.738,0.992 1.895,0.332 9.02,0.414 9.211,0.106 0.078,-0.125 0.621,-11.383 1.215,-25.02 0.59,-13.641 1.176,-26.848 1.301,-29.352 0.207,-4.05 0.187,-4.601 -0.152,-4.98 -0.356,-0.391 -1.02,-0.426 -8.036,-0.426 z m -177.57,0.004 c -5.98,0 -6.121,0.012 -6.734,0.539 -0.383,0.324 -3.176,5.488 -7.051,13.02 -6.414,12.468 -11.535,22.066 -12.367,23.168 -0.242,0.32 -0.524,0.5 -0.625,0.398 -0.164,-0.164 -0.426,-13.152 -0.629,-31.008 l -0.059,-5.519 -1.726,-0.157 c -0.95,-0.082 -4.196,-0.23 -7.215,-0.328 -4.981,-0.156 -5.528,-0.136 -5.895,0.231 -0.379,0.379 -0.406,3.383 -0.406,44.269 0,24.125 0.07,43.934 0.16,44.024 0.09,0.086 3.438,0.16 7.445,0.16 h 7.286 l 0.257,-0.66 c 0.153,-0.399 0.34,-5.11 0.477,-11.942 0.234,-12.175 0.461,-15.953 1.047,-17.636 0.488,-1.41 3.973,-6.571 4.5,-6.672 0.297,-0.059 0.633,0.371 1.226,1.554 1.024,2.036 5.379,11.813 10.879,24.415 2.309,5.293 4.348,9.847 4.524,10.128 0.316,0.493 0.531,0.508 7.387,0.622 7.953,0.132 9.75,0.05 9.941,-0.45 0.176,-0.457 -0.434,-1.863 -7.02,-16.16 -9.796,-21.265 -14.398,-31.949 -14.687,-34.101 -0.098,-0.735 0.051,-1.215 0.785,-2.543 3.379,-6.102 17.731,-30.379 19.625,-33.188 0.484,-0.719 0.801,-1.379 0.703,-1.465 -0.406,-0.363 -6.133,-0.699 -11.828,-0.699 z m -133.406,0.024 c -0.356,-0.008 -0.805,-0.004 -1.379,0.007 -0.762,0.012 -1.75,0.043 -3.035,0.086 -3.012,0.094 -6.254,0.242 -7.203,0.324 l -1.723,0.157 -0.16,9.359 c -0.746,43.344 -0.863,47.426 -1.516,52.465 -0.375,2.875 -1.058,4.777 -2.465,6.848 -1.312,1.933 -2.914,3.347 -4.816,4.25 -1.414,0.668 -1.844,0.757 -3.645,0.754 -2.859,-0.004 -4.648,-0.856 -7.175,-3.418 -2.008,-2.028 -3.168,-3.957 -3.731,-6.207 -0.734,-2.911 -1.008,-12.563 -1.48,-51.762 -0.129,-10.621 -0.2,-12.242 -0.528,-12.571 -0.328,-0.328 -1.047,-0.355 -5.91,-0.199 -3.043,0.098 -6.238,0.246 -7.094,0.328 l -1.562,0.153 -0.188,7.199 c -0.312,12.082 -0.054,44.047 0.403,49.68 0.804,9.89 1.898,14.527 4.722,20.039 3.454,6.738 9.598,11.281 17.145,12.683 0.66,0.125 2.586,0.235 4.281,0.25 9.246,0.082 17.082,-4.027 22.125,-11.601 3.934,-5.903 5.199,-10.309 5.867,-20.41 0.274,-4.118 0.641,-20.524 0.95,-42.481 l 0.218,-15.117 -0.523,-0.449 c -0.274,-0.239 -0.508,-0.348 -1.578,-0.367 z m 166.746,0 c -0.359,-0.008 -0.809,-0.004 -1.375,0.007 -0.758,0.016 -1.727,0.043 -2.973,0.082 -3.019,0.098 -6.265,0.246 -7.215,0.328 l -1.722,0.157 -0.188,31.199 c -0.234,38.449 -0.152,55.699 0.27,56.461 l 0.297,0.547 7.371,-0.067 7.367,-0.062 0.062,-43.961 c 0.059,-41.055 0.036,-43.988 -0.347,-44.371 -0.207,-0.207 -0.469,-0.305 -1.547,-0.32 z m -107.746,0.011 c -2.586,-0.031 -7.309,0.008 -16.043,0.09 -10.371,0.098 -21.934,0.242 -25.699,0.324 l -6.836,0.149 v 16.078 l 3.718,0.18 c 2.047,0.097 6.039,0.261 8.879,0.359 l 5.16,0.184 0.063,35.261 c 0.055,32.5 0.09,35.297 0.461,35.703 0.371,0.414 0.875,0.438 7.859,0.379 l 7.457,-0.066 0.121,-35.641 0.122,-35.636 8.945,-0.122 c 7.605,-0.101 8.984,-0.175 9.18,-0.48 0.128,-0.207 0.226,-3.684 0.23,-8.203 0,-7.024 -0.039,-7.887 -0.398,-8.246 -0.188,-0.184 -0.637,-0.282 -3.219,-0.313 z m 252.14,66.563 c -1.55,0 -2.152,0.113 -3.121,0.586 -2.511,1.23 -4.609,4.113 -5.425,7.453 -0.493,2 -0.387,5.531 0.23,7.754 1.105,3.972 2.723,6.218 5.438,7.539 1.964,0.957 3.148,0.972 5.515,0.062 2.656,-1.019 4.852,-3.836 5.801,-7.433 0.504,-1.918 0.559,-5.848 0.109,-7.684 -0.8,-3.25 -2.883,-6.203 -5.343,-7.57 -1.122,-0.617 -1.528,-0.707 -3.204,-0.707 z"
       style="fill:#030303;fill-opacity:1;fill-rule:nonzero;stroke:none"
       transform="scale(1.3333333)" />
  </g>
</svg>
