<?xml version="1.0" encoding="UTF-8" standalone="no"?>
<!-- Created with Inkscape (http://www.inkscape.org/) -->

<svg
   version="1.1"
   id="svg1"
   width="1122.5197"
   height="793.70074"
   viewBox="0 0 1122.5197 793.70074"
   xmlns="http://www.w3.org/2000/svg"
   xmlns:svg="http://www.w3.org/2000/svg">
  <defs
     id="defs1" />
  <g
     id="g1">
    <path
       id="path1"
       d="m 28.578,397.051 c -4.125,-2.129 -3.957,1.363 -3.988,-83.949 -0.027,-86.336 -0.223,-82.481 4.262,-84.391 1.574,-0.672 91.593,-0.871 388.546,-0.871 332.149,0 386.797,0.144 388.649,1.039 1.187,0.574 2.578,1.91 3.094,2.969 1.355,2.777 1.355,159.437 0,162.215 -0.516,1.058 -1.907,2.394 -3.094,2.964 -3.117,1.508 -774.555,1.532 -777.469,0.024 z m 256.418,-8.848 1.93,-1.801 V 239.504 l -1.93,-1.801 -1.926,-1.801 H 37.059 l -1.926,1.801 -1.93,1.801 v 146.898 l 1.93,1.801 1.926,1.805 H 283.07 Z M 175.383,370.191 c 0,-0.402 0.351,-0.734 0.785,-0.734 0.434,0 0.785,0.332 0.785,0.734 0,0.407 -0.351,0.735 -0.785,0.735 -0.434,0 -0.785,-0.328 -0.785,-0.735 z m -66.77,-0.652 c 0,-0.398 0.356,-0.93 0.785,-1.18 0.434,-0.25 0.786,-2.066 0.786,-4.039 0,-1.968 -0.352,-3.785 -0.786,-4.035 -1.875,-1.082 -0.48,-1.832 3.407,-1.832 4.82,0 5.496,0.36 4.226,2.262 -0.672,1.004 -0.683,1.586 -0.043,2.183 1.282,1.2 5.766,-1.132 5.766,-3 0,-1.246 0.539,-1.445 3.926,-1.445 4.34,0 4.945,0.809 1.965,2.633 -2.61,1.598 -2.485,2.512 0.785,5.656 1.511,1.453 2.75,2.824 2.75,3.047 0,0.223 -2.16,0.402 -4.801,0.402 -4.664,0 -4.785,-0.046 -4.328,-1.75 0.676,-2.503 -1.27,-3.875 -3.906,-2.753 -1.418,0.601 -1.918,1.316 -1.743,2.492 0.227,1.519 -0.101,1.664 -4.273,1.867 -2.617,0.125 -4.516,-0.086 -4.516,-0.508 z m 29.805,-0.238 c -0.895,-0.309 -1.531,-1.223 -1.535,-2.203 -0.008,-0.922 -0.231,-2.442 -0.5,-3.375 -0.457,-1.59 -0.289,-1.688 2.562,-1.469 2.825,0.215 3.082,0.426 3.446,2.793 0.269,1.746 0.863,2.644 1.871,2.824 1.941,0.348 2.949,-1.226 2.386,-3.734 -0.429,-1.907 -0.3,-2.016 2.383,-2.016 3.039,0 3.196,0.195 3.895,4.883 l 0.457,3.051 -6.719,-0.114 c -3.699,-0.062 -7.41,-0.351 -8.246,-0.64 z m 20.211,-4.797 0.168,-5.684 2.406,-0.23 c 2.817,-0.27 2.93,-0.047 3.422,6.648 l 0.363,4.953 h -6.531 z m 10.711,3.855 -2.207,-1.836 2.207,-1.835 c 3.281,-2.731 4.078,-2.372 4.078,1.835 0,4.207 -0.797,4.567 -4.078,1.836 z m 9.578,-1.836 c 0,-3.832 0.309,-4.156 2.781,-2.918 2.715,1.356 3.344,3.43 1.555,5.102 -0.871,0.816 -2.207,1.484 -2.961,1.484 -1.129,0 -1.375,-0.664 -1.375,-3.668 z m 12.176,2.454 c 0,-0.668 -0.887,-2.297 -1.965,-3.618 -1.082,-1.324 -1.965,-2.593 -1.965,-2.824 0,-0.226 1.414,-0.414 3.145,-0.414 2.5,0 3.14,0.27 3.14,1.32 0,1.383 1.41,3.082 2.555,3.082 0.367,0 1.039,-0.992 1.492,-2.203 0.719,-1.925 1.195,-2.199 3.809,-2.199 2.613,0 3.09,0.274 3.808,2.199 0.453,1.211 1.379,2.203 2.063,2.203 0.746,0 1.426,-0.871 1.707,-2.203 0.371,-1.726 0.887,-2.199 2.402,-2.199 1.063,0 1.809,0.246 1.653,0.551 -3.551,6.98 -4.051,7.519 -6.95,7.519 -2.289,0 -3.039,-0.367 -3.754,-1.832 -0.492,-1.011 -1.425,-1.836 -2.078,-1.836 -0.648,0 -1.398,0.825 -1.672,1.836 -0.429,1.606 -0.918,1.832 -3.941,1.832 -2.688,0 -3.449,-0.265 -3.449,-1.214 z m -15.711,-6.122 c 0,-0.406 0.351,-0.734 0.785,-0.734 0.434,0 0.785,0.328 0.785,0.734 0,0.403 -0.351,0.735 -0.785,0.735 -0.434,0 -0.785,-0.332 -0.785,-0.735 z M 67.129,343.73 c 0.152,-0.425 6.809,-4.66 14.793,-9.406 l 14.516,-8.629 0.207,-22.433 0.207,-22.438 -14.934,-8.957 c -8.215,-4.929 -14.938,-9.258 -14.938,-9.621 0,-0.383 20.208,-0.66 48.309,-0.66 30.887,0 48.309,0.258 48.309,0.715 0,0.394 -4.77,4.402 -10.602,8.906 l -10.605,8.188 v 10.867 c 0,6.582 0.316,11.047 0.8,11.328 1.055,0.609 49.551,-22.531 49.223,-23.488 -0.141,-0.407 -4.562,-3.965 -9.824,-7.914 -5.258,-3.946 -9.563,-7.497 -9.563,-7.887 0,-0.457 16.727,-0.715 46.016,-0.715 31.289,0 45.934,0.242 45.75,0.758 -0.148,0.418 -12.641,6.992 -27.758,14.617 -17.5,8.824 -27.484,14.258 -27.484,14.969 0,0.609 6.629,8.347 14.726,17.195 l 14.723,16.082 14.145,9.066 c 7.777,4.985 14.144,9.329 14.144,9.653 0,0.32 -21.742,0.582 -48.312,0.582 -26.567,0 -48.309,-0.281 -48.309,-0.629 0,-0.348 5.305,-4.18 11.785,-8.52 6.481,-4.339 11.781,-8.386 11.781,-8.992 0,-0.609 -3.593,-4.949 -7.988,-9.644 -4.394,-4.696 -8.266,-8.836 -8.601,-9.2 -0.344,-0.371 -8.028,2.497 -17.559,6.547 -14.02,5.965 -17.027,7.508 -17.414,8.946 -0.594,2.214 -0.012,2.8 12.375,12.472 5.519,4.309 9.855,8.102 9.637,8.426 -0.618,0.938 -97.891,0.754 -97.555,-0.184 z m 732.383,44.473 1.926,-1.801 V 239.504 l -1.926,-1.801 -1.93,-1.801 H 568.855 l -1.929,1.801 -1.926,1.801 v 146.898 l 1.926,1.801 1.929,1.805 H 797.582 Z M 691.27,377.48 c -1.723,-0.949 -1.754,-1.859 -0.082,-2.457 0.722,-0.257 1.925,0.075 2.734,0.754 1.344,1.137 1.473,1.137 1.957,-0.039 0.363,-0.886 -0.559,-2.273 -3.125,-4.711 -2.004,-1.898 -3.645,-3.691 -3.645,-3.98 0,-0.285 1.395,-0.524 3.102,-0.524 2.605,0 3.262,0.321 4.133,2.02 1.293,2.516 3.152,2.605 3.758,0.184 0.328,-1.313 1.066,-1.903 2.589,-2.067 1.172,-0.129 2.129,-0.066 2.129,0.141 0,0.758 -5.457,9.051 -6.445,9.793 -1.613,1.219 -5.602,1.715 -7.105,0.886 z m -14.727,-2.886 c 0,-0.403 0.352,-0.731 0.785,-0.731 0.43,0 0.785,0.328 0.785,0.731 0,0.406 -0.355,0.734 -0.785,0.734 -0.433,0 -0.785,-0.328 -0.785,-0.734 z m -32.992,-0.571 c 0,-0.394 0.531,-1.125 1.176,-1.628 1.339,-1.036 1.64,-6.985 0.394,-7.707 -0.433,-0.247 -0.785,-0.797 -0.785,-1.219 0,-0.504 3.336,-0.676 9.793,-0.508 7.805,0.207 10.055,0.508 11.09,1.477 1.211,1.128 1.187,1.308 -0.36,2.542 l -1.66,1.329 2.153,1.625 c 2.074,1.562 2.101,1.679 0.753,2.961 -1.187,1.128 -3.023,1.375 -11.976,1.589 -6.539,0.157 -10.578,-0.019 -10.578,-0.461 z m 16.101,-3.097 c 0,-1.297 -5.644,-1.992 -6.867,-0.848 -1.441,1.348 0.301,2.395 3.602,2.172 2.273,-0.156 3.265,-0.559 3.265,-1.324 z m 0,-4.77 c 0,-0.836 -4.672,-1.414 -6.406,-0.789 -0.637,0.227 -0.922,0.762 -0.641,1.192 0.641,0.968 7.047,0.601 7.047,-0.403 z m 10.844,6.606 -2.203,-1.836 2.203,-1.832 c 3.281,-2.735 4.082,-2.375 4.082,1.832 0,4.207 -0.801,4.566 -4.082,1.836 z m 9.582,-1.836 c 0,-3.832 0.309,-4.156 2.781,-2.918 2.711,1.355 3.344,3.433 1.555,5.101 -0.871,0.817 -2.207,1.485 -2.961,1.485 -1.129,0 -1.375,-0.66 -1.375,-3.668 z m 28.672,3.062 c 0,-0.332 0.883,-1.379 1.961,-2.328 1.082,-0.949 1.965,-2.16 1.965,-2.695 0,-1.176 -1.715,-1.281 -2.895,-0.176 -1.015,0.945 -2.211,-0.344 -1.426,-1.531 0.543,-0.82 12.961,-1.031 12.961,-0.219 0,0.285 -1.117,1.594 -2.488,2.91 -2.219,2.141 -2.332,2.453 -1.074,2.903 0.777,0.281 2.059,0.132 2.844,-0.329 1.519,-0.882 2.781,0.004 1.898,1.34 -0.582,0.875 -13.746,1 -13.746,0.125 z m -32.207,-6.73 c 0,-0.403 0.352,-0.735 0.785,-0.735 0.43,0 0.785,0.332 0.785,0.735 0,0.402 -0.355,0.734 -0.785,0.734 -0.433,0 -0.785,-0.332 -0.785,-0.734 z m -87.195,-23.41 c 0,-0.364 6.718,-4.688 14.925,-9.614 l 14.926,-8.953 v -21.886 c 0,-17.508 -0.215,-22.09 -1.07,-22.891 -0.59,-0.551 -7.305,-4.731 -14.926,-9.293 -7.621,-4.563 -13.855,-8.594 -13.855,-8.957 0,-0.941 127,-0.863 137.691,0.086 14.406,1.273 24.188,5.07 31.086,12.062 7.301,7.399 5.551,15.34 -4.508,20.453 -4.277,2.176 -15.687,5.145 -23.07,6.004 -2.484,0.286 -4.516,0.758 -4.516,1.047 0,0.285 2.914,0.93 6.481,1.43 16.422,2.301 26.418,5.871 31.859,11.387 9.516,9.644 3.231,21.355 -14.223,26.507 -4.371,1.29 -9.519,2.102 -16.242,2.563 -12.871,0.879 -144.558,0.93 -144.558,0.055 z m 122.933,-15.555 c 4.758,-1.211 7.465,-3.961 7.461,-7.586 -0.004,-4.191 -2.293,-7.332 -6.41,-8.789 -2.922,-1.035 -6.574,-1.176 -25.793,-1 l -22.387,0.203 -0.226,8.024 c -0.121,4.414 -0.043,8.457 0.172,8.988 0.515,1.25 42.34,1.39 47.183,0.16 z m -1.238,-34.848 c 3.941,-1.472 5.559,-3.781 5.559,-7.925 0,-4.227 -2.598,-7.258 -7.243,-8.45 -2.285,-0.586 -9.902,-0.797 -23.785,-0.652 l -20.422,0.211 -0.226,8.027 c -0.121,4.414 -0.043,8.457 0.172,8.989 0.64,1.554 41.726,1.375 45.945,-0.2 z m -292.152,81.149 c 0,-0.403 -0.528,-0.731 -1.176,-0.731 -0.649,0 -1.18,0.328 -1.18,0.731 0,0.406 0.531,0.734 1.18,0.734 0.648,0 1.176,-0.328 1.176,-0.734 z m -31.93,-1.692 c 3.359,-2.058 4.074,-4.031 2.285,-6.285 -2.18,-2.746 -5.793,-3.676 -14.492,-3.722 -7.66,-0.04 -9.461,0.496 -7.305,2.168 1.328,1.031 1.625,6.98 0.383,7.699 -0.43,0.25 -0.785,0.804 -0.785,1.234 0,1.352 17.488,0.391 19.914,-1.094 z m -11.727,-1.496 c -0.242,-0.59 -0.328,-2.179 -0.191,-3.527 0.23,-2.234 0.508,-2.477 3.07,-2.676 3.461,-0.273 4.844,1.074 4.504,4.391 -0.238,2.297 -0.441,2.445 -3.597,2.66 -2.379,0.16 -3.473,-0.086 -3.786,-0.848 z m 25.243,-0.125 c -0.176,-3.918 -1.063,-4.957 -3.942,-4.633 -1.976,0.227 -2.144,0.516 -2.347,4.094 l -0.215,3.852 h 6.652 z m 14.023,1.481 c -0.48,-1.797 -0.395,-1.836 3.973,-1.836 3.718,0 4.422,-0.199 4.207,-1.203 -0.137,-0.664 -0.891,-1.575 -1.672,-2.02 -1.125,-0.64 -1.637,-0.543 -2.445,0.473 -1.254,1.574 -2.708,1.656 -3.313,0.183 -0.25,-0.605 -1.121,-1.101 -1.941,-1.101 -1.571,0 -4.629,2.426 -4.629,3.668 0,1.281 3.082,3.668 4.73,3.668 1.297,0 1.496,-0.328 1.09,-1.832 z m 16.176,0.457 c 0,-3.332 -1.024,-5.961 -2.324,-5.961 -1.852,0 -2.528,0.793 -1.586,1.851 0.543,0.614 0.422,1.172 -0.403,1.809 -1.59,1.234 -1.5,2.758 0.188,3.172 2.988,0.73 4.125,0.492 4.125,-0.871 z m 9.554,-1.926 c -0.148,-1.613 -0.515,-3.18 -0.82,-3.477 -1.004,-0.992 -7.949,-1.566 -7.949,-0.66 0,0.461 0.57,0.836 1.269,0.836 0.875,0 1.145,0.446 0.868,1.442 -0.559,1.996 2.851,5.332 5.14,5.027 1.535,-0.203 1.723,-0.598 1.492,-3.168 z m 11.208,-0.203 c 0.179,-3.582 -0.868,-4.781 -3.895,-4.438 -1.922,0.219 -2.094,0.532 -2.297,4.129 l -0.219,3.891 3.125,-0.223 c 3.094,-0.219 3.129,-0.254 3.286,-3.359 z m 9.871,0.57 c 0.3,-1.957 0.769,-2.566 1.964,-2.566 1.2,0 1.665,0.609 1.965,2.566 0.364,2.367 0.625,2.586 3.383,2.801 l 2.992,0.227 -0.515,-2.797 c -0.836,-4.543 -4.535,-6.606 -7.821,-4.36 -1.25,0.852 -1.875,0.848 -4.132,-0.035 -2.59,-1.008 -5.688,-0.758 -5.688,0.465 0,0.336 0.555,0.809 1.234,1.051 0.77,0.277 1.184,1.211 1.098,2.465 -0.223,3.128 -0.141,3.226 2.574,2.98 2.258,-0.203 2.602,-0.527 2.946,-2.797 z m -53.614,-2.742 c 0.5,-1.402 -3.523,-2.879 -4.73,-1.738 -0.758,0.718 -0.633,1.136 0.594,1.984 1.765,1.215 3.656,1.102 4.136,-0.246 z m 9.625,-1.66 c 0,-0.403 -0.351,-0.735 -0.785,-0.735 -0.43,0 -0.785,0.332 -0.785,0.735 0,0.402 0.355,0.734 0.785,0.734 0.434,0 0.785,-0.332 0.785,-0.734 z m 40.707,-21.563 c 11.016,-1.718 20.438,-4.347 28.418,-7.929 5.434,-2.438 7.934,-4.176 13.414,-9.317 7.25,-6.804 9.676,-10.605 10.985,-17.23 2.773,-14.012 -10.563,-30.91 -31.59,-40.031 -8.176,-3.543 -15.434,-5.083 -28.09,-5.946 -12.855,-0.883 -126.301,-0.933 -126.875,-0.062 -0.242,0.363 6.188,4.593 14.289,9.406 l 14.723,8.742 0.207,22.414 0.211,22.414 -14.942,8.973 c -8.218,4.934 -14.726,9.297 -14.464,9.695 0.308,0.465 22.5,0.617 63.042,0.43 54.575,-0.258 63.602,-0.457 70.672,-1.559 z m -58.414,-16.05 c -0.211,-0.508 -0.289,-11.985 -0.172,-25.5 l 0.207,-24.579 14.532,-0.211 c 17.207,-0.25 23.281,0.543 30.648,3.985 6.082,2.844 8.742,5.406 11.699,11.269 1.821,3.61 2.036,4.922 2.036,12.473 0,7.254 -0.254,8.953 -1.809,12.102 -3.102,6.289 -6.887,8.964 -14.922,10.558 -6.07,1.203 -41.719,1.117 -42.219,-0.097 z"
       style="fill:#080808;fill-opacity:1;fill-rule:nonzero;stroke:none"
       transform="scale(1.3333333)" />
  </g>
</svg>
