<?xml version="1.0" encoding="UTF-8" standalone="no"?>
<!-- Created with Inkscape (http://www.inkscape.org/) -->

<svg
   version="1.1"
   id="svg1"
   width="1122.5197"
   height="793.70074"
   viewBox="0 0 1122.5197 793.70074"
   xmlns="http://www.w3.org/2000/svg"
   xmlns:svg="http://www.w3.org/2000/svg">
  <defs
     id="defs1" />
  <g
     id="g1">
    <path
       id="path1"
       d="m 287.613,433.367 c -6.328,-0.984 -10.968,-3.379 -14.222,-7.347 -2.141,-2.61 -3.203,-5.422 -3.203,-8.489 0,-4.539 1.609,-8.117 5.343,-11.89 l 2.102,-2.125 -0.778,-0.664 c -3.5,-2.989 -4.988,-6.094 -4.988,-10.403 0,-7.746 3.809,-11.82 12.543,-13.418 0.891,-0.164 1.617,-0.406 1.617,-0.539 0,-0.133 -0.597,-0.89 -1.332,-1.683 -3.804,-4.106 -6.476,-9.45 -8.015,-16.024 -2.598,-11.101 -2.742,-28.687 -0.332,-40.555 2.289,-11.285 7.422,-18.773 14.48,-21.128 1.887,-0.629 6.465,-0.914 8.313,-0.516 1.988,0.426 3.879,1.227 5.476,2.32 0.828,0.567 1.606,0.961 1.731,0.875 0.121,-0.086 0.535,-0.695 0.91,-1.355 1.758,-3.063 3.801,-5.137 6.14,-6.223 1.079,-0.504 1.672,-0.613 3.364,-0.613 1.73,-0.004 2.25,0.094 3.301,0.617 2.757,1.375 4.035,4.113 3.835,8.231 -0.128,2.714 -0.738,4.226 -2.168,5.382 -1.886,1.528 -4.73,0.918 -5.937,-1.273 -0.52,-0.949 -0.609,-1.465 -0.719,-4.281 -0.14,-3.614 -0.277,-3.879 -1.976,-3.879 -1.321,0 -2.793,1.426 -4.035,3.91 -0.891,1.777 -0.938,1.961 -0.602,2.426 5.559,7.695 8.535,20.324 8.523,36.144 -0.019,22.086 -6.269,36.66 -17.156,40 -1.281,0.391 -2.18,0.43 -8.16,0.363 -8.348,-0.093 -10.508,0.192 -12.75,1.7 -2.313,1.554 -2.898,3.5 -1.523,5.07 1.429,1.625 1.671,1.656 14.515,1.844 11.914,0.176 13.031,0.269 16.309,1.332 6.922,2.242 10.539,7.797 11.082,17.012 0.293,5 -0.586,9.738 -2.531,13.679 -3.145,6.36 -8.754,10.238 -16.661,11.52 -2.761,0.449 -9.558,0.437 -12.496,-0.02 z m 14.285,-5.867 c 7.196,-1.465 12.707,-5.664 14,-10.664 0.477,-1.84 0.473,-3.891 -0.015,-5.34 -1.442,-4.301 -5.961,-5.578 -19.774,-5.586 -5.781,-0.004 -10.875,-0.262 -14.379,-0.73 -2.128,-0.285 -2.367,-0.172 -3.929,1.859 -4.168,5.422 -4.028,10.766 0.398,15.234 3.332,3.364 7.141,5.047 12.899,5.696 2.886,0.328 7.98,0.105 10.8,-0.469 z m -4.203,-48.863 c 0.453,-0.215 1.055,-0.715 1.336,-1.11 1.164,-1.632 1.149,-1.175 1.153,-37.5 0,-20.117 -0.09,-34.644 -0.223,-35.457 -0.473,-2.871 -1.547,-4.05 -3.856,-4.218 -2.636,-0.188 -4.25,1.332 -4.792,4.515 -0.188,1.102 -0.243,11.395 -0.192,35.039 0.067,31.149 0.102,33.582 0.496,34.922 1.02,3.469 3.512,5.027 6.078,3.809 z M 569.59,400.27 c -4.527,-0.997 -8.188,-3.512 -10.746,-7.383 -4.699,-7.102 -8.071,-21.067 -9.582,-39.66 -0.438,-5.352 -0.438,-39.817 -0.004,-44.879 0.875,-10.203 2.281,-19.571 3.93,-26.141 2.703,-10.793 7.042,-18.34 12.652,-22.019 2.965,-1.946 6.836,-2.778 9.93,-2.133 3.472,0.722 7,3.476 9.777,7.633 0.726,1.082 1.449,1.945 1.605,1.914 0.153,-0.028 1.86,-2.133 3.789,-4.676 3.446,-4.531 4.168,-5.207 4.539,-4.238 0.282,0.726 0.168,54.453 -0.117,55.265 -0.32,0.922 -1.222,1.242 -1.867,0.66 -0.387,-0.351 -0.449,-1.05 -0.586,-6.808 -0.234,-9.703 -1.058,-16.129 -3.16,-24.672 -1.426,-5.781 -2.68,-9.383 -4.676,-13.426 -2.219,-4.492 -4.289,-7.113 -6.488,-8.219 -4.762,-2.39 -8.695,-0.238 -9.586,5.239 -0.355,2.211 -0.348,123.687 0.008,125.628 0.707,3.813 2.898,5.563 6.687,5.344 2.914,-0.168 4.973,-1.273 7.934,-4.254 1.254,-1.265 2.633,-2.902 3.062,-3.636 1.696,-2.895 3.672,-8.735 4.739,-14.012 1.179,-5.82 1.351,-8.18 1.468,-20.051 0.059,-6.137 0.161,-11.398 0.223,-11.691 0.149,-0.715 0.926,-1.121 1.52,-0.801 0.879,0.469 0.988,1.5 0.984,9.348 -0.008,15.964 -0.875,23.757 -3.48,31.207 -2.512,7.191 -6.68,12.656 -11.454,15.011 -1.222,0.602 -2.98,1.254 -3.902,1.45 -2.055,0.425 -5.266,0.429 -7.203,0 z m -240.707,-0.415 c -0.332,-0.476 -0.375,-2.992 -0.371,-22.382 0.004,-23.45 -0.016,-23.047 1.195,-23.047 0.809,0 1.125,0.75 1.313,3.094 1.109,14.043 3.543,24.984 7.207,32.425 3.105,6.313 7.211,8.274 10.765,5.145 2.207,-1.945 2.922,-4.313 2.731,-9.078 -0.297,-7.614 -2.77,-15.078 -11.457,-34.586 -5.782,-12.988 -7.965,-18.555 -9.328,-23.805 -2.86,-11.008 -1.497,-19.344 4.062,-24.902 2.855,-2.856 5.586,-4.102 9.367,-4.274 3.813,-0.175 6.414,0.735 9.731,3.407 0.906,0.73 1.773,1.332 1.922,1.332 0.148,0.004 1.285,-0.911 2.519,-2.024 2.723,-2.457 3.609,-3 4.152,-2.547 0.336,0.282 0.379,2.414 0.379,20.516 0,15.394 -0.07,20.269 -0.289,20.488 -0.386,0.391 -1.269,0.367 -1.605,-0.039 -0.153,-0.18 -0.485,-2.527 -0.746,-5.219 -0.989,-10.273 -2.223,-17.007 -4.239,-23.132 -2.148,-6.524 -4.832,-9.719 -8.152,-9.719 -2.512,0 -4.383,1.199 -5.535,3.547 -1.539,3.129 -0.621,8.765 2.926,17.933 1.629,4.219 3.488,8.301 7.925,17.399 7.61,15.605 10.305,22.828 11.786,31.558 0.597,3.532 0.558,9.621 -0.082,12.606 -0.985,4.605 -2.911,8.219 -5.946,11.156 -2.015,1.953 -3.703,3.023 -6.164,3.906 -1.527,0.547 -2.129,0.629 -4.519,0.621 -4.715,-0.015 -6.985,-1.238 -10.809,-5.808 l -1.074,-1.285 -0.649,0.511 c -0.355,0.282 -1.621,1.743 -2.812,3.246 -2.84,3.586 -3.457,4.02 -4.203,2.957 z m 59.512,0.274 c -4.942,-0.824 -8.161,-3.723 -10.063,-9.063 -1.391,-3.902 -1.344,-2.187 -1.344,-47.304 0,-31.91 -0.066,-41.504 -0.289,-41.727 -0.183,-0.183 -1.129,-0.289 -2.636,-0.289 -2.036,0 -2.418,-0.062 -2.833,-0.48 -0.265,-0.262 -0.48,-0.614 -0.48,-0.778 0,-0.465 0.891,-1.383 3.18,-3.289 2.968,-2.469 6.41,-6.168 8.129,-8.738 1.597,-2.387 4.203,-7.578 5.617,-11.195 2.519,-6.446 3.711,-11.118 3.711,-14.532 0,-1.273 0.105,-1.855 0.379,-2.129 0.492,-0.496 0.722,-0.476 1.304,0.102 0.469,0.473 0.477,0.801 0.477,19.559 v 19.082 h 7.148 c 6.078,0 7.227,0.054 7.68,0.371 0.566,0.398 0.672,0.957 0.301,1.547 -0.192,0.304 -1.403,0.379 -7.617,0.48 l -7.391,0.121 -0.063,44.399 c -0.042,31.734 0.016,44.769 0.204,45.691 0.183,0.883 0.515,1.559 1.066,2.16 0.73,0.797 0.902,0.867 2.074,0.852 1.621,-0.02 2.875,-0.66 4.301,-2.184 1.461,-1.558 2.207,-2.89 3.074,-5.48 1.399,-4.18 1.528,-5.5 1.684,-16.953 0.133,-9.852 0.168,-10.504 0.597,-10.981 0.637,-0.703 1.481,-0.644 1.997,0.145 0.851,1.293 0.644,16.988 -0.297,22.871 -0.7,4.351 -2.071,8.281 -3.742,10.726 -1.793,2.617 -4.567,5.008 -7.047,6.071 -2.442,1.046 -6.196,1.437 -9.121,0.945 z m 45.714,-0.086 c -5.222,-1.109 -8.714,-3.805 -11.902,-9.176 -3.082,-5.203 -4.824,-11.527 -5.605,-20.359 -0.969,-10.938 -1.297,-28.324 -0.727,-38.641 0.781,-14.066 4.063,-23.582 10.09,-29.25 3.152,-2.969 6.39,-4.219 10.926,-4.226 4.718,-0.008 8.246,1.425 11.511,4.672 1.063,1.058 2.352,2.562 2.86,3.343 3.25,4.985 5.519,12.012 6.75,20.903 0.519,3.742 0.777,32.875 0.351,39.476 -1.226,19.016 -6.554,29.981 -15.976,32.875 -2.157,0.664 -6.098,0.848 -8.278,0.383 z m 5.543,-2.836 c 1.172,-0.777 1.868,-2.359 2.153,-4.883 0.148,-1.355 0.211,-17.41 0.172,-43.898 l -0.067,-41.758 -0.555,-1.629 c -0.984,-2.91 -3.214,-4.582 -5.347,-4.008 -1.996,0.539 -3.207,2.282 -3.59,5.176 -0.172,1.289 -0.227,15.203 -0.168,43.301 0.082,38.656 0.113,41.519 0.512,43.187 0.879,3.688 2.136,5.032 4.73,5.043 1.004,0.008 1.555,-0.129 2.16,-0.531 z m 207.235,2.941 c -4.09,-0.742 -6.789,-2.621 -8.36,-5.824 -1.3,-2.656 -1.23,-0.246 -1.371,-47.937 l -0.129,-44.52 -1.668,-0.074 c -1.836,-0.078 -2.289,-0.305 -2.289,-1.137 0,-1.32 -0.082,-1.308 10.567,-1.308 9.457,0 9.824,0.015 10.062,0.465 0.168,0.312 0.25,15.464 0.25,47.277 0,46.297 0.004,46.824 0.473,47.293 2.574,2.574 7.348,-2.746 8.523,-9.508 0.313,-1.789 0.364,-7.566 0.364,-42.453 0,-36.602 -0.036,-40.399 -0.379,-40.527 -0.211,-0.082 -1.106,-0.149 -1.992,-0.149 -1.723,0 -2.188,-0.234 -2.188,-1.109 0,-1.301 -0.078,-1.289 10.754,-1.285 5.504,0 10.141,0.089 10.305,0.191 0.238,0.152 0.312,10.25 0.359,48.656 l 0.062,48.469 1.758,0.117 c 1.375,0.094 1.836,0.223 2.102,0.586 0.449,0.621 0.426,0.942 -0.102,1.422 -0.402,0.363 -1.398,0.395 -10.5,0.336 l -10.058,-0.063 -0.067,-3.3 c -0.039,-1.813 -0.16,-3.297 -0.269,-3.297 -0.11,0 -0.477,0.414 -0.813,0.922 -1.062,1.605 -3.359,3.925 -4.836,4.882 -0.781,0.504 -2.132,1.141 -3,1.411 -1.797,0.558 -5.711,0.8 -7.558,0.464 z m 46.898,-0.003 c -0.312,-0.192 -0.371,-8.559 -0.476,-69.29 l -0.121,-69.066 -1.79,-0.074 c -0.984,-0.039 -1.929,-0.188 -2.097,-0.328 -0.41,-0.34 -0.399,-1.508 0.015,-1.852 0.235,-0.195 3.192,-0.254 10.5,-0.211 l 10.172,0.063 0.121,22.562 c 0.067,12.406 0.188,22.559 0.274,22.559 0.086,0 0.637,-0.649 1.219,-1.442 1.41,-1.906 2.836,-3.156 4.476,-3.925 1.164,-0.547 1.668,-0.633 3.629,-0.633 2.055,0 2.438,0.074 3.856,0.746 2.679,1.269 5.554,4.309 7.253,7.668 2.286,4.523 4.368,13.332 5.262,22.305 0.434,4.363 0.434,34.73 0,39.121 -1.476,14.851 -5.207,24.578 -11.144,29.043 -1.965,1.476 -2.973,1.972 -5.164,2.531 -4.051,1.035 -7.454,0.219 -10.297,-2.473 -1.602,-1.511 -3.446,-5.121 -4.993,-9.781 -0.593,-1.777 -1.187,-3.273 -1.324,-3.316 -0.136,-0.047 -0.644,0.816 -1.133,1.914 -1.105,2.511 -4.226,8.636 -5.679,11.156 -1.301,2.254 -2.043,3.043 -2.559,2.723 z m 22.867,-3.082 c 0.879,-0.508 1.715,-1.766 2.258,-3.395 0.418,-1.258 0.442,-3.395 0.512,-44.402 0.051,-31.731 0,-43.332 -0.203,-44.039 -0.832,-2.911 -3.824,-3.332 -6.051,-0.856 -1.242,1.383 -1.957,3.109 -2.527,6.117 -0.379,2.008 -0.411,5.387 -0.411,43.121 v 40.938 l 0.684,0.988 c 1.438,2.074 3.731,2.684 5.738,1.528 z m -604.945,1.964 c -0.086,-0.089 -0.16,-0.515 -0.16,-0.953 0,-1.101 0.492,-1.285 3.441,-1.285 2.067,0 2.535,-0.07 2.657,-0.383 0.265,-0.699 0.164,-133.769 -0.106,-134.273 -0.223,-0.418 -0.523,-0.465 -3.082,-0.465 -2.559,0 -2.879,-0.047 -3.285,-0.496 -0.41,-0.453 -0.418,-0.551 -0.086,-1.141 l 0.359,-0.644 15.633,-0.063 c 13.977,-0.054 15.672,-0.019 16.012,0.321 0.461,0.457 0.496,1.386 0.062,1.746 -0.175,0.144 -1.57,0.289 -3.179,0.328 l -2.864,0.07 -0.062,33.348 c -0.039,22.211 0.019,33.269 0.18,33.109 0.234,-0.234 1.515,-3.301 8.277,-19.777 1.816,-4.422 4.785,-11.66 6.605,-16.082 6.489,-15.774 7.016,-17.137 7.465,-19.321 1.02,-4.929 0.137,-8.593 -2.484,-10.328 -0.754,-0.5 -1.508,-0.718 -3.242,-0.941 -2.246,-0.289 -2.688,-0.508 -2.696,-1.352 -0.004,-0.211 0.196,-0.562 0.438,-0.781 0.402,-0.363 1.519,-0.394 12.289,-0.34 l 11.851,0.063 0.368,0.676 c 0.347,0.632 0.34,0.699 -0.16,1.109 -0.372,0.305 -1.149,0.488 -2.586,0.609 -4.723,0.391 -7.317,2.981 -10.95,10.926 -1.242,2.727 -12.41,29.688 -12.793,30.898 -0.152,0.469 1.289,6.145 8.141,32.102 0.977,3.695 2.691,10.231 3.813,14.52 1.117,4.289 2.843,10.878 3.835,14.64 0.989,3.762 3.211,12.242 4.938,18.84 1.727,6.602 3.242,12.242 3.371,12.539 0.215,0.5 0.383,0.543 2.293,0.543 1.133,0 2.27,0.109 2.523,0.246 0.528,0.281 0.633,1.406 0.176,1.863 -0.215,0.219 -3.949,0.29 -15.32,0.29 -14.262,0 -15.055,-0.024 -15.434,-0.438 -0.519,-0.574 -0.5,-0.898 0.082,-1.484 0.43,-0.426 0.801,-0.477 3.36,-0.477 2.07,0 2.883,-0.082 2.883,-0.289 0,-0.156 -1.075,-4.234 -2.387,-9.059 -1.313,-4.824 -5.098,-18.757 -8.414,-30.957 -3.313,-12.199 -6.125,-22.351 -6.246,-22.558 -0.133,-0.231 -0.223,11.914 -0.227,31.242 l -0.008,31.621 h 2.946 c 2.281,0 3.07,0.082 3.48,0.371 0.625,0.438 0.691,1.117 0.156,1.649 -0.332,0.336 -2.121,0.379 -16.039,0.379 -8.613,0 -15.734,-0.071 -15.824,-0.161 z m 71.277,-0.277 c -1,-1.109 -0.214,-1.801 2.219,-1.961 l 1.824,-0.121 0.063,-47.137 c 0.043,-34.636 -0.012,-47.218 -0.211,-47.457 -0.184,-0.222 -0.856,-0.328 -2.113,-0.328 -1.114,0 -1.953,-0.113 -2.129,-0.285 -0.457,-0.457 -0.352,-1.582 0.176,-1.863 0.703,-0.379 20.23,-0.34 20.609,0.039 0.223,0.222 0.285,11.371 0.285,48.718 v 48.434 h 2.059 c 1.129,0 2.261,0.109 2.519,0.246 0.524,0.281 0.633,1.406 0.176,1.863 -0.219,0.219 -3.363,0.29 -12.684,0.29 -11.703,0 -12.418,-0.024 -12.793,-0.438 z m 30.434,-0.145 c -0.297,-0.453 -0.324,-0.695 -0.121,-1.078 0.316,-0.589 0.797,-0.718 3.012,-0.8 l 1.679,-0.059 0.063,-47.137 c 0.043,-33.843 -0.016,-47.222 -0.203,-47.449 -0.172,-0.207 -0.989,-0.34 -2.34,-0.387 l -2.078,-0.066 -0.078,-0.684 c -0.047,-0.402 0.089,-0.867 0.336,-1.14 0.394,-0.438 0.871,-0.457 10.199,-0.457 5.379,0 9.953,0.066 10.164,0.144 0.32,0.125 0.379,0.664 0.379,3.5 0,2.02 0.09,3.324 0.226,3.274 0.125,-0.043 0.969,-0.996 1.875,-2.118 1.961,-2.429 4.41,-4.285 6.715,-5.082 1.434,-0.492 2.059,-0.558 5.344,-0.55 3.285,0.004 3.875,0.07 5.074,0.547 3.152,1.257 5.199,4.14 6.356,8.949 0.398,1.656 0.437,4.676 0.558,45.215 l 0.129,43.441 1.68,0.121 c 0.926,0.063 1.804,0.199 1.953,0.293 0.453,0.297 0.535,1.086 0.168,1.609 -0.34,0.489 -0.5,0.497 -11.567,0.497 -8.402,0 -11.289,-0.071 -11.503,-0.29 -0.161,-0.156 -0.29,-0.585 -0.29,-0.949 0,-0.789 0.571,-1.16 1.782,-1.16 0.683,0 0.875,-0.109 0.98,-0.543 0.074,-0.297 0.102,-20.41 0.067,-44.699 -0.075,-49.371 0.07,-45.5 -1.743,-46.363 -0.738,-0.356 -1.015,-0.371 -1.945,-0.121 -0.598,0.16 -1.379,0.503 -1.734,0.769 -0.989,0.731 -2.164,2.613 -2.789,4.461 -1.246,3.684 -1.219,2.531 -1.219,45.934 v 40.441 l 1.113,0.129 c 1.77,0.203 2.426,1.109 1.449,1.992 -0.394,0.359 -1.57,0.399 -11.875,0.399 h -11.433 z m 251.59,0.325 c -0.231,-0.137 -0.418,-0.492 -0.418,-0.797 0,-0.973 0.68,-1.317 2.765,-1.395 l 1.915,-0.07 v -94.801 l -2.028,-0.07 c -2.191,-0.074 -2.652,-0.277 -2.652,-1.152 0,-1.278 0.258,-1.309 11.062,-1.239 l 9.938,0.063 0.066,3.418 c 0.035,1.883 0.16,3.422 0.278,3.422 0.117,0 0.761,-0.692 1.433,-1.536 3.742,-4.703 7.02,-6.375 12.512,-6.382 3.879,-0.004 6.332,0.793 8.129,2.644 1.195,1.231 2.539,3.813 3.207,6.16 l 0.531,1.871 0.242,87.602 1.676,0.07 c 1.758,0.078 2.524,0.461 2.524,1.27 0,0.234 -0.168,0.594 -0.375,0.801 -0.333,0.332 -1.719,0.379 -11.594,0.379 -11.785,0 -11.793,0 -11.785,-1.067 0.004,-0.855 0.406,-1.183 1.597,-1.32 l 1.157,-0.133 0.07,-44.039 c 0.039,-24.223 0.004,-44.5 -0.074,-45.059 -0.301,-2.144 -2.024,-3.14 -4.071,-2.359 -1.968,0.754 -3.644,3.301 -4.519,6.867 -0.856,3.481 -0.906,6.328 -0.836,45.828 l 0.07,38.762 1.11,0.07 c 0.8,0.055 1.261,0.235 1.652,0.653 0.519,0.55 0.527,0.605 0.148,1.187 l -0.402,0.61 -11.453,-0.008 c -7.332,-0.004 -11.606,-0.094 -11.875,-0.25 z m 136.25,-0.325 c -0.297,-0.453 -0.324,-0.695 -0.121,-1.078 0.316,-0.589 0.797,-0.718 3.011,-0.8 l 1.68,-0.059 V 261.789 l -2.031,-0.07 c -1.457,-0.051 -2.156,-0.184 -2.461,-0.461 -0.551,-0.496 -0.543,-1.09 0.016,-1.598 0.398,-0.359 1.418,-0.39 10.859,-0.336 l 10.418,0.063 0.121,68.64 0.117,68.641 1.946,0.121 c 1.128,0.066 2.109,0.258 2.339,0.449 0.5,0.414 0.508,1.082 0.02,1.571 -0.332,0.336 -1.84,0.379 -12.953,0.379 H 601.641 Z M 192.789,277.426 c -2.828,-0.938 -4.969,-2.797 -6.195,-5.383 -0.711,-1.504 -0.766,-1.793 -0.758,-4.137 0.004,-2.261 0.074,-2.66 0.676,-3.898 1.984,-4.082 6.047,-6.278 10.476,-5.668 6.407,0.887 10.164,7.918 7.391,13.824 -0.805,1.711 -2.883,3.781 -4.688,4.668 -1.367,0.676 -1.859,0.785 -3.757,0.844 -1.348,0.039 -2.551,-0.055 -3.145,-0.25 z"
       style="fill:#050505;fill-opacity:1;fill-rule:nonzero;stroke:none"
       transform="scale(1.3333333)" />
  </g>
</svg>
