<?xml version="1.0" encoding="UTF-8" standalone="no"?>
<!-- Created with Inkscape (http://www.inkscape.org/) -->

<svg
   version="1.1"
   id="svg1"
   width="1122.5197"
   height="793.70074"
   viewBox="0 0 1122.5197 793.70074"
   xmlns="http://www.w3.org/2000/svg"
   xmlns:svg="http://www.w3.org/2000/svg">
  <defs
     id="defs1" />
  <g
     id="g1">
    <path
       id="path1"
       d="m 425.191,549.816 c -2.214,-2.043 -6.843,-6.453 -10.281,-9.796 -3.441,-3.348 -8.5,-8.211 -11.242,-10.813 -2.746,-2.602 -5.984,-5.996 -7.199,-7.543 -1.211,-1.543 -2.789,-3.121 -3.504,-3.5 -0.715,-0.383 -1.301,-0.902 -1.301,-1.156 0,-1.309 -55.887,-60.086 -57.43,-60.403 -0.574,-0.117 -0.832,-0.48 -0.754,-1.066 0.083,-0.621 -1.351,-2.398 -4.71,-5.848 -2.661,-2.722 -5.106,-5.257 -5.438,-5.628 -5.246,-5.872 -10.164,-10.813 -10.762,-10.813 -0.414,0 -1.175,0.707 -1.695,1.57 -0.973,1.625 -6.461,6.989 -7.152,6.989 -0.731,0 -12.254,5.921 -18.618,9.566 -7.421,4.254 -11.593,6.922 -15.664,10.031 -1.621,1.239 -4.367,3.266 -6.105,4.504 -5.223,3.731 -11.41,8.899 -15.57,13.008 -2.161,2.137 -4.293,4.004 -4.735,4.152 -1.426,0.481 -22.773,23 -24.894,26.258 -1.102,1.695 -2.707,3.633 -3.567,4.309 -0.937,0.738 -1.664,1.761 -1.82,2.566 -0.152,0.785 -0.867,1.817 -1.73,2.496 -0.809,0.637 -2.192,2.172 -3.075,3.41 -1.398,1.965 -1.668,2.157 -2.121,1.52 -0.285,-0.402 -0.648,-1.863 -0.804,-3.246 -0.157,-1.387 -0.59,-3.121 -0.961,-3.863 -0.504,-1.004 -0.551,-1.497 -0.188,-1.95 0.317,-0.39 0.488,-3.211 0.484,-7.965 0,-4.046 0.032,-9.183 0.067,-11.41 0.215,-12.597 0.094,-17.316 -0.461,-17.886 -0.449,-0.461 -4.633,-0.586 -19.871,-0.586 h -19.301 l -0.129,-3.114 -0.133,-3.117 1.93,-2.066 c 1.059,-1.133 3.32,-3.988 5.02,-6.344 7.23,-10 31.863,-33.898 45.968,-44.598 2.121,-1.613 7.02,-5.414 10.887,-8.449 3.863,-3.035 7.191,-5.519 7.395,-5.519 1.058,0 0.593,-1.586 -1.493,-5.067 -7.156,-11.957 -8.8,-17.719 -6.812,-23.879 1.465,-4.535 4.754,-9.269 9.34,-13.437 2.207,-2.012 4.086,-3.852 4.172,-4.094 0.16,-0.445 -1.602,-2.406 -13.895,-15.476 -3.73,-3.969 -9.93,-10.657 -13.773,-14.864 -3.844,-4.207 -10.328,-11.203 -14.414,-15.551 -4.082,-4.347 -9.782,-10.515 -12.664,-13.703 -2.883,-3.191 -8.825,-9.652 -13.211,-14.359 -4.383,-4.711 -7.969,-8.91 -7.969,-9.336 0,-0.43 1.426,-1.961 3.168,-3.406 1.738,-1.446 6.289,-5.371 10.109,-8.723 3.82,-3.351 8.485,-7.371 10.367,-8.933 1.879,-1.563 4.774,-4.098 6.426,-5.633 3.031,-2.809 6.473,-5.75 21.68,-18.504 4.566,-3.832 10.066,-8.508 12.23,-10.403 2.16,-1.89 6.485,-5.593 9.606,-8.234 3.125,-2.637 7.547,-6.43 9.828,-8.43 2.281,-1.996 6.113,-5.261 8.516,-7.257 9.714,-8.063 25.964,-21.844 38.21,-32.407 5.672,-4.89 16.372,-13.82 20.239,-16.894 6.898,-5.477 10.097,-8.149 13.265,-11.071 1.903,-1.753 4.625,-4.078 6.051,-5.164 1.426,-1.082 4.168,-3.5 6.094,-5.367 1.926,-1.867 4.48,-4.207 5.676,-5.195 1.195,-0.992 4.535,-3.84 7.418,-6.336 16.062,-13.895 36.047,-31.094 56.117,-48.293 4.445,-3.809 9.555,-8.191 11.355,-9.742 1.801,-1.551 6.125,-5.219 9.606,-8.149 3.484,-2.929 7.172,-6.148 8.191,-7.16 l 1.86,-1.832 9.933,10.168 c 5.465,5.59 13.367,13.59 17.563,17.778 12.113,12.089 51.972,52.421 70.105,70.945 9.129,9.32 29.371,29.793 44.984,45.492 15.614,15.699 43.813,44.16 62.668,63.246 18.856,19.09 36.805,37.25 39.883,40.359 l 5.602,5.653 -4.004,4.031 c -2.199,2.223 -4.379,4.797 -4.844,5.727 -0.465,0.929 -1.164,1.687 -1.555,1.687 -0.39,0 -2.007,1.293 -3.593,2.875 -1.586,1.578 -5.731,5.684 -9.215,9.117 -3.484,3.438 -7.809,7.91 -9.609,9.946 -1.801,2.031 -6.614,6.972 -10.7,10.98 -12.59,12.352 -19.011,18.977 -20.363,21.004 -0.711,1.066 -1.465,1.941 -1.672,1.941 -0.586,0 -8.316,8.106 -8.316,8.719 0,0.297 1.679,2.445 3.734,4.77 4.438,5.019 5.414,6.672 6.965,11.738 0.859,2.824 1.105,4.387 0.934,5.953 -0.29,2.641 -3.395,10.402 -5.004,12.52 -2.848,3.738 -4.067,6.203 -3.926,7.937 0.144,1.817 -0.309,1.375 11.492,11.195 2.16,1.801 4.52,3.93 5.238,4.731 0.723,0.797 2.184,2.078 3.254,2.844 4.656,3.328 21.762,21.8 29.75,32.121 0.86,1.109 1.973,2.312 2.477,2.676 0.504,0.367 1.363,1.421 1.91,2.351 0.547,0.93 1.719,2.602 2.598,3.719 0.882,1.113 2.511,3.418 3.625,5.121 1.726,2.637 2.023,3.418 2.023,5.305 0,1.406 -0.207,2.297 -0.57,2.441 -0.313,0.125 -8.418,0.27 -18.012,0.324 l -17.445,0.098 -0.285,5.633 c -0.157,3.097 -0.395,11.406 -0.528,18.468 -0.137,7.063 -0.453,14.114 -0.711,15.665 -0.484,2.953 -0.418,5.359 0.18,6.355 0.41,0.684 -0.02,1.188 -1.387,1.609 -0.828,0.262 -1.164,-0.011 -2.183,-1.773 -0.661,-1.145 -2.137,-3.586 -3.286,-5.426 -1.144,-1.84 -2.203,-3.972 -2.351,-4.742 -0.152,-0.77 -0.641,-1.633 -1.09,-1.926 -0.449,-0.289 -1.555,-1.824 -2.449,-3.414 -0.981,-1.73 -4.383,-5.89 -8.488,-10.379 -3.77,-4.117 -7.567,-8.449 -8.438,-9.625 -0.871,-1.176 -2.355,-2.64 -3.297,-3.258 -0.945,-0.613 -1.719,-1.293 -1.719,-1.507 0,-0.215 -1.078,-1.231 -2.394,-2.258 -1.32,-1.028 -2.746,-2.555 -3.168,-3.395 -0.434,-0.859 -2.731,-3.144 -5.246,-5.211 -2.461,-2.027 -4.477,-3.851 -4.477,-4.05 0,-0.204 -1.425,-1.336 -3.164,-2.52 -1.742,-1.184 -4.148,-3.09 -5.351,-4.242 -2.418,-2.313 -7.618,-5.961 -9.899,-6.945 -0.808,-0.348 -1.84,-1.051 -2.289,-1.563 -0.445,-0.512 -0.984,-0.82 -1.191,-0.684 -0.211,0.133 -1.215,-0.461 -2.235,-1.316 -3.078,-2.582 -7.785,-5.758 -9.457,-6.379 -5.273,-1.953 -11.203,-6.414 -13.117,-9.867 -0.769,-1.391 -1.597,-2.524 -1.84,-2.524 -0.246,0 -6.109,5.661 -13.035,12.586 -6.926,6.922 -13.406,13.114 -14.398,13.758 -0.992,0.649 -2.43,2.129 -3.192,3.297 -1.547,2.363 -8.437,9.559 -20.144,21.039 -6.34,6.219 -16.633,16.68 -19.719,20.047 -0.34,0.371 -3.519,3.555 -7.066,7.078 -3.547,3.52 -7.133,7.082 -7.977,7.918 -0.84,0.836 -3.098,3.25 -5.019,5.363 -1.922,2.114 -4.997,4.977 -6.836,6.368 -1.836,1.386 -6.977,6.281 -11.418,10.875 -4.442,4.593 -8.293,8.351 -8.563,8.351 -0.269,0 -2.301,-1.676 -4.512,-3.719 z m 10.18,-23.156 c 3.223,-3.133 9.414,-9.265 13.758,-13.625 4.34,-4.363 14.059,-14.012 21.594,-21.445 11.886,-11.727 36.906,-36.594 42.789,-42.527 1.234,-1.247 1.758,-2.055 1.406,-2.184 -0.309,-0.109 -3.355,1.113 -6.77,2.715 -3.418,1.601 -8.078,3.629 -10.359,4.511 -10.289,3.969 -26.707,8.395 -35.375,9.54 -2.523,0.332 -5.863,0.82 -7.426,1.082 -8.957,1.492 -29.347,1.761 -40.832,0.535 -4.855,-0.52 -16.183,-2.477 -23.801,-4.114 -5.691,-1.222 -13.886,-3.703 -19.054,-5.773 -2.371,-0.945 -5.391,-2.086 -6.711,-2.527 -1.32,-0.442 -5.547,-2.321 -9.391,-4.176 -9.422,-4.543 -9.824,-4.715 -9.824,-4.133 0,0.703 13.199,14.926 34.273,36.926 10.094,10.535 25.098,26.297 33.344,35.023 8.406,8.899 15.328,15.871 15.754,15.871 0.418,0 3.402,-2.562 6.625,-5.699 z m -33.476,-26.441 c -0.129,-0.344 -0.172,-1.715 -0.102,-3.047 0.133,-2.379 0.16,-2.422 1.664,-2.672 1.645,-0.273 8.734,-5.637 8.734,-6.609 0,-0.953 -7.304,-6.645 -8.839,-6.887 l -1.422,-0.227 v -5.855 h 16.593 l 0.133,2.371 c 0.102,1.812 -0.027,2.43 -0.547,2.637 -1.043,0.414 -0.808,1.367 0.59,2.394 1.649,1.211 2.289,1.176 3.535,-0.195 0.891,-0.977 0.954,-1.258 0.485,-2.164 -0.297,-0.574 -0.481,-1.942 -0.403,-3.043 l 0.137,-2 h 13.539 v 5.855 l -1.801,0.137 c -1.468,0.109 -2.375,0.633 -4.914,2.836 -1.711,1.488 -3.109,2.883 -3.109,3.102 0,0.82 7.969,7.351 9.32,7.636 1.375,0.293 1.379,0.297 1.379,3.203 v 2.907 H 420.27 l -0.133,-2.399 c -0.117,-2.105 -0.02,-2.429 0.765,-2.644 0.493,-0.133 0.899,-0.379 0.899,-0.547 0,-0.481 -3.262,-3.645 -3.754,-3.645 -0.586,0 -3.234,2.836 -3.234,3.461 0,0.27 0.402,0.598 0.898,0.731 0.785,0.215 0.879,0.539 0.762,2.644 l -0.133,2.399 -7.106,0.125 c -5.754,0.101 -7.152,0.004 -7.339,-0.504 z m 43.351,0.316 c -0.164,-0.172 -0.301,-1.5 -0.301,-2.949 0,-2.402 0.098,-2.68 1.094,-3.066 0.883,-0.348 1.09,-0.739 1.09,-2.047 0,-1.973 -0.301,-2.586 -3.609,-7.336 -1.434,-2.059 -3.086,-3.934 -3.668,-4.164 -0.989,-0.387 -1.055,-0.606 -0.934,-3.235 l 0.133,-2.816 h 13.101 l 0.137,2.203 c 0.074,1.215 -0.086,2.754 -0.355,3.422 -0.391,0.98 -0.34,1.539 0.273,2.863 0.418,0.906 1.012,1.649 1.32,1.649 0.305,0 1.036,-0.727 1.618,-1.61 1.015,-1.539 1.031,-1.687 0.402,-3.344 -0.488,-1.277 -0.559,-2.183 -0.266,-3.457 l 0.399,-1.726 h 9.136 l 0.129,2.75 c 0.118,2.504 0.032,2.816 -0.957,3.484 -0.597,0.403 -2.375,2.641 -3.949,4.973 -2.363,3.496 -2.867,4.551 -2.867,6.035 0,1.43 0.23,1.953 1.113,2.551 1.012,0.683 1.102,0.992 0.985,3.32 l -0.129,2.563 -6.797,0.125 c -3.739,0.07 -6.93,-0.016 -7.098,-0.188 z m 199.281,27.293 c 0,-0.234 -0.195,-0.426 -0.437,-0.426 -0.238,0 -0.438,0.317 -0.438,0.703 0,0.387 0.2,0.579 0.438,0.426 0.242,-0.152 0.437,-0.468 0.437,-0.703 z m -6.816,-33.875 c 0.148,-2.539 0.238,-9.445 0.191,-15.351 -0.054,-7.278 0.071,-10.832 0.391,-11.039 0.258,-0.165 6.336,-0.192 13.504,-0.059 7.172,0.133 13.215,0.09 13.433,-0.094 0.559,-0.472 -2.226,-4.097 -8.941,-11.637 -6.894,-7.734 -9.332,-10.257 -18.312,-18.945 -10.614,-10.265 -23.696,-21.41 -24.516,-20.883 -0.906,0.578 -0.141,1.696 3.434,4.996 2.097,1.938 6.714,6.473 10.265,10.075 4.75,4.824 6.449,6.832 6.449,7.629 0,1.355 -1.609,3.168 -2.804,3.156 -0.5,-0.004 -5.231,-3.457 -10.516,-7.676 -12.309,-9.824 -11.434,-9.215 -12.23,-8.531 -0.934,0.801 -0.829,1.168 0.765,2.629 16.36,14.98 17.36,16.023 17.36,18.011 0,1.426 -1.582,3.235 -2.832,3.235 -0.887,0 -6.723,-4.348 -12.836,-9.563 -3.282,-2.797 -6.664,-5.304 -7.157,-5.304 -0.191,0 -0.464,0.312 -0.605,0.695 -0.184,0.484 2.332,3.289 8.309,9.273 6.777,6.785 8.57,8.825 8.57,9.746 0,1.477 -1.153,2.809 -2.434,2.809 -0.578,0 -3.582,-2.012 -7.246,-4.855 -9.269,-7.188 -11.965,-9.11 -12.793,-9.11 -1.129,0 -0.68,0.641 1.789,2.547 2.989,2.305 11.789,10.422 14.067,12.973 0.996,1.117 1.812,2.476 1.812,3.019 0,1.567 -1.242,2.637 -3.074,2.637 -1.945,0 -3.348,-0.965 -11.32,-7.777 -5.692,-4.868 -11.571,-9.047 -17.266,-12.278 -1.684,-0.953 -4.203,-2.527 -5.605,-3.496 -1.399,-0.969 -3.661,-2.285 -5.02,-2.922 -1.363,-0.636 -3.066,-1.609 -3.785,-2.16 -2.031,-1.551 -5.41,-3.172 -8.422,-4.039 -4.777,-1.379 -4.254,0.18 1.254,3.723 2.019,1.301 5.441,3.308 7.601,4.465 10.645,5.699 28.274,17.523 30.797,20.664 0.348,0.433 2.012,1.859 3.7,3.175 5.89,4.598 22.175,21.625 29.007,30.325 1.969,2.507 3.84,4.558 4.16,4.558 0.426,0 0.653,-1.219 0.856,-4.621 z m -418.965,-3.668 c 6.688,-7.758 24.387,-24.726 31.895,-30.582 1.781,-1.39 4.359,-3.398 5.73,-4.465 6.637,-5.164 17.442,-11.629 33.16,-19.84 10.657,-5.57 12.606,-6.785 12.606,-7.863 0,-0.57 -0.356,-0.64 -1.981,-0.387 -3.39,0.524 -6.238,1.766 -15.488,6.766 -16.352,8.84 -23.168,12.871 -26.949,15.934 -1.153,0.933 -3.074,2.379 -4.274,3.215 -1.203,0.839 -3.05,2.246 -4.105,3.128 -2.871,2.395 -6.949,3.36 -8.418,1.993 -1.559,-1.457 -1.004,-2.579 3.242,-6.563 4.305,-4.043 11.141,-9.734 14.195,-11.82 1.887,-1.289 2.344,-2.047 1.239,-2.047 -0.34,0 -4.711,2.809 -9.719,6.238 -12.176,8.344 -12.836,8.66 -14.633,6.985 -1.812,-1.696 -0.652,-3.407 6.625,-9.766 2.043,-1.785 5.531,-4.84 7.75,-6.785 2.438,-2.137 4.039,-3.875 4.039,-4.387 0,-0.465 -0.242,-0.836 -0.543,-0.824 -0.933,0.035 -3.98,1.894 -7.578,4.621 -7.562,5.727 -14.676,10.676 -15.344,10.676 -1.336,0 -2.3,-1.399 -2.3,-3.348 0,-1.687 0.25,-2.109 2.73,-4.59 1.5,-1.5 3.711,-3.523 4.914,-4.492 1.199,-0.965 3.484,-2.875 5.07,-4.238 1.59,-1.364 4.008,-3.344 5.371,-4.406 2.668,-2.075 3.282,-3.016 2.493,-3.833 -0.7,-0.718 -2.743,0.497 -11.442,6.805 -13.578,9.852 -14.176,10.16 -15.879,8.219 -1.461,-1.66 -0.25,-3.742 5.469,-9.402 2.832,-2.801 5.973,-5.664 6.981,-6.364 3.378,-2.34 10.05,-8.254 9.886,-8.761 -0.515,-1.602 -1.535,-0.973 -14.5,8.976 -6.23,4.781 -8.605,6.77 -21.23,17.758 -6.465,5.629 -24.098,23.73 -23.852,24.488 0.125,0.391 4.02,0.594 14.547,0.758 7.906,0.125 14.621,0.391 14.922,0.59 0.664,0.445 0.703,7.859 0.113,21.894 -0.222,5.305 -0.304,9.817 -0.179,10.024 0.562,0.941 1.668,0.062 5.437,-4.305 z m 226.856,-36.969 c 13.05,-0.707 31.39,-4.507 42.64,-8.828 2.008,-0.773 4.93,-1.867 6.488,-2.429 9.422,-3.418 27.899,-13.594 36.872,-20.313 6.617,-4.953 18.156,-15.25 18.156,-16.203 0,-0.902 -1.746,-2.027 -3.145,-2.027 -0.875,0 -2.015,0.777 -4.16,2.836 -23.316,22.371 -56.488,37.003 -90.086,39.746 -3.402,0.281 -3.785,0.226 -4.527,-0.621 -1.344,-1.532 -0.348,-4.219 1.89,-5.098 0.95,-0.375 7.383,-1.637 15.524,-3.051 3.539,-0.613 7.414,-1.734 15.019,-4.34 13.286,-4.554 25.477,-10.66 34.899,-17.476 1.754,-1.27 3.965,-2.867 4.91,-3.551 1.606,-1.156 2.227,-2.137 1.352,-2.137 -0.204,0 -1.239,0.676 -2.293,1.5 -4.227,3.309 -16.086,9.883 -23.629,13.098 -13.008,5.547 -29.735,9.82 -41.071,10.488 -4.175,0.246 -4.793,0.184 -5.586,-0.551 -0.679,-0.636 -0.82,-1.148 -0.601,-2.207 0.57,-2.75 1.195,-3.062 8.637,-4.304 13.328,-2.231 25.816,-6.379 37.476,-12.453 6.41,-3.344 15.543,-9.305 20.883,-13.637 2,-1.625 0.645,-1.387 -1.98,0.344 -7.809,5.148 -9.719,6.285 -15.918,9.464 -6.391,3.278 -15.645,6.825 -23.582,9.036 -4.196,1.168 -14.887,3.062 -19.559,3.461 -3.391,0.289 -3.68,0.246 -4.691,-0.735 -1.411,-1.367 -1.368,-2.691 0.132,-4.172 1.024,-1.011 2.153,-1.375 7.313,-2.351 14.734,-2.785 26.832,-7.325 39.269,-14.735 2.926,-1.742 8.981,-6.425 8.981,-6.945 0,-0.133 -0.641,0.152 -1.422,0.637 -16.027,9.894 -32.012,15.715 -46.621,16.976 -1.801,0.153 -3.891,0.379 -4.645,0.496 -1.828,0.289 -4.089,-1.582 -4.089,-3.379 0,-2.007 1.242,-2.722 5.96,-3.449 15.317,-2.347 33.075,-9.84 42.879,-18.086 2.473,-2.082 2.098,-2.445 -4.054,-3.898 l -4.789,-1.133 -5.258,2.426 c -7.43,3.426 -11.203,4.914 -16.426,6.48 -13.734,4.118 -28.988,5.692 -42.332,4.364 -15.453,-1.539 -27.289,-4.922 -40.941,-11.7 l -7.75,-3.847 -4.368,0.668 c -6.086,0.933 -6.769,1.109 -6.769,1.742 0,0.781 1.781,2.402 6.398,5.816 9.098,6.731 20.723,12.184 30.504,14.313 1.442,0.312 2.84,0.738 3.106,0.945 0.265,0.207 2.23,0.703 4.367,1.106 2.949,0.55 4.172,1.003 5.082,1.882 1.449,1.395 1.508,2.27 0.25,3.918 -0.934,1.227 -1.016,1.243 -4.477,0.989 -4.597,-0.34 -12.941,-2.18 -19.949,-4.403 -12.051,-3.816 -24.512,-10.281 -32.457,-16.84 -3.019,-2.492 -3.973,-3 -3.641,-1.933 0.321,1.023 10.766,9.16 15.309,11.922 9.231,5.617 14.266,8.035 23.02,11.054 6.027,2.082 17.293,4.84 19.753,4.84 1.622,0 3.395,1.528 3.395,2.922 0,0.531 -0.582,1.539 -1.297,2.242 -1.277,1.266 -1.344,1.278 -5.129,0.989 -9.187,-0.696 -23.871,-4.7 -34.328,-9.36 -8.988,-4.004 -16.086,-8.234 -26.246,-15.633 -1.422,-1.035 -2.687,-1.777 -2.809,-1.652 -0.359,0.371 2.559,3.309 5.172,5.211 1.321,0.957 3.582,2.621 5.024,3.691 7.976,5.93 19.808,12.219 30.133,16.012 7.234,2.66 19.574,5.942 22.339,5.942 4.387,0 7.403,3.765 5.106,6.382 -0.895,1.024 -2.633,1.047 -8.559,0.133 -9.101,-1.402 -20.086,-4.359 -29.367,-7.902 -9.641,-3.68 -24.703,-11.918 -31.719,-17.348 -2.89,-2.234 -4.312,-3.07 -4.312,-2.539 0,0.563 1.902,2.246 6.551,5.805 5.687,4.351 9.554,6.851 17.007,11 13.614,7.574 26.43,12.078 45.008,15.804 2.524,0.508 4.93,1.235 5.352,1.622 1.043,0.949 0.984,3.367 -0.11,4.382 -0.753,0.707 -1.378,0.778 -4.714,0.532 -10.797,-0.789 -30.786,-6.149 -43.11,-11.563 -16.418,-7.207 -30.031,-16.187 -43.351,-28.594 l -7.106,-6.617 -1.957,0.774 c -1.215,0.476 -1.949,1.047 -1.941,1.496 0.015,0.996 2.472,3.726 7.41,8.246 18.965,17.359 38.433,28.648 64.199,37.222 18.43,6.133 38.731,8.415 63.106,7.086 z m 155.382,-33.695 c 0.571,-1.051 2.879,-5.359 5.125,-9.57 2.25,-4.215 6.024,-11.082 8.387,-15.27 2.367,-4.183 4.578,-8.281 4.91,-9.109 1.399,-3.449 -1.066,-7.16 -9.468,-14.234 -7.36,-6.2 -9.579,-7.907 -16.071,-12.348 -5.383,-3.68 -7.469,-5.016 -16.812,-10.766 -1.684,-1.035 -5.907,-3.414 -9.391,-5.285 -45.855,-24.641 -106.121,-37.051 -162.461,-33.457 -29.281,1.867 -52,5.992 -78.609,14.27 -27.602,8.586 -57.231,23.558 -79.262,40.058 -6.016,4.504 -8.258,6.766 -9.668,9.735 -1.32,2.781 -1.289,2.937 1.801,8.699 1.262,2.355 3.234,6.105 4.379,8.336 1.148,2.226 3.207,6.179 4.578,8.781 1.371,2.602 3.812,7.316 5.43,10.477 1.613,3.16 3.203,5.742 3.535,5.742 0.332,0 2.527,-1.438 4.879,-3.2 8.605,-6.433 20.273,-12.66 44.019,-23.484 9.695,-4.418 26.625,-10.711 36.031,-13.398 10.825,-3.09 34.821,-7.696 48.039,-9.219 16.696,-1.93 24.594,-2.223 44.243,-1.66 18.8,0.539 26.449,1.226 40.539,3.648 22.984,3.949 43.691,9.629 60.039,16.461 6.039,2.524 20.176,9.07 20.914,9.688 0.242,0.203 2.5,1.418 5.023,2.703 2.524,1.285 6.258,3.304 8.297,4.48 2.043,1.18 6.168,3.52 9.172,5.199 7.098,3.973 12.957,7.973 17.031,11.637 1.801,1.617 3.516,2.957 3.805,2.973 0.289,0.015 0.996,-0.832 1.566,-1.887 z m -6.711,-6.773 c -2.285,-2.207 -8.277,-6.649 -13.816,-10.243 -3.316,-2.152 -3.656,-2.789 -2.297,-4.296 0.981,-1.086 1.297,-1.172 3.481,-0.957 1.32,0.128 3.851,0.859 5.625,1.621 5.468,2.355 5.484,1.898 0.101,-2.575 -2.777,-2.304 -2.836,-4.488 -0.152,-5.543 0.812,-0.316 1.789,-0.023 4.637,1.399 1.984,0.992 3.839,1.801 4.121,1.801 1.074,0 0.429,-0.914 -1.996,-2.844 -4.184,-3.332 -5.176,-5.07 -3.793,-6.648 1.046,-1.192 2.234,-1.094 6.129,0.503 1.839,0.75 3.562,1.293 3.824,1.204 0.265,-0.09 -0.399,-0.801 -1.473,-1.579 -6.387,-4.613 -7.156,-5.593 -5.926,-7.531 0.41,-0.644 1.047,-1.293 1.422,-1.441 0.379,-0.149 2.387,0.652 4.567,1.828 6.066,3.266 6.328,2.824 1.086,-1.844 -3.958,-3.519 -4.77,-5.027 -3.497,-6.476 1.071,-1.223 1.653,-1.079 4.262,1.066 1.281,1.055 3.371,2.727 4.649,3.715 9.195,7.156 10.257,8.418 9.304,11.031 -0.265,0.719 -3.32,6.234 -6.793,12.258 -3.472,6.023 -6.965,12.168 -7.758,13.652 -1.484,2.774 -2.554,4.293 -3.015,4.266 -0.141,-0.012 -1.352,-1.074 -2.692,-2.367 z m -335.621,-5.84 c -4.617,-8.031 -16.328,-30.504 -16.336,-31.356 -0.011,-1.48 1.844,-3.125 8.946,-7.929 9.179,-6.215 8.738,-5.989 9.808,-4.993 0.489,0.458 0.891,1.125 0.891,1.481 0,1.187 -1.727,3.172 -4.594,5.281 -4.476,3.297 -3.699,3.914 1.723,1.363 1.844,-0.867 3.805,-1.578 4.355,-1.578 1.508,0 2.586,1.473 2.246,3.071 -0.355,1.66 -1.472,2.715 -4.925,4.644 -1.5,0.836 -2.727,1.778 -2.731,2.086 -0.008,0.766 0.125,0.738 4.36,-0.789 4.339,-1.566 5.285,-1.644 6.265,-0.527 1.535,1.746 0.391,3.773 -3.836,6.785 -5.875,4.191 -3.578,4.262 4.938,0.156 1.664,-0.805 2.523,-0.484 3.484,1.289 0.957,1.774 0.039,3.328 -3.199,5.426 -4.395,2.84 -3.516,3.492 2.098,1.562 4.66,-1.601 7.562,-1.914 8.621,-0.925 0.464,0.433 0.847,1.023 0.847,1.312 0,0.953 -2.343,2.793 -8.953,7.028 -3.605,2.308 -7.73,5.171 -9.172,6.363 -1.437,1.191 -2.867,2.164 -3.175,2.164 -0.309,0 -1.055,-0.859 -1.661,-1.914 z m 57.352,-42.488 c -0.18,-0.192 -0.328,-1.524 -0.328,-2.957 0,-2.153 0.156,-2.7 0.875,-3.094 0.808,-0.449 0.871,-0.946 0.871,-6.742 0,-6.149 -0.016,-6.266 -0.981,-6.407 -0.89,-0.129 -0.984,-0.386 -0.972,-2.722 0.004,-1.418 0.234,-2.809 0.508,-3.09 0.57,-0.59 12.343,-3.18 12.882,-2.836 0.196,0.121 0.356,1.391 0.356,2.82 0,2.207 -0.164,2.742 -1.094,3.574 -0.914,0.825 -1.09,1.375 -1.09,3.461 0,1.364 0.153,2.481 0.34,2.481 0.188,0 1.367,-1.203 2.621,-2.676 2.25,-2.637 2.723,-3.894 1.813,-4.832 -0.305,-0.32 -0.344,-1.375 -0.11,-3.113 0.356,-2.617 0.368,-2.633 2.106,-3.004 3.285,-0.707 9.605,-1.594 9.933,-1.391 0.18,0.11 0.329,1.403 0.329,2.871 0,2.61 -0.04,2.696 -1.684,3.77 -1.711,1.113 -4.867,5.094 -4.867,6.137 0,0.621 2.195,3.527 5.148,6.812 1.828,2.039 1.883,2.18 1.754,4.731 l -0.133,2.632 -1.965,0.34 c -3.753,0.653 -9.828,1.235 -10.429,1.004 -0.477,-0.187 -0.539,-0.973 -0.297,-3.824 l 0.305,-3.59 -2.079,-2.484 c -1.144,-1.368 -2.238,-2.485 -2.433,-2.485 -0.192,0 -0.352,1.508 -0.352,3.348 0,3.129 0.063,3.359 0.981,3.492 0.832,0.121 1.004,0.461 1.113,2.199 0.199,3.141 -0.457,4.477 -2.195,4.477 -0.789,0 -2.098,0.199 -2.91,0.437 -2.098,0.621 -7.625,1.079 -8.016,0.661 z m 221.527,-0.7 c -1.082,-0.218 -3.636,-0.656 -5.679,-0.968 l -3.711,-0.571 -0.129,-2.996 c -0.114,-2.633 -0.024,-3.031 0.718,-3.273 1.176,-0.387 1.364,-1.465 1.372,-7.965 0.003,-5.988 -0.297,-6.961 -2.051,-6.621 -0.574,0.113 -0.844,0.699 -1,2.179 -0.215,1.973 -0.262,2.028 -1.887,2.165 -2.691,0.226 -2.918,-0.243 -2.918,-6.028 0,-2.804 0.172,-5.211 0.387,-5.344 0.488,-0.312 7.883,1.059 16.633,3.086 4.714,1.09 6.933,1.809 7.332,2.371 0.398,0.567 0.531,2.141 0.445,5.317 l -0.125,4.512 -1.738,-0.149 c -2.285,-0.187 -2.844,-0.738 -2.844,-2.781 0,-1.82 -0.887,-2.969 -1.961,-2.543 -0.547,0.219 -0.66,1.352 -0.66,6.531 0,6.223 0.008,6.278 1.109,7.02 1.024,0.691 1.102,0.98 0.985,3.547 -0.121,2.621 -0.196,2.793 -1.223,2.851 -0.598,0.031 -1.977,-0.121 -3.055,-0.34 z m -21.617,-3.175 c -6.418,-0.864 -6.098,-0.668 -6.242,-3.797 -0.098,-2.043 0.043,-2.891 0.543,-3.321 0.855,-0.73 0.871,-2.441 0.035,-3.156 -0.352,-0.301 -1.816,-0.656 -3.258,-0.789 -2.535,-0.238 -2.637,-0.207 -3.172,1.004 -0.496,1.129 -0.457,1.32 0.422,1.918 0.824,0.566 0.973,1.074 0.973,3.375 v 2.707 l -4.352,-0.215 c -2.59,-0.129 -4.625,-0.449 -5.023,-0.789 -0.473,-0.406 -0.672,-1.41 -0.672,-3.414 0,-2.66 0.07,-2.859 1.148,-3.23 1.008,-0.344 1.411,-1.172 3.254,-6.676 2.094,-6.25 2.102,-6.285 1.254,-7.219 -0.656,-0.719 -0.851,-1.578 -0.851,-3.719 v -2.789 l 1.636,0.008 c 2.289,0.004 12.196,1.621 14.305,2.332 l 1.746,0.59 0.133,2.683 c 0.113,2.258 -0.004,2.79 -0.75,3.375 -0.879,0.696 -0.871,0.743 1.102,7.231 1.464,4.82 2.265,6.777 3.066,7.469 0.973,0.847 1.066,1.218 0.949,3.828 l -0.133,2.894 L 520.5,361 c -0.844,0.031 -2.906,-0.129 -4.586,-0.355 z m -6.769,-15.207 c 0,-1.801 -1.047,-5.442 -1.563,-5.442 -0.516,0 -1.934,3.543 -1.934,4.824 0,0.645 1.434,1.407 2.731,1.453 0.473,0.02 0.766,-0.3 0.766,-0.835 z M 354.52,358.777 c -7.098,-2.054 -10.067,-9.894 -6.977,-18.414 1.094,-3.011 5.309,-7.707 8.031,-8.937 4.305,-1.949 10.125,-2.016 12.895,-0.141 1.594,1.078 3.472,3.274 4.558,5.332 0.801,1.516 0.95,2.516 0.938,6.309 -0.012,4.035 -0.145,4.785 -1.281,7.195 -1.434,3.051 -4.532,6.481 -7.051,7.805 -2.242,1.179 -8.363,1.644 -11.113,0.851 z m 7.48,-7.328 c 0.984,-1.078 1.07,-1.547 1.184,-6.644 0.14,-6.395 -0.246,-7.66 -2.399,-7.875 -2.883,-0.289 -3.949,2.843 -3.523,10.383 0.172,3.097 0.351,3.769 1.195,4.472 1.348,1.125 2.293,1.039 3.543,-0.336 z m 123.125,5.535 c -1.262,-0.66 -1.441,-0.941 -6.48,-10.218 -2.082,-3.832 -3.981,-6.973 -4.219,-6.981 -0.254,-0.008 -0.492,1.754 -0.563,4.156 -0.125,4.106 -0.109,4.18 0.981,4.61 1.043,0.406 1.109,0.625 1.109,3.613 0,2.145 -0.18,3.25 -0.551,3.395 -0.304,0.121 -2.515,0.066 -4.914,-0.125 L 466.125,355.09 466,351.934 c -0.113,-2.914 -0.051,-3.188 0.875,-3.602 0.973,-0.441 1,-0.633 1.117,-7.715 l 0.121,-7.262 -1.101,-0.742 c -0.996,-0.672 -1.106,-1.039 -1.106,-3.726 v -2.985 l 4.735,0.309 c 7.269,0.477 6.589,-0.008 11.148,7.91 2.195,3.813 4.234,7.016 4.535,7.117 0.403,0.137 0.547,-0.656 0.547,-3.015 0,-3.004 -0.07,-3.231 -1.094,-3.633 -1.007,-0.395 -1.089,-0.645 -1.089,-3.383 0,-2.187 0.167,-3.019 0.644,-3.207 0.356,-0.141 2.566,0.02 4.914,0.355 l 4.266,0.61 0.129,3.265 c 0.125,3.141 0.086,3.286 -0.981,3.704 l -1.113,0.437 v 21.195 l -3.164,-0.007 c -1.742,-0.004 -3.656,-0.262 -4.258,-0.575 z m -106.996,-3.406 c 0,-2.726 0.125,-3.258 0.871,-3.672 0.816,-0.449 0.875,-0.941 0.875,-7.433 0,-6.535 -0.055,-6.981 -0.895,-7.442 -0.789,-0.437 -0.875,-0.855 -0.761,-3.734 l 0.125,-3.238 4.586,-0.368 c 2.523,-0.203 5.855,-0.406 7.402,-0.449 l 2.813,-0.086 1.554,4.215 c 0.852,2.317 1.75,4.242 1.989,4.277 0.242,0.04 1.144,-2.058 2.011,-4.656 1.516,-4.554 1.625,-4.734 3.055,-5.058 2.66,-0.602 11.941,-1.121 12.73,-0.715 0.61,0.312 0.766,0.98 0.766,3.289 0,2.437 -0.141,2.972 -0.875,3.379 -0.816,0.453 -0.875,0.945 -0.875,7.66 0,6.715 0.059,7.207 0.875,7.656 0.742,0.414 0.875,0.945 0.875,3.594 0,1.894 -0.203,3.238 -0.512,3.437 -0.285,0.18 -2.543,0.383 -5.023,0.45 -2.477,0.07 -4.707,0.25 -4.949,0.406 -0.243,0.156 -0.836,0.152 -1.313,-0.004 -0.765,-0.25 -0.871,-0.684 -0.871,-3.617 0,-2.871 0.121,-3.399 0.875,-3.813 0.813,-0.449 0.875,-0.945 0.875,-7 0,-3.586 -0.172,-6.515 -0.379,-6.515 -0.324,0 -3.996,11.074 -6.055,18.246 -0.859,2.996 -1.285,3.449 -3.082,3.289 -1.742,-0.156 -1.441,0.476 -5.531,-11.738 -1.387,-4.149 -2.699,-7.547 -2.91,-7.547 -0.211,0 -0.387,2.824 -0.387,6.277 0,5.883 0.055,6.297 0.875,6.562 0.762,0.25 0.871,0.684 0.871,3.383 0,1.992 -0.195,3.223 -0.546,3.45 -0.297,0.191 -2.461,0.429 -4.801,0.527 l -4.258,0.18 z m 76.859,0.879 c -2.519,-0.148 -4.828,-0.434 -5.129,-0.637 -0.343,-0.226 -0.546,-1.437 -0.546,-3.273 0,-2.695 0.082,-2.945 1.093,-3.344 l 1.09,-0.426 v -14.336 l -1.109,-0.75 c -1.035,-0.699 -1.106,-0.964 -0.985,-3.769 l 0.129,-3.016 5.895,0.098 c 8.324,0.137 7.863,-0.098 7.863,3.976 0,3.192 -0.062,3.403 -1.094,3.809 l -1.09,0.43 v 6.758 c 0,6.738 0,6.757 1.11,7.507 1.039,0.704 1.101,0.95 0.98,3.954 l -0.125,3.199 -1.746,0.047 c -0.961,0.027 -3.812,-0.079 -6.336,-0.227 z m -36.484,-0.441 c -0.109,-0.114 -0.199,-1.485 -0.199,-3.047 0,-2.535 0.117,-2.922 1.093,-3.582 1.09,-0.735 1.09,-0.742 1.09,-8.086 0,-7.281 -0.008,-7.352 -0.98,-7.496 -0.922,-0.133 -0.985,-0.36 -0.985,-3.52 v -3.379 l 3.711,-0.328 c 2.043,-0.18 6.86,-0.265 10.704,-0.195 6.226,0.113 7.187,0.238 8.859,1.133 2.418,1.293 3.582,3.265 3.582,6.062 0.004,2.41 -0.438,3.543 -2.094,5.371 l -1.113,1.235 1.789,1.707 c 0.988,0.941 1.918,2.308 2.07,3.047 0.153,0.734 0.348,1.699 0.43,2.136 0.227,1.16 -0.606,3.961 -1.602,5.406 -0.472,0.688 -1.679,1.688 -2.679,2.223 -1.629,0.867 -2.653,0.988 -9.68,1.121 -4.324,0.082 -9.199,0.207 -10.832,0.274 -1.633,0.066 -3.055,0.031 -3.164,-0.082 z m 17.027,-7.813 c 1.621,-2.387 0.051,-4.527 -3.164,-4.316 l -2.051,0.136 -0.136,1.965 c -0.203,2.926 0.023,3.215 2.5,3.215 1.75,0 2.304,-0.191 2.851,-1 z m -0.769,-10.789 c 1.191,-1.152 1.273,-2.043 0.316,-3.449 -0.582,-0.86 -1.023,-1.004 -2.73,-0.887 l -2.032,0.133 -0.136,1.969 c -0.078,1.078 -0.032,2.246 0.093,2.59 0.379,1.011 3.321,0.777 4.493,-0.356 z m 13.054,48.5 c 2.625,-0.379 5.934,-0.898 7.352,-1.16 3.008,-0.555 7.246,-2.109 7.246,-2.656 0,-0.211 -1.523,-0.512 -3.383,-0.676 -1.863,-0.164 -4.566,-0.52 -6.008,-0.789 -1.441,-0.27 -4.484,-0.524 -6.769,-0.559 -2.281,-0.039 -8.078,-0.316 -12.883,-0.613 -6.168,-0.383 -9.953,-0.41 -12.883,-0.09 -2.281,0.246 -6.113,0.477 -8.515,0.508 -5.789,0.074 -9.5,0.516 -9.703,1.152 -0.379,1.18 10.57,4.004 18.875,4.871 8.054,0.836 20.859,0.844 26.671,0.012 z m 161.918,-31.168 c 2.204,-2.156 16.188,-16.219 31.082,-31.246 14.891,-15.031 27.813,-27.984 28.711,-28.789 0.996,-0.887 1.641,-1.863 1.641,-2.484 0,-0.954 -15.594,-17.039 -44.109,-45.504 -3.965,-3.957 -16.106,-16.219 -26.977,-27.254 -10.875,-11.031 -19.965,-20.121 -20.199,-20.207 -0.91,-0.321 -0.332,1.062 1.961,4.695 1.312,2.078 3.605,6.063 5.09,8.852 8.136,15.281 12.265,26.109 16.324,42.789 3.695,15.207 4.836,25.058 4.746,41.125 -0.109,19.586 -2.227,33.402 -7.836,51.132 -0.824,2.602 -1.496,5.09 -1.496,5.532 0,1.34 4.828,5.277 6.469,5.277 0.324,0 2.39,-1.762 4.593,-3.918 z m 35.45,-49.66 -5.243,-0.254 v -5.406 l 1.504,-0.227 c 1.926,-0.289 2.285,-1.574 2.114,-7.558 l -0.125,-4.379 -1.528,-0.227 c -1.488,-0.219 -1.531,-0.281 -1.664,-2.461 -0.152,-2.441 0.512,-3.394 2.36,-3.394 0.531,0 2.101,-0.617 3.496,-1.375 1.75,-0.95 3.007,-1.332 4.082,-1.239 l 1.554,0.137 v 20.27 l 3.055,0.453 v 5.855 l -2.184,0.032 c -1.199,0.019 -4.542,-0.083 -7.421,-0.227 z m -31.364,-0.77 c -0.527,-0.543 -0.328,-4.984 0.246,-5.472 0.301,-0.258 1.133,-0.535 1.856,-0.617 l 1.308,-0.153 v -11.265 l -1.527,-0.223 c -1.484,-0.219 -1.531,-0.289 -1.664,-2.43 -0.074,-1.211 0.035,-2.375 0.242,-2.59 0.207,-0.214 1.52,-0.699 2.918,-1.074 1.399,-0.375 3.059,-1.051 3.688,-1.5 1.66,-1.183 2.453,-1.402 3.785,-1.031 l 1.183,0.324 0.055,10.121 0.055,10.117 1.531,0.227 1.527,0.223 v 5.406 l -7.449,0.125 c -4.097,0.066 -7.586,-0.02 -7.754,-0.188 z M 258.43,346.07 c 1.679,-1.117 3.16,-2.215 3.289,-2.433 0.133,-0.219 -0.141,-1.684 -0.606,-3.258 -2.488,-8.41 -5.429,-23.691 -6.351,-32.988 -0.871,-8.801 -0.867,-25.227 0.008,-33.168 3.48,-31.575 12.843,-56.485 31.3,-83.282 3.059,-4.445 3.395,-5.148 2.25,-4.722 -1.203,0.445 -9.222,6.969 -19.554,15.906 -5.02,4.348 -11.996,10.324 -15.504,13.281 -3.504,2.957 -9.219,7.824 -12.703,10.817 -3.481,2.992 -7.418,6.269 -8.746,7.289 -1.325,1.015 -4.102,3.343 -6.165,5.172 -2.062,1.832 -6.472,5.66 -9.8,8.511 -3.328,2.848 -7.336,6.375 -8.903,7.836 -1.57,1.457 -6.39,5.664 -10.711,9.344 -12.554,10.688 -11.461,9.578 -10.703,10.891 0.364,0.621 6.75,7.668 14.196,15.66 7.445,7.992 18.933,20.324 25.531,27.406 19.758,21.219 28.144,29.773 29.187,29.773 0.516,0 2.309,-0.914 3.985,-2.035 z m -19.95,-56.945 c -5.972,-1.566 -9.617,-9.441 -7.832,-16.91 0.868,-3.621 2.668,-6.328 5.395,-8.102 1.719,-1.117 2.496,-1.332 4.918,-1.34 3.281,-0.011 5.019,0.735 7.574,3.262 2.274,2.246 3.379,5.516 3.379,9.992 0,5.946 -2.191,10.145 -6.465,12.364 -1.734,0.902 -5.011,1.246 -6.969,0.734 z m 3.958,-6.242 c 1.722,-1.961 1.828,-12.238 0.148,-13.973 -0.996,-1.027 -2.691,-0.344 -3.391,1.367 -0.937,2.289 -0.816,10.625 0.176,12.188 0.891,1.406 2.059,1.566 3.067,0.418 z m -37.45,5.605 c -0.648,-0.492 -0.738,-0.933 -0.48,-2.367 0.844,-4.691 2.34,-6.691 9.332,-12.461 2.777,-2.297 3.137,-2.769 3.137,-4.113 0,-1.887 -0.825,-2.637 -2.7,-2.449 -1.183,0.117 -1.597,0.457 -2.257,1.851 l -0.809,1.703 -2.684,-0.297 c -1.476,-0.16 -2.855,-0.453 -3.058,-0.648 -0.203,-0.191 -0.239,-0.984 -0.071,-1.758 1.313,-6.179 12.426,-7.957 17.653,-2.828 2.902,2.848 2.875,6.996 -0.059,9.84 -0.785,0.762 -3.199,2.352 -5.359,3.527 -4.524,2.457 -5.024,2.825 -5.024,3.676 0,0.469 0.782,0.617 3.262,0.617 2.836,0 3.32,-0.117 3.738,-0.922 0.411,-0.789 0.832,-0.902 2.961,-0.789 l 2.489,0.137 -0.114,3.379 c -0.062,1.859 -0.203,3.633 -0.316,3.941 -0.301,0.84 -18.52,0.805 -19.641,-0.039 z m 385.039,51.059 c 2.629,-8.039 4.149,-15.059 5.45,-25.168 1.054,-8.191 1.195,-10.715 1.179,-21.234 -0.015,-12.36 -0.449,-18.465 -1.957,-27.707 -2.75,-16.864 -8.625,-33.606 -17.539,-50.004 -5.652,-10.399 -7.383,-13.028 -15.265,-23.2 -3.957,-5.109 -15.84,-17.668 -21.332,-22.55 -12.993,-11.551 -30.547,-22.184 -48.887,-29.61 -36.09,-14.613 -82.297,-15 -119.196,-0.996 -13.648,5.18 -29.71,13.613 -38.445,20.188 -1.871,1.406 -4.652,3.5 -6.183,4.652 -5.071,3.816 -15.825,13.719 -20.047,18.461 -10.68,11.992 -17.184,21.195 -23.692,33.504 -3.515,6.656 -5.597,11.144 -6.894,14.867 -0.434,1.238 -1.473,3.875 -2.317,5.855 -3,7.055 -6.285,20.86 -7.996,33.563 -0.582,4.344 -0.761,8.934 -0.777,20.047 -0.02,13.457 0.059,14.926 1.144,22.074 1.254,8.281 3.915,20.133 5.094,22.715 0.403,0.879 1.113,1.68 1.586,1.773 1.117,0.219 3.641,-1.195 3.957,-2.214 0.133,-0.442 -0.156,-2.426 -0.648,-4.411 -4.973,-20.086 -5.551,-39.968 -1.785,-61.195 1.91,-10.766 2.574,-13.273 3.832,-14.469 1.402,-1.324 3.031,-1.148 4.191,0.461 0.793,1.102 0.832,1.457 0.387,3.602 -2.039,9.902 -2.727,17.035 -2.813,29.187 -0.074,10.266 0.442,17.141 1.836,24.551 1.184,6.27 3.434,14.816 4.176,15.867 1.137,1.602 1.152,0.078 0.051,-4.468 -2.227,-9.196 -3.094,-17.168 -3.074,-28.29 0.031,-16.308 2.41,-32.418 5.261,-35.671 1.352,-1.539 3.422,-0.762 4.235,1.593 0.16,0.457 -0.223,4.918 -0.848,9.91 -1.023,8.153 -1.117,10.129 -0.93,19.438 0.16,8.059 0.414,11.512 1.153,15.543 1.867,10.184 4.082,18.019 5.089,18.019 0.774,0 0.817,0.43 -0.48,-5.039 -3.629,-15.343 -3.668,-34.882 -0.098,-50.125 1.446,-6.187 4.004,-8.554 6.403,-5.921 0.828,0.914 0.906,1.238 0.476,2.062 -0.277,0.539 -0.406,1.246 -0.285,1.574 0.121,0.328 -0.152,3.203 -0.609,6.387 -1.168,8.102 -1.16,21.934 0.015,28.535 1.879,10.563 3.477,16.774 4.629,18.004 0.535,0.578 0.614,0.543 0.614,-0.273 0,-0.516 -0.383,-2.536 -0.856,-4.493 -2.988,-12.398 -2.875,-31.488 0.266,-44.773 1.148,-4.859 3.207,-6.195 5.593,-3.621 l 1.239,1.328 -0.496,3.289 c -2.016,13.332 -1.317,27.836 1.89,39.262 1.27,4.519 2.172,6.531 3.09,6.894 0.852,0.336 6.352,-1.699 6.633,-2.453 0.121,-0.332 -0.188,-2.769 -0.695,-5.418 -1.653,-8.695 -1.844,-10.863 -1.852,-21.207 -0.008,-15.633 1.797,-25.707 7.031,-39.265 5.297,-13.715 11.387,-23.067 23.723,-36.438 7.781,-8.43 25.348,-19.902 37.945,-24.785 12.688,-4.914 32.313,-8.215 44.449,-7.473 17.973,1.094 32.188,4.75 46.512,11.969 16.832,8.484 32.418,22.379 42.43,37.824 3.074,4.746 8.012,12.926 8.012,13.278 0,0.16 1.191,3.445 2.648,7.3 8.141,21.524 9.395,41.516 4.074,64.907 -0.828,3.644 -1.019,5.23 -0.687,5.644 0.664,0.824 4.644,2.223 5.832,2.047 1.265,-0.184 1.668,-1.074 3.625,-8.031 3.07,-10.903 4.386,-23.77 3.344,-32.66 -1.59,-13.547 -1.575,-13.211 -0.719,-14.188 1.621,-1.844 3.945,-0.906 5.027,2.024 1.801,4.871 3.766,22.07 3.297,28.832 -0.492,7.054 -1.582,14.683 -2.922,20.433 -1.226,5.258 -1.324,6.641 -0.398,5.664 0.699,-0.734 3.441,-10.726 4.336,-15.797 1.996,-11.328 2.32,-25.586 0.773,-33.953 -1.801,-9.722 -1.777,-9.437 -0.84,-10.738 1.235,-1.715 2.813,-1.777 4.129,-0.164 2.211,2.711 4.5,16.047 5,29.148 0.313,8.121 -0.957,20.164 -3.074,29.188 -0.824,3.519 -1.633,6.758 -1.797,7.191 -0.207,0.547 -0.09,0.789 0.383,0.789 1.113,0 3.871,-9.968 6.043,-21.851 0.879,-4.813 0.988,-6.789 0.98,-18.02 -0.008,-9.82 -0.176,-13.66 -0.765,-17.344 -1.676,-10.457 -1.735,-11.269 -0.914,-12.207 1.902,-2.168 4.527,-0.019 5.875,4.809 0.476,1.715 1.382,6.668 2.007,11.004 0.969,6.715 1.141,9.48 1.168,18.695 0.032,10.684 -0.875,23.477 -1.793,25.309 -0.226,0.449 -0.546,1.629 -0.711,2.621 -0.168,0.992 -0.886,4.008 -1.605,6.703 -0.715,2.695 -1.191,5.012 -1.059,5.148 1.356,1.399 5.86,-16.386 7.477,-29.523 1.293,-10.504 0.656,-29.016 -1.332,-38.762 -0.352,-1.726 -0.774,-4.488 -0.938,-6.132 -0.25,-2.532 -0.175,-3.137 0.489,-3.891 0.429,-0.492 1.226,-0.895 1.769,-0.895 1.008,0 3.008,2.051 3.403,3.493 1.664,6.105 3.339,16.597 4.187,26.242 0.649,7.355 0.566,17.109 -0.211,25.226 -1.019,10.617 -1.808,14.739 -5.562,29.028 -0.446,1.703 -0.411,1.816 1.027,3.054 2.465,2.125 2.941,1.719 4.859,-4.148 z m -61.922,-23.988 c 0.352,-0.559 1.055,-3.246 1.555,-5.969 0.504,-2.727 1.11,-5.707 1.344,-6.621 0.723,-2.781 0.988,-16.785 0.457,-23.953 -0.941,-12.797 -4.258,-23.114 -12.133,-37.786 -6.324,-11.773 -18.367,-24.898 -29.984,-32.675 -7.867,-5.266 -21.871,-11.84 -29.981,-14.071 -10.164,-2.8 -26.472,-3.875 -38,-2.504 -7.683,0.915 -12.836,2.032 -18.972,4.106 -4.118,1.391 -6.465,2.379 -14.875,6.258 -3.805,1.754 -10.801,6.121 -14.192,8.859 -6.933,5.594 -8.054,6.606 -11.801,10.633 -9.125,9.812 -16.328,21.32 -21.085,33.691 -3.911,10.161 -5.645,23.149 -5.055,37.844 0.32,7.945 1.629,16.055 2.793,17.297 0.476,0.512 1.035,0.539 2.91,0.148 4.902,-1.019 5.477,-1.66 3.887,-4.328 -0.461,-0.773 -1.246,-3.05 -1.743,-5.066 -0.816,-3.309 -0.847,-3.859 -0.3,-5.738 0.57,-1.954 0.535,-2.313 -0.617,-6.024 -1.875,-6.031 -1.989,-7.539 -0.809,-10.949 0.809,-2.344 1.008,-3.871 1.023,-7.867 0.028,-6.114 0.871,-9.289 3.223,-12.09 1.434,-1.711 1.746,-2.488 2.223,-5.524 0.304,-1.941 0.73,-4.015 0.949,-4.605 0.812,-2.211 3.461,-5.785 5.391,-7.277 1.628,-1.258 2.378,-2.371 4.093,-6.071 2.371,-5.121 4.606,-7.574 9.192,-10.093 1.468,-0.809 2.668,-1.621 2.668,-1.809 0,-0.187 1.363,-1.867 3.031,-3.734 3.566,-3.989 7.805,-6.571 11.484,-6.985 1.875,-0.215 2.621,-0.574 4.047,-1.965 5.508,-5.363 14.215,-8.449 19.121,-6.777 1.418,0.484 1.801,0.402 4.321,-0.91 3.648,-1.899 7.695,-3.078 11.714,-3.402 4.27,-0.348 6.516,0.293 8.274,2.359 1.394,1.641 3.172,2.434 5.426,2.434 0.933,0 1.738,-0.528 3.089,-2.028 1.805,-1.996 1.872,-2.023 4.641,-2.015 4.469,0.011 8.524,1.105 13.356,3.605 4.257,2.203 4.539,2.285 6.988,2 4.965,-0.578 11.039,2.117 16.336,7.25 2.23,2.16 3.297,2.871 4.683,3.113 3.727,0.649 9.934,5.403 12.649,9.688 1.121,1.773 2.625,3.367 4.301,4.566 1.418,1.016 3.332,2.582 4.253,3.489 1.7,1.664 4.079,6.011 5.09,9.3 0.317,1.02 1.555,2.891 2.852,4.305 3.488,3.809 5.449,8.605 5.449,13.324 0,1.059 0.5,2.371 1.5,3.922 0.824,1.277 1.715,2.922 1.984,3.649 0.735,1.996 1.028,7.875 0.508,10.167 -0.386,1.692 -0.312,2.547 0.446,5.18 1.156,4.012 0.91,8.156 -0.7,11.785 -0.918,2.067 -1.117,3.196 -1.117,6.325 0,3.05 -0.23,4.41 -1.148,6.816 -0.629,1.652 -1.317,3.195 -1.528,3.434 -0.211,0.234 -0.382,0.875 -0.382,1.425 0,0.809 0.472,1.168 2.511,1.903 3.282,1.179 3.895,1.175 4.66,-0.039 z m -14.812,-5.407 c 0.879,-1.054 1.875,-2.597 2.219,-3.433 0.695,-1.707 0.816,-3.934 0.234,-4.305 -0.574,-0.367 -7.516,0.613 -8.781,1.234 -0.844,0.415 -1.129,0.942 -1.235,2.286 -0.078,0.961 0.071,1.961 0.329,2.226 0.254,0.266 0.464,0.957 0.464,1.539 0,0.762 0.395,1.235 1.418,1.696 2.493,1.117 3.598,0.859 5.352,-1.243 z m -11.859,-1.011 c 0.918,-0.946 1.332,-5.852 0.793,-9.411 -0.743,-4.929 -3.489,-10.191 -5.321,-10.191 -0.402,0 -1.855,1.215 -3.226,2.699 -2.742,2.965 -5.5,8.407 -5.5,10.848 v 1.437 l 2.293,-0.308 c 2.863,-0.387 3.808,-1.016 4.425,-2.949 0.27,-0.836 0.75,-1.61 1.071,-1.719 0.465,-0.156 0.558,0.644 0.461,3.906 -0.141,4.488 0.023,4.879 2.359,5.762 1.859,0.703 1.895,0.703 2.645,-0.074 z m -141.539,-2.325 c 0.179,-0.117 0.328,-0.804 0.328,-1.535 0,-1.035 0.195,-1.324 0.89,-1.324 0.793,0 0.864,-0.191 0.606,-1.691 -0.156,-0.926 -0.633,-2.063 -1.059,-2.524 -0.883,-0.957 -5.027,-2.074 -7.722,-2.086 -2.176,-0.008 -2.618,0.805 -1.911,3.512 0.465,1.781 3.036,5.652 4.051,6.109 0.578,0.254 4.238,-0.093 4.817,-0.461 z m 10.718,-2.125 c 0.496,-0.511 0.746,-1.867 0.883,-4.777 0.102,-2.238 0.34,-4.066 0.527,-4.066 0.192,0 0.61,0.859 0.93,1.91 0.664,2.156 1.738,2.887 4.91,3.336 1.934,0.269 2.012,0.238 2.012,-0.86 0,-3.457 -2.793,-9.488 -5.859,-12.652 -2.707,-2.793 -4.676,-2.043 -6.914,2.633 -1.829,3.832 -2.743,11.617 -1.684,14.363 0.473,1.219 0.617,1.281 2.5,1.063 1.102,-0.129 2.312,-0.555 2.695,-0.95 z m 109.157,-0.398 c 0.238,-0.309 0.785,-2.07 1.214,-3.914 0.43,-1.844 1.301,-4.379 1.938,-5.633 1.141,-2.238 1.156,-2.406 1.058,-10.191 -0.089,-6.981 -0.207,-8.098 -0.976,-9.461 -0.945,-1.676 -2.805,-7.406 -3.563,-10.985 -0.324,-1.515 -1.07,-2.957 -2.339,-4.504 -2.582,-3.152 -4.262,-5.781 -6.106,-9.57 -1.359,-2.785 -2.058,-3.617 -4.973,-5.91 -1.863,-1.469 -4.398,-3.867 -5.628,-5.332 -1.911,-2.27 -2.813,-2.914 -6.114,-4.383 -4.879,-2.164 -9.304,-4.972 -14.039,-8.914 -2.039,-1.695 -3.941,-3.078 -4.234,-3.078 -0.293,0 -2.141,1.332 -4.106,2.957 -3.847,3.191 -10.773,6.895 -15.011,8.031 -2.52,0.676 -5.438,2.684 -6.637,4.574 -0.356,0.555 -2.488,2.336 -4.742,3.958 -3.852,2.769 -4.235,3.191 -6.246,6.886 -1.219,2.242 -3.473,5.41 -5.227,7.348 -2.926,3.23 -3.141,3.621 -4.109,7.371 -0.582,2.262 -1.817,5.406 -2.871,7.316 -1.836,3.325 -1.856,3.403 -2.102,8.879 -0.137,3.039 -0.375,6.395 -0.531,7.465 -0.223,1.547 -0.047,2.477 0.879,4.602 0.636,1.465 1.445,4.211 1.793,6.101 0.351,1.891 0.75,3.621 0.882,3.844 0.372,0.621 6.028,0.488 6.891,-0.16 0.699,-0.531 0.676,-0.754 -0.367,-3.402 -5.113,-12.985 -4.055,-26.731 2.914,-37.797 2.566,-4.075 9.207,-11.067 12.699,-13.368 3.227,-2.132 9.055,-4.578 13.746,-5.773 4.617,-1.176 13.477,-1.375 18.242,-0.406 7.165,1.453 15.465,5.457 20.793,10.031 3.735,3.207 8.418,9.43 10.622,14.113 2.929,6.231 3.789,9.821 4.05,16.895 0.262,7.117 -0.554,11.652 -3.144,17.43 -1.797,4.015 -1.86,4.554 -0.547,4.843 0.539,0.117 1.375,0.301 1.855,0.407 1.813,0.394 3.621,0.273 4.036,-0.27 z m 34.941,-5.676 c 0.539,-0.656 1.672,-2.543 2.512,-4.191 1.211,-2.371 1.554,-3.594 1.64,-5.856 0.098,-2.648 0.035,-2.871 -0.863,-3 -1.262,-0.187 -6.164,1.114 -7.43,1.973 -1.336,0.902 -1.41,3.973 -0.117,4.805 0.481,0.308 0.875,0.769 0.871,1.019 0,0.25 -1.094,1.719 -2.429,3.262 -1.336,1.547 -2.309,3.012 -2.161,3.258 0.164,0.277 1.582,0.347 3.633,0.187 2.93,-0.234 3.488,-0.418 4.344,-1.457 z m -47.043,-0.179 c 1.805,-3.02 3.684,-11.141 2.719,-11.754 -0.239,-0.153 -2.867,-0.411 -5.844,-0.575 -4.359,-0.242 -5.508,-0.175 -5.891,0.329 -0.656,0.863 -1.644,6.816 -1.675,10.062 -0.028,3.211 0.109,3.289 5.988,3.355 l 3.828,0.047 z m -36.941,0.152 c 0.136,-0.223 0.375,-3.156 0.531,-6.516 l 0.285,-6.105 -1.145,-0.449 c -0.628,-0.247 -3.66,-0.586 -6.734,-0.754 -6.004,-0.328 -6.258,-0.25 -6.793,2.004 -0.293,1.218 0.859,9.769 1.473,10.953 0.34,0.652 1.136,0.82 4.445,0.941 2.219,0.082 4.856,0.191 5.863,0.242 1.008,0.055 1.942,-0.09 2.075,-0.316 z m 18.515,-0.176 c 0.262,-0.324 0.918,-3.082 1.461,-6.125 0.973,-5.445 0.977,-5.551 0.152,-6.172 -1.125,-0.847 -11.695,-0.906 -12.367,-0.066 -0.531,0.664 -0.863,11.578 -0.375,12.39 0.485,0.809 10.477,0.782 11.129,-0.027 z m -37.777,-0.652 c 0.109,-0.184 -0.063,-2.059 -0.383,-4.168 -0.32,-2.106 -0.742,-4.93 -0.937,-6.278 -0.329,-2.281 -0.457,-2.48 -1.786,-2.832 -0.785,-0.211 -3.437,-0.324 -5.894,-0.254 -5.102,0.149 -4.785,-0.253 -3.824,4.86 0.773,4.121 1.738,6.777 2.902,7.976 0.91,0.942 1.398,1.036 5.363,1.036 2.399,0 4.449,-0.153 4.559,-0.34 z m -50.371,-2.563 c 0,-0.359 -0.18,-0.765 -0.403,-0.906 -0.773,-0.492 -4.398,-5.746 -4.398,-6.375 0,-0.348 0.371,-0.629 0.824,-0.629 1.082,0 1.571,-1.988 0.899,-3.66 -0.61,-1.516 -4.313,-3.145 -7.403,-3.254 l -1.965,-0.07 0.067,2.992 c 0.047,2.328 0.359,3.629 1.402,5.855 2.024,4.325 2.988,5.336 5.75,6.024 3.309,0.824 5.227,0.832 5.227,0.023 z m 145.023,-1.664 c 0.289,-0.555 0.43,-2.242 0.332,-4 -0.246,-4.488 -2.961,-9.937 -6.996,-14.043 -1.66,-1.691 -3.289,-3.07 -3.617,-3.07 -1.246,0 -3.594,3.543 -4.113,6.207 -0.86,4.402 -0.821,8.012 0.101,9.316 0.563,0.793 0.688,0.77 2.949,-0.476 2.239,-1.239 2.368,-1.406 2.497,-3.25 0.074,-1.071 0.332,-1.875 0.57,-1.793 0.242,0.082 0.883,1.281 1.426,2.66 1.289,3.269 5.066,9.41 5.789,9.41 0.312,0 0.789,-0.433 1.062,-0.961 z m -139.719,-7.519 c 1.356,-2.149 2.786,-4.567 3.176,-5.371 0.906,-1.864 1.473,-1.864 1.649,-0.004 0.113,1.234 0.507,1.695 2.519,2.929 3.36,2.071 3.711,1.625 3.723,-4.734 0.008,-4.383 -0.102,-5.051 -1.16,-7.117 -1.789,-3.5 -2.239,-3.742 -4.586,-2.457 -4.34,2.375 -9.211,9.715 -10.227,15.414 -0.476,2.652 -0.453,3.137 0.199,4.16 1.204,1.891 2.063,1.379 4.707,-2.82 z m 146.411,-2.348 c 2.562,-0.816 2.984,-1.117 3.757,-2.688 1.145,-2.312 1.946,-7.867 1.434,-9.921 -0.562,-2.258 -2.109,-2.289 -6.215,-0.121 l -3.238,1.71 -1.027,3.336 c -0.731,2.364 -0.895,3.481 -0.563,3.821 0.305,0.316 0.66,0.332 1.047,0.039 2.172,-1.645 2.941,-2.11 3.148,-1.899 0.129,0.133 -0.379,1.489 -1.121,3.008 -1.25,2.555 -1.39,3.633 -0.472,3.633 0.203,0 1.664,-0.414 3.25,-0.918 z m -42.133,-4.219 c 1.023,-1.273 -0.875,-9.312 -2.785,-11.781 -0.879,-1.137 -1.098,-1.188 -5.696,-1.254 -4.457,-0.07 -4.789,-0.012 -4.957,0.828 -0.242,1.227 0.809,10.758 1.27,11.528 0.703,1.175 11.293,1.765 12.168,0.679 z m -111.137,-0.832 c -0.168,-0.558 -0.867,-2.168 -1.555,-3.582 -1.496,-3.082 -0.996,-3.765 0.926,-1.265 1.469,1.918 3.059,2.414 3.059,0.96 0,-0.464 -0.293,-1.707 -0.656,-2.757 -0.36,-1.055 -0.653,-2.403 -0.653,-2.993 0,-0.812 -0.597,-1.468 -2.445,-2.687 -3.168,-2.09 -5.285,-2.984 -6.285,-2.656 -2.485,0.812 -2.223,9.972 0.367,12.871 1.211,1.351 4.805,3.055 6.535,3.097 0.852,0.02 0.965,-0.136 0.707,-0.988 z m 91.805,-0.125 c 0.41,-1.109 -0.508,-9.773 -1.196,-11.25 l -0.628,-1.351 h -10.907 l -0.121,6.078 c -0.109,5.32 -0.031,6.148 0.629,6.644 0.512,0.387 2.539,0.567 6.359,0.567 4.625,0 5.653,-0.121 5.864,-0.688 z m -20.098,-0.328 c 0.207,-0.309 0.379,-3.297 0.379,-6.644 v -6.082 l -5.16,-0.368 c -6.492,-0.465 -6.785,-0.308 -8.047,4.27 -0.504,1.82 -1.031,4.476 -1.172,5.91 -0.242,2.406 -0.187,2.633 0.727,3.012 1.586,0.656 12.816,0.574 13.273,-0.098 z m -21.242,-0.559 c 0.297,-0.367 0.699,-2.039 0.894,-3.714 0.196,-1.676 0.606,-4.211 0.915,-5.633 0.425,-1.977 0.437,-2.715 0.046,-3.113 -0.574,-0.594 -6.906,-1.09 -8.531,-0.672 -0.797,0.207 -1.402,1.07 -2.453,3.496 -1.586,3.66 -2.84,8.273 -2.496,9.199 0.164,0.441 1.281,0.668 3.855,0.773 1.993,0.086 4.438,0.196 5.426,0.247 1.156,0.058 1.996,-0.153 2.344,-0.583 z m 94.777,-2.71 c 1.364,-1.696 -1.113,-7.547 -4.859,-11.489 -2.727,-2.871 -6.84,-5.91 -9.863,-7.289 -1.766,-0.804 -2.051,-0.828 -2.641,-0.222 -1.043,1.078 -1.234,6.394 -0.344,9.558 0.899,3.188 2.696,6.969 3.317,6.969 0.242,0 1.269,-0.793 2.273,-1.762 l 1.832,-1.762 -0.758,-2.179 c -0.418,-1.199 -0.758,-2.36 -0.754,-2.574 0.004,-0.688 1.34,0.722 2.7,2.843 1.199,1.883 7.632,8.543 8.273,8.575 0.152,0.007 0.523,-0.293 0.824,-0.668 z m -136.332,-6.641 c 1.676,-1.301 3.867,-3.43 4.871,-4.731 1.004,-1.3 2.004,-2.363 2.223,-2.363 0.543,0 0.512,1.676 -0.035,2.028 -0.903,0.574 -0.379,1.898 1.508,3.808 2.324,2.356 2.652,2.211 4.601,-1.996 2.383,-5.156 2.727,-12.195 0.629,-13.023 -0.976,-0.387 -5.254,1.277 -7.851,3.054 -3.368,2.309 -7.438,6.375 -8.688,8.684 -2.094,3.859 -2.508,6.906 -0.941,6.906 0.351,0 2.007,-1.066 3.683,-2.367 z m 142.231,-0.215 c 2.836,-1.434 3.05,-1.93 3.05,-7.121 0,-6.352 -1.98,-9.035 -5.304,-7.188 -1.672,0.93 -6.711,5.973 -6.699,6.711 0,0.274 0.82,1.399 1.816,2.504 1.652,1.84 1.852,1.942 2.285,1.188 0.262,-0.457 0.832,-1.262 1.266,-1.789 0.879,-1.063 0.875,-1.274 0.027,3.879 -0.176,1.078 -0.078,1.929 0.274,2.367 0.683,0.851 0.429,0.894 3.285,-0.551 z m -148.692,-4.426 c 0.446,-0.554 0.461,-1.269 0.063,-3.465 -0.274,-1.523 -0.387,-2.878 -0.254,-3.015 0.133,-0.141 0.637,0.305 1.117,0.988 1.156,1.637 2.074,1.559 3.852,-0.332 1.382,-1.473 1.437,-1.641 0.863,-2.742 -0.77,-1.484 -5.699,-6.266 -7.387,-7.168 -1.695,-0.902 -2.226,-0.613 -3.519,1.891 -0.957,1.863 -1.086,2.668 -1.086,6.832 v 4.722 l 2.402,1.492 c 2.719,1.692 3.16,1.778 3.949,0.797 z m 100.426,-4.031 c 0,-1.043 -3.078,-3.977 -7.07,-6.734 -5.309,-3.664 -5.598,-3.45 -2.852,2.117 l 2.281,4.617 2.618,0.262 c 4.714,0.472 5.023,0.457 5.023,-0.262 z m -14.848,-0.492 c 0,-1.313 -4.058,-8.844 -5.765,-10.692 -2.395,-2.601 -2.844,-1.953 -3.223,4.661 -0.348,6.05 -0.293,6.156 3.324,6.414 5.43,0.382 5.664,0.367 5.664,-0.383 z m -15.761,-0.36 c 0.336,-0.417 0.461,-2.472 0.379,-6.195 l -0.121,-5.566 -1.239,-0.149 c -0.75,-0.086 -1.597,0.18 -2.14,0.676 -1.121,1.024 -5.989,8.578 -6.079,9.434 -0.035,0.343 -0.082,0.879 -0.105,1.187 -0.043,0.524 1.113,0.696 7.652,1.16 0.633,0.043 1.375,-0.203 1.653,-0.547 z m -15.582,-3.609 c 2.754,-5.203 2.101,-5.555 -3.391,-1.824 -3.652,2.48 -5.187,4.043 -4.734,4.801 0.132,0.218 1.64,0.336 3.359,0.265 l 3.121,-0.133 z m 81.382,-0.359 c -0.394,-2.567 -1.507,-4.285 -4.835,-7.5 -4.575,-4.414 -12.055,-8.442 -15.016,-8.09 -1.121,0.137 -1.145,0.211 -1.121,3.355 0.023,2.668 0.262,3.707 1.398,6.082 0.758,1.575 2.262,3.879 3.344,5.118 l 1.965,2.25 1.531,-1.801 c 1.887,-2.219 1.942,-3.289 0.254,-4.953 -1.273,-1.262 -1.723,-2.481 -0.91,-2.481 0.219,0 1.937,1.492 3.82,3.317 3.731,3.613 7.754,6.535 9.047,6.574 0.719,0.019 0.781,-0.207 0.523,-1.871 z m 6.454,-1.364 c 2.507,-2.011 2.523,-2.046 2.332,-5.078 -0.321,-5.093 -3.43,-11.039 -5.77,-11.039 -1.113,0 -3.836,2.895 -5.223,5.555 l -0.828,1.582 1.637,2.066 c 1.836,2.309 2.219,2.461 2.898,1.149 0.774,-1.488 1.305,-0.567 1.305,2.262 0,2.875 0.563,4.957 1.344,4.957 0.273,0 1.309,-0.653 2.305,-1.454 z m -114.457,-3.421 c 2.8,-3.399 4.703,-7.289 4.996,-10.223 0.41,-4.106 -1.02,-4.727 -6.227,-2.707 -5.363,2.086 -9.023,4.387 -12.535,7.894 -3.176,3.172 -3.387,3.5 -3.387,5.297 0,1.391 0.176,1.91 0.649,1.91 1.254,0 6.004,-2.683 7.84,-4.425 3.585,-3.414 5.839,-4.262 3.82,-1.442 -0.524,0.731 -0.953,1.555 -0.953,1.836 0,0.86 2.761,4.524 3.304,4.387 0.286,-0.07 1.407,-1.207 2.493,-2.527 z m -19.918,-4.047 c 0.257,-3.473 0.726,-4.555 1.296,-3.016 0.141,0.371 0.618,0.676 1.063,0.676 1.008,0 3.902,-2.559 3.902,-3.449 0,-2.262 -4.273,-7.364 -6.168,-7.364 -1.476,0 -3.125,1.93 -4.812,5.633 -1.242,2.727 -2.344,7.352 -1.871,7.844 0.14,0.144 1.371,1.207 2.73,2.359 3.09,2.617 3.485,2.34 3.86,-2.683 z m 126.339,-10.18 c 0.028,-2.031 -2.742,-6.648 -5.671,-9.445 -1.461,-1.395 -2.942,-2.535 -3.286,-2.535 -0.671,0 -3.043,3.109 -3.5,4.589 -0.191,0.629 0.102,1.305 0.969,2.25 1.313,1.422 3.391,2.735 3.746,2.364 0.403,-0.414 1.098,0.949 2.082,4.086 1.453,4.625 1.563,4.687 3.762,2.156 1.273,-1.465 1.883,-2.578 1.898,-3.465 z m -22.293,2.277 0.637,-2.117 -1.828,-1.922 c -3.023,-3.179 -2.383,-3.433 1.707,-0.675 2.867,1.929 10.402,5.32 11.828,5.32 1.02,0 0.996,-0.285 -0.207,-2.477 -2.566,-4.676 -15.941,-11.39 -21.816,-10.949 -1.676,0.125 -1.867,0.262 -1.996,1.414 -0.246,2.227 1.945,5.832 6.086,10.008 2.117,2.141 4.101,3.809 4.402,3.703 0.301,-0.102 0.836,-1.141 1.187,-2.305 z m -72.335,-1.672 c 4.355,-2.976 9.554,-10.257 8.789,-12.308 -1.18,-3.176 -16.313,0.957 -23.145,6.316 -1.668,1.313 -3.164,4.02 -2.562,4.641 0.558,0.574 7.191,-1.582 11.554,-3.758 3.453,-1.723 4.481,-1.516 2.223,0.445 -0.742,0.641 -1.344,1.403 -1.34,1.692 0.02,0.883 1.672,4.351 2.078,4.351 0.211,0 1.293,-0.621 2.403,-1.379 z m -20.582,-2.968 c 1.363,-3.633 1.574,-3.938 3.121,-4.489 2.191,-0.785 4.238,-2.32 4.238,-3.187 0,-1.375 -2.32,-5.113 -3.336,-5.379 -2.738,-0.707 -9.766,7.32 -9.766,11.152 0,1.012 3.219,5.797 3.903,5.797 0.207,0 1.035,-1.754 1.84,-3.894 z m 77.738,-7.367 c -0.18,-2.352 -0.496,-2.852 -2.266,-3.61 -1.512,-0.648 -1.75,-1.558 -0.312,-1.215 2.257,0.543 6.066,1.223 10.371,1.856 5.398,0.789 6.265,0.449 3.929,-1.547 -3.578,-3.066 -11.492,-5.113 -19.652,-5.086 -4.933,0.016 -7.422,0.527 -7.422,1.523 0,0.278 1.227,1.762 2.731,3.301 1.988,2.035 3.855,3.375 6.875,4.926 2.285,1.172 4.543,2.074 5.023,2.004 0.754,-0.106 0.852,-0.402 0.723,-2.152 z m 22.629,0.48 c 0.246,-0.48 0.449,-1.523 0.449,-2.324 0,-1.223 -0.566,-2.028 -3.602,-5.102 -4.097,-4.156 -8.125,-6.664 -9.386,-5.844 -0.481,0.313 -0.766,1.059 -0.766,1.997 0,1.32 0.254,1.648 2.184,2.808 2.992,1.797 4.507,3.344 5.613,5.735 0.629,1.359 1.437,2.285 2.465,2.812 1.953,1.008 2.484,0.992 3.043,-0.082 z m -62.95,-0.977 c 4.696,-1.632 11.36,-6.699 10.86,-8.25 -0.395,-1.222 -4.024,-2.015 -9.332,-2.039 -8.66,-0.043 -14.52,1.106 -17.5,3.422 -2.61,2.028 -2,2.43 3.273,2.168 6.078,-0.301 9.262,-0.586 10.481,-0.933 1.465,-0.422 1.191,0.527 -0.344,1.179 -1.543,0.66 -2.168,1.668 -2.168,3.493 0,2.253 0.645,2.386 4.73,0.96 z m -24.085,-1.964 c 0.546,-0.161 1.519,-1.317 2.273,-2.692 1.414,-2.59 2.453,-3.512 6.078,-5.394 2.586,-1.344 3.047,-2.067 2.34,-3.672 -1.176,-2.66 -6.367,-0.504 -11.531,4.785 -1.864,1.906 -3.387,3.746 -3.383,4.086 0,1.269 1.742,3.605 2.519,3.383 0.414,-0.117 1.18,-0.344 1.704,-0.496 z m 47.742,-8.536 c 1.664,-0.617 2.222,-2.003 1.172,-2.902 -0.719,-0.613 -10.727,-1.496 -12.598,-1.109 -0.691,0.14 -1.363,0.437 -1.492,0.656 -0.406,0.672 0.269,2.164 1.211,2.684 2.211,1.222 9.152,1.621 11.707,0.671 z m 19.652,-0.679 c 0,-0.621 -3.086,-3.02 -5.746,-4.461 -1.293,-0.703 -3.699,-1.653 -5.348,-2.113 -2.941,-0.821 -3.004,-0.821 -3.609,0.035 -0.664,0.937 -0.426,3.988 0.394,5.039 0.254,0.32 1.493,0.574 2.899,0.59 1.351,0.015 3.934,0.296 5.734,0.621 4.098,0.738 5.676,0.82 5.676,0.289 z m -35.461,-3.414 c 0.313,-0.977 0.508,-2.391 0.438,-3.141 -0.106,-1.098 -0.356,-1.391 -1.286,-1.504 -3.425,-0.41 -13.476,4.031 -13.476,5.953 0,0.336 2.184,0.489 6.879,0.481 l 6.879,-0.012 z m 106.66,-61.832 c 0.008,-0.188 -4.304,-4.696 -9.582,-10.024 -5.277,-5.328 -17.711,-17.91 -27.636,-27.965 -9.922,-10.054 -24.618,-24.851 -32.657,-32.886 -8.039,-8.035 -16.484,-16.485 -18.769,-18.774 -2.285,-2.293 -4.395,-4.168 -4.688,-4.168 -0.293,0 -5.703,4.582 -12.019,10.184 -13.196,11.699 -29.141,25.734 -35.532,31.277 -2.417,2.098 -12.128,10.606 -21.574,18.906 -9.445,8.301 -18.179,15.918 -19.402,16.93 -1.227,1.016 -3.703,3.293 -5.504,5.07 -3.777,3.719 -3.512,3.696 4.289,-0.335 19.051,-9.852 43.34,-16.715 65.586,-18.536 8.238,-0.675 24.52,-0.679 31.441,-0.007 30.164,2.921 57.61,12.582 82.282,28.953 2.468,1.64 3.738,2.101 3.765,1.375 z M 451.945,112.25 c -6.554,-1.891 -10.074,-6.332 -10.132,-12.781 -0.083,-9.024 8.238,-15.492 17.406,-13.539 3.535,0.75 5.375,1.824 7.691,4.48 2.578,2.957 3.543,5.879 3.266,9.867 -0.242,3.489 -1.289,5.86 -3.746,8.469 -3.164,3.367 -9.59,4.918 -14.485,3.504 z m 6.649,-7.863 c 0.535,-1.11 0.761,-2.653 0.761,-5.184 0,-4.762 -0.863,-6.699 -3.078,-6.89 -1.144,-0.098 -1.773,0.121 -2.402,0.835 -0.73,0.836 -0.852,1.645 -0.852,5.786 0,5.98 0.629,7.386 3.196,7.168 1.344,-0.118 1.734,-0.399 2.375,-1.715 z m -48.285,7.82 c -0.164,-0.172 -0.301,-1.488 -0.301,-2.926 0,-2.152 0.152,-2.695 0.875,-3.093 0.808,-0.446 0.871,-0.942 0.871,-6.758 0,-5.86 -0.059,-6.309 -0.895,-6.77 -0.773,-0.43 -0.875,-0.855 -0.761,-3.281 l 0.129,-2.789 h 10.699 c 10.344,0 10.769,0.035 12.781,1.058 4.297,2.184 5.555,7.407 2.555,10.602 -0.75,0.797 -1.36,1.809 -1.36,2.246 0,1.363 2.215,4.785 3.563,5.504 1.234,0.656 1.277,0.785 1.152,3.477 l -0.129,2.793 h -9.16 l -2.484,-4.731 c -2.477,-4.719 -3.922,-6.273 -5.321,-5.723 -1.121,0.446 -0.992,3.743 0.168,4.383 0.778,0.43 0.879,0.856 0.766,3.281 l -0.129,2.79 -6.359,0.125 c -3.496,0.066 -6.492,-0.016 -6.66,-0.188 z m 16.644,-16.019 c 0.742,-0.766 0.649,-2.422 -0.183,-3.282 -0.497,-0.511 -1.313,-0.687 -2.731,-0.593 -1.941,0.128 -2.027,0.195 -2.16,1.64 -0.227,2.406 0.098,2.774 2.441,2.774 1.16,0 2.344,-0.243 2.633,-0.539 z"
       style="fill:#0a0a0a;fill-opacity:1;fill-rule:nonzero;stroke:none"
       transform="scale(1.3333333)" />
  </g>
</svg>
