<?xml version="1.0" encoding="UTF-8" standalone="no"?>
<!-- Created with Inkscape (http://www.inkscape.org/) -->

<svg
   version="1.1"
   id="svg1"
   width="1122.5197"
   height="793.70074"
   viewBox="0 0 1122.5197 793.70074"
   xmlns="http://www.w3.org/2000/svg"
   xmlns:svg="http://www.w3.org/2000/svg">
  <defs
     id="defs1" />
  <g
     id="g1">
    <path
       id="path1"
       d="m 228.789,395.664 c -0.226,-0.492 -0.199,-0.68 0.152,-1.07 0.348,-0.383 0.801,-0.485 2.379,-0.539 l 1.95,-0.071 v -130.8 l -1.907,-0.071 c -1.05,-0.039 -2.05,-0.187 -2.218,-0.328 -0.454,-0.375 -0.383,-1.262 0.128,-1.726 0.399,-0.364 1.364,-0.395 10.02,-0.336 l 9.578,0.062 0.067,3.418 c 0.039,1.883 0.156,3.422 0.269,3.422 0.109,0 0.719,-0.891 1.348,-1.98 0.656,-1.129 1.84,-2.668 2.75,-3.582 1.988,-1.993 3.316,-2.473 6.39,-2.309 2.805,0.144 4.926,1.207 7.203,3.605 3.082,3.243 5.25,7.746 6.954,14.442 2.441,9.578 3.445,25.101 2.738,42.383 -0.774,19.039 -2.895,29.175 -7.59,36.277 -4,6.051 -10.941,7.918 -15.426,4.148 -0.418,-0.351 -1.25,-1.332 -1.851,-2.171 -0.602,-0.844 -1.192,-1.536 -1.313,-1.536 -0.133,0 -0.195,7.395 -0.16,18.543 l 0.063,18.539 2.812,0.121 c 2.223,0.094 2.898,0.204 3.223,0.532 0.336,0.34 0.359,0.515 0.132,1.019 l -0.277,0.61 h -27.14 z M 258.07,357.02 c 0.395,-0.332 0.918,-1.114 1.16,-1.739 0.422,-1.086 0.446,-3.047 0.504,-44.097 0.047,-30.317 -0.011,-43.332 -0.195,-44.223 -0.301,-1.438 -1.172,-2.613 -2.285,-3.078 -2.41,-1.008 -5.367,2.191 -6.508,7.039 -0.41,1.758 -0.433,3.965 -0.433,39.902 0,35.516 0.027,38.168 0.421,39.949 0.981,4.403 2.942,6.848 5.5,6.852 0.848,0 1.293,-0.148 1.836,-0.605 z m -58.277,5.488 c -6.484,-0.856 -10.82,-4.203 -14.355,-11.094 -2.93,-5.703 -4.153,-10.898 -4.954,-21.031 -0.8,-10.149 -0.918,-14.102 -0.781,-26.039 0.168,-14.274 0.477,-17.844 2.121,-24.668 2.453,-10.18 7.371,-16.899 14.129,-19.293 1.363,-0.485 2.004,-0.551 5.16,-0.547 3.285,0 3.75,0.059 5.36,0.637 2.547,0.922 4.215,1.992 6.285,4.031 4.676,4.609 7.832,12.269 9.344,22.68 0.82,5.644 1.039,12.464 0.894,27.601 -0.129,13.574 -0.25,16.16 -1.016,21.598 -1.808,12.847 -6.257,21.273 -12.906,24.465 -1.211,0.582 -2.758,1.168 -3.437,1.308 -1.512,0.309 -4.703,0.5 -5.844,0.352 z m 4.262,-3.113 c 1.082,-0.786 1.699,-2.348 1.984,-5.012 0.172,-1.629 0.231,-15.852 0.18,-44.278 -0.071,-39.289 -0.102,-41.968 -0.5,-43.308 -0.867,-2.902 -2.231,-4.25 -4.449,-4.391 -1.563,-0.101 -2.461,0.328 -3.485,1.672 -1.433,1.879 -1.371,-0.332 -1.297,46.652 l 0.067,42.934 0.543,1.918 c 0.914,3.227 2.39,4.543 4.918,4.379 0.882,-0.055 1.617,-0.258 2.039,-0.566 z m 170.695,3.113 c -6.484,-0.856 -10.816,-4.203 -14.355,-11.094 -2.926,-5.703 -4.149,-10.898 -4.95,-21.031 -0.8,-10.149 -0.922,-14.102 -0.781,-26.039 0.168,-14.274 0.477,-17.844 2.117,-24.668 2.453,-10.18 7.375,-16.899 14.129,-19.293 1.367,-0.485 2.008,-0.551 5.16,-0.547 3.289,0 3.754,0.059 5.364,0.637 2.546,0.922 4.214,1.992 6.285,4.031 4.672,4.609 7.828,12.269 9.344,22.68 0.816,5.644 1.039,12.464 0.894,27.601 -0.129,13.574 -0.25,16.16 -1.016,21.598 -1.812,12.847 -6.257,21.273 -12.91,24.465 -1.211,0.582 -2.758,1.168 -3.437,1.308 -1.512,0.309 -4.703,0.5 -5.844,0.352 z m 4.266,-3.113 c 1.078,-0.786 1.699,-2.348 1.98,-5.012 0.176,-1.629 0.234,-15.852 0.184,-44.278 -0.071,-39.289 -0.102,-41.968 -0.5,-43.308 -0.867,-2.902 -2.231,-4.25 -4.453,-4.391 -1.559,-0.101 -2.457,0.328 -3.481,1.672 -1.433,1.879 -1.371,-0.332 -1.301,46.652 l 0.071,42.934 0.543,1.918 c 0.914,3.227 2.39,4.543 4.918,4.379 0.882,-0.055 1.617,-0.258 2.039,-0.566 z m 27.332,2.832 c -0.364,-0.403 -0.395,-2.329 -0.395,-22.747 0,-19.804 0.039,-22.371 0.371,-22.843 0.43,-0.614 1.117,-0.692 1.543,-0.176 0.176,0.211 0.485,2.359 0.746,5.219 0.789,8.566 1.891,15.113 3.477,20.679 3.172,11.125 6.617,16.278 10.902,16.309 1.621,0.012 2.91,-0.609 4.184,-2.016 1.777,-1.972 2.449,-4.562 2.219,-8.586 -0.45,-7.929 -2.809,-14.992 -11.665,-34.914 -6.671,-15.007 -8.847,-20.863 -10.14,-27.32 -0.731,-3.648 -0.789,-9.949 -0.117,-12.687 1.445,-5.864 5.554,-10.793 10.597,-12.715 2.008,-0.762 5.723,-0.946 7.7,-0.375 1.925,0.558 4.293,1.828 6.07,3.261 0.812,0.653 1.621,1.188 1.805,1.188 0.179,0 1.269,-0.836 2.421,-1.859 2.922,-2.594 3.668,-3.094 4.164,-2.782 0.368,0.235 0.407,1.926 0.461,20.723 0.047,14.922 -0.011,20.555 -0.207,20.793 -0.351,0.422 -1.277,0.418 -1.629,-0.008 -0.152,-0.183 -0.488,-2.586 -0.742,-5.34 -1.343,-14.414 -3.797,-24.64 -7.117,-29.652 -1.75,-2.645 -3.711,-3.738 -6.238,-3.481 -2.199,0.227 -3.797,1.465 -4.852,3.766 -0.523,1.133 -0.605,1.641 -0.586,3.602 0.063,5.976 2.938,13.953 10.996,30.484 7.188,14.75 9.543,20.5 11.375,27.754 2.657,10.516 2.086,19.016 -1.699,25.476 -0.441,0.75 -1.828,2.395 -3.082,3.657 -1.898,1.91 -2.617,2.457 -4.32,3.277 -2.539,1.227 -4.113,1.602 -6.719,1.598 -4.32,-0.004 -7.461,-1.711 -10.582,-5.754 -0.547,-0.711 -1.129,-1.293 -1.293,-1.293 -0.387,0 -2.289,2.043 -4.137,4.441 -1.222,1.59 -2.496,2.758 -3.007,2.758 -0.059,0 -0.286,-0.195 -0.504,-0.437 z m 88.293,0.171 c -5.098,-0.742 -9.813,-3.968 -13.012,-8.898 -2.613,-4.027 -4.219,-10.301 -5.281,-20.598 -0.375,-3.636 -0.434,-6.566 -0.434,-21.957 -0.004,-19.023 0.039,-19.843 1.32,-26.23 1.688,-8.426 4.985,-15.492 9.243,-19.797 3.601,-3.648 7.121,-5.203 11.777,-5.211 4.234,-0.008 7.582,1.313 10.609,4.18 4.84,4.586 8.082,12.449 9.563,23.176 0.336,2.449 0.418,4.953 0.429,13.562 l 0.016,10.559 -13.078,0.121 -13.082,0.121 -0.07,19.437 c -0.071,19.668 -0.004,21.606 0.816,24.375 0.453,1.528 1.731,2.957 3.106,3.485 1.683,0.64 4.457,0.39 6.441,-0.586 4.746,-2.34 9.191,-9.938 11.176,-19.114 0.84,-3.886 1.203,-7.031 1.453,-12.679 0.133,-2.926 0.301,-5.606 0.371,-5.953 0.301,-1.422 1.836,-1.852 2.457,-0.688 0.496,0.934 0.23,10.719 -0.398,14.832 -0.93,6.031 -2.305,10.762 -4.458,15.301 -3.644,7.699 -8.242,11.715 -14.386,12.57 -2.086,0.289 -2.539,0.289 -4.578,-0.008 z m 7.492,-74.609 c 0.055,-18.516 0.015,-21.148 -0.317,-22.32 -0.566,-1.977 -1.332,-3.004 -2.601,-3.489 -2.215,-0.843 -4.66,0.25 -5.891,2.641 l -0.613,1.192 -0.066,21.238 c -0.036,11.683 -0.008,21.379 0.054,21.551 0.094,0.246 1.129,0.296 4.746,0.246 l 4.625,-0.063 z m 31.617,74.652 c -3.215,-0.777 -6.117,-4.136 -6.832,-7.91 -0.551,-2.894 -0.141,-7.086 0.922,-9.492 0.644,-1.457 2.519,-3.41 3.98,-4.152 0.739,-0.371 1.774,-0.653 2.68,-0.727 4.133,-0.332 7.496,2.262 8.641,6.664 0.523,2.028 0.531,6.074 0.007,8.098 -0.996,3.855 -3.39,6.558 -6.546,7.379 -1.504,0.39 -1.758,0.406 -2.852,0.14 z m 75.949,-0.019 c -3.965,-0.625 -6.57,-2.555 -8.027,-5.957 -0.465,-1.086 -0.484,-1.719 -0.551,-21.16 -0.051,-13.938 0.012,-20.516 0.195,-21.602 0.372,-2.156 1.461,-4.332 2.731,-5.441 1.824,-1.602 6.09,-3.516 13.824,-6.207 4.039,-1.403 7.805,-2.942 8.805,-3.598 l 0.554,-0.363 v -14.489 c 0,-14.027 -0.015,-14.542 -0.5,-16.117 -0.417,-1.343 -0.742,-1.863 -1.863,-2.984 -1.699,-1.699 -2.933,-2.16 -5.797,-2.16 -3.422,0 -6.066,1.035 -8.449,3.308 -1.691,1.614 -3.832,4.852 -3.203,4.852 0.055,0 0.84,-0.172 1.738,-0.383 2.032,-0.48 4.547,-0.332 6.145,0.359 1.551,0.668 3.547,2.61 4.332,4.208 0.351,0.722 0.769,2.128 0.922,3.125 0.738,4.753 -1.336,9.097 -5.176,10.839 -1.887,0.86 -5.34,1.082 -7.406,0.481 -3.852,-1.121 -6.02,-4.414 -6.332,-9.629 -0.461,-7.801 4.175,-14.848 11.789,-17.895 3.64,-1.457 5.648,-1.765 11.64,-1.773 5.7,-0.012 6.719,0.109 10.145,1.227 4.262,1.382 7.359,4.585 8.469,8.753 0.289,1.094 0.343,7.625 0.343,43.102 0.004,45.687 -0.07,43.168 1.336,44.094 1.59,1.039 3.528,-0.309 5.5,-3.824 1.2,-2.137 1.629,-2.426 2.371,-1.606 0.582,0.645 0.489,1.461 -0.359,3.16 -0.863,1.731 -3.051,4.071 -5.004,5.356 -4.707,3.097 -12.066,3.289 -16.035,0.414 -1.543,-1.121 -2.941,-3.395 -3.887,-6.324 -0.285,-0.879 -0.605,-1.653 -0.711,-1.719 -0.105,-0.067 -0.879,0.824 -1.711,1.976 -3.031,4.184 -6.019,6.625 -9.277,7.582 -1.609,0.473 -4.828,0.668 -6.551,0.395 z m 11.668,-6.008 c 1.582,-0.976 3.985,-5.453 5.078,-9.469 l 0.657,-2.402 0.148,-43.078 h -0.492 c -0.735,0 -4.524,1.969 -5.934,3.082 -1.406,1.113 -2.281,2.723 -2.691,4.941 -0.176,0.965 -0.262,8.492 -0.262,23.282 0,20.328 0.031,21.914 0.422,22.691 0.402,0.805 1.254,1.434 1.949,1.441 0.184,0 0.688,-0.218 1.125,-0.488 z m 47.985,6.106 c -3.985,-0.543 -5.926,-1.383 -7.844,-3.399 -1.477,-1.547 -2.149,-2.707 -2.778,-4.789 -0.386,-1.289 -0.425,-4.539 -0.539,-46.269 l -0.121,-44.879 -1.769,-0.121 c -1.457,-0.098 -1.832,-0.208 -2.106,-0.622 -0.293,-0.441 -0.273,-0.578 0.172,-1.14 l 0.504,-0.641 20,0.125 0.121,47.719 0.121,47.723 0.567,0.457 c 0.679,0.55 2.172,0.605 3.121,0.117 2.285,-1.184 4.887,-6.039 5.547,-10.352 0.172,-1.136 0.234,-14.652 0.187,-42.465 l -0.062,-40.8 -1.91,-0.071 c -1.051,-0.039 -2.047,-0.187 -2.219,-0.328 -0.449,-0.375 -0.383,-1.262 0.129,-1.726 0.402,-0.364 1.414,-0.395 10.742,-0.336 l 10.297,0.062 0.121,49.078 0.117,49.082 1.672,0.071 c 0.918,0.039 1.808,0.187 1.98,0.328 0.407,0.34 0.395,1.508 -0.019,1.855 -0.235,0.196 -3.188,0.254 -10.5,0.207 l -10.172,-0.062 -0.066,-3.301 c -0.036,-1.813 -0.153,-3.301 -0.258,-3.301 -0.102,0 -0.871,0.867 -1.707,1.93 -2.332,2.961 -4.672,4.629 -7.543,5.375 -1.414,0.367 -4.625,0.629 -5.785,0.473 z m 50.16,-0.079 c -3.219,-0.777 -6.121,-4.136 -6.836,-7.91 -0.547,-2.894 -0.141,-7.086 0.926,-9.492 0.644,-1.457 2.515,-3.41 3.98,-4.152 0.734,-0.371 1.773,-0.653 2.676,-0.727 4.133,-0.332 7.496,2.262 8.64,6.664 0.528,2.028 0.532,6.074 0.008,8.102 -0.992,3.851 -3.39,6.554 -6.547,7.375 -1.5,0.39 -1.754,0.406 -2.847,0.14 z m -614.121,-1.136 c -0.282,-0.282 -0.172,-1.692 0.156,-1.961 0.172,-0.145 1.539,-0.293 3.058,-0.332 l 2.747,-0.067 V 222.863 l -2.989,-0.066 c -2.355,-0.055 -3.082,-0.152 -3.422,-0.457 -0.55,-0.5 -0.546,-1.094 0.008,-1.598 0.399,-0.363 1.871,-0.398 16.196,-0.398 h 15.753 l 0.383,0.586 c 0.297,0.449 0.324,0.691 0.121,1.074 -0.343,0.641 -0.789,0.73 -3.972,0.801 l -2.637,0.058 -0.063,33.68 c -0.046,25.145 0.008,33.66 0.215,33.59 0.309,-0.102 21.254,-50.91 22.164,-53.766 0.891,-2.797 1.211,-5.691 0.864,-7.758 -0.657,-3.855 -2.883,-5.839 -6.578,-5.859 -0.633,-0.004 -1.364,-0.117 -1.618,-0.254 -0.527,-0.281 -0.632,-1.406 -0.179,-1.863 0.418,-0.414 24.211,-0.414 24.625,0 0.386,0.383 0.367,1.269 -0.032,1.597 -0.179,0.149 -1.468,0.418 -2.867,0.602 -2.859,0.371 -3.945,0.867 -5.687,2.598 -2.657,2.636 -4.223,5.879 -12.199,25.273 l -6.02,14.641 12.215,46.539 c 6.719,25.597 12.269,46.68 12.336,46.851 0.086,0.223 0.836,0.332 2.586,0.383 2.441,0.067 2.468,0.074 2.695,0.719 0.18,0.519 0.137,0.754 -0.211,1.141 -0.434,0.48 -0.672,0.488 -15.641,0.488 h -15.195 l -0.394,-0.602 c -0.364,-0.554 -0.364,-0.644 0,-1.199 0.386,-0.586 0.461,-0.601 3.375,-0.601 1.636,0 3.035,-0.086 3.101,-0.196 0.067,-0.105 -3.762,-14.488 -8.508,-31.961 -4.742,-17.472 -8.625,-31.804 -8.625,-31.847 0,-0.039 -0.109,-0.075 -0.242,-0.075 -0.16,0 -0.219,10.704 -0.18,31.981 l 0.063,31.98 3.223,0.067 c 1.875,0.039 3.355,0.176 3.539,0.328 0.453,0.375 0.39,1.262 -0.121,1.726 -0.399,0.364 -1.871,0.399 -16.161,0.399 -8.648,0 -15.793,-0.074 -15.882,-0.16 z m 177.25,-0.129 c -0.383,-0.383 -0.368,-1.508 0.023,-1.832 0.172,-0.145 1.332,-0.293 2.582,-0.328 l 2.266,-0.071 v -95.761 l -2.387,-0.071 c -1.312,-0.035 -2.527,-0.183 -2.699,-0.328 -0.41,-0.34 -0.399,-0.953 0.027,-1.535 0.281,-0.391 0.723,-0.484 2.699,-0.586 l 2.36,-0.121 0.14,-10.078 c 0.153,-10.813 0.36,-13.141 1.555,-17.356 1.652,-5.824 5.301,-10.519 9.871,-12.703 4.629,-2.207 9.231,-1.402 12.887,2.254 4.719,4.719 5.336,12.875 1.308,17.262 -3.222,3.508 -8.14,2.859 -10.293,-1.359 -1.066,-2.094 -1.05,-6.102 0.04,-8.633 0.925,-2.149 3.066,-3.621 5.839,-4.02 0.645,-0.09 1.215,-0.293 1.266,-0.449 0.164,-0.484 -1.676,-2.285 -2.934,-2.871 -1.628,-0.762 -3.652,-0.762 -5.281,0 -1.633,0.762 -3.769,3.101 -4.422,4.848 -1.781,4.753 -1.019,9.824 3.082,20.55 2.332,6.102 2.746,7.391 3.375,10.492 l 0.418,2.063 5.575,0.121 c 5.164,0.109 5.597,0.156 5.914,0.586 0.449,0.617 0.429,0.938 -0.094,1.414 -0.371,0.332 -1.238,0.399 -5.942,0.457 l -5.503,0.063 v 95.761 l 5.039,0.145 c 2.773,0.082 5.226,0.164 5.453,0.18 0.629,0.05 1.011,0.937 0.695,1.625 l -0.258,0.57 h -16.156 c -12.246,0 -16.227,-0.07 -16.445,-0.289 z m 37.308,-0.153 c -1.074,-1.183 -0.164,-1.918 2.489,-2.007 l 2.035,-0.071 V 222.863 l -2.176,-0.136 c -1.195,-0.075 -2.305,-0.219 -2.461,-0.313 -0.391,-0.242 -0.359,-1.469 0.043,-1.805 0.234,-0.195 3.316,-0.254 10.98,-0.207 l 10.653,0.063 0.121,69.238 0.117,69.242 1.98,0.071 c 1.805,0.062 2.02,0.121 2.372,0.656 0.355,0.547 0.355,0.641 -0.008,1.191 l -0.395,0.602 h -12.676 c -11.976,0 -12.699,-0.024 -13.074,-0.442 z m 248.828,-0.054 c -0.285,-0.317 -0.554,-1.227 -0.757,-2.578 -0.168,-1.149 -3.118,-30.219 -6.547,-64.606 -3.43,-34.387 -6.426,-64.41 -6.66,-66.722 l -0.422,-4.2 -2.641,-0.117 c -1.449,-0.066 -2.773,-0.211 -2.937,-0.316 -0.403,-0.258 -0.383,-1.477 0.027,-1.817 0.234,-0.199 4.594,-0.254 15.89,-0.211 l 15.571,0.063 0.23,0.652 c 0.18,0.516 0.137,0.754 -0.215,1.141 -0.394,0.437 -0.73,0.488 -3.402,0.488 h -2.961 l 0.008,1.258 c 0.008,0.691 1.766,23.5 3.906,50.684 2.84,36.027 3.973,49.445 4.188,49.519 0.164,0.055 0.297,-0.098 0.297,-0.332 0,-0.234 2.437,-21.172 5.414,-46.52 5.922,-50.398 5.875,-49.859 4.703,-52.261 -0.735,-1.508 -1.781,-2.133 -3.832,-2.289 -0.883,-0.067 -1.742,-0.231 -1.907,-0.36 -0.441,-0.351 -0.363,-1.246 0.145,-1.707 0.395,-0.359 1.219,-0.394 7.98,-0.336 l 7.536,0.063 v 0.832 c 0,0.719 -0.098,0.867 -0.719,1.055 -1.547,0.468 -2.129,0.738 -2.805,1.304 -1.187,1.004 -2.25,3.512 -2.929,6.926 -0.208,1.035 -3.727,30.016 -7.829,64.402 -4.097,34.387 -7.57,63.207 -7.714,64.051 -0.426,2.473 -0.317,2.43 -6.165,2.43 -4.746,0 -5.027,-0.027 -5.453,-0.492 z"
       style="fill:#040404;fill-opacity:1;fill-rule:nonzero;stroke:none"
       transform="scale(1.3333333)" />
  </g>
</svg>
