<?xml version="1.0" encoding="UTF-8" standalone="no"?>
<!-- Created with Inkscape (http://www.inkscape.org/) -->

<svg
   version="1.1"
   id="svg1"
   width="1122.5197"
   height="793.70074"
   viewBox="0 0 1122.5197 793.70074"
   xmlns="http://www.w3.org/2000/svg"
   xmlns:svg="http://www.w3.org/2000/svg">
  <defs
     id="defs1" />
  <g
     id="g1">
    <path
       id="path1"
       d="m 432.813,44.496 c -8.27,0.004 -14.09,0.555 -16.036,1.535 -3.109,1.571 -2.918,3.055 1.344,10.43 0.879,1.516 1.813,3.461 2.082,4.316 0.567,1.821 0.688,3.875 0.254,4.399 -0.57,0.683 -3.727,1.015 -12.996,1.371 -16.844,0.644 -28.938,1.723 -32.289,2.875 -0.75,0.258 -2.203,0.574 -3.231,0.703 -2.25,0.281 -5.871,1.18 -13.015,3.234 -6.313,1.813 -7.192,1.985 -7.594,1.5 -0.383,-0.464 0.008,-2.285 1.758,-8.199 2.402,-8.105 3.226,-13.777 2.226,-15.308 -0.836,-1.278 -4.32,-2.575 -6.918,-2.575 -2.992,0 -7.664,1.258 -12.656,3.399 -1.543,0.66 -5.519,2.105 -8.84,3.207 -6.687,2.219 -7.578,2.605 -8.543,3.691 -0.582,0.656 -0.812,0.742 -1.937,0.742 -1.617,0 -3.391,0.532 -5.281,1.567 -0.817,0.449 -2.039,0.933 -2.719,1.082 -3.125,0.668 -10.688,5.988 -15.149,10.656 -2.453,2.567 -3.312,3.863 -3.55,5.359 -0.157,0.973 -0.114,1.071 0.886,2.071 0.95,0.949 1.383,1.152 4.547,2.152 3.809,1.203 4.891,1.785 5.625,3.024 0.914,1.539 1.922,2.414 2.793,2.414 1.5,0.004 4.289,2.015 4.285,3.089 0,0.532 -1.148,1.204 -7.601,4.45 -4.594,2.312 -6.34,3.347 -10.051,5.968 -4.988,3.52 -8.914,6.711 -15.07,12.247 -5.063,4.554 -6.949,6.144 -8.219,6.945 -0.543,0.34 -1.559,1.355 -2.262,2.258 -2.398,3.074 -4.304,4.75 -4.816,4.238 -0.125,-0.125 -0.395,-1.617 -0.602,-3.316 -0.211,-1.704 -0.64,-3.993 -0.961,-5.094 -0.586,-2.028 -2.113,-5.324 -3.062,-6.613 -0.668,-0.907 -2.168,-1.782 -4.051,-2.352 -1.902,-0.578 -2.914,-0.574 -4.226,0.023 -0.575,0.258 -1.75,0.586 -2.61,0.723 -0.859,0.137 -1.973,0.461 -2.473,0.715 -3.175,1.621 -13.98,12.43 -15.601,15.609 -0.27,0.528 -1.059,1.633 -1.754,2.453 -3.617,4.278 -4.242,5.102 -4.836,6.364 -0.355,0.754 -1.676,3.187 -2.934,5.41 -3.007,5.308 -3.96,7.648 -4.085,10 -0.079,1.515 -0.016,1.926 0.406,2.597 0.687,1.094 2.09,1.637 4.695,1.821 1.188,0.082 3.078,0.371 4.199,0.64 1.118,0.266 3.817,0.868 5.996,1.336 3.895,0.832 5.922,1.504 6.289,2.075 0.102,0.16 0.184,0.503 0.188,0.765 0.004,0.559 -2.281,4.696 -4.641,8.406 -3.648,5.731 -4.879,7.915 -7.843,13.918 -2.954,5.997 -6.172,13.149 -8.176,18.18 -1.969,4.945 -2.445,5.465 -3.668,4.016 -1.11,-1.321 -3.192,-5.328 -5.074,-9.778 -2.59,-6.113 -3.875,-7.433 -5.688,-5.843 -1.433,1.257 -2.98,4.66 -6.359,13.949 -1.961,5.402 -3.258,8.633 -3.781,9.437 -0.481,0.735 -1.184,3.446 -2.165,8.301 -0.464,2.297 -1.214,5.649 -1.668,7.442 -0.457,1.793 -0.988,4.566 -1.183,6.164 -0.293,2.375 -0.539,3.32 -1.344,5.207 -1.648,3.859 -1.582,5.925 0.242,7.461 1.403,1.179 1.774,1.015 6.571,-2.907 1.004,-0.816 2.609,-1.941 3.562,-2.496 0.957,-0.554 3.524,-2.058 5.707,-3.347 2.184,-1.286 4.692,-2.696 5.578,-3.133 1.492,-0.735 1.641,-0.762 2.004,-0.403 0.363,0.364 0.363,0.786 -0.004,5.633 -0.613,8.215 -0.925,16.324 -0.949,24.918 -0.027,8.774 0.059,9.758 1.777,20.403 0.532,3.3 1.032,6.824 1.11,7.832 0.137,1.781 0.125,1.843 -0.485,2.242 -0.808,0.527 -2.359,0.347 -5.281,-0.617 -3.824,-1.266 -7.34,-3.239 -11.316,-6.348 -2.625,-2.051 -3.832,-1.977 -5.114,0.316 -1.511,2.703 -1.05,9.52 1.168,17.375 0.536,1.891 1.231,4.629 1.547,6.078 1.145,5.274 2.801,10.082 5.457,15.829 1.625,3.523 2.578,5.945 2.578,6.562 0,0.66 1.559,3.75 3.04,6.024 2.601,3.992 4.351,5.625 5.48,5.109 0.723,-0.328 2.793,-3.086 5.289,-7.047 3.449,-5.465 5.137,-7.523 6.024,-7.355 0.867,0.16 4.949,8.117 8.785,17.117 1.789,4.203 4.711,9.988 6.789,13.441 2.523,4.192 4.445,6.988 9.008,13.102 2.347,3.144 5.132,6.992 6.187,8.547 1.957,2.886 5.043,6.722 9.691,12.043 3.403,3.894 3.586,4.593 1.34,5.046 -3.695,0.747 -13.8,0.993 -19.437,0.477 -3.848,-0.348 -4.77,-0.191 -6.102,1.035 -0.664,0.613 -1.054,1.18 -1.054,1.527 0,0.415 3.335,3.93 13.019,13.711 13.852,13.993 16.82,17.114 21.551,22.633 1.637,1.914 4.371,4.883 6.07,6.598 1.699,1.719 3.91,4.203 4.91,5.519 3.27,4.325 8.93,9.454 11.993,10.86 2.621,1.207 4.375,-0.063 4.738,-3.434 0.234,-2.176 -1.199,-18.062 -1.805,-19.984 -0.609,-1.949 -0.609,-3.235 0,-4.07 0.274,-0.372 0.574,-1.348 0.703,-2.286 0.258,-1.828 0.543,-2.324 1.352,-2.324 1.363,0 10.183,5.031 14.109,8.051 1.028,0.785 2.481,1.836 3.235,2.328 1.875,1.231 7.757,4.117 12.531,6.148 7.426,3.161 11.234,4.403 16.304,5.313 0.852,0.152 3.231,0.816 5.282,1.469 2.051,0.656 5.726,1.734 8.168,2.394 9.445,2.559 10.73,2.93 12.652,3.625 1.414,0.512 1.988,0.836 1.988,1.121 0,0.219 -3.093,3.575 -6.871,7.457 -6.773,6.954 -8.969,9.489 -8.969,10.344 0,1.563 8.465,5.692 16.235,7.926 1.98,0.57 3.191,0.766 5.051,0.824 1.437,0.043 2.937,0.235 3.636,0.469 0.657,0.219 1.879,0.484 2.715,0.594 2.215,0.285 12.035,0.297 15.805,0.015 6.211,-0.465 11.691,-1.875 16.394,-4.226 2.696,-1.348 3.032,-2.2 1.973,-5.012 -0.797,-2.113 -4.398,-9.156 -5.894,-11.527 -0.665,-1.051 -1.176,-2.071 -1.137,-2.27 0.144,-0.754 1.289,-0.918 8.344,-1.18 4.597,-0.168 8.207,-0.433 10.296,-0.746 1.774,-0.265 6.254,-0.859 9.961,-1.312 10.231,-1.262 16.383,-2.426 17.848,-3.387 0.344,-0.223 1.699,-0.527 3.199,-0.711 1.43,-0.176 3.813,-0.668 5.297,-1.09 1.485,-0.422 3.297,-0.777 4.027,-0.793 l 1.329,-0.023 -0.043,0.961 c -0.028,0.527 -0.707,3.058 -1.516,5.625 -0.809,2.566 -1.73,5.754 -2.043,7.082 -0.555,2.332 -1.172,4.012 -2.727,7.375 -1.136,2.469 -1.171,3.183 -0.226,4.758 1.867,3.097 3.461,2.855 10.34,-1.582 4.617,-2.977 6.883,-4.012 10.976,-5.024 1.914,-0.472 6.18,-1.765 9.481,-2.871 3.301,-1.105 7.996,-2.566 10.437,-3.25 12.145,-3.387 14.035,-4.035 15.36,-5.273 1.207,-1.125 1.023,-1.719 -1.325,-4.328 -1.125,-1.25 -5,-5.188 -8.609,-8.754 -3.613,-3.563 -6.648,-6.743 -6.746,-7.067 -0.258,-0.84 0.398,-1.289 6.004,-4.133 6.668,-3.378 10.07,-5.308 14.043,-7.968 1.879,-1.258 4.672,-2.942 6.207,-3.739 1.531,-0.793 3.851,-2.246 5.148,-3.226 1.297,-0.981 2.68,-1.918 3.071,-2.078 2.48,-1.028 3.57,2.961 3.222,11.773 -0.191,4.817 -0.488,7.098 -1.109,8.496 -1.074,2.434 -1.113,4.903 -0.086,5.578 0.504,0.329 0.695,0.325 1.937,-0.035 1.489,-0.433 3.731,-1.519 4.559,-2.211 0.281,-0.238 0.688,-0.773 0.895,-1.191 0.679,-1.352 7.918,-7.039 8.961,-7.039 0.191,0 1.07,-0.738 1.953,-1.641 1.367,-1.398 1.847,-1.722 3.23,-2.183 1.5,-0.496 1.684,-0.641 2.473,-1.871 1.035,-1.622 7.113,-7.856 10.894,-11.18 1.516,-1.336 3.543,-3.207 4.5,-4.16 2.172,-2.157 2.25,-2.649 0.602,-3.703 -1.547,-0.985 -4.617,-2.434 -6.832,-3.219 -1.293,-0.461 -2.199,-0.981 -3.11,-1.789 -1.539,-1.371 -3.363,-2.555 -5.507,-3.574 -2.399,-1.137 -2.383,-1.063 -0.852,-3.926 2.938,-5.5 5.215,-14.633 4.477,-17.938 -1.086,-4.855 -8.051,-17.086 -12.504,-21.957 -0.688,-0.754 -1.801,-1.644 -2.473,-1.984 -0.672,-0.336 -1.871,-1.102 -2.66,-1.699 -2.231,-1.684 -4.32,-2.516 -10.68,-4.258 -3.234,-0.887 -9.281,-2.637 -13.441,-3.891 -11.067,-3.336 -12.129,-3.637 -14.684,-4.16 -2.894,-0.59 -8.648,-2.418 -8.769,-2.789 -0.121,-0.359 0.613,-0.492 4.371,-0.805 4.117,-0.34 5.801,-0.64 6.957,-1.23 0.726,-0.371 1.707,-0.543 4.09,-0.699 6.383,-0.426 13.05,-2.313 17.32,-4.907 2.426,-1.476 3.383,-1.797 5.344,-1.797 1.422,0 1.867,0.129 3.867,1.106 1.559,0.762 2.676,1.141 3.586,1.223 1.922,0.171 5.773,-0.676 7.254,-1.598 1.121,-0.695 1.625,-0.883 1.625,-0.602 0,0.071 -0.512,1.106 -1.137,2.301 -1.105,2.121 -1.137,2.231 -1.226,4.688 -0.325,8.757 2.855,15.816 8.289,18.386 1.613,0.766 1.675,0.778 5.226,0.778 h 3.598 l 0.484,0.828 c 1.059,1.805 2.422,2.832 6.309,4.758 5.629,2.785 6.367,3 11.004,3.121 10.765,0.281 16.277,-1.602 18.34,-6.27 1.359,-3.07 0.917,-4.871 -3.54,-14.558 l -2.265,-4.922 0.894,-3.477 c 2.387,-9.32 3.25,-11.824 4.168,-12.117 0.965,-0.305 3.125,1.234 6.825,4.867 3.007,2.953 4.718,5.063 5.585,6.887 1.243,2.613 3.622,3.629 5.965,2.547 1.887,-0.871 2.075,-1.274 2.43,-5.192 0.367,-4.093 0.602,-5.504 1.535,-9.234 0.379,-1.516 1.067,-4.445 1.528,-6.512 1.058,-4.734 1.835,-7.429 4.402,-15.207 1.711,-5.179 2.078,-6.57 2.168,-8.172 l 0.113,-1.929 -0.84,-0.739 c -0.461,-0.406 -1.258,-0.812 -1.769,-0.902 -0.508,-0.094 -2.293,-0.484 -3.957,-0.871 -3.805,-0.887 -4.45,-0.902 -4.813,-0.109 -0.301,0.66 -1.804,1.32 -4.082,1.789 -1.68,0.347 -3,0.047 -4.086,-0.922 -1.027,-0.918 -1.066,-1.879 -0.441,-10.465 0.301,-4.172 0.597,-11.574 0.742,-18.481 0.129,-6.335 0.32,-11.843 0.43,-12.238 0.254,-0.949 1.172,-1.375 3.281,-1.508 2.625,-0.168 4.246,0.485 9.719,3.93 3.847,2.422 6.297,1.285 7.578,-3.516 0.922,-3.464 0.484,-7.457 -2.086,-18.949 -4.68,-20.902 -6.945,-25.629 -11.586,-24.156 -2.16,0.687 -7.969,6.277 -9.023,8.687 -0.434,0.997 -1.778,2.344 -2.801,2.813 -0.449,0.203 -0.653,0.187 -0.914,-0.078 -0.785,-0.805 -2.692,-7.235 -3.731,-12.586 -0.496,-2.547 -3.293,-10.586 -6.515,-18.719 -4.016,-10.125 -4.442,-11.16 -6.071,-14.668 -1.593,-3.433 -1.847,-4.488 -1.156,-4.855 0.633,-0.34 3.641,-0.688 8.586,-0.992 4.824,-0.301 7.691,-0.653 8.519,-1.043 0.504,-0.239 0.614,-0.481 0.676,-1.481 0.102,-1.547 -0.273,-3.441 -1.328,-6.723 -3.07,-9.562 -9.16,-21.668 -14.519,-28.851 -2.364,-3.168 -3.95,-4.387 -5.704,-4.387 -2.269,0 -4.343,1.945 -6.41,6.016 -1.812,3.566 -6.23,10.203 -8.007,12.015 -1.75,1.789 -2.344,1.852 -3.747,0.391 -0.535,-0.562 -1.445,-1.668 -2.019,-2.457 -3.27,-4.512 -17.586,-18.938 -22.074,-22.246 -5.731,-4.227 -13.668,-11.32 -13.668,-12.219 0,-0.68 1.078,-0.871 9.961,-1.773 14.211,-1.446 14.461,-1.547 14.214,-5.836 -0.191,-3.317 -1.378,-6.922 -3.019,-9.172 -3.375,-4.621 -12,-13.207 -15.813,-15.738 -1.023,-0.68 -2.089,-1.547 -2.367,-1.93 -0.277,-0.379 -1.414,-1.332 -2.523,-2.117 -1.106,-0.785 -2.93,-2.149 -4.055,-3.028 -2.297,-1.8 -4.578,-3.097 -7.918,-4.5 -3.285,-1.379 -5.5,-2.015 -6.41,-1.847 -1.719,0.316 -2.68,2.445 -3.793,8.402 -0.344,1.848 -0.898,4.441 -1.23,5.758 -0.332,1.32 -0.7,3.644 -0.817,5.164 -0.25,3.223 -0.527,4.812 -1.215,6.957 -0.554,1.738 -1.027,2.398 -1.711,2.398 -0.984,0 -4.41,-1.367 -15.82,-6.32 -15.117,-6.558 -16.289,-7.016 -23.949,-9.305 -4.012,-1.199 -6.492,-2.058 -6.688,-2.32 -0.562,-0.75 -0.351,-1.195 2.711,-5.773 0.793,-1.184 1.821,-2.832 2.282,-3.668 0.609,-1.106 1.898,-2.567 4.722,-5.367 3.988,-3.95 4.469,-4.653 3.957,-5.77 -0.523,-1.152 -3.531,-2.184 -10.433,-3.582 -9.973,-2.012 -18.875,-3.035 -27.766,-3.188 -1.277,-0.019 -2.508,-0.031 -3.687,-0.027 z m -9.59,5.289 c 0.121,-0.008 0.265,-0.008 0.433,0.004 0.227,0.012 0.5,0.043 0.844,0.082 1.758,0.215 7.023,0.258 11.52,0.098 1.753,-0.067 3.796,0.011 4.921,0.183 1.055,0.164 3.879,0.457 6.27,0.653 7.121,0.586 14.297,1.879 17.187,3.09 1.485,0.625 1.321,0.996 -2.468,5.683 -1.012,1.254 -2.68,3.469 -3.703,4.922 -2.321,3.289 -3.356,4.379 -4.438,4.68 -0.859,0.238 -1.32,0.254 -2.41,0.074 -6.141,-1.004 -8.449,-1.274 -14.039,-1.641 -3.652,-0.242 -6.922,-0.601 -7.715,-0.855 -0.793,-0.25 -1.133,-0.84 -1.391,-2.395 -0.078,-0.468 -0.804,-1.929 -1.613,-3.238 -1.769,-2.863 -4.141,-7.699 -4.566,-9.312 -0.297,-1.122 -0.285,-1.18 0.289,-1.645 0.297,-0.242 0.504,-0.355 0.879,-0.383 z m -75.356,5.012 c 1.781,-0.086 1.633,0.422 0.551,4.719 -1.805,7.132 -4.039,14.687 -4.727,15.972 -0.816,1.52 -1.836,2.082 -7.316,4.004 -5.25,1.844 -11.391,4.196 -14.598,5.594 -1.515,0.66 -3.621,1.562 -4.679,2.004 -1.055,0.441 -2.149,0.805 -2.426,0.805 -0.629,0.003 -1.309,-0.512 -4.051,-3.075 -3.82,-3.57 -5.976,-4.875 -10.558,-6.402 -2.629,-0.875 -2.891,-1.012 -2.958,-1.578 -0.085,-0.738 0.817,-1.539 4.442,-3.965 4.293,-2.871 26.465,-13.297 28.273,-13.297 0.235,0 2.668,-0.758 5.418,-1.68 5.789,-1.949 9.211,-2.832 11.746,-3.035 0.336,-0.027 0.629,-0.05 0.883,-0.066 z M 519.645,67.75 c 0.628,0.016 1.593,0.379 2.949,1.086 2.976,1.551 8.269,5.129 12.066,8.164 3.965,3.172 12.059,11.203 14.246,14.137 1.766,2.367 3.035,4.765 3.035,5.73 0,0.895 -0.668,1.227 -4.328,2.168 -4.242,1.086 -8.804,1.938 -13.617,2.539 -5.906,0.735 -8.058,0.594 -10.121,-0.656 -0.34,-0.207 -2.074,-1.844 -3.855,-3.645 -1.782,-1.796 -3.782,-3.644 -4.442,-4.105 -1.176,-0.82 -1.199,-0.859 -1.269,-2.203 -0.079,-1.488 0.535,-4.242 2.562,-11.488 1.391,-4.969 2.051,-8.555 1.852,-10.032 -0.157,-1.156 0.109,-1.715 0.922,-1.695 z m -107.747,4.945 c 21.875,0 29.059,0.516 33.602,2.418 1.66,0.696 4.445,1.246 6.379,1.258 0.734,0.004 2.203,0.266 3.258,0.582 1.058,0.317 3.644,0.809 5.742,1.094 10.555,1.426 13.719,2.535 31.781,11.16 13.418,6.41 17.379,8.648 23.961,13.555 7.164,5.347 16.363,12.082 21.906,16.039 2.985,2.133 6.168,4.48 7.078,5.222 3.133,2.551 9.981,9.125 14.375,13.793 5.614,5.965 7.817,8.539 10.375,12.122 1.133,1.585 2.973,3.968 4.086,5.3 2.414,2.879 5.207,6.832 8.262,11.696 1.231,1.957 3.25,5.086 4.485,6.961 2.546,3.859 3.351,5.371 4.945,9.285 0.617,1.515 1.722,3.949 2.453,5.398 3.246,6.457 6.48,14.406 8.352,20.551 2.933,9.613 4.57,17.387 4.933,23.371 0.426,7.043 1.574,14.355 2.629,16.738 0.324,0.739 0.578,2.059 0.734,3.832 0.434,4.946 0.735,7.43 0.973,8.059 1.106,2.906 0.563,15.676 -1.129,26.656 -0.781,5.07 -1.457,7.672 -2.863,11.074 -2.738,6.629 -5.832,16.102 -7.192,22.036 -1.113,4.851 -3.375,16 -4.097,20.187 -0.699,4.059 -0.738,3.828 1.633,9.016 3.328,7.273 3.8,9.023 2.976,10.992 -0.652,1.558 -3.117,3.156 -6.762,4.379 -2.273,0.765 -2.835,0.699 -7.675,-0.879 -4.754,-1.555 -7.575,-2.969 -9.582,-4.809 -2.723,-2.496 -3.977,-5.457 -3.973,-9.39 0.004,-3.461 0.848,-6.481 4.355,-15.52 1.047,-2.699 3.137,-8.801 4.641,-13.558 1.508,-4.762 3.762,-11.731 5.008,-15.497 3.269,-9.875 4.402,-14.429 5.558,-22.316 1.508,-10.277 2.145,-25.906 1.547,-37.797 -0.886,-17.578 -3.605,-28.18 -11.636,-45.363 -1.481,-3.168 -2.981,-6.57 -3.336,-7.563 -0.707,-1.953 -1.52,-3.5 -3.989,-7.558 -0.882,-1.453 -2.656,-4.477 -3.945,-6.719 -4.461,-7.785 -6.18,-10.055 -13.637,-18 -6.109,-6.516 -32.148,-32.289 -35.211,-34.859 -7.109,-5.965 -31.718,-22.762 -37.8,-25.801 -4.211,-2.106 -20.188,-6.836 -30.118,-8.918 -10.484,-2.199 -19.902,-3.504 -32.261,-4.473 -16.602,-1.297 -26.078,-0.867 -42.473,1.926 -3.113,0.531 -6.066,0.965 -6.562,0.965 -0.5,0.004 -2.039,0.262 -3.422,0.578 -3.41,0.781 -12.227,3.363 -13.629,3.996 -1.57,0.707 -2.922,1.098 -5.809,1.676 -3.324,0.668 -6.797,1.855 -11.156,3.816 -1.984,0.895 -4.656,2.082 -5.934,2.641 -1.281,0.558 -3.007,1.492 -3.839,2.074 -1.086,0.766 -2.297,1.313 -4.274,1.942 -1.519,0.48 -3.949,1.359 -5.402,1.953 -1.453,0.593 -3.934,1.578 -5.52,2.191 -3.16,1.223 -5.543,2.527 -7.711,4.219 -0.773,0.605 -2.941,2.121 -4.812,3.359 -3.946,2.621 -6.547,4.563 -10.399,7.766 -8.914,7.426 -21.777,20.387 -30.027,30.265 -7.426,8.899 -10.664,13.954 -19.297,30.122 -2.676,5.015 -5.723,10.703 -6.765,12.636 -2.266,4.199 -3.555,7.426 -5.801,14.485 -2.285,7.191 -2.844,9.738 -6.258,28.441 -1.176,6.441 -1.762,10.293 -1.926,12.719 -0.484,7.109 -0.191,19.761 0.613,26.64 0.528,4.52 1.301,8.579 3.223,16.93 1.617,7.039 2.125,8.711 5.641,18.473 0.617,1.715 1.543,4.754 2.05,6.75 1.954,7.648 6.11,17.554 10.829,25.808 1.746,3.043 10.16,15.34 12.16,17.758 0.617,0.746 1.636,2.313 2.269,3.481 2.121,3.918 9.965,12.988 18.45,21.336 4.558,4.484 6.554,6.027 10.109,7.8 2.426,1.211 3.496,1.961 6.332,4.438 0.918,0.801 3.172,2.519 5.016,3.824 1.839,1.301 4.183,3.004 5.21,3.781 2.782,2.106 5.192,3.535 11.321,6.719 3.043,1.578 7.179,3.785 9.187,4.898 4.821,2.68 8.754,4.536 13.149,6.204 1.976,0.754 4.57,1.879 5.758,2.507 2.843,1.497 4.546,2.024 8.878,2.743 2.254,0.375 6.161,1.332 10.442,2.554 9.711,2.77 10.855,3.012 18.359,3.832 3.696,0.407 8.559,1 10.801,1.321 8.559,1.222 16.305,1.613 32.879,1.652 13.926,0.031 14.906,-0.043 24,-1.883 2.906,-0.586 6.883,-1.344 8.844,-1.68 3.625,-0.621 7.855,-1.613 11.316,-2.652 1.059,-0.316 4.242,-1.18 7.082,-1.918 6.465,-1.687 8.156,-2.25 11.156,-3.722 1.352,-0.661 3.141,-1.329 4.09,-1.524 4.059,-0.824 14.031,-5.48 19.438,-9.074 1.851,-1.231 4.59,-2.934 6.082,-3.789 5.558,-3.18 18.129,-13.231 23.871,-19.086 6.035,-6.156 8.297,-11.391 6.547,-15.152 -1.227,-2.633 -6.645,-7.93 -11.176,-10.934 -4.422,-2.93 -15.242,-7.965 -22.281,-10.371 -5.61,-1.918 -9.016,-2.645 -22.727,-4.836 -8.976,-1.438 -13.793,-1.84 -18.223,-1.516 -3.855,0.282 -5.394,1.36 -7.437,5.207 -1.664,3.133 -2.094,3.563 -4.164,4.129 -2.074,0.567 -8.887,3.512 -11.113,4.805 -3.071,1.785 -8.243,6.133 -13.547,11.387 -4.446,4.402 -4.731,5.406 -2.871,10.109 1.453,3.668 1.566,4.555 0.714,5.57 -0.765,0.907 -2.902,2.575 -4.449,3.473 -1.363,0.793 -5.867,1.711 -7.472,1.527 -4.196,-0.488 -6.809,-4.957 -8.016,-13.718 -0.48,-3.493 -0.355,-8.778 0.266,-11.161 0.543,-2.093 2.023,-5.23 3.32,-7.05 0.582,-0.817 2.195,-2.696 3.586,-4.184 3.332,-3.559 3.648,-4.219 3.59,-7.484 -0.055,-3.215 -0.696,-6.938 -2.336,-13.563 -0.719,-2.902 -1.414,-5.98 -1.547,-6.84 -0.828,-5.445 -0.992,-15.562 -0.262,-16.437 0.266,-0.324 0.391,-1.324 0.488,-3.938 0.11,-2.89 0.247,-3.879 0.793,-5.664 0.817,-2.672 2.075,-8.781 2.079,-10.094 0,-1.304 -0.696,-1.949 -3.598,-3.316 -3.945,-1.855 -10.512,-4.051 -24.789,-8.285 -3.137,-0.934 -7.348,-2.359 -9.36,-3.172 -2.011,-0.809 -4.472,-1.769 -5.476,-2.133 -2.426,-0.879 -9.219,-4.054 -11.617,-5.429 -1.055,-0.606 -3.918,-2.18 -6.36,-3.5 -10.703,-5.793 -14.925,-8.606 -22.613,-15.075 -1.652,-1.386 -3.582,-2.843 -4.293,-3.234 -1.691,-0.926 -3.34,-0.945 -5.375,-0.066 -0.793,0.339 -2.082,0.738 -2.863,0.882 -2.02,0.371 -7.68,0.328 -9.774,-0.078 -6.293,-1.215 -11.929,-4.879 -14.004,-9.105 -1.406,-2.86 -1.582,-5.055 -0.668,-8.317 0.895,-3.187 2.235,-5.011 7.329,-9.992 4.242,-4.14 6.941,-6.371 8.691,-7.18 1.883,-0.867 6.672,-1.89 8.902,-1.898 1.774,-0.008 2.09,0.07 3.84,0.934 1.77,0.875 2.426,1.453 9.106,8.047 8.363,8.25 11.324,10.707 19.679,16.343 3.301,2.223 6.543,4.414 7.203,4.867 0.661,0.45 1.469,0.903 1.797,1.004 0.332,0.102 1.575,0.782 2.762,1.504 8.383,5.129 19.609,10.598 26.008,12.676 1.762,0.57 5.062,1.902 7.336,2.957 2.41,1.117 4.875,2.082 5.914,2.316 0.98,0.223 3.641,1.09 5.914,1.93 5.254,1.942 7.109,2.461 9.789,2.742 2.539,0.266 4.293,0.641 5.238,1.121 1.375,0.696 3.313,0.813 7.043,0.43 8.051,-0.828 9.664,-1.555 9.871,-4.441 0.118,-1.602 -0.152,-2.157 -1.047,-2.157 -0.761,0 -0.91,-0.339 -0.578,-1.339 0.344,-1.043 1.012,-1.032 1.192,0.019 0.285,1.645 1.621,0.875 5.578,-3.215 3.449,-3.57 4.422,-4.781 10.031,-12.507 5.313,-7.317 9.688,-12.848 13.945,-17.641 3.567,-4.012 5.145,-5.945 5.649,-6.918 0.461,-0.891 0.254,-1.688 -1.293,-4.961 -3.106,-6.563 -3.813,-9.238 -4.996,-18.84 -1.078,-8.781 -2.172,-13.203 -4.34,-17.539 -1.641,-3.293 -4.078,-6.312 -11.371,-14.09 -5.613,-5.984 -15.332,-11.636 -24.609,-14.312 -4.399,-1.27 -8.286,-1.836 -14.903,-2.184 l -4.832,-0.254 -3.808,2.27 c -4.473,2.664 -6.395,4.156 -7.477,5.797 -0.43,0.656 -1.059,1.547 -1.395,1.976 l -0.605,0.785 -5.926,-0.039 c -4.129,-0.023 -6.273,0.055 -7.074,0.266 -0.758,0.203 -1.852,0.254 -3.238,0.156 -7.926,-0.57 -12.418,-0.379 -19.735,0.832 -9.886,1.645 -19.949,6.051 -27.136,11.883 -2.204,1.785 -5.688,5.445 -6.922,7.262 -1.242,1.832 -3.235,5.937 -3.664,7.547 -0.289,1.093 -0.27,1.222 0.351,2.402 0.36,0.684 1.418,2.203 2.348,3.379 1.855,2.348 2.051,3.117 0.941,3.676 -1.441,0.726 -4.902,0.246 -7.668,-1.067 -4.547,-2.16 -6.465,-6.422 -6.183,-13.722 0.23,-5.887 1.468,-8.911 6.074,-14.813 4.852,-6.215 9.988,-11.285 14.48,-14.293 2.551,-1.707 6.575,-3.812 13.227,-6.922 5.664,-2.648 6.961,-3.113 9.414,-3.386 1.207,-0.137 3.441,-0.629 4.965,-1.098 4.219,-1.293 5.734,-1.676 10.812,-2.727 4.055,-0.84 5.325,-0.996 9.485,-1.183 2.64,-0.117 4.961,-0.266 5.156,-0.336 0.867,-0.297 6.395,-0.664 13.063,-0.864 3.968,-0.121 7.812,-0.351 8.535,-0.511 0.726,-0.164 1.754,-0.278 2.281,-0.25 0.527,0.023 2.156,0.082 3.621,0.133 3.848,0.136 6.027,0.742 11.758,3.285 1.461,0.648 3.137,1.246 3.722,1.324 1.231,0.168 4.688,-0.375 8.516,-1.34 4.207,-1.055 5.672,-2.016 7.293,-4.773 1.328,-2.254 3.117,-3.918 5.316,-4.93 5.008,-2.309 12.907,-3.184 16.61,-1.844 0.683,0.246 2.031,0.731 2.996,1.074 1.82,0.649 3.824,1.864 4.055,2.461 0.277,0.723 -0.637,1.289 -2.063,1.286 -1.101,-0.004 -1.539,-0.137 -2.426,-0.743 -0.992,-0.683 -1.191,-0.73 -2.539,-0.609 -1.797,0.16 -4.258,1.062 -5.941,2.184 -1.664,1.101 -4.164,3.722 -4.383,4.586 -0.152,0.609 -0.039,0.8 1.008,1.73 0.648,0.578 3.074,2.492 5.394,4.258 7.817,5.957 10.704,8.996 13.711,14.441 1.434,2.59 2.684,3.985 3.989,4.438 1.261,0.441 3.843,0.343 6.761,-0.25 6.266,-1.27 11.262,-1.606 12.84,-0.856 1.121,0.531 3.434,2.903 4.078,4.18 1.211,2.402 3.657,11.012 3.891,13.699 0.109,1.281 0.062,1.645 -0.273,1.977 -1.477,1.476 -3.77,-1.168 -5.274,-6.071 -1.184,-3.867 -2.25,-4.957 -4.578,-4.668 -1.863,0.231 -5.156,1.075 -6.481,1.661 -2.742,1.214 -3.707,2.711 -3.714,5.765 -0.004,2.16 0.531,4.688 1.832,8.641 1.043,3.168 1.5,4.113 2.398,4.965 1.145,1.082 1.805,1.207 5.484,1.023 2.762,-0.133 3.516,-0.098 4.247,0.207 1.019,0.426 1.664,1.504 2.082,3.477 0.379,1.789 0.332,5.679 -0.086,7.25 -0.196,0.726 -0.582,2.937 -0.856,4.918 -0.57,4.117 -0.808,4.8 -1.672,4.8 -0.879,0 -1.32,-1.128 -1.988,-5.113 -0.316,-1.887 -0.691,-3.547 -0.836,-3.691 -0.183,-0.184 -0.957,-0.184 -2.687,0 -1.887,0.199 -2.668,0.394 -3.516,0.89 -1.359,0.797 -2.742,2.868 -3.305,4.954 -1.605,5.937 -1.914,6.398 -5.504,8.226 -1.382,0.703 -2.91,1.731 -3.863,2.59 -3.574,3.226 -13.777,15.812 -15.973,19.703 -1.316,2.328 -0.703,3.664 1.219,2.668 1.192,-0.617 4.703,-4.254 6.942,-7.187 3.207,-4.208 6.683,-8.2 9.519,-10.938 2.203,-2.125 2.985,-2.707 4.777,-3.582 2.915,-1.418 5.098,-3.598 6.52,-6.508 1.637,-3.347 2,-3.375 3.43,-0.285 1.117,2.422 1.652,3.082 2.992,3.699 1.047,0.485 3.297,0.602 4.293,0.227 1.496,-0.571 2.726,-3.906 4.176,-11.293 1.257,-6.434 1.304,-6.926 1.007,-10.113 -0.433,-4.594 -0.918,-5.907 -2.82,-7.692 -1.941,-1.812 -2.797,-2.133 -6.355,-2.367 -3.762,-0.25 -4.344,-0.512 -5.278,-2.391 -0.734,-1.48 -1.382,-4.976 -1.386,-7.48 0,-1.445 0.062,-1.649 0.632,-2.098 0.707,-0.554 2.051,-0.648 3.493,-0.25 0.984,0.274 1.519,0.977 2.355,3.106 0.781,1.988 2.43,4.304 4.383,6.16 2.82,2.68 3.473,2.762 7.133,0.89 3.125,-1.597 2.972,-1.269 2.543,-5.57 -0.621,-6.203 -1.93,-11.078 -4.239,-15.789 -3.754,-7.652 -9.89,-9.715 -20.898,-7.027 -1.582,0.386 -3.129,0.64 -3.438,0.562 -0.679,-0.172 -2.8,-2.351 -5.937,-6.101 -2.574,-3.075 -3.008,-3.465 -8.32,-7.45 -4.274,-3.199 -7.946,-6.339 -7.946,-6.796 0,-0.168 0.25,-0.543 0.555,-0.832 0.684,-0.641 1.531,-0.661 6.07,-0.133 5.93,0.687 9.051,0.254 10.278,-1.426 0.785,-1.074 0.691,-3.254 -0.223,-5.078 -1.262,-2.524 -4.648,-5.426 -7.594,-6.512 -3.48,-1.285 -15.433,-0.601 -21.926,1.25 -1.937,0.555 -5.64,2.195 -6.226,2.758 -0.422,0.406 -0.914,0.226 -2.859,-1.02 -2.879,-1.847 -4.094,-2.168 -8.762,-2.304 -6.125,-0.18 -8.063,0.281 -15.633,3.711 -5.578,2.527 -6.98,2.957 -10.398,3.199 -1.84,0.129 -3.086,0.113 -3.493,-0.043 -0.687,-0.266 -10.668,0.094 -15.148,0.547 -3.973,0.398 -9.031,1.324 -14.883,2.719 -2.969,0.71 -6.746,1.519 -8.398,1.8 -10.078,1.711 -13.582,2.938 -24.481,8.563 -11.824,6.101 -16.472,10.082 -24.687,21.152 -5.399,7.27 -6.809,10.789 -6.852,17.094 -0.039,6.289 1.727,10.801 5.719,14.59 3.062,2.91 6.453,4.211 11.062,4.238 3.243,0.02 4.914,-0.488 7.704,-2.336 2.39,-1.578 2.976,-2.418 2.976,-4.258 0,-0.84 0.121,-1.476 0.313,-1.636 0.566,-0.469 7.902,1.492 17.398,4.652 5.875,1.953 12.211,4.855 17.566,8.047 1.52,0.902 3.301,1.769 3.961,1.926 1.942,0.457 2.539,0.734 4.508,2.082 1.028,0.703 3.297,2.062 5.043,3.019 1.742,0.957 4.02,2.313 5.055,3.012 4.383,2.961 11.98,9.594 13.137,11.461 0.449,0.73 0.503,1.074 0.386,2.445 -0.168,1.973 -1.394,6.266 -3.136,10.988 -0.723,1.965 -2.032,5.516 -2.907,7.891 -0.933,2.539 -1.797,4.496 -2.086,4.742 -0.945,0.805 -3.066,0.387 -7.879,-1.551 -8.539,-3.433 -20.699,-10.019 -23.871,-12.921 -0.531,-0.489 -1.457,-1.133 -2.05,-1.43 -2.11,-1.059 -14.075,-9.363 -16.321,-11.324 -1.254,-1.098 -3.925,-3.559 -5.941,-5.473 -7.992,-7.598 -10.207,-9.609 -11.578,-10.523 -1.504,-1.008 -5.051,-2.317 -7.231,-2.668 -2.531,-0.411 -7.996,0.984 -12.277,3.128 -1.289,0.649 -2.594,1.18 -2.898,1.18 -0.813,0 -1.45,-0.82 -2.692,-3.484 -1.73,-3.699 -3.164,-8.246 -3.473,-11.02 -0.144,-1.312 -0.543,-3.258 -0.878,-4.32 -0.336,-1.066 -0.922,-3.176 -1.297,-4.691 -0.77,-3.094 -1.688,-5.157 -2.973,-6.657 -1.805,-2.109 -2.992,-2.551 -8.039,-2.972 -5.543,-0.461 -5.883,-0.743 -5.883,-4.852 0,-1.477 0.098,-5.059 0.211,-7.965 0.207,-5.226 0.203,-5.285 -0.316,-5.937 -0.735,-0.918 -2,-0.891 -4.137,0.093 -0.902,0.418 -1.711,0.688 -1.801,0.602 -0.238,-0.238 1.27,-2.293 4.883,-6.637 4.852,-5.828 9.77,-10.726 15.082,-15.011 2.508,-2.024 5.477,-4.504 6.598,-5.512 1.125,-1.008 4.203,-3.27 6.843,-5.031 2.637,-1.758 6.282,-4.266 8.094,-5.567 5.078,-3.648 14.215,-8.492 17.379,-9.211 1.602,-0.367 2.051,-0.523 4.527,-1.613 2.77,-1.223 13.809,-4.906 17.399,-5.809 11.637,-2.925 34.949,-5.879 48.719,-6.168 6.308,-0.136 6.398,-0.132 10.8,0.61 2.442,0.41 6.707,1.074 9.481,1.472 9.816,1.411 12.851,2.04 15.687,3.239 0.844,0.355 4.571,1.34 8.282,2.183 3.714,0.848 7.453,1.77 8.312,2.047 2.375,0.766 7.145,3.172 8.758,4.414 2.055,1.582 2.976,2 5.262,2.399 3.312,0.578 6.793,1.98 8.882,3.574 0.575,0.437 2.731,1.844 4.79,3.125 2.062,1.281 5.5,3.648 7.648,5.266 2.144,1.617 4.871,3.601 6.059,4.414 2.71,1.851 5.691,4.453 12.839,11.195 3.102,2.93 7.309,6.887 9.344,8.793 6.559,6.144 7.777,7.539 10.32,11.805 0.809,1.355 2.29,3.386 3.286,4.507 3.046,3.434 6.8,8.922 8.777,12.825 1.199,2.375 1.168,2.406 -2.504,2.629 -1.488,0.093 -3.402,0.335 -4.262,0.539 -3.582,0.851 -8.183,3.867 -10.425,6.828 -1.45,1.922 -2.774,4.633 -2.774,5.679 0,0.852 0.645,2.266 2.164,4.75 1.328,2.168 2.379,4.305 3.949,8.032 l 1.356,3.23 -0.258,39.363 c -0.144,21.653 -0.32,39.93 -0.394,40.625 -0.075,0.692 -0.282,1.411 -0.465,1.594 -0.375,0.371 -1.782,0.516 -8.754,0.875 -2.574,0.137 -6.328,0.406 -8.348,0.606 -4.664,0.461 -4.996,0.355 -4.918,-1.536 0.031,-0.695 0.391,-2.957 0.801,-5.031 0.609,-3.07 0.742,-4.328 0.73,-6.793 -0.035,-6.238 -1.523,-16.945 -2.671,-19.176 -1.602,-3.113 -6.043,-6.507 -10.313,-7.882 -5.754,-1.852 -9.703,-1.125 -16.504,3.027 -2.254,1.379 -5.226,2.527 -8.219,3.184 -2.234,0.488 -10.816,1.644 -13.687,1.843 -1.703,0.118 -1.852,0.086 -2.578,-0.527 -0.469,-0.391 -0.774,-0.871 -0.774,-1.211 0,-0.312 0.598,-1.777 1.321,-3.254 0.726,-1.48 1.32,-2.828 1.32,-2.992 0,-0.168 0.418,-0.613 0.922,-0.984 2.484,-1.832 5.781,-6.766 5.793,-8.664 0.008,-1.29 -0.707,-0.965 -2.91,1.32 -2.575,2.676 -3.993,4.472 -4.551,5.762 -0.242,0.562 -0.906,1.535 -1.481,2.16 -1.906,2.074 -5.019,5.875 -5.718,6.98 -0.989,1.555 -0.954,2.738 0.109,3.738 1.008,0.95 1.961,1.25 5.52,1.715 2.925,0.387 3.144,0.371 6.058,-0.461 0.668,-0.191 3.371,-0.578 6,-0.859 8.098,-0.867 12.254,-2.152 17.328,-5.355 2.028,-1.282 3.973,-1.86 6.262,-1.86 6.664,0 10.934,4.082 13.816,13.211 1.008,3.188 1.403,6.184 1.246,9.469 -0.175,3.691 -0.582,5.918 -2.324,12.801 -2.941,11.586 -4.472,14.707 -9.23,18.843 -1.055,0.918 -2.496,1.934 -3.203,2.258 -1.141,0.531 -1.524,0.582 -3.516,0.496 -2.059,-0.09 -2.406,-0.179 -4.324,-1.133 -1.485,-0.734 -2.606,-1.527 -3.891,-2.75 -2.07,-1.96 -4.144,-4.867 -4.144,-5.804 0,-0.344 0.371,-2.864 0.828,-5.59 1.367,-8.211 1.363,-8.527 -0.117,-10.574 -1.606,-2.215 -3.329,-2.391 -10.973,-1.117 -8.422,1.398 -14.617,2.21 -22.02,2.894 -5.117,0.473 -5.847,0.773 -7.011,2.879 -0.961,1.742 -1.879,4.625 -2.504,7.891 -0.617,3.203 -0.875,11.273 -0.446,13.82 0.879,5.203 6.618,12.047 12.614,15.039 2.414,1.203 4.89,1.738 10.488,2.262 2.922,0.273 10.465,0.211 18.422,-0.153 3.633,-0.164 3.195,-0.25 16.918,3.246 15.84,4.036 20.855,5.407 26.402,7.207 2.77,0.903 5.903,1.875 6.957,2.161 1.055,0.289 2.731,0.929 3.723,1.429 0.992,0.5 2.828,1.149 4.078,1.442 1.254,0.293 3.008,0.836 3.895,1.207 6.085,2.547 12.457,9.457 16.953,18.39 1.683,3.336 2.23,5.114 2.371,7.657 0.101,1.894 0.039,2.394 -0.524,4.078 -1.347,4.019 -4.875,10.472 -7.238,13.242 -2.383,2.789 -9.519,8.355 -17.461,13.617 -5.965,3.949 -8.625,5.59 -15.516,9.567 -2.968,1.714 -6.48,3.792 -7.8,4.617 -2.914,1.82 -4.399,2.578 -8.289,4.215 -3.387,1.421 -6.321,2.816 -9.469,4.492 -3.891,2.07 -15.149,6.527 -23.524,9.312 -4.98,1.656 -23.218,6.422 -27,7.055 -7.515,1.254 -11.902,2.016 -13.32,2.32 -0.922,0.199 -3.676,0.453 -6.117,0.574 -9.125,0.438 -22.523,0.082 -31.082,-0.824 -3.168,-0.336 -7.813,-0.73 -10.32,-0.871 -7.633,-0.43 -10.832,-0.855 -16.063,-2.133 -2.648,-0.648 -6.539,-1.578 -8.648,-2.07 -2.106,-0.492 -4.321,-1.102 -4.914,-1.355 -0.594,-0.254 -3.672,-1.278 -6.844,-2.274 -13.504,-4.242 -28.063,-10.418 -38.051,-16.144 -7.398,-4.243 -16.184,-9.899 -19.094,-12.297 -1.117,-0.922 -3.429,-2.614 -5.129,-3.758 -4.089,-2.75 -6.449,-4.801 -9.695,-8.434 -1.473,-1.648 -4.519,-5 -6.766,-7.445 -6.757,-7.363 -13.765,-15.602 -18.171,-21.363 -1.262,-1.653 -3.012,-3.813 -3.887,-4.801 -3.594,-4.059 -9.805,-14 -13.945,-22.32 -4.766,-9.571 -8.528,-18.125 -10.188,-23.161 -0.566,-1.714 -1.601,-4.578 -2.301,-6.359 -1.453,-3.711 -1.886,-5.309 -3.238,-11.922 -1.223,-5.988 -1.871,-8.582 -3.355,-13.398 -1.922,-6.235 -3.075,-12.055 -3.594,-18.121 -0.141,-1.649 -0.321,-8.289 -0.395,-14.758 -0.133,-11.102 -0.109,-11.965 0.367,-15.36 0.684,-4.859 0.907,-7.019 1.352,-13.082 0.895,-12.25 4.047,-28.433 7.535,-38.668 2.27,-6.652 4.547,-11.191 11.219,-22.359 5.246,-8.785 6.09,-10.035 10.285,-15.293 3.883,-4.863 4.754,-6.062 6.234,-8.566 0.641,-1.082 2.512,-3.782 4.161,-6 1.652,-2.219 3.461,-4.746 4.027,-5.614 1.289,-1.976 2.66,-3.511 9.309,-10.402 11.32,-11.726 21.007,-20.301 28.828,-25.504 3.398,-2.262 4.843,-3.101 10.433,-6.07 2.305,-1.223 5.977,-3.258 8.16,-4.52 6.348,-3.668 6.661,-3.812 10.465,-4.824 5.032,-1.344 9.653,-2.73 20.024,-6.019 33.308,-10.559 38.261,-11.364 69.718,-11.364 z m 0.321,18.34 c 0.933,0 2.035,0.113 3.539,0.328 1.308,0.192 4.703,0.52 7.543,0.727 9.222,0.683 14.57,1.387 20.879,2.746 1.254,0.273 3.414,0.605 4.8,0.746 8.297,0.844 11.836,1.863 27.481,7.914 4.488,1.738 9.262,3.738 10.609,4.449 3.059,1.61 6.946,4.063 16.192,10.219 3.98,2.649 8.113,5.234 9.179,5.742 3.508,1.672 8.754,6.246 18.622,16.231 7.718,7.816 10.3,10.676 18.386,20.375 6.625,7.957 6.91,8.336 9.008,12.035 1.941,3.433 3.996,6.414 5.82,8.449 0.821,0.91 1.664,2.074 1.879,2.582 0.215,0.508 0.754,1.793 1.203,2.856 1.618,3.863 5.547,9.824 7.114,10.785 2.902,1.789 3.285,2.375 6.097,9.359 3.258,8.09 4.879,13.449 5.692,18.84 0.269,1.781 0.808,5.023 1.195,7.199 0.391,2.18 0.816,5.043 0.949,6.363 0.293,2.895 0.68,13.887 0.946,26.758 l 0.191,9.481 -1.645,7.801 c -2.023,9.605 -3.57,16.187 -4.757,20.281 -2.231,7.664 -8.2,27.57 -8.887,29.637 -0.418,1.253 -1.387,3.792 -2.156,5.64 -1.5,3.621 -2.047,5.317 -2.969,9.238 -1.199,5.114 -2.277,6.961 -4.059,6.961 -0.855,0 -1.117,-0.144 -2.074,-1.14 -2.144,-2.231 -4.336,-7.68 -4.336,-10.77 0,-4.043 3.926,-16.472 8,-25.332 4.528,-9.844 6.207,-14.539 7.375,-20.633 0.414,-2.156 1.016,-4.843 1.34,-5.964 2.773,-9.672 2.98,-12.321 1.672,-21.719 -0.332,-2.375 -0.774,-5.992 -0.981,-8.039 -1.351,-13.164 -3.398,-24.926 -5.496,-31.563 -0.582,-1.847 -1.511,-5.355 -2.066,-7.801 -2.629,-11.582 -3.563,-14.382 -6.352,-19.058 -0.953,-1.594 -2.269,-4.031 -2.929,-5.418 -2,-4.203 -6.535,-11.172 -13.735,-21.094 -4.125,-5.68 -7.707,-10.129 -11.047,-13.707 -1.539,-1.648 -4.214,-4.566 -5.941,-6.48 -4.309,-4.774 -9.328,-9.633 -13.762,-13.325 -2.047,-1.703 -5.23,-4.398 -7.078,-5.988 -6.344,-5.461 -10.683,-8.57 -15.117,-10.836 -1.586,-0.808 -4.449,-2.273 -6.363,-3.25 -1.914,-0.98 -5.586,-2.629 -8.16,-3.664 -2.575,-1.035 -6.032,-2.504 -7.68,-3.262 -5.524,-2.543 -11.301,-4.453 -16.024,-5.296 -1.535,-0.274 -3.171,-0.649 -3.64,-0.829 -1.969,-0.757 -8.196,-1.949 -13.098,-2.507 -1.32,-0.149 -3.965,-0.641 -5.879,-1.09 -1.914,-0.453 -4.398,-0.934 -5.519,-1.074 -3.25,-0.403 -25.2,-0.586 -31.407,-0.262 -9.058,0.476 -13.035,1.172 -27.394,4.797 -18.063,4.558 -22.774,6.23 -35.52,12.617 -13.808,6.918 -24.886,14.461 -34.593,23.551 -3.313,3.105 -10.352,10.367 -14.75,15.226 -10.012,11.059 -17.282,21.137 -21.887,30.352 -6.039,12.074 -8.231,16.715 -8.559,18.121 -0.203,0.859 -0.48,2.047 -0.621,2.64 -0.144,0.594 -0.898,2.43 -1.679,4.079 -1.653,3.488 -1.719,3.754 -3.469,13.558 -2.867,16.078 -3.336,20.141 -3.731,32.262 -0.261,7.934 0.02,25.121 0.496,30.5 0.61,6.902 3.715,21.703 5.118,24.414 0.222,0.426 0.992,2.824 1.711,5.328 1.527,5.317 2.609,8.328 4.191,11.676 2.574,5.437 8.934,14.246 11.098,15.363 1.105,0.574 1.894,-0.113 3.742,-3.262 1.758,-2.996 4.207,-5.48 6.41,-6.511 3.102,-1.453 6.023,-1.168 10.121,0.98 4.449,2.332 8.398,5.875 12.309,11.051 6.609,8.746 15.566,17.777 25.66,25.879 8.773,7.035 14.687,10.59 19.258,11.566 1.211,0.258 3.836,1.129 5.828,1.938 5.457,2.203 6.504,2.172 8.062,-0.25 1.711,-2.668 2.903,-7.352 3.364,-13.211 0.148,-1.914 0.535,-5.531 0.855,-8.039 0.32,-2.512 0.684,-6.235 0.809,-8.281 0.328,-5.321 1.761,-10.45 3.175,-11.364 1.325,-0.851 6.649,-1.472 14.844,-1.722 5.524,-0.172 7.856,-0.438 9.207,-1.043 1.426,-0.641 3.348,-2.297 3.985,-3.434 0.492,-0.871 0.535,-1.199 0.421,-3.047 -0.07,-1.14 -0.414,-3.262 -0.765,-4.711 -1.797,-7.406 -1.989,-13.023 -0.551,-15.941 0.484,-0.985 0.543,-1.473 0.562,-4.699 0.024,-3.813 0.391,-6.614 1.438,-10.922 0.664,-2.731 2.691,-7.274 3.359,-7.532 0.493,-0.187 5.778,1.165 7.493,1.918 0.699,0.309 2.851,1 4.781,1.543 3.699,1.036 4.812,1.485 5.019,2.032 0.071,0.179 -0.246,1.175 -0.703,2.207 -1.058,2.379 -1.543,3.914 -3.031,9.554 -2.176,8.266 -2.066,6.84 -1.981,26.161 0.079,18.355 0.012,19.683 -1.078,21.335 -1.429,2.176 -3.093,3.133 -5.089,2.922 -3.821,-0.398 -5.356,-0.402 -8.247,-0.031 -1.675,0.215 -6.152,0.539 -9.953,0.719 -6.75,0.32 -7.902,0.484 -8.761,1.262 -1.098,0.992 -2.43,8.781 -3.184,18.601 -0.199,2.602 -0.488,5.301 -0.637,6 -0.301,1.402 -0.14,5.262 0.282,6.738 0.421,1.477 1.515,2.454 6.214,5.563 6.254,4.133 8.977,6.797 10.852,10.605 0.883,1.786 0.812,2.786 -0.266,3.996 l -0.691,0.77 -1.52,-0.773 c -0.836,-0.422 -2.125,-1.106 -2.867,-1.52 l -1.351,-0.746 -3.055,2.059 c -1.684,1.136 -3.336,2.132 -3.676,2.218 -0.726,0.184 -0.777,0.129 -6.41,-6.675 -2.039,-2.461 -4.223,-4.918 -4.852,-5.458 -1.558,-1.335 -4.136,-2.667 -5.171,-2.667 -1.684,0 -1.723,0.71 -0.309,5.863 0.469,1.703 0.855,3.187 0.855,3.297 0,1.07 -3.203,-2.176 -5.296,-5.36 -0.774,-1.179 -1.977,-3.242 -2.676,-4.59 -1.758,-3.394 -3.004,-4.609 -5.91,-5.769 -3.004,-1.199 -4.032,-1.332 -4.93,-0.621 -0.813,0.64 -1.578,2.199 -1.586,3.234 0,0.406 0.375,1.504 0.836,2.442 0.832,1.683 1.031,2.464 0.637,2.464 -0.418,0 -1.024,-0.96 -3.375,-5.355 -2.848,-5.328 -4.391,-7.633 -6.262,-9.367 -1.774,-1.641 -2.891,-2.172 -4.578,-2.184 -1.707,-0.008 -2.512,0.508 -3.188,2.043 -0.281,0.645 -0.636,1.176 -0.785,1.18 -0.328,0.004 -1.004,-1.531 -2.41,-5.492 -1.313,-3.703 -2.047,-5.082 -3.453,-6.493 -1.352,-1.347 -3.813,-2.652 -5.012,-2.652 -0.558,0 -1.281,0.254 -1.976,0.695 -1.426,0.907 -1.809,1.957 -1.961,5.426 -0.067,1.449 -0.246,2.965 -0.399,3.36 l -0.277,0.718 -0.422,-0.515 c -0.57,-0.703 -1.09,-3.282 -1.953,-9.684 -1.051,-7.812 -1.504,-9.785 -2.742,-11.898 -0.739,-1.262 -4.289,-4.614 -5.098,-4.817 -1.512,-0.379 -2.367,0.649 -3.332,3.992 -0.578,2.004 -1.137,2.469 -1.418,1.188 -0.09,-0.422 -0.09,-3.063 0.008,-5.875 0.191,-5.59 0.043,-6.863 -1.008,-8.699 -0.324,-0.567 -1.027,-1.352 -1.566,-1.742 -2.258,-1.633 -3.993,-0.485 -6.379,4.211 -1.012,1.992 -1.422,2.492 -1.696,2.074 -0.121,-0.18 -0.293,-1.637 -0.386,-3.239 -0.223,-3.867 -0.7,-6.324 -1.36,-7.027 -1.625,-1.73 -4.242,-1.105 -6.828,1.629 -1.453,1.539 -2.199,2.777 -3.465,5.738 -1.105,2.582 -1.261,1.989 1.543,5.746 1.891,2.536 6.707,7.52 7.504,7.774 0.383,0.121 0.645,0.586 1.012,1.797 0.273,0.898 1.016,2.433 1.652,3.41 0.637,0.976 1.504,2.39 1.93,3.137 0.996,1.75 3,3.586 5.699,5.226 2.285,1.387 4.742,3.684 7.668,7.172 1.957,2.328 6.289,6.293 7.695,7.039 1.356,0.719 2.024,0.496 2.985,-1.004 0.43,-0.664 0.894,-1.172 1.035,-1.125 0.141,0.047 0.426,0.781 0.637,1.629 0.207,0.848 0.699,2.137 1.093,2.859 1.446,2.668 5.141,5.77 8.868,7.442 2.07,0.93 4.543,1.683 5.519,1.683 0.61,0 1.172,0.325 2.512,1.446 1.933,1.617 3.957,2.715 6.973,3.777 4.046,1.426 5.871,1.66 8.878,1.137 0.782,-0.137 0.977,-0.024 2.731,1.523 2.187,1.934 5.406,3.711 8.793,4.86 2.344,0.797 4.879,1.015 6.957,0.597 0.75,-0.148 1.078,-0.019 2.996,1.203 3.73,2.379 8.09,4.106 9.707,3.848 0.988,-0.16 6.43,0.594 13.746,1.899 5.031,0.898 9.543,1.425 14.231,1.667 1.586,0.083 4.769,0.317 7.082,0.52 6.183,0.551 8.175,0.25 9.093,-1.387 0.442,-0.785 0.176,-1.843 -0.523,-2.109 -0.703,-0.266 -2.641,-1.805 -4.043,-3.211 -1.426,-1.426 -1.766,-2.688 -1.586,-5.93 0.137,-2.484 0.43,-3.332 1.504,-4.32 0.355,-0.328 1.359,-1.504 2.227,-2.609 1.675,-2.141 2.484,-2.668 4.07,-2.668 0.504,0 1.344,-0.223 1.867,-0.489 0.918,-0.468 0.984,-0.472 1.879,-0.074 0.883,0.399 0.976,0.399 2.039,-0.019 0.609,-0.243 1.996,-0.743 3.078,-1.118 2.473,-0.851 3.449,-1.351 6.434,-3.293 1.32,-0.859 3.211,-1.964 4.199,-2.457 1.824,-0.906 2.402,-1.132 11.402,-4.437 2.77,-1.02 6.766,-2.606 8.879,-3.524 9.664,-4.207 11.09,-4.605 16.438,-4.57 6.132,0.035 10.668,0.918 14.523,2.828 2.613,1.293 4.442,2.645 7.918,5.864 3.336,3.086 5.152,4.328 6.328,4.328 1.766,0 5.996,-2.516 7.926,-4.707 1.246,-1.418 1.613,-2.637 1.133,-3.785 -0.41,-0.989 -0.938,-1.356 -3.086,-2.161 -0.895,-0.336 -2.621,-1.199 -3.84,-1.925 -1.223,-0.727 -3.082,-1.649 -4.141,-2.055 -1.054,-0.406 -3.105,-1.32 -4.558,-2.031 -1.453,-0.711 -3.207,-1.422 -3.903,-1.582 -0.691,-0.157 -1.609,-0.539 -2.039,-0.848 -1.515,-1.102 -2.976,-1.738 -6.293,-2.731 -4.273,-1.281 -8.898,-3.179 -10.039,-4.121 -0.488,-0.402 -1.316,-1.468 -1.843,-2.371 -0.903,-1.539 -2.559,-3.125 -3.274,-3.125 -0.16,0 -0.625,-0.277 -1.031,-0.621 -0.981,-0.824 -1.008,-2.129 -0.078,-3.941 1.457,-2.852 2.496,-2.942 14.461,-1.203 10.031,1.461 11.707,1.8 21.359,4.351 16.754,4.43 27.77,8.008 30.965,10.059 3.23,2.074 5.027,5.707 5.031,10.18 0.004,3.191 -0.191,3.492 -5.976,9.253 -3.692,3.68 -5.274,5.09 -6.262,5.582 -1.613,0.809 -4.027,2.93 -5.309,4.661 -0.757,1.027 -1.793,1.847 -5.082,4.027 -2.269,1.508 -5.539,3.695 -7.261,4.863 -6.063,4.11 -16.293,9.434 -24.106,12.547 -4.226,1.684 -21.828,6.453 -29.59,8.02 -10.269,2.066 -13.949,2.394 -36.89,3.273 -3.762,0.145 -7.598,0.359 -8.52,0.477 -1.996,0.257 -3.379,0.254 -4.203,-0.008 -0.328,-0.106 -2.383,-0.203 -4.559,-0.219 -2.457,-0.016 -4.507,-0.156 -5.398,-0.363 -1.844,-0.43 -5.426,-0.946 -11.77,-1.692 -9.421,-1.101 -14.144,-2.039 -25.429,-5.039 -11.723,-3.117 -19.344,-5.523 -26.364,-8.32 -2.843,-1.133 -21.511,-10.379 -25.238,-12.504 -1.453,-0.828 -3.883,-2.43 -5.398,-3.566 -1.52,-1.137 -3.938,-2.848 -5.375,-3.809 -1.434,-0.957 -3.387,-2.418 -4.336,-3.246 -0.949,-0.828 -2.074,-1.684 -2.5,-1.906 -1.895,-0.981 -9.656,-8.086 -18.891,-17.297 -7.539,-7.516 -9.836,-10.106 -13.722,-15.457 -1.286,-1.766 -2.782,-3.688 -3.329,-4.266 -0.57,-0.605 -1.687,-2.406 -2.621,-4.222 -0.894,-1.747 -3.035,-5.711 -4.754,-8.813 -3.781,-6.82 -5.886,-11.18 -7.711,-15.961 -0.757,-1.98 -1.918,-5.004 -2.578,-6.719 -1.472,-3.812 -2.996,-8.398 -5.105,-15.359 -3.082,-10.164 -4.043,-14.586 -4.918,-22.625 -0.262,-2.41 -0.699,-5.812 -0.969,-7.559 -1.535,-9.878 -1.633,-20.664 -0.23,-25.738 0.797,-2.871 1.41,-6.219 2.41,-13.07 2.34,-16.074 4.121,-25.211 6.156,-31.57 0.945,-2.95 1.332,-3.793 2.879,-6.29 0.59,-0.953 1.965,-3.652 3.062,-6 2.141,-4.582 3.297,-6.73 4.579,-8.515 1.039,-1.442 2.16,-3.68 2.39,-4.754 0.399,-1.879 1.617,-3.406 3.989,-4.996 1.191,-0.801 1.89,-1.957 1.89,-3.129 0,-2.547 1.504,-6.059 3.524,-8.234 1.683,-1.809 4.64,-5.508 6.011,-7.52 0.543,-0.793 2.301,-2.898 3.914,-4.684 1.61,-1.781 3.512,-4.066 4.223,-5.078 2.012,-2.847 9.383,-9.609 12.039,-11.039 0.465,-0.254 0.984,-0.883 1.387,-1.683 0.984,-1.946 1.465,-2.524 2.941,-3.532 0.75,-0.511 2.711,-2.093 4.363,-3.519 5.297,-4.578 14.266,-10.945 21.02,-14.926 1.594,-0.941 3.359,-2.098 3.922,-2.566 0.562,-0.469 1.207,-0.856 1.426,-0.856 0.652,0 3.734,-1.566 6.48,-3.293 3.067,-1.929 4.215,-2.41 8.422,-3.551 1.777,-0.48 4.844,-1.464 6.82,-2.187 5.785,-2.113 13.473,-4.141 17.192,-4.535 0.855,-0.09 2.097,-0.414 2.758,-0.723 2.207,-1.023 7.855,-2.223 16.32,-3.461 2.773,-0.402 6.121,-0.949 7.441,-1.211 3.266,-0.648 6.121,-0.902 13.317,-1.191 6.461,-0.254 9.332,-0.527 11.554,-1.098 0.856,-0.219 1.629,-0.328 2.567,-0.332 z m -164.86,26.188 c 0.082,-0.004 0.164,0 0.254,0.007 0.692,0.055 0.93,0.235 1.383,1.028 0.684,1.207 2.789,7.613 3.274,9.98 0.328,1.602 0.464,1.871 1.386,2.672 l 1.024,0.887 -0.43,0.906 c -0.539,1.129 -10.645,14.649 -12.168,16.277 -0.617,0.661 -1.414,1.821 -1.773,2.583 -0.422,0.906 -0.95,1.589 -1.524,1.98 -1.082,0.734 -1.66,0.727 -3.644,-0.043 -2.235,-0.871 -7.239,-2.129 -11.258,-2.832 -3.86,-0.672 -4.582,-0.996 -4.582,-2.031 0,-2.192 5.113,-9.199 9.101,-12.473 0.547,-0.449 2.219,-2.449 3.719,-4.441 2.82,-3.754 4.129,-5.223 5.852,-6.578 0.554,-0.438 1.445,-1.438 1.98,-2.223 0.535,-0.789 1.406,-1.707 1.942,-2.043 0.535,-0.34 1.851,-1.313 2.929,-2.168 1.461,-1.16 1.957,-1.469 2.535,-1.488 z m 342.723,14.593 c 0.231,0 0.742,0.407 1.137,0.903 1.664,2.078 7.578,11.219 8.676,13.41 1.566,3.125 3.539,8.426 4.394,11.816 1.195,4.723 1.074,4.95 -2.656,4.778 -3.492,-0.16 -5.274,0.109 -9.008,1.371 -1.77,0.597 -3.422,1.086 -3.668,1.086 -0.57,0 -1.105,-0.594 -2.68,-2.957 -1.273,-1.91 -2.656,-4.59 -2.656,-5.157 0,-0.171 -1.351,-1.636 -3,-3.253 -1.652,-1.618 -3,-3.055 -3,-3.192 0,-0.137 0.445,-0.941 0.992,-1.785 0.547,-0.848 2.723,-4.293 4.828,-7.656 4.438,-7.082 6.055,-9.364 6.641,-9.364 z M 438,138.559 c 1.762,-0.055 3.352,0.214 4.738,0.808 1.996,0.852 2.883,1.485 2.883,2.063 0,0.863 -1.008,1.211 -4.125,1.441 -4.719,0.34 -10,0.113 -11.281,-0.492 -2.051,-0.965 -0.305,-2.289 4.426,-3.367 1.179,-0.27 2.3,-0.418 3.359,-0.453 z m -15.059,25.664 c 7.914,-0.008 17.207,1.902 22.11,4.543 0.941,0.507 3.101,1.918 4.801,3.136 7.195,5.157 11.304,8.762 13.902,12.203 4.934,6.543 8.793,19.333 8.84,29.313 0.027,5.703 -0.293,6.613 -4.41,12.48 -5.774,8.231 -14.938,23.821 -16.829,28.629 -0.273,0.688 -1.613,3.575 -2.98,6.411 -2.312,4.8 -3.953,8.589 -3.953,9.117 0,0.125 -0.219,0.808 -0.484,1.519 -0.344,0.918 -0.676,1.379 -1.141,1.59 -0.785,0.363 -4.852,0.551 -6.106,0.281 -0.488,-0.101 -1.054,-0.328 -1.257,-0.496 -0.532,-0.441 -0.481,-2.949 0.113,-5.761 1.32,-6.258 5.238,-18.922 6.797,-21.985 0.472,-0.926 1.246,-2.801 1.722,-4.172 1.055,-3.027 2.7,-6.351 5.11,-10.332 0.996,-1.652 2.558,-4.562 3.469,-6.469 0.91,-1.902 2.418,-4.648 3.351,-6.097 3.934,-6.117 5.34,-10.906 5.633,-19.153 l 0.141,-4 -0.645,-1.039 c -0.355,-0.574 -1.07,-1.582 -1.594,-2.242 -0.523,-0.66 -1.515,-2.281 -2.211,-3.597 -2.156,-4.102 -4.851,-7.047 -9.476,-10.364 -2.332,-1.668 -6.094,-3.633 -8.418,-4.398 -5.852,-1.922 -11.969,-0.363 -16.297,4.148 -1.766,1.84 -2.539,3.051 -3.207,5.012 -0.461,1.352 -0.504,1.852 -0.379,4.52 0.172,3.691 1.121,8.437 2.094,10.468 0.39,0.821 1.461,2.465 2.379,3.653 0.918,1.187 2.089,2.808 2.597,3.597 2.094,3.235 3.848,8.473 5.36,15.996 1.199,5.954 1.261,7.868 0.359,11.329 -0.348,1.343 -0.75,3.277 -0.891,4.296 -0.371,2.672 -1.062,4.403 -5.023,12.579 -4.348,8.972 -5.219,11.152 -7.18,17.902 -0.273,0.937 -0.711,1.894 -0.972,2.133 -0.75,0.679 -2.411,0.382 -5.172,-0.926 -2.844,-1.348 -3.715,-2.086 -3.715,-3.156 0,-1.309 6.238,-20.368 8.641,-26.391 2.269,-5.691 2.546,-7.574 2.16,-14.52 -0.5,-8.968 -1.137,-13.011 -2.832,-18.011 -1.516,-4.465 -1.7,-4.735 -6.891,-10.071 -4.168,-4.277 -4.098,-4.113 -3.875,-9.679 0.191,-4.715 0.731,-9.852 1.234,-11.801 1.036,-3.996 3.391,-6.773 7.5,-8.848 1.993,-1.007 3.895,-1.343 7.625,-1.347 z m -21.601,11.156 -0.024,4.437 c -0.015,3.125 -0.144,5.079 -0.433,6.582 -0.442,2.278 -1.125,3.915 -1.742,4.149 -0.653,0.25 -6.246,-1.141 -11.84,-2.942 -11.363,-3.664 -15.403,-3.773 -28.922,-0.804 -5.313,1.172 -8.859,2.105 -13.078,3.453 -4.403,1.406 -4.563,1.437 -4.563,0.887 0,-1.078 2.7,-3.875 5.465,-5.661 5.192,-3.359 15.863,-8.113 18.168,-8.097 0.547,0.004 1.649,-0.297 2.574,-0.703 0.977,-0.43 2.399,-0.809 3.563,-0.957 1.07,-0.133 8.414,-0.266 16.387,-0.293 z m -118.781,1.082 c 0.418,0 0.418,-0.051 -0.008,3.875 -1.039,9.59 -0.696,13.117 1.332,13.656 0.34,0.09 1.66,0.055 2.93,-0.082 3.554,-0.375 3.718,-0.023 1.828,3.906 -1.453,3.028 -3.637,6.348 -5.993,9.122 -2.23,2.632 -3.328,4.257 -4.632,6.878 -1.664,3.332 -2.18,5.067 -3.512,11.731 -1.469,7.383 -1.918,9.238 -3.051,12.59 -0.754,2.234 -0.851,2.793 -0.844,4.922 0.028,7.316 4.657,19.445 10.809,28.32 2.434,3.512 10.043,12.937 11.719,14.519 0.91,0.86 2.355,2.047 3.211,2.641 1.843,1.277 12.773,12.098 13.89,13.75 1.141,1.684 1.532,3.035 1.422,4.922 -0.113,1.977 -0.851,3.594 -2.301,5.043 -1.25,1.246 -2.515,1.848 -4.621,2.187 -1.816,0.297 -5.164,0.289 -7.558,-0.015 -4.25,-0.543 -9.84,-2.637 -9.84,-3.688 0,-0.457 0.144,-0.476 3,-0.433 1.754,0.023 3.695,0.203 4.68,0.433 0.925,0.215 2.015,0.446 2.425,0.516 1.317,0.226 3.371,-1.164 3.825,-2.582 0.414,-1.305 -2.657,-4.824 -5.43,-6.223 -1.805,-0.91 -4.598,-1.656 -10.688,-2.859 -6.093,-1.199 -8.898,-2.176 -10.593,-3.692 -0.59,-0.527 -0.727,-1.359 -0.223,-1.359 0.176,0 0.828,0.172 1.449,0.387 0.75,0.254 1.43,0.328 2.024,0.215 2.609,-0.496 5.582,0.257 6.675,1.691 0.332,0.434 0.766,0.848 0.973,0.926 0.582,0.226 2.449,-0.719 2.754,-1.395 0.457,-0.996 -0.156,-1.965 -3.148,-4.957 -2.063,-2.066 -3.161,-2.968 -4.305,-3.539 -0.844,-0.422 -1.711,-0.769 -1.93,-0.769 -0.219,0 -1.203,-0.211 -2.183,-0.469 -5.262,-1.383 -14.848,-6.402 -19.731,-10.328 -3.266,-2.629 -3.238,-3.293 0.055,-1.434 5.062,2.852 11.472,5.512 13.293,5.512 0.937,0 1.164,-0.113 1.953,-0.984 0.789,-0.879 0.871,-1.082 0.73,-1.86 -0.539,-2.945 -3.265,-6.461 -6.437,-8.293 -0.895,-0.515 -1.59,-1.039 -1.547,-1.164 0.043,-0.125 0.504,-0.375 1.027,-0.555 1.012,-0.347 2.032,-1.324 2.032,-1.945 0,-0.711 -1.707,-5.476 -2.743,-7.668 -1.316,-2.777 -2.425,-4.402 -5.593,-8.199 -1.399,-1.68 -3.145,-3.863 -3.879,-4.852 -1.285,-1.73 -3.383,-5.191 -3.383,-5.574 0,-0.633 1.117,0.235 4.531,3.512 4.774,4.574 6.297,5.41 7.738,4.242 0.543,-0.437 0.567,-0.59 0.547,-3.301 -0.027,-3.441 -0.293,-4.32 -2.902,-9.523 -2.285,-4.563 -3.91,-8.336 -4.859,-11.301 -0.797,-2.492 -0.887,-3.137 -0.465,-3.394 0.367,-0.227 0.859,0.464 2.64,3.683 1.786,3.223 2.125,3.594 3.036,3.274 0.484,-0.168 0.886,-0.692 1.558,-2.02 0.969,-1.926 4.012,-9.867 4.012,-10.473 0,-0.199 -0.543,-1.886 -1.211,-3.746 -1.453,-4.05 -2.567,-8.461 -2.781,-11.027 -0.149,-1.797 -0.137,-1.871 0.355,-1.871 0.723,0 1.313,1.305 1.949,4.32 0.782,3.703 1.93,6.445 2.926,6.981 1.871,1 7.09,-4.887 8.84,-9.977 0.617,-1.793 0.617,-2.809 0.004,-3.363 -0.57,-0.52 -0.594,-1.047 -0.117,-2.621 0.195,-0.645 0.355,-1.809 0.355,-2.582 0,-3.172 3.055,-13.637 3.977,-13.637 z m -6.063,0.457 c 0.109,0 0.164,0.074 0.164,0.223 0,0.113 -0.203,0.797 -0.453,1.527 -0.254,0.727 -0.637,2.66 -0.855,4.297 -0.805,6 -1.133,8.039 -1.485,9.215 -0.195,0.66 -0.445,2.386 -0.554,3.84 -0.11,1.48 -0.375,3.078 -0.602,3.64 -0.438,1.07 -0.91,1.426 -1.293,0.965 -0.52,-0.633 -1.527,-5.645 -1.934,-9.652 -0.199,-1.942 -0.168,-2.321 0.329,-3.836 0.3,-0.922 0.625,-2.055 0.722,-2.52 0.324,-1.539 1.66,-3.668 3.567,-5.683 1.265,-1.336 2.074,-2.012 2.394,-2.016 z m 160.848,1 c 0.219,-0.012 0.515,0.051 1.015,0.184 2.133,0.562 5.996,3.589 10.512,8.23 3.383,3.477 4.512,4.922 5.125,6.563 0.274,0.726 0.891,2.105 1.375,3.062 0.785,1.555 0.895,1.988 0.992,4.023 0.246,5.09 -1.906,11.481 -4.523,13.418 -0.973,0.715 -1.531,2.028 -2.016,4.7 -0.574,3.164 -1.015,4.34 -2.172,5.761 -2.683,3.293 -3.972,5.676 -7.918,14.641 -1.277,2.902 -2.726,6.035 -3.226,6.961 -0.5,0.922 -0.965,2.07 -1.039,2.551 -0.071,0.476 -0.739,2.187 -1.489,3.801 -0.746,1.613 -1.578,3.816 -1.847,4.89 -0.27,1.074 -0.684,2.332 -0.914,2.797 -0.68,1.348 -1.414,3.961 -1.949,6.941 -0.606,3.395 -1.055,4.809 -1.696,5.36 -0.594,0.512 -1.238,0.535 -1.625,0.066 -0.82,-0.984 -0.515,-5.191 0.711,-9.847 0.953,-3.618 1.594,-5.254 4.188,-10.68 4.664,-9.758 6.691,-16.25 7.367,-23.617 0.363,-3.93 0.055,-6.942 -1.231,-12.145 -0.539,-2.176 -1.144,-4.984 -1.347,-6.238 -0.594,-3.676 -0.949,-4.277 -5.465,-9.219 -2.938,-3.215 -4.285,-5.152 -4.863,-6.984 -0.786,-2.489 0.058,-3.274 2.062,-1.922 1.535,1.031 3.152,1.148 4.692,0.34 1.542,-0.809 3.656,-3.047 4.507,-4.77 1.047,-2.117 1.196,-4.625 0.399,-6.75 -0.5,-1.344 -0.512,-1.476 -0.145,-1.844 0.172,-0.171 0.305,-0.261 0.52,-0.273 z m -5.836,4.062 c 0.93,0.008 1.219,0.168 1.605,0.899 0.461,0.875 -0.086,2.394 -1.285,3.594 -1.156,1.156 -1.644,1.269 -2.133,0.488 -1.23,-1.969 -0.129,-4.988 1.813,-4.981 z m -62.449,8.809 c 5.589,-0.012 7.5,0.234 12.718,1.625 2.18,0.582 5.852,1.434 8.164,1.899 6.364,1.277 14.602,4.16 17.875,6.253 2.387,1.528 4.481,5.672 6.09,12.075 1.364,5.418 1.93,11.047 1.508,15.019 -0.137,1.297 -0.375,2.512 -0.531,2.699 -0.649,0.782 -2.399,0.079 -5.899,-2.375 -1.054,-0.742 -2.402,-1.55 -2.988,-1.804 -0.586,-0.25 -2.574,-1.66 -4.418,-3.137 -5.844,-4.672 -13.328,-9.484 -18.719,-12.031 -8.058,-3.813 -19.117,-7.797 -28.32,-10.211 -6.234,-1.633 -8.699,-2.375 -10.355,-3.106 -3.012,-1.332 -1.196,-2.269 9.539,-4.914 6.039,-1.488 9.824,-1.98 15.336,-1.992 z m -72.289,3.957 c 0.214,-0.008 0.429,0.125 0.699,0.313 1.047,0.734 1.511,2 2.719,7.347 1.359,6.043 2.273,9.582 4.347,16.895 0.813,2.859 1.488,5.765 1.563,6.719 l 0.136,1.679 -2.175,2.836 c -5.95,7.754 -7.789,13.836 -5.598,18.512 1.836,3.926 6.988,9.113 11.102,11.183 2.48,1.247 4.57,1.79 9.214,2.395 5.68,0.738 6.364,0.984 5.485,1.957 -1.024,1.133 -4.364,2.43 -7.641,2.969 -3.23,0.531 -7.605,0.64 -9.601,0.246 -3.657,-0.727 -6.524,-2.219 -9.012,-4.695 -1.988,-1.973 -2.985,-3.653 -4.434,-7.465 -1.004,-2.637 -2,-4.477 -3.187,-5.899 -0.633,-0.754 -1,-1.57 -1.414,-3.129 -2.993,-11.222 -5.352,-22.015 -5.352,-24.48 0,-0.594 -0.23,-1.832 -0.512,-2.754 -0.941,-3.105 -0.074,-5.48 3.368,-9.184 2.738,-2.949 4.199,-5.093 6.609,-9.695 2.359,-4.5 3.039,-5.734 3.684,-5.75 z m -95.719,4.754 c 0.644,0 1.117,0.762 3.426,5.523 1.144,2.36 2.589,4.93 3.293,5.864 0.687,0.91 1.351,1.914 1.472,2.23 0.656,1.731 -0.644,11.949 -1.816,14.207 -0.781,1.516 -3.887,3.528 -6.481,4.203 -1.101,0.286 -1.675,0.633 -2.738,1.641 -1.625,1.539 -3.977,3.23 -6.457,4.645 -1.012,0.574 -2.039,1.046 -2.285,1.046 -0.402,0 -0.434,-0.132 -0.289,-1.261 0.316,-2.473 1.383,-7.305 2.191,-9.899 0.449,-1.453 1.246,-4.422 1.774,-6.601 1.523,-6.321 2.097,-8.262 3.211,-10.868 0.574,-1.347 1.597,-3.988 2.269,-5.867 1.496,-4.179 1.836,-4.863 2.43,-4.863 z m 342.984,1.488 c 0.555,0.02 0.672,0.356 0.641,1.125 -0.028,0.75 0.156,1.239 0.867,2.27 2,2.902 6.859,7.246 11.945,10.68 2.75,1.855 4.774,3.8 4.774,4.585 0,0.586 -0.27,0.602 -2.082,0.129 -1.961,-0.507 -4.457,-0.48 -4.946,0.063 -1.464,1.625 -0.054,5.383 4.817,12.844 3.711,5.679 5.633,9 6.644,11.484 0.879,2.148 1.305,4.051 0.91,4.051 -0.128,0 -1.425,-1.809 -2.886,-4.02 -3.727,-5.648 -5.024,-7.019 -6.641,-7.019 -1.113,0 -2.137,2.621 -2.164,5.519 -0.016,2.188 -0.316,1.489 7.063,16.559 5.539,11.316 6.375,13.148 6.121,13.402 -0.45,0.449 -2.051,-1.722 -5.453,-7.402 -4.911,-8.188 -6.352,-9.653 -7.883,-8.02 -0.504,0.535 -0.578,0.84 -0.559,2.223 0.039,2.684 1.223,6.383 3.817,11.918 2.781,5.937 5.445,12.93 7.097,18.625 1.547,5.344 2.285,9.789 1.692,10.16 -0.364,0.223 -0.664,-0.387 -1.317,-2.695 -1.32,-4.656 -3.887,-10.66 -6.023,-14.086 -1.75,-2.805 -2.762,-3.399 -3.43,-2.008 -0.539,1.125 -0.609,5.395 -0.269,16.164 0.179,5.809 0.328,13.152 0.324,16.32 l -0.012,5.758 -0.762,2.223 c -1.578,4.578 -3.418,7.48 -5.379,8.48 -0.523,0.266 -1.781,0.582 -2.796,0.707 -1.016,0.121 -2.086,0.289 -2.379,0.371 -0.391,0.114 -0.715,-0.031 -1.239,-0.554 -1.484,-1.485 -1.597,-4.477 -0.285,-7.469 1.953,-4.445 1.918,-7.738 -0.137,-13.621 -0.906,-2.59 -0.914,-2.652 -0.953,-6.574 -0.023,-2.18 -0.164,-5.582 -0.308,-7.563 -0.918,-12.312 -1.387,-31.793 -1.008,-41.879 0.152,-4.027 0.344,-11.597 0.426,-16.824 0.164,-10.152 0.117,-10.801 -1.016,-14.441 -0.32,-1.028 -0.742,-2.629 -0.937,-3.563 -0.223,-1.07 -0.887,-2.75 -1.793,-4.539 -2.106,-4.152 -3.375,-7.25 -3.375,-8.234 0,-0.754 0.156,-0.992 1.226,-1.836 1.469,-1.164 4.106,-2.461 6.133,-3.02 0.711,-0.199 1.199,-0.301 1.535,-0.293 z m -283.39,6.719 c 0.82,-0.164 2.242,3.875 2.382,6.785 0.09,1.781 -0.402,2.063 -1.175,0.676 -1.336,-2.398 -2.125,-7.273 -1.207,-7.461 z m 364.613,6.91 c 0.469,0 0.644,0.262 1.172,1.742 2.129,5.985 4.418,15.528 6.015,25.09 1,5.981 1.035,6.715 0.356,7.578 -0.274,0.348 -0.621,0.625 -0.778,0.614 -0.476,-0.028 -1.894,-0.598 -3.523,-1.422 -3.672,-1.852 -4.344,-2.016 -8.137,-1.961 -2.664,0.035 -3.582,-0.031 -3.984,-0.297 -0.895,-0.586 -1.336,-2.82 -2.281,-11.543 -0.141,-1.32 -0.426,-3.613 -0.633,-5.094 -0.207,-1.484 -0.313,-2.961 -0.235,-3.277 0.239,-0.949 2.094,-3.031 5.68,-6.371 4.188,-3.903 5.637,-5.059 6.348,-5.059 z m -149.238,9.891 c 0.511,-0.024 0.851,0.433 1.82,2.215 0.879,1.621 0.836,2.371 -0.242,4.195 -0.946,1.602 -4.606,6.285 -8.028,10.266 -1.117,1.296 -3.785,4.515 -5.929,7.156 -2.145,2.64 -4.602,5.582 -5.457,6.539 -1.477,1.652 -2.004,2.043 -2.004,1.496 0,-0.598 7.828,-15.68 10.152,-19.559 3.043,-5.078 8.379,-12 9.453,-12.269 0.086,-0.024 0.16,-0.035 0.235,-0.039 z m -222.45,2.351 c 0.528,0 0.743,0.36 1.977,3.262 0.555,1.309 1.644,3.652 2.422,5.207 0.777,1.559 1.41,3.043 1.41,3.301 0,0.726 -0.313,0.574 -1.598,-0.789 -2.5,-2.652 -5.121,-7.281 -5.121,-9.047 0,-1.203 0.344,-1.934 0.91,-1.934 z m 25.297,5.121 c 0.332,0.032 0.629,0.551 0.77,1.602 0.207,1.551 2.929,11.086 4.492,15.719 2.426,7.207 5.363,13.664 7.516,16.515 0.535,0.711 2.382,2.641 4.105,4.289 2.797,2.68 3.254,3.032 4.32,3.262 3.254,0.711 10.235,0.492 14.864,-0.465 5.593,-1.156 13.183,-4.011 15.632,-5.879 0.664,-0.507 1.075,-1.175 2.114,-3.445 0.664,-1.449 2.363,-0.781 6.929,2.735 4.368,3.359 9.383,7.003 10.707,7.769 0.61,0.356 2.075,1.379 3.262,2.277 1.477,1.118 2.582,1.758 3.481,2.012 1.648,0.469 3.207,1.328 6.718,3.703 1.52,1.028 3.356,2.164 4.082,2.52 0.727,0.355 1.883,1.011 2.571,1.461 1.386,0.906 4.121,2.203 8.078,3.84 3.379,1.394 6.152,2.722 7.953,3.804 1.883,1.137 3.719,2.938 3.719,3.653 0,0.3 -0.379,1.89 -0.84,3.527 -2.414,8.566 -4.082,18.226 -4.356,25.219 -0.16,4.195 0.11,7.593 0.895,11.187 0.387,1.77 0.426,2.352 0.211,3.004 -0.356,1.074 -0.828,1.289 -2.863,1.289 -1.25,0 -1.965,0.133 -2.68,0.496 -1.414,0.723 -4.156,0.938 -12.109,0.942 l -6.985,0.004 -1.598,2.253 c -1.925,2.719 -2.929,4.793 -3.39,7.008 -0.469,2.25 -1.957,13.223 -2.277,16.778 -0.477,5.289 -2.817,15.222 -3.973,16.859 -0.211,0.297 -0.57,0.543 -0.801,0.543 -0.598,0 -4.098,-1.734 -4.953,-2.453 -1.027,-0.86 -3.602,-2.403 -6.156,-3.688 -2.914,-1.461 -5.946,-3.359 -8.004,-5.007 -0.926,-0.743 -3.129,-2.336 -4.903,-3.543 -3.878,-2.641 -6.558,-4.86 -10.605,-8.774 -5.816,-5.633 -10.566,-11.281 -13.621,-16.203 -2.067,-3.332 -4.547,-5.816 -8.266,-8.27 -3.578,-2.363 -7.64,-4.371 -9.289,-4.589 -1.828,-0.246 -5.387,0.074 -7.605,0.683 -3.176,0.871 -4.949,1.957 -7.532,4.606 -1.265,1.297 -2.46,2.355 -2.656,2.355 -0.195,0 -0.758,-0.672 -1.25,-1.5 -1.535,-2.578 -4.886,-9.351 -5.429,-10.98 -0.286,-0.86 -0.84,-2.133 -1.235,-2.84 -1.707,-3.051 -3.566,-8.75 -3.574,-10.957 -0.004,-1.528 -0.383,-3.285 -2.02,-9.442 -0.722,-2.726 -1.488,-5.988 -1.699,-7.242 -0.75,-4.492 -0.867,-5.047 -1.687,-7.949 -0.879,-3.121 -1.059,-4.602 -0.657,-5.375 0.297,-0.559 0.704,-3.102 0.915,-5.672 0.179,-2.215 0.519,-2.828 1.347,-2.43 0.309,0.153 1.645,1.207 2.965,2.344 2.859,2.465 5.75,4.473 8.461,5.875 1.09,0.563 2.355,1.32 2.812,1.684 0.903,0.719 1.622,1.043 3.161,1.437 1.468,0.375 1.629,0.703 0.882,1.801 -1.207,1.777 -1.617,4.367 -0.949,5.965 0.723,1.73 2.824,2.887 9.074,4.992 4.793,1.613 6.926,2.477 7.196,2.91 0.254,0.414 -0.5,1.543 -1.684,2.516 -1.191,0.976 -1.953,2.098 -1.953,2.875 0,1.058 0.781,2.848 1.637,3.734 0.48,0.5 1.902,1.434 3.156,2.078 4.477,2.293 10.406,3.641 16.086,3.653 3.687,0.008 5.18,-0.301 7.758,-1.606 4.785,-2.422 7.843,-6.379 7.843,-10.148 0,-3.727 -1.734,-8.024 -4.621,-11.453 -3.093,-3.672 -9.296,-9.586 -16.019,-15.27 -6.238,-5.273 -10.633,-10.531 -14.363,-17.183 -1.422,-2.536 -1.875,-3.512 -4.043,-8.696 l -1.555,-3.719 0.273,-5.519 c 0.293,-5.875 0.571,-8.981 1.008,-11.238 0.289,-1.504 0.778,-2.278 1.207,-2.243 z m -28.601,15.059 c 0.574,0.012 1.703,1.149 3.656,3.57 1.332,1.657 3.273,3.954 4.312,5.102 1.379,1.527 1.93,2.324 2.032,2.941 0.109,0.684 0.058,0.848 -0.258,0.848 -0.516,0 -7.832,-7.145 -9.184,-8.969 -0.804,-1.082 -1.047,-1.617 -1.047,-2.324 0,-0.773 0.145,-1.172 0.489,-1.168 z m 2.98,13.461 c 0.219,-0.047 0.688,0.109 1.047,0.34 0.898,0.586 5.266,4.129 5.445,4.422 0.227,0.359 0.051,0.301 -1.457,-0.492 -1.84,-0.969 -4.258,-2.707 -4.906,-3.532 -0.457,-0.574 -0.473,-0.668 -0.129,-0.738 z m -61.949,35 c 0.18,0 1.019,0.449 1.867,0.996 3.078,2.004 7.578,3.578 11.449,4.012 1.2,0.133 2.496,0.406 2.883,0.609 2.035,1.051 3.641,4.719 4.356,9.938 0.14,1.027 0.527,2.836 0.851,4.015 1.938,6.996 2.078,7.653 1.965,9.141 -0.141,1.91 -0.766,3.121 -2.832,5.488 -0.922,1.055 -2.441,3.055 -3.379,4.438 -0.937,1.386 -2.09,2.926 -2.559,3.422 -0.472,0.496 -0.937,0.902 -1.039,0.902 -0.832,0 -3.144,-4.59 -4.293,-8.523 -0.738,-2.528 -1.199,-3.672 -3.683,-9.188 -1.09,-2.426 -1.852,-4.656 -4.121,-12.051 -1.742,-5.691 -1.996,-6.797 -2.16,-9.437 -0.157,-2.528 0.07,-3.762 0.695,-3.762 z m 421.75,3.961 1.305,0.016 c 0.718,0.011 2.625,0.144 4.23,0.3 1.606,0.157 4.637,0.282 6.734,0.282 4.563,0 4.778,0.082 4.543,1.769 -0.082,0.617 -0.793,2.766 -1.578,4.774 -2.453,6.296 -3.945,11.683 -5.082,18.378 -0.828,4.891 -1.226,6.547 -1.765,7.372 -0.524,0.8 -0.926,0.738 -1.731,-0.266 -1.906,-2.375 -2.855,-3.246 -4.316,-3.981 -0.856,-0.429 -2.223,-1.363 -3.039,-2.074 -0.821,-0.711 -2.211,-1.718 -3.094,-2.234 -0.934,-0.547 -1.68,-1.168 -1.781,-1.481 -0.684,-2.035 0.418,-7.132 3.683,-17.097 z m -139.817,4.586 c 2.973,0 3.629,0.211 4.004,0.726 0.848,1.161 0.977,3.243 0.422,6.926 -0.5,3.336 -1.14,5.516 -2.449,8.36 -0.793,1.726 -1.148,2.839 -1.223,3.808 -0.093,1.285 -0.05,1.43 0.746,2.36 0.465,0.543 1.313,1.925 1.879,3.07 1.547,3.125 2.918,5.101 4.239,6.101 0.652,0.497 2.679,1.688 4.5,2.641 1.824,0.957 3.355,1.875 3.414,2.039 0.148,0.453 -1.727,0.379 -4.063,-0.164 -4.261,-0.988 -7.828,-0.836 -11.097,0.473 -2.063,0.824 -3.129,0.867 -5.543,0.215 -2.586,-0.7 -5.243,-1.149 -8.399,-1.414 -3.316,-0.282 -5.863,-0.922 -7.918,-1.997 -2.039,-1.066 -5.066,-4.152 -6.179,-6.3 -1.766,-3.411 -2.723,-8.368 -2.543,-13.145 0.089,-2.355 0.132,-2.531 1.234,-4.726 0.762,-1.524 1.187,-2.719 1.281,-3.602 0.445,-4.055 2.289,-4.543 19.406,-5.152 3.887,-0.137 6.504,-0.219 8.289,-0.219 z m 62.348,8.656 2.66,2.664 c 1.649,1.645 2.66,2.848 2.66,3.149 0,0.269 -0.679,1.328 -1.507,2.355 -1.996,2.469 -2.571,3.305 -2.571,3.75 0,0.199 -0.308,0.586 -0.687,0.856 -0.403,0.285 -0.754,0.804 -0.84,1.242 -0.566,2.836 -9.422,6.398 -18.152,7.301 -4.121,0.425 -4.621,0.519 -5.879,1.085 -1.446,0.649 -3.766,1 -6.84,1.04 -2.547,0.031 -2.82,-0.008 -3.508,-0.524 -0.98,-0.738 -2.059,-0.644 -2.254,0.195 v 0.004 c -0.078,0.328 -0.297,0.618 -0.488,0.645 -0.82,0.109 -2.621,-0.727 -4.102,-1.902 -0.871,-0.696 -1.898,-1.497 -2.281,-1.778 -0.379,-0.281 -0.617,-0.586 -0.527,-0.68 0.086,-0.089 1.867,-0.695 3.957,-1.335 2.09,-0.645 4.48,-1.461 5.308,-1.813 1.371,-0.582 1.61,-0.793 2.614,-2.348 1.105,-1.714 6.05,-7.984 9.078,-11.511 l 1.613,-1.883 1.113,0.137 c 3.364,0.406 4.598,0.414 6.996,0.043 1.418,-0.219 4.95,-0.454 8.079,-0.54 z m -120.211,6.102 c 0.067,-0.004 0.145,0.027 0.238,0.086 0.344,0.211 0.34,12.011 -0.003,14.754 l -0.258,2.054 1.344,5.196 c 2.32,8.972 3.437,15.234 3.156,17.707 -0.266,2.347 -1.266,3.945 -4.828,7.703 -5.149,5.425 -5.278,5.84 -5.278,16.793 0,9.265 0.106,9.886 2.446,14.691 0.832,1.715 1.515,3.332 1.515,3.598 0,0.261 -0.547,1.086 -1.219,1.832 -3.218,3.594 -6.46,9.859 -6.46,12.492 0,0.512 0.324,1.98 0.718,3.269 0.809,2.618 0.891,3.52 0.36,3.961 -0.203,0.168 -1.539,0.383 -3.059,0.493 -1.484,0.105 -3.023,0.254 -3.418,0.32 -0.453,0.082 -1.125,-0.051 -1.797,-0.356 -0.594,-0.269 -1.781,-0.55 -2.64,-0.628 -0.86,-0.075 -1.7,-0.243 -1.864,-0.375 -0.457,-0.356 -0.359,-1.122 0.325,-2.579 0.824,-1.75 0.957,-3.476 0.472,-6.117 -0.847,-4.629 -1.73,-6.511 -4.086,-8.715 -1.754,-1.64 -2.758,-2.254 -8.515,-5.207 l -4.215,-2.16 0.074,-6.359 c 0.148,-12.559 1,-19.363 2.57,-20.602 0.731,-0.574 2.274,-0.676 14.875,-0.976 9.871,-0.235 10.305,-0.297 13.387,-2.024 3.469,-1.937 5.109,-4.207 5.848,-8.078 0.324,-1.711 0.363,-3.168 0.246,-9 -0.145,-7.078 -0.649,-14.519 -1.117,-16.453 -0.141,-0.586 -0.582,-3.051 -0.977,-5.477 -0.668,-4.089 -0.695,-4.453 -0.34,-4.996 0.207,-0.316 0.543,-0.64 0.738,-0.714 0.504,-0.196 1.204,-1.696 1.36,-2.918 0.113,-0.872 0.203,-1.2 0.402,-1.215 z m 65.446,6.258 c 0.035,-0.012 0.078,-0.012 0.125,0 0.332,0.074 0.996,0.656 2.175,1.855 1.457,1.484 1.867,2.051 1.867,2.594 0,0.379 -0.128,0.82 -0.289,0.98 -0.156,0.156 -0.359,0.285 -0.449,0.285 -0.531,0 -3.582,-4.535 -3.582,-5.324 0,-0.223 0.043,-0.355 0.153,-0.39 z m -20.747,44.359 c 1.872,-0.063 3.555,0.269 3.555,0.922 0,0.234 -0.324,0.738 -0.723,1.117 -0.992,0.949 -0.953,1.781 0.129,2.734 1.051,0.918 2.453,1 4.036,0.231 0.671,-0.324 1.265,-0.457 1.628,-0.363 0.313,0.085 1.379,0.867 2.368,1.738 2.269,1.992 3.336,2.621 5.285,3.113 2.754,0.691 2.562,0.875 -2.164,2.031 -5.692,1.395 -8.301,2.5 -12.727,5.399 -3.074,2.011 -3.644,2.25 -6.191,2.535 -2.528,0.289 -4.098,0.73 -6.785,1.91 -1.133,0.5 -2.809,1.125 -3.719,1.391 -2.375,0.695 -3.664,0.812 -4.719,0.425 -1.949,-0.714 -2.566,-1.929 -2.574,-5.066 -0.004,-2.625 0.121,-2.863 2.898,-5.562 5.969,-5.805 12.485,-10.559 16.442,-11.993 0.941,-0.343 2.136,-0.523 3.261,-0.562 z m 21.954,24.84 c -4.274,-0.004 -4.282,-0.004 -4.766,0.593 -0.582,0.719 -0.481,2.161 0.207,2.942 0.242,0.273 2.437,1.457 4.879,2.629 7.441,3.574 7.894,3.847 7.383,4.461 -0.246,0.297 -0.922,0.336 -4.141,0.222 -4.555,-0.156 -5.676,-0.429 -10.84,-2.652 -4.375,-1.879 -4.957,-2.078 -6.105,-2.078 -0.668,0 -1.008,0.141 -1.282,0.531 -0.554,0.789 -0.48,1.141 0.704,3.391 0.593,1.125 1.082,2.109 1.082,2.183 0,0.395 -1.286,0.016 -2.848,-0.836 -3.508,-1.914 -6.277,-2.386 -8.367,-1.437 -1.133,0.516 -1.985,1.68 -1.985,2.723 -0.003,1.449 4.211,5.035 8.664,7.379 2.184,1.148 2.891,1.71 2.563,2.039 -0.293,0.293 -9.188,-4.028 -15.07,-7.321 -1.914,-1.07 -3.743,-2.015 -4.063,-2.097 -0.398,-0.102 -0.976,0.058 -1.801,0.496 -1.515,0.808 -4.074,2.832 -4.613,3.656 -0.383,0.586 -0.383,0.664 0.055,1.48 0.64,1.188 3.289,3.313 4.879,3.907 0.722,0.273 2.511,1.336 3.972,2.367 3.981,2.808 4.618,3.191 5.844,3.523 2.067,0.555 4.879,0.317 11.422,-0.965 3.41,-0.668 3.984,-0.988 3.984,-2.199 0,-0.433 0.164,-0.945 0.36,-1.144 0.539,-0.535 2.386,-1.078 5.804,-1.707 3.637,-0.664 4.075,-0.821 5.204,-1.809 0.472,-0.414 3.05,-1.891 5.726,-3.277 5.301,-2.742 8.875,-4.992 10.594,-6.66 1.754,-1.707 1.781,-2.782 0.117,-4.446 -1.941,-1.941 -5.934,-3.867 -10.762,-5.195 -2.336,-0.645 -2.832,-0.695 -6.8,-0.699 z m -218.782,11.535 c 0.157,-0.004 0.297,-0.004 0.426,0.008 0.172,0.011 0.328,0.039 0.465,0.078 2.262,0.648 6.078,3.863 9.844,8.297 3.175,3.73 4.59,5.125 6.406,6.3 0.926,0.598 3.074,2.461 4.773,4.133 l 3.094,3.043 -0.543,4.203 c -0.539,4.184 -0.539,4.239 -0.152,10.422 0.398,6.379 0.5,11.524 0.242,12.199 -0.078,0.208 -0.414,0.379 -0.746,0.379 -0.84,0 -4.313,-3.554 -11.723,-12 -10.258,-11.687 -11.383,-13.089 -11.383,-14.175 0,-0.821 -1.082,-1.789 -2.39,-2.141 -0.508,-0.137 -1.559,-0.672 -2.328,-1.191 -1.696,-1.137 -17.844,-17.278 -17.844,-17.832 0,-0.215 0.137,-0.481 0.301,-0.586 0.164,-0.106 4.242,-0.262 9.058,-0.344 6.68,-0.11 9.219,-0.238 10.688,-0.535 0.765,-0.157 1.351,-0.242 1.812,-0.258 z m 294.157,2.019 c 0.261,0 1.273,0.575 2.25,1.274 2.703,1.933 4.343,2.867 8.64,4.926 4.43,2.121 4.836,2.433 4.149,3.195 -0.739,0.82 -3.219,2.504 -4.852,3.293 -2.367,1.141 -9.219,6.984 -17.168,14.637 -2.488,2.398 -4.676,4.359 -4.859,4.359 -0.207,0 -0.336,-0.258 -0.336,-0.66 -0.004,-1.731 -0.508,-10.035 -0.735,-12.063 -0.136,-1.254 -0.464,-3.175 -0.718,-4.277 -0.805,-3.457 -0.793,-3.508 1.632,-5.602 5.34,-4.613 11.243,-9.082 11.997,-9.082 z m -125.153,4.168 c -0.293,-0.011 -0.523,-0.007 -0.668,0.02 -1.304,0.246 -2.273,1.297 -2.273,2.461 0,1.25 0.879,2.273 3.926,4.574 1.339,1.012 3.242,2.481 4.234,3.27 2.187,1.734 4.691,2.964 6.609,3.242 2.977,0.433 7.098,0.156 8.508,-0.571 0.59,-0.304 0.723,-0.523 0.723,-1.199 0,-1.062 -1.028,-2.117 -3.274,-3.363 -2.89,-1.605 -5.675,-3.559 -7.093,-4.969 -0.754,-0.754 -1.786,-1.578 -2.289,-1.836 -1.114,-0.57 -6.336,-1.539 -8.403,-1.629 z m -10.715,3.243 c -0.843,0.078 -1.328,0.82 -1.597,2.207 -0.496,2.55 0.199,6.445 1.48,8.312 0.899,1.305 1.692,1.711 3.871,1.984 2.407,0.305 9.422,0.122 10.598,-0.273 0.516,-0.176 1.152,-0.609 1.414,-0.965 0.418,-0.566 0.441,-0.73 0.172,-1.375 -0.356,-0.863 -1.344,-1.523 -3.262,-2.183 -1.879,-0.649 -4.312,-2.204 -7.305,-4.664 -2.597,-2.141 -4.281,-3.141 -5.371,-3.043 z m 73.192,31.414 c 1.359,0.101 2.437,1.351 5.426,4.351 2.418,2.43 5.281,5.227 6.363,6.211 2.648,2.41 4.43,4.481 4.25,4.945 -0.305,0.801 -5.035,2.215 -8.496,2.547 -2.711,0.258 -3.047,0.356 -6,1.758 -1.258,0.594 -3.145,1.313 -4.203,1.594 -1.055,0.281 -3.2,1.156 -4.77,1.945 l -2.848,1.426 h -3.101 c -3.488,0 -4.387,0.242 -5.215,1.406 -0.336,0.473 -0.875,0.836 -1.473,0.996 -0.527,0.145 -1.609,0.821 -2.449,1.528 -0.828,0.703 -1.738,1.398 -2.027,1.554 -0.289,0.153 -0.75,0.278 -1.028,0.278 -1.046,0 -0.941,-0.535 1.2,-6.121 1.172,-3.047 2.465,-7.973 2.871,-10.922 0.156,-1.121 0.375,-2.727 0.492,-3.571 0.348,-2.566 0.926,-2.949 7.91,-5.238 2.574,-0.844 6.352,-2.25 8.399,-3.121 2.418,-1.027 3.644,-1.644 4.699,-1.566 z m -116.34,15.218 c 0.957,0.02 2.414,0.278 5.035,0.793 6.297,1.231 9.438,1.739 12.645,2.043 4.839,0.461 5.218,0.653 6.949,3.543 1.351,2.258 5.18,9.825 5.769,11.399 0.512,1.367 0.399,1.562 -1.386,2.406 -1.793,0.848 -3.321,1.117 -7.828,1.379 -3.829,0.223 -24.231,0.277 -25.465,0.07 -7.317,-1.234 -11.266,-2.242 -12.953,-3.308 -1.618,-1.024 -1.676,-0.914 3.71,-6.704 3.043,-3.269 9.918,-9.835 11.5,-10.98 0.614,-0.445 1.067,-0.664 2.024,-0.641 z"
       style="fill:#090909;fill-opacity:1;fill-rule:nonzero;stroke:none"
       transform="scale(1.3333333)" />
  </g>
</svg>
