<?xml version="1.0" encoding="UTF-8" standalone="no"?>
<!-- Created with Inkscape (http://www.inkscape.org/) -->

<svg
   version="1.1"
   id="svg1"
   width="1122.5197"
   height="793.70074"
   viewBox="0 0 1122.5197 793.70074"
   xmlns="http://www.w3.org/2000/svg"
   xmlns:svg="http://www.w3.org/2000/svg">
  <defs
     id="defs1" />
  <g
     id="g1">
    <path
       id="path1"
       d="m 415.145,43.578 c -0.528,0 -1.961,0.617 -2.543,1.094 -0.719,0.59 -3.524,2.129 -4.5,2.473 -0.375,0.132 -1.024,0.367 -1.442,0.523 -1.879,0.703 -6.656,1.316 -12.844,1.645 -3.183,0.167 -4.589,0.429 -6.812,1.269 -2.824,1.066 -4.117,1.961 -6.305,4.371 -1.097,1.211 -1.437,1.465 -3.336,2.481 -2.543,1.359 -3.769,2.277 -5.078,3.804 -1.285,1.5 -2.332,2.274 -3.668,2.707 -1.012,0.332 -1.344,0.356 -4.672,0.36 -1.972,0 -4.578,-0.059 -5.793,-0.129 -2.754,-0.164 -4.906,0.051 -6.816,0.676 -0.758,0.25 -2.434,0.648 -3.719,0.882 -2.929,0.536 -5.984,1.325 -6.879,1.778 -0.379,0.191 -1.621,0.551 -2.758,0.801 -6.125,1.351 -8.757,2.523 -10.402,4.628 -0.73,0.93 -2.027,1.571 -4.191,2.063 -2.043,0.469 -2.891,0.762 -4.875,1.684 -0.844,0.394 -1.91,0.878 -2.367,1.074 -0.844,0.359 -3.055,1.527 -5.282,2.781 -0.683,0.387 -2.441,1.328 -3.91,2.09 -1.465,0.765 -3.367,1.879 -4.226,2.476 -0.86,0.598 -2.887,1.907 -4.504,2.907 -3.711,2.297 -6.688,4.453 -8.879,6.422 -4.653,4.183 -10.762,11 -12.805,14.292 -0.484,0.782 -0.941,1.489 -1.016,1.575 -0.289,0.32 -1.656,3.23 -2.019,4.3 -0.574,1.684 -0.926,3.672 -0.926,5.227 v 1.387 l -0.808,0.949 c -0.903,1.062 -2.598,3.832 -3.118,5.098 -0.187,0.457 -0.695,1.609 -1.129,2.562 -0.433,0.957 -0.933,2.281 -1.105,2.942 -0.176,0.664 -0.438,1.32 -0.586,1.457 -0.277,0.261 -0.344,0.906 -0.883,9.043 -0.148,2.234 -0.363,4.207 -0.488,4.445 -0.316,0.629 -0.422,5.746 -0.164,8.105 0.336,3.102 0.762,5.871 0.949,6.16 0.215,0.333 0.434,1.258 0.992,4.282 l 0.453,2.426 2.075,2.699 c 1.14,1.484 2.336,2.992 2.656,3.351 1.269,1.422 1.539,3.254 0.734,5.004 -0.25,0.539 -0.769,1.59 -1.152,2.336 -0.563,1.094 -0.711,1.598 -0.777,2.598 -0.106,1.543 0.214,2.426 1.328,3.664 1.789,1.992 1.437,3.48 -1.235,5.219 -0.629,0.41 -1.738,1.132 -2.468,1.609 -1.879,1.223 -2.809,2.437 -2.809,3.668 0,0.453 0.16,0.605 1.637,1.562 5.558,3.594 5.75,6.266 0.625,8.719 -1.617,0.778 -1.989,1.305 -1.844,2.625 0.129,1.184 0.93,2.512 3.238,5.383 1.028,1.277 1.84,2.398 1.801,2.488 -0.035,0.09 -0.383,0.172 -0.773,0.18 -0.543,0.012 -0.805,0.113 -1.141,0.449 -1.156,1.164 -3.824,5.508 -4.293,6.996 -0.215,0.676 -0.211,0.688 0.895,2.317 0.613,0.902 1.339,2.09 1.613,2.64 0.273,0.551 0.859,1.633 1.301,2.407 0.437,0.773 0.8,1.5 0.8,1.613 0,0.113 0.071,0.242 0.153,0.285 0.086,0.043 0.468,0.707 0.851,1.48 0.785,1.586 1.035,2.055 2.121,3.961 0.426,0.747 1.09,2.125 1.481,3.063 0.387,0.934 0.918,1.906 1.176,2.16 0.257,0.25 0.468,0.5 0.468,0.559 0,0.054 0.161,0.746 0.356,1.535 0.683,2.801 1.273,6.594 1.39,8.972 0.133,2.754 0.438,4.278 1.079,5.426 0.359,0.641 0.656,0.91 1.484,1.344 1.641,0.859 2.676,1.789 2.676,2.398 0,0.926 -1.094,1.403 -2.504,1.09 -0.492,-0.109 -1.36,-0.277 -1.93,-0.375 -0.59,-0.097 -1.707,-0.488 -2.617,-0.918 -0.871,-0.41 -2.082,-0.882 -2.691,-1.05 -0.61,-0.168 -1.832,-0.579 -2.715,-0.915 -0.883,-0.332 -1.957,-0.738 -2.391,-0.902 -1.367,-0.512 -1.523,-0.406 -1.953,1.317 -0.926,3.695 -0.758,8.726 0.465,13.843 0.457,1.93 0.801,2.809 2.304,5.957 1.676,3.512 3.555,7.219 4.309,8.512 0.191,0.324 0.348,0.762 0.348,0.969 0,1.054 1.386,2.324 3.488,3.187 1.176,0.489 4.074,1.352 4.52,1.356 0.21,0 1.671,0.273 3.253,0.601 1.579,0.332 3.04,0.606 3.239,0.606 0.617,0 1.972,1.551 6,6.859 3.375,4.453 5.922,7.258 8.359,9.199 1.289,1.028 1.656,1.516 1.656,2.188 0,0.699 -0.281,1.016 -1.277,1.43 -2.625,1.089 -7.148,0.8 -11.5,-0.735 -0.707,-0.246 -1.445,-0.39 -2.059,-0.39 -0.953,-0.004 -0.957,0 -1.168,0.578 -0.175,0.476 -0.156,0.738 0.098,1.465 0.598,1.675 1.578,2.949 2.543,3.293 0.324,0.113 1.582,0.843 2.793,1.625 1.215,0.781 4.688,2.968 7.723,4.863 5.824,3.64 12.238,7.801 13.156,8.539 0.801,0.64 1.637,0.949 4.492,1.648 2.727,0.668 3.613,0.985 4.777,1.684 0.407,0.246 1.274,0.73 1.934,1.078 1.402,0.742 1.535,1.094 0.551,1.496 -0.352,0.145 -0.766,0.391 -0.918,0.547 -0.652,0.672 -1.871,0.867 -7.063,1.156 -5.32,0.293 -8.027,0.52 -8.433,0.696 -0.285,0.128 -0.317,0.273 -0.207,1.078 0.211,1.605 0.91,3.566 2.078,5.836 0.621,1.203 1.199,2.293 1.289,2.425 0.273,0.403 1.086,2.118 1.633,3.457 0.289,0.707 0.992,1.914 1.566,2.684 1.317,1.77 4.422,5.184 5.903,6.496 0.621,0.547 1.746,1.609 2.5,2.356 3.152,3.121 9.933,8.382 12.656,9.82 0.57,0.301 2.195,1.066 3.609,1.707 1.418,0.637 3.152,1.437 3.863,1.769 0.707,0.336 1.758,0.735 2.336,0.883 0.996,0.258 1.137,0.258 2.766,0.02 2.168,-0.317 2.945,-0.317 3.762,0 0.746,0.293 1.547,1.234 2.004,2.371 0.171,0.426 0.55,1.012 0.839,1.308 0.29,0.297 0.7,0.911 0.911,1.36 0.589,1.269 1.812,4.773 1.82,5.23 0.004,0.227 0.121,0.649 0.258,0.942 0.886,1.871 1.211,2.801 1.406,4.058 0.215,1.379 0.25,1.442 1.008,2.063 0.941,0.773 1.945,1.051 2.984,0.82 2.012,-0.445 3.926,-2.18 5.82,-5.273 1.043,-1.711 1.497,-2.235 2.172,-2.52 1.125,-0.48 1.989,0.434 2.727,2.879 0.316,1.051 0.633,1.641 1.434,2.668 3.101,3.977 3.753,4.66 9.164,9.645 8.714,8.035 10.226,10.328 11.628,17.632 0.325,1.696 0.704,3.43 0.844,3.856 0.313,0.957 1.293,2.156 3.121,3.828 0.77,0.703 1.856,1.84 2.407,2.523 l 1,1.247 h 1.265 c 0.973,0 1.422,0.074 1.949,0.332 0.375,0.179 1.067,0.418 1.528,0.527 1.226,0.285 4.445,0.133 6.906,-0.328 2.289,-0.434 4.156,-0.903 6.777,-1.707 l 1.813,-0.559 1.273,-1.387 c 4.094,-4.461 8.629,-5.773 13.457,-3.894 2.192,0.848 6.133,3.707 6.59,4.773 0.203,0.465 1.129,0.782 4.391,1.485 6.683,1.445 12.789,1.879 15.613,1.105 0.934,-0.254 1.082,-0.367 2.109,-1.57 0.61,-0.715 1.899,-2.106 2.868,-3.094 2.656,-2.711 2.558,-2.566 2.765,-4.242 0.481,-3.957 1.496,-7.191 3.254,-10.367 1.895,-3.426 4.106,-5.946 8.352,-9.535 3.269,-2.762 5.644,-5.102 7.316,-7.204 0.594,-0.746 1.293,-1.57 1.551,-1.832 0.969,-0.98 1.723,-2.207 2.66,-4.32 0.981,-2.219 1.512,-3.121 1.848,-3.121 0.281,0 1.574,1.512 3.218,3.758 2.415,3.297 4.286,4.683 6.329,4.687 0.738,0 0.894,-0.07 1.632,-0.715 0.45,-0.394 0.973,-1.011 1.161,-1.367 0.363,-0.687 1.082,-3.351 1.082,-4.004 0,-0.214 0.164,-0.511 0.363,-0.664 0.25,-0.191 0.422,-0.621 0.551,-1.375 0.105,-0.601 0.48,-1.804 0.832,-2.668 0.711,-1.746 4.183,-7.57 4.586,-7.695 0.144,-0.047 1.66,0.063 3.371,0.242 2.519,0.266 3.254,0.293 3.883,0.156 0.425,-0.093 0.816,-0.269 0.871,-0.386 0.101,-0.215 4.425,-2.309 6.683,-3.235 1.453,-0.597 2.571,-1.254 4.504,-2.64 2.25,-1.617 8.559,-6.688 9.277,-7.461 0.77,-0.824 2.086,-2.11 4.403,-4.309 0.953,-0.902 2.5,-2.605 3.441,-3.789 1.844,-2.316 2.332,-3.039 2.539,-3.742 0.071,-0.25 0.629,-1.473 1.235,-2.715 0.609,-1.246 1.316,-2.738 1.57,-3.316 0.254,-0.582 0.816,-1.633 1.246,-2.34 0.895,-1.461 1.129,-2.457 0.832,-3.539 -0.535,-1.965 -2.453,-2.641 -5.363,-1.891 -0.641,0.164 -1.512,0.301 -1.934,0.301 -1.633,0.004 -5.062,-0.465 -6.469,-0.887 -1.64,-0.488 -3.644,-1.476 -3.402,-1.676 0.629,-0.503 4.594,-2.796 5.477,-3.164 0.871,-0.363 1.32,-0.453 2.261,-0.453 0.723,0 1.403,-0.093 1.762,-0.246 1.336,-0.558 4.078,-2.187 6.934,-4.117 1.668,-1.125 3.64,-2.387 4.383,-2.797 0.742,-0.414 3.515,-2.133 6.156,-3.82 2.644,-1.692 5.719,-3.602 6.832,-4.246 2.183,-1.262 4.793,-3.367 5.41,-4.356 0.91,-1.465 0.316,-2.047 -2.074,-2.019 -1.207,0.015 -1.957,0.136 -3.848,0.633 -2.91,0.757 -4.816,0.918 -6.555,0.55 -1.211,-0.254 -3.082,-0.949 -3.839,-1.425 -0.426,-0.266 -0.426,-0.274 -0.094,-0.731 0.187,-0.254 1.047,-1.133 1.918,-1.949 2.828,-2.664 6.023,-6.336 9.637,-11.063 1.07,-1.398 1.476,-2.078 1.585,-2.64 0.118,-0.629 0.27,-0.844 0.93,-1.317 0.434,-0.312 1.078,-0.644 1.434,-0.738 0.351,-0.094 0.933,-0.285 1.285,-0.43 0.355,-0.144 1.723,-0.41 3.035,-0.589 2.035,-0.278 3.777,-0.54 5.758,-0.864 0.234,-0.035 1.07,-0.594 1.859,-1.23 2.235,-1.813 3.602,-3.719 5.446,-7.61 0.562,-1.183 1.101,-2.308 1.199,-2.504 0.097,-0.191 0.34,-0.746 0.535,-1.23 0.293,-0.711 1.383,-2.91 2.199,-4.445 0.27,-0.508 0.723,-2.219 1.004,-3.793 0.184,-1.043 0.281,-3.285 0.324,-7.539 0.059,-5.848 0.047,-6.067 -0.304,-6.383 -0.481,-0.438 -1.059,-0.34 -3.559,0.598 -1.078,0.402 -2.207,0.785 -2.512,0.843 -0.304,0.059 -0.883,0.282 -1.285,0.489 -1.246,0.644 -4.152,1.691 -5.285,1.91 -0.594,0.113 -1.195,0.281 -1.336,0.379 -0.316,0.214 -1.336,0.062 -1.793,-0.27 -0.176,-0.125 -0.32,-0.379 -0.32,-0.559 0,-0.5 1.008,-1.636 2.195,-2.48 1.863,-1.324 2.344,-2.906 2.484,-8.152 0.051,-1.989 0.192,-3.707 0.364,-4.45 0.246,-1.043 1.562,-4.515 2.234,-5.878 0.121,-0.25 0.524,-1.2 0.895,-2.114 0.371,-0.91 0.945,-2.066 1.277,-2.562 0.332,-0.5 1.082,-1.891 1.668,-3.09 0.586,-1.203 1.391,-2.766 1.793,-3.469 0.402,-0.707 1.086,-1.976 1.519,-2.828 0.43,-0.848 1.204,-2.144 1.711,-2.879 0.856,-1.234 0.918,-1.387 0.77,-1.926 -0.09,-0.324 -0.336,-1.328 -0.547,-2.238 -0.5,-2.141 -1.273,-3.359 -3.168,-5.012 l -1.422,-1.234 0.828,-1.988 c 1.071,-2.563 1.293,-2.907 1.77,-2.805 0.504,0.109 1.91,-1.082 2.195,-1.855 0.488,-1.336 -0.269,-2.387 -3.305,-4.598 -3.16,-2.301 -3.812,-3.254 -3.062,-4.449 0.371,-0.582 1.652,-1.426 2.766,-1.817 1.961,-0.683 3.207,-2.195 3.211,-3.886 0.003,-1.563 -1.04,-2.715 -2.907,-3.211 -1.269,-0.34 -2.621,-1.25 -3.183,-2.145 -0.903,-1.437 -0.836,-2.777 0.32,-6.656 1.039,-3.488 0.797,-4.985 -0.949,-5.973 -0.906,-0.512 -1.313,-1.281 -1.117,-2.125 0.175,-0.758 1.125,-2.316 2.246,-3.683 0.547,-0.668 0.996,-1.27 0.996,-1.336 0,-0.067 0.238,-0.368 0.531,-0.668 1.355,-1.407 2.523,-3.789 3.41,-6.957 0.172,-0.621 0.387,-1.266 0.473,-1.434 0.14,-0.273 0.23,-0.613 0.453,-1.734 0.043,-0.207 0.172,-1.395 0.285,-2.637 0.117,-1.246 0.34,-2.906 0.496,-3.695 0.301,-1.543 0.281,-2.352 -0.23,-8.594 -0.153,-1.867 -0.36,-3.77 -0.457,-4.231 -0.102,-0.464 -0.18,-1.894 -0.18,-3.179 0,-2.559 -0.359,-4.629 -1.195,-6.914 -0.258,-0.707 -0.52,-1.657 -0.586,-2.114 -0.063,-0.457 -0.262,-0.988 -0.446,-1.179 -0.183,-0.196 -0.675,-1.075 -1.097,-1.961 -1.207,-2.535 -1.582,-3.164 -2.281,-3.836 -0.872,-0.832 -1.297,-2.028 -1.754,-4.91 -0.434,-2.727 -0.75,-3.871 -1.364,-4.926 -0.242,-0.414 -0.703,-1.465 -1.027,-2.336 -0.676,-1.813 -1.816,-3.789 -2.57,-4.449 -0.282,-0.25 -1.414,-1.539 -2.512,-2.867 -3.504,-4.235 -8.223,-9.016 -11.336,-11.485 -2.289,-1.816 -6.25,-4.508 -7.781,-5.293 -0.692,-0.355 -2.098,-1.269 -3.125,-2.035 -1.137,-0.848 -2.742,-1.836 -4.098,-2.523 -1.23,-0.621 -2.953,-1.528 -3.832,-2.008 -4.062,-2.227 -4.641,-2.531 -5.574,-2.914 -0.543,-0.223 -1.238,-0.555 -1.539,-0.742 -1.055,-0.641 -3.871,-1.692 -5.426,-2.016 -2.359,-0.496 -2.898,-0.774 -5.156,-2.645 -1.801,-1.496 -2.285,-1.804 -3.742,-2.402 -1.735,-0.711 -2.184,-0.852 -7.371,-2.273 -1.719,-0.473 -4.2,-1.161 -5.516,-1.532 -2.684,-0.757 -3.641,-0.957 -6.801,-1.418 -5.926,-0.863 -9.414,-1.027 -11.484,-0.543 -1.688,0.399 -3.766,0.293 -5.239,-0.257 -1.64,-0.618 -2.851,-1.461 -5.285,-3.68 -1.211,-1.102 -2.461,-2.113 -2.781,-2.246 -0.32,-0.133 -2.109,-1.477 -3.98,-2.985 -5.356,-4.32 -5.77,-4.566 -9.008,-5.328 -1.852,-0.433 -1.567,-0.386 -5.149,-0.855 -2.984,-0.391 -7.285,-0.707 -9.007,-0.66 -0.797,0.019 -1.36,-0.094 -2.668,-0.539 -3.551,-1.211 -3.813,-1.336 -5.536,-2.672 -2.336,-1.813 -3.558,-2.071 -4.793,-1 -1.015,0.875 -1.578,2.23 -1.777,4.258 -0.348,3.531 -0.566,5.07 -0.742,5.175 -0.113,0.063 -0.824,0.278 -1.582,0.469 -1.805,0.461 -3.246,1.063 -4.449,1.863 -0.536,0.36 -1.387,0.879 -1.891,1.164 -2.363,1.317 -6.23,5.047 -7.434,7.165 -0.859,1.511 -0.855,1.507 -1.132,1.507 -0.235,0 -2.164,-2.109 -2.184,-2.382 -0.008,-0.161 -1.867,-2.059 -2.383,-2.438 -0.222,-0.164 -0.762,-0.707 -1.195,-1.207 -1.027,-1.18 -2.207,-2.07 -4.199,-3.18 -2.133,-1.183 -2.289,-1.25 -3.285,-1.351 -1.11,-0.114 -2.372,-0.805 -3.086,-1.688 -0.973,-1.203 -1.317,-2.207 -1.5,-4.344 -0.09,-1.078 -0.239,-2.093 -0.329,-2.261 -0.089,-0.164 -0.382,-0.746 -0.652,-1.289 -0.516,-1.051 -1.441,-2.102 -1.851,-2.102 z m -21.977,9.492 c 0.07,-0.004 0.137,0 0.207,0.008 0.328,0.039 0.652,0.223 1.074,0.535 0.977,0.723 1.395,1.657 1.379,3.082 -0.015,1.801 -0.996,3.219 -2.738,3.953 -0.488,0.207 -1.207,0.329 -2.203,0.375 -1.903,0.086 -2.832,-0.253 -3.653,-1.339 -0.3,-0.399 -0.609,-0.727 -0.687,-0.727 -0.293,0 -0.344,-0.492 -0.086,-0.898 0.148,-0.239 0.992,-0.961 1.871,-1.614 0.879,-0.648 2.203,-1.672 2.941,-2.273 0.879,-0.719 1.411,-1.067 1.895,-1.102 z m 84.605,0.008 c 0.821,0 1.391,0.363 3.27,2.09 0.848,0.777 1.984,1.648 2.527,1.934 1.086,0.57 1.446,1.031 1.266,1.617 -0.168,0.562 -1.254,1.383 -2.504,1.898 -0.723,0.301 -1.355,0.449 -1.875,0.446 -2.594,-0.02 -5.289,-2.047 -5.602,-4.215 -0.085,-0.61 -0.015,-0.887 0.45,-1.684 0.769,-1.336 1.66,-2.086 2.468,-2.086 z m -85.078,2.61 c -0.621,-0.04 -1.418,0.207 -1.984,0.691 -0.594,0.508 -0.52,1.055 0.211,1.527 0.254,0.164 0.652,0.297 0.887,0.297 1,0 2.168,-1.445 1.722,-2.129 -0.156,-0.238 -0.465,-0.363 -0.836,-0.386 z m 86.289,0.105 c -1.777,0 -2.148,0.914 -0.789,1.941 0.453,0.34 0.871,0.621 0.93,0.621 0.371,0 1.234,-0.527 1.379,-0.847 0.453,-0.973 -0.207,-1.715 -1.52,-1.715 z m -64.257,4.316 c 0.066,-0.007 0.136,-0.007 0.218,0.004 0.11,0.012 0.239,0.039 0.407,0.075 0.906,0.207 1.375,0.402 3.8,1.593 2.469,1.215 3.578,2.246 5,4.641 1.532,2.578 1.836,3.637 1.821,6.258 -0.012,2.543 -0.27,3.336 -1.621,4.976 -1.61,1.961 -5.653,7.953 -6.5,9.637 -0.789,1.57 -0.989,1.828 -2.168,2.797 -1.715,1.41 -2.813,2.074 -4.586,2.789 -3.45,1.391 -5.512,1.726 -10.66,1.746 -3.266,0.008 -4.223,0.059 -4.965,0.262 -4.063,1.121 -9.532,1.609 -18.11,1.621 -2.675,0.004 -6.179,0.07 -7.777,0.148 -1.602,0.074 -3.398,0.184 -4,0.239 -0.914,0.085 -1.09,0.066 -1.09,-0.133 0,-0.125 0.895,-1.172 1.992,-2.317 3.184,-3.336 4.496,-5.074 4.989,-6.609 0.726,-2.281 1.367,-1.719 1.64,1.434 l 0.11,1.281 2.023,0.121 c 2.898,0.176 12.934,0.008 16.176,-0.27 3.496,-0.297 7.926,-0.886 10.297,-1.363 2.125,-0.43 4.984,-1.512 7.047,-2.676 1.796,-1.011 4.66,-3.355 5.753,-4.711 2.375,-2.949 3.426,-6.082 2.926,-8.746 -0.383,-2.027 -0.828,-2.914 -2.234,-4.449 -2.211,-2.41 -2.57,-3.394 -1.817,-5.012 0.29,-0.613 0.344,-0.984 0.254,-1.652 -0.113,-0.813 -0.089,-0.883 0.434,-1.313 0.289,-0.238 0.441,-0.347 0.641,-0.371 z m 41.019,0 c 0.828,-0.031 1.207,0.532 1.492,2.196 0.133,0.785 0.387,1.847 0.563,2.359 l 0.316,0.93 -0.758,0.672 c -4.375,3.894 -4.921,10.597 -1.234,15.144 0.93,1.149 5.027,4.383 6.586,5.199 4.543,2.383 10.578,3.707 15.855,3.481 2.34,-0.098 3.61,0.015 8.539,0.777 1.372,0.211 3.528,0.422 4.793,0.469 2.872,0.105 3.989,-0.113 4.985,-0.969 0.722,-0.621 0.988,-1.176 1.172,-2.457 0.062,-0.457 0.16,-0.949 0.207,-1.094 0.168,-0.48 0.629,-0.273 1,0.454 0.199,0.394 0.57,1.043 0.82,1.445 0.25,0.402 0.453,0.828 0.453,0.949 0,0.676 1.192,2.059 3.492,4.051 1.653,1.433 2.672,2.664 2.504,3.027 C 506.41,97 505.52,97 500.902,96.723 c -3.847,-0.235 -14.933,-0.547 -17.648,-0.504 -1.449,0.027 -2.066,-0.024 -2.481,-0.199 -2.125,-0.907 -4.957,-1.297 -10.687,-1.485 -2.543,-0.082 -5.356,-0.242 -6.25,-0.351 -1.531,-0.188 -1.758,-0.266 -3.746,-1.293 -5.172,-2.676 -7.027,-4.274 -7.805,-6.719 -0.156,-0.488 -0.285,-1.203 -0.285,-1.59 0,-0.648 -0.09,-0.785 -1.254,-1.887 -2.426,-2.297 -3.961,-4.453 -5.027,-7.043 -0.465,-1.132 -0.586,-1.711 -0.66,-3.14 -0.121,-2.297 0.218,-3.551 1.531,-5.707 1.258,-2.059 2.332,-3.254 3.691,-4.102 1.696,-1.058 4.887,-2.574 5.465,-2.594 z m 38.383,3.239 c 0.195,0.023 0.445,0.152 0.746,0.386 1.094,0.844 1.355,1.934 0.613,2.543 -0.476,0.391 -1.351,0.5 -1.468,0.184 -0.145,-0.383 -0.348,-1.715 -0.364,-2.371 -0.011,-0.535 0.153,-0.785 0.473,-0.742 z m -117.125,0.031 c 0.066,0.004 0.137,0.019 0.203,0.035 0.41,0.106 0.41,0.293 0.02,2.406 -0.168,0.918 -0.614,1.051 -1.493,0.446 -0.722,-0.496 -0.754,-1.075 -0.109,-1.977 0.461,-0.648 0.906,-0.941 1.379,-0.91 z m 12.207,2.215 c 0.973,0 1.527,0.09 2.215,0.355 1.476,0.567 2.851,2.016 2.851,3.012 0,0.664 -1.293,2.519 -2.371,3.402 -1.218,0.996 -2.758,1.649 -5.304,2.254 -1.754,0.418 -1.793,0.434 -1.735,0.852 0.172,1.285 2.297,3.226 4.5,4.117 1.602,0.644 3.781,1.109 5.266,1.117 1.117,0.008 1.207,-0.019 1.703,-0.5 0.547,-0.531 1.664,-1.879 3.68,-4.433 1.414,-1.797 2.918,-3.172 4.453,-4.071 1.59,-0.929 1.933,-0.969 2.629,-0.324 0.73,0.684 1.047,1.473 1.039,2.59 -0.012,1.383 -1.18,3.863 -2.364,5.015 -0.937,0.915 -4.222,2.165 -7.433,2.825 -3.699,0.765 -6.981,1.05 -14.723,1.273 -2.883,0.086 -6.113,0.195 -7.179,0.25 -2.243,0.11 -2.227,0.117 -2.653,-1.226 -0.39,-1.239 -0.359,-3.692 0.106,-7.184 0.496,-3.773 0.422,-4.551 -0.657,-6.77 -0.824,-1.691 -0.961,-2.101 -0.695,-2.101 0.074,0 1.156,0.879 2.399,1.953 1.917,1.66 2.457,2.035 3.582,2.492 0.73,0.297 1.57,0.555 1.863,0.571 0.504,0.031 0.566,-0.024 0.926,-0.875 0.511,-1.2 1.015,-1.848 2.078,-2.661 1.715,-1.316 3.578,-1.933 5.824,-1.933 z m 93.191,0.031 c 3.164,0.078 6.489,1.688 6.848,3.906 0.379,2.356 2.621,1.934 6.609,-1.25 1.227,-0.98 2.329,-1.781 2.442,-1.781 0.367,0 0.234,0.551 -0.442,1.809 -1.039,1.937 -1.14,3.101 -0.648,7.554 0.242,2.196 0.383,4.438 0.348,5.563 l -0.059,1.887 -1.285,0.015 c -3.621,0.051 -16.168,-0.476 -18.477,-0.773 -0.961,-0.125 -2.449,-0.301 -3.308,-0.387 -7.078,-0.711 -11.707,-4.133 -11.352,-8.395 0.106,-1.273 0.5,-2.25 0.969,-2.398 0.172,-0.051 0.891,0.156 1.687,0.488 2.598,1.082 5.371,3.586 7.633,6.887 0.883,1.289 1.211,1.645 1.594,1.711 0.266,0.051 0.754,0.148 1.086,0.219 1.098,0.226 4.355,-0.446 6.105,-1.254 1.993,-0.926 4.176,-3.145 4.008,-4.074 -0.047,-0.258 -0.363,-0.387 -1.711,-0.707 -2.547,-0.602 -3.801,-1.219 -5.719,-2.801 -1.476,-1.223 -1.683,-1.457 -1.781,-2.043 -0.222,-1.367 0.446,-2.653 1.762,-3.383 0.879,-0.492 1.949,-0.738 3.062,-0.785 0.207,-0.012 0.418,-0.012 0.629,-0.008 z m 31.582,9.035 c 3.907,0.035 7.313,0.5 11.446,1.543 1.121,0.281 2.519,0.586 3.109,0.676 1.555,0.238 2.926,0.805 4.047,1.672 1.766,1.371 2.602,3.058 2.887,5.808 0.105,1 0.312,2.664 0.461,3.704 0.296,2.054 0.711,9.73 0.535,9.96 -0.121,0.161 -0.848,0.157 -2.199,-0.011 -1.559,-0.192 -2.465,-0.438 -5.551,-1.512 -1.637,-0.57 -3.653,-1.176 -4.477,-1.344 -1.683,-0.343 -3.648,-1.105 -6.25,-2.426 -1.515,-0.765 -1.879,-1.035 -2.687,-1.984 -3.668,-4.324 -6.075,-9.285 -6.696,-13.812 -0.316,-2.301 -0.527,-2.172 3.668,-2.262 0.582,-0.012 1.149,-0.016 1.707,-0.012 z m -155.777,0.031 c 2.043,0.02 4.063,0.172 4.297,0.364 0.289,0.242 -0.145,3.113 -0.766,5.078 -1.265,3.976 -4.261,9.008 -6.508,10.918 -2.695,2.293 -5.218,3.355 -13.015,5.469 -2.395,0.648 -4.774,1.351 -5.281,1.562 -0.504,0.211 -1.075,0.383 -1.266,0.383 -0.473,0 -0.879,-0.41 -1.117,-1.129 -0.235,-0.703 -0.242,-3.367 -0.016,-4.676 0.086,-0.496 0.285,-2.226 0.442,-3.844 0.437,-4.507 0.871,-6.441 1.961,-8.757 l 0.578,-1.235 2.047,-0.789 c 5.125,-1.984 10.558,-3.066 16.66,-3.32 0.621,-0.024 1.304,-0.031 1.984,-0.024 z m 79.066,10.504 c 0.09,0 0.375,0.36 0.637,0.793 0.543,0.914 1.781,2.18 4.16,4.254 0.922,0.805 2.016,1.813 2.43,2.242 0.781,0.809 1.613,2.11 1.617,2.528 0,0.152 -0.527,0.457 -1.41,0.812 -1.937,0.789 -4.039,2.481 -4.879,3.934 -0.758,1.316 -0.844,2.781 -0.215,3.762 0.211,0.332 0.528,0.82 0.7,1.085 0.171,0.27 0.386,1.086 0.48,1.817 0.324,2.555 0.809,3.195 3.262,4.269 4.949,2.164 6.687,2.868 7.945,3.207 1.512,0.407 3.313,0.653 3.313,0.454 0,-0.071 -0.547,-0.528 -1.211,-1.016 -2.157,-1.582 -1.981,-2.203 0.73,-2.578 1.152,-0.16 3.398,0.066 3.754,0.379 0.172,0.148 0.836,0.383 1.477,0.519 1.613,0.34 2.597,0.672 6.093,2.039 1.672,0.657 3.657,1.356 4.414,1.559 1.965,0.531 5.887,0.762 9.282,0.555 1.418,-0.086 3.238,-0.184 4.046,-0.219 0.809,-0.031 2.172,-0.106 3.032,-0.164 1.793,-0.125 4.851,0.109 6.625,0.5 l 1.191,0.262 0.113,1.281 c 0.254,2.847 1.715,4.644 6.868,8.433 1.988,1.465 2.976,2.047 5.824,3.45 2.676,1.316 3.789,1.777 5.054,2.086 2.208,0.539 2.524,0.57 2.801,0.296 0.344,-0.339 0.117,-0.953 -0.715,-1.961 -1.144,-1.378 -1.191,-2.218 -0.187,-3.16 1.148,-1.074 4.281,-1.758 6.68,-1.465 1.621,0.2 2.23,0.379 3.308,0.957 0.524,0.282 1.797,0.872 2.824,1.309 1.032,0.438 2.454,1.18 3.157,1.645 0.707,0.464 1.847,1.183 2.539,1.597 1.785,1.067 4.39,3.164 6.648,5.356 1.067,1.039 2.41,2.293 2.981,2.793 1.086,0.945 2.062,2.125 3.562,4.293 1.844,2.679 2.953,4.113 3.336,4.32 0.219,0.117 0.895,0.285 1.496,0.371 1.981,0.285 5.129,-0.348 9.36,-1.887 2.695,-0.984 4.402,-1.023 5.445,-0.129 0.539,0.461 2.433,4.704 2.191,4.903 -0.078,0.062 -11.383,0.097 -25.129,0.078 l -24.984,-0.039 -0.129,-0.375 c -0.883,-2.602 -1.219,-3.09 -2.57,-3.692 -0.77,-0.343 -1.156,-0.414 -2.258,-0.414 -0.734,0 -1.781,0.075 -2.328,0.164 -0.66,0.11 -6.668,0.196 -17.637,0.25 -9.148,0.047 -17.586,0.129 -18.75,0.188 -1.16,0.062 -5.34,0.051 -9.285,-0.02 -4.883,-0.086 -8.145,-0.074 -10.231,0.039 -3.101,0.168 -6.625,0.586 -7.964,0.95 -0.719,0.191 -0.739,0.215 -1.102,1.402 -0.203,0.664 -0.437,1.293 -0.519,1.395 -0.114,0.14 -1.118,0.187 -3.969,0.187 -2.102,0 -3.875,-0.043 -3.942,-0.098 -0.187,-0.156 -0.148,-65.496 0.039,-65.496 z m -3.632,0.301 c 0.093,0 0.144,13.879 0.117,32.609 l -0.047,32.61 h -9.156 l -0.492,-1.281 c -0.61,-1.594 -1.137,-2.442 -1.77,-2.852 -1.121,-0.723 -1.953,-0.168 -2.473,1.645 -1,3.488 -3.144,7.496 -5.968,11.156 -2.278,2.949 -3.661,4.41 -9.477,10.031 -5.922,5.719 -8.461,8.551 -10.926,12.211 -0.785,1.164 -2.508,3.422 -3.836,5.02 -3.547,4.269 -4.593,5.644 -5.75,7.574 -0.574,0.953 -1.187,1.871 -1.367,2.035 -0.582,0.539 -3.644,6.078 -5.625,10.18 -4.613,9.535 -6.441,13.632 -7.211,16.136 -0.418,1.368 -0.84,2.602 -0.937,2.743 -0.215,0.312 -0.438,1.015 -1.02,3.21 -0.242,0.915 -0.555,1.93 -0.699,2.262 -0.395,0.926 -0.633,2.055 -0.949,4.524 -0.16,1.242 -0.371,2.668 -0.469,3.168 -0.102,0.496 -0.16,1.75 -0.133,2.789 0.027,1.035 -0.062,2.734 -0.195,3.769 -0.129,1.035 -0.242,2.055 -0.246,2.262 -0.004,0.207 -0.09,1.156 -0.192,2.109 -0.164,1.559 -0.132,2.024 0.293,4.524 0.258,1.535 0.559,3.765 0.668,4.957 0.106,1.187 0.391,2.988 0.637,4 0.246,1.011 0.531,2.379 0.637,3.039 0.105,0.66 0.324,1.539 0.488,1.953 0.164,0.414 0.363,1.601 0.441,2.637 0.129,1.656 0.25,2.148 0.996,4.011 0.465,1.172 0.93,2.649 1.028,3.286 0.25,1.617 0.629,2.726 1.66,4.878 0.492,1.028 0.992,2.254 1.109,2.727 0.118,0.473 0.407,1.164 0.641,1.535 0.234,0.375 0.84,1.672 1.34,2.883 0.961,2.312 1.457,3.223 2.172,3.992 0.312,0.332 0.433,0.668 0.433,1.156 0,0.481 0.2,1.028 0.645,1.793 0.355,0.606 0.644,1.262 0.644,1.461 0,0.219 -0.281,0.594 -0.714,0.95 -0.997,0.816 -1.676,0.796 -1.676,-0.051 0,-0.504 -0.254,-0.942 -1.395,-2.387 -0.91,-1.152 -1.363,-2.062 -1.363,-2.734 0,-0.243 -0.176,-0.723 -0.395,-1.075 -0.218,-0.347 -0.707,-1.683 -1.089,-2.964 -0.383,-1.286 -0.809,-2.403 -0.946,-2.489 -0.136,-0.086 -0.222,-0.269 -0.187,-0.406 0.035,-0.141 -0.137,-0.582 -0.379,-0.98 -0.59,-0.965 -0.953,-1.918 -1.43,-3.747 -0.219,-0.828 -0.808,-2.73 -1.312,-4.222 -0.723,-2.137 -0.914,-2.934 -0.895,-3.75 0.016,-0.805 -0.121,-1.395 -0.625,-2.672 -0.355,-0.902 -0.648,-1.875 -0.648,-2.168 0,-0.289 -0.196,-1.02 -0.438,-1.621 -0.93,-2.34 -1.84,-9.969 -1.863,-15.649 -0.008,-2.199 0.055,-4.503 0.141,-5.128 0.085,-0.622 0.23,-2.383 0.316,-3.918 0.086,-1.536 0.242,-3.231 0.348,-3.77 0.105,-0.539 0.367,-2.269 0.578,-3.848 0.215,-1.574 0.554,-3.539 0.758,-4.363 0.203,-0.824 0.523,-2.422 0.718,-3.543 0.371,-2.148 0.489,-2.551 1.981,-6.793 1.445,-4.109 5.164,-12.293 6.652,-14.64 0.082,-0.133 1.367,-2.575 2.856,-5.43 3.078,-5.91 3.113,-5.969 4.394,-7.602 0.524,-0.664 1.926,-2.722 3.113,-4.578 4.207,-6.555 7.008,-10.051 11.602,-14.496 1.734,-1.68 3.359,-3.492 6.344,-7.09 2.976,-3.582 4.527,-5.289 6.394,-7.035 0.934,-0.875 1.688,-1.769 2.192,-2.613 0.425,-0.703 1.086,-1.555 1.468,-1.887 0.907,-0.777 1.598,-1.621 2.102,-2.562 0.223,-0.414 0.594,-0.993 0.824,-1.282 0.735,-0.925 1.051,-2.136 0.813,-3.078 -0.731,-2.894 -4.996,-4.515 -8.981,-3.414 -0.926,0.258 -1.793,0.34 -4.226,0.41 -1.684,0.051 -3.168,0.16 -3.293,0.239 -0.145,0.093 -0.317,0.097 -0.461,0.007 -0.141,-0.089 -3.196,-0.093 -8.133,-0.011 l -7.902,0.129 -0.606,0.48 c -1.266,1.004 -1.203,2.293 0.176,3.516 0.531,0.476 0.672,0.687 0.492,0.742 -0.141,0.043 -2.652,0.062 -5.586,0.039 -5.992,-0.043 -5.371,0.101 -5.117,-1.188 0.172,-0.871 -0.399,-2.207 -1.231,-2.89 l -0.71,-0.582 -1.618,0.101 c -1.062,0.067 -3.5,-0.011 -7.129,-0.23 -7.914,-0.481 -11.609,-0.27 -13.953,0.797 l -0.754,0.343 v 3.61 H 302.82 l 0.035,-0.438 c 0.075,-0.839 2.02,-3.816 3.079,-4.711 l 0.976,-0.832 0.711,0.297 c 0.664,0.278 2.473,0.762 4.848,1.297 0.558,0.125 1.57,0.504 2.25,0.84 0.679,0.34 1.66,0.68 2.176,0.758 0.515,0.082 1.007,0.183 1.093,0.226 0.305,0.157 2.754,-0.492 3.407,-0.898 0.914,-0.574 1.632,-1.43 3.269,-3.902 1.191,-1.801 1.895,-2.618 4.434,-5.153 1.66,-1.66 3.5,-3.449 4.086,-3.976 1.281,-1.149 7.671,-5.391 9.625,-6.383 3.39,-1.727 5.023,-2.133 9.457,-2.375 3.07,-0.168 3.64,-0.067 4.398,0.789 0.738,0.828 0.297,3.359 -0.805,4.629 -0.484,0.555 -0.398,0.691 0.516,0.812 2.746,0.36 10.156,-3.343 15.477,-7.738 2.503,-2.07 2.976,-2.68 3.859,-4.992 0.766,-1.996 1.219,-2.695 2.082,-3.219 0.477,-0.293 0.75,-0.316 3.492,-0.305 1.637,0.008 5.207,0.122 7.938,0.254 4.328,0.207 5.273,0.215 7.39,0.032 3.25,-0.282 5.711,-0.825 7.024,-1.555 1.172,-0.652 8.75,-3.102 10.468,-3.387 1.188,-0.195 3.184,0.039 3.719,0.434 0.719,0.535 0.422,1.222 -1.09,2.511 -0.457,0.391 -0.773,0.762 -0.703,0.821 0.348,0.285 2.485,-0.348 5.914,-1.75 2.024,-0.824 3.965,-1.547 4.321,-1.606 0.98,-0.152 1.539,-0.437 2.363,-1.203 0.906,-0.844 1.441,-1.961 1.605,-3.34 0.086,-0.695 0.321,-1.359 0.743,-2.078 0.812,-1.386 0.972,-2.59 0.531,-3.929 -0.617,-1.868 -2.61,-3.793 -4.797,-4.637 -1.641,-0.633 -1.637,-0.629 -1.699,-1.141 -0.106,-0.855 0.679,-1.785 3.621,-4.308 2.91,-2.489 4.191,-3.766 4.609,-4.59 0.129,-0.258 0.309,-0.473 0.399,-0.473 z m -61.438,17.813 c 3.543,0.004 6.457,0.125 6.567,0.367 0.089,0.183 -2.579,3.551 -3.516,4.441 -0.219,0.207 -0.68,0.774 -1.027,1.258 -1.332,1.859 -2.504,2.23 -6.055,1.906 -3.617,-0.328 -7.219,-0.367 -8.215,-0.086 -0.473,0.129 -1.254,0.239 -1.738,0.239 -1.504,0 -4.914,0.453 -7.465,0.988 -6.899,1.449 -13.371,4.414 -19.477,8.922 -0.929,0.687 -1.73,1.25 -1.781,1.25 -0.308,0 -0.23,-0.512 0.356,-2.367 0.671,-2.11 0.753,-3.25 0.351,-4.813 -0.109,-0.43 -0.004,-0.559 1.375,-1.691 6.754,-5.539 16.66,-8.832 30.281,-10.063 2.629,-0.238 6.801,-0.355 10.344,-0.351 z m 126.832,0 c 1.106,0 2.215,0.011 3.215,0.043 8.039,0.269 13.336,0.863 18.984,2.132 5.989,1.348 12.207,3.891 16.086,6.579 0.649,0.449 1.571,1.039 2.051,1.308 1.442,0.809 1.516,1.016 1.531,4.34 0.012,2.812 0.028,2.91 0.504,3.711 0.27,0.453 0.492,0.867 0.492,0.922 0,0.402 -2.085,-0.785 -4.32,-2.465 -5.16,-3.875 -12.828,-6.867 -20.683,-8.07 -1.465,-0.227 -2.79,-0.442 -2.942,-0.485 -0.531,-0.14 -4.172,-0.265 -7.441,-0.258 -2.887,0.008 -6.313,0.219 -7.571,0.465 -0.386,0.078 -0.832,-0.39 -2.726,-2.832 -0.102,-0.129 -1.039,-1.269 -2.082,-2.535 -1.043,-1.262 -1.856,-2.383 -1.805,-2.492 0.094,-0.199 3.383,-0.352 6.707,-0.363 z m -189.426,1.265 0.133,0.629 c 0.153,0.727 0.488,1.305 1.442,2.461 1.718,2.09 1.711,2.625 -0.039,3.219 -2.247,0.762 -9.082,5.703 -11.508,8.32 -1.371,1.481 -4.266,6.352 -5.285,8.895 -1.446,3.605 -1.934,7.394 -1.278,9.937 0.239,0.926 0.239,1.156 -0.008,2.035 -0.531,1.883 -1.043,3.118 -3.019,7.254 -3.102,6.492 -3.59,7.922 -3.871,11.309 -0.098,1.199 -0.348,3.137 -0.551,4.297 -0.879,5.019 -0.832,6.906 0.207,8.644 0.57,0.957 0.574,0.961 0.254,1.543 -0.566,1.028 -0.348,1.367 2.164,3.344 l 2.242,1.773 h 1.278 c 0.699,0 2.851,-0.218 4.781,-0.48 2.652,-0.363 4.074,-0.481 5.808,-0.477 2.211,0 2.387,0.024 4.579,0.633 2.98,0.824 3.511,1.094 3.511,1.774 0,0.453 -0.109,0.574 -0.847,0.957 -0.465,0.242 -1.414,0.547 -2.106,0.675 -1.391,0.262 -7.574,0.309 -9.297,0.071 -1.215,-0.168 -5.746,-1.172 -6.226,-1.383 -0.203,-0.09 -0.883,-0.484 -1.516,-0.883 -0.629,-0.394 -1.68,-0.965 -2.336,-1.266 -1.355,-0.621 -2.492,-1.582 -4.531,-3.828 -3.516,-3.875 -5.551,-7.816 -6.399,-12.402 -1.886,-10.187 0.055,-21.445 5.266,-30.586 0.449,-0.789 1.586,-2.859 2.523,-4.601 2.227,-4.137 3.129,-5.594 4.536,-7.321 1.664,-2.047 3.484,-3.484 6.316,-4.996 3.945,-2.105 6.461,-3.805 11.473,-7.738 z M 561.5,104.68 c 0.453,-0.012 1.039,0.363 1.941,1.211 2.047,1.925 5.164,4.5 6.563,5.422 0.758,0.496 2.125,1.187 3.094,1.558 4.543,1.742 7.613,4.496 10.785,9.688 1.32,2.16 4.906,8.57 5.633,10.07 4.504,9.301 6.089,19.777 4.41,29.141 -0.36,2.007 -1.113,3.91 -2.801,7.054 -2.762,5.145 -6.109,8.461 -10.254,10.16 -0.453,0.188 -1.043,0.504 -1.305,0.707 -0.906,0.696 -5.058,1.582 -8.347,1.782 -2.938,0.175 -3.52,0.187 -5.055,0.082 -2.078,-0.145 -3.445,-0.414 -4.629,-0.91 -1.269,-0.532 -1.316,-0.829 -0.222,-1.485 2.128,-1.277 4.703,-1.859 8.253,-1.867 2.664,-0.004 5.094,0.289 7.2,0.871 2.707,0.746 3.586,0.492 5.906,-1.684 0.723,-0.675 1.59,-1.371 1.93,-1.546 l 0.621,-0.313 -0.078,-1.172 c -0.051,-0.785 0.05,-1.793 0.32,-3.058 0.523,-2.477 0.648,-4.239 0.375,-5.274 -0.117,-0.457 -0.285,-1.781 -0.367,-2.941 -0.352,-4.879 -1.317,-7.934 -5.352,-16.918 l -2.18,-4.856 0.114,-2.992 c 0.211,-5.531 -0.645,-9.062 -3.043,-12.555 -0.199,-0.289 -0.582,-1.019 -0.852,-1.617 -0.597,-1.332 -2.078,-3.297 -3.664,-4.859 -2.719,-2.672 -8.308,-6.606 -10.933,-7.691 -0.915,-0.379 -1.301,-0.68 -1.301,-1.008 0,-0.039 0.625,-0.567 1.39,-1.176 l 1.395,-1.102 -0.125,-1.195 c -0.109,-0.996 -0.082,-1.227 0.164,-1.394 0.129,-0.086 0.262,-0.129 0.414,-0.133 z m -204.48,43.726 c 1.554,-0.062 4.242,0.18 4.625,0.418 0.398,0.25 1.875,0.281 3.007,0.063 1.438,-0.274 2.082,-0.172 2.688,0.418 1.012,0.988 0.273,3.504 -1.692,5.769 -1.933,2.231 -7.011,16.879 -7.515,21.692 -0.063,0.601 -0.473,2.414 -0.91,4.031 -0.91,3.355 -1.27,5.469 -1.114,6.562 0.071,0.5 -0.011,1.164 -0.242,1.961 -0.531,1.832 -0.746,3.379 -0.75,5.399 -0.004,1.011 -0.129,2.547 -0.281,3.418 -0.16,0.886 -0.277,2.578 -0.273,3.847 0.003,1.243 -0.028,2.77 -0.067,3.395 -0.039,0.621 -0.129,3.758 -0.207,6.973 -0.125,5.328 -0.16,5.839 -0.445,5.839 -0.168,0 -0.449,-0.082 -0.621,-0.187 -0.282,-0.168 -0.328,-0.984 -0.504,-8.555 -0.149,-6.476 -0.258,-8.601 -0.473,-9.398 -0.199,-0.731 -0.226,-1.078 -0.086,-1.219 0.254,-0.246 0.258,-6.723 0.008,-11.086 -0.141,-2.426 -0.262,-3.355 -0.484,-3.746 -0.254,-0.441 -0.266,-0.602 -0.071,-1.043 0.184,-0.418 0.192,-1.48 0.032,-5.148 -0.114,-2.543 -0.247,-5.711 -0.297,-7.039 -0.051,-1.325 -0.16,-3.77 -0.243,-5.43 -0.101,-1.992 -0.085,-3.141 0.036,-3.391 0.117,-0.234 0.172,-1.91 0.14,-4.394 -0.062,-5.285 0.188,-6.407 1.735,-7.809 0.996,-0.902 2.047,-1.258 4.004,-1.34 z m 121.984,0.844 c 0.605,-0.008 1.098,-0.004 1.34,0.023 0.453,0.051 0.84,0.196 0.961,0.36 0.363,0.492 -1.235,1.48 -4.703,2.906 -3.426,1.406 -6.149,2.695 -7.797,3.684 -2.426,1.465 -4.953,3.757 -6.262,5.691 -0.379,0.559 -1.191,1.559 -1.809,2.219 -1.492,1.613 -3.027,3.672 -4.203,5.633 -0.929,1.55 -3.793,7.117 -3.793,7.371 0,0.066 -0.234,0.496 -0.519,0.949 -0.547,0.867 -1.203,1.176 -1.438,0.672 -0.238,-0.504 0.133,-2.781 0.828,-5.125 0.895,-3.008 0.95,-3.258 1.125,-5.199 0.079,-0.871 0.45,-2.942 0.821,-4.598 0.832,-3.715 1.09,-6.961 0.578,-7.195 -0.289,-0.133 -0.293,-0.172 -0.035,-0.407 0.238,-0.214 0.254,-0.414 0.113,-1.14 -0.211,-1.047 -0.68,-2.418 -1.016,-2.949 -0.34,-0.543 -0.082,-0.825 1.09,-1.184 1.766,-0.543 5.883,-0.875 13.442,-1.078 3.23,-0.09 6.043,-0.223 6.242,-0.297 0.359,-0.137 3.215,-0.305 5.035,-0.336 z m 18.879,3.359 c 1.031,0.012 2.097,0.086 2.707,0.215 3.707,0.793 6.594,3.34 7.398,6.535 0.75,2.977 -0.66,7.969 -3.062,10.832 -1.395,1.664 -3.965,3.582 -7.102,5.309 l -1.703,0.934 v 1.496 c 0,1.828 -0.391,4.347 -1.023,6.562 -0.258,0.91 -0.516,1.914 -0.575,2.223 -0.101,0.558 -0.089,0.574 0.786,0.89 0.796,0.29 1.004,0.305 1.976,0.157 1.195,-0.184 3.289,-0.996 4.363,-1.692 0.817,-0.531 2.129,-1.043 2.684,-1.047 0.957,-0.007 0.547,0.805 -1.008,1.981 -1.304,0.992 -2.32,1.406 -3.793,1.543 -1.242,0.117 -1.996,0.426 -2.562,1.047 -0.551,0.605 -0.485,1.992 0.211,4.246 0.914,2.961 1.105,7.351 0.511,11.539 -0.156,1.094 -0.281,2.066 -0.281,2.168 0,0.101 0.664,0.512 1.481,0.918 0.812,0.402 1.691,0.937 1.949,1.187 0.433,0.426 0.461,0.543 0.387,1.672 -0.067,1.02 0.035,1.637 0.644,3.856 2.563,9.332 2.559,14.863 -0.004,18.707 -0.637,0.953 -0.66,1.039 -0.449,1.613 0.289,0.789 1.527,1.805 2.352,1.934 0.789,0.121 3.343,1.769 3.492,2.25 0.058,0.195 0.078,0.476 0.043,0.629 -0.063,0.265 -1.028,0.273 -25.575,0.312 -22.542,0.031 -25.527,0.012 -25.617,-0.187 -0.058,-0.125 -0.07,-0.786 -0.023,-1.473 0.062,-0.918 -0.02,-1.676 -0.324,-2.902 -0.297,-1.188 -0.45,-2.493 -0.539,-4.598 -0.141,-3.246 -0.145,-11.469 -0.008,-12.895 0.047,-0.496 0.129,-1.683 0.179,-2.64 0.176,-3.352 0.879,-8.481 1.86,-13.571 1.488,-7.711 1.781,-8.906 4.156,-16.875 0.867,-2.906 2.426,-6.949 3.586,-9.285 1.164,-2.351 6.137,-10.359 7.18,-11.566 4.929,-5.703 9.386,-9.051 14.129,-10.621 2.613,-0.864 4.109,-1.121 6.414,-1.106 1.109,0.008 2.308,-0.058 2.664,-0.144 0.468,-0.117 1.465,-0.168 2.496,-0.153 z m -126.762,0.895 h 14.895 c 12.57,0 14.906,0.035 14.992,0.211 0.168,0.367 -0.285,1.41 -0.903,2.082 -0.8,0.871 -2.613,1.824 -4.23,2.226 -0.727,0.18 -1.859,0.493 -2.516,0.696 -1.574,0.48 -2.406,0.617 -5.449,0.89 -3.57,0.329 -4.527,0.571 -5.637,1.45 -0.496,0.394 -0.867,0.808 -0.824,0.918 0.051,0.121 0.508,0.234 1.168,0.289 1.844,0.148 3.039,0.828 3.692,2.097 0.394,0.766 0.511,2.34 0.261,3.547 -0.679,3.281 -3.308,5.86 -9.238,9.051 -6.371,3.434 -8.121,4.957 -8.141,7.078 -0.007,1.078 0.582,2.039 1.664,2.715 l 0.676,0.426 -0.101,1.972 c -0.172,3.278 -1.004,6.387 -3.438,12.832 -2.187,5.797 -2.937,8.504 -3.301,11.914 -0.218,2.024 -0.64,4.02 -1.07,5.082 -0.324,0.805 -0.812,1.11 -1.031,0.645 -0.496,-1.059 -0.668,-5.258 -0.305,-7.461 0.676,-4.109 1.512,-13.113 1.668,-17.945 0.094,-2.864 0.297,-7.321 0.449,-9.91 0.153,-2.586 0.278,-5.278 0.278,-5.985 0,-0.703 0.078,-1.441 0.172,-1.644 0.269,-0.582 0.527,-2.348 0.933,-6.391 0.207,-2.059 0.414,-3.844 0.457,-3.969 0.047,-0.121 0.293,-1.382 0.547,-2.797 0.258,-1.414 0.594,-2.976 0.75,-3.468 0.266,-0.848 2.742,-5.481 3.316,-6.211 z m 71.981,0.019 c 1.578,0.004 1.781,0.059 1.871,0.243 0.07,0.144 0.129,1.32 0.132,2.605 0,1.785 -0.078,2.602 -0.339,3.469 -0.418,1.363 -0.453,3.859 -0.121,7.992 0.175,2.195 0.175,2.941 0,3.469 -0.317,0.965 -0.266,3.918 0.093,5.328 0.274,1.066 0.274,1.234 0.024,1.668 -0.157,0.266 -0.367,1.09 -0.473,1.832 -0.32,2.277 -0.559,7.894 -0.379,9.035 0.133,0.863 0.113,1.078 -0.101,1.18 -0.348,0.16 -0.336,0.777 0.027,1.23 0.199,0.254 0.234,0.446 0.117,0.637 -0.098,0.148 -0.223,1.414 -0.277,2.809 l -0.106,2.531 0.465,0.144 c 0.528,0.164 0.496,0.453 -0.074,0.664 -0.481,0.176 -0.633,0.789 -0.586,2.321 0.02,0.633 -0.02,1.261 -0.09,1.394 -0.07,0.141 -0.004,0.321 0.16,0.434 0.207,0.137 0.285,0.476 0.285,1.222 0,0.891 -0.054,1.055 -0.382,1.2 -0.371,0.164 -0.379,0.261 -0.348,4.039 0.016,2.129 0.098,4.246 0.188,4.699 0.085,0.457 0.179,1.172 0.21,1.582 0.051,0.668 0.012,0.754 -0.312,0.754 -0.496,0.004 -0.527,0.539 -0.219,3.922 0.156,1.726 0.188,2.937 0.082,3.32 -0.445,1.637 -0.058,12.5 0.461,13.016 0.156,0.152 0.227,0.867 0.227,2.273 v 2.051 l -3.176,0.043 c -2.438,0.031 -3.195,-0.004 -3.262,-0.152 -0.051,-0.106 -0.07,-19.7 -0.043,-43.543 l 0.047,-43.352 3.82,-0.043 c 0.875,-0.008 1.555,-0.016 2.082,-0.016 z m -13.606,0.016 4.215,0.043 v 87.004 l -8.766,0.039 -8.761,0.039 -0.36,-0.375 c -0.226,-0.234 -0.48,-0.934 -0.672,-1.848 -0.66,-3.105 -1.902,-6.781 -4.011,-11.878 -1.203,-2.903 -2.766,-6.739 -3.469,-8.52 -1.684,-4.266 -4.832,-10.801 -6.609,-13.727 -1.481,-2.429 -2.934,-4.25 -4.45,-5.558 l -0.886,-0.766 -1.129,0.465 c -1.371,0.57 -3.313,1.82 -4.348,2.801 -0.859,0.816 -1.969,2.562 -2.137,3.371 -0.121,0.574 -0.047,0.672 4.887,6.555 0.902,1.078 2.148,2.808 2.762,3.843 0.617,1.036 1.437,2.395 1.824,3.016 0.387,0.621 0.965,1.844 1.289,2.715 0.324,0.871 0.691,1.683 0.816,1.808 0.129,0.125 0.375,0.735 0.551,1.356 0.176,0.625 1.008,2.805 1.848,4.851 1.711,4.161 2.172,5.551 2.566,7.743 0.153,0.828 0.371,1.992 0.492,2.582 0.118,0.59 0.165,1.183 0.102,1.32 -0.105,0.223 -1.637,0.242 -18.047,0.242 h -17.937 l -0.203,-0.367 c -0.157,-0.285 -0.137,-0.535 0.097,-1.121 0.164,-0.414 0.301,-0.926 0.301,-1.137 0,-0.211 0.203,-1.039 0.457,-1.832 0.254,-0.797 0.547,-2.242 0.656,-3.207 0.258,-2.301 0.789,-4.719 1.266,-5.754 0.207,-0.453 0.379,-1.043 0.379,-1.308 0,-0.641 0.683,-2.164 4.031,-8.946 3.879,-7.863 5.23,-9.988 8.203,-12.894 0.68,-0.66 1.606,-1.68 2.059,-2.262 1.355,-1.73 4.625,-4.246 9.144,-7.043 4.473,-2.762 7.078,-4.551 7.078,-4.855 0,-0.11 -0.203,-0.5 -0.449,-0.864 -0.562,-0.824 -0.894,-2.011 -0.75,-2.66 0.297,-1.293 2.008,-2.015 4.059,-1.703 1.523,0.231 4.094,0.199 5.742,-0.07 1.781,-0.289 4.125,-1.215 5.332,-2.106 1.293,-0.953 2.141,-2.07 3.004,-3.957 0.617,-1.344 0.73,-1.758 0.664,-2.418 -0.09,-0.922 -0.707,-1.574 -1.762,-1.859 -0.554,-0.149 -2.59,-0.195 -4.074,-0.09 -0.383,0.023 -0.469,-0.043 -0.52,-0.398 -0.117,-0.852 0.786,-1.305 3.184,-1.606 2.977,-0.371 4.141,-0.887 4.535,-2.012 0.121,-0.343 0.371,-0.789 0.555,-0.988 0.434,-0.465 0.836,-1.594 0.992,-2.773 0.07,-0.516 0.188,-1.004 0.262,-1.09 0.074,-0.082 0.183,-1.199 0.246,-2.485 0.117,-2.511 1.07,-8.98 1.351,-9.214 0.102,-0.082 1.934,-0.125 4.391,-0.102 z m -104.547,0.004 23.278,0.039 -0.036,0.375 c -0.019,0.207 -0.031,2.719 -0.023,5.578 0.008,2.863 0.012,5.406 0.008,5.656 -0.024,1.356 0.375,15.606 0.601,21.711 0.149,3.899 0.313,8.414 0.368,10.032 0.054,1.617 0.187,5.281 0.3,8.14 0.11,2.887 0.168,10.278 0.133,16.586 -0.047,8.363 0,12.336 0.188,14.965 0.136,1.969 0.203,3.68 0.14,3.809 -0.093,0.203 -3.609,0.226 -32.008,0.226 -30.257,0 -31.902,-0.012 -31.898,-0.262 0.004,-0.441 0.824,-1.742 2.219,-3.527 0.789,-1.004 1.465,-2.07 1.672,-2.629 0.359,-0.988 1.488,-2.508 3.336,-4.5 1.683,-1.812 2.515,-3.226 2.515,-4.273 0,-1.098 -0.523,-1.985 -1.601,-2.715 -2.653,-1.801 -3.262,-2.41 -3.465,-3.453 -0.242,-1.231 0.965,-2.672 3.41,-4.086 2.234,-1.293 2.762,-1.84 2.754,-2.856 -0.008,-1.105 -0.606,-1.812 -3.59,-4.238 -1.559,-1.269 -2.887,-2.473 -2.949,-2.676 -0.231,-0.746 0.101,-1.183 2.09,-2.746 1.082,-0.851 2.058,-1.547 2.172,-1.547 0.359,0 1.781,-0.859 2.027,-1.226 0.652,-0.961 0.066,-2.012 -2.289,-4.106 -0.977,-0.867 -1.996,-1.718 -2.27,-1.894 -0.566,-0.363 -1.254,-1.219 -1.254,-1.563 0,-0.125 0.379,-0.593 0.844,-1.035 0.465,-0.441 1.047,-1.133 1.293,-1.531 0.328,-0.524 0.539,-0.703 0.766,-0.652 1.468,0.328 5.035,0.574 8.195,0.562 3.75,-0.012 7.238,-0.324 10.168,-0.91 2.941,-0.59 3.988,-0.93 5.707,-1.859 0.801,-0.434 2.305,-1.192 3.34,-1.688 3.019,-1.441 4.68,-2.887 5.074,-4.418 0.113,-0.445 0.024,-0.602 -0.875,-1.512 -3.797,-3.84 -9.141,-6.804 -14.656,-8.129 -3.352,-0.804 -4.82,-0.972 -9.34,-1.054 -4.203,-0.078 -4.289,-0.086 -4.559,-0.426 -0.152,-0.188 -0.324,-0.602 -0.382,-0.922 -0.063,-0.32 -0.184,-0.703 -0.274,-0.848 -0.101,-0.16 -0.098,-0.492 0.008,-0.828 0.098,-0.312 0.273,-1.109 0.394,-1.773 0.305,-1.711 1.708,-5.313 2.754,-7.086 0.489,-0.828 1.157,-2.152 1.485,-2.941 0.328,-0.786 0.676,-1.516 0.773,-1.622 0.141,-0.148 4.969,-0.179 23.457,-0.148 z m 218.719,0 c 20.473,-0.031 25.797,0 25.941,0.148 0.477,0.5 3.321,6.836 4.286,9.539 0.296,0.829 0.742,1.985 0.992,2.563 0.863,2.008 0.394,3.309 -1.461,4.07 -1.067,0.442 -1.18,0.453 -3.586,0.442 -1.363,-0.004 -3.102,-0.039 -3.86,-0.075 -1.253,-0.058 -1.632,0 -4.226,0.676 -1.57,0.407 -3.348,0.926 -3.953,1.149 -0.606,0.226 -1.285,0.457 -1.508,0.511 -0.695,0.18 -3.754,1.59 -5.195,2.403 -2.407,1.347 -5.012,3.679 -6.153,5.504 -0.312,0.496 -0.308,0.511 0.176,1.086 0.774,0.918 3.719,3.175 5.234,4.015 3.141,1.739 7.262,3.078 11.305,3.68 1.215,0.18 2.617,0.488 3.117,0.684 0.731,0.289 1.207,0.359 2.426,0.359 1.547,0 1.926,-0.047 5.508,-0.688 2.629,-0.472 4.25,-0.488 4.934,-0.046 0.273,0.175 0.57,0.476 0.656,0.667 0.09,0.192 0.465,0.465 0.832,0.61 1.269,0.492 1.301,1.453 0.09,2.805 -0.395,0.437 -0.848,0.953 -1.012,1.136 -0.16,0.188 -0.797,0.617 -1.406,0.957 -1.539,0.86 -2.184,1.719 -2.184,2.918 0.004,1.481 1.086,2.739 3.125,3.637 1.594,0.699 2.426,1.195 2.672,1.59 0.414,0.652 0.328,1.355 -0.254,2.105 -0.574,0.742 -2.605,2.367 -3.937,3.149 -1.805,1.066 -2.317,2.363 -1.461,3.722 0.214,0.34 1.324,1.454 2.464,2.469 2.352,2.086 3.059,2.899 3.211,3.668 0.188,0.945 -0.035,1.246 -1.765,2.367 -2.164,1.399 -3.504,2.914 -3.504,3.957 0,0.598 2.062,3.809 4.68,7.274 2.601,3.453 5.343,7.668 5.152,7.922 -0.145,0.191 -68.043,0.199 -68.191,0.007 -0.055,-0.074 -0.008,-2.23 0.109,-4.785 0.113,-2.558 0.234,-9.136 0.262,-14.621 0.054,-9.965 0.265,-18.156 0.656,-25.39 0.234,-4.34 0.129,-10.039 -0.188,-10.297 -0.32,-0.266 -0.257,-1.922 0.086,-2.235 0.258,-0.234 0.297,-1.144 0.325,-7.703 0.015,-4.09 -0.012,-10.691 -0.063,-14.672 l -0.094,-7.238 z m -99.57,37.055 c 0.101,0 0.183,0.105 0.183,0.226 0,0.125 -0.082,0.227 -0.183,0.227 -0.102,0 -0.184,-0.102 -0.184,-0.227 0,-0.121 0.082,-0.226 0.184,-0.226 z m -162.821,4.398 c 0.328,-0.016 0.61,0.082 1.008,0.281 1.117,0.559 1.594,2.004 1.106,3.344 -0.286,0.777 -1.426,1.828 -2.418,2.219 -0.434,0.172 -0.946,0.312 -1.137,0.312 -0.578,0 -2.617,-1.828 -2.766,-2.484 -0.285,-1.25 0.715,-2.379 2.903,-3.281 0.601,-0.246 0.976,-0.375 1.304,-0.391 z m 308.61,0.207 c 0.898,0.008 1.211,0.082 1.847,0.453 2.032,1.188 2.649,3.313 1.336,4.594 -0.64,0.625 -0.957,0.727 -1.769,0.582 -1.524,-0.277 -3.047,-1.156 -3.637,-2.105 -0.672,-1.082 -0.414,-2.336 0.649,-3.153 0.414,-0.316 0.671,-0.375 1.574,-0.371 z m -195.078,5.949 c 0.164,0 1.492,1.266 1.492,1.422 0,0.274 -0.602,0.012 -1.09,-0.472 -0.555,-0.555 -0.723,-0.95 -0.402,-0.95 z m -1.141,1.063 c 0.375,-0.004 0.766,0.051 1.035,0.168 1.246,0.539 2.582,1.898 2.41,2.457 -0.09,0.285 0.61,1.367 1.379,2.137 0.317,0.32 1.11,1.695 1.836,3.195 0.656,1.348 0.75,1.715 0.918,3.547 0.121,1.281 0.328,2.383 0.563,2.953 0.207,0.5 0.375,0.945 0.375,0.988 0,0.195 -0.348,0.043 -0.977,-0.43 -0.375,-0.281 -0.68,-0.625 -0.68,-0.765 0,-0.137 -0.242,-0.543 -0.543,-0.899 -0.296,-0.355 -1.507,-2.066 -2.691,-3.796 -1.18,-1.735 -2.777,-3.954 -3.547,-4.934 -0.769,-0.981 -1.539,-1.965 -1.711,-2.188 -0.289,-0.378 -0.289,-0.449 0.031,-1.226 0.188,-0.449 0.489,-0.906 0.668,-1.016 0.204,-0.121 0.559,-0.187 0.934,-0.191 z m 119.66,5.121 c 1,0 1.266,1.336 0.688,3.469 -0.266,0.988 -0.309,2.586 -0.352,12.668 -0.066,14.648 -0.226,25.097 -0.449,29.328 -0.098,1.824 -0.258,5.601 -0.363,8.398 -0.102,2.793 -0.235,5.184 -0.297,5.313 -0.207,0.445 -0.887,0.234 -1.285,-0.403 -0.336,-0.531 -0.27,-1.3 0.324,-3.621 0.254,-0.992 0.34,-1.73 0.261,-2.261 -0.058,-0.438 -0.187,-2.727 -0.281,-5.09 -0.258,-6.59 -0.777,-12.301 -1.215,-13.41 -0.191,-0.477 -0.265,-1.422 -0.269,-3.317 0,-3.644 -0.309,-4.527 -2.02,-5.789 l -0.941,-0.695 0.223,-1.551 c 0.253,-1.777 0.14,-4.402 -0.289,-6.762 -0.489,-2.668 -1.54,-7.203 -1.836,-7.918 -0.325,-0.785 -0.368,-2.117 -0.086,-2.73 0.55,-1.207 1.855,-2.184 3.754,-2.817 0.753,-0.253 1.152,-0.519 1.73,-1.148 0.832,-0.91 2.059,-1.664 2.703,-1.664 z M 589,208.117 c 0.711,-0.105 3.332,1.758 4.016,2.856 0.484,0.781 0.48,2.148 -0.008,2.808 -0.203,0.27 -0.469,0.492 -0.598,0.492 -0.512,-0.003 -2.297,-0.804 -2.961,-1.328 -1.047,-0.828 -1.48,-1.601 -1.492,-2.668 -0.012,-1.007 0.508,-2.078 1.043,-2.16 z m -306.996,0.102 c 0.062,0.004 0.117,0.015 0.164,0.035 0.945,0.418 1.164,2.266 0.422,3.531 -0.469,0.797 -1.75,1.836 -2.711,2.195 -0.961,0.356 -1.106,0.36 -1.461,0.028 -0.867,-0.813 -1.113,-2 -0.609,-2.981 0.554,-1.089 3.257,-2.855 4.195,-2.808 z m 0.656,13.894 c 0.524,0 1.961,1.117 2.371,1.844 0.766,1.356 0.684,2.648 -0.297,4.594 -0.66,1.308 -3.421,5.125 -3.843,5.304 -0.493,0.211 -2.098,0.321 -2.653,0.176 -1.429,-0.363 -2.238,-1.285 -3.648,-4.144 l -0.965,-1.957 0.516,-0.801 c 0.613,-0.961 2.156,-2.285 3.461,-2.969 1.371,-0.719 4.652,-2.047 5.058,-2.047 z m 305.863,0.325 c 1.415,-0.067 3.352,0.574 5.157,1.769 0.625,0.414 1.383,0.856 1.683,0.984 0.731,0.309 1.27,0.895 1.528,1.657 0.414,1.234 -0.399,3.55 -2.055,5.843 -0.637,0.887 -0.824,1.032 -1.586,1.247 -1.406,0.39 -2.703,0.226 -3.586,-0.461 -0.594,-0.461 -1.406,-1.688 -2.348,-3.551 -0.324,-0.641 -0.843,-1.449 -1.152,-1.801 -0.687,-0.777 -0.816,-1.523 -0.516,-2.973 0.247,-1.199 0.715,-1.879 1.661,-2.406 0.332,-0.187 0.746,-0.285 1.214,-0.308 z m -302.941,19.167 c 0.141,-0.039 0.231,0.235 0.27,0.817 l 0.054,0.879 31.805,0.074 31.805,0.078 -0.043,3.164 c -0.02,1.742 -0.125,4.422 -0.235,5.957 -0.211,3.035 -0.136,4.598 0.309,6.313 0.238,0.91 0.269,1.734 0.172,4.582 -0.082,2.48 -0.055,3.531 0.094,3.679 0.152,0.149 0.152,0.258 0,0.407 -0.145,0.144 -0.204,2.324 -0.2,7.425 0.004,7.551 0.168,10.559 0.672,12.34 0.223,0.801 0.285,1.668 0.25,3.481 -0.027,1.324 -0.121,2.484 -0.211,2.574 -0.086,0.09 -0.258,0.813 -0.383,1.609 -0.621,4.028 1.422,6.875 5.547,7.743 1.446,0.3 5.383,0.226 6.985,-0.137 0.855,-0.195 2.277,-0.223 9.101,-0.168 4.449,0.031 8.489,0.078 8.981,0.098 0.777,0.035 0.945,-0.016 1.332,-0.383 0.933,-0.891 0.422,-3.418 -1.254,-6.184 -0.61,-1.012 -1.395,-2.445 -1.746,-3.195 -0.348,-0.746 -0.711,-1.418 -0.805,-1.5 -0.09,-0.078 -0.164,-0.254 -0.164,-0.391 0,-0.137 -0.574,-1.672 -1.273,-3.41 -0.7,-1.742 -1.368,-3.465 -1.489,-3.832 -0.117,-0.367 -0.457,-1.117 -0.75,-1.672 -0.293,-0.551 -0.535,-1.254 -0.535,-1.555 0,-0.668 -1.012,-4.023 -1.398,-4.636 -0.231,-0.367 -0.243,-0.578 -0.063,-1.289 0.395,-1.547 -0.004,-3.313 -1.66,-7.348 -0.863,-2.102 -0.953,-2.473 -1.297,-5.203 -0.199,-1.617 -0.504,-3.785 -0.676,-4.824 -0.172,-1.035 -0.316,-2.766 -0.324,-3.844 -0.008,-1.078 -0.066,-2.031 -0.133,-2.117 -0.066,-0.086 -0.047,-0.664 0.043,-1.282 0.086,-0.621 0.25,-2.242 0.36,-3.605 0.109,-1.363 0.289,-2.566 0.398,-2.676 0.164,-0.164 3.508,-0.191 18.242,-0.16 l 18.035,0.039 0.122,1.504 c 0.269,3.453 0.378,12.453 0.179,15.383 -0.109,1.66 -0.289,4.609 -0.398,6.558 -0.106,1.95 -0.332,4.29 -0.504,5.204 -0.262,1.386 -0.313,2.91 -0.324,9.347 -0.004,4.231 -0.106,9.285 -0.227,11.235 -0.117,1.949 -0.219,4.394 -0.219,5.433 -0.004,1.668 0.043,1.973 0.407,2.563 0.457,0.742 1.289,1.269 2.386,1.511 1.184,0.262 4.496,0.414 6.852,0.313 1.215,-0.051 2.785,-0.047 3.492,0.012 0.711,0.054 1.965,0.152 2.797,0.211 l 1.508,0.105 0.636,-0.523 c 1.149,-0.942 1.27,-1.606 1.274,-7.207 0.004,-3.539 -0.078,-5.575 -0.301,-7.305 -0.168,-1.32 -0.305,-3.524 -0.305,-4.899 0.004,-2.851 -0.621,-9.218 -1.011,-10.343 -0.145,-0.414 -0.352,-1.875 -0.461,-3.242 -0.106,-1.368 -0.317,-2.93 -0.461,-3.469 -0.149,-0.539 -0.356,-1.844 -0.457,-2.903 -0.215,-2.175 -0.547,-3.625 -1.125,-4.894 -0.34,-0.746 -0.414,-1.332 -0.524,-4.039 -0.097,-2.414 -0.195,-3.278 -0.414,-3.621 -0.16,-0.258 -0.414,-1.434 -0.586,-2.739 -0.168,-1.253 -0.429,-2.675 -0.582,-3.152 -0.148,-0.476 -0.203,-0.926 -0.117,-0.996 0.082,-0.07 3.871,-0.109 8.414,-0.09 l 8.262,0.043 v 86.703 l -30.195,0.039 c -16.606,0.02 -30.207,-0.015 -30.219,-0.078 -0.016,-0.062 -0.051,-0.484 -0.078,-0.941 -0.074,-1.098 -0.696,-3.02 -1.352,-4.168 -1.394,-2.442 -4.273,-5 -9.734,-8.641 -1.653,-1.105 -3.883,-2.652 -4.961,-3.441 -6.027,-4.414 -13.524,-8.723 -22.547,-12.961 -4.82,-2.262 -6.336,-2.86 -7.875,-3.11 -2.801,-0.457 -3.812,-1.144 -3.949,-2.667 l -0.074,-0.852 1.25,-1.27 c 3.089,-3.136 5.269,-6.378 6.234,-9.261 0.953,-2.86 1.269,-4.836 1.269,-7.989 0,-2.714 -0.281,-4.816 -0.925,-6.937 -0.532,-1.738 -2.508,-6.313 -3.059,-7.074 -0.305,-0.422 -0.785,-1.192 -1.074,-1.715 -1,-1.817 -2.035,-2.832 -6.285,-6.176 -3.102,-2.441 -5.895,-4.078 -9.211,-5.394 -3.508,-1.395 -7.637,-2.375 -10.863,-2.582 -0.809,-0.051 -1.555,-0.145 -1.657,-0.204 -0.101,-0.062 -0.797,-0.054 -1.547,0.012 -0.75,0.07 -1.425,0.094 -1.5,0.055 -0.074,-0.039 -0.578,0 -1.121,0.086 -0.539,0.086 -1.433,0.222 -1.988,0.312 -2.863,0.446 -6.145,1.645 -8.59,3.133 -0.828,0.504 -1.555,0.852 -1.609,0.777 -0.145,-0.187 0.183,-1.336 0.847,-2.988 0.61,-1.519 2.336,-4.422 2.684,-4.516 z m 300.277,0.415 c 0.215,0 0.965,1.324 1.871,3.316 0.36,0.789 0.825,1.762 1.032,2.16 0.422,0.805 0.48,1.238 0.195,1.387 -0.191,0.094 -1.316,-0.403 -3.91,-1.735 -1.77,-0.906 -4.043,-1.597 -6.567,-2 -1.062,-0.168 -2.054,-0.339 -2.207,-0.378 -1.179,-0.301 -6.855,0.128 -9.664,0.73 -3.414,0.734 -6.941,2.035 -9.836,3.637 -2.531,1.394 -6.656,4.234 -7.941,5.461 -0.613,0.59 -1.578,1.441 -2.144,1.898 -1.063,0.856 -2.594,3.035 -3.305,4.699 -0.188,0.442 -0.719,1.551 -1.18,2.461 -2.125,4.199 -3.008,8.449 -2.66,12.782 0.148,1.835 1.234,6.269 1.98,8.089 0.969,2.356 3.02,5.082 5.047,6.715 1.672,1.348 1.942,1.684 1.946,2.43 0,1.285 -2.239,3.234 -3.719,3.234 -0.277,0 -1.27,0.278 -2.207,0.614 -0.938,0.339 -1.953,0.687 -2.254,0.781 -0.949,0.285 -6.844,2.945 -9.266,4.183 -1.273,0.649 -3.351,1.778 -4.613,2.5 -1.266,0.727 -2.547,1.461 -2.852,1.633 -0.304,0.176 -1.257,0.762 -2.113,1.305 -0.859,0.543 -1.738,1.086 -1.957,1.207 -0.215,0.121 -2.113,1.406 -4.219,2.855 -2.101,1.454 -5.336,3.676 -7.183,4.942 -5.125,3.512 -7.117,5.242 -8.883,7.726 -0.937,1.317 -1.289,2.379 -1.34,4.082 l -0.043,1.422 -30.293,0.039 c -24.136,0.028 -30.308,0 -30.379,-0.152 -0.047,-0.105 -0.066,-19.629 -0.039,-43.391 l 0.047,-43.199 h 6.235 l 0.019,4.598 c 0.012,2.527 0.125,9.957 0.254,16.512 0.242,12.253 0.168,26.605 -0.156,31.664 -0.102,1.578 -0.207,3.308 -0.235,3.847 l -0.05,0.981 1.746,0.097 c 0.961,0.055 3.527,0.145 5.699,0.2 2.176,0.054 4.058,0.128 4.183,0.16 0.27,0.07 16.231,0.051 26.243,-0.032 3.843,-0.031 10.004,0.016 13.695,0.106 6.426,0.156 14.172,0.184 17.785,0.066 1.527,-0.05 1.785,-0.105 2.484,-0.504 1.907,-1.085 3.012,-2.66 3.208,-4.558 0.089,-0.902 0.054,-1.047 -0.407,-1.621 -0.363,-0.449 -0.828,-0.754 -1.633,-1.074 -1.648,-0.653 -3.171,-0.813 -6.816,-0.715 -3.75,0.101 -3.516,0.136 -11.769,-1.77 -3.34,-0.769 -6.481,-1.476 -6.989,-1.57 -1.211,-0.227 -5.133,-1.82 -6.066,-2.465 -0.406,-0.281 -1.399,-0.84 -2.207,-1.242 -1.969,-0.985 -3.84,-2.117 -4.406,-2.668 -0.254,-0.25 -0.938,-0.746 -1.52,-1.106 -2.117,-1.312 -6.48,-5.082 -8.738,-7.554 -1.723,-1.883 -3.418,-4.184 -4.321,-5.86 -1.769,-3.293 -3.996,-9.664 -5.078,-14.562 -0.683,-3.09 -1.98,-10.57 -1.871,-10.801 0.078,-0.172 4.188,-0.199 25.41,-0.168 l 25.317,0.039 0.14,0.426 c 0.391,1.203 0.543,4.348 0.543,11.32 0,5.434 -0.058,7.703 -0.214,8.016 -0.333,0.683 -0.278,3.015 0.093,4.055 1.399,3.894 4.836,5.335 7.813,3.273 0.551,-0.383 0.652,-0.574 0.875,-1.625 0.379,-1.797 0.488,-6.738 0.25,-11.293 -0.117,-2.238 -0.203,-4.242 -0.188,-4.449 0.016,-0.207 0.043,-2.426 0.063,-4.934 0.023,-2.851 0.105,-4.617 0.222,-4.711 0.129,-0.101 11.516,-0.168 34.465,-0.191 l 34.278,-0.039 0.058,-0.641 c 0.031,-0.355 0.141,-0.64 0.242,-0.64 z m -291.535,12.371 c 4.418,-0.09 9.446,1.156 13.344,3.441 3.336,1.957 5.707,4.781 7.43,8.856 1.308,3.089 2.293,7.992 1.972,9.835 -0.429,2.481 -1.875,4.383 -4.621,6.079 -3.418,2.117 -7.57,3.394 -11.746,3.621 -3.598,0.195 -6.125,0.269 -6.523,0.191 -2.91,-0.57 -4.082,-1.066 -5.809,-2.473 -1.082,-0.878 -1.57,-1.421 -2.164,-2.414 -0.863,-1.445 -1.547,-3.476 -1.461,-4.332 0.055,-0.558 0.07,-0.57 0.977,-0.675 0.504,-0.059 3.113,-0.176 5.789,-0.258 4.558,-0.145 7.152,-0.379 8.906,-0.805 1.059,-0.262 2.852,-1.699 3.562,-2.859 0.899,-1.469 1.192,-2.649 1.18,-4.719 -0.008,-1.859 -0.285,-3.262 -0.988,-5.051 -0.922,-2.332 -2.383,-4.562 -3.551,-5.402 -1.121,-0.809 -3.394,-1.262 -7.637,-1.531 -3.191,-0.204 -3.675,-0.274 -3.675,-0.524 0,-0.117 0.39,-0.312 0.871,-0.441 1.273,-0.332 2.675,-0.512 4.144,-0.539 z m 281.094,0.031 c 0.418,-0.008 0.824,-0.004 1.223,0.016 2.726,0.125 5.332,0.656 5.332,1.085 0,0.387 -0.489,0.442 -3.766,0.45 -2.965,0.004 -3.441,0.039 -4.555,0.351 -3.375,0.946 -5.722,3.192 -7.062,6.762 -0.461,1.23 -0.5,1.523 -0.508,4.113 -0.008,2.477 0.039,2.926 0.41,3.985 0.707,1.996 1.098,2.597 2.067,3.183 2.738,1.649 6.507,2.18 13.535,1.903 2.191,-0.086 4.062,-0.122 4.152,-0.075 0.391,0.2 -0.488,3.61 -1.32,5.114 -0.805,1.457 -2.078,2.832 -3.258,3.523 -1.625,0.957 -2.734,1.231 -5.578,1.375 -5.387,0.277 -7.524,0.102 -10.938,-0.91 -0.91,-0.27 -2.425,-0.711 -3.367,-0.988 -2.195,-0.637 -3.512,-1.293 -4.695,-2.336 -1.18,-1.043 -2.035,-2.344 -2.539,-3.868 -0.524,-1.585 -0.567,-5.07 -0.086,-7.058 0.687,-2.84 2.305,-6.828 3.332,-8.219 0.836,-1.121 2.578,-2.726 4.738,-4.355 1.391,-1.051 2.16,-1.496 3.488,-2.024 3.145,-1.254 6.473,-1.965 9.395,-2.027 z m -126.902,28.656 c 0.25,0.02 0.496,0.391 0.976,1.363 1.129,2.282 1.957,4.735 1.957,5.789 0,0.571 0.067,1.102 0.149,1.18 0.082,0.078 0.09,1.262 0.015,2.633 -0.125,2.379 -0.441,3.832 -0.941,4.336 -0.234,0.234 -0.449,0.226 -1.195,-0.039 -1.942,-0.692 -2.989,-1.789 -2.989,-3.133 0,-0.398 0.317,-1.516 0.735,-2.598 0.8,-2.07 0.894,-2.851 0.433,-3.586 -0.258,-0.406 -0.285,-0.793 -0.187,-2.519 0.125,-2.184 0.324,-3.02 0.789,-3.336 0.09,-0.063 0.176,-0.094 0.258,-0.09 z m 29.398,5.141 c 0.289,0.008 0.867,0.219 2.176,0.773 1.18,0.496 2.875,1.301 3.769,1.785 1.914,1.043 4.34,1.957 8.864,3.336 2.879,0.883 3.547,1.032 5.144,1.145 1.012,0.074 2.293,0.234 2.848,0.359 1.351,0.301 6.035,0.594 7.633,0.473 0.707,-0.055 1.55,-0.176 1.875,-0.27 0.699,-0.207 1.027,-0.109 2.414,0.731 0.832,0.504 0.957,0.644 0.91,1.035 -0.067,0.582 -0.895,0.93 -2.856,1.203 -1.777,0.246 -11.039,0.402 -12.914,0.215 -0.757,-0.074 -2.324,-0.281 -3.476,-0.457 l -2.102,-0.328 -1.855,-1.149 c -1.016,-0.632 -3.754,-2.199 -6.078,-3.484 -4.473,-2.465 -5.606,-3.25 -6.34,-4.402 -0.371,-0.579 -0.41,-0.746 -0.219,-0.907 0.047,-0.039 0.113,-0.058 0.207,-0.058 z m 80.07,14.496 c 0.215,0 0.43,0.023 0.645,0.062 1.726,0.344 3.367,1 4.121,1.653 0.422,0.363 0.535,0.597 0.535,1.113 0,0.816 -0.676,1.871 -4.129,6.441 -0.531,0.707 -2.66,3.625 -4.726,6.485 -2.071,2.863 -4.246,5.812 -4.84,6.554 -1.735,2.18 -1.481,2.665 1.652,3.172 2.508,0.403 4.004,0.801 4.617,1.219 0.973,0.672 0.801,0.941 -1.414,2.215 -4.718,2.715 -8.976,4.351 -12.086,4.641 -2.214,0.21 -3.488,0.519 -5.515,1.343 -2.125,0.867 -3.676,1.789 -5.578,3.328 -1.539,1.247 -4.524,4.157 -5.176,5.047 -0.543,0.742 -2.711,2.621 -3.953,3.426 -1.68,1.09 -4.676,3.441 -5.489,4.313 -0.437,0.472 -0.945,1.222 -1.125,1.668 -0.433,1.078 -0.32,2.699 0.258,3.621 l 0.414,0.664 1.957,-0.094 c 2.27,-0.109 3.774,-0.371 8.797,-1.523 3.742,-0.856 6.891,-1.442 7.762,-1.442 1,0 2.293,1.547 2.277,2.723 -0.023,1.664 -1.988,3.277 -7.5,6.164 -1.617,0.847 -3.312,1.793 -3.769,2.097 -0.453,0.309 -1.055,0.68 -1.34,0.825 -1.016,0.527 -15.215,4.957 -21.793,6.793 -2.258,0.632 -4.258,1.148 -4.445,1.148 -0.5,0 -0.961,-0.566 -1.801,-2.226 -2.914,-5.762 -3.129,-11.5 -0.586,-15.809 0.988,-1.672 2.133,-2.801 4.621,-4.539 3.277,-2.297 8.57,-6.844 10.848,-9.317 0.23,-0.25 1.047,-1.062 1.816,-1.808 0.77,-0.746 1.926,-1.934 2.57,-2.641 0.649,-0.703 1.84,-1.949 2.657,-2.765 5.597,-5.606 5.711,-5.754 6.804,-8.918 0.375,-1.075 0.883,-2.305 1.129,-2.735 0.504,-0.871 1.742,-1.89 2.781,-2.281 0.383,-0.144 1.125,-0.516 1.649,-0.828 0.527,-0.313 1.008,-0.566 1.066,-0.566 0.063,0 0.746,-0.399 1.528,-0.883 0.777,-0.485 2.652,-1.606 4.172,-2.485 8.449,-4.906 12.839,-8.363 15.996,-12.617 1.632,-2.195 3.105,-3.238 4.593,-3.238 z m -243.964,0.027 c 0.925,0 1.054,0.219 3.445,2.985 2.176,2.519 4.582,5.062 5.746,6.082 0.996,0.867 3.273,2.32 8.562,5.461 1.872,1.113 4.231,2.566 5.243,3.23 1.011,0.668 2.418,1.449 3.125,1.738 1.765,0.727 4,2.555 4.933,4.035 0.86,1.36 1.289,2.372 1.688,3.973 0.316,1.281 0.488,1.531 2.164,3.152 0.387,0.372 0.785,0.766 0.887,0.872 0.105,0.109 0.582,0.582 1.058,1.058 0.481,0.473 1.606,1.641 2.5,2.594 1.488,1.582 2.328,2.422 3.469,3.469 0.226,0.207 1.699,1.699 3.273,3.316 4.336,4.457 5.821,5.664 10.168,8.273 5.469,3.282 7.824,9.555 6.18,16.458 -0.606,2.535 -2.078,5.921 -2.898,6.664 -0.165,0.148 -0.516,0.269 -0.778,0.265 -0.832,-0.015 -12.539,-3.48 -22.574,-6.683 -2.262,-0.723 -3.051,-1.079 -5.973,-2.676 -8.211,-4.488 -10.804,-6.586 -10.808,-8.766 0,-0.601 0.07,-0.75 0.476,-0.969 1.039,-0.558 4.856,-0.418 8.621,0.317 1.012,0.199 2.297,0.394 2.856,0.433 0.605,0.047 2.023,0.395 3.492,0.864 4.352,1.39 5.949,1.207 6.441,-0.727 0.438,-1.738 -0.171,-3.805 -1.664,-5.613 -1.246,-1.512 -3.754,-3.453 -8.25,-6.391 -5.98,-3.906 -7.91,-5.508 -9.242,-7.668 -0.34,-0.554 -0.648,-0.871 -0.851,-0.871 -0.688,0 -7.789,-1.519 -9.848,-2.101 -2.32,-0.661 -4.66,-1.563 -5.992,-2.317 -0.446,-0.25 -1.309,-0.668 -1.914,-0.926 -2.149,-0.914 -2.875,-2.351 -1.645,-3.253 0.653,-0.477 1.617,-0.747 2.719,-0.75 1.664,-0.008 3.086,-0.274 3.562,-0.668 0.422,-0.344 0.45,-0.438 0.282,-0.95 -0.102,-0.312 -0.785,-1.347 -1.52,-2.3 -1.535,-1.989 -4.734,-6.364 -8.715,-11.914 -1.515,-2.114 -3.078,-4.141 -3.465,-4.504 -0.753,-0.7 -1.007,-1.371 -0.839,-2.215 0.3,-1.528 2.976,-2.938 5.629,-2.969 0.175,-0.004 0.324,-0.008 0.457,-0.008 z m 153.781,30.242 c 16.832,-0.023 30.664,0.016 30.746,0.082 0.269,0.219 0.473,2.68 0.301,3.594 -0.184,0.957 -0.84,2.016 -1.473,2.383 -1.738,0.996 -6.434,4.859 -8.121,6.672 -0.988,1.066 -1.969,1.902 -3.207,2.734 -0.981,0.66 -2.359,1.696 -3.067,2.305 -0.71,0.609 -1.671,1.355 -2.136,1.664 -1.688,1.109 -5.227,5.027 -6.785,7.52 -2.77,4.417 -3.797,6.757 -5.141,11.687 -0.461,1.691 -0.52,2.156 -0.426,3.406 0.09,1.215 0.043,1.621 -0.281,2.489 -0.984,2.644 -3.559,4.832 -6.039,5.136 -0.387,0.047 -1.508,0.414 -2.492,0.817 -8.93,3.625 -16.969,9.851 -21.289,16.484 h -0.004 c -0.52,0.797 -1.016,1.445 -1.11,1.445 -0.101,0 -0.148,-13.636 -0.121,-34.187 l 0.047,-34.195 z m -64.422,0 30.332,0.036 0.047,34.117 c 0.023,18.765 -0.024,34.117 -0.106,34.117 -0.082,0 -0.547,-0.594 -1.027,-1.32 -3.473,-5.223 -9.285,-10.297 -15.992,-13.961 -3.106,-1.696 -5.918,-2.91 -7.379,-3.188 -1.625,-0.308 -2.414,-0.695 -4.195,-2.062 l -1.446,-1.11 -0.246,-1.883 c -0.851,-6.562 -3.758,-14.515 -6.738,-18.46 -2.106,-2.79 -3.356,-4.106 -5.524,-5.817 -1.207,-0.953 -3.523,-2.887 -5.144,-4.297 -4.328,-3.758 -10.672,-8.98 -11.547,-9.5 -1.59,-0.949 -2.91,-3.187 -2.68,-4.551 0.106,-0.64 0.758,-1.82 1.125,-2.042 0.102,-0.063 13.836,-0.098 30.52,-0.079 z m -8.5,52.731 c 3.172,-0.055 8.613,1.199 12.266,2.82 3.55,1.582 7.609,4.84 10.574,8.496 0.64,0.789 1.679,1.907 2.312,2.489 1.992,1.824 4.371,4.41 5.961,6.484 1.324,1.726 3.59,5.523 4.219,7.07 0.484,1.196 1.016,3.61 1.016,4.637 0,0.301 0.125,0.629 0.277,0.73 0.816,0.559 -0.164,4.649 -1.734,7.247 -0.758,1.253 -1.079,1.585 -3.442,3.601 -2.863,2.441 -4.285,3.117 -7.969,3.789 -2.996,0.551 -5.339,0.305 -8.101,-0.844 -0.985,-0.406 -1.117,-0.691 -0.559,-1.191 0.824,-0.738 3.137,-3.766 4.098,-5.363 3.031,-5.051 3.922,-10.446 2.613,-15.832 -0.996,-4.121 -4.027,-8.996 -7.644,-12.305 -1.45,-1.32 -5.547,-4.504 -6.493,-5.035 -3.621,-2.043 -5.355,-2.895 -8.179,-4.024 -1.77,-0.703 -3.328,-1.328 -3.461,-1.382 -1.102,-0.442 1.648,-1.34 4.246,-1.387 z m 81.383,0.082 c 0.386,0.012 0.765,0.035 1.136,0.07 1.79,0.18 3.575,0.598 3.532,0.832 -0.012,0.078 -1.821,0.91 -4.02,1.844 -4.902,2.09 -6.676,2.965 -8.023,3.957 -0.574,0.418 -1.082,0.762 -1.137,0.762 -0.051,0 -0.574,0.394 -1.164,0.879 -0.594,0.484 -1.391,1.004 -1.773,1.152 -0.387,0.152 -1.333,0.84 -2.098,1.527 -4.399,3.942 -7.227,8.86 -8.227,14.313 -0.351,1.918 -0.359,5.597 -0.008,7.496 0.75,4.09 2.766,8.144 4.977,10.012 2.656,2.242 2.035,4.062 -1.574,4.589 -2.176,0.321 -3.481,0.313 -4.961,-0.019 -2.262,-0.512 -5.199,-1.516 -5.699,-1.945 -0.254,-0.223 -1.137,-0.887 -1.965,-1.485 -4.465,-3.218 -6.231,-7.043 -5.488,-11.898 0.382,-2.504 0.742,-3.852 1.515,-5.68 1.512,-3.574 4.817,-7.953 8.891,-11.777 0.621,-0.582 2.019,-2.074 3.109,-3.321 2.602,-2.96 2.848,-3.207 4.906,-4.937 4.633,-3.887 12.266,-6.539 18.071,-6.371 z M 243.406,452.25 c -3.922,0.051 -7.695,2.195 -9.812,5.695 -0.614,1.012 -1.528,3.637 -1.321,3.789 0.075,0.055 0.36,0.141 0.633,0.196 0.453,0.086 0.567,0.008 1.356,-1 1.808,-2.305 3.09,-3.219 5.125,-3.653 1.551,-0.328 2.222,-0.293 4.855,0.243 1.981,0.402 2.539,0.457 3.793,0.386 1.942,-0.113 3.961,-0.656 6.586,-1.765 1.18,-0.496 2.145,-0.868 2.145,-0.821 0,0.043 -1.075,1.051 -2.395,2.235 -5.156,4.64 -6.058,6.097 -6.058,9.777 0,1.422 -0.051,1.777 -0.258,1.777 -0.141,0 -0.758,-0.203 -1.367,-0.453 -3.508,-1.426 -6.704,-1.109 -8.895,0.879 -0.711,0.645 -1.43,1.672 -1.43,2.039 0,0.453 1.032,0.406 2.223,-0.097 1.031,-0.434 1.305,-0.481 2.723,-0.481 1.39,0.004 1.73,0.063 2.824,0.484 2.129,0.825 3.637,2.364 4.273,4.368 0.289,0.922 0.375,3.445 0.121,3.574 -0.086,0.043 -0.769,-0.18 -1.519,-0.5 -2.445,-1.039 -4.524,-1.176 -6.344,-0.418 -1.426,0.59 -3.016,2.152 -3.016,2.957 0,0.191 0.219,0.398 0.575,0.551 0.566,0.242 0.578,0.238 1.242,-0.289 0.367,-0.293 0.898,-0.606 1.183,-0.692 2.418,-0.746 5.274,1.176 5.274,3.547 0,0.977 -0.598,2.34 -1.524,3.481 -1.816,2.234 -5.347,5.148 -10.031,8.277 -0.137,0.094 0.18,0.617 0.602,0.992 l 0.445,0.395 2.266,-0.746 c 4.328,-1.426 7.547,-2.032 11.57,-2.188 4.352,-0.168 9,0.531 13.691,2.059 1.286,0.418 2.442,0.761 2.571,0.761 0.129,0 2.277,-1.902 4.777,-4.222 2.5,-2.324 4.645,-4.223 4.77,-4.223 0.121,0 0.937,1.02 1.812,2.266 0.875,1.246 1.969,2.742 2.43,3.316 0.976,1.219 3.117,2.899 3.601,2.832 0.352,-0.047 8.981,-6.726 8.981,-6.949 0,-0.215 -0.746,-1.012 -0.945,-1.012 -0.102,0 -0.934,0.543 -1.848,1.207 -1.992,1.442 -2.496,1.539 -3.512,0.68 -0.344,-0.289 -1.922,-2.309 -3.508,-4.484 -1.59,-2.18 -3.441,-4.606 -4.121,-5.395 -1.613,-1.875 -4.328,-4.094 -6.336,-5.187 -0.886,-0.477 -1.609,-0.918 -1.609,-0.973 0,-0.059 3.141,-1.934 6.984,-4.172 3.84,-2.238 6.985,-4.16 6.985,-4.27 0.004,-0.246 -7.832,-7.773 -8.153,-7.835 -0.129,-0.024 -3.164,1.871 -6.746,4.203 -6.359,4.144 -6.898,4.476 -7.078,4.328 -0.141,-0.117 0.453,-3.555 0.871,-5.02 0.754,-2.668 2.235,-5.597 4.586,-9.09 l 0.438,-0.648 -0.446,-0.301 c -0.242,-0.168 -0.574,-0.281 -0.734,-0.258 -0.16,0.028 -0.801,0.782 -1.426,1.684 -2.191,3.176 -3.773,6.723 -4.699,10.551 -0.383,1.593 -0.402,2.082 -0.414,9.07 -0.012,7.148 -0.027,7.43 -0.422,8.598 -1.25,3.707 -3.652,5.718 -9.602,8.047 -3.671,1.437 -8.14,3.043 -8.242,2.961 -0.129,-0.11 -0.32,0.031 5.086,-3.696 5.071,-3.488 6.688,-4.879 7.653,-6.558 1.113,-1.934 1.113,-1.934 1.113,-9.352 0,-5.891 0.047,-6.992 0.34,-8.367 0.988,-4.656 2.5,-8.277 4.699,-11.235 0.844,-1.136 0.84,-1.39 -0.039,-1.648 -0.387,-0.113 -0.785,-0.019 -2.153,0.504 -3.425,1.305 -5.492,1.359 -9.683,0.254 -1.418,-0.371 -3.141,-0.758 -3.828,-0.856 -0.563,-0.078 -1.125,-0.113 -1.688,-0.109 z m 247.383,0.973 c -0.187,-0.071 -2.734,1.574 -8.121,5.246 l -7.844,5.347 -0.074,9.168 c -0.055,6.711 -0.133,9.321 -0.301,9.743 -0.133,0.339 -0.715,0.988 -1.414,1.582 l -1.183,1.011 -0.555,-0.527 c -0.75,-0.711 -2.117,-2.637 -2.754,-3.887 -1.352,-2.636 -1.965,-5.484 -1.77,-8.242 0.395,-5.594 3.481,-10.137 9.446,-13.898 0.886,-0.559 1.687,-1.075 1.781,-1.141 0.242,-0.168 -0.254,-0.879 -0.613,-0.879 -0.371,-0.004 -4.438,2.246 -6.364,3.516 -3.343,2.207 -6.402,5.32 -7.96,8.101 -1.536,2.742 -2.172,4.883 -2.352,7.91 -0.316,5.352 2.262,11.079 6.812,15.106 3.645,3.234 9.332,5.574 15.086,6.219 1.989,0.222 6.696,0.074 8.707,-0.278 5.883,-1.023 10.926,-3.242 14.45,-6.363 1.48,-1.312 3.777,-3.676 3.777,-3.891 0,-0.269 -0.566,-0.918 -0.805,-0.918 -0.117,0 -0.738,0.348 -1.379,0.774 -5.375,3.57 -10.625,5.262 -16.453,5.312 l -2.414,0.02 -0.16,-16.785 c -0.098,-10.067 -0.094,-16.84 0.008,-16.922 0.098,-0.086 1.008,0.172 2.273,0.633 2.836,1.039 6.481,2.004 9.059,2.402 l 2.121,0.328 2.816,-2.133 c 1.551,-1.175 2.922,-2.257 3.047,-2.402 0.184,-0.215 0.157,-0.352 -0.136,-0.746 -0.36,-0.481 -0.375,-0.488 -1.805,-0.488 -2.352,0 -5.32,-0.301 -7.477,-0.754 -1.597,-0.34 -5.57,-1.492 -7.445,-2.164 z m -141.223,1.429 c -0.918,0.008 -3.304,0.493 -4.464,0.946 -1.239,0.476 -3.563,1.879 -4.493,2.707 -0.242,0.218 -0.519,0.398 -0.613,0.398 -0.094,0 -0.715,-0.406 -1.379,-0.91 -0.758,-0.566 -1.832,-1.16 -2.851,-1.582 -1.782,-0.731 -2.11,-0.793 -2.274,-0.441 -0.074,0.156 0.285,0.543 1.082,1.168 1.516,1.195 2.285,2.402 2.543,3.996 0.121,0.742 0.168,6.199 0.133,15.035 l -0.055,13.875 -0.507,0.894 c -0.282,0.492 -0.86,1.157 -1.282,1.477 -0.996,0.754 -0.855,0.949 1.067,1.48 0.8,0.219 1.879,0.575 2.386,0.785 0.922,0.383 3.477,1.872 4.641,2.7 0.332,0.234 0.723,0.429 0.863,0.429 0.344,0 7.266,-4.211 7.266,-4.418 0,-0.246 -0.578,-0.711 -0.883,-0.711 -0.148,0 -0.539,0.141 -0.871,0.305 l -0.602,0.309 -2.23,-1.367 -2.23,-1.364 0.062,-14.66 c 0.055,-13.219 0.09,-14.754 0.371,-15.609 0.613,-1.86 1.676,-3.035 3.746,-4.133 1.172,-0.621 1.488,-1.082 0.875,-1.277 -0.066,-0.02 -0.168,-0.032 -0.301,-0.032 z M 528,454.723 c -0.441,-0.028 -1.23,0.136 -2.738,0.527 -1.813,0.473 -3.399,1.18 -4.907,2.195 -0.535,0.36 -1.066,0.657 -1.179,0.657 -0.113,0 -0.571,-0.227 -1.012,-0.504 -2.68,-1.672 -5.519,-2.442 -5.488,-1.485 0.008,0.141 0.422,0.492 0.929,0.782 1.2,0.691 2.102,1.699 2.5,2.804 0.293,0.817 0.325,2.156 0.379,16.188 l 0.059,15.293 -1.316,1.09 c -0.723,0.597 -1.286,1.152 -1.247,1.238 0.102,0.238 6.055,4.101 6.317,4.101 0.262,0 6.215,-3.863 6.316,-4.101 0.039,-0.086 -0.519,-0.641 -1.242,-1.235 l -1.308,-1.082 0.046,-8.355 0.051,-8.352 3.004,-2.007 c 2.645,-1.762 3.055,-1.985 3.383,-1.84 0.781,0.343 2.047,1.441 2.418,2.093 0.375,0.661 0.387,0.907 0.441,9.649 0.032,5.18 -0.027,9.945 -0.136,11.273 -0.29,3.461 -0.926,4.692 -3.457,6.7 -1.653,1.308 -3.336,2.179 -6.969,3.613 -3.051,1.207 -3.223,1.324 -2.817,1.945 0.106,0.164 0.317,0.293 0.469,0.293 0.43,0 4.719,-1.457 6.785,-2.301 6.313,-2.586 10.551,-5.535 12.492,-8.687 1.051,-1.703 1.079,-1.992 1.157,-12.008 0.093,-11.551 -0.02,-12.566 -1.621,-14.531 -0.782,-0.961 -3.481,-2.883 -4.047,-2.883 -0.168,0 -2.696,1.586 -5.614,3.527 -2.918,1.942 -5.367,3.496 -5.445,3.461 -0.215,-0.109 -0.16,-10.742 0.063,-12.054 0.308,-1.832 0.789,-2.7 2.078,-3.758 0.617,-0.504 1.402,-1.086 1.746,-1.293 0.551,-0.332 0.601,-0.418 0.414,-0.699 -0.098,-0.153 -0.238,-0.239 -0.504,-0.254 z m -131.152,2.746 c -0.215,0.043 -0.52,0.176 -1.09,0.433 -5.352,2.43 -7.477,4.922 -7.125,8.356 0.14,1.367 0.687,2.328 2.207,3.871 0.672,0.68 1.367,1.422 1.547,1.648 0.301,0.379 0.332,1.032 0.383,8.399 0.035,5.16 -0.016,8.355 -0.141,9.027 -0.274,1.445 -0.758,2.152 -1.856,2.711 -0.875,0.445 -1.109,0.75 -0.73,0.941 0.102,0.051 0.91,0.188 1.801,0.305 3.765,0.5 7.152,1.649 10.246,3.473 0.91,0.535 1.723,0.976 1.808,0.976 0.086,0 0.586,-0.304 1.114,-0.671 2.222,-1.559 4.508,-2.344 6.812,-2.344 2.336,0 5.473,0.851 8.602,2.34 0.781,0.371 1.523,0.675 1.652,0.675 0.129,-0.004 1.051,-0.504 2.047,-1.117 2.125,-1.308 4.949,-2.539 7.656,-3.344 1.059,-0.312 2.035,-0.636 2.168,-0.718 0.188,-0.117 0.223,-2.141 0.18,-10.262 l -0.055,-10.117 -0.433,-1.055 c -0.633,-1.551 -1.051,-2.148 -2.207,-3.144 -1.204,-1.043 -2.707,-2.059 -3.051,-2.059 -0.129,0 -2.625,1.59 -5.543,3.531 -3.277,2.18 -5.375,3.477 -5.481,3.391 -0.097,-0.074 -0.285,-0.492 -0.418,-0.93 -0.371,-1.222 -1.402,-2.812 -2.445,-3.769 -1.066,-0.977 -2.953,-2.223 -3.367,-2.223 -0.152,0 -2.496,1.465 -5.207,3.258 -2.715,1.793 -5.043,3.297 -5.172,3.34 -0.348,0.109 -0.398,0.019 -0.602,-1.004 -0.402,-2.047 -1.382,-3.481 -3.929,-5.746 -1.688,-1.496 -2.297,-2.321 -2.305,-3.106 -0.012,-1.129 0.926,-2.398 2.625,-3.551 0.629,-0.425 1.164,-0.859 1.195,-0.964 0.032,-0.106 -0.129,-0.297 -0.355,-0.43 -0.195,-0.11 -0.316,-0.16 -0.531,-0.121 z m 89.488,0.933 c 0.207,0 0.535,33.493 0.332,33.762 h -0.004 c -0.148,0.199 -0.008,0.211 -1.98,-0.133 -3.055,-0.527 -5.493,-1.347 -7.758,-2.609 -1.254,-0.695 -3.969,-2.777 -3.969,-3.039 0,-0.094 0.754,-0.711 1.672,-1.371 0.922,-0.657 2.68,-2.047 3.906,-3.09 2.445,-2.07 3.137,-2.969 3.434,-4.453 0.101,-0.496 0.179,-4.324 0.179,-8.61 v -7.714 l 2.004,-1.372 c 1.106,-0.753 2.086,-1.371 2.184,-1.371 z m 154.922,2.582 c -0.313,0.024 -0.617,0.118 -0.895,0.297 -1.496,0.965 -1.324,2.407 0.446,3.762 1.828,1.402 -0.289,3.316 -3.668,3.312 -2.196,-0.003 -5.528,-0.73 -9.629,-2.097 l -1.774,-0.594 -1.89,1.535 c -2.098,1.703 -3.375,2.387 -6.028,3.219 -0.957,0.301 -1.847,0.613 -1.976,0.695 -0.18,0.114 -0.223,1.375 -0.184,5.723 l 0.047,5.574 3.77,1.653 c 2.074,0.91 3.882,1.742 4.015,1.851 0.211,0.168 -0.387,0.895 -3.601,4.402 -2.118,2.309 -4.399,4.661 -5.075,5.219 -0.671,0.563 -1.222,1.137 -1.222,1.274 0,0.14 0.179,0.41 0.402,0.601 0.555,0.485 0.856,0.445 2.195,-0.308 2.532,-1.418 4.219,-1.836 6.872,-1.704 2.261,0.114 3.511,0.407 5.89,1.379 1.117,0.457 2.098,0.832 2.176,0.832 0.082,0 0.82,-0.449 1.644,-0.992 2.75,-1.82 5.235,-2.804 8.114,-3.222 0.601,-0.09 1.16,-0.215 1.242,-0.282 0.082,-0.066 0.125,-2.925 0.101,-6.351 l -0.05,-6.227 -3.95,-1.711 c -2.175,-0.945 -3.98,-1.804 -4.007,-1.918 -0.032,-0.113 1.785,-2.203 4.031,-4.64 2.246,-2.442 4.355,-4.813 4.687,-5.266 0.688,-0.949 1.172,-2.312 1.172,-3.32 0,-1.547 -1.5,-2.793 -2.855,-2.696 z m -370.047,2.965 c 0.367,0.168 5.777,5.36 5.777,5.543 0,0.09 -3.238,2.059 -7.199,4.375 -8.16,4.774 -7.601,4.465 -7.758,4.336 -0.062,-0.055 -0.117,-1.98 -0.117,-4.277 v -4.184 l 4.531,-2.953 c 2.914,-1.898 4.614,-2.91 4.766,-2.84 z m 288.836,1.84 c -0.074,0 -0.598,0.309 -1.156,0.684 -2.172,1.449 -4.594,2.117 -7.215,1.988 -1.492,-0.07 -1.531,-0.066 -1.699,0.297 -0.098,0.203 -0.172,0.504 -0.172,0.668 0,0.164 0.957,1.949 2.129,3.965 l 2.129,3.668 -1.426,1.492 c -2.91,3.043 -4.813,5.769 -5.52,7.898 -0.222,0.676 -0.324,1.543 -0.328,2.793 -0.008,1.543 0.055,1.938 0.418,2.684 0.652,1.347 2.035,2.914 3.867,4.383 1.184,0.949 1.766,1.316 2.004,1.265 0.188,-0.043 2.676,-1.594 5.535,-3.449 2.856,-1.855 5.25,-3.367 5.317,-3.355 0.066,0.015 0.183,0.32 0.258,0.679 0.355,1.676 0.585,2.371 1.011,3.063 0.508,0.828 3.114,3.097 3.555,3.097 0.355,0 7.891,-5.234 7.883,-5.476 -0.004,-0.098 -0.125,-0.309 -0.274,-0.469 -0.297,-0.324 -0.55,-0.258 -1.722,0.445 -0.344,0.204 -0.828,0.371 -1.075,0.371 -0.535,0 -1.414,-0.71 -1.617,-1.312 -0.238,-0.695 -0.316,-17.277 -0.09,-18.5 0.207,-1.113 0.981,-2.625 2.153,-4.211 0.636,-0.859 0.652,-0.91 0.328,-1.105 -0.602,-0.36 -1.106,-0.243 -1.629,0.378 -0.828,0.981 -1.609,1.114 -4.094,0.692 -1.98,-0.336 -4.847,-1.164 -6.773,-1.953 -0.91,-0.375 -1.719,-0.68 -1.797,-0.68 z m -238.844,0 c -0.293,0 -6.234,3.887 -6.301,4.125 -0.027,0.098 0.528,0.649 1.239,1.227 l 1.293,1.05 v 16.329 l -3.133,2.019 c -1.727,1.109 -3.262,2.039 -3.41,2.066 -0.446,0.083 -2.211,-1.265 -2.68,-2.046 l -0.43,-0.715 -0.051,-8.824 -0.05,-8.821 1.293,-1.051 c 0.711,-0.578 1.289,-1.121 1.285,-1.207 -0.012,-0.183 -6.141,-4.007 -6.582,-4.101 -0.199,-0.043 -1.641,0.848 -4.078,2.515 -4.852,3.329 -4.535,3.067 -4.227,3.54 0.309,0.472 0.484,0.476 1.317,0.011 1.265,-0.707 2.355,-0.633 3.042,0.196 0.305,0.371 0.34,1.082 0.43,9.898 0.094,8.633 0.133,9.578 0.434,10.332 0.695,1.723 1.711,2.895 3.785,4.359 0.715,0.504 1.402,0.918 1.523,0.918 0.125,0 1.387,-0.789 2.801,-1.75 3.531,-2.398 8.399,-5.375 8.555,-5.23 0.07,0.066 0.226,0.762 0.34,1.551 0.297,2.011 0.91,2.992 2.726,4.367 0.774,0.582 1.551,1.062 1.727,1.062 0.402,0 7.887,-4.496 7.879,-4.73 -0.004,-0.094 -0.129,-0.305 -0.278,-0.469 -0.293,-0.316 -0.164,-0.332 -1.91,0.25 -0.781,0.262 -1.379,-0.015 -1.922,-0.894 -0.793,-1.286 -0.851,-2.02 -0.851,-11.039 v -8.536 l 1.293,-1.05 c 0.711,-0.578 1.269,-1.133 1.242,-1.227 -0.07,-0.238 -6.008,-4.125 -6.301,-4.125 z m 47.824,0.004 c -0.117,0 -0.957,0.441 -1.867,0.977 -1.988,1.171 -5.668,2.757 -8.023,3.457 l -1.719,0.507 -0.102,9.629 c -0.074,7.032 -0.16,9.782 -0.328,10.192 -0.125,0.304 -0.558,0.902 -0.968,1.324 -1.098,1.141 -1.004,1.238 1.441,1.461 1.141,0.105 2.703,0.363 3.492,0.582 1.738,0.476 4.891,1.738 7.129,2.851 0.91,0.454 1.766,0.829 1.902,0.829 0.137,0.003 0.754,-0.301 1.368,-0.68 1.789,-1.106 3.496,-1.859 7.023,-3.113 l 3.309,-1.176 0.046,-11.137 c 0.04,-8.797 0,-11.176 -0.183,-11.297 -0.125,-0.082 -0.891,-0.304 -1.699,-0.488 -3.035,-0.691 -6.817,-2.027 -9.438,-3.336 -0.644,-0.32 -1.265,-0.586 -1.383,-0.582 z m 225.567,0 c -0.117,0 -0.953,0.441 -1.864,0.977 -1.988,1.171 -5.671,2.757 -8.027,3.457 l -1.719,0.507 -0.101,9.629 c -0.074,7.032 -0.16,9.782 -0.328,10.192 -0.125,0.304 -0.559,0.902 -0.965,1.324 -1.102,1.141 -1.008,1.238 1.437,1.461 1.141,0.105 2.703,0.363 3.493,0.582 1.738,0.476 4.89,1.738 7.128,2.851 0.911,0.454 1.766,0.829 1.907,0.829 0.136,0.003 0.75,-0.301 1.363,-0.68 1.793,-1.106 3.496,-1.859 7.023,-3.113 l 3.309,-1.176 0.047,-11.137 c 0.039,-8.797 0,-11.176 -0.18,-11.297 -0.129,-0.082 -0.894,-0.304 -1.703,-0.488 -3.035,-0.691 -6.816,-2.027 -9.437,-3.336 -0.645,-0.32 -1.266,-0.586 -1.383,-0.582 z m -42.707,4.07 c 0.324,0 11.519,2.707 11.933,2.887 0.293,0.129 0.325,0.465 0.325,3.754 0,3.344 -0.028,3.613 -0.325,3.609 -0.175,-0.004 -2.05,-0.636 -4.168,-1.41 l -3.847,-1.406 -2.082,-3.582 c -1.145,-1.969 -2.082,-3.641 -2.082,-3.715 0,-0.074 0.109,-0.137 0.246,-0.137 z m -145.676,0.696 c 0.117,-0.008 0.207,0.023 0.316,0.07 0.676,0.297 2.192,1.535 2.524,2.059 0.597,0.945 0.679,2.41 0.629,11.261 -0.035,5.656 -0.117,8.75 -0.235,8.778 -0.101,0.027 -2.172,-0.653 -4.597,-1.512 l -4.41,-1.555 -0.051,-7.703 -0.047,-7.699 2.867,-1.914 c 2.051,-1.367 2.652,-1.758 3.004,-1.785 z m 217.105,0.144 c 0.094,-0.047 0.735,0.188 1.426,0.52 0.696,0.336 2.047,0.82 3.008,1.078 1.52,0.41 2.02,0.476 3.859,0.488 1.164,0.008 2.59,-0.039 3.172,-0.109 0.805,-0.094 1.059,-0.078 1.059,0.062 0,0.106 -1.668,2.012 -3.707,4.235 -2.211,2.418 -3.82,4.043 -3.996,4.039 -0.383,-0.012 -4.664,-1.789 -4.844,-2.012 -0.195,-0.242 -0.172,-8.203 0.023,-8.301 z m -200.093,0.012 c 0.234,0.023 0.57,0.25 1.32,0.836 2.172,1.711 2,0.695 2,11.644 0,6.196 -0.066,9.504 -0.188,9.532 -0.101,0.027 -2.167,-0.653 -4.593,-1.512 l -4.414,-1.555 v -15.18 l 2.668,-1.785 c 1.464,-0.98 2.812,-1.855 2.992,-1.941 0.066,-0.031 0.137,-0.047 0.215,-0.039 z m -58.36,0.203 h 0.567 c 1.441,0 8.558,2.512 8.726,3.078 0.051,0.172 0.071,4.449 0.043,9.5 -0.035,5.957 -0.117,9.203 -0.234,9.231 -0.254,0.062 -8.793,-2.957 -8.961,-3.168 -0.074,-0.09 -0.137,-4.325 -0.137,-9.407 z m 225.567,0 h 0.566 c 1.442,0 8.559,2.512 8.727,3.078 0.05,0.172 0.07,4.449 0.043,9.5 -0.036,5.957 -0.118,9.203 -0.235,9.231 -0.101,0.027 -2.168,-0.653 -4.597,-1.512 l -4.411,-1.555 z m -35.289,7.578 c 0.148,-0.023 2.214,0.664 4.589,1.527 l 4.321,1.567 0.047,3.711 0.05,3.707 -2.765,1.812 c -1.524,0.996 -2.895,1.813 -3.047,1.813 -0.156,0 -1.008,-0.594 -1.898,-1.32 -1.208,-0.989 -1.782,-1.594 -2.274,-2.411 -1.648,-2.734 -1.609,-5.488 0.125,-9.14 0.32,-0.672 0.703,-1.242 0.852,-1.266 z m -292.692,1.352 c 0.778,0.019 2.813,0.488 3.934,0.933 2.246,0.887 4.23,2.489 6.504,5.235 0.656,0.8 1.168,1.566 1.133,1.707 -0.036,0.144 -1.098,1.23 -2.36,2.422 -1.265,1.187 -2.383,2.191 -2.484,2.226 -0.102,0.035 -0.844,-0.191 -1.653,-0.508 -2.964,-1.148 -5.355,-1.621 -9.804,-1.925 -1.145,-0.079 -2.141,-0.192 -2.207,-0.247 -0.067,-0.054 0.289,-0.378 0.797,-0.718 3.461,-2.325 4.921,-4.379 5.457,-7.676 0.121,-0.75 0.316,-1.391 0.433,-1.43 0.051,-0.015 0.137,-0.023 0.25,-0.019 z m 367.047,2.035 c 0.16,-0.055 2.453,0.93 4.555,1.961 l 0.683,0.336 v 4.14 c 0,2.278 -0.062,4.176 -0.136,4.215 -0.075,0.035 -0.719,-0.172 -1.426,-0.469 -4.035,-1.671 -7.578,-1.941 -11.625,-0.878 -0.277,0.07 -0.414,0.046 -0.414,-0.079 0,-0.211 8.086,-9.132 8.363,-9.226 z"
       style="fill:#040404;fill-opacity:1;fill-rule:nonzero;stroke:none"
       transform="scale(1.3333333)" />
  </g>
</svg>
