<?xml version="1.0" encoding="UTF-8" standalone="no"?>
<!-- Created with Inkscape (http://www.inkscape.org/) -->

<svg
   version="1.1"
   id="svg1"
   width="1122.5197"
   height="793.70074"
   viewBox="0 0 1122.5197 793.70074"
   xmlns="http://www.w3.org/2000/svg"
   xmlns:svg="http://www.w3.org/2000/svg">
  <defs
     id="defs1" />
  <g
     id="g1">
    <path
       id="path1"
       d="m 542.93,58.469 c -4.164,0 -4.778,0.566 -3.246,3.011 0.925,1.481 7.558,8.098 10.296,10.274 4.883,3.883 10.309,7.129 16.008,9.578 3.469,1.492 5.52,2.188 10.071,3.41 3.765,1.012 6.043,1.906 7.621,2.992 1.633,1.125 5.468,4.368 5.328,4.508 -0.063,0.063 -0.797,-0.101 -1.633,-0.371 -2.852,-0.918 -3.922,-1.043 -10.195,-1.168 -7.582,-0.156 -8.672,-0.012 -11.805,1.559 -2.297,1.152 -3.395,1.957 -3.395,2.48 0,0.551 2.418,2.629 5.114,4.395 6.906,4.523 13.25,7.34 19.847,8.812 2.2,0.489 3.145,0.559 7.442,0.555 4.785,-0.004 4.996,-0.027 7.902,-0.797 l 2.985,-0.785 4.335,4.363 c 2.383,2.403 4.227,4.317 4.094,4.254 -1.898,-0.879 -2.781,-1.203 -4.933,-1.82 -6.153,-1.762 -10.418,-2.375 -13.723,-1.977 -3.23,0.387 -6.074,1.094 -7.922,1.973 -1.676,0.793 -2.012,1.23 -1.75,2.273 0.469,1.875 7.313,7.172 13.93,10.785 5.629,3.075 9.07,4.305 14.047,5.012 3.281,0.465 9.48,0.473 11.394,0.008 0.793,-0.188 1.715,-0.352 2.047,-0.355 0.805,-0.012 2.18,1.421 5.164,5.378 2.219,2.95 2.57,3.821 1.172,2.903 -3.094,-2.028 -8.332,-3.969 -12.344,-4.586 -2.625,-0.399 -9.726,-0.469 -11.859,-0.113 -2.828,0.472 -4.699,1.39 -4.699,2.308 0,0.91 1.238,2.578 3.808,5.137 5.215,5.187 9.071,8.098 14.473,10.918 5.941,3.101 8.344,3.676 16.41,3.941 4.738,0.156 5.668,0.246 6.477,0.645 1.035,0.504 2.246,1.98 3.382,4.117 0.821,1.539 1.95,3.566 2.336,4.191 0.536,0.868 -0.117,0.645 -2.281,-0.781 -4.223,-2.777 -9.68,-5.172 -13.945,-6.109 -2.735,-0.602 -7.789,-0.727 -10.461,-0.262 -2.656,0.465 -3.578,0.887 -3.793,1.746 -0.477,1.899 2.641,6.176 9.066,12.442 4.004,3.906 5.852,5.347 9.317,7.253 5.359,2.954 9.265,3.993 16.465,4.383 2.488,0.137 4.605,0.328 4.699,0.422 0.597,0.625 4.41,10.379 4.054,10.379 -0.117,0 -1.164,-0.82 -2.332,-1.824 -1.835,-1.586 -5.367,-4.176 -5.683,-4.176 -0.059,0 -0.777,-0.379 -1.594,-0.84 -4.402,-2.488 -10.625,-4.211 -15.164,-4.195 -3.828,0.012 -6.195,1.078 -6.195,2.785 0,0.512 2.152,4.738 3.621,7.109 3.894,6.289 11.816,13.723 17.5,16.422 3.582,1.699 8.855,3.235 12.597,3.668 3.434,0.399 3.473,0.41 3.833,1.278 0.378,0.925 2.582,10.277 2.453,10.41 -0.051,0.051 -0.899,-0.856 -1.883,-2.012 -3.906,-4.59 -9,-8.059 -15.028,-10.23 -3.761,-1.356 -11.109,-2.286 -12.738,-1.61 -0.902,0.375 -1.347,1.395 -1.125,2.59 0.274,1.465 1.754,5.25 3.262,8.344 4.445,9.109 10.59,15.406 18.949,19.418 2.625,1.258 4.789,1.926 9.426,2.902 1.391,0.297 1.953,0.531 2.215,0.93 0.609,0.933 1.906,12.636 1.363,12.297 -0.144,-0.09 -0.824,-1.157 -1.508,-2.375 -3.449,-6.137 -9.054,-10.743 -16.836,-13.825 -3.129,-1.242 -7.933,-1.961 -9.98,-1.503 -1.262,0.285 -1.235,0.257 -1.492,1.398 -0.832,3.684 3.207,15.336 7.367,21.25 4.781,6.797 13.414,12.812 20.262,14.121 2.48,0.477 2.382,0.336 2.382,3.375 0,2.582 -0.363,7.52 -0.695,9.453 l -0.164,0.961 -1.133,-2.367 c -0.621,-1.297 -1.129,-2.406 -1.129,-2.457 0,-0.27 -2.25,-3.547 -3.367,-4.899 -5.211,-6.316 -11.781,-10.191 -19.422,-11.445 -2.894,-0.473 -3.109,-0.367 -3.387,1.656 -0.457,3.329 0.688,11.641 2.192,15.934 1.051,3 4.016,8.676 5.93,11.363 2.023,2.84 5.136,5.989 7.558,7.649 2.067,1.418 6.512,3.687 8.129,4.148 1.41,0.406 1.649,0.625 1.649,1.527 0,1.903 -2.454,12.61 -2.887,12.61 -0.246,0 -0.469,-0.914 -0.473,-1.942 -0.012,-2.91 -4.648,-11.125 -8.394,-14.867 -0.993,-0.996 -2.829,-2.488 -4.079,-3.32 -6.425,-4.289 -12.023,-5.773 -12.937,-3.43 -0.828,2.114 -1.227,8.907 -0.773,13.254 0.757,7.332 2.656,13.11 5.914,17.985 3.3,4.949 7.234,8.597 11.629,10.793 1.746,0.871 3.117,1.832 3.117,2.183 0,0.473 -4.653,12.859 -4.946,13.164 -0.238,0.25 -0.375,-0.351 -0.714,-3.129 -0.2,-1.633 -0.516,-3.64 -0.704,-4.461 -0.543,-2.359 -1.949,-5.699 -3.398,-8.082 -3.285,-5.398 -6.629,-8.472 -12.188,-11.215 -5.082,-2.503 -6.199,-1.906 -7.66,4.106 -0.953,3.902 -1.215,6.437 -1.215,11.641 0,8.668 1.192,13.527 4.833,19.679 2.734,4.621 5.261,7.364 8.75,9.512 1.277,0.785 2.378,1.578 2.449,1.762 0.148,0.39 -1.184,3.195 -2.965,6.246 -0.695,1.187 -1.477,2.539 -1.738,3 -1.778,3.133 -2.946,5.043 -3.086,5.043 -0.09,0 -0.231,-1.918 -0.305,-4.262 -0.273,-8.219 -0.676,-10.555 -2.434,-14.141 -2.527,-5.156 -7.089,-9.773 -12.289,-12.441 -2.105,-1.082 -2.972,-1.094 -3.754,-0.059 -2.273,3.004 -4.961,10.672 -6.168,17.582 -1.242,7.102 -0.168,15.895 2.614,21.403 1.054,2.086 3.941,5.836 6.789,8.82 l 2.426,2.543 -4.235,5.262 c -2.332,2.894 -4.719,5.781 -5.304,6.418 l -1.067,1.152 0.484,-1.441 c 0.774,-2.305 0.973,-4.434 0.973,-10.457 0.004,-6.625 -0.191,-7.782 -1.851,-11.098 -2.707,-5.41 -6.586,-9.852 -10.227,-11.707 -1.125,-0.574 -1.559,-0.57 -2.531,0.023 -1.809,1.102 -7.547,11.368 -9.129,16.321 -1.567,4.91 -2.055,8.695 -2.074,16.082 -0.016,5.258 0.023,5.758 0.547,7.437 1.082,3.489 3.363,7.5 5.921,10.434 l 1.579,1.812 -2.711,2.594 c -2.375,2.274 -8.637,8.086 -10.235,9.5 l -0.566,0.5 0.355,-0.84 c 0.199,-0.461 0.797,-1.758 1.332,-2.879 3.196,-6.703 3.864,-16.007 1.598,-22.289 -1.066,-2.953 -3.535,-6.824 -6.309,-9.886 -1.449,-1.602 -2.476,-2.25 -3.261,-2.051 -0.578,0.144 -3.473,3.011 -5.477,5.426 -3.848,4.636 -5.918,7.796 -8.484,12.96 -3.614,7.274 -5.145,12.829 -5.145,18.676 0,4.817 0.781,7.793 3.508,13.336 1.176,2.387 1.465,3.18 1.258,3.43 -0.621,0.75 -14.11,9.891 -15.227,10.32 -0.433,0.164 -0.437,0.145 -0.07,-0.414 0.215,-0.324 1.047,-1.508 1.859,-2.629 2.422,-3.355 4.453,-7.472 5.328,-10.801 1.559,-5.914 1.129,-14.171 -0.957,-18.48 -1.156,-2.383 -4.476,-7.199 -4.968,-7.199 -0.075,0 -0.848,0.402 -1.719,0.89 -2.285,1.278 -5.102,3.731 -9.891,8.621 -6.883,7.028 -9.051,9.852 -12.109,15.754 -3.031,5.848 -4.113,9.704 -4.371,15.575 -0.184,4.226 0.109,6.394 1.265,9.406 0.45,1.168 0.817,2.265 0.817,2.441 0,0.582 -1.766,1.793 -4.563,3.141 -1.515,0.73 -2.937,1.422 -3.16,1.539 -0.219,0.117 -1.89,0.879 -3.719,1.691 -1.824,0.813 -3.757,1.676 -4.289,1.914 -1.625,0.727 -6.043,2.602 -7.25,3.079 -0.629,0.25 -2.543,1.011 -4.257,1.699 -11.786,4.73 -26.915,9.761 -40.204,13.367 -9.906,2.687 -24.238,5.844 -26.527,5.844 -3.894,0 -22.949,-4.657 -37.312,-9.114 -7.145,-2.218 -13.661,-4.461 -22.922,-7.886 -7.328,-2.715 -17.7,-7.125 -25.2,-10.719 -0.921,-0.445 -2.832,-1.348 -4.238,-2.008 -1.406,-0.664 -2.621,-1.308 -2.699,-1.441 -0.082,-0.129 0.238,-1.114 0.711,-2.188 1.289,-2.929 1.617,-4.801 1.621,-9.246 0.012,-7.152 -1.402,-11.746 -5.879,-19.14 -4.519,-7.461 -11.402,-15.215 -17.711,-19.958 -3.269,-2.457 -3.683,-2.632 -4.832,-2.046 -0.484,0.246 -1.195,0.855 -1.586,1.355 -0.652,0.836 -2.465,3.805 -2.465,4.035 0,0.055 -0.273,0.692 -0.601,1.414 -1.219,2.664 -1.836,5.535 -1.973,9.141 -0.183,4.992 0.367,7.84 2.469,12.781 1.117,2.629 2.484,5.028 4.594,8.059 0.722,1.035 1.269,1.922 1.222,1.969 -0.133,0.132 -15.648,-10.133 -15.742,-10.411 -0.043,-0.132 0.336,-0.925 0.844,-1.757 1.312,-2.161 2.855,-5.922 3.578,-8.719 0.895,-3.473 1.023,-7.461 0.363,-11.317 -1.351,-7.91 -5.914,-17.328 -12.195,-25.164 -2.875,-3.586 -4.965,-5.738 -6.055,-6.23 l -0.972,-0.438 -1.352,0.813 c -2.324,1.398 -4.473,4.144 -6.672,8.531 -2.078,4.141 -2.832,8.567 -2.332,13.703 0.434,4.453 1.352,7.629 3.711,12.84 0.344,0.758 0.559,1.379 0.481,1.379 -0.172,0 -0.231,-0.051 -7.59,-6.684 -3,-2.707 -5.461,-5.019 -5.461,-5.136 0,-0.118 0.715,-1.035 1.586,-2.032 2.894,-3.32 4.89,-7.058 6.05,-11.332 0.583,-2.148 0.622,-2.64 0.625,-7.695 0.004,-6.051 -0.281,-7.976 -1.929,-12.926 -2.66,-7.992 -8.008,-17.859 -10.168,-18.754 -0.715,-0.296 -0.887,-0.273 -1.895,0.25 -1.41,0.727 -6.812,6.094 -8.175,8.121 -1.469,2.18 -2.825,5.2 -3.551,7.899 -0.574,2.133 -0.629,2.738 -0.641,7.133 -0.019,4.855 0.027,5.226 1.227,10.437 0.129,0.574 0.093,0.563 -0.754,-0.238 -0.742,-0.699 -5.395,-6.297 -8.52,-10.25 l -0.797,-1.012 2.575,-2.707 c 1.418,-1.488 3.105,-3.41 3.753,-4.269 1.579,-2.09 3.629,-6.133 4.379,-8.645 1.262,-4.207 1.477,-5.797 1.461,-10.797 -0.015,-4.133 -0.093,-5.062 -0.679,-7.922 -0.368,-1.781 -1.2,-4.859 -1.848,-6.839 -1.191,-3.614 -3.609,-8.997 -4.391,-9.782 -0.648,-0.644 -1.543,-0.5 -3.507,0.567 -2.446,1.324 -4.782,3.148 -7.094,5.535 -2.469,2.551 -3.934,4.629 -5.242,7.441 -1.813,3.903 -2.293,6.668 -2.297,13.34 -0.004,2.539 -0.086,4.617 -0.188,4.617 -0.097,0 -0.351,-0.297 -0.566,-0.66 -0.215,-0.363 -1.16,-1.926 -2.102,-3.476 -0.941,-1.551 -1.711,-2.883 -1.711,-2.961 0,-0.082 -0.203,-0.434 -0.453,-0.786 -0.668,-0.937 -3.148,-5.785 -3.148,-6.152 0,-0.172 1.219,-1.172 2.703,-2.223 4.512,-3.191 6.973,-6.156 9.738,-11.714 2.266,-4.551 3.403,-8.543 3.891,-13.668 0.488,-5.114 -0.59,-13.133 -2.461,-18.309 -0.906,-2.5 -1.41,-2.914 -3.02,-2.48 -1.562,0.418 -6.015,2.695 -8.132,4.156 -7.016,4.851 -11.09,12.617 -11.973,22.832 -0.09,1.035 -0.246,1.789 -0.344,1.68 -0.191,-0.207 -2.441,-5.911 -4.242,-10.754 l -1.07,-2.879 0.656,-0.524 c 0.363,-0.289 1.531,-0.976 2.594,-1.527 2.836,-1.469 5.074,-3.098 7.183,-5.219 4.918,-4.953 8.836,-12.566 9.926,-19.297 0.312,-1.902 0.406,-4.144 0.418,-9.679 0.016,-6.45 -0.027,-7.278 -0.41,-7.973 -0.242,-0.445 -0.688,-0.844 -1.043,-0.934 -1.598,-0.398 -5.004,0.407 -8.012,1.895 -2.601,1.289 -6.676,4.148 -8.414,5.906 -3.449,3.496 -6.922,9.613 -8.051,14.192 -0.34,1.382 -0.66,2.558 -0.711,2.609 -0.05,0.051 -0.195,-0.18 -0.324,-0.516 -0.238,-0.632 -2.598,-11.386 -2.715,-12.379 -0.054,-0.48 0.137,-0.632 1.418,-1.121 2.656,-1.007 7.77,-3.75 9.672,-5.183 4.098,-3.09 8.641,-8.953 10.758,-13.895 1.891,-4.41 2.648,-6.914 3.309,-10.918 0.5,-3.031 0.593,-9.601 0.152,-10.379 -0.43,-0.754 -1.285,-0.898 -3.262,-0.547 -4.301,0.758 -8.637,2.516 -12.512,5.075 -2.601,1.718 -6.187,5.336 -8.046,8.121 -1.254,1.883 -3.399,6.012 -4.176,8.047 l -0.188,0.48 -0.179,-0.48 c -0.278,-0.739 -0.801,-10.563 -0.625,-11.735 0.203,-1.371 0.886,-1.965 2.461,-2.14 2.332,-0.258 7.281,-2.528 10.984,-5.035 3.039,-2.059 7.539,-6.606 9.555,-9.657 4.011,-6.062 7.054,-14.433 7.195,-19.801 l 0.058,-2.269 -3.238,0.047 c -4.359,0.066 -6.957,0.722 -11.172,2.808 -6.297,3.118 -9.988,6.36 -14.086,12.372 -0.941,1.378 -1.746,2.406 -1.785,2.281 -0.148,-0.469 1.309,-11.914 1.547,-12.153 0.137,-0.136 1.746,-0.605 3.574,-1.043 4.141,-0.996 6.696,-1.929 9.907,-3.625 3.828,-2.023 5.867,-3.531 9.031,-6.683 3.265,-3.25 5.644,-6.598 7.855,-11.047 3.922,-7.895 4.598,-10.656 2.793,-11.402 -0.926,-0.387 -5.843,-0.184 -8.984,0.367 -7.348,1.293 -14.012,5.262 -19.32,11.515 -0.961,1.133 -1.774,2.028 -1.805,1.989 -0.094,-0.106 1.715,-8.055 2.18,-9.598 0.652,-2.164 1.035,-2.394 4.363,-2.629 4.918,-0.347 7.629,-1.082 11.89,-3.215 7.958,-3.992 14.551,-10.273 18.903,-18.004 1.508,-2.683 2.629,-5.175 2.629,-5.855 0,-1.957 -0.875,-2.293 -5.879,-2.266 -3.149,0.02 -4.36,0.133 -6.723,0.633 -6.094,1.297 -9.719,3.16 -16.207,8.34 -0.988,0.785 -1.828,1.328 -1.867,1.207 -0.043,-0.125 0.801,-2.441 1.879,-5.152 1.609,-4.051 2.051,-4.95 2.476,-5.035 0.286,-0.063 1.977,-0.172 3.758,-0.25 3.946,-0.176 7.711,-0.543 9,-0.883 2.742,-0.719 9.242,-4.071 12.77,-6.586 2.129,-1.516 7.281,-6.535 9.824,-9.574 2.984,-3.567 4.145,-6.016 3.457,-7.301 -0.512,-0.961 -1.512,-1.102 -7.809,-1.086 -7.812,0.015 -9.324,0.305 -14.16,2.722 -1.847,0.922 -4.386,2.344 -5.64,3.161 -2.985,1.945 -3.063,1.961 -2.278,0.558 0.364,-0.644 1.375,-2.465 2.25,-4.043 0.871,-1.578 1.989,-3.293 2.485,-3.812 0.879,-0.93 0.918,-0.946 2.16,-0.785 5.472,0.703 8.281,0.605 12.383,-0.434 5.769,-1.457 12.898,-5.121 18.386,-9.449 2.477,-1.953 6.371,-5.938 7.539,-7.715 1.332,-2.023 1.301,-2.777 -0.148,-3.574 -1.75,-0.961 -5.234,-1.555 -9.176,-1.559 -5.554,-0.008 -8.562,0.723 -14.785,3.582 -3.648,1.676 -4.414,1.961 -4.414,1.637 0,-0.559 5.867,-7.567 6.715,-8.02 0.258,-0.14 1.144,-0.078 2.426,0.164 3.203,0.61 10.015,0.547 13.011,-0.117 6.766,-1.496 14.309,-5.136 20.653,-9.965 3.101,-2.363 4.929,-4.14 5.453,-5.308 0.383,-0.856 0.39,-1.016 0.066,-1.641 -0.457,-0.887 -2.644,-1.933 -5.246,-2.508 -2.641,-0.586 -9.394,-0.578 -12.601,0.012 -2.415,0.445 -6.497,1.723 -8.211,2.57 -2.164,1.071 -2.243,1.071 -1.391,-0.004 1.66,-2.097 5.137,-5.816 6.395,-6.839 1.5,-1.223 1.937,-1.293 3.742,-0.606 2.058,0.781 4.914,1.039 9.785,0.887 7.613,-0.238 10.703,-1.008 17.535,-4.352 3.145,-1.539 3.73,-1.859 7.188,-3.925 4.761,-2.848 6.691,-4.52 6.371,-5.524 -0.153,-0.488 -3.614,-2.457 -5.368,-3.058 -2.468,-0.84 -5.296,-1.125 -9.886,-0.993 -4.528,0.133 -6.43,0.43 -10.067,1.578 -0.855,0.266 -1.59,0.45 -1.636,0.403 -0.145,-0.145 4.808,-4.266 6.257,-5.203 1.489,-0.961 4.094,-1.895 8.586,-3.071 3.313,-0.867 6.41,-1.937 8.817,-3.05 0.968,-0.446 1.808,-0.813 1.871,-0.813 0.32,0 6.586,-3.648 8.926,-5.199 4.019,-2.664 7.23,-5.305 10.742,-8.82 3.66,-3.665 5.625,-5.977 5.625,-6.625 0,-0.907 -0.785,-1.028 -5.742,-0.879 -6.204,0.183 -9.86,0.941 -15.262,3.172 -9.055,3.742 -16.695,9.128 -21.567,15.203 -2.179,2.722 -4.66,5.234 -8.468,8.578 -2.883,2.531 -4.16,3.531 -4.313,3.379 -0.074,-0.075 0.297,-1.09 0.832,-2.254 1.141,-2.492 1.68,-4.922 1.875,-8.438 0.317,-5.679 -1.074,-10.777 -3.246,-11.902 -0.64,-0.332 -0.777,-0.313 -1.879,0.238 -1.406,0.699 -5.273,3.848 -7.468,6.086 -2.446,2.488 -4.989,6.078 -6.629,9.367 -2.563,5.137 -3.387,8.305 -3.204,12.375 0.094,2.118 0.211,2.66 0.883,4.098 0.426,0.914 1.215,2.336 1.75,3.164 l 0.977,1.5 -1.891,2.09 c -2.547,2.82 -6.621,7.055 -6.707,6.969 -0.035,-0.036 0.219,-1.09 0.567,-2.344 0.578,-2.09 0.632,-2.645 0.625,-6.719 -0.008,-3.781 -0.086,-4.715 -0.524,-6.305 -0.543,-1.976 -2.094,-5.281 -3.101,-6.613 -0.598,-0.797 -1.871,-1.719 -2.368,-1.719 -1.242,-0.003 -5.757,4.707 -8.632,9.008 -4.454,6.656 -6.559,12.973 -6.282,18.828 0.192,4.016 1.485,7.047 4.508,10.563 l 1.414,1.637 -3.176,4.211 c -1.746,2.316 -3.242,4.214 -3.328,4.222 -0.086,0.004 -0.203,-2.555 -0.265,-5.691 -0.129,-6.602 -0.352,-7.699 -2.352,-11.567 -2.164,-4.187 -4.308,-6.496 -6.039,-6.492 -1.832,0.004 -4.633,3.582 -7.976,10.199 -1.805,3.567 -2.844,6.45 -3.243,9 -0.316,2.008 -0.316,8.301 -0.004,10.321 0.582,3.738 2.157,6.48 5.633,9.8 1.254,1.2 2.281,2.25 2.281,2.329 0,0.082 -0.39,0.816 -0.871,1.629 -0.48,0.816 -1.144,1.968 -1.48,2.562 -0.645,1.156 -2.703,4.613 -2.844,4.781 -0.219,0.262 -0.347,-0.347 -0.574,-2.746 -0.418,-4.398 -1.758,-9.426 -3.367,-12.625 -1.899,-3.769 -7.164,-8.82 -8.934,-8.566 -1.105,0.164 -3.508,4.336 -5.769,10.035 -1.981,4.984 -2.703,9.062 -2.485,14.043 0.16,3.68 0.727,6.109 2.071,8.926 1.902,3.976 4.082,6.562 7.621,9.039 l 1.965,1.371 -0.317,0.89 c -0.176,0.493 -1.043,2.672 -1.93,4.852 -0.886,2.18 -1.668,4.094 -1.734,4.258 -0.219,0.539 -0.484,0.094 -0.641,-1.074 -0.285,-2.157 -1.582,-6.809 -2.527,-9.067 -1.797,-4.297 -6.176,-9.711 -9.996,-12.351 -2.078,-1.434 -3.207,-1.844 -3.973,-1.434 -0.672,0.363 -2.406,4.102 -3.308,7.141 -0.903,3.031 -1.879,7.785 -2.082,10.125 -0.278,3.222 0.918,10.047 2.41,13.711 1.644,4.054 5.824,8.843 9.773,11.203 1.149,0.687 2.168,1.246 2.266,1.246 0.441,0 1.285,1.105 1.277,1.664 -0.004,0.34 -0.582,2.941 -1.281,5.777 l -1.27,5.16 -0.554,-1.8 c -3.047,-9.911 -8.395,-17.102 -15.617,-21.008 -3.621,-1.961 -4.981,-2.024 -5.754,-0.274 -1.2,2.711 -2.325,11.547 -2.024,15.883 0.34,4.91 1.082,7.836 2.992,11.785 3.762,7.782 8.735,12.399 15.957,14.817 1.5,0.504 1.676,0.625 1.622,1.14 -0.254,2.453 -0.782,9.598 -0.782,10.567 0,0.715 -0.093,1.14 -0.23,1.054 -0.129,-0.078 -0.875,-1.425 -1.656,-2.996 -3.457,-6.945 -7.86,-12.132 -13.352,-15.734 -2.519,-1.648 -5.969,-3.363 -7.785,-3.867 -1.734,-0.485 -2.406,-0.278 -3.067,0.926 -0.386,0.711 -0.425,1.488 -0.414,7.867 0.012,6.406 0.063,7.32 0.551,9.586 0.844,3.906 2.668,8.25 4.961,11.808 3.965,6.145 11.594,11.586 18.063,12.887 l 2.089,0.422 0.161,1.789 c 0.089,0.984 0.339,3.785 0.558,6.23 0.219,2.442 0.461,4.7 0.535,5.016 0.246,1.031 -0.324,0.34 -1.808,-2.203 -1.895,-3.238 -3.258,-5.063 -5.641,-7.543 -4.695,-4.895 -11.883,-9.484 -16.965,-10.844 -2.117,-0.562 -6.019,-1.062 -6.285,-0.801 -0.199,0.2 0.356,7.305 0.785,10.012 0.938,5.977 2.899,11.117 6.356,16.676 3.652,5.867 8.242,10.027 14.226,12.879 2.801,1.336 5.688,2.097 9.465,2.5 2.547,0.273 2.836,0.351 2.93,0.805 0.058,0.277 0.277,1.691 0.488,3.14 0.211,1.453 0.602,3.559 0.863,4.68 0.262,1.125 0.625,2.664 0.805,3.422 0.18,0.758 0.254,1.375 0.168,1.367 -0.09,-0.008 -0.699,-0.676 -1.359,-1.484 -4.883,-5.985 -9.668,-9.903 -16.68,-13.665 -4.148,-2.226 -13.305,-4.535 -15.164,-3.828 -0.879,0.336 -0.992,0.899 -0.688,3.399 0.559,4.586 1.997,9.039 4.602,14.234 4.438,8.844 10.598,15.184 18.68,19.231 4.914,2.457 7.843,3.199 13.515,3.418 2.18,0.086 3.614,0.238 3.719,0.402 0.313,0.48 4.609,11.992 4.516,12.086 -0.051,0.051 -1.481,-1.027 -3.176,-2.399 -4.074,-3.293 -5.965,-4.648 -8.981,-6.445 -6.824,-4.07 -12.832,-6.062 -20.253,-6.723 -3.547,-0.316 -4.676,-0.125 -5.129,0.875 -0.387,0.844 -0.356,1.25 0.222,3.145 1.586,5.184 5.235,11.828 9.336,16.984 6.106,7.688 15.512,13.891 24.239,15.985 1.906,0.457 2.929,0.547 6.25,0.543 2.183,-0.004 4.839,-0.082 5.91,-0.176 l 1.941,-0.176 1.391,2.606 c 1.777,3.324 5.078,9.121 5.679,9.984 0.879,1.25 0.301,1.16 -1.773,-0.277 -4.855,-3.364 -11.313,-6.86 -15.621,-8.453 -5.246,-1.938 -10.867,-2.899 -17.215,-2.946 -3.934,-0.027 -4.266,0.008 -5.219,0.516 -1.695,0.906 -1.664,1.726 0.18,4.937 5.875,10.235 12.379,17.153 21.047,22.379 4.367,2.633 10.137,5.188 13.515,5.977 3.649,0.855 15.11,0.695 17.782,-0.246 0.558,-0.196 1.207,-0.297 1.441,-0.223 0.235,0.074 1.531,1.508 2.887,3.184 1.355,1.675 3.531,4.324 4.836,5.886 1.308,1.559 2.328,2.883 2.273,2.942 -0.058,0.054 -1.715,-0.699 -3.687,-1.676 -9.496,-4.703 -14.309,-6.387 -20.258,-7.082 -3.621,-0.426 -9.609,-0.551 -13.961,-0.297 -3.781,0.223 -4.375,0.316 -5.445,0.859 -1.489,0.754 -1.664,1.254 -0.953,2.68 1.277,2.559 7.937,10.024 12.039,13.496 7.652,6.477 16.496,11.028 25.683,13.223 4.117,0.98 10.715,1.258 14.801,0.621 1.254,-0.195 3.867,-0.863 5.812,-1.484 3.204,-1.02 3.575,-1.09 3.961,-0.762 1.586,1.359 12.063,10.82 12.063,10.894 0,0.055 -0.891,-0.238 -1.977,-0.644 -9.839,-3.676 -14.285,-4.734 -22.086,-5.266 -6.14,-0.414 -14.804,0.235 -19.253,1.446 -1.879,0.511 -3.844,1.515 -4.059,2.074 -0.227,0.597 0.488,1.691 2.453,3.758 8.156,8.57 20.223,15.742 32.203,19.136 5.137,1.453 8.231,1.926 12.688,1.926 9.961,0 15.867,-1.379 20.371,-4.754 0.445,-0.332 0.976,-0.535 1.23,-0.465 0.602,0.157 14.965,9.805 14.821,9.95 -0.067,0.066 -1.555,-0.215 -3.313,-0.622 -6.219,-1.433 -10.566,-1.921 -18.797,-2.113 -10.844,-0.254 -16.109,0.617 -22.883,3.785 -1.101,0.516 -2.062,0.938 -2.136,0.938 -0.434,0 -1.739,1.301 -1.739,1.734 0,0.887 3.575,3.914 7.977,6.754 12.769,8.238 27.887,12.879 41.926,12.871 7.765,-0.004 12.265,-0.961 18.031,-3.828 3.156,-1.57 4.711,-2.547 6.019,-3.793 0.856,-0.808 0.907,-0.824 1.801,-0.531 0.508,0.168 1.735,0.715 2.723,1.215 2.078,1.054 3.879,1.883 10.203,4.687 2.508,1.114 4.773,2.117 5.039,2.235 16.516,7.375 33.602,13.238 54.84,18.82 7.457,1.961 8.121,2.164 7.766,2.383 -0.301,0.187 -3.524,0.711 -9.137,1.488 -4.617,0.641 -5.856,1.027 -6.285,1.969 -0.45,0.992 -0.196,2.273 0.55,2.773 1.047,0.696 12.786,-0.722 24.418,-2.953 3.711,-0.715 5.825,-0.562 14.727,1.059 6.07,1.109 13.207,2.277 16.082,2.636 2.836,0.352 4.602,0 5.152,-1.027 0.286,-0.531 0.325,-2.164 0.063,-2.559 -0.395,-0.589 -1.457,-0.851 -6.344,-1.546 -5.769,-0.825 -10.812,-1.649 -10.961,-1.797 -0.222,-0.223 3.324,-1.278 11.727,-3.477 15.504,-4.055 28.465,-8.269 42,-13.66 2.707,-1.078 5.246,-2.105 5.644,-2.289 0.395,-0.18 1.637,-0.699 2.758,-1.152 1.121,-0.45 2.688,-1.118 3.481,-1.485 1.828,-0.84 3.046,-1.39 4.558,-2.054 0.66,-0.29 2.551,-1.149 4.203,-1.915 1.649,-0.761 3.539,-1.621 4.2,-1.902 0.66,-0.285 1.515,-0.691 1.906,-0.906 0.386,-0.215 1.191,-0.574 1.785,-0.801 l 1.078,-0.41 2.176,1.629 c 5.426,4.062 10.883,5.887 19.492,6.508 8.449,0.609 19.652,-1.012 27.32,-3.957 9.258,-3.551 21.149,-10.02 24.731,-13.454 1.179,-1.128 1.414,-2.16 0.648,-2.847 -1.304,-1.172 -6.558,-3.313 -10.738,-4.375 -4.773,-1.219 -6.93,-1.442 -13.918,-1.438 -8.234,0.008 -13.359,0.61 -20.539,2.414 -1.863,0.469 -3.438,0.805 -3.496,0.746 -0.059,-0.058 2.086,-1.562 4.765,-3.343 7.918,-5.266 9.821,-6.422 10.559,-6.422 0.281,0 1.813,0.637 3.41,1.418 3.274,1.601 4.961,2.215 7.621,2.758 11.981,2.461 27.594,-0.95 40.867,-8.926 4.149,-2.496 9.645,-6.813 13.711,-10.774 2.364,-2.296 3.329,-3.675 3.098,-4.406 -0.211,-0.668 -1.973,-1.476 -4.918,-2.254 -11.484,-3.035 -23.84,-1.937 -38.879,3.446 l -2.762,0.988 3.36,-3.387 c 1.848,-1.867 4.371,-4.301 5.605,-5.41 2.692,-2.418 2.664,-2.414 6.825,-1.063 4.058,1.317 6.476,1.688 10.941,1.688 7.824,-0.004 14.602,-1.793 22.801,-6.02 9.629,-4.968 17.648,-12.007 23.289,-20.449 1.926,-2.883 1.504,-3.679 -2.317,-4.402 -4.359,-0.82 -15.254,-0.668 -19.742,0.281 -5.367,1.133 -15.621,5.274 -20.125,8.125 -0.57,0.363 -1.097,0.606 -1.168,0.535 -0.09,-0.09 7.492,-9.953 9.692,-12.609 0.047,-0.059 0.972,0.191 2.062,0.547 2.672,0.883 4.313,1.113 7.86,1.105 6.91,-0.004 13.515,-1.668 20.191,-5.082 4.926,-2.519 10.059,-6.621 15.035,-12.008 4.141,-4.48 6.473,-7.699 8.399,-11.582 2.796,-5.629 2.679,-5.765 -4.844,-5.746 -5.543,0.02 -8.996,0.403 -12.813,1.426 -5.504,1.473 -14.195,5.774 -19.543,9.668 -3.203,2.336 -3.031,2.25 -2.371,1.133 1.512,-2.567 3.36,-5.77 4.703,-8.16 0.817,-1.453 1.84,-3.266 2.27,-4.028 0.566,-0.996 0.894,-1.355 1.18,-1.273 1.257,0.375 4.98,0.859 6.601,0.859 2.254,0 6.887,-0.894 10.027,-1.937 2.813,-0.934 7.305,-3.172 10.282,-5.121 8.289,-5.426 14.281,-13.059 19.062,-24.278 0.735,-1.726 1.403,-3.625 1.485,-4.222 0.136,-0.981 0.086,-1.129 -0.512,-1.602 -0.774,-0.609 -2.61,-0.68 -6.953,-0.269 -5.055,0.48 -8.789,1.48 -13.199,3.535 -5.426,2.531 -9.508,5.238 -14.516,9.644 -1.383,1.215 -2.547,2.102 -2.594,1.973 -0.043,-0.133 0.527,-1.789 1.27,-3.68 0.742,-1.894 1.711,-4.437 2.16,-5.652 1.23,-3.359 0.953,-3.109 3.652,-3.293 7.363,-0.508 9.274,-0.852 12.645,-2.289 11.797,-5.02 20.925,-16.426 24.519,-30.645 1.321,-5.207 1.36,-6.48 0.215,-7 -1.605,-0.734 -7.164,0.157 -11.18,1.789 -8.089,3.286 -14.949,8.274 -20.351,14.805 -0.965,1.164 -1.793,2.074 -1.844,2.024 -0.051,-0.051 0.223,-1.489 0.606,-3.196 0.378,-1.707 0.98,-4.562 1.335,-6.344 0.356,-1.785 0.719,-3.32 0.813,-3.417 0.09,-0.098 1.297,-0.293 2.68,-0.43 3.8,-0.383 6.277,-1.055 9.226,-2.492 7.215,-3.524 12.707,-9.235 16.883,-17.567 3.066,-6.113 4.125,-10.41 4.301,-17.472 l 0.121,-4.774 -1.813,0.164 c -3.058,0.278 -6.976,1.524 -9.523,3.024 -0.676,0.398 -1.277,0.722 -1.34,0.722 -0.332,0 -4.394,2.817 -6.473,4.492 -3.804,3.059 -6.437,6.063 -9.593,10.93 -0.66,1.02 -1.297,1.856 -1.414,1.856 -0.383,0.007 0.457,-12.203 0.867,-12.614 0.066,-0.062 1.078,-0.281 2.254,-0.484 4.59,-0.801 9.355,-3.445 13.676,-7.59 5.593,-5.363 8.738,-12.363 10.046,-22.359 0.676,-5.153 0.36,-10.606 -0.714,-12.246 -1.008,-1.532 -2.922,-1.192 -8.024,1.425 -3.289,1.688 -6.14,3.856 -8.879,6.75 -2.594,2.743 -4.566,5.653 -6.965,10.282 -1.921,3.703 -1.871,3.617 -2.066,3.422 -0.105,-0.106 -1.031,-10.692 -1.059,-12.11 0,-0.156 0.942,-0.57 2.094,-0.922 5.156,-1.574 9.363,-4.57 12.41,-8.84 2.598,-3.64 4.598,-8.253 5.578,-12.871 0.625,-2.937 0.618,-11.375 -0.011,-14.746 -0.961,-5.168 -1.746,-7.164 -2.867,-7.293 -1.231,-0.14 -6.215,2.758 -9.407,5.465 -4.187,3.555 -8.285,10.102 -10.199,16.289 -0.422,1.364 -0.824,2.422 -0.891,2.352 -0.07,-0.067 -0.703,-2.531 -1.406,-5.473 -1.156,-4.828 -1.246,-5.402 -0.937,-5.879 0.191,-0.293 1.234,-0.976 2.316,-1.523 3.508,-1.766 5.399,-3.297 7.375,-5.961 2.57,-3.469 4.438,-7.891 5.211,-12.36 0.586,-3.371 0.348,-10.195 -0.48,-13.71 -0.793,-3.356 -2.129,-7.286 -3.106,-9.129 -0.691,-1.293 -0.844,-1.438 -1.601,-1.496 -1.754,-0.129 -6.942,3.527 -9.219,6.507 -1.766,2.309 -3.496,5.364 -4.563,8.055 -1.113,2.82 -1.511,4.328 -1.957,7.449 -0.195,1.379 -0.398,2.547 -0.449,2.598 -0.152,0.152 -0.496,-0.594 -2.07,-4.524 -1.551,-3.863 -2.43,-6.261 -2.325,-6.355 0.032,-0.031 0.883,-0.605 1.887,-1.277 3.571,-2.383 6.262,-5.61 7.938,-9.524 1.121,-2.617 1.277,-3.859 1.258,-10.066 -0.02,-6.406 -0.364,-8.801 -1.766,-12.36 -1.149,-2.902 -5.305,-10.558 -5.734,-10.558 -0.094,0 -1.028,0.5 -2.079,1.113 -3.039,1.781 -5.011,4.117 -7.281,8.617 -1.89,3.75 -2.75,7.305 -3.051,12.649 -0.086,1.551 -0.226,2.816 -0.312,2.812 -0.152,-0.008 -3.567,-5.703 -4.992,-8.332 l -0.688,-1.258 2.086,-1.929 c 4.516,-4.168 6.293,-8.371 6.297,-14.871 0,-5.407 -1.004,-9.262 -3.941,-15.121 -1.075,-2.145 -4.547,-7.696 -5.567,-8.891 -0.601,-0.711 -1.504,-1.188 -2.242,-1.188 -1.406,0 -3.691,2.528 -5.902,6.52 -2.028,3.668 -2.36,5.309 -2.383,11.836 -0.012,2.512 -0.098,4.758 -0.192,4.992 -0.156,0.402 -0.207,0.391 -0.668,-0.117 -0.73,-0.813 -5.605,-7.352 -5.605,-7.524 0,-0.078 0.578,-0.886 1.285,-1.793 1.602,-2.042 3.442,-5.773 3.887,-7.882 0.707,-3.336 0.34,-8.223 -0.895,-11.914 -1.836,-5.477 -5.906,-11.676 -10.605,-16.137 -2.985,-2.836 -4.125,-2.781 -5.945,0.269 -3.278,5.493 -4.082,11.438 -2.461,18.207 0.339,1.438 0.558,2.676 0.484,2.75 -0.195,0.196 -8.02,-7.785 -8.203,-8.367 -0.106,-0.332 0.07,-0.804 0.555,-1.484 1.664,-2.332 2.921,-6.281 2.933,-9.203 0.012,-4.656 -2.969,-11.645 -7.398,-17.34 -2.77,-3.559 -7.11,-7.574 -10.051,-9.297 -1.41,-0.828 -2.031,-0.633 -3.039,0.949 -2.879,4.532 -3.012,10.711 -0.383,18.399 0.516,1.511 0.91,2.781 0.871,2.816 -0.219,0.219 -5.301,-3.762 -8.058,-6.312 -0.977,-0.907 -2.25,-2.383 -2.825,-3.282 -2.511,-3.918 -10.742,-11.023 -16.035,-13.847 -2.816,-1.5 -3.137,-1.664 -4.68,-2.36 -6.488,-2.929 -13.414,-4.601 -19.05,-4.601 z m -154.168,50.14 c -2.176,0.016 -4.364,0.582 -6.516,1.704 -2.801,1.457 -4.609,3.429 -6.016,6.55 -2.312,5.137 -1.179,11.848 2.657,15.746 1.304,1.329 4.832,3.235 6.695,3.618 0.594,0.121 2.32,0.183 3.84,0.14 2.191,-0.066 3.086,-0.203 4.348,-0.668 4.253,-1.57 6.636,-4.039 8.179,-8.469 0.676,-1.937 0.727,-6.289 0.098,-8.402 -1.176,-3.941 -3.512,-6.894 -6.813,-8.598 -2.121,-1.093 -4.293,-1.632 -6.472,-1.621 z m -81.516,0.493 c -1.144,-0.004 -2.297,0.093 -2.496,0.296 -0.34,0.34 -0.363,6.957 -0.066,18.653 0.187,7.426 0.199,7.551 0.73,7.98 0.719,0.582 2.313,0.567 3.289,-0.031 0.86,-0.52 0.856,-0.508 1.235,-5.434 0.246,-3.226 0.5,-3.949 1.722,-4.918 1.453,-1.148 1.574,-1.089 3.781,1.821 6.293,8.304 7.02,9 9.43,9 1.563,0 2.77,-0.356 2.969,-0.871 0.277,-0.719 -0.91,-2.641 -5.395,-8.727 -1.797,-2.441 -3.578,-4.914 -3.961,-5.496 l -0.695,-1.055 4.602,-4.465 c 2.527,-2.457 4.726,-4.73 4.886,-5.05 0.25,-0.504 0.219,-0.637 -0.211,-0.985 -0.605,-0.492 -2.625,-0.789 -3.832,-0.562 -2.179,0.41 -3.058,1.058 -8.812,6.527 l -4.078,3.879 -0.203,-4.976 c -0.114,-2.762 -0.313,-5.114 -0.45,-5.278 -0.168,-0.203 -1.304,-0.305 -2.445,-0.308 z m 208.484,0.007 c -0.957,-0.007 -1.085,0.106 -1.347,0.512 -0.469,0.731 -6.32,15.344 -7.961,19.887 -2.043,5.66 -2.141,6.527 -0.762,6.793 1.18,0.23 2.258,0.133 3.188,-0.289 1.09,-0.496 1.382,-0.981 2.925,-4.856 l 0.895,-2.246 h 4.648 c 3.891,0 4.684,0.059 4.84,0.36 0.106,0.199 0.836,1.73 1.625,3.402 1.676,3.551 1.969,3.797 4.508,3.797 1.793,0 2.492,-0.383 2.492,-1.364 0,-0.726 -2.133,-6.167 -4.918,-12.554 -0.758,-1.738 -2.183,-5.067 -2.363,-5.524 -0.078,-0.195 -0.766,-1.804 -1.531,-3.574 -1.746,-4.031 -1.903,-4.168 -4.965,-4.301 -0.543,-0.023 -0.953,-0.039 -1.274,-0.043 z m -93.449,0.008 c -0.351,0.008 -0.804,0.024 -1.386,0.051 -1.403,0.066 -2.747,0.199 -2.981,0.301 -0.605,0.254 -0.98,1.09 -1.73,3.84 -0.84,3.109 -3.106,10.296 -3.629,11.527 l -0.407,0.953 -0.199,-0.719 c -0.113,-0.394 -0.965,-4.007 -1.894,-8.027 -0.93,-4.016 -1.821,-7.461 -1.981,-7.652 -0.226,-0.274 -0.715,-0.313 -2.422,-0.192 -1.179,0.082 -2.289,0.27 -2.464,0.418 -0.18,0.149 -0.325,0.676 -0.325,1.172 0,1.359 3.075,13.293 5.2,20.16 1.019,3.305 1.765,4.852 2.519,5.235 0.648,0.328 2.801,0.214 3.559,-0.192 0.89,-0.476 1.984,-3.25 4.195,-10.637 1.176,-3.925 2.215,-7 2.305,-6.832 0.089,0.168 0.945,3.059 1.902,6.426 2.988,10.524 3.473,11.52 5.617,11.52 1.426,0 2.746,-0.672 3.246,-1.649 0.446,-0.879 7.215,-24.195 7.215,-24.855 0,-0.676 -0.941,-0.922 -2.84,-0.75 -2.941,0.265 -2.773,0.027 -4.472,6.375 -1.508,5.64 -2.493,8.832 -2.778,9.004 -0.316,0.199 -0.422,-0.121 -2.652,-7.867 -1.07,-3.727 -2.055,-6.981 -2.188,-7.227 -0.164,-0.305 -0.347,-0.398 -1.41,-0.383 z m 59.946,0.008 c -0.215,0.004 -0.43,0.012 -0.645,0.027 l -1.082,0.078 -0.062,9.387 c -0.036,5.16 0.023,11.141 0.132,13.289 0.172,3.414 0.25,3.942 0.649,4.231 0.543,0.398 1.926,0.433 2.949,0.078 0.5,-0.176 0.824,-0.508 1.004,-1.024 0.148,-0.418 0.375,-2.976 0.5,-5.679 0.391,-8.246 0.508,-9.848 0.719,-9.715 0.109,0.066 1.683,2.254 3.496,4.859 7.078,10.176 8.617,11.813 11.078,11.813 1.234,0 1.894,-0.645 2.137,-2.094 0.109,-0.629 0.199,-6.547 0.199,-13.145 v -12 l -2.363,-0.07 c -1.54,-0.043 -2.481,0.028 -2.7,0.211 -0.261,0.215 -0.336,1.078 -0.336,3.809 0,5.258 -0.289,12.25 -0.5,12.117 -0.101,-0.063 -1.894,-2.567 -3.984,-5.559 -4.992,-7.16 -6.543,-9.199 -7.48,-9.832 -0.739,-0.496 -2.208,-0.797 -3.711,-0.781 z m -17.536,0.004 c -2.711,0.027 -4.253,0.316 -4.714,0.887 -0.223,0.277 -0.922,1.941 -1.551,3.699 -2.668,7.469 -4.828,12.676 -5.258,12.676 -0.332,0 -0.559,-0.586 -3.539,-9.243 -1.316,-3.828 -2.555,-7.203 -2.75,-7.503 -0.348,-0.532 -0.449,-0.547 -3.77,-0.481 l -3.41,0.066 -0.062,9.118 c -0.035,5.019 0.031,11 0.144,13.297 0.176,3.644 0.258,4.214 0.649,4.5 0.992,0.726 3.461,0.226 3.925,-0.797 0.219,-0.477 0.7,-8.996 0.739,-13.145 0.011,-0.91 0.441,0.016 2.051,4.426 1.945,5.34 3.003,7.789 3.781,8.754 0.547,0.676 0.703,0.726 2.515,0.808 1.817,0.082 1.961,0.055 2.301,-0.476 0.199,-0.309 1.36,-3.375 2.574,-6.805 2.715,-7.664 2.618,-7.406 2.731,-7.293 0.051,0.051 0.223,3.227 0.383,7.055 0.164,3.828 0.402,7.094 0.535,7.258 0.156,0.199 0.926,0.3 2.254,0.3 1.394,0 2.051,-0.093 2.129,-0.3 0.238,-0.629 0.507,-26.223 0.281,-26.52 -0.145,-0.195 -0.832,-0.293 -1.938,-0.281 z m 91.125,0.019 c -0.316,-0.003 -0.691,0 -1.132,0.012 l -2.422,0.07 -0.074,8.762 c -0.043,4.817 -0.004,10.742 0.085,13.164 0.149,3.977 0.211,4.457 0.649,4.895 0.43,0.429 0.672,0.465 2.183,0.324 0.938,-0.086 1.786,-0.238 1.887,-0.336 0.285,-0.289 0.633,-26.277 0.356,-26.637 -0.129,-0.168 -0.575,-0.246 -1.532,-0.254 z m -22.539,0.004 c -4.32,0.008 -6.07,0.078 -6.257,0.235 -0.25,0.207 -0.321,0.797 -0.266,2.34 l 0.066,2.062 4.2,0.121 4.203,0.121 0.121,10.078 c 0.133,11.2 0.144,11.293 1.754,12.024 0.82,0.371 3.136,0.277 3.652,-0.153 0.203,-0.167 0.332,-3.238 0.461,-10.972 0.098,-5.906 0.227,-10.82 0.289,-10.918 0.059,-0.098 1.711,-0.18 3.668,-0.18 4.578,0 4.625,-0.027 4.523,-2.762 l -0.07,-1.918 -11.133,-0.062 c -2.047,-0.012 -3.773,-0.016 -5.211,-0.016 z m -57.625,0.039 c -1.453,0.032 -4.183,0.368 -4.504,0.633 -0.32,0.266 -0.367,1.903 -0.363,12.938 0,6.945 0.082,12.746 0.18,12.89 0.098,0.141 0.39,0.391 0.656,0.547 0.512,0.309 4.156,0.168 4.496,-0.168 0.235,-0.234 0.653,-26.5 0.426,-26.754 -0.063,-0.074 -0.406,-0.097 -0.891,-0.086 z m -146.351,0.039 0.008,8.762 c 0.007,9.879 0.168,11.391 1.468,13.985 0.672,1.336 1.043,1.769 2.071,2.414 1.699,1.062 2.957,1.586 4.379,1.824 1.73,0.289 5.035,0.289 6.8,0.004 1.465,-0.239 3.743,-1.211 5.141,-2.199 0.906,-0.641 2.02,-2.93 2.324,-4.782 0.324,-1.965 0.778,-13.383 0.684,-17.129 l -0.074,-2.879 -1.922,0.008 c -2.508,0.012 -3.403,0.379 -3.703,1.524 -0.129,0.48 -0.336,4.492 -0.461,8.914 -0.246,8.566 -0.356,9.367 -1.477,10.441 -1.465,1.403 -6.742,1.278 -8.098,-0.191 -1.136,-1.227 -1.445,-3.844 -1.929,-16.25 l -0.168,-4.442 h -2.524 z m 31.922,0 -2.282,0.09 c -3.648,0.145 -3.277,-0.617 -3.484,7.149 -0.227,8.488 -0.062,17.769 0.328,18.496 0.375,0.699 1.11,1.086 2.438,1.285 0.593,0.086 4.371,0.148 8.398,0.129 l 7.32,-0.027 v -5.039 l -6.242,-0.122 -6.238,-0.121 -0.121,-10.922 z m 27.75,4.719 c 4.437,0.039 7.507,3.524 7.523,8.723 0.012,4.398 -1.93,7.312 -5.738,8.598 -2.524,0.855 -5.012,0.128 -7.227,-2.098 -1.207,-1.219 -1.527,-1.723 -1.918,-3.024 -1.023,-3.425 -0.246,-7.902 1.735,-9.968 1.297,-1.356 2.691,-2 4.718,-2.188 0.309,-0.031 0.61,-0.043 0.907,-0.043 z m 128.343,3.813 c 0.09,-0.008 0.184,0.07 0.336,0.23 0.352,0.371 2.328,5.231 2.328,5.723 0,0.332 -4.257,0.383 -4.773,0.055 -0.277,-0.172 -0.176,-0.661 0.57,-2.75 0.496,-1.395 1.047,-2.731 1.219,-2.965 0.141,-0.188 0.227,-0.285 0.32,-0.293 z m -83.101,28.89 c -2.051,0.051 -5.207,1.606 -15.992,6.801 -6.125,2.949 -11.418,5.352 -18.368,8.34 -25.199,10.824 -46.191,17.32 -71.273,22.051 -5.203,0.98 -28.621,4.855 -34.922,5.777 -2.308,0.34 -4.793,0.727 -5.519,0.863 -1.68,0.313 -5.536,1.629 -5.973,2.036 -0.277,0.265 -0.289,1.859 -0.051,10.351 0.77,27.707 2.66,63.024 4.477,83.719 0.844,9.625 2.176,16.668 6.113,32.281 5.543,22 10.52,36.66 17.992,53.039 1.348,2.957 5.797,11.938 6.93,13.992 0.379,0.688 1.066,1.95 1.531,2.809 7.988,14.769 22.598,36.059 32.442,47.277 13.902,15.848 38.996,38.035 54.625,48.301 9.964,6.543 19.023,11.629 24.117,13.539 3.551,1.328 4.836,1.051 12.597,-2.73 7.934,-3.868 19.157,-10.778 27,-16.621 1.715,-1.282 5.219,-4.043 7.786,-6.145 27.066,-22.156 43.515,-40.016 59.586,-64.668 3.058,-4.695 7.871,-12.488 8.964,-14.516 0.145,-0.261 0.75,-1.343 1.348,-2.398 2.242,-3.957 4.371,-7.961 6.664,-12.551 2.012,-4.023 3.207,-6.578 6.27,-13.39 1.109,-2.477 4.043,-10.039 5.668,-14.618 6.039,-17.023 12.019,-40.867 14.57,-58.082 1.445,-9.781 1.937,-15.808 3.137,-38.519 2.269,-42.922 2.726,-58.27 1.8,-60.289 -0.773,-1.672 -5.207,-2.738 -24.714,-5.934 -34.719,-5.683 -48.887,-9.105 -70.918,-17.109 -4.633,-1.684 -15.938,-6.094 -17.989,-7.02 -0.402,-0.183 -3,-1.3 -5.769,-2.488 -6.055,-2.59 -9.996,-4.34 -10.324,-4.582 -0.133,-0.098 -0.618,-0.32 -1.079,-0.496 -0.461,-0.176 -3.648,-1.695 -7.078,-3.375 -6.457,-3.16 -8.668,-4.172 -10.922,-4.988 -1.089,-0.395 -1.793,-0.68 -2.726,-0.657 z m -0.102,8.196 1.953,0.672 c 1.075,0.371 3.84,1.593 6.149,2.718 6.234,3.043 12.715,6.063 17.648,8.227 1.582,0.695 3.364,1.484 3.957,1.75 3.219,1.445 14.368,5.894 20.16,8.043 11.68,4.34 23.247,7.996 33.481,10.578 9.59,2.418 18.949,4.215 40.801,7.824 13.968,2.309 18.726,3.172 19.363,3.516 0.398,0.211 0.434,0.629 0.434,4.601 -0.004,17.094 -2.539,66.18 -4.207,81.414 -1.473,13.477 -5,30.278 -10.075,48 -3,10.481 -8.179,25.231 -11.285,32.161 -0.179,0.394 -0.969,2.23 -1.75,4.078 -0.785,1.847 -1.875,4.254 -2.426,5.343 -0.546,1.086 -1.074,1.973 -1.168,1.969 -0.269,-0.015 -6.71,-5.101 -54.527,-43.054 -17.621,-13.989 -49.211,-39.04 -70.199,-55.672 -98.684,-78.2 -104.281,-82.664 -104.281,-83.164 0,-0.278 0.047,-0.289 7.8,-1.704 18.176,-3.312 28.176,-5.761 43.793,-10.718 8.5,-2.7 24.071,-8.407 28.688,-10.512 0.394,-0.184 1.527,-0.648 2.519,-1.043 0.989,-0.395 2.536,-1.051 3.438,-1.465 0.898,-0.414 2.25,-1.008 3,-1.32 1.207,-0.508 4.656,-2.082 9.762,-4.461 0.925,-0.434 4.164,-2 7.199,-3.488 3.039,-1.489 6.48,-3.067 7.648,-3.5 z m -143.304,57.703 c 0.461,0 6.722,4.933 73.054,57.601 21.582,17.137 74.133,58.825 115.68,91.766 36.711,29.105 41.406,32.855 46.801,37.371 4.195,3.516 4.531,3.867 4.316,4.543 -0.242,0.762 -3.226,5.141 -4.785,7.02 -0.738,0.89 -1.496,1.617 -1.684,1.617 -0.414,0 0.532,0.742 -28.691,-22.461 -13.133,-10.426 -34.301,-27.223 -47.039,-37.32 -70.301,-55.739 -85.848,-68.067 -108.598,-86.133 -13.73,-10.903 -30.179,-23.961 -36.554,-29.02 -6.375,-5.058 -11.735,-9.43 -11.911,-9.711 -0.468,-0.75 -0.855,-4.226 -1.023,-9.168 -0.145,-4.355 -0.02,-6.105 0.434,-6.105 z m 208.929,1.887 c -0.871,-0.071 -2.164,0.835 -4.429,2.941 -1.274,1.191 -3.223,2.715 -4.329,3.394 -1.105,0.68 -2.179,1.489 -2.382,1.797 -0.5,0.766 -0.633,2.672 -0.243,3.422 0.555,1.055 1.477,0.91 4.602,-0.707 1.539,-0.801 2.852,-1.453 2.91,-1.453 0.063,0 0.121,4.508 0.133,10.02 0.008,5.507 0.09,10.5 0.18,11.089 0.121,0.813 0.308,1.149 0.761,1.383 0.372,0.192 1.289,0.285 2.403,0.246 l 1.797,-0.058 v -15.371 c 0,-14.313 -0.028,-15.414 -0.426,-16.02 -0.27,-0.414 -0.582,-0.652 -0.977,-0.683 z m 28.157,0.035 h -1.137 c -2.004,0.004 -3.235,0.945 -6.363,4.851 -7.567,9.461 -11.454,15.504 -11.454,17.809 0,0.586 0.118,1.14 0.262,1.23 0.141,0.09 3.121,0.254 6.617,0.371 3.493,0.114 6.457,0.27 6.578,0.348 0.122,0.074 0.223,1.356 0.223,2.848 0,2.98 0.277,4.152 1.051,4.465 0.281,0.113 1.129,0.214 1.891,0.222 2.101,0.024 2.246,-0.215 2.386,-3.902 0.074,-1.945 0.227,-3.156 0.426,-3.395 0.199,-0.242 0.715,-0.371 1.488,-0.371 1.692,0 2.36,-0.703 2.36,-2.492 0,-1.887 -0.434,-2.23 -3,-2.363 l -1.203,-0.063 -0.059,-9.781 z m -80.879,0.054 c -5.121,-0.156 -10.114,2.805 -11.012,7.364 -0.426,2.172 0.133,2.902 2.23,2.902 1.754,0 2.266,-0.379 3.196,-2.336 0.984,-2.07 1.879,-2.848 3.675,-3.187 3.196,-0.606 5.981,0.906 6.364,3.445 0.199,1.324 -0.324,3.051 -1.352,4.469 -0.918,1.269 -3.586,3.875 -6.336,6.187 -3.136,2.641 -4.32,3.801 -5.945,5.82 -1.41,1.75 -3.055,4.739 -3.055,5.547 0,0.867 0.817,1.457 2.293,1.657 0.785,0.109 5.313,0.175 10.067,0.152 10.343,-0.051 10.191,-0.012 10.195,-2.477 0.008,-2.554 -0.156,-2.625 -6.715,-2.824 -2.84,-0.086 -5.676,-0.215 -6.308,-0.289 -1.395,-0.164 -1.391,-0.172 1.507,-2.57 5.379,-4.457 9.555,-8.75 10.532,-10.832 0.421,-0.899 0.511,-1.532 0.511,-3.746 0,-2.606 -0.023,-2.707 -0.875,-4.329 -1.011,-1.921 -1.699,-2.566 -3.961,-3.707 -1.586,-0.8 -3.304,-1.195 -5.011,-1.246 z m 24.351,0.016 c -3,0.027 -5.851,1.098 -7.433,2.848 -1.036,1.148 -2.309,3.761 -2.836,5.839 -0.993,3.887 -1.047,8.969 -0.145,13.375 0.508,2.477 2.106,6.051 3.324,7.442 0.856,0.973 2.633,2.094 3.739,2.359 0.398,0.098 1.644,0.184 2.765,0.196 6.367,0.062 9.637,-2.637 10.977,-9.067 0.555,-2.656 0.539,-11.195 -0.024,-13.824 -0.457,-2.145 -1.671,-4.824 -2.789,-6.168 -1.129,-1.355 -4.097,-2.746 -6.289,-2.949 -0.429,-0.039 -0.863,-0.055 -1.289,-0.051 z m -0.097,4.613 c 0.378,0 0.773,0.047 1.187,0.137 3.379,0.723 4.492,3.957 4.258,12.375 -0.195,7.02 -1.141,9.508 -3.992,10.516 -1.153,0.406 -1.289,0.414 -2.231,0.129 -1.695,-0.512 -2.984,-2.075 -3.883,-4.723 -1.16,-3.406 -1.336,-7.578 -0.507,-11.961 0.82,-4.324 2.535,-6.477 5.168,-6.473 z m 51,5.336 c 0.14,0.035 0.23,1.953 0.23,4.801 v 4.738 l -3.656,0.067 c -2.016,0.035 -3.664,-0.024 -3.664,-0.133 0,-0.371 6.855,-9.535 7.09,-9.473 z M 293.578,269.91 c 0.207,0 1.563,1.024 8.723,6.578 16.324,12.664 198.48,157.18 201.683,160.008 l 0.918,0.817 -5.718,5.64 c -5.996,5.918 -10.84,10.317 -19.043,17.297 -10.274,8.742 -15.426,12.758 -21.317,16.625 -10.062,6.602 -18.097,11.168 -22.125,12.574 -1.121,0.391 -2.308,0.77 -2.636,0.844 -0.997,0.219 -4.618,-1.219 -8.52,-3.383 -0.926,-0.512 -2.328,-1.281 -3.121,-1.715 -4.133,-2.261 -12.863,-7.816 -17.16,-10.918 -6.086,-4.39 -21.578,-17.312 -29.641,-24.718 -16.445,-15.114 -28.91,-30.504 -43.351,-53.532 -2.149,-3.425 -3.161,-5.109 -6.336,-10.547 -1.77,-3.031 -5.715,-10.753 -7.18,-14.05 -0.613,-1.387 -1.266,-2.844 -1.445,-3.239 -1.411,-3.062 -4.407,-10.492 -6.059,-15 -8.809,-24.07 -15.039,-49.136 -16.98,-68.281 -0.711,-7.035 -1.079,-15 -0.692,-15 z"
       style="fill:#000000;fill-opacity:1;fill-rule:nonzero;stroke:none"
       transform="scale(1.3333333)" />
  </g>
</svg>
