<?xml version="1.0" encoding="UTF-8" standalone="no"?>
<!-- Created with Inkscape (http://www.inkscape.org/) -->

<svg
   version="1.1"
   id="svg1"
   width="1122.5197"
   height="793.70074"
   viewBox="0 0 1122.5197 793.70074"
   xmlns="http://www.w3.org/2000/svg"
   xmlns:svg="http://www.w3.org/2000/svg">
  <defs
     id="defs1" />
  <g
     id="g1">
    <path
       id="path1"
       d="m 63.672,215.691 c -5.891,-0.011 -7.824,0.461 -9.883,1.598 -2.148,1.184 -2.684,1.945 -2.684,3.824 0,1.336 -2.992,7.52 -5.039,10.414 -0.878,1.246 -1.867,2.809 -2.195,3.481 -0.324,0.672 -1,1.844 -1.5,2.609 -1.191,1.828 -3.707,7.969 -3.707,9.043 0,1.336 2.02,2.707 4.422,3 1.348,0.164 2.43,0.551 3.324,1.192 1.274,0.914 1.485,0.949 5.281,0.902 4.282,-0.059 10.852,-0.828 12.407,-1.457 0.531,-0.215 3.465,-0.524 6.519,-0.684 3.051,-0.156 6.758,-0.468 8.238,-0.687 3.954,-0.59 13.739,-0.485 16.547,0.179 3.008,0.708 5.586,2.258 6.731,4.051 1.242,1.946 1.441,4.946 0.496,7.61 -1.707,4.824 -2.133,5.754 -3.488,7.597 -2.766,3.762 -9.371,10.336 -12.403,12.344 -3.304,2.188 -4.687,3.699 -4.687,5.113 0,1.2 1.719,4.676 3.012,6.098 0.523,0.574 1.292,1.75 1.707,2.613 0.418,0.86 1.191,2.11 1.718,2.774 0.532,0.668 0.961,1.343 0.961,1.5 0,0.156 0.836,1.523 1.852,3.035 1.015,1.512 1.851,2.941 1.851,3.176 0,0.566 2.547,4.675 3.864,6.23 1.394,1.641 4.214,7.391 6.082,12.395 0.836,2.242 2.152,5.285 2.925,6.757 1.692,3.227 1.594,3.469 -1.789,4.512 -1.625,0.504 -2.539,1.012 -3.144,1.754 -1.297,1.602 -4.547,8.875 -7.828,17.539 -1.227,3.235 -2.793,11.809 -2.801,15.34 -0.004,0.957 -0.148,2.652 -0.324,3.766 -0.59,3.703 0.562,15.925 2.203,23.382 1.273,5.805 1.543,6.829 2.246,8.528 0.355,0.863 0.867,2.429 1.137,3.48 1.269,4.957 6.687,14.489 9.941,17.477 4.547,4.179 5.227,4.773 6.43,5.613 0.707,0.492 1.586,1.293 1.957,1.781 0.371,0.489 0.918,0.891 1.211,0.891 0.297,0 0.777,0.215 1.07,0.48 0.293,0.266 2.195,1.364 4.231,2.446 2.035,1.078 3.921,2.152 4.195,2.386 0.746,0.641 7.648,4.063 9.762,4.836 2.937,1.075 6.269,1.735 10.257,2.036 2.036,0.156 5.289,0.187 7.235,0.078 1.941,-0.114 7.011,-0.235 11.265,-0.27 7.481,-0.062 7.871,-0.101 11.895,-1.168 4.699,-1.246 9.203,-2.945 9.808,-3.699 0.223,-0.281 1.032,-0.676 1.797,-0.883 0.766,-0.203 1.938,-0.519 2.606,-0.699 1.39,-0.371 3.531,-2.024 4.406,-3.395 0.809,-1.269 0.754,-2.281 -0.297,-5.308 -0.777,-2.246 -0.91,-3.227 -1.004,-7.457 -0.258,-11.864 -0.738,-22.008 -1.086,-22.91 -0.707,-1.84 -0.468,-2.899 0.969,-4.375 0.742,-0.758 1.344,-1.664 1.344,-2.016 0,-0.91 -1.168,-2.762 -2.164,-3.441 -1.196,-0.805 -2.168,-0.457 -4.426,1.589 -1.059,0.957 -2.047,1.739 -2.203,1.739 -0.152,0 -1.106,0.777 -2.117,1.722 -1.012,0.95 -2.328,1.985 -2.922,2.305 -0.598,0.316 -2.129,1.363 -3.403,2.324 -2.378,1.793 -8.32,4.981 -11.089,5.953 -2.77,0.977 -7.094,1.344 -10.606,0.911 -4.445,-0.547 -6.215,-1.09 -10.39,-3.184 -3.223,-1.613 -4.016,-2.203 -6.743,-5.008 -2.656,-2.73 -3.285,-3.613 -4.476,-6.277 -1.196,-2.668 -1.399,-3.461 -1.453,-5.707 -0.114,-4.864 1.254,-12.446 2.843,-15.742 0.532,-1.094 0.961,-2.141 0.961,-2.329 0,-1.191 3.465,-5.878 8.407,-11.363 1.39,-1.543 2.929,-3.308 3.421,-3.918 1.055,-1.308 1.606,-1.359 6.536,-0.59 6.691,1.043 8.277,0.653 8.718,-2.152 0.465,-2.973 0.09,-2.809 6.614,-2.945 6.113,-0.129 7.039,-0.067 13.562,0.886 9.438,1.383 9.793,1.465 11.395,2.653 1.273,0.945 1.699,1.09 2.699,0.894 0.652,-0.125 1.289,-0.398 1.41,-0.605 0.125,-0.207 0.43,-4.156 0.68,-8.774 0.25,-4.621 0.531,-9.105 0.629,-9.968 0.703,-6.391 1.191,-12.645 1.261,-16.219 0.079,-4.059 0.047,-4.262 -0.828,-5.629 -1.769,-2.766 -4.625,-4.25 -10.855,-5.625 -1.852,-0.41 -4.274,-1.047 -5.383,-1.418 -4.324,-1.449 -9.75,-2.195 -15.133,-2.086 -9.984,0.207 -12.5,0.137 -16.144,-0.453 l -3.7,-0.602 -3,0.856 c -1.941,0.555 -3.187,0.75 -3.546,0.551 -0.301,-0.168 -0.899,-1.137 -1.329,-2.157 -1.5,-3.554 -3.519,-7.437 -4.964,-9.554 -0.801,-1.176 -1.457,-2.211 -1.457,-2.305 0,-0.242 5.003,-5.238 8.476,-8.461 1.613,-1.496 3.098,-3.144 3.305,-3.664 0.211,-0.52 0.957,-1.422 1.66,-2.008 1.773,-1.476 4.035,-7.078 5.41,-13.406 0.922,-4.25 1.016,-5.215 0.891,-9.02 -0.16,-4.886 -1.145,-9.668 -2.485,-12.086 -0.48,-0.863 -1.433,-2.609 -2.125,-3.878 -1.785,-3.301 -3.039,-4.793 -6.336,-7.536 -3.394,-2.828 -4.148,-3.257 -7.757,-4.437 -2.395,-0.781 -15.102,-4.305 -18.192,-5.039 -0.648,-0.156 -4.355,-0.461 -8.242,-0.68 -4.07,-0.226 -8.426,-0.676 -10.277,-1.062 -2.481,-0.52 -6.942,-0.836 -19.422,-1.391 -7.262,-0.324 -12.219,-0.508 -15.754,-0.516 z m -4.231,7.661 c 0.645,-0.012 1.875,0.07 3.164,0.222 1.723,0.199 6.993,0.352 11.711,0.34 9.872,-0.027 27.086,1.125 28.286,1.891 0.621,0.394 3.976,0.84 8.996,1.183 5.55,0.383 8.789,0.926 11.488,1.93 0.832,0.312 4.144,1.023 7.363,1.578 3.551,0.617 6.074,1.223 6.418,1.547 0.313,0.289 0.715,0.527 0.903,0.527 0.562,0 4.359,3.735 5.652,5.555 0.668,0.941 1.84,3.25 2.605,5.129 l 1.387,3.414 0.008,5.047 c 0.012,4.66 -0.074,5.351 -1.078,9.015 -1.235,4.489 -1.348,4.754 -3.133,7.204 -0.711,0.972 -1.289,1.894 -1.289,2.05 0,0.547 -5.899,7.875 -8.996,11.176 -1.406,1.496 -1.692,1.633 -4.196,2.051 -1.652,0.273 -3.292,1.711 -3.292,2.887 0,1.304 1.117,3.496 2.859,5.605 0.832,1.012 1.516,2.051 1.516,2.309 0,0.258 0.507,0.91 1.132,1.449 0.731,0.633 1.207,1.414 1.344,2.203 0.266,1.524 5.203,11.742 7.582,15.703 0.531,0.883 1.07,2.098 1.199,2.707 0.129,0.606 0.594,1.762 1.032,2.571 0.437,0.812 1.015,2.332 1.285,3.386 0.531,2.082 0.988,3.426 1.707,5.043 0.258,0.574 0.996,2.375 1.644,4.004 2.325,5.824 4.25,10.141 4.918,11.024 0.934,1.226 1.449,3.246 0.977,3.836 -0.485,0.601 -2.238,0.558 -3.375,-0.079 -2.145,-1.203 -5.11,-1.554 -13.324,-1.578 -4.59,-0.015 -9.227,0.153 -10.782,0.387 -1.5,0.227 -3.086,0.32 -3.523,0.207 -0.695,-0.18 -2.852,-3.195 -3.641,-5.09 -0.121,-0.289 -0.992,-1.859 -1.933,-3.484 -0.942,-1.629 -1.715,-3.137 -1.715,-3.352 0,-0.219 -1.117,-2.648 -2.481,-5.398 -1.363,-2.75 -2.757,-5.942 -3.097,-7.09 -0.86,-2.902 -4.184,-9.484 -6.684,-13.227 -1.148,-1.722 -2.769,-4.386 -3.601,-5.918 -1.582,-2.906 -2.95,-5.211 -5.914,-9.957 -0.973,-1.554 -1.766,-3.097 -1.766,-3.425 0,-0.332 2.004,-2.543 4.457,-4.914 7.348,-7.11 9.473,-9.696 11.625,-14.122 1.723,-3.546 2.312,-5.714 2.726,-10.046 0.325,-3.348 0.305,-3.551 -0.507,-5.395 -1.285,-2.914 -4.157,-7.258 -4.965,-7.516 -0.399,-0.128 -1.375,-0.683 -2.172,-1.23 -0.793,-0.551 -1.543,-1.004 -1.66,-1.004 -0.117,0 -0.828,-0.305 -1.578,-0.68 -3.996,-1.984 -10.274,-2.488 -21.211,-1.695 -2.778,0.199 -6.297,0.336 -7.828,0.301 l -2.786,-0.067 -0.351,1.043 c -0.426,1.266 -1.02,1.547 -2.238,1.059 -0.606,-0.238 -3.129,-0.293 -7.313,-0.152 -9.48,0.32 -11.043,-0.118 -9.828,-2.754 0.312,-0.684 1.328,-2.254 2.258,-3.489 0.926,-1.234 1.679,-2.347 1.679,-2.468 0,-0.125 0.512,-0.953 1.137,-1.84 0.625,-0.887 1.449,-2.254 1.828,-3.035 0.828,-1.696 4.297,-6.282 4.95,-6.539 0.062,-0.024 0.21,-0.036 0.425,-0.039 z m 683.602,11.007 c -3.355,0.043 -5.91,0.922 -7.844,2.684 -1.34,1.219 -1.609,1.75 -2.726,5.316 -1.039,3.329 -1.293,4.766 -1.59,9.008 -1.02,14.516 -0.86,40.754 0.308,50.996 0.172,1.532 0.403,5.758 0.504,9.399 0.344,11.961 0.481,14.926 0.832,18.445 0.594,5.973 0.926,15.844 0.664,19.84 -0.433,6.523 -2.628,12.203 -6.449,16.691 -1.711,2.008 -3.437,3.004 -6.379,3.68 -2.687,0.621 -3.793,0.109 -4.851,-2.242 -1.008,-2.242 -1.059,-5.071 -0.133,-7.5 0.875,-2.293 2.019,-8.656 2.367,-13.133 0.149,-1.953 0.375,-3.883 0.5,-4.293 0.125,-0.41 0.289,-2.34 0.363,-4.285 0.075,-1.945 0.145,-3.77 0.157,-4.059 0.043,-1.109 -1.094,-6.426 -1.59,-7.449 -0.289,-0.594 -1.223,-2.152 -2.082,-3.461 -1.242,-1.906 -2.02,-2.668 -3.832,-3.785 -2.11,-1.297 -2.422,-1.387 -4.266,-1.25 -3.219,0.242 -6.125,2.016 -8.512,5.191 -1.058,1.418 -2.402,3.516 -2.98,4.664 -0.582,1.149 -1.633,3.028 -2.34,4.176 -0.703,1.149 -1.379,2.512 -1.504,3.031 -0.121,0.52 -0.433,1.125 -0.695,1.348 -0.258,0.223 -0.473,0.586 -0.473,0.805 0,0.332 -1.933,3.531 -3.847,6.363 -0.688,1.012 -3.532,2.406 -6.375,3.129 l -2.317,0.59 -0.625,-0.797 c -0.523,-0.668 -0.625,-1.418 -0.625,-4.676 0,-2.133 0.246,-5.273 0.551,-6.976 0.766,-4.317 0.297,-9.981 -1.055,-12.735 -1.582,-3.234 -4.035,-5.363 -9.894,-8.582 -2.055,-1.133 -3.879,-1.074 -5.762,0.172 -0.824,0.547 -1.738,1.289 -2.031,1.656 -0.86,1.067 -3.496,6.032 -4.606,8.664 -2.281,5.438 -2.808,7.114 -3.293,10.43 -0.57,3.93 -1.422,7.555 -2.633,11.238 -0.457,1.387 -0.941,3.258 -1.07,4.161 -0.129,0.902 -0.586,2.359 -1.012,3.238 -0.425,0.875 -0.937,2.64 -1.132,3.918 -0.2,1.277 -0.825,3.621 -1.395,5.207 -0.566,1.586 -1.398,3.953 -1.851,5.258 -0.45,1.308 -1.211,3.187 -1.692,4.179 -1.133,2.332 -5.461,7.918 -7.094,9.157 -0.699,0.527 -1.652,1.316 -2.117,1.753 -0.469,0.438 -2.496,1.817 -4.508,3.067 -4.058,2.523 -5.214,2.769 -7.14,1.539 -1.438,-0.918 -2.133,-2.293 -2.133,-4.223 0,-1.824 0.469,-2.562 3.035,-4.773 1.567,-1.348 2.387,-1.785 3.93,-2.098 8.883,-1.785 10.859,-2.574 12.105,-4.844 0.485,-0.882 1.371,-2.156 1.977,-2.824 1.258,-1.406 2.801,-6.265 4.34,-13.695 0.828,-4 0.902,-4.949 0.746,-9.047 -0.332,-8.598 -2.121,-16.805 -4.485,-20.582 -0.48,-0.773 -1.875,-2.777 -3.089,-4.457 -2.055,-2.836 -2.442,-3.18 -5.426,-4.856 l -3.211,-1.808 -4.375,-0.016 c -4.121,-0.011 -4.469,0.039 -6.106,0.934 -1.914,1.043 -2.824,2.164 -3.48,4.273 -0.238,0.766 -0.992,2.254 -1.676,3.309 -2.976,4.578 -7.519,15.219 -8.844,20.711 -0.277,1.148 -0.754,3.105 -1.058,4.347 -0.305,1.247 -0.762,3.454 -1.012,4.911 -0.25,1.453 -0.711,3.156 -1.027,3.785 -0.313,0.629 -0.797,1.945 -1.071,2.926 -1.132,4.003 -5.793,11.808 -8.566,14.343 -1.168,1.067 -5.191,3.883 -6.617,4.633 -3.469,1.824 -12.778,3.36 -14.524,2.399 -1.539,-0.848 -1.289,-4.176 0.836,-11.239 0.637,-2.105 1.985,-6.57 2.996,-9.922 1.016,-3.351 2.028,-6.875 2.25,-7.832 0.223,-0.957 0.594,-2.129 0.825,-2.609 0.23,-0.48 1.507,-4.082 2.839,-8.008 1.332,-3.922 2.856,-7.84 3.383,-8.699 1.418,-2.316 2.66,-5.281 3.703,-8.844 0.848,-2.883 2.317,-6.883 4.039,-11 0.364,-0.859 0.969,-3.289 1.352,-5.394 0.379,-2.106 1.051,-5.317 1.488,-7.133 0.91,-3.774 1.739,-11.02 2.063,-18.016 0.172,-3.785 0.113,-5.191 -0.297,-6.703 -0.281,-1.051 -0.602,-2.851 -0.711,-4 -0.113,-1.23 -0.941,-4.191 -2.008,-7.187 -2.015,-5.668 -3.172,-7.512 -7.523,-12.02 -1.758,-1.816 -3.207,-2.93 -5.063,-3.894 -6.746,-3.5 -10.375,-3.993 -15.554,-2.118 -0.649,0.235 -1.782,0.637 -2.524,0.899 -1.996,0.695 -5.406,2.879 -7.129,4.562 -0.836,0.817 -1.715,1.485 -1.957,1.485 -0.629,0 -2.18,2.015 -2.18,2.832 0,0.383 -0.304,1.426 -0.671,2.324 -0.371,0.898 -0.817,2.336 -0.989,3.195 -0.175,0.864 -1.082,3.762 -2.007,6.442 -0.93,2.679 -1.778,5.422 -1.887,6.09 -0.285,1.789 -0.852,3.906 -1.254,4.695 -0.195,0.379 -0.473,1.629 -0.617,2.781 -0.141,1.152 -0.481,3.113 -0.75,4.359 -1.129,5.157 -1.352,13.829 -0.766,29.938 0.305,8.324 0.524,18.129 0.488,21.785 -0.035,3.652 0.036,6.809 0.157,7.008 0.347,0.582 -0.379,13.519 -0.946,16.875 -0.675,4.004 -1.574,6.398 -3.547,9.434 -2.003,3.082 -5.527,7.101 -7.269,8.285 -2.613,1.781 -5.363,3.359 -6.52,3.746 -0.656,0.219 -2.351,1.101 -3.773,1.961 -3.629,2.199 -4.359,2.144 -7.242,-0.547 -1.246,-1.16 -2.465,-2.274 -2.711,-2.477 -0.543,-0.441 -0.336,-1.441 0.863,-4.218 0.707,-1.649 1.438,-2.528 3.953,-4.766 3.422,-3.043 7.703,-7.981 8.77,-10.106 0.379,-0.757 1.082,-1.812 1.558,-2.339 1.418,-1.575 4.293,-7.711 4.629,-9.887 0.168,-1.082 0.551,-2.805 0.856,-3.828 1.293,-4.387 0.855,-12.672 -0.852,-16.067 -0.402,-0.804 -1.031,-2.062 -1.39,-2.797 -0.364,-0.73 -1.118,-1.593 -1.68,-1.914 -0.563,-0.316 -1.574,-1.031 -2.25,-1.582 -2.336,-1.902 -3.594,-2.289 -7.547,-2.297 -4.156,-0.007 -5.148,0.309 -7.207,2.29 -1.566,1.515 -3.863,3.054 -5.141,3.453 -0.465,0.144 -1.269,0.632 -1.793,1.086 -0.523,0.453 -1.097,0.824 -1.277,0.824 -0.18,0 -1.57,1.293 -3.09,2.871 -1.992,2.074 -3.078,3.547 -3.902,5.309 -0.633,1.339 -1.504,2.917 -1.934,3.511 -0.433,0.594 -0.785,1.199 -0.785,1.348 0,0.148 -0.664,1.699 -1.48,3.449 -0.813,1.746 -1.879,4.535 -2.364,6.192 -0.914,3.105 -1.496,4 -2.375,3.648 -0.429,-0.168 -0.508,-1.191 -0.508,-6.438 0,-10.535 -1.042,-13.968 -5.718,-18.855 -3.25,-3.398 -5.742,-4.891 -8.547,-5.125 -1.988,-0.164 -2.164,-0.117 -3.32,0.937 -0.676,0.61 -1.547,1.649 -1.938,2.309 -0.394,0.656 -1.09,1.289 -1.547,1.41 -0.988,0.254 -1.765,-0.429 -5.082,-4.484 -1.211,-1.485 -2.336,-2.695 -2.496,-2.695 -0.156,0 -1.121,-0.575 -2.137,-1.27 -1.277,-0.879 -2.336,-1.32 -3.441,-1.422 -3.816,-0.367 -9.781,2.059 -11.949,4.856 -0.594,0.765 -1.571,1.984 -2.172,2.703 -0.602,0.718 -1.094,1.398 -1.094,1.508 0,0.109 -0.441,0.875 -0.976,1.699 -1.708,2.613 -2.758,5.558 -3.434,9.59 -0.359,2.156 -0.793,4.296 -0.961,4.757 -0.172,0.465 -0.48,3.789 -0.688,7.395 -0.609,10.57 -2.828,19.215 -6.453,25.18 -1.617,2.656 -3.773,4.523 -5.222,4.523 -1.086,0 -2.293,-1.226 -3.157,-3.207 -0.746,-1.707 -0.804,-2.266 -0.804,-7.758 0,-3.734 0.152,-6.367 0.406,-7.133 0.73,-2.187 1.203,-9.964 0.973,-16.007 -0.196,-5.055 -0.336,-6.079 -1.188,-8.629 -1.094,-3.293 -2.055,-4.871 -4.836,-7.961 -1.445,-1.606 -2.363,-2.309 -3.531,-2.696 -2.953,-0.984 -3.914,-1.027 -5.621,-0.246 -0.91,0.414 -2.301,0.731 -3.238,0.731 -1.391,0 -1.696,0.121 -1.954,0.781 -0.171,0.43 -1.171,3.055 -2.222,5.832 -2.613,6.883 -4.996,11.852 -8.293,17.297 -1.531,2.527 -3.465,5.789 -4.297,7.25 -1.48,2.598 -2.625,3.648 -3.98,3.648 -0.938,0 -1.516,-0.843 -1.118,-1.628 0.18,-0.348 0.504,-2.985 0.715,-5.856 0.211,-2.871 0.543,-5.734 0.731,-6.363 0.578,-1.914 -0.735,-8.207 -2.411,-11.563 -1.476,-2.953 -6.375,-6.644 -9.699,-7.308 -1.043,-0.211 -2.793,-0.703 -3.883,-1.098 -3.375,-1.223 -4.851,-0.57 -9.832,4.367 -2.945,2.918 -3.179,3.258 -3.98,5.746 -2.102,6.555 -2.234,7.758 -2.523,23.352 -0.34,18.074 -0.442,18.824 -3.196,23.121 -1.758,2.738 -2.168,3.176 -3.074,3.266 -2.094,0.211 -3.98,-2.364 -5.563,-7.598 -0.695,-2.309 -0.785,-3.285 -0.789,-8.691 0,-3.852 0.219,-7.825 0.594,-10.793 1.426,-11.231 1.41,-21.641 -0.039,-24.18 -1.371,-2.402 -4.18,-5.699 -5.719,-6.703 -2.269,-1.485 -4.582,-1.918 -9.476,-1.782 l -4.215,0.122 -1.797,1.566 c -1.898,1.652 -4.254,4.613 -5.223,6.555 -1.578,3.183 -2.007,12.543 -1.035,22.683 0.547,5.68 0.629,13.391 0.172,15.489 -0.168,0.765 -0.465,2.16 -0.66,3.101 -0.758,3.68 -5.367,8.902 -7.855,8.906 -1.747,0 -2.461,-0.464 -2.922,-1.91 -0.481,-1.504 -0.512,-9.558 -0.051,-12.883 0.957,-6.918 0.781,-21.929 -0.324,-27.671 -0.942,-4.872 -3.575,-8.278 -8.77,-11.348 -4.832,-2.86 -8.969,-3.645 -11.906,-2.262 -2.328,1.094 -6.195,6.293 -6.195,8.328 0,0.364 -0.454,1.582 -1.008,2.711 -0.555,1.125 -1.25,3.145 -1.543,4.485 -0.297,1.339 -0.789,3.14 -1.094,4.003 -0.488,1.375 -0.57,4.051 -0.672,21.754 -0.168,29.09 0.27,33.887 3.879,42.469 1.941,4.613 2.18,5.024 4.461,7.586 4.633,5.203 5.25,5.695 8.066,6.484 1.5,0.418 3.614,0.723 5.032,0.723 3.429,0 8.769,-0.691 9.879,-1.277 3.242,-1.707 7.515,-5.141 11.265,-9.047 3.965,-4.125 4.184,-4.297 5.531,-4.297 1.723,0 4.793,1.805 8,4.695 2.969,2.676 5.836,4.614 7.516,5.086 1.652,0.461 5.731,0.242 7.004,-0.379 0.492,-0.238 1.371,-1.199 1.957,-2.136 0.59,-0.938 1.457,-1.977 1.934,-2.309 0.476,-0.332 1.898,-1.605 3.16,-2.828 1.937,-1.879 2.375,-2.16 2.808,-1.789 0.305,0.262 0.516,1.023 0.52,1.879 0.008,1.836 1.027,4.156 2.43,5.539 2.32,2.293 8.097,4.426 11.988,4.426 2.129,0 6.691,-1.508 8.226,-2.723 3.246,-2.566 5.926,-6.731 6.93,-10.77 0.848,-3.41 2.707,-9.043 3.867,-11.707 1.043,-2.394 2.387,-4.523 4.496,-7.117 1.805,-2.219 2.817,-2.808 3.625,-2.117 0.481,0.414 0.524,0.938 0.317,3.793 -0.129,1.824 -0.231,3.863 -0.223,4.535 0.012,0.668 -0.191,1.844 -0.449,2.61 -1.477,4.371 -0.625,13.562 1.695,18.32 1.164,2.387 4.27,4.703 6.738,5.023 3.75,0.485 5.266,0.09 10.895,-2.828 2.867,-1.484 6.195,-3.332 7.398,-4.105 4.543,-2.918 11.055,-8.278 14.215,-11.696 2.867,-3.105 3.364,-3.496 4.391,-3.496 1.418,0 1.773,0.414 2.246,2.625 0.688,3.199 2.012,7.285 2.777,8.574 1.555,2.622 5.953,5.848 9.153,6.711 2.535,0.684 4.3,0.684 6.531,-0.003 0.969,-0.297 2.32,-0.493 3.004,-0.434 l 1.238,0.105 0.11,2.438 c 0.082,1.808 -0.118,3.332 -0.782,5.918 -0.492,1.914 -1.031,4.039 -1.199,4.726 -0.402,1.641 -2.504,4.957 -4.449,7.02 -1.488,1.582 -1.641,1.652 -3.43,1.652 -2.687,0 -3.855,-0.644 -7.398,-4.078 -5.657,-5.484 -6.075,-5.726 -10.094,-5.777 -1.934,-0.028 -2.988,0.129 -3.746,0.551 -1.66,0.918 -4.723,4.707 -6.063,7.496 -2.125,4.429 -1.816,5.812 4.18,18.84 1.309,2.843 1.93,3.714 4.637,6.492 2.285,2.347 3.703,3.488 5.254,4.242 3.433,1.668 3.742,1.824 5.14,2.574 0.731,0.395 2.246,0.922 3.364,1.172 2.769,0.625 9.597,0.625 12.144,0.004 1.981,-0.484 5.664,-2.293 7.715,-3.789 1.801,-1.317 5.019,-4.508 6.055,-6.004 0.554,-0.805 1.414,-1.984 1.91,-2.629 0.961,-1.25 2.629,-5.937 2.629,-7.394 0,-0.485 0.3,-1.665 0.664,-2.622 1.211,-3.183 3.164,-17.726 3.707,-27.621 0.344,-6.246 1.39,-14.523 2.855,-22.531 0.442,-2.391 0.895,-5.055 1.008,-5.918 0.524,-3.926 1.254,-8.152 1.547,-8.945 0.176,-0.481 0.555,-2.371 0.84,-4.199 0.554,-3.586 0.918,-4.606 1.629,-4.606 1.074,0 1.449,1.516 1.636,6.617 0.204,5.59 0.961,9.254 2.368,11.453 0.461,0.719 1.386,2.438 2.058,3.825 0.942,1.925 1.922,3.207 4.192,5.453 3.832,3.797 6.257,5.125 11.097,6.066 2.086,0.403 4.637,-0.113 10.973,-2.219 2.031,-0.675 6.34,-1.796 9.578,-2.488 7.773,-1.656 9.25,-2.125 10.578,-3.328 0.613,-0.559 1.992,-1.43 3.067,-1.937 1.246,-0.594 3.031,-1.973 4.953,-3.833 3.578,-3.464 4.242,-3.734 5.726,-2.316 1.703,1.625 4.864,3.941 5.387,3.941 0.527,0 2.187,0.668 4.762,1.918 0.925,0.446 2.367,0.918 3.199,1.047 0.832,0.129 1.891,0.489 2.351,0.797 0.665,0.442 2.016,0.59 6.391,0.699 l 5.551,0.133 4.207,-1.738 c 2.312,-0.957 4.883,-1.93 5.715,-2.156 0.832,-0.231 2.355,-0.946 3.386,-1.59 3.579,-2.242 5.375,-2.934 7.618,-2.938 1.855,0 2.222,-0.121 3.281,-1.086 1.484,-1.347 1.891,-1.089 3.273,2.063 1.446,3.289 5.524,7.137 11.536,10.883 l 3.027,1.886 3.531,-0.05 c 5.434,-0.082 10.352,-1.688 13.477,-4.403 0.668,-0.582 2.34,-1.715 3.707,-2.515 1.672,-0.973 2.879,-1.989 3.668,-3.071 1.539,-2.117 2.207,-2.097 4.265,0.141 2.207,2.395 2.91,2.711 6.907,3.125 1.902,0.195 4.484,0.508 5.738,0.691 1.25,0.188 3.156,0.34 4.234,0.34 1.867,0 6.215,-0.949 8.219,-1.793 0.883,-0.371 3.609,-3.816 5.195,-6.562 2.16,-3.738 4.078,-11.399 3.629,-14.492 -0.355,-2.465 0.348,-4.125 2.613,-6.164 1.098,-0.985 2.957,-2.696 4.133,-3.797 1.176,-1.098 2.442,-2 2.813,-2 1.375,0 2.031,1.816 3.074,8.472 0.609,3.907 0.652,4.903 0.332,7.934 -0.199,1.902 -0.363,5.144 -0.363,7.203 v 3.746 l 1.765,3.07 c 1.641,2.856 1.899,3.125 3.618,3.887 2.632,1.16 4.863,1.106 7.734,-0.199 1.266,-0.574 2.402,-1.047 2.531,-1.047 0.125,0 0.692,-0.398 1.258,-0.891 1.281,-1.117 5.527,-3.332 7.984,-4.16 1.016,-0.347 3.2,-1.308 4.852,-2.136 4.891,-2.461 6.445,-2.004 6.98,2.05 0.325,2.43 0.891,3.414 4.032,7.012 l 2.093,2.395 2.786,-0.18 c 4.035,-0.262 4.718,-0.832 8.925,-7.395 2.86,-4.461 4.489,-9.636 4.828,-15.32 0.219,-3.664 0.332,-4.226 1.02,-4.937 1.602,-1.653 5.645,-0.825 9.449,1.937 1.09,0.789 2.184,1.438 2.43,1.438 0.59,0 4.187,2.273 4.777,3.019 0.258,0.32 1.715,1.418 3.242,2.442 1.532,1.023 3.348,2.382 4.036,3.027 1.918,1.781 6.523,4.926 9.898,6.754 1.664,0.902 3.508,1.918 4.09,2.261 0.875,0.512 1.652,0.594 4.426,0.481 1.847,-0.074 3.816,-0.254 4.371,-0.398 1.078,-0.282 4.656,-3.649 6.261,-5.891 1.157,-1.617 1.204,-2.535 0.262,-5.082 -0.519,-1.41 -0.656,-2.356 -0.515,-3.606 0.144,-1.281 0.031,-2.011 -0.469,-3.031 -0.363,-0.738 -0.66,-1.562 -0.66,-1.836 0,-0.691 -2.672,-2.883 -4.512,-3.699 -0.848,-0.375 -2.856,-1.578 -4.461,-2.672 -2.836,-1.93 -4.73,-2.863 -5.891,-2.894 -1.312,-0.036 -7.058,-2.223 -8.32,-3.164 -1.066,-0.801 -1.769,-1.86 -3.219,-4.852 -1.019,-2.102 -1.851,-4.113 -1.851,-4.473 0,-1.465 2.265,-4.91 5.777,-8.781 2.024,-2.227 4.234,-4.898 4.906,-5.93 2.239,-3.433 6.785,-12.824 7.289,-15.047 0.266,-1.179 0.723,-2.832 1.012,-3.671 0.285,-0.836 0.524,-2.2 0.524,-3.032 0,-0.832 0.316,-2.336 0.699,-3.351 0.621,-1.621 0.691,-2.418 0.59,-6.742 -0.11,-4.797 -0.133,-4.938 -1.121,-6.414 -1.5,-2.247 -4.973,-5.047 -8.579,-6.918 -3.629,-1.883 -6.113,-2.606 -10.929,-3.184 l -3.364,-0.406 -2.421,1.078 c -1.329,0.594 -2.672,1.078 -2.985,1.078 -0.312,0 -1.379,0.48 -2.371,1.07 -1.117,0.66 -2.152,1.024 -2.73,0.957 l -0.93,-0.113 0.117,-12.008 c 0.125,-12.547 -0.414,-32.886 -0.976,-37.07 -0.332,-2.449 -1.047,-4.93 -2.262,-7.832 -0.992,-2.367 -6.016,-7.902 -8.246,-9.09 -0.407,-0.215 -1.149,-0.785 -1.649,-1.269 -0.8,-0.774 -1.277,-0.895 -4.082,-1.043 -0.511,-0.032 -1.008,-0.043 -1.488,-0.036 z m -0.031,6.278 c 0.472,0.015 1.101,0.097 2.054,0.238 5.747,0.84 8.192,3.938 9.68,12.23 0.629,3.516 0.738,5.735 0.902,18.161 0.114,8.863 0.043,16.605 -0.199,20.711 -0.351,6.023 -0.324,7.093 0.348,13.168 0.402,3.64 0.746,7.527 0.758,8.644 0.027,1.883 0.121,2.113 1.285,3.219 1.039,0.984 1.519,1.191 2.758,1.191 1.773,0 2.117,-0.394 3.41,-3.894 1.668,-4.516 5.14,-7.309 10.57,-8.496 6.09,-1.336 12.992,0.5 15.61,4.148 0.617,0.859 0.718,1.563 0.816,5.699 0.098,4.246 0.027,4.996 -0.738,7.543 -0.465,1.559 -0.95,3.696 -1.078,4.746 -0.25,2.094 -1.301,5.785 -1.833,6.446 -0.367,0.457 -1.742,3.031 -2.785,5.214 -0.367,0.766 -1.754,2.571 -3.082,4.004 -3.593,3.883 -7.925,8.989 -9.351,11.016 -2.34,3.324 -2.77,5.5 -1.727,8.727 0.785,2.425 4.809,10.656 5.41,11.062 0.282,0.191 1.032,0.766 1.668,1.277 1.469,1.188 5.559,2.954 8.465,3.661 4.524,1.101 9.77,3.57 12.688,5.968 0.843,0.696 1.023,1.141 1.238,3.133 0.141,1.277 0.351,3.121 0.465,4.098 0.398,3.402 -1.035,4.484 -5.918,4.465 -3.559,-0.016 -5.332,-0.61 -7.418,-2.485 -1.68,-1.511 -3.379,-2.656 -7.688,-5.183 -1.554,-0.914 -3.465,-2.219 -4.25,-2.903 -3.73,-3.25 -9.804,-7.488 -15.832,-11.047 -1.933,-1.14 -4.968,-1.679 -6.601,-1.175 -1.61,0.5 -3.399,2.113 -4.496,4.05 -0.657,1.165 -0.918,2.274 -1.153,4.915 -0.164,1.875 -0.363,4.117 -0.441,4.976 -0.18,2.035 -0.836,3.824 -3.18,8.645 -2.383,4.898 -4.148,7.019 -5.847,7.019 -0.688,0 -1.559,-0.297 -2.059,-0.703 -0.844,-0.691 -2.25,-3.922 -2.25,-5.176 0,-0.347 -0.379,-1.367 -0.844,-2.269 -0.461,-0.899 -0.84,-1.844 -0.84,-2.102 0,-0.57 -1.972,-2.406 -3.402,-3.172 -0.648,-0.347 -1.375,-0.472 -1.93,-0.328 -1.449,0.375 -6.558,2.684 -7.211,3.258 -0.675,0.598 -1.203,0.824 -6.523,2.793 -2.07,0.766 -4.531,1.937 -5.469,2.609 -3.625,2.578 -7.902,3.453 -8.933,1.828 -0.774,-1.222 -0.985,-4.046 -0.524,-6.996 0.613,-3.941 -0.387,-13.34 -2,-18.734 -0.805,-2.703 -3.172,-6.164 -5.207,-7.625 -1.246,-0.891 -1.457,-0.934 -2.777,-0.578 -0.785,0.211 -2.071,0.961 -2.86,1.672 -0.785,0.707 -2.711,2.297 -4.277,3.527 -1.566,1.227 -3.422,2.797 -4.121,3.484 l -1.27,1.254 v 5.082 c 0,4.512 -0.101,5.407 -0.882,7.973 -0.485,1.59 -1.235,3.621 -1.672,4.512 -1.082,2.218 -4.297,5.738 -5.621,6.16 -2.34,0.746 -5.578,1.105 -7.024,0.785 -0.797,-0.18 -2.586,-0.434 -3.972,-0.57 -2.649,-0.258 -4.782,-0.942 -5.852,-1.871 -0.352,-0.305 -1.137,-1.676 -1.742,-3.043 -0.606,-1.368 -1.266,-2.594 -1.465,-2.719 -0.195,-0.129 -0.359,-0.539 -0.359,-0.918 0,-0.832 -0.715,-1.164 -1.868,-0.863 -0.484,0.125 -2.625,2.109 -4.906,4.539 -2.222,2.379 -4.828,4.933 -5.781,5.683 -2.41,1.891 -9.219,4.692 -11.859,4.875 -2.243,0.157 -6.618,-0.644 -8.223,-1.504 -1.563,-0.836 -5.652,-4.992 -6.293,-6.394 -0.684,-1.5 -6.957,-7.981 -7.984,-8.25 -0.485,-0.125 -2.915,0.949 -7.497,3.308 -3.73,1.918 -7.203,3.583 -7.718,3.7 -0.516,0.113 -2.145,0.656 -3.625,1.207 -1.481,0.551 -4.184,1.426 -6.012,1.941 -2.98,0.844 -3.695,0.922 -7.063,0.75 -2.058,-0.105 -4.347,-0.422 -5.089,-0.699 -0.739,-0.277 -1.95,-0.668 -2.692,-0.867 -0.738,-0.199 -2.554,-0.844 -4.035,-1.434 -2.207,-0.879 -2.98,-1.398 -4.297,-2.906 -0.883,-1.012 -2.246,-2.567 -3.027,-3.461 -2.063,-2.359 -2.703,-2.414 -5.402,-0.465 -1.227,0.887 -2.493,2.078 -2.817,2.645 -0.75,1.308 -3.566,3.5 -6.492,5.043 -1.25,0.66 -2.441,1.406 -2.649,1.664 -0.773,0.965 -5,2.625 -8.05,3.16 -1.723,0.305 -3.996,0.871 -5.047,1.262 -1.047,0.394 -2.512,0.851 -3.254,1.019 -0.738,0.168 -1.797,0.539 -2.352,0.82 -0.554,0.282 -1.918,0.903 -3.027,1.375 -2.297,0.981 -7.816,1.489 -10.039,0.918 -3.203,-0.816 -6.219,-4.328 -9.219,-10.726 l -1.851,-3.961 -0.274,-6.133 c -0.379,-8.457 -0.375,-15.414 0.008,-17.18 0.176,-0.816 0.574,-2.738 0.879,-4.269 0.309,-1.531 0.836,-3.492 1.176,-4.352 0.336,-0.863 0.785,-2.191 0.996,-2.957 1.512,-5.449 3.984,-12.054 5.215,-13.926 0.757,-1.148 1.816,-2.925 2.351,-3.949 0.629,-1.199 1.52,-2.242 2.504,-2.929 0.84,-0.59 2.078,-1.579 2.75,-2.196 0.672,-0.617 1.582,-1.238 2.016,-1.379 0.437,-0.14 1.343,-0.742 2.011,-1.34 0.672,-0.597 2.329,-1.921 3.688,-2.945 l 2.469,-1.855 3.097,0.117 c 3.512,0.133 4.121,0.492 5.789,3.426 0.872,1.523 0.895,1.707 0.844,6.882 -0.047,4.887 -0.137,5.606 -1.105,8.875 -1.457,4.911 -3.063,8.032 -7.66,14.879 -0.711,1.055 -2.348,2.911 -3.637,4.118 -6.778,6.339 -7.606,7.668 -7.832,12.554 -0.168,3.653 0.222,5.254 1.875,7.707 1.304,1.934 1.664,2.184 6.097,4.18 l 2.485,1.121 3.273,-0.434 c 1.801,-0.234 4.317,-0.812 5.59,-1.277 1.27,-0.469 2.996,-1.058 3.832,-1.308 2.578,-0.774 6.86,-3.614 10.031,-6.653 2.676,-2.562 6.442,-7.972 7.36,-10.57 3.152,-8.938 3.539,-16.578 2.476,-48.777 -0.578,-17.528 -0.172,-31.137 1.118,-37.247 3.046,-14.472 5.601,-22.464 8.375,-26.218 0.683,-0.926 1.238,-1.809 1.238,-1.961 0,-0.453 6.008,-4.516 6.996,-4.731 0.5,-0.109 1.406,-0.425 2.016,-0.699 1.886,-0.859 5.558,-0.633 8.761,0.535 3.485,1.27 5.762,3.024 6.977,5.367 0.504,0.977 1.219,2.219 1.582,2.762 1.32,1.965 2.961,6.672 3.769,10.805 0.789,4.039 0.813,4.488 0.496,10.484 -0.179,3.449 -0.543,7.363 -0.804,8.703 -0.262,1.34 -0.567,3.219 -0.672,4.176 -0.109,0.957 -0.442,2.84 -0.742,4.18 -2.094,9.402 -2.649,11.367 -4.371,15.441 -1.028,2.418 -2.664,6.617 -3.645,9.324 -0.98,2.711 -2.234,5.922 -2.785,7.137 -0.551,1.215 -1.418,3.539 -1.934,5.168 -0.515,1.629 -1.277,3.664 -1.691,4.524 -0.414,0.863 -0.863,2.117 -1,2.785 -0.137,0.672 -1.152,3.961 -2.258,7.312 -1.101,3.348 -2.195,6.875 -2.426,7.832 -0.226,0.957 -0.492,1.973 -0.586,2.262 -0.097,0.285 -0.429,1.305 -0.746,2.262 -0.312,0.957 -1.121,3.386 -1.793,5.394 -1.105,3.309 -1.222,4.024 -1.246,7.5 -0.027,3.719 0.012,3.926 1.129,6.207 1.281,2.617 2.086,3.219 5.582,4.196 5.559,1.554 13.028,0.914 17.813,-1.524 6.746,-3.437 15.226,-12.855 17.566,-19.512 0.781,-2.211 1.086,-3.468 2.934,-12.007 1.816,-8.391 7.582,-23.93 9.55,-25.727 0.399,-0.363 0.727,-0.848 0.727,-1.078 0,-0.231 0.746,-1.442 1.664,-2.692 2.199,-3.007 3.645,-3.746 7.328,-3.746 h 2.723 l 1.898,1.797 c 2.039,1.926 2.961,3.543 4.75,8.344 1.649,4.414 2.211,8.742 2.285,17.531 0.036,4.375 0.004,4.582 -0.918,6.203 -0.523,0.922 -1.246,2.774 -1.605,4.118 -0.965,3.593 -2.359,6.187 -4.176,7.742 -1.429,1.226 -1.961,1.429 -5.664,2.179 -5.832,1.18 -8.277,2.219 -10.687,4.551 -2.008,1.942 -2.387,2.641 -3.145,5.77 -0.539,2.234 -0.543,2.543 0.004,5.398 0.586,3.082 0.887,3.836 2.383,5.981 1.426,2.047 1.91,2.476 3.98,3.562 2.352,1.227 5.137,1.598 7.473,0.988 4.816,-1.253 12.492,-6.933 15.738,-11.64 0.813,-1.18 2.383,-3.945 3.485,-6.141 1.101,-2.199 2.242,-4.465 2.535,-5.039 1.699,-3.344 3.703,-8.625 4.14,-10.922 0.719,-3.777 1.743,-7.621 2.52,-9.441 0.367,-0.863 0.961,-3.25 1.32,-5.305 0.36,-2.058 0.977,-4.562 1.367,-5.57 0.418,-1.063 0.825,-3.145 0.973,-4.965 0.219,-2.73 0.5,-3.723 2.168,-7.719 1.84,-4.406 2,-4.66 4.145,-6.527 1.226,-1.066 2.554,-1.938 2.949,-1.938 1.305,0 3.375,1.914 4.398,4.063 l 0.961,2.027 -0.082,7.985 c -0.058,5.746 -0.222,8.554 -0.586,10.035 -0.672,2.711 -0.644,3.664 0.164,5.301 0.367,0.75 0.672,1.554 0.672,1.785 0,0.547 1.77,2.074 3.395,2.933 1.457,0.77 4.453,0.903 7.406,0.325 3.098,-0.602 5.269,-1.957 8.43,-5.25 2.613,-2.723 3.113,-3.469 4.82,-7.161 1.047,-2.265 2.246,-4.589 2.668,-5.164 0.422,-0.574 1.238,-2.007 1.812,-3.187 1.297,-2.66 4.493,-6.285 6.282,-7.125 1.652,-0.781 3.804,-0.832 4.797,-0.113 1.359,0.988 1.929,3.902 1.929,9.906 0,4.461 -0.117,5.726 -0.656,7.308 -0.438,1.274 -0.676,2.965 -0.715,5.047 -0.031,1.723 -0.293,3.938 -0.578,4.922 -0.285,0.985 -0.625,3.883 -0.754,6.442 -0.195,3.851 -0.137,5.066 0.352,7.085 0.871,3.59 1.918,5.426 4.035,7.047 3.422,2.625 7.031,2.813 11.476,0.598 2.723,-1.355 4.516,-3.051 7.348,-6.949 1.641,-2.258 1.945,-2.992 3.527,-8.528 1.7,-5.953 2.133,-16.117 1.008,-23.671 -0.398,-2.692 -0.933,-13.079 -1.316,-25.582 -0.153,-4.977 -0.438,-11.399 -0.637,-14.274 -0.82,-11.867 -0.641,-39.441 0.297,-45.25 0.707,-4.379 2.453,-7.898 4.609,-9.273 0.68,-0.438 1.028,-0.61 1.817,-0.586 z M 65.438,259.422 c -1.774,0.012 -3.336,0.133 -4.239,0.351 -0.832,0.204 -2.195,0.415 -3.027,0.473 -0.832,0.055 -2.496,0.285 -3.699,0.516 -1.328,0.254 -3.336,0.332 -5.11,0.199 l -2.918,-0.219 -1.254,1.141 c -2.132,1.937 -3.043,4.875 -1.992,6.426 0.418,0.617 0.473,2.039 0.344,8.695 -0.172,8.891 0.582,32.027 1.402,42.937 0.688,9.161 0.965,27.973 0.469,31.789 -0.336,2.583 -0.312,2.918 0.258,3.708 0.394,0.546 1.113,0.957 1.937,1.105 0.723,0.133 1.993,0.559 2.825,0.953 1.816,0.859 1.8,0.859 11.773,0.195 4.348,-0.289 8.988,-0.425 10.316,-0.304 2.86,0.265 3.614,-0.121 4.653,-2.371 0.527,-1.145 0.906,-1.508 1.762,-1.688 0.601,-0.129 1.32,-0.426 1.597,-0.668 0.602,-0.515 0.653,-2.621 0.121,-4.875 -0.203,-0.863 -0.398,-5.312 -0.433,-9.918 -0.039,-4.594 -0.258,-13.523 -0.493,-19.844 -0.347,-9.492 -0.343,-40.398 0.012,-48.035 0.094,-2.047 -0.59,-5.273 -1.351,-6.383 -0.368,-0.531 -1.621,-1.562 -2.793,-2.292 -1.711,-1.067 -2.618,-1.379 -4.645,-1.614 -1.75,-0.199 -3.738,-0.293 -5.515,-0.277 z m -1.75,7.078 c 0.351,-0.008 0.73,0.051 1.164,0.176 0.671,0.191 2.152,0.351 3.289,0.355 1.492,0 2.273,0.176 2.82,0.633 0.746,0.625 0.758,0.789 1.059,12.965 0.304,12.195 0.156,19.449 -0.422,20.57 -0.196,0.371 -0.125,1.02 0.199,1.817 0.777,1.922 0.664,6.257 -0.199,7.851 -0.614,1.129 -0.657,1.477 -0.328,2.731 0.207,0.793 0.519,1.535 0.699,1.648 0.547,0.348 0.386,5.57 -0.215,7.129 -0.449,1.164 -0.473,1.582 -0.129,2.438 0.227,0.566 0.316,1.292 0.199,1.609 -0.121,0.32 0.016,0.844 0.305,1.176 0.516,0.586 0.379,1.742 -0.203,1.742 -0.598,0 -0.285,0.965 0.371,1.144 0.797,0.215 0.875,1.493 0.207,3.418 -0.356,1.039 -0.356,1.371 0.016,1.895 0.636,0.902 0.558,1.808 -0.223,2.5 -0.879,0.777 -0.852,1.762 0.078,2.785 0.652,0.719 0.766,1.289 0.875,4.422 0.191,5.285 0.73,4.969 -9.867,5.75 -6.406,0.469 -12.168,0.473 -12.449,0.004 -0.118,-0.195 -0.2,-5.719 -0.18,-12.27 0.016,-6.55 -0.117,-14.261 -0.301,-17.133 -0.41,-6.484 -1.183,-27.007 -1.09,-28.89 0.039,-0.766 0.063,-5.918 0.047,-11.449 -0.015,-5.528 0.07,-10.664 0.195,-11.411 0.344,-2.125 1.024,-2.39 6.95,-2.707 2.832,-0.152 5.582,-0.457 6.109,-0.675 0.34,-0.141 0.668,-0.215 1.024,-0.223 z m 506.343,4.027 -1.308,0.688 c -0.715,0.379 -1.731,0.691 -2.25,0.691 -1.442,0 -2.301,0.836 -2.934,2.86 -0.316,1.011 -1.012,2.254 -1.543,2.761 -0.531,0.508 -1.055,1.371 -1.164,1.914 -0.113,0.547 -0.82,2.637 -1.574,4.645 -1.688,4.508 -2.559,8.75 -2.817,13.75 -0.109,2.105 -0.347,4.641 -0.527,5.637 -0.387,2.105 0.211,24.902 0.731,27.945 0.269,1.582 0.593,2.187 1.91,3.566 1.101,1.161 1.851,1.664 2.476,1.664 1.149,0 1.512,-0.503 1.762,-2.437 0.309,-2.414 3.191,-9.57 6.875,-17.055 1.836,-3.734 3.836,-8.355 4.441,-10.269 0.606,-1.914 2.028,-5.91 3.161,-8.875 l 2.058,-5.395 -0.015,-5.918 c -0.012,-6.754 -0.2,-7.543 -2.629,-11.058 -1.918,-2.778 -2.664,-3.45 -4.864,-4.368 z m 0.699,7.422 c 0.543,0.051 1.106,0.344 1.743,0.875 0.73,0.614 0.8,0.973 0.918,4.477 0.144,4.347 -0.438,7.355 -2.649,13.664 -0.707,2.012 -1.762,5.301 -2.351,7.312 -0.586,2.008 -1.336,4.203 -1.661,4.871 -0.324,0.672 -1.289,2.668 -2.148,4.442 -1.535,3.16 -2.102,3.699 -2.879,2.73 -0.57,-0.711 -0.265,-20.726 0.32,-21.101 0.594,-0.379 1.321,-2.711 1.329,-4.246 0.003,-0.715 0.308,-1.813 0.675,-2.438 0.371,-0.629 0.672,-1.519 0.672,-1.984 0,-0.465 0.258,-1.137 0.574,-1.492 0.809,-0.93 1.438,-2.985 1.442,-4.739 0.004,-1.343 0.074,-1.476 0.68,-1.281 0.425,0.141 1.046,-0.055 1.695,-0.531 0.57,-0.422 1.098,-0.61 1.64,-0.559 z m 197.672,43.531 c -0.097,0.008 -0.191,0.024 -0.285,0.043 -2.226,0.508 -11.992,11.04 -12.707,13.707 -0.648,2.422 -0.801,7.407 -0.262,8.727 0.743,1.828 2.145,3.375 4.43,4.891 2.879,1.91 3.485,1.836 7.473,-0.918 3.804,-2.621 4.941,-3.653 5.914,-5.364 0.379,-0.671 1.348,-2.238 2.152,-3.484 2.34,-3.621 3.156,-8.965 1.785,-11.664 -1.113,-2.18 -2.539,-3.496 -5.273,-4.855 -1.664,-0.829 -2.543,-1.133 -3.227,-1.083 z m 2.059,6.532 c 0.309,0.062 0.789,0.527 1.062,1.031 0.469,0.871 0.411,1.117 -1.101,4.52 -2.113,4.742 -5,8.835 -6.984,9.894 -1.911,1.023 -2.985,0.258 -2.985,-2.129 0,-3.07 0.957,-4.723 5.367,-9.246 2.563,-2.633 4.285,-4.141 4.641,-4.07 z m -320.223,0.015 c 0.2,-0.007 0.383,-0.004 0.555,0.004 1.121,0.071 1.602,0.551 2.195,1.645 0.422,0.769 0.957,1.402 1.196,1.402 0.425,0 3.5,3.254 5.41,5.731 3.547,4.597 4.91,4.718 6.789,0.609 0.922,-2.02 3.078,-4.602 3.84,-4.598 0.715,0.004 5.711,3.532 6.425,4.539 1.633,2.293 1.875,12.746 0.52,22.438 -1.129,8.082 -1.84,13.828 -2.105,17.055 -0.266,3.234 -1.778,12.273 -2.184,13.058 -0.418,0.809 -2.184,10.059 -2.691,14.09 -0.215,1.723 -0.54,3.918 -0.719,4.875 -0.844,4.461 -1.41,10.426 -2.278,24.016 -0.183,2.875 -0.55,6.32 -0.816,7.66 -0.266,1.34 -0.586,3.453 -0.711,4.699 -0.129,1.242 -0.445,3.121 -0.703,4.176 -0.258,1.054 -0.797,3.324 -1.199,5.047 -0.848,3.617 -1.961,6.093 -4.09,9.082 -3.074,4.316 -6.258,6.433 -12.481,8.3 -3.664,1.098 -5.855,1.098 -9.703,0.008 -4.722,-1.34 -9.664,-4.328 -11.261,-6.804 -0.516,-0.801 -1.204,-1.864 -1.528,-2.364 -0.32,-0.5 -1.281,-2.629 -2.133,-4.722 -1.457,-3.586 -1.539,-3.969 -1.429,-6.45 0.105,-2.418 0.222,-2.785 1.402,-4.449 1.582,-2.234 2.906,-3.238 4.531,-3.449 1.77,-0.227 4.856,1.758 8.309,5.34 3.211,3.332 5.973,4.988 8.332,4.988 2.078,0 5.562,-1.168 7.246,-2.43 1.77,-1.328 2.734,-2.847 4.617,-7.277 2.766,-6.5 3.219,-8.66 3.563,-16.922 0.168,-4.023 0.39,-8.062 0.5,-8.98 0.195,-1.653 0.179,-1.692 -1.637,-3.571 -2.371,-2.453 -2.895,-2.445 -5.66,0.063 -2.945,2.668 -4.492,3.332 -8.231,3.535 -2.351,0.125 -3.285,0.039 -4.066,-0.379 -1.336,-0.715 -3.016,-3.996 -3.441,-6.719 -0.395,-2.535 -3.375,-9.113 -4.497,-9.929 -2.867,-2.078 -3.464,-2.391 -4.601,-2.391 -1.488,0 -2.293,0.52 -4.906,3.164 -7.317,7.403 -15.438,13.594 -22.368,17.047 -6.593,3.285 -6.382,3.211 -8.39,2.996 -2.336,-0.246 -3.567,-1.441 -3.238,-3.144 0.117,-0.602 -0.024,-1.762 -0.325,-2.703 -0.476,-1.481 -0.48,-1.977 -0.031,-4.891 0.809,-5.254 1.328,-10.586 1.133,-11.637 -0.098,-0.539 0.07,-2.082 0.375,-3.426 0.305,-1.347 0.555,-3.757 0.555,-5.355 0,-3.418 -0.36,-3.914 -3.356,-4.609 -2.168,-0.5 -2.738,-0.313 -6.734,2.214 -7.598,4.805 -11.942,9.899 -11.942,14.004 0,0.953 -1.625,5.981 -3.988,12.321 -1.644,4.414 -4.004,6.535 -8.625,7.742 -2.621,0.683 -6.832,-0.434 -7.519,-2 -0.446,-1.012 -0.485,-5.883 -0.063,-8.137 0.297,-1.609 0.195,-1.93 -1.617,-5.055 -0.742,-1.277 -2.188,-1.898 -3.012,-1.296 -0.312,0.23 -1.43,0.886 -2.484,1.46 -1.344,0.731 -2.516,1.793 -3.946,3.571 -3.136,3.898 -4.468,5.226 -7.183,7.168 -2.063,1.468 -4.762,2.359 -6.106,2.011 -0.445,-0.113 -2.144,-1.398 -3.777,-2.851 -4.312,-3.836 -7.18,-6.004 -8.519,-6.442 -0.649,-0.214 -2.192,-0.859 -3.43,-1.437 -1.426,-0.664 -2.535,-0.977 -3.028,-0.848 -0.48,0.125 -1.738,1.563 -3.296,3.77 -3.032,4.281 -5.942,7.34 -8.543,8.988 -1.059,0.672 -2.696,1.723 -3.641,2.34 -2.055,1.34 -3.59,1.617 -7.918,1.43 -2.937,-0.125 -3.496,-0.262 -5.383,-1.309 -1.16,-0.644 -2.633,-1.769 -3.273,-2.504 -2.344,-2.683 -4.828,-8.969 -5.789,-14.64 -0.473,-2.805 -0.539,-6.286 -0.477,-25.821 0.055,-18.324 0.156,-22.758 0.528,-23.504 0.253,-0.507 0.617,-1.781 0.808,-2.828 0.457,-2.531 1.961,-6.605 2.77,-7.5 0.355,-0.394 0.648,-0.941 0.648,-1.219 0.008,-0.894 1.57,-3.96 2.441,-4.793 1.86,-1.769 4.704,-1.3 8.153,1.336 4.148,3.172 4.699,5.207 4.683,17.231 -0.007,5.586 -0.214,10.312 -0.625,14.269 -0.398,3.848 -0.554,7.332 -0.453,9.969 0.145,3.574 0.282,4.313 1.172,6.281 1.91,4.227 4.848,6.688 7.977,6.692 2.172,0 4.961,-0.891 7.277,-2.324 1.918,-1.188 4.848,-4.825 5.594,-6.95 2.722,-7.75 2.59,-7.156 2.597,-11.578 0,-2.301 -0.21,-9.082 -0.468,-15.078 -0.567,-12.976 -0.399,-15.008 1.554,-18.867 1.774,-3.5 2.735,-3.977 7.508,-3.731 4.715,0.247 5.137,0.45 6.442,3.114 l 1.066,2.187 -0.398,6.442 c -0.223,3.543 -0.61,7.613 -0.868,9.05 -1.226,6.868 -1.437,15.754 -0.55,23.149 0.347,2.906 1.785,6.34 3.996,9.543 3.523,5.117 5.258,6.328 9.39,6.574 l 2.422,0.141 1.957,-2.039 c 3.106,-3.227 3.887,-4.469 4.168,-6.602 0.137,-1.047 0.578,-2.562 0.985,-3.367 1.156,-2.289 1.371,-4.738 1.656,-18.695 0.308,-14.907 0.601,-17.372 2.648,-21.969 1.43,-3.223 4.082,-6.547 5.813,-7.289 0.89,-0.379 1.515,-0.36 3.957,0.129 3.18,0.632 4.047,1.14 5.668,3.328 1.457,1.969 1.91,3.793 1.418,5.695 -0.211,0.809 -0.293,2.164 -0.18,3.008 0.109,0.844 0.066,1.707 -0.094,1.918 -0.164,0.211 -0.379,0.933 -0.476,1.601 -0.094,0.672 -0.426,2.473 -0.735,4.004 -1.367,6.801 -1.367,6.973 -0.023,9.782 1.5,3.148 2.543,4.074 5.242,4.668 1.711,0.375 2.488,0.378 4.141,0.027 3.758,-0.805 5.074,-1.859 7.722,-6.172 0.84,-1.367 1.704,-2.602 1.918,-2.738 0.211,-0.137 0.664,-0.914 1,-1.731 0.34,-0.816 1.141,-2.195 1.778,-3.058 0.636,-0.867 2.73,-4.844 4.648,-8.836 3.395,-7.059 3.567,-7.336 6.293,-10.129 3.149,-3.219 3.985,-3.512 5.723,-2 1.512,1.316 2.101,3.305 2.504,8.41 0.359,4.57 0.097,8.879 -1.176,19.434 -0.688,5.714 -0.129,11.418 1.5,15.347 2.484,5.977 7.734,9.664 11.816,8.301 3.168,-1.062 6.633,-5.371 9.239,-11.496 2.441,-5.742 3.382,-10.047 4.261,-19.461 0.715,-7.656 1.137,-10.707 1.532,-11.117 0.175,-0.184 0.32,-0.824 0.32,-1.418 0,-2.555 2.644,-9.168 4.957,-12.399 0.738,-1.027 2.086,-2.586 2.996,-3.468 1.543,-1.485 1.855,-1.629 4.41,-2.039 0.977,-0.161 1.727,-0.258 2.328,-0.282 z m 176.157,7.594 c -1.129,-0.004 -2.395,0.34 -3.731,1.051 -4.664,2.488 -7.906,5.746 -9.047,9.09 -0.273,0.808 -0.742,1.746 -1.043,2.086 -0.484,0.554 -0.5,1.125 -0.148,5.332 0.215,2.59 0.535,5.093 0.707,5.562 0.172,0.473 0.949,1.332 1.722,1.91 1.227,0.922 1.692,1.059 3.606,1.059 2.891,0 4.352,-0.758 7.176,-3.731 1.922,-2.019 2.461,-2.89 3.754,-6.015 0.828,-2.012 1.804,-4.332 2.168,-5.16 0.957,-2.18 0.703,-4.325 -0.981,-8.297 -0.801,-1.887 -2.301,-2.875 -4.183,-2.887 z m -0.922,6.285 c 0.265,0.028 0.496,0.157 0.715,0.383 0.792,0.824 0.394,2.691 -1.422,6.609 -1.278,2.758 -2.395,4.586 -3.727,6.11 -2.031,2.32 -2.98,2.687 -3.984,1.539 -0.735,-0.84 -0.703,-2.281 0.109,-4.996 0.883,-2.961 2.211,-4.957 5.024,-7.539 1.445,-1.332 2.343,-1.985 3.003,-2.094 0.098,-0.016 0.192,-0.02 0.282,-0.012 z m -116.754,0.66 c -1.567,0 -4.969,1.875 -6.426,3.547 -2,2.293 -6.203,12.258 -6.203,14.711 0,2.25 2.176,4.871 4.906,5.906 5.281,2.004 9.871,-2.394 12.563,-12.039 1.242,-4.437 1.296,-6.269 0.257,-8.304 -0.953,-1.867 -3.558,-3.821 -5.097,-3.821 z m -1.156,6.676 c 0.144,0.016 0.281,0.137 0.48,0.34 0.504,0.508 0.527,0.844 0.199,2.758 -0.512,3.027 -2.816,7.824 -4.082,8.5 -1.172,0.629 -1.113,0.621 -1.613,0.105 -0.832,-0.859 -0.426,-2.765 1.324,-6.226 0.953,-1.883 2.152,-3.938 2.668,-4.567 0.543,-0.672 0.789,-0.937 1.024,-0.91 z m -55.493,6.242 c -1.015,0.02 -1.703,0.555 -2.902,1.731 -0.992,0.973 -2.383,2.637 -3.09,3.695 -1.258,1.891 -1.285,2.008 -1.496,5.977 -0.117,2.226 -0.398,4.765 -0.633,5.648 -0.355,1.356 -0.332,2.008 0.156,4.285 l 0.579,2.688 2.476,1.164 c 2.238,1.058 2.547,1.328 3.25,2.848 0.426,0.925 1.156,1.878 1.617,2.117 1.028,0.527 1.203,0.523 2.723,-0.039 3.16,-1.168 5.617,-4.328 6.824,-8.774 1.891,-6.976 1.832,-10.187 -0.269,-14.597 -1.746,-3.668 -2.934,-4.86 -5.887,-5.899 -1.578,-0.558 -2.563,-0.855 -3.348,-0.844 z m 2.442,6.946 c 0.347,-0.008 0.691,0.058 1.031,0.191 3.164,1.258 1.141,14.715 -2.504,16.664 -1.238,0.664 -2.492,0.672 -3.016,0.02 -0.257,-0.321 -0.476,-2.469 -0.593,-5.864 l -0.192,-5.359 0.957,-1.82 c 1.305,-2.481 2.821,-3.809 4.317,-3.832 z"
       style="fill:#0a0a0a;fill-opacity:1;fill-rule:nonzero;stroke:none"
       transform="scale(1.3333333)" />
  </g>
</svg>
