<?xml version="1.0" encoding="UTF-8"?>
<svg id="Ebene_1" data-name="Ebene 1" xmlns="http://www.w3.org/2000/svg" viewBox="0 0 424.48 628">
  <defs>
    <style>
      .cls-1 {
        fill: #cdb965;
      }

      .cls-1, .cls-2, .cls-3, .cls-4 {
        fill-rule: evenodd;
        stroke-width: 0px;
      }

      .cls-2 {
        fill: #ca3b41;
      }

      .cls-3 {
        fill: #010101;
      }

      .cls-5 {
        stroke: #010101;
        stroke-linecap: round;
        stroke-linejoin: round;
        stroke-width: 4.25px;
      }

      .cls-5, .cls-4 {
        fill: none;
      }
    </style>
  </defs>
  <path class="cls-4" d="M68.72,453.72c11.26.76,21.36,2.25,30.32,4.46,5.98,1.48,15.83,4.55,29.54,9.21,16.96,5.77,31.96,10.63,45,14.56,17.39,5.24,30.21,8.05,38.46,8.42.05,0,.09,0,.14,0l2.66.06s.08,0,.13,0c6.31,0,13.26-.88,20.84-2.64,7.35-1.7,18.55-5.07,33.6-10.1,28.99-9.69,50.53-16.13,64.62-19.34,12.59-2.87,24.53-4.3,35.83-4.31l10.12.23c12.33.56,20.79,2.4,25.39,5.51,4.37,2.96,6.56,7.94,6.57,14.94l-.04,1.83c-.11,2.35-.42,5.03-.93,8.02-1.66,9.74-2.89,15.42-3.68,17.06-.88,1.78-1.91,5.06-3.11,9.85l-1.99,7.43c-.21.69-.41,1.23-.61,1.63-8.55-9.35-19.36-14.32-32.46-14.91-.04,0-.09,0-.13,0l-2.42-.06h-.13c-7.61,0-16.25,1.39-25.93,4.18-7.06,2.04-16.51,5.46-28.35,10.29-40.26,16.42-74.15,24.63-101.69,24.64l-6.01-.13c-5.97-.27-11.62-.95-16.95-2.05-17.31-3.55-42.75-11.31-76.32-23.28-19.65-7.01-34.94-10.76-45.88-11.25-.04,0-.08,0-.12,0l-2.09-.05s-.09,0-.14,0c-2,0-3.83.13-5.48.38-6.45,1-12.37,2.96-17.78,5.9-5.75,3.12-8.89,6.36-9.42,9.72-.23-.31-.48-.74-.76-1.31-.6-1.22-1.32-2.95-2.17-5.2-1.71-4.48-3.56-9.95-5.56-16.42-4.71-15.21-7.07-25.06-7.09-29.57v-.47c.03-.46.09-.76.19-.89,0,0,.01,0,.02-.01.24-.18.71-.58,1.41-1.2,11.57-10.24,26.55-15.37,44.96-15.39l7.48.26"/>
  <path class="cls-5" d="M68.72,453.72c11.26.76,21.36,2.25,30.32,4.46,5.98,1.48,15.83,4.55,29.54,9.21,16.96,5.77,31.96,10.63,45,14.56,17.39,5.24,30.21,8.05,38.46,8.42.05,0,.09,0,.14,0l2.66.06s.08,0,.13,0c6.31,0,13.26-.88,20.84-2.64,7.35-1.7,18.55-5.07,33.6-10.1,28.99-9.69,50.53-16.13,64.62-19.34,12.59-2.87,24.53-4.3,35.83-4.31l10.12.23c12.33.56,20.79,2.4,25.39,5.51,4.37,2.96,6.56,7.94,6.57,14.94l-.04,1.83c-.11,2.35-.42,5.03-.93,8.02-1.66,9.74-2.89,15.42-3.68,17.06-.88,1.78-1.91,5.06-3.11,9.85l-1.99,7.43c-.21.69-.41,1.23-.61,1.63-8.55-9.35-19.36-14.32-32.46-14.91-.04,0-.09,0-.13,0l-2.42-.06h-.13c-7.61,0-16.25,1.39-25.93,4.18-7.06,2.04-16.51,5.46-28.35,10.29-40.26,16.42-74.15,24.63-101.69,24.64l-6.01-.13c-5.97-.27-11.62-.95-16.95-2.05-17.31-3.55-42.75-11.31-76.32-23.28-19.65-7.01-34.94-10.76-45.88-11.25-.04,0-.08,0-.12,0l-2.09-.05s-.09,0-.14,0c-2,0-3.83.13-5.48.38-6.45,1-12.37,2.96-17.78,5.9-5.75,3.12-8.89,6.36-9.42,9.72-.23-.31-.48-.74-.76-1.31-.6-1.22-1.32-2.95-2.17-5.2-1.71-4.48-3.56-9.95-5.56-16.42-4.71-15.21-7.07-25.06-7.09-29.57v-.47c.03-.46.09-.76.19-.89,0,0,.01,0,.02-.01.24-.18.71-.58,1.41-1.2,11.57-10.24,26.55-15.37,44.96-15.39l7.48.26Z"/>
  <path class="cls-2" d="M164.43,237.85h9.1c3.14,0,5.45.24,6.81.75,1.41.5,2.49,1.26,3.23,2.27.76,1.07,1.13,2.33,1.13,3.78,0,1.58-.42,2.93-1.22,4.01-.8,1.11-2.01,1.96-3.61,2.51-1.6.61-4.04.93-7.23.93h-8.21v-14.26ZM213.19,314.31h96.16c13.91,46.95-2.64,80.24-60.28,104.1-13.88,6.36-29.83,15.81-35.88,21.89v-125.99ZM211.33,183.51c-5.69,3.77-12.05,6.77-19.1,9-7.49,2.36-14.83,3.55-22.03,3.55-10.4,0-19.32-2.47-26.75-7.4l-2.69-1.78-28.97,33.22,2.74,2.39c5.8,5.04,10.2,10.86,13.17,17.45,2.76,6.11,4.14,12.49,4.14,19.14s-1.37,12.92-4.11,18.78c-13.04,25.37-19.55,47.27-19.55,65.7,0,17.11,5.49,32.09,16.47,44.95,10.99,12.87,27.88,24.02,50.66,33.45,7.29,3.34,14.36,7.1,21.2,11.28,6.99,4.28,11.7,7.75,14.12,10.42l2.72,3,2.72-3c2.42-2.66,7.13-6.13,14.13-10.42,6.83-4.18,13.89-7.94,21.19-11.28,22.79-9.43,39.68-20.59,50.67-33.45,10.99-12.86,16.49-27.85,16.49-44.95,0-18.44-6.53-40.34-19.58-65.7-2.74-5.86-4.1-12.12-4.1-18.78s1.38-13.03,4.15-19.14c2.98-6.59,7.38-12.41,13.2-17.45l2.75-2.39-29.01-33.22-2.69,1.79c-7.41,4.93-16.32,7.4-26.71,7.4-7.2,0-14.54-1.18-22.04-3.55-7.06-2.22-13.43-5.22-19.13-9l-2.04-1.35-2.03,1.35ZM117.77,313.73h95.8v-126.19c-19.07,12.3-49.92,18.83-71.28,4.68l-24.46,28.06c19.55,16.98,22.6,41.55,14.1,59.7-6.15,11.96-10.9,23.22-14.16,33.76ZM234.36,333.86v7.63h1.83c1.64,0,2.76.09,3.33.33.51.24.93.61,1.17,1.07.23.46.37,1.44.37,2.89v31.64c0,1.54-.33,2.57-.99,3.08-.56.52-1.88.79-3.89.79h-1.83v7.59h27.02v-7.59h-2.25c-1.46,0-2.49-.09-3.01-.38-.52-.23-.93-.56-1.17-1.07-.24-.46-.38-1.44-.38-2.79v-11.56h3.09c1.37,0,2.35.05,2.91.24.52.13.99.41,1.45.79.42.41.75.93.98,1.53.19.52.28,1.26.28,2.29v3.53h7.14v-24.6h-7.14v2.89c0,1.49-.18,2.52-.52,3.17-.32.65-.84,1.16-1.59,1.54-.76.37-1.84.61-3.1.61h-3.52v-14.63h6.8c2.9,0,4.87.09,6.04.28,1.69.28,3.24.89,4.7,1.77,1.49.84,2.72,1.91,3.79,3.22,1.08,1.3,2.16,3.21,3.33,5.78l7.18-2.47-6.23-17.56h-45.83ZM143.97,228.82v7.87h2.07l1.12-.04c.8,0,1.6.13,2.21.41.41.18.75.46.93.98.24.52.33,1.4.33,2.62v30.99c0,1.68-.05,2.66-.19,2.98-.28.52-.66.94-1.22,1.21-.52.28-1.5.42-2.81.42h-2.45v7.59h27.13v-7.59h-2.53c-1.41,0-2.34-.09-2.77-.38-.47-.23-.84-.65-1.04-1.16-.19-.51-.32-1.67-.32-3.58v-10.95h4.59l17.79,23.67h17.74v-7.59h-2.4c-1.08,0-1.93-.09-2.53-.28-.61-.19-1.22-.51-1.84-.94s-1.26-1.07-2.01-1.96l-.48-.61-11.4-13.18c4.09-.79,7.65-2.47,10.7-5.08,2.96-2.57,4.46-5.97,4.46-10.16,0-2.57-.61-4.89-1.73-6.94-1.17-2.05-2.82-3.73-4.93-5.08-2.11-1.35-4.46-2.19-7.08-2.62-2.58-.37-4.98-.6-7.18-.6h-34.17Z"/>
  <path class="cls-1" d="M248.63,54.16c2.65.39,5.23.84,7.87,1.35-.38-.64-.64-1.55-.64-2.52,0-2.71,2.26-4.97,5.03-4.97s4.97,2.26,4.97,4.97c0,2-1.09,3.55-2.64,4.52,2.9.9,5.48,2.19,7.74,3.61-.13-.13-.13-.32-.13-.58,0-2.71,2.26-4.97,5.09-4.97s4.97,2.26,4.97,4.97-2.19,4.97-4.97,4.97h-.45c1.29,2,2.39,4.26,3.1,6.58.9-1.29,2.45-2.32,4.39-2.32,2.71,0,4.97,2.19,4.97,5.03s-2.26,4.97-4.97,4.97c-1.22,0-2.26-.38-3.1-1.1.32,3.23.26,6.52-.39,9.55.84-.58,1.93-1.03,3.1-1.03,2.77,0,4.97,2.26,4.97,4.97s-2.19,4.9-4.97,4.9c-2,0-3.87-1.03-4.64-2.84-1.03,3.42-2.58,6.77-4.58,9.67.58-.19,1.03-.32,1.61-.32,2.9,0,5.16,2.32,5.16,5.03s-2.26,4.97-5.16,4.97c-2.71,0-4.97-2.26-4.97-4.97v-.32c-.84.84-1.74,1.74-2.71,2.58l-9.29-2.13c10.26-14.96,12.58-44.18-15.74-48.76l-11.03-1.1c-.52,0-2.39-2.9-3.22-4.58-1.81-.71-3.23-2.58-3.23-4.71,0-2.71,2.26-4.97,5.22-4.97,2.77,0,5.03,2.26,5.03,4.97,0,1.55-.64,2.71-1.42,3.55,2.13.13,4.97.13,7.8.45-.71-.9-1.1-2-1.1-3.16,0-2.71,2.26-4.96,5.1-4.96s5.03,2.26,5.03,4.96c0,1.55-.58,2.84-1.81,3.74ZM117.43,125.06c29.75-10.66,62.89-17.77,94.26-17.87,31.97-.1,62.17,7.01,92.48,17.87l-1.62,5.11c-29.74-10.66-60.23-16.98-91.6-16.89-30.88.08-62.64,6.4-91.91,16.89l-1.62-5.11ZM340.03,205.64l-.38,1.61c-2.38,9.89,17.19,40.53,42.82,40.92-5.41-27.37-33.82-43.13-42.44-42.54ZM389.29,181.96l-3.08,2.69c-8.39,6.91-10.23,41.18,2.42,59.51,10.6-14.15,15.1-40.05.67-62.2ZM420.41,243.51l-3.84,1.43c-10.32,3.46-24.4,34.78-19.25,56.4,15.01-9.42,28.57-31.99,23.09-57.83ZM354.56,302.02l-.83,1.45c-5.05,8.83,5.12,43.68,29.63,51.17,2.49-27.8-20.36-50.79-28.8-52.62ZM352.27,262.95l-.38,1.61c-2.38,9.89,17.19,40.53,42.82,40.92-5.41-27.36-33.82-43.12-42.44-42.53ZM360.43,441.96l3.39-.32c9.32-.84,28.8-16.66,27.96-21.87-11.52-5.89-45.24,3.87-63.18,21.53l19.64,3.19c.5-.16,1.88-.32,4.4-.84,4.42-1,6.95-1.5,7.79-1.68ZM331.05,381.95l-1.51.66c-9.32,4.21-21.68,38.35-6.28,58.71,18.47-21.03,13.56-52.98,7.79-59.37ZM364.43,403.05l14.74-1.51c25.23-2.52,43.02-36.84,36.92-38.68-8.3-2.52-43.52,17.48-51.66,40.19ZM350,343.64l-1.68.18c-10.84,25.4,5.92,56.85,11.34,56.35l1.17-.18c12.03-31.79-9.47-56.51-10.84-56.34ZM424.48,300.91l-4.08.5c-10.84,1-31.83,28.24-31.83,50.45,16.77-5.71,35.23-24.55,35.91-50.95ZM319.32,145.25c-3.23,5.21,8.46,41.53,39.79,44.06-.67-18.16-7.95-31.11-21.84-39.18-8.14-4.71-17.79-5.05-17.95-4.87ZM250.05,585.5l3.19,1.06c8.75,2.87,32.58-3.81,33.87-8.86-8.08-9.8-42.38-14.12-65.55-5.17l16.46,10.49c.53.07,1.86.46,4.35.95,4.35.85,6.84,1.39,7.69,1.53ZM258.77,549.51c-.38,3.93,14.34,12.31,23.36,15.12,15.92,4.46,20.01,2.97,33.21-4.74-.09-.51-.27-.84.03-1.2-11.19-8.98-24.32-12.95-39.55-12.11-5.1.26-16.91,2.75-17.05,2.94ZM172.34,584.36l-3.12,1.22c-8.57,3.33-32.73-2.11-34.29-7.08,7.53-10.19,41.56-16.31,65.16-8.58l-15.86,11.33c-.54.12-1.82.58-4.29,1.19-4.3,1.06-6.75,1.72-7.59,1.93ZM83.44,206.21l.38,1.61c2.38,9.89-17.19,40.53-42.82,40.93,5.41-27.37,33.82-43.13,42.44-42.54ZM34.25,182.82l3.08,2.69c8.39,6.91,10.23,41.17-2.42,59.52-10.61-14.15-15.1-40.05-.67-62.2ZM3.2,244.23l3.84,1.43c10.32,3.46,24.4,34.78,19.25,56.4-15.01-9.42-28.57-31.99-23.09-57.83ZM70.07,302.81l.83,1.45c5.05,8.83-5.12,43.68-29.64,51.17-2.49-27.8,20.37-50.79,28.81-52.62ZM72.56,263.74l.38,1.61c2.38,9.89-17.19,40.53-42.82,40.93,5.41-27.37,33.82-43.13,42.44-42.54ZM210.84,573.19c-1.6,1.36-6.76,5.86-14.76,12.38-9.67,7.68-26.29,21.35-50,41.05l-1.54-.19c-1.41-.25-2.76-2.11-4.18-5.33-.55-.86-.63-1.9-.72-3,2.12-1.34,13.92-8.99,34.67-22.75,17.78-11.81,34.05-23.29,34.07-23.68.14-.19-4.77-4.97-4.78-4.9l.18-1.28c0,.13,4.57,3.41,6.55,5.68.33-.18.73-.55,1.2-.99.27-.25,1.34-1.11,3.79-2.82l1.92-1.34,1.22.05c-.58-.02-3.49,3.41-4.7,4.46-1.33.85.08,1.17.06,1.62,37.92,25.02,60.57,41.36,67.96,48.69.09.97-1.68,3.35-5,7.16-1.21-.31-16.84-12.94-46.82-38.23-8.86-7.52-15.74-13.22-19.15-16.58ZM161.6,548.44c.58,3.91-13.63,13.06-22.53,16.3-15.65,5.31-19.8,4.01-33.4-3.01.04-.5.23-.81-.1-1.19,10.69-9.54,23.58-14.2,38.85-14.16,5.11.03,17.04,1.88,17.17,2.05ZM64.04,442.54l-3.39-.32c-9.33-.84-28.8-16.66-27.96-21.87,11.53-5.89,45.24,3.87,63.18,21.53l-19.64,3.19c-.51-.16-1.88-.32-4.4-.85-4.42-1-6.94-1.5-7.79-1.68ZM93.57,382.74l1.51.66c9.32,4.21,21.68,38.35,6.28,58.71-18.47-21.03-13.56-52.98-7.79-59.37ZM60.19,403.55l-14.74-1.51c-25.23-2.52-43.02-36.84-36.92-38.68,8.3-2.52,43.52,17.48,51.65,40.19ZM74.76,344.29l1.68.18c10.84,25.4-5.92,56.85-11.34,56.35l-1.17-.18c-12.03-31.79,9.47-56.51,10.84-56.34ZM0,301.92l4.07.5c10.84,1,31.84,28.24,31.84,50.45-16.77-5.71-35.23-24.55-35.91-50.95ZM103,145.82c3.23,5.21-8.46,41.53-39.79,44.06.67-18.16,7.95-31.11,21.84-39.19,8.14-4.71,17.78-5.05,17.95-4.87ZM210.76,116.22c-16.72.24-35.77,2.37-52.79,6.2-13.46,3.04-24.96,7.33-37.93,11.22l.77,2.54c.35-.16.73-.32,1.1-.43l8.58-2.73c.81-.25,1.61-.37,2.46-.37,1.71,0,3.28.51,4.69,1.5,1.43,1.03,2.42,2.38,2.97,4.06v.02l.1.29c.25.8.37,1.6.37,2.42,0,1.72-.51,3.28-1.51,4.66-1.02,1.42-2.39,2.42-4.08,2.95l-8.59,2.71c-.47.16-.96.25-1.45.31l.67,2.18c27.54-8.23,56.21-11.31,84.97-11.49v.11c28.65.2,57.25,2.77,84.69,10.98l.67-2.19c-.49-.05-.98-.16-1.46-.31l-8.58-2.71c-1.69-.53-3.07-1.52-4.09-2.95-1-1.39-1.51-2.95-1.51-4.66,0-.82.12-1.62.37-2.42l.1-.29v-.02c.55-1.68,1.53-3.02,2.97-4.06,1.41-1,2.98-1.5,4.69-1.5.84,0,1.65.12,2.45.37l8.58,2.73c.37.12.75.27,1.1.43l.77-2.54c-29.5-8.84-60.87-16.76-90.92-17.13l-.15.1ZM214.94,34.51c5.1,1.42,8.9,6.13,8.9,11.55,0,6.71-5.68,12-12.45,12s-12.71-5.29-12.71-12c0-5.42,3.8-10.13,9.16-11.55v-14.96h-12.97v-6.97h12.97V0h7.09v12.58h12.71v6.97h-12.71v14.96ZM210.94,60.46c-2.26-.29-6.97-1.23-8.35-2.87-4.24,5.13-6.8,5.72-9.15,18.96-2.38,13.27,4.52,27.37,4.91,27.39.31,0,8.45.47,11.78.51,1.08.21,12.73-.45,13.1-.47.39-.02,7.28-14.12,4.91-27.39-2.36-13.25-4.91-13.83-9.15-18.96-1.32,1.56-5.7,2.5-8.05,2.83ZM130.84,159.83c0-7.09,37.91-14.08,80.66-14.08s79.79,6.77,79.79,13.86-36.16,13.42-78.92,13.42-81.54-6.12-81.54-13.21ZM229.53,104.9l-3.87-.37c6.82-17.77,7.38-31.14,1.47-40.49l-5.53-8.24c-.08-.11,1.58-2.77,1.66-2.75.05.02,7.1,8.1,10.17,18.41,3.39,11.38-3.95,33.43-3.9,33.44ZM211.59,152.03c20.78,0,38.61,1.01,53.5,3.04,6.95.95,12.37,2.02,16.29,3.24,1.86.58,3.27,1.15,4.24,1.73.65.39,1.01.69,1.07.91-.06.21-.42.52-1.07.9-.97.58-2.39,1.16-4.24,1.74-3.91,1.21-9.34,2.29-16.29,3.24-14.89,2.02-32.9,3.61-53.68,3.61s-38.43-1.59-53.31-3.61c-6.95-.95-12.37-2.02-16.28-3.24-1.86-.58-3.27-1.16-4.24-1.74-.65-.39-1.01-.69-1.07-.9.06-.22.42-.52,1.07-.91.97-.58,2.38-1.16,4.24-1.73,3.91-1.22,9.34-2.29,16.28-3.24,14.89-2.02,32.72-3.04,53.5-3.04ZM211.55,90.23c1.34,0,2.49.47,3.44,1.41.95.94,1.42,2.08,1.42,3.41s-.47,2.47-1.42,3.41c-.95.94-2.09,1.42-3.44,1.42s-2.49-.47-3.44-1.42c-.95-.94-1.42-2.08-1.42-3.41s.48-2.47,1.42-3.41c.95-.94,2.09-1.41,3.44-1.41ZM211.55,63.73c1.34,0,2.49.47,3.44,1.41.95.94,1.42,2.08,1.42,3.42s-.47,2.47-1.42,3.41c-.95.94-2.09,1.41-3.44,1.41s-2.49-.47-3.44-1.41c-.95-.94-1.42-2.08-1.42-3.41s.48-2.47,1.42-3.42c.95-.94,2.09-1.41,3.44-1.41ZM211.55,77.05c1.34,0,2.49.47,3.44,1.41.95.94,1.42,2.08,1.42,3.42s-.47,2.47-1.42,3.41c-.95.94-2.09,1.41-3.44,1.41s-2.49-.47-3.44-1.41c-.95-.94-1.42-2.08-1.42-3.41s.48-2.47,1.42-3.42c.95-.94,2.09-1.41,3.44-1.41ZM192.04,104.86l3.87-.37c-6.83-17.77-7.38-31.14-1.48-40.49l5.53-8.25c.08-.11-1.58-2.77-1.66-2.75-.05.01-7.1,8.11-10.17,18.41-3.39,11.38,3.95,33.43,3.9,33.44ZM106.34,86.68c-.78-1.29-2.32-2.2-4.26-2.2-2.71,0-4.97,2.2-4.97,4.9s2.26,4.97,4.97,4.97c1.09,0,2.13-.26,2.84-.71-.07,1.81,0,3.87.52,5.94-.84-.52-1.67-.71-2.51-.71-2.97,0-5.1,2.19-5.1,4.9s2.13,5.1,5.1,5.1c1.8,0,3.55-1.16,4.38-2.71.97,2.32,2.13,4.84,3.55,7.16-.45-.2-1.03-.32-1.61-.32-2.77,0-5.03,2.32-5.03,5.03s2.26,4.97,5.03,4.97,4.97-2.26,4.97-4.97c1.42,1.55,2.84,3.1,4.64,4.71,1.29-1.61,3.68-2.71,6.71-3.42-18.12-17.99-9.8-33.54-1.74-37.34,1.68-.71,9.03-2.19,5.42-2-2.84,0-4.71-6.32-4.26-9.29,2.84,0,5.1-2.26,5.1-4.96s-2.26-4.9-5.1-4.9-4.97,2.19-4.97,4.9c0,1.93,1.16,3.68,2.71,4.51-2.32,1.03-5.93,3.03-9.22,6.13,0-2.84-2.13-5.1-4.97-5.1s-5.03,2.26-5.03,5.23c0,2.71,2.26,4.9,5.03,4.9h.71c-1.23,1.55-2.13,3.42-2.9,5.29ZM315.62,86.68c.77-1.29,2.32-2.2,4.26-2.2,2.71,0,4.97,2.2,4.97,4.9s-2.26,4.97-4.97,4.97c-1.09,0-2.13-.26-2.84-.71.07,1.81,0,3.87-.52,5.94.84-.52,1.68-.71,2.51-.71,2.97,0,5.1,2.19,5.1,4.9s-2.13,5.1-5.1,5.1c-1.8,0-3.55-1.16-4.38-2.71-.97,2.32-2.13,4.84-3.55,7.16.45-.2,1.03-.32,1.61-.32,2.77,0,5.03,2.32,5.03,5.03s-2.26,4.97-5.03,4.97-4.97-2.26-4.97-4.97c-1.42,1.55-2.84,3.1-4.64,4.71-1.29-1.61-3.68-2.71-6.71-3.42,18.12-17.99,9.8-33.54,1.74-37.34-1.67-.71-9.03-2.19-5.42-2,2.84,0,4.71-6.32,4.26-9.29-2.84,0-5.1-2.26-5.1-4.96s2.26-4.9,5.1-4.9,4.97,2.19,4.97,4.9c0,1.93-1.16,3.68-2.71,4.51,2.32,1.03,5.93,3.03,9.22,6.13,0-2.84,2.13-5.1,4.97-5.1s5.03,2.26,5.03,5.23c0,2.71-2.26,4.9-5.03,4.9h-.71c1.22,1.55,2.13,3.42,2.9,5.29ZM169.37,125.36l12.35,5.22-10.38,8.44-12.35-5.22,10.39-8.44ZM252.58,123.99l-12.35,5.22,10.39,8.44,12.35-5.22-10.39-8.44ZM210.98,121.31h-3.67c-2.27,0-4.21.68-5.83,2.05-1.7,1.43-2.55,3.18-2.55,5.24v.28c0,2.06.85,3.81,2.55,5.24,1.62,1.37,3.57,2.05,5.83,2.05h7.31c2.26,0,4.21-.68,5.83-2.05,1.7-1.43,2.55-3.17,2.55-5.24v-.28c0-2.06-.85-3.81-2.55-5.24-1.62-1.37-3.57-2.05-5.83-2.05h-3.63ZM172.97,54.38c-2.65.39-5.23.84-7.87,1.35.39-.65.65-1.55.65-2.52,0-2.71-2.26-4.97-5.03-4.97s-4.96,2.26-4.96,4.97c0,2,1.09,3.55,2.64,4.52-2.9.9-5.48,2.2-7.74,3.61.13-.13.13-.32.13-.58,0-2.71-2.26-4.97-5.09-4.97s-4.97,2.26-4.97,4.97,2.19,4.97,4.97,4.97h.45c-1.29,2-2.39,4.26-3.1,6.58-.9-1.29-2.45-2.32-4.39-2.32-2.71,0-4.97,2.19-4.97,5.03s2.26,4.97,4.97,4.97c1.22,0,2.26-.39,3.1-1.1-.32,3.23-.26,6.51.39,9.55-.84-.58-1.94-1.03-3.1-1.03-2.77,0-4.97,2.26-4.97,4.97s2.19,4.9,4.97,4.9c2,0,3.87-1.03,4.64-2.84,1.03,3.42,2.58,6.77,4.58,9.67-.58-.19-1.03-.32-1.61-.32-2.9,0-5.16,2.32-5.16,5.03s2.26,4.97,5.16,4.97c2.71,0,4.96-2.26,4.96-4.97v-.32c.84.84,1.74,1.74,2.71,2.58l9.29-2.13c-10.26-14.96-12.58-44.18,15.74-48.76l11.03-1.1c.52,0,2.39-2.9,3.23-4.58,1.8-.71,3.22-2.58,3.22-4.71,0-2.71-2.26-4.97-5.22-4.97-2.77,0-5.03,2.26-5.03,4.97,0,1.55.65,2.71,1.42,3.55-2.13.13-4.97.13-7.81.45.71-.9,1.1-2,1.1-3.16,0-2.71-2.26-4.96-5.1-4.96s-5.03,2.26-5.03,4.96c0,1.55.58,2.84,1.81,3.74Z"/>
  <path class="cls-1" d="M274.81,136.97c.29.29.58.43.86.86.86.72,1.3,1.73,1.3,2.88,0,1.3-.43,2.16-1.3,3.03-.72.86-1.73,1.29-2.88,1.29s-2.16-.43-3.02-1.29c-.72-.87-1.15-1.73-1.15-3.03,0-1.15.43-2.16,1.15-2.88.86-.86,1.87-1.29,3.02-1.29h.58l.14-1.3c-.29-.14-.58-.43-.86-.72-.86-.86-1.3-1.87-1.3-2.95,0-1.15.43-2.16,1.3-3.02.72-.86,1.73-1.15,2.88-1.15s2.16.29,3.02,1.15c.72.86,1.15,1.87,1.15,3.02,0,1.08-.43,2.09-1.15,2.95-.86.86-1.87,1.3-3.02,1.3-.14,0-.29,0-.58-.15l-.14,1.3"/>
  <path class="cls-1" d="M231.46,129.41c.43.14.86.43,1.3.72.72.72,1.3,1.44,1.44,2.59v.72c0,1.01-.29,1.87-.86,2.59-.72.87-1.58,1.3-2.59,1.59h-.58c-1.01,0-2.02-.29-2.74-1.01-.72-.72-1.3-1.58-1.44-2.59v-.72c0-1.01.29-1.87.86-2.74.72-.72,1.44-1.15,2.45-1.44h.72v-1.3c-.43-.14-.86-.43-1.3-.86-.86-.58-1.3-1.44-1.44-2.38-.14-.29-.14-.58-.14-.86,0-1.01.43-1.87,1.01-2.59.58-.86,1.44-1.3,2.45-1.44.29-.14.43-.14.72-.14,1.01,0,1.87.43,2.74,1.01.72.72,1.15,1.59,1.44,2.59v.72c0,1.01-.29,1.8-1.01,2.66-.58.72-1.44,1.3-2.45,1.44h-.72l.14,1.44"/>
  <path class="cls-1" d="M190.28,128.18h-.43c-1.01-.14-1.73-.72-2.45-1.44-.58-.86-.86-1.66-.86-2.66v-.72c.14-1.01.72-1.87,1.44-2.59.72-.58,1.73-1.01,2.74-1.01.14,0,.43,0,.58.14,1.01.14,1.87.58,2.59,1.44.58.72.86,1.58.86,2.59v.86c-.14.94-.72,1.8-1.44,2.38-.43.43-1.01.72-1.58.86l.14,1.3h.72c1.01.29,1.87.72,2.45,1.44.72.86,1.01,1.73,1.01,2.73v.72c-.29,1.01-.72,1.87-1.44,2.59-.86.72-1.73,1.01-2.74,1.01h-.72c-1.01-.29-1.87-.72-2.45-1.58-.58-.72-1.01-1.58-1.01-2.59,0-.29,0-.58.14-.72.14-1.15.58-1.87,1.44-2.59.29-.29.72-.58,1.01-.72v-1.44"/>
  <path class="cls-1" d="M148.52,136.97h.72c1.15,0,2.16.43,3.02,1.3.72.72,1.15,1.73,1.15,2.88,0,1.3-.43,2.16-1.15,3.02-.86.86-1.87,1.3-3.02,1.3s-2.16-.43-2.88-1.3c-.86-.86-1.3-1.73-1.3-3.02,0-1.15.43-2.16,1.3-2.88.29-.29.43-.58.72-.72l-.14-1.3h-.43c-1.15,0-2.16-.43-3.02-1.3-.72-.86-1.15-1.87-1.15-2.95,0-1.15.43-2.16,1.15-3.02.86-.87,1.87-1.15,3.02-1.15s2.16.29,2.88,1.15c.86.86,1.3,1.87,1.3,3.02,0,1.08-.43,2.09-1.3,2.95-.29.29-.72.58-1.01.87l.14,1.15"/>
  <path class="cls-3" d="M64.33,499.74c8.04,1.38,16.19,3.33,23.95,5.49,1.38-2.68,2.37-5.26,3.49-7.72-.51-.47-.89-.82-1.52-1.29-1.78,3.01-3.77,3.97-5.74,4.48-.78.09-2.35.27-4.94-.49-5.17-1.18-5.54-1.99-5.41-6.3-.06-2.61.02-5.22-.03-7.95,2.2.53,4.4,1.16,6.6,1.68,1.43.27,2.06.74,2.43,1.55.63.7,1.24,2.2,1.19,3.67.65.13,1.17.03,1.82.28l-.19-11.36c-.65-.02-1.17-.15-1.81-.28-.06,2.05-1.13,3.03-1.92,3.24-.27.22-.52.21-1.82-.17-2.07-.4-4.27-1.15-6.34-1.55l-.17-7.5c-.05-2.73.62-3.5,3.98-2.61,6.22,1.44,9.38,4.6,11.35,8.3.53.01,1.05-.08,1.57-.18-.96-2.75-2.05-5.51-3.01-8.27-7.76-2.05-15.66-3.77-23.56-5.37l.07,1.82c2.2.75,3.46,2.03,3.82,3.06.12.23.25.24.16,3.3l.36,18.63c-.07,2.39-.47,2.83-1.4,3.25-.53.21-1.58.52-3.01.36l.07,1.93ZM50.58,487.83c2.98.54,4.11,2.17,4.19,3.76l.31,2.74c.21,1.81-.08,2.71-.75,3.37-.82,1.34-3.07,2.18-5.15,2.23-2.86-.09-5.43-1.64-7.02-5.21-.49-1.04-1.45-3.79-1.97-8.12-.57-7.06.7-10.09,1.38-11.43,1.23-1.78,2.96-2.98,5.31-2.91,3.51.22,7.09,2.49,10.09,6.89.52-.21,1.19-.53,1.84-.85-1.09-2.65-2.43-5.76-3.78-8.63-.53-.02-1.17-.03-1.69-.05-.28.56-.55,1-.95,1.45-2.05-1.08-4.24-1.83-6.46-1.78-7.17,0-13.11,6.75-12.01,18.03,1.02,9.68,6.84,15.42,14.66,15.54,3.25.21,6.14-.72,8.43-2.93.63.7.87,1.5,1.38,2.08.9.37,1.94.52,2.84.77l-.86-10.47c-.19-2.39.36-3.28,3.37-3.65l-.2-1.93c-4.42-.36-8.85-.61-13.15-.74l.21,1.82ZM372.64,498.89c3.52.11,7.69.24,11.2.68,1.3.04,1.67.73,1.65,1.41.78.02,1.56.05,2.34.18.61-3.28,1.87-6.18,2.88-9.22-1.04-.15-1.69-.28-2.59-.31-.59,2.25-1.39,2.79-4.12,2.6-1.3-.15-2.6-.08-4.16-.24,5.09-4.61,8.47-8.6,9.54-9.81,2.05-3.12,3.03-5.47,2.96-7.29.82-5.76-2.43-10.29-7.5-10.67-4.96-.04-8.98,3.7-9.4,9.02.91.14,1.82.28,2.86.31.51-3.96,2.92-5.93,5.4-6.08,2.34.18,4.1,2.29,3.32,6.69-.38,4.19-2.37,9.69-14.17,20.57l-.2,2.15ZM356.05,485.27c1.72-.85,3.69-1.48,4.61-1.56,4.32-.78,7.24,2.04,7.23,6.58.11,5.11-2.44,7.42-4.53,7.81-.65.09-1.56-.05-2.33-.52-.76-.7-1.12-1.74-1.89-2.11-.51-.47-1.03-.48-1.56-.39-1.3.07-2.39,1.52-2.3,2.88.08,1.7,1.97,4.03,6.55,3.38,5.64-1.08,10.23-6.39,10.2-14-.22-5.91-4.27-9.78-10.43-8.61-.65.09-1.18.3-1.84.52.18-1.7.23-3.4.41-4.99,3.28-.69,6.29-1.17,9.56-1.64.58-1.92,1.03-3.95,1.35-5.87-.78.09-1.57.18-2.36.39-.15.56-.54.89-1.73,1.08-3.01.48-6.02.95-9.04,1.54-.54,5.21-1.35,10.29-1.89,15.5ZM336.47,505.71c9.91-4.47,16.35-14.94,16.23-24.26-.13-8.97-4.98-12.42-9.96-11.31-5.13,1.43-8.94,6.76-8.99,13.01.28,3.87,1.39,6.17,3.29,7.48,1.42.72,3.22,1.23,6.11.53,1.31-.3,2.5-.83,3.69-1.37-1.6,5.63-5.41,10.97-10.19,13.77-.02.79-.04,1.47-.19,2.15ZM347.6,485.82c-1.35,1.44-2.81,2.41-4.11,2.6-2.11.62-4.54-.7-4.62-6.73.06-6.35,2.33-8.44,4.17-8.96,1.44-.29,2.99.43,3.96,2.85.24.69.69,2.97.56,7.28.1.91.07,1.93.04,2.95ZM322.61,508.85c3.82-1.13,7.49-2.15,11.17-3.18l.06-1.93c-1.45.3-2.35-.07-2.71-.99,0-.23-.11-.69-.07-1.94l-.38-26.69c-.91.2-1.97.51-2.89.7-1.87,1.42-3.61,3.07-5.74,4.59l.07,1.94c.4-.22.66-.33,1.06-.43,1.71-.52,2.36-.38,2.4,2.57.08,6.14.16,12.27.36,18.52,0,.12,0,.34-.02.57-.05,1.59-.47,2.59-1.53,3.36-.41.56-1.2.99-1.86.97l.07,1.93ZM284.01,521.29c4.61-1.56,9.08-2.9,13.56-4.47l-.07-1.82c-2.1.5-3.39-.1-3.76-.8-.12-.34-.23-.81-.2-1.94l-.31-20.22c.06-2.04.61-2.7,2.05-3.11,2.11-.73,5.1-.76,8.37,3.2.41-.55.94-.99,1.48-1.54-1.1-2.54-2.07-5.06-3.29-7.48-.79.2-1.58.29-2.24.62-.14.34-.41.78-.69,1.12-5.53,1.76-11.31,3.51-16.84,5.39-.25-.35-.51-.58-.76-.7-.79.2-1.58.41-2.37.72-1.01,3.15-2.01,6.18-3.01,9.44.52.13.9.37,1.42.5,3.03-5.58,6.22-7.76,8.33-8.49,1.32-.53,1.95.06,2.02,2l.18,20.33c.06,2.15-.9,4.06-3.81,5.33l-.06,1.92ZM247.92,530.48c7.86-1.47,16.01-3.71,24.03-5.97,1.14-3.14,2.41-6.4,3.41-9.55-.52-.13-1.03-.26-1.68-.39-1.55,3.93-3.7,6.24-5.57,7.55-.79.54-2.39,1.51-4.88,2.12-5.12,1.21-5.48.51-5.5-3.69l-.16-7.84c2.23-.62,4.47-1.23,6.7-1.73,1.58-.4,2.09-.17,2.6.3.38.46.86,1.62.95,2.98.66-.09,1.18-.3,1.84-.4l-.06-11.35c-.65.09-1.18.31-1.83.4-.33,2.27-1.15,3.71-1.83,4.49-.27.22-.53.32-1.97.73-2.1.4-4.21,1.01-6.31,1.62l-.17-7.49c-.05-2.73.63-3.84,4.05-4.76,6.17-1.52,9.26-.17,11.14,2.49.53-.33,1.06-.65,1.59-1.08-.98-2.19-1.95-4.49-2.8-6.67-7.89,2.26-15.77,4.29-23.51,5.76l-.06,1.82c2.22-.17,3.51.67,3.88,1.36,0,.23.25.23.16,3.3l.23,18.62c.06,2.39-.35,3.17-1.28,3.82-.54.44-1.47,1.2-3.18,1.61l.2,1.94ZM217.08,534.17c5.08-.07,10.05-.37,15.15-1.13,7.06-.81,10.69-4.56,13.06-9.37.84-2.02,1.73-5.62,1.44-9.15.06-6.35-2.05-10.05-4.86-11.95-2.17-1.65-4.88-2.53-9.59-1.88-5.23.63-10.33,1.05-15.55,1.34l.08,1.71c2.21.18,3.09,1.23,3.6,1.81.25.35.5.7.43,3.08l.2,19.31c.08,1.82-.33,2.38-.87,3.15-.41.44-1.47.97-3.03,1.16l-.06,1.93ZM226.68,527.67s0-.11,0-.23c-.07-6.59-.13-13.18-.07-19.87-.18-2.61,1.14-3.14,3.89-3.4,5.23-.64,6.51.2,7.9,1.6.75.82,1.5,2.08,1.94,4.59.11.8.31,2.96.37,5.35.11,9.09-1.45,13.59-9.82,14.58-3.53.46-4.15-.69-4.22-2.63ZM184.59,531.9c3.76.57,7.52,1.14,11.3,1.48l-.07-1.94c-2.21-.4-3.34-1.57-3.71-2.49-.12-.46-.23-.92-.32-2.17l-.27-21.58c5.44,10.04,10.76,19.74,16.21,28.99,1.04.14,2.21.18,3.26.1l-.25-26.57c.04-1.47.19-2.04.99-2.58.13-.11.26-.22.27-.33.66-.43,1.72-.86,2.76-.94l-.07-1.94c-.78-.02-1.7.17-2.61.15-2.87.03-5.86-.18-8.73-.27l.07,1.94c1.44.04,2.46.64,3.09,1.23.51.58,1.01,1.28.96,2.75v.11s.07,14.88.07,14.88c-4.09-6.94-8.05-14.21-12.13-21.71-3.77-.34-7.4-.9-11.29-1.48l.07,1.93c2.97.77,4.09,2.51,4.04,4.32.11.58.1,1.14.08,1.82l.23,18.63c0,.23-.01.45-.02.68.1,1.03-.44,1.81-.85,2.25-.41.55-1.72.97-3.15.81l.07,1.93ZM151.28,493.82c2.71,1.1,3.58,2.38,3.93,3.87,0,.23.12.23.17,3.07l.09,9.99c-.09,2.95-.3,5.67.78,8.88,1.44,4.02,5.24,7.99,10.67,9.41,4.79,1.17,7.96-.33,9.59-2.66.82-1.45,1.54-3.58,1.68-8.24l-.27-12.95c-.06-2.38.08-2.72.36-3.16.54-.56,1.21-1.22,3.68-1.03l-.07-1.82c-3.9-.69-7.79-1.37-11.8-2.4l.08,1.82c2.32.98,3.45,2.15,3.82,3.07.12.35.37.47.43,2.97l.16,12.26c-.05,5.91-.87,7.24-1.94,8.12-.94.99-2.65,1.28-4.72.76-1.81-.39-3.48-1.24-4.74-2.64-2.13-2.79-2.04-5.74-2.22-8.58,0-4.65.02-9.31.02-13.96-.08-1.7.06-2.04.59-2.48.54-.44,1.45-.75,3.28-.81l.05-1.81c-4.53-1.04-9.06-2.2-13.58-3.6l-.06,1.93ZM158.94,487.4c-.24,2.35,1.55,4.76,3.74,5.41,2.03.36,3.93-1.2,4.01-3.7.07-2.35-1.89-4.62-3.92-4.98-2.18-.65-3.92.77-3.83,3.27ZM170.31,490.13c-.07,2.36,2.07,4.77,4.08,5.28,2.18.51,3.76-1.06,3.65-3.42-.09-2.51-1.55-4.76-3.74-5.27-2.19-.51-3.93.91-4,3.4ZM123.84,516.01c4.65,1.28,9.17,2.78,13.82,4.28l-.07-1.93c-2.06-.74-3.45-2.26-3.69-3.06-.25-.46-.62-1.04-.58-2.4l.04-9.98c.9.48,1.8.62,2.58.87,2.95,6.22,6.15,12.45,9.08,18.78,2.98.88,5.69,1.65,8.54,2.41l.05-1.81c-1.41-.61-2.57-1.33-3.44-2.49-.25-.35-.88-1.05-2.36-3.82-1.97-3.81-3.69-7.38-5.66-11.3,5.83,1.31,8.4-1.9,8.11-5.54.12-3.97-2.86-8.94-10.73-11.45-5.3-1.53-10.72-3.28-16.02-4.92l-.06,1.93c1.67.62,2.82,1.56,3.2,2.02.49.81.86,1.62.81,3.2l.3,20.45c.08,1.71-.32,2.15-.99,2.47-.53.32-1.32.64-3.13.36l.2,1.93ZM133.13,499.46l.1-7.61c-.21-1.82.46-2.37,2.91-1.61.78.25,1.55.5,2.33.52,4,1.37,5.86,4.49,5.78,7.22.07,2.16-1.02,3.6-3.1,3.65-.53-.02-1.57-.05-3.77-.57-1.42-.5-2.71-.88-4.25-1.61ZM110.3,496.89c2.71,1.22,3.69,3.07,3.65,4.65l.18,2.73c-.05,1.92-.34,2.59-1.13,3.13-.93.89-3.18,1.5-5.25.98-2.84-1-5.24-3.34-6.68-7.47-.36-1.14-.93-4-.92-8.43-.05-7.04,1.2-9.73,2.01-10.73,1.48-1.43,3.44-1.82,5.64-.96,3.36,1.01,6.79,4.07,9.38,9.26.65-.09,1.44-.3,2.09-.39-.96-2.98-1.9-6.19-2.98-9.29-.39-.24-.9-.37-1.42-.38-.4.21-1.06.54-1.46.86-1.92-1.42-4.1-2.74-6.29-3.37-7.23-2.26-13.36,2.32-13.31,13.68-.03,9.76,5.35,17.53,13.35,20.04,3.1.9,5.99.64,8.5-.76.5.81.73,1.61.97,2.42.89.59,2.05.97,3.08,1.45-.16-3.52-.05-7.04.05-10.44-.19-2.39.36-3.28,3.35-2.96l-.07-1.93c-4.26-1.38-8.39-2.64-12.66-3.91l-.05,1.82Z"/>
</svg>