<?xml version="1.0" encoding="UTF-8" standalone="no"?>
<!-- Created with Inkscape (http://www.inkscape.org/) -->

<svg
   version="1.1"
   id="svg1"
   width="1122.5197"
   height="793.70074"
   viewBox="0 0 1122.5197 793.70074"
   xmlns="http://www.w3.org/2000/svg"
   xmlns:svg="http://www.w3.org/2000/svg">
  <defs
     id="defs1" />
  <path
     id="path1"
     d="m 108.67733,468.45865 c -7.41733,-0.97466 -14.963999,-3.23466 -20.979999,-6.27599 -7.634666,-3.86534 -16.363999,-10.88534 -18.937333,-15.21867 -1.853333,-3.13067 -1.172,-6.14133 1.562667,-6.876 1.374667,-0.364 2.172,0.20933 6.505333,4.68267 9.598667,9.912 21.589333,15.98933 33.536002,16.98933 10.188,0.86 15.136,-1.54667 15.07866,-7.33333 -0.0413,-4.396 -2.07333,-8.53067 -7.80666,-15.91067 -2.776,-3.568 -5.272,-6.568 -18.896002,-22.672 -20.318667,-24.01067 -27.609333,-36.18267 -29.797333,-49.724 -0.74,-4.55733 -0.484,-11.66133 0.578667,-16.05733 2.733333,-11.31734 11.066666,-21.10933 23.311999,-27.38533 5.844,-2.99467 10.406669,-4.53734 17.473329,-5.912 4.376,-0.848 16.39067,-1.18667 21.048,-0.59867 9.9,1.26 19.416,4.66667 26.06267,9.33333 4.28533,3.00534 8.156,7.584 8.156,9.64533 0,0.31334 -0.42267,1.11467 -0.93733,1.776 -1.68267,2.15734 -3.68267,1.516 -7.84934,-2.53066 -3.76533,-3.65067 -9.37466,-6.90133 -15.844,-9.188 -5.396,-1.9 -8.68266,-2.5 -13.59866,-2.48933 -3.25067,0.005 -4.37067,0.16666 -6.03734,0.87466 -2.54666,1.07867 -4.85866,3.636 -5.23333,5.792 -0.51067,2.93734 0.92133,7.412 3.94267,12.30267 2.828,4.57733 5.68133,8.14 18.38,22.91066 11.92666,13.88534 21.47866,25.824 26.37466,32.97467 10.43734,15.23867 12.66134,30.932 6.308,44.53067 -6.18266,13.22933 -20.72933,22.53733 -40.29733,25.78666 -4.48933,0.74533 -18.10933,1.09867 -22.104,0.57333 z m 901.24397,0 c -7.4213,-0.97466 -14.96799,-3.23466 -20.98399,-6.27599 -7.63067,-3.86534 -16.364,-10.88534 -18.932,-15.21867 -1.86,-3.13067 -1.172,-6.14133 1.55733,-6.876 1.37467,-0.364 2.17734,0.20933 6.50534,4.68267 9.604,9.912 21.588,15.98933 33.53602,16.98933 10.188,0.86 15.136,-1.54667 15.0786,-7.33333 -0.043,-4.396 -2.068,-8.53067 -7.8026,-15.91067 -2.776,-3.568 -5.276,-6.568 -18.90136,-22.672 -20.312,-24.01067 -27.604,-36.18267 -29.796,-49.724 -0.74,-4.55733 -0.48,-11.66133 0.57734,-16.05733 2.73466,-11.31734 11.07333,-21.10933 23.31333,-27.38533 5.844,-2.99467 10.40529,-4.53734 17.47869,-5.912 4.3693,-0.848 16.3906,-1.18667 21.0413,-0.59867 9.9013,1.26 19.4173,4.66667 26.068,9.33333 4.2867,3.00534 8.1507,7.584 8.1507,9.64533 0,0.31334 -0.4214,1.11467 -0.9374,1.776 -1.6813,2.15734 -3.6813,1.516 -7.848,-2.53066 -3.7666,-3.65067 -9.3706,-6.90133 -15.844,-9.188 -5.3906,-1.9 -8.6773,-2.5 -13.5986,-2.48933 -3.2454,0.005 -4.3707,0.16666 -6.0374,0.87466 -2.5466,1.07867 -4.8586,3.636 -5.2346,5.792 -0.5094,2.93734 0.928,7.412 3.948,12.30267 2.824,4.57733 5.6826,8.14 18.376,22.91066 11.932,13.88534 21.4786,25.824 26.38,32.97467 10.4373,15.23867 12.656,30.932 6.3013,44.53067 -6.1813,13.22933 -20.7293,22.53733 -40.2907,25.78666 -4.4906,0.74533 -18.1146,1.09867 -22.1053,0.57333 z m -552.27064,-1.79733 c -9.98934,-1.36933 -18.724,-5.90133 -25.53067,-13.25466 -4.54667,-4.90667 -7.568,-10.516 -9.16667,-17.00534 -0.808,-3.26133 -0.92666,-4.552 -0.932,-10.00533 -0.0107,-5.25067 0.11867,-6.776 0.78534,-9.396 2.66666,-10.536 9.34933,-18.71333 19.98533,-24.45333 8.14,-4.39067 15.26533,-6.01067 26.276,-5.968 9.792,0.036 17.156,1.708 25.38533,5.75466 1.52533,0.75467 2.92133,1.27067 3.09867,1.156 0.432,-0.292 0.396,-25.03066 -0.0413,-28.68266 -0.87466,-7.244 -4.87466,-10.47334 -14.15066,-11.416 -7.37067,-0.75067 -16.16667,0.60933 -22.38133,3.46933 -4.192,1.92667 -7.53067,4.52533 -12.42134,9.66667 -4.88533,5.14 -6.27066,6.004 -8.77066,5.5 -3.23467,-0.65734 -5.09334,-4.42267 -3.88,-7.86534 0.588,-1.66666 3.932,-5.19733 6.68133,-7.04666 5.776,-3.88534 13.5,-7.15067 20.76667,-8.77067 14.28533,-3.19333 36.39599,-2.948 52.63999,0.57733 15.812,3.43334 26.516,10.93334 29.52134,20.69334 1.656,5.36933 1.74933,7.52133 1.99466,45.23466 0.22934,35.33334 0.244,35.85334 1.03067,38.94267 0.43733,1.724 1.448,4.604 2.24533,6.40133 0.79734,1.796 1.448,3.51467 1.448,3.81734 0,0.47333 -3.97466,0.536 -27.08933,0.45333 l -27.088,-0.1 -0.104,-4.89067 c -0.0573,-2.68666 -0.23467,-5.02533 -0.396,-5.20266 -0.16133,-0.172 -1.66667,0.59866 -3.33867,1.724 -6.75466,4.532 -15.15066,8.28666 -21.82266,9.77066 -3.584,0.792 -11.828,1.29733 -14.74533,0.896 z m 24.24533,-11.708 c 4.39066,-1.12 10.27066,-4.57866 14.26,-8.39066 l 1.71866,-1.64134 v -43.42133 l -3.172,-1.58267 c -4.364,-2.17733 -9.92666,-4.14666 -13.208,-4.672 -4.916,-0.792 -8.328,0.676 -9.776,4.208 -1.00533,2.45867 -1.36933,9.932 -1.35466,27.724 0.0213,17.896 0.30266,23.45867 1.28133,25.30667 1.5,2.81867 5.292,3.72933 10.25067,2.46933 z m 234.61466,11.37467 c -11.964,-2.344 -21.40133,-10.812 -24.896,-22.33333 -1.828,-6.02534 -1.78667,-5.10934 -2.01067,-48.13067 l -0.208,-40.31733 -5.256,-0.036 c -7.348,-0.052 -7.176,-0.0267 -8.364,-1.308 -1.74,-1.88 -1.364,-4.52 0.812,-5.73334 0.928,-0.52133 2.14134,-0.60533 6.964,-0.496 l 5.844,0.136 0.17734,-5.81733 0.18133,-5.81867 1.996,-0.78533 c 14.85867,-5.86533 31.54667,-13.98 44.64533,-21.704 1.73467,-1.02533 3.26533,-1.73866 3.40667,-1.588 0.13466,0.15067 -0.005,8.328 -0.31867,18.17734 -0.312,9.84799 -0.47333,18.06666 -0.35867,18.27066 0.12534,0.224 2.95867,0.23467 7.30667,0.0253 11.99467,-0.56666 12.276,-0.552 13.29733,0.72934 0.60934,0.76533 0.87467,1.57333 0.87467,2.66666 0,3.90134 -1.364,4.464 -9.38533,3.86534 -3.30667,-0.25067 -7.40667,-0.396 -9.09867,-0.324 l -3.07867,0.13066 0.0987,35.62 c 0.12,41.48934 0.444,55.45334 1.34933,58.224 0.776,2.35467 2,3.42667 3.92267,3.42667 4.51467,0 9.87467,-5.94267 13.47333,-14.93733 1.98934,-4.984 3.54134,-6.80134 5.50534,-6.45867 1.64,0.28667 2.19333,0.81867 2.68266,2.584 1.10934,3.99467 -3.276,13.24 -9.448,19.916 -5.89066,6.37067 -13.45866,10.38133 -22.656,12.01067 -4.01599,0.71333 -13.82933,0.71333 -17.45866,0.005 z m 176.72399,0.14533 c -12.57866,-1.536 -24.11466,-7.83333 -33.36533,-18.21866 -5.124,-5.74934 -8.41066,-11.31734 -11.34266,-19.18667 -5.14667,-13.83333 -5.5,-27.328 -1.1,-41.59467 6.61466,-21.45733 23.27599,-36.83333 43.99066,-40.60933 4.62933,-0.84267 13.59333,-0.828 18.02533,0.032 12.07867,2.33867 21.70267,7.82267 30.568,17.416 9.74,10.53733 15.224,24.844 15.33334,39.964 l 0.036,5.28667 -32.24934,0.208 c -17.74,0.11466 -32.45866,0.344 -32.704,0.51066 -0.56266,0.37467 -0.63466,33.85467 -0.0933,39.89067 0.36933,4.104 0.80667,5.37467 2.41733,7.02533 1.676,1.724 3.588,2.37067 7.552,2.56267 8.89467,0.428 19.30134,-3.31733 28.33734,-10.20267 4.136,-3.15066 10.464,-9.93733 14.24533,-15.28133 4.30267,-6.07333 6.12533,-7.016 8.54667,-4.40133 1.06266,1.152 1.22933,1.59466 1.22933,3.22933 -0.0107,3.57333 -2.692,8.136 -8.07733,13.71867 -13.568,14.068 -33.76134,21.79733 -51.34934,19.65066 z m 21.66134,-63.51466 c 0.51066,-0.33867 0.59333,-25.31867 0.12,-37.084 -0.24534,-6.13467 -0.36534,-7.04134 -1.084,-8.296 -2.11467,-3.69867 -4.776,-4.772 -11.82267,-4.772 -4.844,0 -5.16667,0.048 -7.172,1.11466 -1.36933,0.724 -2.40667,1.60934 -2.968,2.54267 -1.62533,2.676 -1.81333,5.39067 -1.81333,26.676 l -0.005,19.76667 1.99467,0.25466 c 2.68267,0.344 22.19333,0.172 22.75067,-0.20266 z m -720.57865,60.97333 c -0.124,-0.344 -0.12,-2.77067 0.0107,-5.38533 0.188,-3.74934 0.27066,-100.31734 0.0933,-107.50534 l -0.0413,-1.76 h 50.01066 l 0.18267,6.84934 c 0.10933,4.18666 0.32266,6.848 0.54133,6.84266 0.19733,-0.004 2.40133,-1.47333 4.89067,-3.26533 5.38,-3.864 13.20266,-8.088 18.484,-9.968 16.62533,-5.93333 33.62533,-4.464 44.39066,3.83333 2.948,2.27067 5.188,5.06267 7.14134,8.88 0.85333,1.67734 1.744,3.05734 1.97866,3.06267 0.22934,0.005 2.188,-1.35467 4.34934,-3.02667 10.16133,-7.85333 20.13466,-12.916 29.47333,-14.96266 4.756,-1.04267 12.224,-1.67734 16.12533,-1.376 13.54133,1.04266 22.07867,5.59466 27.536,14.67733 4.52133,7.52667 5.33867,14.73467 4.91733,43.448 -0.12533,8.50533 -0.0947,25.312 0.072,37.34933 0.16667,12.04134 0.22,22.12534 0.11467,22.41067 -0.15067,0.428 -4.67067,0.52133 -25,0.52133 -13.64533,0 -24.86933,-0.13066 -24.94267,-0.292 -0.072,-0.16133 0.005,-9.896 0.172,-21.62933 0.53734,-37.23467 0.52667,-73.07333 -0.0147,-75.61467 -0.52667,-2.49466 -1.55734,-4.344 -3.084,-5.568 -0.89067,-0.71333 -1.536,-0.81733 -4.896,-0.81733 -4.34934,0 -5.98934,0.46267 -10.744,3.02 -3,1.62 -8.05733,5.224 -10.43867,7.44267 l -1.36933,1.276 -0.0773,46.09466 -0.0787,46.088 h -24.71333 c -13.58934,0 -24.78134,-0.13066 -24.87067,-0.292 -0.0827,-0.16133 -0.052,-16.76533 0.0733,-36.896 0.12534,-20.124 0.14667,-42.41066 0.0467,-49.51466 -0.172,-12.07867 -0.23333,-13.016 -0.932,-14.45334 -2.02133,-4.16133 -8.52533,-4.40133 -16.052,-0.59466 -3.32267,1.68266 -8.97333,5.63066 -11.64533,8.14133 l -1.63067,1.53067 v 91.88533 l -24.92667,0.1 c -22.63599,0.088 -24.94266,0.0413 -25.14666,-0.532 z m 377.77066,0.33333 c -0.0667,-0.16133 -0.02,-15.26533 0.10933,-33.568 0.136,-18.296 0.13067,-44.01466 0,-57.14533 -0.13467,-13.13467 -0.14533,-24.01067 -0.0253,-24.17733 0.11466,-0.16134 11.37466,-0.24934 25.016,-0.192 l 24.80133,0.0987 0.0947,9.984 c 0.0467,5.48934 0.16134,10.17734 0.244,10.42267 0.084,0.244 2.97467,-2.57867 6.42667,-6.27067 3.45333,-3.69333 7.40667,-7.62 8.78133,-8.724 3.28134,-2.63066 7.98,-5.26666 11.81334,-6.62 2.69733,-0.95333 3.64533,-1.08933 7.60933,-1.08933 5.12,-0.005 7.348,0.656 9.92133,2.948 3.77067,3.35467 3.552,9.052 -0.44266,11.58933 -1.416,0.9 -2.088,1.06667 -4.224,1.04667 -2.12534,-0.016 -3.068,-0.27067 -5.796,-1.54667 -2.98534,-1.396 -3.53734,-1.52666 -6.52667,-1.532 -8.584,-0.02 -15.984,5.55734 -26.10933,19.69334 l -1.792,2.49466 v 82.68667 l -24.89067,0.1 c -13.68666,0.052 -24.948,-0.032 -25.01466,-0.19867 z m 203.28132,0 c -0.072,-0.16133 -0.009,-8.66133 0.14134,-18.88533 0.21866,-15.02533 0.30133,-61.312 0.156,-90.62 l -0.0267,-5.47867 h 50.01067 l -0.036,3.916 c -0.0213,2.152 -0.12534,28.048 -0.23467,57.53734 l -0.19733,53.62933 -24.83867,0.1 c -13.66133,0.052 -24.90133,-0.032 -24.97467,-0.19867 z m 18.81334,-123.02 c -9.75067,-0.93333 -16.09467,-4.568 -17.828,-10.19866 -0.808,-2.62 -0.61467,-7.75467 0.37466,-9.932 2.52534,-5.59867 9.59334,-8.59867 21.38,-9.07867 14.45867,-0.588 23.76534,2.52667 26.91734,9.01067 0.83733,1.724 0.97333,2.48 0.97333,5.33867 0,2.85466 -0.136,3.60933 -0.97333,5.33866 -1.59467,3.276 -5.16667,6.06267 -9.88667,7.708 -4.708,1.64133 -14.21333,2.464 -20.95733,1.81333 z"
     style="fill:#030303;fill-opacity:1;fill-rule:nonzero;stroke:none;stroke-width:1.33333" />
</svg>
