<?xml version="1.0" encoding="UTF-8" standalone="no"?>
<!-- Created with Inkscape (http://www.inkscape.org/) -->

<svg
   version="1.1"
   id="svg1"
   width="1122.5197"
   height="793.70074"
   viewBox="0 0 1122.5197 793.70074"
   xmlns="http://www.w3.org/2000/svg"
   xmlns:svg="http://www.w3.org/2000/svg">
  <defs
     id="defs1">
    <clipPath
       clipPathUnits="userSpaceOnUse"
       id="clipPath4">
      <path
         d="m 4.285,112.063 h 833.57 V 392.778 H 4.285 Z"
         id="path4" />
    </clipPath>
  </defs>
  <g
     id="g1">
    <path
       id="path3"
       d="m 495.594,373.055 c -0.172,-0.207 -0.942,-4.035 -1.711,-8.504 -7.133,-41.403 -14.414,-100.043 -15.094,-121.535 l -0.062,-1.965 -5.836,-0.141 -5.832,-0.14 -0.086,-1.922 c -0.098,-2.317 0.156,-2.711 1.757,-2.711 0.653,0 2.043,-0.266 3.09,-0.586 1.637,-0.504 2.141,-0.832 3.575,-2.317 1.39,-1.437 1.777,-2.062 2.289,-3.695 1.312,-4.172 1.328,-4.351 1.183,-12.91 -0.328,-19.184 -0.137,-22.797 1.531,-28.637 1.258,-4.406 4.071,-9.281 6.711,-11.629 1.883,-1.675 5.36,-3.316 7.801,-3.687 3.606,-0.543 7.406,0.191 11.324,2.187 3.02,1.539 4.016,2.336 8.266,6.629 2.41,2.434 4.445,4.238 5.199,4.613 l 1.239,0.614 0.625,-0.59 c 1.183,-1.125 1.699,-3.621 2.253,-10.906 l 0.2,-2.668 1.554,-0.082 c 1.145,-0.063 1.649,0.031 1.914,0.355 0.278,0.336 0.368,2.5 0.391,9.348 0.027,7.543 -0.047,9.328 -0.477,11.664 -1.644,8.898 -5.421,13.832 -11.886,15.523 -2.168,0.571 -7.477,0.645 -9.77,0.137 -3.332,-0.734 -6.66,-2.668 -9.926,-5.77 -2.265,-2.148 -4.015,-3.253 -6.308,-3.988 -2.82,-0.906 -3.551,-0.863 -4.676,0.274 -1.375,1.39 -1.508,2.625 -0.57,5.382 2.648,7.778 9.812,14.254 19.054,17.215 5.7,1.825 7.844,2.094 18.2,2.274 l 9.449,0.16 v 15.723 l -6.949,0.14 -6.946,0.141 -0.191,4.488 c -0.598,14.152 -2.375,29.328 -7.891,67.375 -3.086,21.289 -8.105,51.895 -9.644,58.809 l -0.344,1.543 -1.547,0.082 c -1.043,0.058 -1.652,-0.039 -1.859,-0.293 z m 129.445,-7.625 c -0.195,-0.235 -0.293,-1.071 -0.242,-2.035 l 0.082,-1.637 6.113,-0.176 c 6.301,-0.18 7.77,-0.418 10.141,-1.66 1.39,-0.723 3.738,-3.258 4.551,-4.91 1.039,-2.102 2.039,-5.879 2.39,-9.004 0.219,-1.977 0.285,-17.922 0.227,-55.274 l -0.082,-52.492 -0.578,-1.262 c -0.743,-1.621 -1.227,-2.003 -2.723,-2.175 -1.566,-0.176 -3.762,0.527 -5.656,1.812 -1.407,0.953 -1.485,0.973 -2.153,0.531 -0.976,-0.648 -1.629,-1.73 -1.343,-2.242 0.226,-0.41 6.265,-5.554 11.898,-10.136 6.035,-4.911 13.43,-10.989 15.09,-12.403 0.965,-0.824 1.926,-1.496 2.137,-1.496 0.492,0 1.238,0.715 3.675,3.512 3.981,4.57 12.457,11.773 16.93,14.39 1.047,0.61 2.777,1.457 3.848,1.883 2.59,1.028 2.679,1.121 2.582,2.649 l -0.082,1.289 -2.008,0.179 c -3.297,0.297 -5.578,1.141 -6.969,2.571 -2.304,2.371 -2.129,-1.18 -2.222,45.109 -0.055,28.227 0.011,41.957 0.218,43.777 0.5,4.403 2.254,10.59 4.203,14.813 0.442,0.957 0.805,1.824 0.805,1.93 0,0.593 4.121,7.054 5.664,8.879 1.012,1.191 1.836,2.347 1.836,2.57 0,0.59 -1.601,1.859 -2.344,1.859 -1.047,0 -4.843,-5.277 -7.265,-10.105 -0.907,-1.809 -2.262,-5.063 -2.485,-5.965 -0.281,-1.133 -0.535,-0.949 -0.953,0.687 -0.203,0.801 -0.98,2.688 -1.726,4.196 -3.196,6.453 -7.141,10.273 -14.539,14.086 -5.606,2.886 -10.446,4.465 -16.95,5.531 -6.546,1.07 -21.382,1.555 -22.07,0.719 z m 128.766,-37.145 c -4.496,-2.969 -15.254,-7.359 -22.801,-9.305 -4.051,-1.046 -9.277,-1.773 -13.043,-1.816 -3.129,-0.035 -3.883,0.051 -5.641,0.629 -2.183,0.727 -4.23,2.301 -5.34,4.113 -0.328,0.535 -0.792,0.973 -1.035,0.973 -0.66,0 -2.847,-1.375 -2.847,-1.789 0,-0.199 0.668,-1.235 1.484,-2.305 6.445,-8.43 18.52,-27.82 18.52,-29.746 0,-0.18 -1.032,-0.867 -2.293,-1.531 -7.102,-3.735 -10.735,-7.289 -13.555,-13.278 -1.449,-3.074 -1.945,-5.082 -2.133,-8.648 -0.414,-7.898 2.313,-15.047 8.324,-21.824 1.11,-1.25 6.391,-6.473 11.743,-11.602 5.347,-5.129 12.359,-11.953 15.585,-15.164 3.223,-3.211 5.95,-5.84 6.059,-5.84 0.109,0 1.598,1.426 3.309,3.172 4.812,4.903 8.644,7.203 13.781,8.27 1.766,0.367 2.48,0.383 4.394,0.105 7.832,-1.136 13.403,-4.406 15.039,-8.832 1.649,-4.453 1.239,-9.402 -1.171,-14.082 -1.032,-2.008 -5.09,-6.269 -7.539,-7.91 -3.754,-2.52 -7.918,-4.277 -12.922,-5.453 -3.414,-0.805 -9.875,-1.008 -13.418,-0.418 -5.934,0.984 -12,3.555 -15.934,6.746 -5.652,4.582 -8.172,8.813 -9.871,16.578 l -0.371,1.684 h -3.891 l 0.098,-2.246 c 0.355,-8.352 4.535,-15.778 11.508,-20.45 6.554,-4.39 12.336,-6.289 21.074,-6.921 6.035,-0.434 11.734,0.195 16.676,1.843 6.664,2.227 14.422,7.985 18.406,13.66 1.77,2.52 3.914,6.829 4.781,9.606 1.461,4.672 1.891,10.766 1.09,15.41 -0.527,3.063 -0.988,4.461 -2.558,7.766 -1.59,3.343 -2.665,4.929 -6.098,8.992 -4.86,5.75 -7.231,9.234 -6.555,9.625 0.113,0.066 0.707,0.203 1.32,0.308 6.231,1.071 12.262,5.579 15.614,11.672 2.258,4.11 3.14,7.731 3.14,12.907 0,5.445 -0.82,8.976 -3.117,13.394 -2.59,4.992 -4.429,7.215 -11.344,13.703 -14.867,13.949 -18.093,17.438 -25.64,27.719 -0.906,1.234 -1.328,1.277 -2.828,0.285 z m 17.886,-23.582 c 1.145,-2.273 1.758,-4.926 1.907,-8.25 0.175,-3.91 -0.215,-6.953 -1.364,-10.629 -1.011,-3.219 -2.214,-5.48 -4.382,-8.242 -4.004,-5.09 -8.364,-7.18 -14.215,-6.809 -8.981,0.571 -16.34,5.004 -22.883,13.786 -1.481,1.984 -3.762,5.664 -3.762,6.062 0,0.094 1.469,0.262 3.266,0.367 13.578,0.817 26.914,5.512 38.965,13.727 0.84,0.57 1.617,1.039 1.73,1.039 0.113,0 0.445,-0.473 0.738,-1.051 z m -18.128,-39.215 c 4.269,-1.363 7.628,-3.445 11.582,-7.175 3.332,-3.149 8.519,-10.489 7.871,-11.145 -0.106,-0.105 -0.539,0.012 -0.965,0.266 -3.653,2.179 -10.121,3.019 -15.684,2.039 -6.941,-1.223 -16.187,-6.434 -22.281,-12.563 l -2.492,-2.508 -1.172,1.254 c -4.098,4.379 -2.75,15.453 2.68,22.024 3.257,3.941 6.503,6.152 11.527,7.851 2.434,0.821 3.035,0.922 4.766,0.797 1.089,-0.078 2.964,-0.457 4.168,-0.84 z m -518.969,59.707 c -4.278,-5.226 -10.262,-10.914 -13.578,-12.906 -2.321,-1.391 -4.828,-2.605 -7.368,-3.566 -3.968,-1.5 -3.789,-1.356 -3.691,-3.055 l 0.082,-1.457 2.5,-0.012 c 3.145,-0.011 4.524,-0.457 5.941,-1.922 0.844,-0.867 1.247,-1.609 1.622,-2.98 0.461,-1.695 0.496,-3.758 0.496,-29.332 0,-25.567 -0.035,-27.625 -0.493,-29.125 -1.554,-5.078 -7.246,-6.363 -11.507,-2.598 -0.785,0.696 -1.5,1.262 -1.586,1.262 -0.336,0 -1.559,-2.262 -1.551,-2.871 0.004,-0.449 0.867,-1.41 2.965,-3.305 1.629,-1.465 4.351,-3.93 6.054,-5.473 12.59,-11.414 18.047,-16.316 18.411,-16.527 0.562,-0.324 1.636,0.215 5.445,2.731 6.621,4.379 9.629,7.421 12.277,12.429 0.879,1.66 2.071,5.684 2.098,7.082 0.043,2.325 0.012,2.344 6.254,-3.265 17.707,-15.903 20.551,-18.422 21.211,-18.805 0.691,-0.402 0.844,-0.352 3.347,1.051 5.743,3.222 10.286,6.855 12.645,10.113 2.41,3.324 4.301,8.363 4.316,11.508 0.012,2.207 0.161,2.183 3.766,-0.52 3.957,-2.968 20.906,-15.609 26.34,-19.64 2.113,-1.574 3.945,-2.86 4.066,-2.86 0.121,0 1.086,1.11 2.149,2.469 6.254,8 14.414,14.774 20.8,17.274 l 1.645,0.644 v 3.055 l -1.93,0.191 c -3.125,0.313 -5.656,1.27 -6.972,2.637 -2.035,2.117 -1.914,0.246 -2.004,31.277 l -0.086,27.93 0.621,1.773 c 1.625,4.645 5.273,5.95 9.832,3.516 0.754,-0.402 1.914,-1.125 2.578,-1.605 l 1.211,-0.872 0.672,0.84 c 0.391,0.489 0.641,1.129 0.598,1.528 -0.059,0.523 -3.512,3.586 -14.665,13.007 -8.023,6.778 -14.863,12.457 -15.203,12.622 -0.718,0.343 -1.543,-0.137 -5.234,-3.028 -5.656,-4.437 -9.895,-10.582 -11.328,-16.41 -0.934,-3.801 -1.016,-6.762 -1.02,-37.207 0,-32.395 0.008,-32.164 -1.343,-34.504 -1.086,-1.879 -3.625,-2.449 -5.907,-1.328 -0.675,0.332 -2.82,1.805 -4.769,3.273 l -3.543,2.668 v 29.43 c 0,25.922 0.055,29.582 0.433,30.711 0.567,1.68 1.137,2.16 3.243,2.742 l 1.742,0.481 0.086,1.429 c 0.093,1.649 -0.02,1.746 -3.305,2.836 -3.129,1.039 -6.168,3.149 -9.707,6.742 -3.461,3.516 -4.859,5.461 -6.824,9.5 -0.696,1.426 -1.426,2.598 -1.621,2.598 -0.2,0 -1.489,-1.422 -2.867,-3.16 -5.512,-6.953 -13.551,-13.695 -18.934,-15.879 -1.109,-0.449 -2.141,-0.945 -2.293,-1.098 -0.148,-0.152 -0.234,-0.898 -0.188,-1.652 l 0.086,-1.371 1.805,-0.172 c 2.32,-0.223 3.031,-0.531 4.106,-1.762 1.949,-2.246 1.855,-0.625 1.945,-33.832 0.07,-26.789 0.031,-30.011 -0.367,-31.226 -0.801,-2.434 -2.899,-3.41 -5.629,-2.617 -1.914,0.554 -3.215,1.296 -6.778,3.875 l -2.722,1.972 v 29.602 c 0,21.351 0.086,29.902 0.316,30.672 0.453,1.531 1.758,2.675 3.574,3.132 l 1.528,0.387 0.086,1.34 c 0.097,1.563 -0.176,1.988 -1.567,2.438 -7.742,2.507 -14.23,8.554 -18.73,17.445 -0.606,1.203 -1.211,2.183 -1.34,2.183 -0.129,0 -1.137,-1.105 -2.242,-2.453 z m 174.457,0.024 c -10.387,-9.844 -21.731,-16.719 -34.66,-21.008 -4.661,-1.547 -4.723,-1.586 -4.723,-3.102 0,-1.433 0.137,-1.531 2.828,-2.082 1.305,-0.265 1.766,-0.531 2.688,-1.543 2.246,-2.461 2.109,-0.23 2.199,-35.937 0.043,-17.442 0.176,-31.809 0.289,-31.922 0.113,-0.113 3.246,-0.34 6.961,-0.5 13.121,-0.562 20.715,-1.816 30.047,-4.961 7.047,-2.375 13.539,-6.07 18.847,-10.734 1.43,-1.25 2.696,-2.278 2.821,-2.278 0.871,0 7.578,5.457 10.574,8.602 6.172,6.476 8.828,12.453 10.469,23.543 0.437,2.976 0.496,5.523 0.496,22.035 0,19.973 -0.082,21.461 -1.539,27.746 -0.789,3.395 -3,7.59 -5.121,9.723 -3.086,3.101 -9.059,5.703 -17.004,7.406 -6.668,1.426 -9.707,3.102 -15.02,8.285 -2.781,2.711 -4.492,4.895 -6.574,8.387 -0.254,0.422 -0.586,0.769 -0.738,0.769 -0.153,0 -1.43,-1.093 -2.84,-2.429 z m 17.316,-79.051 c -0.804,-6.215 -3.422,-10.195 -8.351,-12.703 -1.547,-0.789 -7.59,-2.942 -8.254,-2.942 -0.293,0 -0.36,5.582 -0.36,29.852 0,28.078 0.028,29.879 0.485,30.285 0.269,0.238 1.238,0.813 2.156,1.278 1.91,0.968 6.289,4.125 11.113,8.007 l 3.332,2.684 0.082,-27.141 c 0.047,-17.226 -0.027,-27.937 -0.203,-29.32 z m 152.852,79.16 c -6.66,-6.414 -13.258,-11.191 -21.184,-15.336 -5.027,-2.629 -8.219,-3.996 -13.18,-5.64 -5.121,-1.704 -5.14,-1.715 -5.14,-3.243 0,-1.429 0.14,-1.531 2.801,-2.074 1.242,-0.254 1.777,-0.551 2.699,-1.5 2.297,-2.367 2.125,0.305 2.281,-35.851 l 0.141,-32.145 3.332,-0.195 c 1.836,-0.11 5.734,-0.336 8.668,-0.504 18.687,-1.067 33.453,-6.176 43.535,-15.059 3.219,-2.836 3.043,-2.738 4.016,-2.23 0.933,0.484 5.566,4.09 7.687,5.976 3.027,2.696 7.09,8.039 8.813,11.59 3.496,7.211 4.648,16.125 4.656,35.934 0.004,18.402 -0.938,27.496 -3.344,32.32 -2.055,4.113 -3.809,6.098 -7.137,8.063 -3.746,2.207 -6.195,3.027 -15.984,5.328 -2.949,0.695 -5.789,2.054 -8.399,4.015 -3.175,2.395 -7.328,6.805 -9.406,9.996 -1.027,1.582 -2,2.875 -2.16,2.875 -0.156,0 -1.371,-1.043 -2.695,-2.32 z m 17.172,-79.48 c -0.758,-5.41 -2.946,-9.164 -6.75,-11.594 -1.625,-1.035 -8.664,-3.731 -9.746,-3.731 -0.094,0 -0.168,13.504 -0.168,30.012 v 30.008 l 2.293,1.305 c 2.832,1.609 6.195,4.019 10.906,7.82 l 3.613,2.914 0.078,-27.258 c 0.059,-19.008 -0.012,-27.929 -0.226,-29.476 z m -479.157,81.215 c -7.07,-0.622 -14.535,-2.11 -19.824,-3.95 -17.914,-6.226 -31.539,-18.343 -40.355,-35.886 -8.364,-16.645 -10.973,-42.082 -6.235,-60.77 3.719,-14.656 13.2,-29.75 24.817,-39.519 11.691,-9.833 25.359,-14.805 40.703,-14.805 6.781,0 12.894,0.93 19.547,2.965 5.625,1.722 6.535,2.136 28.582,13.035 3.668,1.812 8.789,4.34 11.379,5.621 2.769,1.367 5.183,2.375 5.871,2.453 1.625,0.188 4.523,-0.84 6.238,-2.211 2.922,-2.332 4.309,-4.828 5.742,-10.351 l 0.258,-0.985 1.789,0.086 c 0.984,0.047 1.899,0.195 2.031,0.328 0.137,0.137 -0.082,1.383 -0.496,2.864 -5.734,20.41 -17.824,31.593 -36.343,33.621 -9.063,0.996 -17.973,-0.875 -31.34,-6.579 -16.758,-7.156 -22.844,-9.23 -30.422,-10.382 -8.594,-1.309 -18.231,0.476 -25.008,4.632 -8.379,5.137 -15.352,13.926 -18.48,23.293 -1.942,5.801 -2.813,13.188 -2.27,19.235 0.828,9.297 3.738,16.101 9.426,22.074 7.926,8.32 16.664,12.711 31.164,15.66 10.215,2.074 17.922,2.692 30.73,2.449 13.301,-0.25 21.282,-0.886 30.594,-2.445 15.227,-2.543 24.426,-6.273 30.395,-12.328 2.687,-2.723 4.191,-5.109 5.32,-8.434 0.844,-2.48 0.906,-2.929 0.918,-6.457 0.015,-4.441 -0.43,-6.074 -2.524,-9.285 -3.925,-6.023 -9.894,-8.387 -16.496,-6.527 -4.363,1.226 -7.82,3.492 -18.285,11.992 -13.031,10.586 -15.887,12.582 -22.258,15.574 -4.339,2.039 -8.922,3.528 -13.222,4.289 -3.203,0.571 -4.539,0.641 -11.809,0.653 -6.949,0.007 -8.551,-0.071 -10.516,-0.508 -3.41,-0.758 -5.398,-1.457 -8.656,-3.051 -4.293,-2.098 -6.726,-3.859 -10.14,-7.355 -5.43,-5.555 -8.672,-12.196 -9.606,-19.688 -0.461,-3.719 -0.199,-9.715 0.551,-12.621 0.797,-3.086 3.262,-7.969 5.383,-10.672 2.742,-3.5 7.043,-6.285 11.726,-7.598 2.207,-0.621 10.239,-0.855 14.004,-0.414 5,0.586 10.574,2.278 13.746,4.168 1.157,0.692 1.184,0.95 0.309,3.063 -0.477,1.156 -0.883,1.168 -3.516,0.105 -4.707,-1.894 -11.73,-3.39 -15.933,-3.39 -6.223,0 -11.926,1.797 -15.825,4.976 -4.277,3.489 -6.285,7.864 -6.285,13.688 0,4.554 1.879,8.871 4.914,11.277 1.227,0.973 2.239,1.344 4.836,1.781 1.61,0.274 2.094,0.231 4.446,-0.379 1.453,-0.375 3.461,-1.062 4.464,-1.527 2.043,-0.949 8.547,-5 22.645,-14.105 11.742,-7.586 23.785,-11.149 35.547,-10.524 6.601,0.356 13.726,1.578 17.887,3.078 2.316,0.832 7.406,3.09 8.73,3.868 0.734,0.429 1.395,0.781 1.473,0.781 0.273,0 4.457,2.937 6.226,4.375 6.266,5.082 10.547,12.34 11.985,20.328 0.55,3.047 0.464,12.684 -0.145,16.984 -0.824,5.766 -2.164,11.164 -3.699,14.875 -1.559,3.774 -4.102,8.575 -5.859,11.067 -5.235,7.429 -14.708,15.347 -23.821,19.925 -7.945,3.989 -14.457,5.918 -24.308,7.2 -4.18,0.543 -16.305,0.765 -20.7,0.383 z m 543.7,-121.372 c -4.661,-3.543 -8.184,-7.703 -10.231,-12.082 -1.414,-3.031 -1.789,-4.699 -1.789,-7.964 0,-3.903 1.129,-6.805 3.633,-9.34 1.539,-1.567 5.223,-3.438 7.601,-3.871 2.317,-0.422 6.157,-0.371 7.95,0.101 5.14,1.36 10.234,6.473 11.363,11.41 0.477,2.098 0.355,5.426 -0.262,7.289 -1.082,3.235 -4.07,7.395 -6.992,9.735 -2.566,2.051 -8.809,5.972 -9.508,5.972 -0.062,0 -0.859,-0.562 -1.765,-1.25 z"
       style="fill:#000000;fill-opacity:1;fill-rule:nonzero;stroke:none"
       transform="matrix(1.3333333,0,0,1.3333333,1.2054902,-12.6057)"
       clip-path="url(#clipPath4)" />
  </g>
</svg>
