<?xml version="1.0" encoding="UTF-8" standalone="no"?>
<!-- Created with Inkscape (http://www.inkscape.org/) -->

<svg
   version="1.1"
   id="svg1"
   width="1122.5197"
   height="793.70074"
   viewBox="0 0 1122.5197 793.70074"
   xmlns="http://www.w3.org/2000/svg"
   xmlns:svg="http://www.w3.org/2000/svg">
  <defs
     id="defs1" />
  <path
     id="path2"
     d="m 234.96933,572.46932 c -3.06267,-0.60933 -3.36534,-0.808 -3.69334,-2.40667 -0.536,-2.60933 -0.54666,-6.55733 -0.0253,-6.896 0.25467,-0.16133 1.56667,0.0467 2.92133,0.46934 7.09334,2.20266 12.588,1.604 14.448,-1.57334 1.03067,-1.76533 1.464,-5.04133 0.76,-5.776 -0.18266,-0.188 -1.49466,0.30667 -2.92133,1.10934 -2.24533,1.25466 -3.16133,1.42133 -6.86,1.25466 -3.672,-0.16133 -4.604,-0.432 -6.67733,-1.932 -3.55734,-2.568 -5.19734,-6.344 -5.18134,-11.90133 0.0147,-3.58267 0.296,-4.96267 1.56267,-7.66667 1.84267,-3.92666 5.552,-7.51066 9.16667,-8.86933 3.52,-1.31733 13.57733,-1.69333 19.312,-0.71867 l 4.448,0.76 -0.0893,5.5 c -0.26533,15.76534 -1.192,31.11467 -2.004,33.12 -0.94266,2.33334 -3.59466,4.64534 -6.47466,5.65067 -2.38534,0.83333 -14.26534,0.75067 -18.692,-0.124 z m 12.364,-23.34933 c 1.844,-1.21334 2.93733,-3.86934 3.312,-8.05734 0.44266,-4.93733 -0.16667,-5.76533 -3.91067,-5.30266 -4.76133,0.58933 -7.59467,3.71333 -7.59867,8.38533 0,3.19867 0.76,4.64667 2.96267,5.64133 1.86533,0.83867 3.19867,0.66667 5.23467,-0.66666 z m -102.24533,9.156 c -4.56667,-1.58267 -6.452,-2.77067 -8.18134,-5.14 l -1.55733,-2.136 0.124,-9.02667 c 0.068,-4.968 0.31867,-12.552 0.55333,-16.85867 l 0.432,-7.828 h 12.244 l -0.276,6.95867 c -0.156,3.828 -0.28133,10.41067 -0.28133,14.63467 0,7.532 0.0267,7.69866 1.48533,9.21333 2.88534,3.01067 9.10934,2.36533 11.33334,-1.172 1.03066,-1.64533 1.85866,-8.86933 2.38,-20.80667 l 0.38533,-8.828 6.34933,-0.16666 6.34267,-0.16667 -0.37467,7.416 c -1.28666,25.548 -1.63466,27.47467 -5.54133,30.57867 -3.82267,3.036 -7.21867,3.97866 -15.12533,4.192 -5.89067,0.16266 -7.80134,0 -10.292,-0.864 z m 134.21866,-0.0107 c -5.73867,-2.13467 -8.744,-6.96267 -8.708,-14.01067 0.052,-10.89466 6.39067,-17.4 16.95333,-17.4 9.46934,0 15.036,4.65067 15.20267,12.70267 0.0427,1.78667 -0.124,3.57333 -0.364,3.97333 -0.32267,0.532 -2.984,0.724 -10.156,0.724 -10.62,0 -10.87067,0.084 -9.83867,3.308 1.156,3.62 6.87467,4.89067 13.95334,3.104 1.62,-0.40666 3.08266,-0.604 3.244,-0.43733 0.5,0.52133 -0.43734,6.68267 -1.176,7.73467 -0.58934,0.83866 -1.912,1.02533 -8.428,1.20266 -6.516,0.172 -8.18667,0.0307 -10.68267,-0.90133 z m 12.532,-19.61467 c 0.948,-2.57733 -2.88533,-5.58266 -5.76,-4.51466 -1.844,0.68666 -3.79733,3.348 -3.34933,4.56133 0.50533,1.376 8.59866,1.33333 9.10933,-0.0467 z m 63.724,19.45334 c -4.328,-2.23467 -4.71334,-4.156 -3.83867,-19.068 l 0.66133,-11.312 h 11.13067 l -0.0427,3.47866 c -0.02,1.91734 -0.14533,6.308 -0.276,9.76667 -0.228,6.04667 -0.18666,6.32267 1.07334,7.39467 1.95866,1.652 4.584,1.43333 6.39066,-0.53067 1.79734,-1.95333 2.584,-6.06267 2.58934,-13.47333 0.004,-6.83334 0.176,-7.016 6.41066,-6.80267 l 5,0.16667 -0.16666,6.088 c -0.088,3.34933 -0.344,10.26666 -0.55734,15.37066 l -0.38533,9.28134 -5.16133,0.16666 c -4.24534,0.14 -5.20267,0.009 -5.42134,-0.724 -0.90666,-2.99466 -0.772,-2.89066 -2.10533,-1.58933 -3.27067,3.20933 -10.83333,4.08933 -15.30133,1.78667 z m 40.896,0.672 c -1.16134,-0.23467 -2.328,-0.66134 -2.584,-0.948 -0.73467,-0.812 -1.32267,-7.588 -0.692,-7.99467 0.296,-0.19333 1.604,0.036 2.90133,0.516 2.828,1.04133 7.296,1.13467 8.22267,0.172 1.31333,-1.37067 0.61466,-2.568 -3.24934,-5.584 -4.68266,-3.65067 -6.09333,-5.82267 -6.09333,-9.38533 0,-3.328 1.468,-5.85867 4.23867,-7.292 1.81333,-0.93734 3.328,-1.10934 9.53733,-1.07734 4.06267,0.02 7.60933,0.28134 7.88533,0.57734 0.276,0.30266 0.588,2.24 0.68667,4.31333 0.172,3.49467 0.10533,3.76 -0.92667,3.604 -5.39066,-0.82267 -8.42133,-0.792 -9.12533,0.0933 -1.08267,1.36 -0.50533,2.308 3.104,5.084 4.28667,3.296 5.636,4.89067 6.28667,7.416 1.18266,4.568 -1.844,9.084 -6.97867,10.432 -2.656,0.69867 -9.91733,0.73467 -13.21333,0.0733 z m 32.28133,0 c -1.16667,-0.23467 -2.328,-0.66134 -2.58933,-0.948 -0.73334,-0.812 -1.31734,-7.588 -0.692,-7.99467 0.30133,-0.19333 1.604,0.036 2.90133,0.516 2.83333,1.04133 7.30133,1.13467 8.224,0.172 1.312,-1.37067 0.61333,-2.568 -3.25067,-5.584 -4.68266,-3.65067 -6.09333,-5.82267 -6.09333,-9.38533 0,-3.328 1.47333,-5.85867 4.244,-7.292 1.808,-0.93734 3.32267,-1.10934 9.53733,-1.07734 4.05734,0.02 7.604,0.28134 7.88,0.57734 0.276,0.30266 0.588,2.24 0.68667,4.31333 0.172,3.49467 0.10533,3.76 -0.92667,3.604 -5.38533,-0.82267 -8.416,-0.792 -9.12,0.0933 -1.08266,1.36 -0.50533,2.308 3.09867,5.084 4.28667,3.296 5.636,4.89067 6.28667,7.416 1.18266,4.568 -1.84267,9.084 -6.97867,10.432 -2.656,0.69867 -9.912,0.73467 -13.208,0.0733 z m 35.4,-0.292 c -3.16667,-1.432 -3.68133,-3.42134 -3.44267,-13.328 l 0.20934,-8.73467 -1.948,-0.28533 -1.948,-0.292 v -7.54134 l 2.04133,-0.17733 c 2.51067,-0.21333 3.10933,-0.91733 3.344,-3.88533 0.172,-2.25067 0.25467,-2.33334 2.916,-3.02134 1.50533,-0.38533 3.81333,-0.86933 5.12,-1.07333 l 2.38533,-0.37467 0.16133,3.98 0.16667,3.97334 3.06267,0.292 3.06266,0.28666 v 7.54134 l -3.33866,0.292 -3.344,0.28533 -0.156,6.02667 c -0.19734,7.432 0.38,8.51066 4.256,7.95866 l 2.432,-0.34933 -0.40134,3.33333 c -0.51066,4.29734 -0.97866,5.13067 -3.11466,5.57867 -3.036,0.62933 -9.61467,0.35333 -11.464,-0.48533 z m 30.53733,-0.21867 c -5.74533,-2.13467 -8.74533,-6.96267 -8.708,-14.01067 0.052,-10.89466 6.38533,-17.4 16.952,-17.4 9.46933,0 15.03733,4.65067 15.204,12.70267 0.036,1.78667 -0.12533,3.57333 -0.36533,3.97333 -0.32267,0.532 -2.984,0.724 -10.16134,0.724 -10.61466,0 -10.864,0.084 -9.83333,3.308 1.156,3.62 6.87467,4.89067 13.948,3.104 1.62533,-0.40666 3.08933,-0.604 3.25067,-0.43733 0.5,0.52133 -0.43734,6.68267 -1.17734,7.73467 -0.58933,0.83866 -1.912,1.02533 -8.42666,1.20266 -6.52134,0.172 -8.188,0.0307 -10.68267,-0.90133 z m 12.52533,-19.61467 c 0.95334,-2.57733 -2.88,-5.58266 -5.75466,-4.51466 -1.844,0.68666 -3.79734,3.348 -3.34934,4.56133 0.50534,1.376 8.59867,1.33333 9.104,-0.0467 z m 51.93734,19.78667 c -5.90534,-1.71867 -10.864,-5.776 -13.01467,-10.65067 -0.95333,-2.16666 -1.172,-3.79733 -1.18267,-8.76533 -0.005,-5.73467 0.104,-6.33333 1.82267,-9.97467 3.01067,-6.36933 8.57867,-10.53066 16.16133,-12.08266 3.74,-0.76134 16.016,-0.45867 16.808,0.42133 0.23467,0.26533 0.52,2.43733 0.62534,4.828 l 0.192,4.34933 -2.50534,-0.28666 c -5.88,-0.68267 -11.33866,-0.28134 -13.68266,1 -4.84267,2.65066 -7.19734,7.136 -6.796,12.92133 0.28133,4.1 2.24933,7.12533 5.672,8.74533 2.62933,1.25067 9.80666,1.50534 13.344,0.484 1.31733,-0.38533 2.35333,-0.416 2.67066,-0.088 0.60934,0.63467 -0.43733,8.26 -1.25466,9.11467 -0.948,0.99467 -15.416,0.984 -18.86,-0.016 z m 38.57333,-0.14533 c -6.38,-2.37067 -9.94267,-7.62534 -9.90667,-14.62 0.0267,-5 1.02667,-7.78134 3.97467,-11.068 3.14533,-3.50534 6.92667,-5.20267 12.45866,-5.59867 11.78134,-0.844 19.77067,6.56267 18.68667,17.31733 -0.624,6.24534 -3.76533,10.90667 -8.984,13.35467 -3.88533,1.81733 -12.14533,2.13467 -16.22933,0.61467 z m 11.204,-9.03734 c 4.15066,-4.32266 2.61333,-12.64533 -2.48534,-13.47866 -5.864,-0.95334 -9.53599,8.49466 -5.156,13.26 1.97867,2.152 5.688,2.26133 7.64134,0.21866 z m 47.32266,9.26134 c -3.03733,-1.40667 -5.28666,-4.912 -5.28666,-8.23467 0,-2.31733 2.088,-5.91733 4.33333,-7.46933 1.15067,-0.79067 4.916,-2.18667 8.36933,-3.09867 6.41734,-1.692 8.30267,-2.776 7.69867,-4.41067 -0.688,-1.87066 -3.12,-2.21866 -8.16133,-1.188 -2.6,0.53067 -5.41734,1.104 -6.256,1.27067 l -1.53067,0.30267 0.33867,-2.824 c 0.19733,-1.66134 0.75466,-3.208 1.35866,-3.76 2.06267,-1.88534 14.71334,-2.92134 19.70267,-1.61467 1.32933,0.34933 3.256,1.36533 4.28133,2.26133 l 1.86534,1.62934 -0.16134,9.19333 c -0.0893,5.05733 -0.33866,11.15067 -0.55733,13.54133 l -0.396,4.34934 -11.02133,0.33333 0.37066,-6.36 c 0.244,-4.17733 0.172,-6.49467 -0.20933,-6.73467 -0.73867,-0.47866 -6.09333,1.328 -7.364,2.48534 -1.12533,1.02 -1.28133,3.05733 -0.308,4.072 0.36533,0.38 1.652,0.69333 2.84933,0.69333 2.08934,0 2.172,0.0733 1.88,1.59333 -0.896,4.65067 -1.06666,4.792 -5.80133,4.76534 -2.38,-0.009 -5.07867,-0.36934 -5.99467,-0.796 z m -471.80265,-0.17734 c -0.13467,-0.25066 -0.02,-2.54133 0.256,-5.09333 0.276,-2.552 0.68133,-9.33867 0.9,-15.07867 l 0.396,-10.44266 5.43733,-0.16667 c 4.49467,-0.136 5.48,-0.0107 5.704,0.724 0.14534,0.49467 0.39067,1.30267 0.54134,1.79733 0.22933,0.76 0.55733,0.68134 2.088,-0.5 2.47999,-1.92266 5.03199,-2.724 8.64666,-2.724 4.25467,0 6.97867,0.98934 9.12933,3.312 l 1.844,1.984 -0.17733,12.83867 c -0.0933,7.06267 -0.296,13.04667 -0.448,13.30267 -0.15067,0.25466 -2.80133,0.46266 -5.89067,0.46266 h -5.61333 l 0.38,-8.55733 c 0.50933,-11.416 -0.20933,-13.484 -4.672,-13.484 -2.24533,0 -4.708,2.49467 -5.49466,5.56267 -0.324,1.25066 -0.78134,5.40133 -1.02134,9.22933 l -0.43733,6.95867 -5.656,0.16666 c -3.11467,0.088 -5.77067,-0.0427 -5.912,-0.292 z m 126.13066,-4.636 c 0.19734,-2.80666 0.61467,-11.97333 0.916,-20.38 0.308,-8.40533 0.69867,-15.516 0.86534,-15.80666 0.37466,-0.62534 10.656,-0.70934 10.97866,-0.0893 0.12,0.24 0.005,3.17734 -0.26,6.52667 -0.26533,3.34933 -0.66666,12.484 -0.88533,20.30133 l -0.40667,14.20934 -5.78666,0.16666 -5.78134,0.16667 z m 17.04667,-3.69733 -4.584,-8.75067 4.38133,-6.76533 4.38534,-6.76533 5.97866,-0.16667 c 4.448,-0.12 5.984,0.0213 5.984,0.552 0,0.39067 -1.88,3.25467 -4.18133,6.36933 -2.29734,3.10934 -4.308,6 -4.464,6.428 -0.156,0.42134 1.724,4.28667 4.172,8.58267 2.45333,4.29733 4.45866,8.14133 4.464,8.54133 0.004,0.532 -1.516,0.724 -5.772,0.724 h -5.78533 z m 303.59866,8.20267 c -0.17734,-0.30134 0.0573,-8.068 0.52666,-17.25467 0.468,-9.19333 0.91067,-18.276 0.98934,-20.188 l 0.13466,-3.47867 h 5.844 c 5.50534,0 5.83867,0.0627 5.74,1.156 -0.0573,0.64134 -0.50533,9.64534 -1,20.01067 -0.48933,10.36933 -0.99466,19.17733 -1.13066,19.57733 -0.28667,0.876 -10.59334,1.03734 -11.104,0.17734 z m 266.37466,-0.52 c -5.744,-2.136 -8.744,-6.96934 -8.708,-14.016 0.052,-10.89067 6.39066,-17.396 16.95333,-17.396 9.46933,0 15.036,4.65066 15.20267,12.70266 0.0373,1.78667 -0.124,3.57334 -0.364,3.96934 -0.32267,0.536 -2.984,0.724 -10.16134,0.724 -10.61466,0 -10.86533,0.088 -9.83333,3.312 1.156,3.61466 6.87467,4.88533 13.948,3.104 1.62533,-0.41067 3.088,-0.60934 3.24933,-0.43734 0.5,0.52134 -0.43733,6.67734 -1.17733,7.73467 -0.588,0.83867 -1.91067,1.02667 -8.42667,1.19867 -6.52,0.176 -8.18666,0.036 -10.68266,-0.896 z m 12.52666,-19.61467 c 0.95334,-2.57867 -2.88,-5.584 -5.75466,-4.516 -1.844,0.68267 -3.79734,3.344 -3.34934,4.56267 0.50534,1.36933 8.59867,1.328 9.104,-0.0467 z m -188.12532,12.14533 c 0.26133,-4.396 0.47466,-11.64533 0.47466,-16.11466 v -8.12 l -5.844,-0.29067 -5.844,-0.28667 0.0107,-3.48533 c 0.02,-6.02 -1.74533,-5.504 18.91067,-5.504 15.91733,0 18.16266,0.10933 18.45333,0.90533 0.188,0.49467 0.11466,2.52134 -0.156,4.49467 l -0.48934,3.58933 h -11.65066 l -0.448,2.744 c -0.24534,1.51067 -0.62534,8.81867 -0.84934,16.24 l -0.40666,13.49467 -6.32267,0.16133 -6.31733,0.16667 z m 32.19333,7.37467 c -0.204,-0.34267 -0.0947,-5.9 0.24933,-12.348 0.33867,-6.448 0.672,-13.15733 0.74,-14.912 l 0.12533,-3.188 5.12,-0.16667 c 4.68667,-0.15066 5.16667,-0.0667 5.728,1.032 l 0.62,1.19734 1.756,-1.30134 c 1.24934,-0.928 2.56667,-1.31333 4.56267,-1.32266 l 2.80133,-0.0213 0.32267,9.42667 -3.088,0.26533 c -3.15067,0.272 -5.16133,1.56267 -6.57333,4.22934 -0.33867,0.64133 -0.75467,4.81333 -0.92134,9.28133 l -0.31333,8.12 -5.38,0.16667 c -3.40533,0.104 -5.51467,-0.068 -5.74933,-0.45867 z m 28.95333,-5.92133 c 0.23333,-3.604 0.572,-10.59334 0.76,-15.536 l 0.33867,-8.99067 h 11.68666 l -0.19733,2.60933 c -0.10933,1.43334 -0.36,8.34934 -0.55733,15.37067 l -0.36,12.76 -6.04134,0.16667 -6.04666,0.16133 z m 21.812,6.088 c -0.14133,-0.24934 -0.0267,-2.54134 0.25467,-5.09334 0.276,-2.552 0.67733,-9.33866 0.896,-15.08266 l 0.396,-10.43867 5.43733,-0.16667 c 4.49467,-0.14 5.48,-0.009 5.704,0.724 0.14533,0.49067 0.39067,1.29734 0.54133,1.79734 0.22934,0.76 0.55734,0.68266 2.088,-0.5 2.48,-1.92134 5.032,-2.724 8.64667,-2.724 4.25467,0 6.97867,0.98933 9.12933,3.308 l 1.844,1.98933 -0.172,12.83867 c -0.0987,7.05733 -0.30133,13.04133 -0.45333,13.296 -0.15067,0.256 -2.80133,0.464 -5.89067,0.464 h -5.61466 l 0.38133,-8.552 c 0.50933,-11.41734 -0.204,-13.484 -4.672,-13.484 -2.24533,0 -4.70933,2.49466 -5.49467,5.56133 -0.31866,1.24533 -0.776,5.40133 -1.02133,9.224 l -0.43733,6.964 -5.656,0.16133 c -3.11467,0.0933 -5.77067,-0.036 -5.90667,-0.28666 z m 44.31733,-4.64 c 0.204,-2.80267 0.61467,-11.97467 0.92267,-20.37467 0.30133,-8.40667 0.692,-15.52133 0.864,-15.808 0.36933,-0.63067 10.656,-0.708 10.97467,-0.088 0.11866,0.23867 0.004,3.17733 -0.26134,6.52533 -0.26533,3.34934 -0.66666,12.48534 -0.88533,20.29734 l -0.40133,14.21333 -11.572,0.33333 z m 17.04667,-3.69334 -4.57733,-8.74933 8.75999,-13.532 5.984,-0.16667 c 4.44267,-0.11866 5.98,0.0213 5.98,0.548 0,0.39467 -1.88,3.26 -4.17733,6.36934 -2.30267,3.11466 -4.312,6.00533 -4.46933,6.42666 -0.156,0.428 1.724,4.292 4.172,8.58934 2.45333,4.296 4.464,8.14 4.464,8.536 0.0107,0.536 -1.51067,0.724 -5.77067,0.724 h -5.78133 z m 62.61466,8.16667 c -0.20266,-0.34267 -0.0933,-5.9 0.25067,-12.348 0.33867,-6.448 0.672,-13.15733 0.74,-14.912 l 0.124,-3.188 5.11467,-0.16667 c 4.69333,-0.15066 5.172,-0.0667 5.73466,1.032 l 0.61467,1.19734 1.76,-1.30134 c 1.25067,-0.928 2.568,-1.31333 4.56267,-1.32266 l 2.80266,-0.0213 0.32267,9.42667 -3.08933,0.26533 c -3.15067,0.272 -5.16667,1.56267 -6.57734,4.22934 -0.33333,0.64133 -0.75066,4.81333 -0.92266,9.28133 l -0.30667,8.12 -5.38,0.16667 c -3.40667,0.104 -5.516,-0.068 -5.75067,-0.45867 z M 523.34399,546.20265 c -0.57334,-0.59333 -0.47467,-4.54133 0.156,-6.26 l 0.54133,-1.48933 h 7.26533 c 5.31334,0 7.32934,0.19733 7.50534,0.724 0.13066,0.40133 0.0627,2.16133 -0.156,3.916 l -0.396,3.19333 -7.26534,0.16134 c -4,0.088 -7.44266,-0.0213 -7.65066,-0.24534 z m 166.39599,0 c -0.57333,-0.59333 -0.47466,-4.54133 0.156,-6.26 l 0.54134,-1.48933 h 7.26533 c 5.31333,0 7.328,0.19733 7.50533,0.724 0.13067,0.40133 0.0627,2.16133 -0.156,3.916 l -0.396,3.19333 -7.26533,0.16134 c -4,0.088 -7.44267,-0.0213 -7.65067,-0.24534 z M 360.13066,522.01599 c -0.16667,-0.464 -0.22934,-1.844 -0.13067,-3.068 l 0.17733,-2.23467 3.61467,0.005 3.62,0.005 v 5.78133 l -3.48533,0.172 c -2.64,0.12933 -3.56267,-0.032 -3.796,-0.66133 z m 11.29066,0.416 c -0.66666,-0.692 -0.43733,-4.68134 0.30267,-5.25467 0.38,-0.30267 2.07333,-0.52667 3.75467,-0.50533 l 3.06266,0.0307 v 5.80267 l -3.364,0.172 c -1.84933,0.088 -3.53733,-0.016 -3.756,-0.24533 z m 413.31866,-0.44267 c -0.16133,-0.44267 -0.21867,-1.94267 -0.12,-3.33333 l 0.172,-2.53067 h 11.12933 l 0.172,2.15067 c 0.31867,4.01066 -0.364,4.52133 -6.052,4.52133 -3.75466,0 -5.07733,-0.204 -5.30133,-0.808 z m -519.44799,-17.568 c -31.084,-2.37467 -52.81333,-8.072 -72.85466,-19.104 -22.172,-12.20267 -33.12,-25.76 -38.364,-47.51066 -2.08933,-8.68134 -2.54667,-13.53067 -2.49467,-26.66134 0.0573,-14.05733 0.432,-20.692 3.24934,-57.42133 2.24533,-29.16666 3,-42.98933 5.29733,-96.28133 0.932,-21.688 1.78133,-39.69733 1.88,-40.016 0.18267,-0.552 85.192,-0.78133 85.71866,-0.23333 0.12534,0.12933 -1.13066,20.06666 -2.78133,44.312 -5.59333,82.10933 -6.70267,104.42666 -6.20267,124.65066 0.55734,22.756 3.364,32.428 12.06267,41.584 4.99467,5.25467 10.68133,8.41067 19.29067,10.71333 10.052,2.68667 24.13066,2.52 34.276,-0.412 12.464,-3.59866 21.74533,-12.44266 26.90666,-25.63466 3.448,-8.81334 4.60933,-15.33334 6.59333,-36.97467 3.71467,-40.49467 6.38134,-84.07733 7.844,-128.13466 0.47467,-14.19867 0.912,-26.83334 0.984,-28.07867 l 0.12,-2.27067 43.604,-0.052 c 23.98,-0.0267 43.672,0.0773 43.756,0.24 0.088,0.16134 -2.032,33.43734 -4.708,73.948 -2.68266,40.51467 -5.03733,79.66667 -5.24533,87 -1.084,38.968 -3.83867,56.11333 -11.52667,71.71333 -5.73866,11.65067 -14.26533,21.276 -26.02,29.38533 -21.156,14.58267 -46.69333,22.31734 -82.70799,25.04134 -7.07867,0.53066 -32.568,0.66133 -38.67734,0.19733 z m 337.51999,0.016 c -32.96266,-2.74 -57.04666,-10.03067 -78.98399,-23.90667 -35.33867,-22.35866 -53.016,-51.16133 -57.916,-94.36399 -0.99467,-8.74534 -1.14667,-29.59334 -0.28133,-38.24 2.79599,-28.03067 11.05733,-51.448 25.35866,-71.92133 11.65067,-16.67734 26.43733,-29.87467 46.71333,-41.69334 29.21467,-17.02533 72.048,-25.41066 114.36,-22.39066 17.588,1.256 52.896,6.16666 54.208,7.53733 0.344,0.35867 0.756,6.744 1.016,15.812 0.24,8.36933 0.90667,22.78133 1.47333,32.036 0.568,9.25067 0.85467,17.02667 0.64134,17.27733 -0.21867,0.24934 -3,-0.18266 -6.188,-0.96933 -26.53067,-6.52133 -49.73467,-9.312 -66.33867,-7.97867 -32.26533,2.59334 -56.85866,16.55734 -72.16133,40.968 -15.292,24.40133 -18.21333,57.844 -7.26,83.02133 5.744,13.21334 18.28667,26.30667 32.00533,33.42667 23.32267,12.104 58.568,12.136 105.73467,0.0933 9.04133,-2.30666 9.932,-2.39466 9.52533,-0.97333 -1.04667,3.656 -7.23467,43.24933 -9.03067,57.776 -0.87066,7.016 -1.14133,8.104 -2.136,8.54133 -2.568,1.13067 -32.92133,4.532 -51.21866,5.74 -8.036,0.53067 -33.99467,0.66667 -39.52134,0.208 z m 204.70933,-9.45333 c 0.18667,-2.41067 0.968,-11.42667 1.73334,-20.04134 4.52133,-50.92666 7.57333,-108.32799 9.21866,-173.37466 0.38134,-15.052 0.38667,-22.76533 0.016,-23.156 -0.36933,-0.38533 -14.292,-0.224 -41.776,0.484 -30.07333,0.77067 -41.39066,0.88534 -41.83866,0.416 -0.448,-0.46266 -0.432,-4.60933 0.0467,-15.312 0.36534,-8.07333 0.81334,-21.59333 0.996,-30.04666 0.18134,-8.45334 0.51467,-15.72934 0.73867,-16.17734 0.34933,-0.688 19.43733,-0.81733 127.08933,-0.86933 l 126.676,-0.0627 v 3.11467 c 0,1.71333 -0.27067,7.45867 -0.59867,12.76 -0.328,5.308 -0.89066,17.86933 -1.24933,27.91733 l -0.656,18.27067 -7.792,-0.10933 c -4.28667,-0.0573 -15.38533,-0.38 -24.672,-0.724 -9.28133,-0.33867 -24.5,-0.62 -33.81733,-0.62 h -16.93867 l -0.50933,1.30666 c -0.49067,1.256 -1.92267,19.92267 -3.63067,47.41734 -1.93733,31.11999 -3.86933,79.84933 -4.76,120.05733 -0.33867,15.47333 -0.792,33.73866 -0.99467,40.59866 l -0.38133,12.46933 -43.61866,0.0307 -43.62,0.0267 z"
     style="fill:#030303;fill-opacity:1;fill-rule:nonzero;stroke:none;stroke-width:1.33333" />
</svg>
