<?xml version="1.0" encoding="UTF-8" standalone="no"?>
<!-- Created with Inkscape (http://www.inkscape.org/) -->

<svg
   version="1.1"
   id="svg1"
   width="1122.5197"
   height="793.70074"
   viewBox="0 0 1122.5197 793.70074"
   xmlns="http://www.w3.org/2000/svg"
   xmlns:svg="http://www.w3.org/2000/svg">
  <defs
     id="defs1" />
  <path
     id="path2"
     d="m 537.64532,687.68265 c -1.31733,-0.0573 -6.072,-0.26133 -10.55733,-0.448 -80.744,-3.37467 -162.41067,-19.46933 -239.52,-47.19333 -52.96933,-19.04667 -106.66133,-44.97867 -153.92266,-74.344 -4.4,-2.73333 -10.55733,-6.552 -13.68133,-8.484 l -5.67734,-3.51067 0.0773,-216.35333 0.084,-216.35466 h 891.83864 l 0.077,219.06266 0.084,219.05733 -10.96406,6.52534 c -23.49467,13.99066 -32.26534,19 -46.79067,26.71466 -84.45333,44.85867 -174.32933,74.172 -268.80799,87.676 -25.21334,3.60533 -45.40134,5.5 -77.12,7.24 -5.812,0.31733 -59.40533,0.656 -65.12,0.412 z m 62.88133,-7.136 c 31.41067,-1.708 51.9,-3.62933 77.11867,-7.23467 99.27199,-14.192 194.58399,-46.21333 280.97999,-94.40533 7.036,-3.928 39.57733,-23.26133 40.54133,-24.08933 0.53067,-0.45733 0.55734,-10.94267 0.47867,-213.79066 l -0.0773,-213.308 H 121.16666 v 421.40666 l 8.31734,5.364 c 43.912,28.29733 90.87066,52.104 141.79733,71.88533 82.21333,31.932 170.63599,50.48533 258.04666,54.14133 4.484,0.18667 9.24,0.39067 10.55733,0.448 5.552,0.23867 54.76533,-0.1 60.64133,-0.41733 z m -59.68266,-12.06267 c -1.31734,-0.0573 -6.068,-0.26 -10.55734,-0.448 -138.93199,-5.812 -275.33332,-48.51466 -392.87999,-122.99999 l -3.92266,-2.484 0.084,-201.17733 0.0773,-201.17733 h 853.44265 l 0.0787,203.72399 0.0787,203.71867 -6.79733,4.152 c -102.45867,62.49466 -217.52667,101.13466 -336.56266,113.02533 -13.672,1.37066 -25.172,2.20933 -44.31733,3.24533 -5.90667,0.32267 -53.24534,0.66133 -58.724,0.42133 z M 867.13064,459.58399 c 16.56267,-2.152 30.13467,-7.95333 38.99467,-16.66667 5.5,-5.40666 9.01467,-11.996 10.62933,-19.912 0.54267,-2.656 0.57334,-7.56266 0.57334,-90.64533 v -87.844 l -0.70267,-3.83866 c -2.33333,-12.776 -8.448,-22.052 -18.83333,-28.568 -4.81867,-3.02534 -13.224,-6.10934 -20.62534,-7.57334 -12.35999,-2.43733 -29.09333,-2.74933 -42.71866,-0.796 -20.412,2.92667 -34.28133,11.224 -40.86933,24.45734 -2.02667,4.068 -3.22934,7.792 -4.344,13.43866 -0.45334,2.28534 -0.52134,11.828 -0.62534,88.96267 -0.0827,62.57866 -0.016,87.276 0.24534,89.57333 1.124,9.932 5.484,18.416 12.63466,24.604 9.86,8.536 24.04667,13.71333 41.756,15.24533 4.916,0.42667 19.26534,0.16134 23.88533,-0.43733 z m -17.25599,-34.756 c -2.66134,-0.672 -4.71334,-2.484 -5.328,-4.70267 -0.47334,-1.704 -0.47334,-176.08399 0,-177.79199 0.188,-0.672 0.844,-1.78134 1.464,-2.45867 1.62533,-1.80133 3.448,-2.396 7.32266,-2.396 2.81734,0 3.40667,0.1 4.80267,0.81867 1.71333,0.88 2.83333,2.25466 3.34267,4.104 0.448,1.59866 0.448,176.07199 0,177.67199 -0.9,3.26 -3.23334,4.78667 -7.588,4.95334 -1.54134,0.0573 -3.34934,-0.032 -4.016,-0.19867 z m -560.31732,32.89067 c 0.172,-0.224 4.43733,-31.20267 9.47866,-68.84934 5.03734,-37.65066 9.23467,-68.52533 9.328,-68.61466 0.0893,-0.088 0.21467,-0.104 0.28134,-0.0307 0.068,0.0733 4.532,31.016 9.91733,68.75467 5.39067,37.74 9.916,68.74 10.05733,68.88133 0.14534,0.14533 15.01067,0.224 33.036,0.176 l 32.776,-0.0773 15.912,-123.83867 c 8.74933,-68.11466 15.916,-124.16666 15.92667,-124.56266 0.0107,-0.396 0.16133,-0.71867 0.33333,-0.71867 0.21333,0 0.34933,41.89067 0.40133,124.55733 l 0.0827,124.56267 36.48,0.088 c 22.968,0.0573 37.844,-0.0253 40.156,-0.23467 12.77066,-1.12933 23.292,-4.932 32.64,-11.796 2.83333,-2.07867 7.35466,-6.52667 9.204,-9.052 4.572,-6.26133 7.47333,-14.02667 8.38533,-22.43333 0.44267,-4.14534 0.45333,-162.02533 0.005,-166.33333 -1.448,-13.98934 -7.35466,-24.38534 -17.95333,-31.588 -9.68267,-6.58267 -20.432,-10.412 -32.552,-11.604 -5.22933,-0.516 -121.48,-0.448 -121.88,0.0733 -0.16666,0.21867 -4.396,25.932 -9.39066,57.14 -4.99467,31.20267 -9.188,56.90667 -9.31334,57.10933 -0.124,0.20267 -0.28533,0.30267 -0.364,0.21867 -0.0733,-0.0827 -3.5,-25.92667 -7.61466,-57.42667 l -7.48934,-57.28133 -31.17733,-0.084 c -17.15066,-0.0467 -31.30266,0.0427 -31.45333,0.19333 -0.15067,0.14534 -4.45867,25.88534 -9.57333,57.19734 -5.11334,31.31333 -9.35867,56.99466 -9.432,57.068 -0.072,0.0787 -0.24934,0.005 -0.396,-0.156 -0.14534,-0.16667 -3.33867,-25.78667 -7.09334,-56.93734 -3.74933,-31.156 -6.95866,-56.82266 -7.12533,-57.04133 -0.23867,-0.31333 -5.59333,-0.40133 -24.88533,-0.40133 -13.52,0 -24.65067,0.11466 -24.73867,0.25466 -0.15733,0.256 31.02533,252.04667 31.30667,252.78667 0.224,0.584 56.27066,0.584 56.724,0 z m 193.28666,-32.42134 c -0.13067,-0.136 -0.24,-42.41733 -0.24,-93.96399 0,-84.38534 0.052,-93.73467 0.5,-93.90667 0.76,-0.29067 5.60933,0.42267 7.59866,1.12 3.56267,1.256 5.844,3.46933 7.14667,6.932 0.57733,1.548 0.59867,4.34933 0.68133,84.792 0.0533,54.568 -0.0307,83.78666 -0.23866,84.92266 -0.92267,4.97867 -3.76134,7.968 -8.98,9.44267 -2.088,0.588 -6.12934,1.004 -6.468,0.66133 z m 277.51999,16.5 0.16267,-16.16133 13.59866,-0.15733 13.59867,-0.16134 v -37.76 l -13.59867,-0.16133 -13.59866,-0.156 -0.16267,-91.204 -0.156,-91.19733 -37.32266,-0.084 c -29.62,-0.0613 -37.38,0 -37.63067,0.324 -0.16667,0.21867 -12.572,41.80133 -27.56133,92.4 l -27.25067,92 0.0787,17.92266 0.0827,17.916 37.604,0.16134 37.59867,0.15733 0.0787,15.84267 c 0.0467,8.70933 0.14533,16.02133 0.22933,16.24 0.12,0.31733 5.71333,0.38533 27.12,0.32266 l 26.97333,-0.0827 z m -79.676,-54.78133 c 0,-0.28133 21.60934,-85.76533 24.35334,-96.33866 0.16666,-0.66134 0.448,-1.19867 0.62,-1.19867 0.19866,0 0.276,17.64133 0.224,48.88133 l -0.0787,48.88 -12.56133,0.0827 c -9.688,0.0627 -12.55734,-0.005 -12.55734,-0.30667 z m -48.48,-33.38 v -14.07867 h -71.99999 l -0.0827,13.76 c -0.0467,7.568 -0.016,13.94267 0.068,14.16134 0.124,0.31866 7.50933,0.38533 36.08267,0.31866 l 35.93199,-0.0787 z"
     style="fill:#010101;fill-opacity:1;fill-rule:nonzero;stroke:none;stroke-width:1.33333" />
</svg>
